<?xml version="1.0" standalone="no"?>
<!DOCTYPE svg PUBLIC "-//W3C//DTD SVG 1.1//EN" "http://www.w3.org/Graphics/SVG/1.1/DTD/svg11.dtd" >
<svg xmlns="http://www.w3.org/2000/svg" xmlns:xlink="http://www.w3.org/1999/xlink" version="1.1">
<metadata>
Created by FontForge 20170731 at Fri Jul 22 12:59:27 2022
 By Aleksey,,,
Copyright (c) 2014, Cooper Hewitt Smithsonian Design Museum (cooperhewitt.org)
</metadata>
<defs>
<font id="CooperHewitt-Bold" horiz-adv-x="614" >
  <font-face 
    font-family="Cooper Hewitt"
    font-weight="711"
    font-stretch="normal"
    units-per-em="2048"
    panose-1="0 0 0 0 0 0 0 0 0 0"
    ascent="1536"
    descent="-512"
    x-height="1085"
    cap-height="1597"
    bbox="-522 -463 2843 1982"
    underline-thickness="40"
    underline-position="-224"
    unicode-range="U+0020-F222"
  />
<missing-glyph horiz-adv-x="1970" 
d="M186 0v1597h1598v-1597h-1598zM985 707l-571 -572h1142zM414 1462l571 -571l571 571h-1142zM893 799l-563 563v-1126zM1077 799l563 -563v1126z" />
    <glyph glyph-name=".notdef" horiz-adv-x="1970" 
d="M186 0v1597h1598v-1597h-1598zM985 707l-571 -572h1142zM414 1462l571 -571l571 571h-1142zM893 799l-563 563v-1126zM1077 799l563 -563v1126z" />
    <glyph glyph-name=".null" horiz-adv-x="0" 
 />
    <glyph glyph-name="nonmarkingreturn" horiz-adv-x="682" 
 />
    <glyph glyph-name="space" unicode=" " horiz-adv-x="409" 
 />
    <glyph glyph-name="exclam" unicode="!" horiz-adv-x="542" 
d="M72 1597h401l-86 -1130h-229zM442 342v-342h-340v342h340z" />
    <glyph glyph-name="quotedbl" unicode="&#x22;" horiz-adv-x="913" 
d="M96 1597h318l-19 -661h-248zM502 1597h315l-49 -661h-250z" />
    <glyph glyph-name="numbersign" unicode="#" horiz-adv-x="1228" 
d="M137 920v282h185l73 395h283l-74 -395h166l74 395h280l-73 -395h131v-282h-183l-43 -242h136v-283h-187l-71 -395h-283l72 395h-166l-72 -395h-281l72 395h-129v283h180l43 242h-133zM553 920l-43 -242h166l43 242h-166z" />
    <glyph glyph-name="dollar" unicode="$" horiz-adv-x="1228" 
d="M614 1231h-16q-77 -2 -123.5 -36t-46.5 -99v-11q0 -43 18 -69t72 -47.5t156 -36.5q244 -36 356.5 -127.5t112.5 -265.5v-21q0 -200 -135 -308t-390 -108h-43l-53 -225h-248l66 277q-252 103 -252 409v12h326q0 -93 51.5 -149.5t152.5 -56.5h11q182 0 182 135v10
q0 71 -53.5 106.5t-210.5 59.5q-227 35 -336 126t-109 261v20q0 197 139 303.5t373 106.5h45l56 223h248l-66 -278q118 -56 174.5 -155.5t56.5 -252.5v-28h-321q0 225 -193 225z" />
    <glyph glyph-name="percent" unicode="%" horiz-adv-x="2009" 
d="M606 1595q88 -32 169.5 -44.5t209.5 -12.5q121 0 244.5 22t187.5 44v-154l-604 -1450h-283l541 1296q-77 -16 -145 -16q-50 0 -97 6q0 -7 1 -23t1 -24v-25q0 -183 -107.5 -285t-279.5 -102q-174 0 -281.5 102t-107.5 285v25q0 183 107.5 284t281.5 101q83 0 162 -29z
M1178 383q0 183 107.5 285t281.5 102q172 0 279.5 -102t107.5 -285v-25q0 -183 -107.5 -284t-279.5 -101q-174 0 -281.5 101t-107.5 284v25zM1417 358q0 -65 40 -105t104 -40h12q64 0 102.5 40t38.5 105v27q0 65 -38.5 104t-102.5 39h-12q-65 0 -104.5 -39.5t-39.5 -103.5
v-27zM592 1239q0 65 -38.5 105t-102.5 40h-13q-64 0 -103.5 -40t-39.5 -105v-27q0 -64 39.5 -103.5t103.5 -39.5h13q64 0 102.5 39t38.5 104v27z" />
    <glyph glyph-name="ampersand" unicode="&#x26;" horiz-adv-x="1415" 
d="M512 -27q-223 0 -348 124.5t-125 334.5v21q0 145 60.5 246.5t164.5 177.5q-68 89 -99.5 168.5t-31.5 189.5v22q0 76 25.5 141t77.5 116t138.5 80.5t200.5 29.5t200.5 -29.5t138 -80.5t77 -116t25.5 -141v-22q0 -65 -18.5 -121.5t-46 -97t-72.5 -79.5t-84 -64t-95 -56
l254 -301q60 139 60 287v6h340v-8q0 -138 -49 -278.5t-142 -254.5l228 -268h-390l-65 76q-191 -103 -424 -103zM565 252h10q99 0 179 41l-305 360q-80 -77 -80 -180v-12q0 -99 50 -154t146 -55zM459 1245v-12q0 -98 65 -203q81 49 123.5 95.5t42.5 107.5v12q0 51 -28.5 82
t-79.5 31h-13q-51 0 -80.5 -31t-29.5 -82z" />
    <glyph glyph-name="quotesingle" unicode="'" horiz-adv-x="542" 
d="M96 1597h350l-51 -661h-248z" />
    <glyph glyph-name="parenleft" unicode="(" horiz-adv-x="747" 
d="M80 717v41q0 170 21.5 312.5t65 259t90.5 203.5t116 187h336q-70 -106 -120.5 -203t-95 -215.5t-67.5 -255.5t-23 -288v-41q0 -151 23 -288t67.5 -256t95 -216t120.5 -203h-336q-69 100 -116 187.5t-90.5 204t-65 259t-21.5 312.5z" />
    <glyph glyph-name="parenright" unicode=")" horiz-adv-x="747" 
d="M668 758v-41q0 -171 -21.5 -313t-64 -258.5t-90.5 -204.5t-117 -187h-336q146 221 225.5 447.5t79.5 515.5v41q0 289 -79.5 515t-225.5 447h336q69 -100 117 -187.5t91 -203.5t64 -258t21 -313z" />
    <glyph glyph-name="asterisk" unicode="*" horiz-adv-x="845" 
d="M332 1638h182l-10 -274h-162zM10 1272l56 174l258 -96l-52 -154zM258 850l-147 106l170 215l131 -94zM778 1446l58 -174l-265 -76l-49 154zM733 956l-145 -106l-156 227l131 94z" />
    <glyph glyph-name="plus" unicode="+" horiz-adv-x="1228" 
d="M471 1327h287v-385h385v-287h-385v-385h-287v385h-385v287h385v385z" />
    <glyph glyph-name="comma" unicode="," horiz-adv-x="544" 
d="M442 342v-270q0 -180 -88.5 -272.5t-261.5 -92.5v162q152 0 182 131h-172v342h340z" />
    <glyph glyph-name="hyphen" unicode="-" horiz-adv-x="722" 
d="M82 575v283h559v-283h-559z" />
    <glyph glyph-name="period" unicode="." horiz-adv-x="544" 
d="M442 342v-342h-340v342h340z" />
    <glyph glyph-name="slash" unicode="/" horiz-adv-x="847" 
d="M817 1720l-471 -1966h-315l471 1966h315z" />
    <glyph glyph-name="zero" unicode="0" horiz-adv-x="1228" 
d="M1137 453q0 -215 -135 -347.5t-388 -132.5t-387.5 132.5t-134.5 347.5v692q0 215 134.5 347t387.5 132t388 -132t135 -347v-692zM809 1141q0 91 -48 143.5t-143 52.5h-8q-95 0 -142.5 -52.5t-47.5 -143.5v-684q0 -91 47.5 -144t142.5 -53h8q95 0 143 53t48 144v684z" />
    <glyph glyph-name="one" unicode="1" horiz-adv-x="1228" 
d="M1149 0h-1028v287h350v907l-252 -170l-162 238l498 337h244v-1312h350v-287z" />
    <glyph glyph-name="two" unicode="2" horiz-adv-x="1228" 
d="M698 287h441v-287h-1049v207l615 678q58 61 82 106.5t24 108.5v20q0 106 -50.5 161.5t-135.5 55.5h-21q-90 0 -138 -63.5t-48 -208.5h-328v41q0 260 129 389t395 129q113 0 203.5 -26t149.5 -69t98.5 -101.5t56.5 -119.5t17 -126v-37q0 -133 -40.5 -220t-137.5 -194
l-408 -446z" />
    <glyph glyph-name="three" unicode="3" horiz-adv-x="1228" 
d="M408 512q0 -252 196 -252h21q83 0 139.5 51.5t56.5 151.5v22q0 92 -50.5 139.5t-141.5 47.5h-219v286h213q91 0 139.5 46t48.5 137v18q0 79 -52 128.5t-134 49.5h-21q-91 0 -138.5 -63t-47.5 -209h-328v41q0 260 129 389t395 129q112 0 203.5 -26t150 -68t98 -98.5
t56.5 -114.5t17 -119v-39q0 -120 -51.5 -206t-135.5 -136q197 -112 197 -350v-39q0 -63 -18.5 -125.5t-60 -122.5t-102 -105.5t-152 -73.5t-202.5 -28q-266 0 -400 131.5t-134 380.5v27h328z" />
    <glyph glyph-name="four" unicode="4" horiz-adv-x="1228" 
d="M999 0h-327v348h-617v230l635 1019h309v-962h175v-287h-175v-348zM676 1077l-281 -446l105 4h172v323z" />
    <glyph glyph-name="five" unicode="5" horiz-adv-x="1228" 
d="M80 512h328q0 -252 196 -252h21q84 0 140 57.5t56 176.5v22q0 121 -58.5 178.5t-154.5 57.5h-12q-68 0 -130 -33t-93 -94l-281 96l37 876h999v-286h-725l-14 -324q114 49 242 49q247 0 382.5 -137t135.5 -375v-39q0 -239 -138.5 -375.5t-396.5 -136.5q-266 0 -400 131.5
t-134 380.5v27z" />
    <glyph glyph-name="six" unicode="6" horiz-adv-x="1228" 
d="M1071 1624v-291q-180 0 -304.5 -46t-207.5 -148q-67 -81 -106 -207q115 76 252 76q203 0 324.5 -135t121.5 -369v-21q0 -240 -137.5 -375t-397.5 -135q-255 0 -395.5 158.5t-140.5 427.5v27q0 437 225 737q125 167 313.5 234t452.5 67zM621 721q-64 0 -122 -32t-91 -91
v-66q0 -129 57 -200.5t145 -71.5h13q87 0 143.5 57t56.5 156v39q0 106 -52 157.5t-140 51.5h-10z" />
    <glyph glyph-name="seven" unicode="7" horiz-adv-x="1228" 
d="M74 1024v573h1085v-202l-567 -1395h-350l551 1315l-195 -4h-236v-287h-288z" />
    <glyph glyph-name="eight" unicode="8" horiz-adv-x="1228" 
d="M614 -27q-111 0 -202.5 28t-151.5 73t-101.5 105t-60 122t-18.5 125v39q0 125 53 213t143 139q-84 49 -135 135.5t-51 208.5v39q0 60 16.5 117.5t56 113.5t98.5 98.5t150 68.5t203 26t203.5 -26t150 -68.5t98 -98.5t56.5 -113.5t17 -117.5v-39q0 -122 -51 -208t-136 -136
q89 -51 143 -139.5t54 -212.5v-39q0 -63 -18.5 -125t-60 -122t-102 -105t-152 -73t-202.5 -28zM600 672q-91 0 -141.5 -48t-50.5 -139v-22q0 -101 56.5 -152t139.5 -51h21q83 0 139.5 51t56.5 152v22q0 91 -50.5 139t-141.5 48h-29zM625 1337h-21q-82 0 -134 -48.5
t-52 -127.5v-20q0 -91 48.5 -137t139.5 -46h17q91 0 139.5 46t48.5 137v20q0 79 -52 127.5t-134 48.5z" />
    <glyph glyph-name="nine" unicode="9" horiz-adv-x="1228" 
d="M158 -27v291q180 0 304.5 46t207.5 149q69 84 104 205q-109 -74 -250 -74q-203 0 -324.5 135t-121.5 369v20q0 240 137 375t397 135q255 0 396 -158.5t141 -427.5v-26q0 -438 -225 -738q-125 -167 -313.5 -234t-452.5 -67zM608 877q63 0 121 31.5t92 90.5v66
q0 129 -57.5 200.5t-145.5 71.5h-12q-86 0 -143 -56.5t-57 -156.5v-39q0 -106 52 -157t140 -51h10z" />
    <glyph glyph-name="colon" unicode=":" horiz-adv-x="544" 
d="M442 342v-342h-340v342h340zM442 971v-342h-340v342h340z" />
    <glyph glyph-name="semicolon" unicode=";" horiz-adv-x="544" 
d="M442 342v-270q0 -180 -88.5 -272.5t-261.5 -92.5v162q152 0 182 131h-172v342h340zM442 971v-342h-340v342h340z" />
    <glyph glyph-name="less" unicode="&#x3c;" horiz-adv-x="1228" 
d="M86 956l1057 420v-319l-692 -258l692 -258v-320l-1057 420v315z" />
    <glyph glyph-name="equal" unicode="=" horiz-adv-x="1228" 
d="M86 877v288h1057v-288h-1057zM86 432v289h1057v-289h-1057z" />
    <glyph glyph-name="greater" unicode="&#x3e;" horiz-adv-x="1228" 
d="M1143 956v-315l-1057 -420v320l692 258l-692 258v319z" />
    <glyph glyph-name="question" unicode="?" horiz-adv-x="1017" 
d="M518 1339q-83 0 -116 -64.5t-33 -217.5h-326v37q0 267 109 398.5t366 131.5q104 0 186 -23.5t133 -62t84.5 -93t46.5 -111.5t13 -122q0 -84 -18.5 -150t-49 -110.5t-67.5 -83t-75.5 -76t-71 -79.5t-56 -105t-29.5 -141h-227q-8 108 16.5 204.5t65.5 165t83 127.5
t72.5 116t30.5 106q0 76 -31.5 114.5t-105.5 38.5zM672 342v-342h-340v342h340z" />
    <glyph glyph-name="at" unicode="@" horiz-adv-x="2029" 
d="M1051 -225h12q371 0 676 223l121 -164q-194 -154 -393 -212t-410 -58q-219 0 -402 65.5t-317 188.5t-208.5 311.5t-74.5 423.5v82q0 235 74.5 423.5t207.5 311.5t314 188.5t396 65.5q152 0 287 -28t253.5 -90.5t203.5 -155.5t134 -229.5t49 -305.5v-61q0 -144 -28 -254
t-77 -181t-121 -115.5t-152.5 -62.5t-180.5 -18h-215l-22 121q-95 -148 -285 -148q-184 0 -281.5 129.5t-97.5 343.5v70q0 214 97.5 343.5t281.5 129.5q191 0 285 -147l22 120h252l-18 -280v-473q180 9 250.5 99t70.5 323v61q0 138 -40.5 245t-106.5 172.5t-159.5 107
t-189 57.5t-206.5 16h-13q-169 0 -309 -49.5t-243 -144.5t-160.5 -244.5t-57.5 -339.5v-82q0 -192 57 -341t161.5 -244t246.5 -144t316 -49zM1153 766q-24 37 -68.5 66.5t-103.5 29.5q-87 0 -129.5 -58.5t-42.5 -164.5v-70q0 -106 42.5 -164.5t129.5 -58.5q59 0 103.5 29.5
t68.5 66.5v324z" />
    <glyph glyph-name="A" unicode="A" horiz-adv-x="1312" 
d="M428 1602h457l399 -1602h-354l-78 344h-391l-76 -344h-356zM655 1219l-131 -588h262z" />
    <glyph glyph-name="B" unicode="B" horiz-adv-x="1292" 
d="M115 1597h524q83 0 150.5 -9.5t137.5 -38.5t117.5 -76t78 -128.5t30.5 -189.5v-41q0 -199 -156 -289q197 -94 197 -325v-41q0 -112 -32 -196.5t-82.5 -133.5t-124 -79t-144.5 -40t-156 -10h-540v1597zM666 672h-220v-385h220q81 0 136.5 42.5t55.5 141.5v18
q0 99 -55.5 141t-136.5 42zM637 1311h-191v-350h191q180 0 180 161v27q0 89 -51.5 125.5t-128.5 36.5z" />
    <glyph glyph-name="C" unicode="C" horiz-adv-x="1331" 
d="M416 758q0 -127 11.5 -214t40.5 -153.5t81 -98.5t131 -32h18q222 0 222 285h331v-19q0 -290 -141 -421.5t-430 -131.5q-313 0 -456.5 186t-143.5 599v82q0 413 143.5 598.5t456.5 185.5q290 0 430.5 -132.5t140.5 -426.5v-74h-331q0 175 -49 260.5t-173 85.5h-18
q-63 0 -109 -21.5t-76 -61t-47.5 -102.5t-24.5 -137t-7 -175v-82z" />
    <glyph glyph-name="D" unicode="D" horiz-adv-x="1357" 
d="M1278 758q0 -277 -70.5 -443t-216.5 -240.5t-387 -74.5h-489v1597h489q241 0 387 -74t216.5 -240t70.5 -443v-82zM446 287h140q103 0 171.5 28t109 88.5t57 145.5t16.5 209v82q0 124 -16.5 209t-57 145.5t-109 88.5t-171.5 28h-140v-1024z" />
    <glyph glyph-name="E" unicode="E" horiz-adv-x="1173" 
d="M115 1597h977v-286h-646v-353h543v-286h-543v-385h646v-287h-977v1597z" />
    <glyph glyph-name="F" unicode="F" horiz-adv-x="1124" 
d="M115 1597h968v-286h-637v-353h535v-286h-535v-672h-331v1597z" />
    <glyph glyph-name="G" unicode="G" horiz-adv-x="1378" 
d="M713 -27q-328 0 -480.5 186.5t-152.5 598.5v82q0 410 149 597t463 187q292 0 437 -133t145 -426v-74h-332q0 176 -50 261t-181 85h-19q-156 0 -215 -120.5t-59 -376.5v-82q0 -101 7.5 -175t26.5 -137.5t51 -102.5t82.5 -61t119.5 -22h18q130 0 217 62v256h-211v286h543
v-704q-105 -86 -236.5 -136.5t-322.5 -50.5z" />
    <glyph glyph-name="H" unicode="H" horiz-adv-x="1357" 
d="M911 1597h332v-1597h-332v672h-465v-672h-331v1597h331v-639h465v639z" />
    <glyph glyph-name="I" unicode="I" horiz-adv-x="579" 
d="M457 1597v-1597h-332v1597h332z" />
    <glyph glyph-name="J" unicode="J" horiz-adv-x="1099" 
d="M664 1597h331v-1110q0 -252 -114 -383t-361 -131q-255 0 -364 130t-109 389v53h313q0 -147 33.5 -216t118.5 -69t118.5 65.5t33.5 202.5v1069z" />
    <glyph glyph-name="K" unicode="K" horiz-adv-x="1280" 
d="M446 1597v-626l394 626h401l-448 -641l448 -956h-369l-290 653l-136 -192v-461h-331v1597h331z" />
    <glyph glyph-name="L" unicode="L" horiz-adv-x="1067" 
d="M1036 0h-921v1597h331v-1310h590v-287z" />
    <glyph glyph-name="M" unicode="M" horiz-adv-x="1779" 
d="M1343 1022l-284 -1022h-338l-285 1022l10 -320v-702h-331v1597h489l287 -1022l285 1022h491v-1597h-332v702z" />
    <glyph glyph-name="N" unicode="N" horiz-adv-x="1398" 
d="M1284 1597v-1597h-350l-516 991l10 -321v-670h-313v1597h350l514 -991l-10 322v669h315z" />
    <glyph glyph-name="O" unicode="O" horiz-adv-x="1378" 
d="M688 -27q-313 0 -460.5 187t-147.5 598v82q0 411 147.5 597.5t460.5 186.5q315 0 462.5 -186.5t147.5 -597.5v-82q0 -411 -147.5 -598t-462.5 -187zM680 260h18q147 0 205 122.5t58 375.5v82q0 253 -58 375t-205 122h-18q-147 0 -205.5 -122t-58.5 -375v-82
q0 -253 58.5 -375.5t205.5 -122.5z" />
    <glyph glyph-name="P" unicode="P" horiz-adv-x="1247" 
d="M446 573v-573h-331v1597h524q87 0 158.5 -10t148 -41.5t129 -83.5t86 -143t33.5 -213v-41q0 -89 -17.5 -161.5t-46.5 -122.5t-73 -88t-90.5 -60.5t-104.5 -36.5t-110 -18.5t-113 -4.5h-193zM446 860h207q38 0 70.5 9t65 30.5t51 66.5t18.5 109v21q0 64 -18.5 109
t-51 66.5t-65 30.5t-70.5 9h-207v-451z" />
    <glyph glyph-name="Q" unicode="Q" horiz-adv-x="1378" 
d="M688 -27q-313 0 -460.5 187t-147.5 598v82q0 411 147.5 597.5t460.5 186.5q315 0 462.5 -186.5t147.5 -597.5v-82q0 -293 -74.5 -470.5t-228.5 -252.5l97 -240h-258l-70 182q-50 -4 -76 -4zM797 537l77 -199q87 110 87 420v82q0 253 -58 375t-205 122h-18
q-147 0 -205.5 -122t-58.5 -375v-82q0 -119 11.5 -205t38 -151.5t73 -100.5t114.5 -41l-106 277h250z" />
    <glyph glyph-name="R" unicode="R" horiz-adv-x="1275" 
d="M446 573v-573h-331v1597h524q87 0 158.5 -10t148 -41.5t129 -83.5t86 -143t33.5 -213v-41q0 -340 -252 -444l252 -621h-358l-220 573h-170zM446 860h207q38 0 70.5 9t65 30.5t51 66.5t18.5 109v21q0 64 -18.5 109t-51 66.5t-65 30.5t-70.5 9h-207v-451z" />
    <glyph glyph-name="S" unicode="S" horiz-adv-x="1292" 
d="M594 668q-267 36 -389.5 141t-122.5 317v23q0 220 146.5 347.5t416.5 127.5q293 0 429 -133t136 -416v-43h-331q0 159 -54 232t-178 73h-18q-98 0 -154.5 -49t-56.5 -127v-10q0 -63 21 -100.5t83 -65.5t176 -43q135 -18 229.5 -50.5t162.5 -87t100.5 -135t32.5 -190.5
v-20q0 -232 -149.5 -359t-428.5 -127q-287 0 -431 134t-144 419v19h331q0 -148 59 -216.5t177 -68.5h18q111 0 170.5 53t59.5 136v10q0 90 -62 138.5t-229 70.5z" />
    <glyph glyph-name="T" unicode="T" horiz-adv-x="1140" 
d="M735 1311v-1311h-332v1311h-368v286h1071v-286h-371z" />
    <glyph glyph-name="U" unicode="U" horiz-adv-x="1357" 
d="M678 -27q-161 0 -272.5 33.5t-177.5 103t-95 165.5t-29 231v1091h332v-1081q0 -133 53 -194.5t189 -61.5t190 61.5t54 194.5v1081h331v-1091q0 -135 -29 -231t-95.5 -165.5t-178 -103t-272.5 -33.5z" />
    <glyph glyph-name="V" unicode="V" horiz-adv-x="1312" 
d="M885 -4h-457l-399 1601h354l272 -1218l273 1218h356z" />
    <glyph glyph-name="W" unicode="W" horiz-adv-x="1918" 
d="M1190 -4l-232 1223l-231 -1223h-424l-264 1601h346l154 -1148l215 1148h411l215 -1148l154 1148h346l-264 -1601h-426z" />
    <glyph glyph-name="X" unicode="X" horiz-adv-x="1329" 
d="M39 0l389 838l-389 759h385l240 -530l241 530h385l-389 -759l389 -838h-368l-258 596l-258 -596h-367z" />
    <glyph glyph-name="Y" unicode="Y" horiz-adv-x="1280" 
d="M807 489v-489h-332v489l-459 1108h363l262 -698l260 698h363z" />
    <glyph glyph-name="Z" unicode="Z" horiz-adv-x="1226" 
d="M82 227l637 1090l-293 -6h-324v286h1022v-227l-637 -1089l293 6h365v-287h-1063v227z" />
    <glyph glyph-name="bracketleft" unicode="[" horiz-adv-x="747" 
d="M119 1720h561v-282h-240v-1401h240v-283h-561v1966z" />
    <glyph glyph-name="backslash" unicode="\" horiz-adv-x="843" 
d="M502 -246l-471 1966h315l471 -1966h-315z" />
    <glyph glyph-name="bracketright" unicode="]" horiz-adv-x="747" 
d="M629 -246h-561v283h239v1401h-239v282h561v-1966z" />
    <glyph glyph-name="asciicircum" unicode="^" horiz-adv-x="1228" 
d="M772 1597l420 -1056h-320l-258 692l-258 -692h-319l420 1056h315z" />
    <glyph glyph-name="underscore" unicode="_" horiz-adv-x="655" 
d="M86 -379v283h483v-283h-483z" />
    <glyph glyph-name="grave" unicode="`" horiz-adv-x="1024" 
d="M133 1597h352l187 -376h-320z" />
    <glyph glyph-name="a" unicode="a" horiz-adv-x="1124" 
d="M754 0l-21 113q-130 -140 -340 -140q-88 0 -154 26t-104 72t-56 103t-18 125v20q0 86 28 148.5t83 102t121.5 62t157.5 36.5l249 39q-2 83 -34.5 121t-112.5 38q-145 0 -145 -139h-306v18q0 75 22.5 137.5t73 116t143.5 83.5t222 30q131 0 221 -27t142.5 -82t75 -129
t22.5 -176v-391l20 -307h-290zM512 236q111 0 188 81v199l-184 -29q-72 -11 -102.5 -43.5t-30.5 -85.5v-12q0 -46 31.5 -78t97.5 -32z" />
    <glyph glyph-name="b" unicode="b" horiz-adv-x="1175" 
d="M432 1638v-645q101 119 279 119q403 0 403 -532v-74q0 -533 -403 -533q-205 0 -310 158l-22 -131h-289l19 307v1331h323zM432 731v-377q71 -102 184 -102q175 0 175 254v74q0 254 -175 254q-64 0 -110 -31.5t-74 -71.5z" />
    <glyph glyph-name="c" unicode="c" horiz-adv-x="1079" 
d="M385 506q0 -254 174 -254q76 0 116 41t40 108h305v-45q0 -173 -120.5 -278t-346.5 -105q-126 0 -221 39t-154 110.5t-88 168t-29 215.5v74q0 119 29 215.5t88 167.5t154 110t221 39q228 0 347.5 -108t119.5 -293v-47h-305q0 83 -40 126.5t-116 43.5q-174 0 -174 -254v-74
z" />
    <glyph glyph-name="d" unicode="d" horiz-adv-x="1191" 
d="M481 1112q178 0 279 -119v645h323v-1331l19 -307h-291l-23 129q-106 -156 -307 -156q-403 0 -403 533v74q0 532 403 532zM760 731q-27 40 -74 71.5t-111 31.5q-176 0 -176 -254v-74q0 -254 176 -254q64 0 111 31.5t74 70.5v377z" />
    <glyph glyph-name="e" unicode="e" horiz-adv-x="1138" 
d="M1077 426h-692q9 -110 60 -158.5t145 -48.5q81 0 131.5 38.5t50.5 90.5h305v-8q0 -160 -130.5 -263.5t-358.5 -103.5q-260 0 -393.5 148t-133.5 393v57q0 118 32.5 216.5t95.5 171t161.5 113t224.5 40.5t223 -40t157.5 -113t91 -171t30.5 -217v-145zM569 866
q-86 0 -130 -50.5t-52 -156.5h365q-8 106 -52.5 156.5t-130.5 50.5z" />
    <glyph glyph-name="f" unicode="f" horiz-adv-x="841" 
d="M528 1227v-142h238v-282h-238v-803h-323v803h-166v282h166v177q0 214 106 308.5t301 94.5q125 0 174 -27v-266q-9 5 -41 9.5t-57 4.5q-81 0 -120.5 -33t-39.5 -126z" />
    <glyph glyph-name="g" unicode="g" horiz-adv-x="1175" 
d="M743 23v127q-100 -111 -278 -111q-404 0 -404 508v57q0 112 23 202.5t70 160t126 107.5t185 38q204 0 309 -151l23 124h288l-18 -307v-758q0 -456 -502 -456q-132 0 -227.5 30t-150.5 85t-80 123.5t-25 154.5v43h305q0 -84 38.5 -129t133.5 -45q96 0 140 44.5t44 152.5z
M559 317q65 0 112 32t72 71v311q-25 39 -72 71t-112 32q-85 0 -129.5 -62t-44.5 -168v-57q0 -230 174 -230z" />
    <glyph glyph-name="h" unicode="h" horiz-adv-x="1187" 
d="M434 1638v-657q118 131 320 131q89 0 155.5 -30.5t105 -84.5t57 -119.5t18.5 -142.5v-735h-322v682q0 67 -33 109.5t-110 42.5q-68 0 -117 -32t-74 -71v-731h-323v1638h323z" />
    <glyph glyph-name="i" unicode="i" horiz-adv-x="544" 
d="M111 0v1085h323v-1085h-323zM442 1581v-342h-340v342h340z" />
    <glyph glyph-name="j" unicode="j" horiz-adv-x="548" 
d="M111 2v1083h323v-1118q0 -403 -407 -403q-130 0 -177 26v267q10 -5 42.5 -10t58.5 -5q80 0 120 33.5t40 126.5zM442 1581v-342h-340v342h340z" />
    <glyph glyph-name="k" unicode="k" horiz-adv-x="1150" 
d="M102 0v1638h324v-921l301 368h387l-358 -411l358 -674h-377l-205 418l-106 -123v-295h-324z" />
    <glyph glyph-name="l" unicode="l" horiz-adv-x="544" 
d="M111 0v1638h323v-1638h-323z" />
    <glyph glyph-name="m" unicode="m" horiz-adv-x="1767" 
d="M1669 0h-321v696q0 138 -129 138q-102 0 -168 -95v-739h-322v696q0 138 -129 138q-105 0 -166 -95v-739h-323v778l-19 307h289l22 -131q113 158 326 158q208 0 285 -168q116 168 334 168q161 0 241 -100.5t80 -263.5v-748z" />
    <glyph glyph-name="n" unicode="n" horiz-adv-x="1187" 
d="M1090 0h-322v682q0 67 -33 109.5t-110 42.5q-68 0 -117 -32t-74 -71v-731h-323v778l-19 307h289l25 -139q118 166 348 166q89 0 155.5 -30.5t105 -84.5t57 -119.5t18.5 -142.5v-735z" />
    <glyph glyph-name="o" unicode="o" horiz-adv-x="1138" 
d="M569 -27q-252 0 -380 144t-128 389v74q0 245 128 388.5t380 143.5q253 0 380.5 -143.5t127.5 -388.5v-74q0 -245 -127.5 -389t-380.5 -144zM569 252q185 0 185 254v74q0 254 -185 254q-184 0 -184 -254v-74q0 -254 184 -254z" />
    <glyph glyph-name="p" unicode="p" horiz-adv-x="1175" 
d="M711 -27q-178 0 -279 119v-502h-323v1188l-19 307h289l22 -133q106 160 310 160q403 0 403 -532v-74q0 -533 -403 -533zM616 834q-64 0 -110 -31.5t-74 -71.5v-377q71 -102 184 -102q175 0 175 254v74q0 254 -175 254z" />
    <glyph glyph-name="q" unicode="q" horiz-adv-x="1189" 
d="M750 -410v502q-101 -119 -279 -119q-403 0 -403 533v74q0 532 403 532q202 0 307 -158l23 131h291l-19 -307v-1188h-323zM750 354v377q-27 40 -74 71.5t-111 31.5q-176 0 -176 -254v-74q0 -254 176 -254q64 0 111 31.5t74 70.5z" />
    <glyph glyph-name="r" unicode="r" horiz-adv-x="788" 
d="M692 1112q23 0 31 -2v-311h-55q-89 0 -148.5 -28.5t-85.5 -65.5v-705h-323v778l-19 307h289l22 -127q50 71 123.5 112.5t165.5 41.5z" />
    <glyph glyph-name="s" unicode="s" horiz-adv-x="1081" 
d="M541 219q74 0 109.5 29t35.5 78q0 52 -34.5 76.5t-127.5 31.5q-236 19 -338 87t-102 218v19q0 121 61.5 202t161.5 116.5t234 35.5q456 0 456 -373v-10h-317q0 137 -139 137q-66 0 -102 -26.5t-36 -71.5q0 -51 32.5 -74t123.5 -30q88 -7 152.5 -18.5t124 -34t96 -55
t58.5 -83t22 -117.5v-18q0 -172 -120 -268.5t-351 -96.5q-230 0 -349.5 98.5t-119.5 262.5v10h321q0 -125 148 -125z" />
    <glyph glyph-name="t" unicode="t" horiz-adv-x="882" 
d="M528 1085h279v-282h-279v-391q0 -93 39.5 -126.5t120.5 -33.5q25 0 57 4.5t41 9.5v-266q-49 -27 -174 -27q-194 0 -300.5 95t-106.5 309v426h-166v282h166v308h323v-308z" />
    <glyph glyph-name="u" unicode="u" horiz-adv-x="1187" 
d="M98 1085h322v-682q0 -67 33 -109t110 -42q120 0 191 102v731h323v-778l19 -307h-289l-25 137q-120 -164 -348 -164q-90 0 -156.5 30.5t-105 84.5t-56.5 119.5t-18 142.5v735z" />
    <glyph glyph-name="v" unicode="v" horiz-adv-x="1124" 
d="M336 0l-316 1085h334l209 -825l207 825h336l-318 -1085h-452z" />
    <glyph glyph-name="w" unicode="w" horiz-adv-x="1568" 
d="M784 748l-151 -748h-408l-186 1085h317l82 -735l152 735h387l153 -735l82 735h318l-189 -1085h-405z" />
    <glyph glyph-name="x" unicode="x" horiz-adv-x="1142" 
d="M35 1085h373l163 -366l164 366h375l-279 -524l279 -561h-365l-174 389l-172 -389h-364l276 561z" />
    <glyph glyph-name="y" unicode="y" horiz-adv-x="1128" 
d="M567 393l205 692h352l-383 -1028l-139 -467h-385l174 467l-381 1028h352z" />
    <glyph glyph-name="z" unicode="z" horiz-adv-x="1021" 
d="M49 221l479 588l-225 -6h-233v282h882v-221l-479 -588l225 7h275v-283h-924v221z" />
    <glyph glyph-name="braceleft" unicode="{" horiz-adv-x="747" 
d="M680 1720v-282q-76 0 -114.5 -37t-41.5 -119v-307q0 -169 -123 -238q123 -69 123 -237v-289q0 -92 38 -133t118 -41v-283h-55q-99 0 -174 19t-132 61t-86.5 113.5t-29.5 171.5v325q-4 80 -41.5 116t-112.5 36v283q79 0 116.5 39.5t37.5 128.5v309q0 100 29.5 171.5
t86.5 113t132 60.5t174 19h55z" />
    <glyph glyph-name="bar" unicode="|" horiz-adv-x="534" 
d="M111 -246v1966h315v-1966h-315z" />
    <glyph glyph-name="braceright" unicode="}" horiz-adv-x="747" 
d="M68 -246v283q79 0 117 41t38 133v289q0 167 121 237q-121 70 -121 238v289q0 92 -38 133t-117 41v282h55q99 0 174 -19t132 -60.5t86.5 -113t29.5 -171.5v-328q3 -79 40 -114t113 -35v-283q-79 0 -116 -39.5t-37 -128.5v-309q0 -100 -29.5 -171.5t-86.5 -113.5t-132 -61
t-174 -19h-55z" />
    <glyph glyph-name="asciitilde" unicode="~" horiz-adv-x="1228" 
d="M377 987q72 0 141 -21t114.5 -45.5t102 -45.5t105.5 -21q97 0 180 98l151 -151q-55 -86 -136 -140.5t-183 -54.5q-72 0 -141 21t-114.5 45.5t-102 45.5t-105.5 21q-97 0 -180 -98l-152 152q54 86 136 140t184 54z" />
    <glyph glyph-name="nbspace" unicode="&#xa0;" horiz-adv-x="409" 
 />
    <glyph glyph-name="exclamdown" unicode="&#xa1;" horiz-adv-x="542" 
d="M473 -410h-401l86 1028h229zM102 743v342h340v-342h-340z" />
    <glyph glyph-name="cent" unicode="&#xa2;" horiz-adv-x="1228" 
d="M1149 954h-320q0 131 -42.5 195.5t-143.5 64.5h-14q-117 0 -168 -97.5t-51 -278.5v-74q0 -181 51 -279t168 -98h14q186 0 186 215h320v-33q0 -231 -130.5 -349t-389.5 -118q-46 0 -66 2l-53 -227h-250l70 293q-250 140 -250 590v78q0 329 134 494t415 165h18l53 223h250
l-63 -264q262 -102 262 -440v-62z" />
    <glyph glyph-name="sterling" unicode="&#xa3;" horiz-adv-x="1228" 
d="M659 1339q-143 0 -143 -172q0 -111 45 -278h361v-281h-287q41 -175 51 -323h453v-285h-1049v285h313q-20 149 -81 323h-232v281h139q-41 151 -41 305q0 66 14 126t48.5 116.5t87 97.5t135 65.5t186.5 24.5q259 0 370.5 -137.5t111.5 -427.5v-35h-326q0 155 -37 235
t-119 80z" />
    <glyph glyph-name="yen" unicode="&#xa5;" horiz-adv-x="1228" 
d="M84 700v283h186l-256 614h365l235 -684l236 684h364l-258 -614h189v-283h-307l-54 -127h361v-282h-365v-291h-331v291h-365v282h358l-53 127h-305z" />
    <glyph glyph-name="brokenbar" unicode="&#xa6;" horiz-adv-x="534" 
d="M111 786v934h315v-934h-315zM111 -246v934h315v-934h-315z" />
    <glyph glyph-name="section" unicode="&#xa7;" horiz-adv-x="1124" 
d="M1061 805q0 -177 -143 -258q71 -77 71 -201v-18q0 -91 -34.5 -160.5t-97.5 -111.5t-144.5 -62.5t-180.5 -20.5q-232 0 -343 96.5t-111 276.5v10h315q0 -139 139 -139q67 0 103.5 27t36.5 73q0 53 -34.5 83.5t-123.5 39.5q-87 7 -152 20t-123.5 37.5t-95.5 60t-58.5 90
t-21.5 126.5v19q0 174 142 256q-70 76 -70 202v19q0 91 34.5 160t97 111t144 62.5t179.5 20.5q233 0 345 -96.5t112 -276.5v-10h-316q0 139 -141 139q-67 0 -103 -27t-36 -73q0 -54 34.5 -84.5t124.5 -38.5q87 -7 152 -20t123.5 -37.5t95.5 -60t58.5 -90t21.5 -126.5v-18z
M559 932h-18q-78 -4 -116 -40t-38 -93q0 -63 41.5 -96.5t134.5 -36.5h19q78 3 116.5 39.5t38.5 93.5q0 64 -42 97t-136 36z" />
    <glyph glyph-name="dieresis" unicode="&#xa8;" horiz-adv-x="1024" 
d="M461 1581v-340h-338v340h338zM901 1581v-340h-338v340h338z" />
    <glyph glyph-name="copyright" unicode="&#xa9;" horiz-adv-x="1884" 
d="M117 799q0 168 65 321t175.5 263.5t263.5 175.5t321 65t321 -65t263.5 -175.5t175.5 -263.5t65 -321t-65 -321t-175.5 -263.5t-263.5 -176t-321 -65.5t-321 65.5t-263.5 176t-175.5 263.5t-65 321zM231 799q0 -145 56.5 -276.5t151.5 -226.5t226.5 -151.5t276.5 -56.5
t276.5 56.5t226.5 151.5t151.5 226.5t56.5 276.5q0 193 -95 356.5t-259 258.5t-357 95t-357 -95t-259 -258.5t-95 -356.5zM948 541q70 0 107 36t37 93h272v-41q0 -152 -108 -246t-314 -94q-114 0 -200.5 36t-138.5 101t-77.5 149.5t-25.5 188.5v70q0 104 25.5 188.5
t77.5 149.5t138.5 101t200.5 36q207 0 314.5 -97.5t107.5 -259.5v-43h-272q0 70 -36.5 109t-107.5 39q-160 0 -160 -223v-70q0 -223 160 -223z" />
    <glyph glyph-name="ordfeminine" unicode="&#xaa;" horiz-adv-x="878" 
d="M571 793l-16 81q-92 -102 -244 -102q-70 0 -121 20t-79 56t-41 79t-13 95v14q0 124 75 183t224 81l172 27q-3 44 -23 65t-65 21q-86 0 -86 -78h-266v15q0 58 18 105.5t58 86.5t112.5 60.5t172.5 21.5q199 0 280.5 -76.5t81.5 -234.5v-291l14 -229h-254zM821 371h-741v243
h741v-243zM416 997q56 0 112 45v125l-112 -18q-39 -6 -58.5 -26.5t-19.5 -49.5v-8q0 -30 18.5 -49t59.5 -19z" />
    <glyph glyph-name="guillemotleft" unicode="&#xab;" horiz-adv-x="1157" 
d="M545 1153v-285l-223 -172l223 -172v-284l-443 301v311zM1055 1153v-285l-224 -172l224 -172v-284l-443 301v311z" />
    <glyph glyph-name="logicalnot" unicode="&#xac;" horiz-adv-x="1228" 
d="M86 891v289h1057v-783h-289v494h-768z" />
    <glyph glyph-name="uni00AD" unicode="&#xad;" horiz-adv-x="722" 
d="M82 575v283h559v-283h-559z" />
    <glyph glyph-name="registered" unicode="&#xae;" horiz-adv-x="675" 
d="M35 1362q0 126 88.5 214.5t214.5 88.5t214.5 -88.5t88.5 -214.5t-88.5 -214.5t-214.5 -88.5t-214.5 88.5t-88.5 214.5zM84 1362q0 -106 74 -180t180 -74t180 74t74 180t-74 180t-180 74t-180 -74t-74 -180zM494 1411q0 -79 -58 -104l58 -121h-117l-43 108h-39v-108h-113
v352h187q53 0 89 -27t36 -90v-10zM381 1419q0 35 -37 35h-49v-76h49q37 0 37 35v6z" />
    <glyph glyph-name="macron" unicode="&#xaf;" horiz-adv-x="1024" 
d="M205 1268v282h614v-282h-614z" />
    <glyph glyph-name="degree" unicode="&#xb0;" horiz-adv-x="819" 
d="M545 1284v12q0 59 -37 95t-94 36h-8q-57 0 -94.5 -36t-37.5 -95v-12q0 -59 37.5 -95t94.5 -36h8q57 0 94 36t37 95zM741 1294v-10q0 -150 -93.5 -240t-237.5 -90t-238 90.5t-94 239.5v10q0 151 94 240.5t238 89.5t237.5 -89.5t93.5 -240.5z" />
    <glyph glyph-name="plusminus" unicode="&#xb1;" horiz-adv-x="1228" 
d="M471 1378h287v-221h385v-289h-385v-221h-287v221h-385v289h385v221zM86 279v288h1057v-288h-1057z" />
    <glyph glyph-name="twosuperior" unicode="&#xb2;" 
d="M582 1010v-211h-555v155l282 314q27 30 27 65v23q0 20 -7.5 37.5t-21.5 17.5h-6q-29 0 -29 -80h-245v31q0 46 12.5 88.5t41.5 83.5t86.5 65.5t137.5 24.5q79 0 136.5 -24.5t86.5 -63t41.5 -76t12.5 -74.5v-36q0 -61 -20 -102t-68 -97l-127 -141h215z" />
    <glyph glyph-name="threesuperior" unicode="&#xb3;" 
d="M268 1055q0 -36 12 -53t25 -17h6q12 0 23.5 17t11.5 45v10q0 51 -39 51h-102v197h100q31 0 31 51v4q0 15 -8 33t-21 18h-6q-29 0 -29 -80h-245v19q0 40 7 76t26.5 73t49.5 64t80 44t115 17q64 0 114.5 -16t80 -40.5t49 -55.5t26.5 -58.5t7 -52.5v-21q0 -120 -99 -174
q107 -60 107 -178v-20q0 -105 -77 -170.5t-206 -65.5q-130 0 -207 72t-77 194v17h245z" />
    <glyph glyph-name="acute" unicode="&#xb4;" horiz-adv-x="1024" 
d="M539 1597h352l-219 -376h-320z" />
    <glyph glyph-name="paragraph" unicode="&#xb6;" horiz-adv-x="1124" 
d="M682 0v573h-76q-61 0 -113 4.5t-110 18.5t-104.5 36.5t-90.5 60.5t-73 88t-46.5 122.5t-17.5 161.5v41q0 122 33.5 213t86 143t129 83.5t148 41.5t158.5 10h408v-1597h-332z" />
    <glyph glyph-name="periodcentered" unicode="&#xb7;" horiz-adv-x="544" 
d="M442 889v-342h-340v342h340z" />
    <glyph glyph-name="cedilla" unicode="&#xb8;" horiz-adv-x="1232" 
d="M295 -389l47 135q58 -35 147 -35q97 0 97 47t-99 47q-16 0 -35.5 -2.5t-30.5 -4.5l-11 -3l-31 58l59 147h148l-31 -82q92 -6 148.5 -51t56.5 -127q0 -88 -62.5 -134t-183.5 -46q-139 0 -219 51z" />
    <glyph glyph-name="onesuperior" unicode="&#xb9;" 
d="M594 799h-539v211h148v290l-72 -47l-121 174l254 172h185v-589h145v-211z" />
    <glyph glyph-name="ordmasculine" unicode="&#xba;" horiz-adv-x="907" 
d="M844 1167q0 -184 -98 -289.5t-293 -105.5t-292.5 105.5t-97.5 289.5v62q0 185 97.5 291t292.5 106t293 -106t98 -291v-62zM82 371v243h743v-243h-743zM344 1167q0 -153 109 -153q110 0 110 153v62q0 155 -110 155q-109 0 -109 -155v-62z" />
    <glyph glyph-name="guillemotright" unicode="&#xbb;" horiz-adv-x="1157" 
d="M612 868v285l443 -301v-311l-443 -301v284l224 172zM102 868v285l443 -301v-311l-443 -301v284l224 172z" />
    <glyph glyph-name="onequarter" unicode="&#xbc;" horiz-adv-x="1638" 
d="M367 0h-275l1180 1597h274zM1550 0h-245v139h-261v189l259 471h247v-447h66v-213h-66v-139zM594 799h-539v211h148v290l-72 -47l-121 174l254 172h185v-589h145v-211zM1305 469l-64 -117h64v117z" />
    <glyph glyph-name="onehalf" unicode="&#xbd;" horiz-adv-x="1638" 
d="M367 0h-275l1180 1597h274zM1606 211v-211h-555v156l282 313q27 30 27 66v22q0 20 -7.5 37.5t-21.5 17.5h-6q-29 0 -29 -80h-245v31q0 46 12.5 88.5t41.5 83.5t86.5 65.5t137.5 24.5q64 0 114 -16.5t80 -42t49.5 -58.5t26.5 -62.5t7 -57.5v-37q0 -61 -20 -102t-68 -97
l-127 -141h215zM594 799h-539v211h148v290l-72 -47l-121 174l254 172h185v-589h145v-211z" />
    <glyph glyph-name="threequarters" unicode="&#xbe;" horiz-adv-x="1638" 
d="M367 0h-275l1180 1597h274zM268 1055q0 -36 12 -53t25 -17h6q12 0 23.5 17t11.5 45v10q0 51 -39 51h-102v197h100q31 0 31 51v4q0 15 -8 33t-21 18h-6q-29 0 -29 -80h-245v19q0 40 7 76t26.5 73t49.5 64t80 44t115 17q64 0 114.5 -16t80 -40.5t49 -55.5t26.5 -58.5
t7 -52.5v-21q0 -120 -99 -174q107 -60 107 -178v-20q0 -105 -77 -170.5t-206 -65.5q-130 0 -207 72t-77 194v17h245zM1550 0h-245v139h-261v189l259 471h247v-447h66v-213h-66v-139zM1305 469l-64 -117h64v117z" />
    <glyph glyph-name="questiondown" unicode="&#xbf;" horiz-adv-x="1017" 
d="M500 -152q83 0 116 63t33 212h324v-35q0 -131 -24.5 -226t-79 -163t-146.5 -101.5t-223 -33.5q-103 0 -184.5 22t-133 58.5t-85 87t-47 103.5t-13.5 112q0 80 18.5 144.5t49 107.5t67.5 79.5t75.5 70t71 69t56 86.5t28.5 114h228q6 -73 -11 -144t-47 -124.5t-66.5 -108
t-68.5 -96.5t-54 -88t-22 -84q0 -125 138 -125zM346 743v342h340v-342h-340z" />
    <glyph glyph-name="Agrave" unicode="&#xc0;" horiz-adv-x="1312" 
d="M428 1602h457l399 -1602h-354l-78 344h-391l-76 -344h-356zM655 1219l-131 -588h262zM365 1946h337l113 -226h-319z" />
    <glyph glyph-name="Aacute" unicode="&#xc1;" horiz-adv-x="1312" 
d="M428 1602h457l399 -1602h-354l-78 344h-391l-76 -344h-356zM655 1219l-131 -588h262zM608 1946h338l-131 -226h-319z" />
    <glyph glyph-name="Acircumflex" unicode="&#xc2;" horiz-adv-x="1312" 
d="M428 1602h457l399 -1602h-354l-78 344h-391l-76 -344h-356zM528 1720h-290l254 226h327l254 -226h-291l-127 90zM655 1219l-131 -588h262z" />
    <glyph glyph-name="Atilde" unicode="&#xc3;" horiz-adv-x="1312" 
d="M428 1602h457l399 -1602h-354l-78 344h-391l-76 -344h-356zM860 1939h174q0 -126 -59.5 -184.5t-151.5 -58.5q-56 0 -115.5 24.5t-109 49t-80.5 24.5q-67 0 -67 -68h-175q0 126 59.5 185t151.5 59q56 0 116 -24.5t109.5 -49t80.5 -24.5q67 0 67 67zM655 1219l-131 -588
h262z" />
    <glyph glyph-name="Adieresis" unicode="&#xc4;" horiz-adv-x="1312" 
d="M428 1602h457l399 -1602h-354l-78 344h-391l-76 -344h-356zM655 1219l-131 -588h262zM612 1935v-204h-272v204h272zM971 1935v-204h-273v204h273z" />
    <glyph glyph-name="Aring" unicode="&#xc5;" horiz-adv-x="1312" 
d="M440 1757q0 89 63 152t152 63t152 -63t63 -152q0 -90 -65 -155h80l399 -1602h-354l-78 344h-391l-76 -344h-356l399 1602h78q-66 63 -66 155zM655 1219l-131 -588h262zM551 1757q0 -43 30.5 -73.5t73.5 -30.5t74 30.5t31 73.5t-31 73t-74 30t-73.5 -30t-30.5 -73z" />
    <glyph glyph-name="AE" unicode="&#xc6;" horiz-adv-x="1812" 
d="M573 1597h1158v-286h-664l47 -353h514v-286h-473l53 -385h523v-287h-836l-39 348h-373l-110 -348h-357zM760 1217l-187 -582h250z" />
    <glyph glyph-name="Ccedilla" unicode="&#xc7;" horiz-adv-x="1331" 
d="M481 -389l47 135q58 -35 148 -35q96 0 96 47t-98 47q-16 0 -35.5 -2.5t-30.5 -4.5l-12 -3l-31 58l49 122q-279 19 -406.5 205t-127.5 578v82q0 413 143.5 598.5t456.5 185.5q290 0 430.5 -132.5t140.5 -426.5v-74h-331q0 175 -49 260.5t-173 85.5h-18q-63 0 -109 -21.5
t-76 -61t-47.5 -102.5t-24.5 -137t-7 -175v-82q0 -127 11.5 -214t40.5 -153.5t81 -98.5t131 -32h18q222 0 222 285h331v-19q0 -268 -120 -399.5t-367 -149.5l-23 -59q92 -6 148.5 -51t56.5 -127q0 -88 -62.5 -134t-183.5 -46q-139 0 -219 51z" />
    <glyph glyph-name="Egrave" unicode="&#xc8;" horiz-adv-x="1173" 
d="M115 1597h977v-286h-646v-353h543v-286h-543v-385h646v-287h-977v1597zM315 1946h338l113 -226h-320z" />
    <glyph glyph-name="Eacute" unicode="&#xc9;" horiz-adv-x="1173" 
d="M115 1597h977v-286h-646v-353h543v-286h-543v-385h646v-287h-977v1597zM559 1946h338l-131 -226h-320z" />
    <glyph glyph-name="Ecircumflex" unicode="&#xca;" horiz-adv-x="1173" 
d="M115 1597h977v-286h-646v-353h543v-286h-543v-385h646v-287h-977v1597zM479 1720h-291l254 226h328l254 -226h-291l-127 90z" />
    <glyph glyph-name="Edieresis" unicode="&#xcb;" horiz-adv-x="1173" 
d="M115 1597h977v-286h-646v-353h543v-286h-543v-385h646v-287h-977v1597zM563 1935v-204h-272v204h272zM922 1935v-204h-273v204h273z" />
    <glyph glyph-name="Igrave" unicode="&#xcc;" horiz-adv-x="579" 
d="M457 1597v-1597h-332v1597h332zM0 1946h338l113 -226h-320z" />
    <glyph glyph-name="Iacute" unicode="&#xcd;" horiz-adv-x="579" 
d="M457 1597v-1597h-332v1597h332zM244 1946h338l-131 -226h-320z" />
    <glyph glyph-name="Icircumflex" unicode="&#xce;" horiz-adv-x="579" 
d="M457 1597v-1597h-332v1597h332zM164 1720h-291l254 226h328l254 -226h-291l-127 90z" />
    <glyph glyph-name="Idieresis" unicode="&#xcf;" horiz-adv-x="579" 
d="M457 1597v-1597h-332v1597h332zM606 1935v-204h-272v204h272zM248 1935v-204h-273v204h273z" />
    <glyph glyph-name="Eth" unicode="&#xd0;" horiz-adv-x="1480" 
d="M25 694v248h213v655h489q241 0 387 -74t216.5 -240t70.5 -443v-82q0 -277 -70.5 -443t-216.5 -240.5t-387 -74.5h-489v694h-213zM569 1311v-369h338v-248h-338v-407h140q103 0 171.5 28t109 88.5t57 145.5t16.5 209v82q0 124 -16.5 209t-57 145.5t-109 88.5t-171.5 28
h-140z" />
    <glyph glyph-name="Ntilde" unicode="&#xd1;" horiz-adv-x="1398" 
d="M1284 1597v-1597h-350l-516 991l10 -321v-670h-313v1597h350l514 -991l-10 322v669h315zM903 1939h174q0 -126 -59.5 -184.5t-151.5 -58.5q-56 0 -115.5 24.5t-109 49t-80.5 24.5q-67 0 -67 -68h-175q0 126 59.5 185t151.5 59q56 0 116 -24.5t109.5 -49t80.5 -24.5
q67 0 67 67z" />
    <glyph glyph-name="Ograve" unicode="&#xd2;" horiz-adv-x="1378" 
d="M688 -27q-313 0 -460.5 187t-147.5 598v82q0 411 147.5 597.5t460.5 186.5q315 0 462.5 -186.5t147.5 -597.5v-82q0 -411 -147.5 -598t-462.5 -187zM680 260h18q147 0 205 122.5t58 375.5v82q0 253 -58 375t-205 122h-18q-147 0 -205.5 -122t-58.5 -375v-82
q0 -253 58.5 -375.5t205.5 -122.5zM397 1946h338l113 -226h-320z" />
    <glyph glyph-name="Oacute" unicode="&#xd3;" horiz-adv-x="1378" 
d="M688 -27q-313 0 -460.5 187t-147.5 598v82q0 411 147.5 597.5t460.5 186.5q315 0 462.5 -186.5t147.5 -597.5v-82q0 -411 -147.5 -598t-462.5 -187zM680 260h18q147 0 205 122.5t58 375.5v82q0 253 -58 375t-205 122h-18q-147 0 -205.5 -122t-58.5 -375v-82
q0 -253 58.5 -375.5t205.5 -122.5zM641 1946h338l-131 -226h-320z" />
    <glyph glyph-name="Ocircumflex" unicode="&#xd4;" horiz-adv-x="1378" 
d="M688 -27q-313 0 -460.5 187t-147.5 598v82q0 411 147.5 597.5t460.5 186.5q315 0 462.5 -186.5t147.5 -597.5v-82q0 -411 -147.5 -598t-462.5 -187zM680 260h18q147 0 205 122.5t58 375.5v82q0 253 -58 375t-205 122h-18q-147 0 -205.5 -122t-58.5 -375v-82
q0 -253 58.5 -375.5t205.5 -122.5zM561 1720h-291l254 226h328l254 -226h-291l-127 90z" />
    <glyph glyph-name="Otilde" unicode="&#xd5;" horiz-adv-x="1378" 
d="M688 -27q-313 0 -460.5 187t-147.5 598v82q0 411 147.5 597.5t460.5 186.5q315 0 462.5 -186.5t147.5 -597.5v-82q0 -411 -147.5 -598t-462.5 -187zM680 260h18q147 0 205 122.5t58 375.5v82q0 253 -58 375t-205 122h-18q-147 0 -205.5 -122t-58.5 -375v-82
q0 -253 58.5 -375.5t205.5 -122.5zM893 1939h174q0 -126 -59.5 -184.5t-151.5 -58.5q-56 0 -115.5 24.5t-109 49t-80.5 24.5q-68 0 -68 -68h-174q0 126 59.5 185t151.5 59q56 0 115.5 -24.5t109 -49t80.5 -24.5q68 0 68 67z" />
    <glyph glyph-name="Odieresis" unicode="&#xd6;" horiz-adv-x="1378" 
d="M688 -27q-313 0 -460.5 187t-147.5 598v82q0 411 147.5 597.5t460.5 186.5q315 0 462.5 -186.5t147.5 -597.5v-82q0 -411 -147.5 -598t-462.5 -187zM680 260h18q147 0 205 122.5t58 375.5v82q0 253 -58 375t-205 122h-18q-147 0 -205.5 -122t-58.5 -375v-82
q0 -253 58.5 -375.5t205.5 -122.5zM645 1935v-204h-272v204h272zM1004 1935v-204h-273v204h273z" />
    <glyph glyph-name="multiply" unicode="&#xd7;" horiz-adv-x="1228" 
d="M264 244l-205 205l351 350l-351 350l205 205l350 -350l351 350l204 -205l-350 -350l350 -350l-204 -205l-351 350z" />
    <glyph glyph-name="Oslash" unicode="&#xd8;" horiz-adv-x="1372" 
d="M80 840q0 411 147.5 597.5t460.5 186.5q225 0 365 -94l43 67h200l-122 -192q124 -187 124 -565v-82q0 -411 -147.5 -598t-462.5 -187q-228 0 -366 97l-43 -70h-201l125 195q-123 191 -123 563v82zM961 840q0 112 -13 211l-450 -707q63 -84 182 -84h18q147 0 205 122.5
t58 375.5v82zM416 758q0 -120 12 -209l451 706q-63 82 -181 82h-18q-147 0 -205.5 -122t-58.5 -375v-82z" />
    <glyph glyph-name="Ugrave" unicode="&#xd9;" horiz-adv-x="1357" 
d="M678 -27q-161 0 -272.5 33.5t-177.5 103t-95 165.5t-29 231v1091h332v-1081q0 -133 53 -194.5t189 -61.5t190 61.5t54 194.5v1081h331v-1091q0 -135 -29 -231t-95.5 -165.5t-178 -103t-272.5 -33.5zM387 1946h338l113 -226h-320z" />
    <glyph glyph-name="Uacute" unicode="&#xda;" horiz-adv-x="1357" 
d="M678 -27q-161 0 -272.5 33.5t-177.5 103t-95 165.5t-29 231v1091h332v-1081q0 -133 53 -194.5t189 -61.5t190 61.5t54 194.5v1081h331v-1091q0 -135 -29 -231t-95.5 -165.5t-178 -103t-272.5 -33.5zM631 1946h338l-131 -226h-320z" />
    <glyph glyph-name="Ucircumflex" unicode="&#xdb;" horiz-adv-x="1357" 
d="M678 -27q-161 0 -272.5 33.5t-177.5 103t-95 165.5t-29 231v1091h332v-1081q0 -133 53 -194.5t189 -61.5t190 61.5t54 194.5v1081h331v-1091q0 -135 -29 -231t-95.5 -165.5t-178 -103t-272.5 -33.5zM551 1720h-291l254 226h328l254 -226h-291l-127 90z" />
    <glyph glyph-name="Udieresis" unicode="&#xdc;" horiz-adv-x="1357" 
d="M678 -27q-161 0 -272.5 33.5t-177.5 103t-95 165.5t-29 231v1091h332v-1081q0 -133 53 -194.5t189 -61.5t190 61.5t54 194.5v1081h331v-1091q0 -135 -29 -231t-95.5 -165.5t-178 -103t-272.5 -33.5zM635 1935v-204h-273v204h273zM993 1935v-204h-272v204h272z" />
    <glyph glyph-name="Yacute" unicode="&#xdd;" horiz-adv-x="1280" 
d="M807 489v-489h-332v489l-459 1108h363l262 -698l260 698h363zM594 1946h338l-131 -226h-320z" />
    <glyph glyph-name="Thorn" unicode="&#xde;" horiz-adv-x="1247" 
d="M446 1597v-286h193q61 0 113 -5t110 -18.5t105 -36.5t90.5 -61t72.5 -88t46.5 -122.5t17.5 -160.5v-41q0 -122 -33.5 -213t-86 -143t-129 -83.5t-148 -41.5t-158.5 -10h-193v-287h-331v1597h331zM446 573h207q38 0 70.5 9t65 30.5t51 66.5t18.5 109v21q0 64 -18.5 109
t-51 66.5t-65 30.5t-70.5 9h-207v-451z" />
    <glyph glyph-name="germandbls" unicode="&#xdf;" horiz-adv-x="1294" 
d="M584 684v205q215 119 215 293q0 95 -46 149.5t-141 54.5q-94 0 -141 -55t-47 -133v-1198h-324v1217q0 97 28 176t86.5 141t159.5 96.5t238 34.5q127 0 226.5 -36t160.5 -99t92 -142.5t31 -170.5v-21q0 -126 -52 -216t-155 -165l50 -33q288 -194 288 -428v-18
q0 -73 -22.5 -136.5t-68 -115t-123 -81.5t-179.5 -30q-73 0 -129.5 12t-95.5 35t-66 53.5t-42 72t-21 85t-6 97.5v16h274q0 -125 80 -125q76 0 76 113q0 115 -156 221z" />
    <glyph glyph-name="agrave" unicode="&#xe0;" horiz-adv-x="1124" 
d="M754 0l-21 113q-130 -140 -340 -140q-88 0 -154 26t-104 72t-56 103t-18 125v20q0 86 28 148.5t83 102t121.5 62t157.5 36.5l249 39q-2 83 -34.5 121t-112.5 38q-145 0 -145 -139h-306v18q0 75 22.5 137.5t73 116t143.5 83.5t222 30q131 0 221 -27t142.5 -82t75 -129
t22.5 -176v-391l20 -307h-290zM182 1597h353l186 -376h-320zM512 236q111 0 188 81v199l-184 -29q-72 -11 -102.5 -43.5t-30.5 -85.5v-12q0 -46 31.5 -78t97.5 -32z" />
    <glyph glyph-name="aacute" unicode="&#xe1;" horiz-adv-x="1124" 
d="M754 0l-21 113q-130 -140 -340 -140q-88 0 -154 26t-104 72t-56 103t-18 125v20q0 86 28 148.5t83 102t121.5 62t157.5 36.5l249 39q-2 83 -34.5 121t-112.5 38q-145 0 -145 -139h-306v18q0 75 22.5 137.5t73 116t143.5 83.5t222 30q131 0 221 -27t142.5 -82t75 -129
t22.5 -176v-391l20 -307h-290zM588 1597h352l-219 -376h-320zM512 236q111 0 188 81v199l-184 -29q-72 -11 -102.5 -43.5t-30.5 -85.5v-12q0 -46 31.5 -78t97.5 -32z" />
    <glyph glyph-name="acircumflex" unicode="&#xe2;" horiz-adv-x="1124" 
d="M754 0l-21 113q-130 -140 -340 -140q-88 0 -154 26t-104 72t-56 103t-18 125v20q0 86 28 148.5t83 102t121.5 62t157.5 36.5l249 39q-2 83 -34.5 121t-112.5 38q-145 0 -145 -139h-306v18q0 75 22.5 137.5t73 116t143.5 83.5t222 30q131 0 221 -27t142.5 -82t75 -129
t22.5 -176v-391l20 -307h-290zM414 1221h-283l275 376h311l274 -376h-282l-148 168zM512 236q111 0 188 81v199l-184 -29q-72 -11 -102.5 -43.5t-30.5 -85.5v-12q0 -46 31.5 -78t97.5 -32z" />
    <glyph glyph-name="atilde" unicode="&#xe3;" horiz-adv-x="1124" 
d="M754 0l-21 113q-130 -140 -340 -140q-88 0 -154 26t-104 72t-56 103t-18 125v20q0 86 28 148.5t83 102t121.5 62t157.5 36.5l249 39q-2 83 -34.5 121t-112.5 38q-145 0 -145 -139h-306v18q0 75 22.5 137.5t73 116t143.5 83.5t222 30q131 0 221 -27t142.5 -82t75 -129
t22.5 -176v-391l20 -307h-290zM758 1581h215q0 -164 -63 -245t-165 -81q-44 0 -93 16.5t-84 37t-74 37t-66 16.5q-63 0 -63 -76h-215q0 164 62.5 245t164.5 81q56 0 118 -27t114 -53.5t85 -26.5q64 0 64 76zM512 236q111 0 188 81v199l-184 -29q-72 -11 -102.5 -43.5
t-30.5 -85.5v-12q0 -46 31.5 -78t97.5 -32z" />
    <glyph glyph-name="adieresis" unicode="&#xe4;" horiz-adv-x="1124" 
d="M754 0l-21 113q-130 -140 -340 -140q-88 0 -154 26t-104 72t-56 103t-18 125v20q0 86 28 148.5t83 102t121.5 62t157.5 36.5l249 39q-2 83 -34.5 121t-112.5 38q-145 0 -145 -139h-306v18q0 75 22.5 137.5t73 116t143.5 83.5t222 30q131 0 221 -27t142.5 -82t75 -129
t22.5 -176v-391l20 -307h-290zM510 1581v-340h-338v340h338zM950 1581v-340h-338v340h338zM512 236q111 0 188 81v199l-184 -29q-72 -11 -102.5 -43.5t-30.5 -85.5v-12q0 -46 31.5 -78t97.5 -32z" />
    <glyph glyph-name="aring" unicode="&#xe5;" horiz-adv-x="1124" 
d="M754 0l-21 113q-130 -140 -340 -140q-88 0 -154 26t-104 72t-56 103t-18 125v20q0 86 28 148.5t83 102t121.5 62t157.5 36.5l249 39q-2 83 -34.5 121t-112.5 38q-145 0 -145 -139h-306v18q0 75 22.5 137.5t73 116t143.5 83.5t222 30q131 0 221 -27t142.5 -82t75 -129
t22.5 -176v-391l20 -307h-290zM348 1409q0 89 63 152t152 63t152 -63t63 -152t-63 -153t-152 -64t-152 64t-63 153zM512 236q111 0 188 81v199l-184 -29q-72 -11 -102.5 -43.5t-30.5 -85.5v-12q0 -46 31.5 -78t97.5 -32zM459 1409q0 -43 30.5 -73.5t73.5 -30.5t74 30.5
t31 73.5q0 42 -31 72t-74 30t-73.5 -29.5t-30.5 -72.5z" />
    <glyph glyph-name="ae" unicode="&#xe6;" horiz-adv-x="1759" 
d="M1716 426h-692q9 -110 60 -158.5t145 -48.5q81 0 131.5 38.5t50.5 90.5h305v-8q0 -160 -130.5 -263.5t-358.5 -103.5q-262 0 -398 152q-81 -70 -187.5 -111t-223.5 -41q-94 0 -165 26t-111.5 72t-60.5 103t-20 125v20q0 86 28.5 148.5t83.5 102t121.5 62t158.5 36.5
l247 39q-2 83 -34.5 121t-112.5 38q-145 0 -145 -139h-306v18q0 75 22.5 137.5t73 116t143.5 83.5t222 30q240 0 334 -121q115 121 320 121q125 0 221.5 -40t156.5 -113t90.5 -171t30.5 -217v-145zM719 334l2 2q-21 93 -21 172l-182 -29q-135 -22 -135 -129v-14
q0 -45 32 -77t97 -32q75 0 128 34t79 73zM1208 866q-86 0 -130 -50.5t-52 -156.5h365q-8 106 -52.5 156.5t-130.5 50.5z" />
    <glyph glyph-name="ccedilla" unicode="&#xe7;" horiz-adv-x="1079" 
d="M338 -389l47 135q58 -35 147 -35q97 0 97 47t-99 47q-16 0 -35.5 -2.5t-30.5 -4.5l-11 -3l-31 58l49 127q-139 15 -232 86t-135.5 181.5t-42.5 258.5v74q0 119 29 215.5t88 167.5t154 110t221 39q228 0 347.5 -108t119.5 -293v-47h-305q0 83 -40 126.5t-116 43.5
q-174 0 -174 -254v-74q0 -254 174 -254q76 0 116 41t40 108h305v-45q0 -160 -103 -262t-299 -117l-20 -59q92 -6 148.5 -51t56.5 -127q0 -88 -62.5 -134t-183.5 -46q-139 0 -219 51z" />
    <glyph glyph-name="egrave" unicode="&#xe8;" horiz-adv-x="1138" 
d="M1077 426h-692q9 -110 60 -158.5t145 -48.5q81 0 131.5 38.5t50.5 90.5h305v-8q0 -160 -130.5 -263.5t-358.5 -103.5q-260 0 -393.5 148t-133.5 393v57q0 118 32.5 216.5t95.5 171t161.5 113t224.5 40.5t223 -40t157.5 -113t91 -171t30.5 -217v-145zM197 1597h352
l186 -376h-319zM569 866q-86 0 -130 -50.5t-52 -156.5h365q-8 106 -52.5 156.5t-130.5 50.5z" />
    <glyph glyph-name="eacute" unicode="&#xe9;" horiz-adv-x="1138" 
d="M1077 426h-692q9 -110 60 -158.5t145 -48.5q81 0 131.5 38.5t50.5 90.5h305v-8q0 -160 -130.5 -263.5t-358.5 -103.5q-260 0 -393.5 148t-133.5 393v57q0 118 32.5 216.5t95.5 171t161.5 113t224.5 40.5t223 -40t157.5 -113t91 -171t30.5 -217v-145zM602 1597h352
l-219 -376h-319zM569 866q-86 0 -130 -50.5t-52 -156.5h365q-8 106 -52.5 156.5t-130.5 50.5z" />
    <glyph glyph-name="ecircumflex" unicode="&#xea;" horiz-adv-x="1138" 
d="M1077 426h-692q9 -110 60 -158.5t145 -48.5q81 0 131.5 38.5t50.5 90.5h305v-8q0 -160 -130.5 -263.5t-358.5 -103.5q-260 0 -393.5 148t-133.5 393v57q0 118 32.5 216.5t95.5 171t161.5 113t224.5 40.5t223 -40t157.5 -113t91 -171t30.5 -217v-145zM428 1221h-283
l275 376h311l275 -376h-283l-148 168zM569 866q-86 0 -130 -50.5t-52 -156.5h365q-8 106 -52.5 156.5t-130.5 50.5z" />
    <glyph glyph-name="edieresis" unicode="&#xeb;" horiz-adv-x="1138" 
d="M1077 426h-692q9 -110 60 -158.5t145 -48.5q81 0 131.5 38.5t50.5 90.5h305v-8q0 -160 -130.5 -263.5t-358.5 -103.5q-260 0 -393.5 148t-133.5 393v57q0 118 32.5 216.5t95.5 171t161.5 113t224.5 40.5t223 -40t157.5 -113t91 -171t30.5 -217v-145zM965 1581v-340h-338
v340h338zM524 1581v-340h-338v340h338zM569 866q-86 0 -130 -50.5t-52 -156.5h365q-8 106 -52.5 156.5t-130.5 50.5z" />
    <glyph glyph-name="igrave" unicode="&#xec;" horiz-adv-x="544" 
d="M111 0v1085h321v-1085h-321zM-106 1597h352l186 -376h-319z" />
    <glyph glyph-name="iacute" unicode="&#xed;" horiz-adv-x="542" 
d="M111 0v1085h321v-1085h-321zM299 1597h352l-219 -376h-319z" />
    <glyph glyph-name="icircumflex" unicode="&#xee;" horiz-adv-x="542" 
d="M111 0v1085h321v-1085h-321zM125 1221h-283l275 376h311l274 -376h-282l-148 168z" />
    <glyph glyph-name="idieresis" unicode="&#xef;" horiz-adv-x="542" 
d="M111 0v1085h321v-1085h-321zM221 1581v-340h-338v340h338zM662 1581v-340h-338v340h338z" />
    <glyph glyph-name="eth" unicode="&#xf0;" horiz-adv-x="1138" 
d="M63 1378v287q362 -24 572 -137l246 137v-182l-101 -56q43 -40 80 -86q217 -278 217 -761v-74q0 -245 -127.5 -389t-380.5 -144q-252 0 -379 144t-127 389v74q0 241 119 386.5t338 145.5q78 0 139 -20q-15 27 -51 67q-53 59 -127 103l-360 -201v182l172 94
q-103 29 -230 41zM569 250q187 0 187 256v74q0 256 -187 256q-186 0 -186 -256v-74q0 -256 186 -256z" />
    <glyph glyph-name="ntilde" unicode="&#xf1;" horiz-adv-x="1187" 
d="M1090 0h-322v682q0 67 -33 109.5t-110 42.5q-68 0 -117 -32t-74 -71v-731h-323v778l-19 307h289l25 -139q118 166 348 166q89 0 155.5 -30.5t105 -84.5t57 -119.5t18.5 -142.5v-735zM797 1581h215q0 -164 -63 -245t-165 -81q-44 0 -93 16.5t-84 37t-74 37t-66 16.5
q-64 0 -64 -76h-215q0 164 63 245t165 81q56 0 118 -27t114 -53.5t85 -26.5q64 0 64 76z" />
    <glyph glyph-name="ograve" unicode="&#xf2;" horiz-adv-x="1138" 
d="M569 -27q-252 0 -380 144t-128 389v74q0 245 128 388.5t380 143.5q253 0 380.5 -143.5t127.5 -388.5v-74q0 -245 -127.5 -389t-380.5 -144zM569 252q185 0 185 254v74q0 254 -185 254q-184 0 -184 -254v-74q0 -254 184 -254zM190 1597h353l186 -376h-319z" />
    <glyph glyph-name="oacute" unicode="&#xf3;" horiz-adv-x="1138" 
d="M569 -27q-252 0 -380 144t-128 389v74q0 245 128 388.5t380 143.5q253 0 380.5 -143.5t127.5 -388.5v-74q0 -245 -127.5 -389t-380.5 -144zM569 252q185 0 185 254v74q0 254 -185 254q-184 0 -184 -254v-74q0 -254 184 -254zM596 1597h352l-219 -376h-319z" />
    <glyph glyph-name="ocircumflex" unicode="&#xf4;" horiz-adv-x="1138" 
d="M569 -27q-252 0 -380 144t-128 389v74q0 245 128 388.5t380 143.5q253 0 380.5 -143.5t127.5 -388.5v-74q0 -245 -127.5 -389t-380.5 -144zM422 1221h-283l275 376h311l274 -376h-282l-148 168zM569 252q185 0 185 254v74q0 254 -185 254q-184 0 -184 -254v-74
q0 -254 184 -254z" />
    <glyph glyph-name="otilde" unicode="&#xf5;" horiz-adv-x="1138" 
d="M569 -27q-252 0 -380 144t-128 389v74q0 245 128 388.5t380 143.5q253 0 380.5 -143.5t127.5 -388.5v-74q0 -245 -127.5 -389t-380.5 -144zM766 1581h215q0 -164 -62.5 -245t-164.5 -81q-44 0 -93 16.5t-84.5 37t-74.5 37t-66 16.5q-63 0 -63 -76h-215q0 164 62.5 245
t164.5 81q56 0 118 -27t114 -53.5t85 -26.5q64 0 64 76zM569 252q185 0 185 254v74q0 254 -185 254q-184 0 -184 -254v-74q0 -254 184 -254z" />
    <glyph glyph-name="odieresis" unicode="&#xf6;" horiz-adv-x="1138" 
d="M569 -27q-252 0 -380 144t-128 389v74q0 245 128 388.5t380 143.5q253 0 380.5 -143.5t127.5 -388.5v-74q0 -245 -127.5 -389t-380.5 -144zM569 252q185 0 185 254v74q0 254 -185 254q-184 0 -184 -254v-74q0 -254 184 -254zM518 1581v-340h-338v340h338zM958 1581v-340
h-337v340h337z" />
    <glyph glyph-name="divide" unicode="&#xf7;" horiz-adv-x="1228" 
d="M86 655v287h1057v-287h-1057zM784 543v-340h-340v340h340zM784 1395v-340h-340v340h340z" />
    <glyph glyph-name="oslash" unicode="&#xf8;" horiz-adv-x="1138" 
d="M1077 1085l-108 -139q108 -137 108 -366v-74q0 -245 -127.5 -389t-380.5 -144q-184 0 -303 78l-39 -51h-166l109 139q-109 136 -109 367v74q0 245 128 388.5t380 143.5q177 0 301 -78l39 51h168zM754 580q0 46 -6 84l-293 -373q42 -39 114 -39q185 0 185 254v74zM385 506
q0 -44 6 -84l291 375q-43 37 -113 37q-184 0 -184 -254v-74z" />
    <glyph glyph-name="ugrave" unicode="&#xf9;" horiz-adv-x="1187" 
d="M98 1085h322v-682q0 -67 33 -109t110 -42q120 0 191 102v731h323v-778l19 -307h-289l-25 137q-120 -164 -348 -164q-90 0 -156.5 30.5t-105 84.5t-56.5 119.5t-18 142.5v735zM207 1597h352l186 -376h-319z" />
    <glyph glyph-name="uacute" unicode="&#xfa;" horiz-adv-x="1187" 
d="M98 1085h322v-682q0 -67 33 -109t110 -42q120 0 191 102v731h323v-778l19 -307h-289l-25 137q-120 -164 -348 -164q-90 0 -156.5 30.5t-105 84.5t-56.5 119.5t-18 142.5v735zM612 1597h353l-220 -376h-319z" />
    <glyph glyph-name="ucircumflex" unicode="&#xfb;" horiz-adv-x="1187" 
d="M98 1085h322v-682q0 -67 33 -109t110 -42q120 0 191 102v731h323v-778l19 -307h-289l-25 137q-120 -164 -348 -164q-90 0 -156.5 30.5t-105 84.5t-56.5 119.5t-18 142.5v735zM438 1221h-282l274 376h311l275 -376h-283l-147 168z" />
    <glyph glyph-name="udieresis" unicode="&#xfc;" horiz-adv-x="1187" 
d="M98 1085h322v-682q0 -67 33 -109t110 -42q120 0 191 102v731h323v-778l19 -307h-289l-25 137q-120 -164 -348 -164q-90 0 -156.5 30.5t-105 84.5t-56.5 119.5t-18 142.5v735zM975 1581v-340h-338v340h338zM535 1581v-340h-338v340h338z" />
    <glyph glyph-name="yacute" unicode="&#xfd;" horiz-adv-x="1128" 
d="M567 393l205 692h352l-383 -1028l-139 -467h-385l174 467l-381 1028h352zM594 1597h352l-219 -376h-319z" />
    <glyph glyph-name="thorn" unicode="&#xfe;" horiz-adv-x="1175" 
d="M106 1638h324v-647q103 121 281 121q403 0 403 -532v-74q0 -533 -403 -533q-181 0 -281 121v-504h-324v2048zM432 354q71 -102 184 -102q175 0 175 254v74q0 254 -175 254q-64 0 -110 -31.5t-74 -71.5v-377z" />
    <glyph glyph-name="ydieresis" unicode="&#xff;" horiz-adv-x="1128" 
d="M567 393l205 692h352l-383 -1028l-139 -467h-385l174 467l-381 1028h352zM956 1581v-340h-338v340h338zM516 1581v-340h-338v340h338z" />
    <glyph glyph-name="Amacron" unicode="&#x100;" horiz-adv-x="1312" 
d="M428 1602h457l399 -1602h-354l-78 344h-391l-76 -344h-356zM350 1735v196h611v-196h-611zM655 1219l-131 -588h262z" />
    <glyph glyph-name="amacron" unicode="&#x101;" horiz-adv-x="1124" 
d="M754 0l-21 113q-130 -140 -340 -140q-88 0 -154 26t-104 72t-56 103t-18 125v20q0 86 28 148.5t83 102t121.5 62t157.5 36.5l249 39q-2 83 -34.5 121t-112.5 38q-145 0 -145 -139h-306v18q0 75 22.5 137.5t73 116t143.5 83.5t222 30q131 0 221 -27t142.5 -82t75 -129
t22.5 -176v-391l20 -307h-290zM254 1268v282h614v-282h-614zM512 236q111 0 188 81v199l-184 -29q-72 -11 -102.5 -43.5t-30.5 -85.5v-12q0 -46 31.5 -78t97.5 -32z" />
    <glyph glyph-name="Abreve" unicode="&#x102;" horiz-adv-x="1312" 
d="M428 1602h457l399 -1602h-354l-78 344h-391l-76 -344h-356zM655 1690q-109 0 -185 20t-115.5 56.5t-56.5 80t-17 99.5h223q0 -82 151 -82q152 0 152 82h223q0 -56 -17 -99.5t-57 -80t-116 -56.5t-185 -20zM655 1219l-131 -588h262z" />
    <glyph glyph-name="abreve" unicode="&#x103;" horiz-adv-x="1124" 
d="M754 0l-21 113q-130 -140 -340 -140q-88 0 -154 26t-104 72t-56 103t-18 125v20q0 86 28 148.5t83 102t121.5 62t157.5 36.5l249 39q-2 83 -34.5 121t-112.5 38q-145 0 -145 -139h-306v18q0 75 22.5 137.5t73 116t143.5 83.5t222 30q131 0 221 -27t142.5 -82t75 -129
t22.5 -176v-391l20 -307h-290zM561 1192q-105 0 -181 30t-120 85.5t-64 127.5t-18 162h232q0 -159 151 -159q152 0 152 159h231q2 -90 -18 -162t-64 -127.5t-120 -85.5t-181 -30zM512 236q111 0 188 81v199l-184 -29q-72 -11 -102.5 -43.5t-30.5 -85.5v-12q0 -46 31.5 -78
t97.5 -32z" />
    <glyph glyph-name="Aogonek" unicode="&#x104;" horiz-adv-x="1312" 
d="M1157 -141q0 -33 24.5 -53.5t63.5 -20.5q51 0 86 22l74 -196q-34 -21 -92.5 -36t-118.5 -15q-129 0 -202.5 56t-73.5 165q0 126 90 219h-78l-78 344h-391l-76 -344h-356l399 1602h457l399 -1602q-127 -56 -127 -141zM655 1219l-131 -588h262z" />
    <glyph glyph-name="aogonek" unicode="&#x105;" horiz-adv-x="1124" 
d="M512 236q111 0 188 81v199l-184 -29q-72 -11 -102.5 -43.5t-30.5 -85.5v-12q0 -46 31.5 -78t97.5 -32zM674 -219q0 119 82 211l-23 121q-130 -140 -340 -140q-88 0 -154 26t-104 72t-56 103t-18 125v20q0 86 28 148.5t83 102t121.5 62t157.5 36.5l249 39q-2 83 -34.5 121
t-112.5 38q-145 0 -145 -139h-306v18q0 75 22.5 137.5t73 116t143.5 83.5t222 30q131 0 221 -27t142.5 -82t75 -129t22.5 -176v-391l20 -307h-4q-127 -56 -127 -141q0 -33 24.5 -53.5t63.5 -20.5q51 0 86 22l74 -196q-34 -21 -92.5 -36t-118.5 -15q-129 0 -202.5 56
t-73.5 165z" />
    <glyph glyph-name="Cacute" unicode="&#x106;" horiz-adv-x="1331" 
d="M416 758q0 -127 11.5 -214t40.5 -153.5t81 -98.5t131 -32h18q222 0 222 285h331v-19q0 -290 -141 -421.5t-430 -131.5q-313 0 -456.5 186t-143.5 599v82q0 413 143.5 598.5t456.5 185.5q290 0 430.5 -132.5t140.5 -426.5v-74h-331q0 175 -49 260.5t-173 85.5h-18
q-63 0 -109 -21.5t-76 -61t-47.5 -102.5t-24.5 -137t-7 -175v-82zM633 1946h338l-131 -226h-320z" />
    <glyph glyph-name="cacute" unicode="&#x107;" horiz-adv-x="1079" 
d="M385 506q0 -254 174 -254q76 0 116 41t40 108h305v-45q0 -173 -120.5 -278t-346.5 -105q-126 0 -221 39t-154 110.5t-88 168t-29 215.5v74q0 119 29 215.5t88 167.5t154 110t221 39q228 0 347.5 -108t119.5 -293v-47h-305q0 83 -40 126.5t-116 43.5q-174 0 -174 -254v-74
zM580 1597h352l-219 -376h-320z" />
    <glyph glyph-name="Ccircumflex" unicode="&#x108;" horiz-adv-x="1331" 
d="M416 758q0 -127 11.5 -214t40.5 -153.5t81 -98.5t131 -32h18q222 0 222 285h331v-19q0 -290 -141 -421.5t-430 -131.5q-313 0 -456.5 186t-143.5 599v82q0 413 143.5 598.5t456.5 185.5q290 0 430.5 -132.5t140.5 -426.5v-74h-331q0 175 -49 260.5t-173 85.5h-18
q-63 0 -109 -21.5t-76 -61t-47.5 -102.5t-24.5 -137t-7 -175v-82zM553 1720h-291l254 226h328l254 -226h-291l-127 90z" />
    <glyph glyph-name="ccircumflex" unicode="&#x109;" horiz-adv-x="1079" 
d="M385 506q0 -254 174 -254q76 0 116 41t40 108h305v-45q0 -173 -120.5 -278t-346.5 -105q-126 0 -221 39t-154 110.5t-88 168t-29 215.5v74q0 119 29 215.5t88 167.5t154 110t221 39q228 0 347.5 -108t119.5 -293v-47h-305q0 83 -40 126.5t-116 43.5q-174 0 -174 -254v-74
zM406 1221h-283l274 376h312l274 -376h-283l-147 168z" />
    <glyph glyph-name="Cdotaccent" unicode="&#x10a;" horiz-adv-x="1331" 
d="M416 758q0 -127 11.5 -214t40.5 -153.5t81 -98.5t131 -32h18q222 0 222 285h331v-19q0 -290 -141 -421.5t-430 -131.5q-313 0 -456.5 186t-143.5 599v82q0 413 143.5 598.5t456.5 185.5q290 0 430.5 -132.5t140.5 -426.5v-74h-331q0 175 -49 260.5t-173 85.5h-18
q-63 0 -109 -21.5t-76 -61t-47.5 -102.5t-24.5 -137t-7 -175v-82zM817 1935v-204h-274v204h274z" />
    <glyph glyph-name="cdotaccent" unicode="&#x10b;" horiz-adv-x="1079" 
d="M385 506q0 -254 174 -254q76 0 116 41t40 108h305v-45q0 -173 -120.5 -278t-346.5 -105q-126 0 -221 39t-154 110.5t-88 168t-29 215.5v74q0 119 29 215.5t88 167.5t154 110t221 39q228 0 347.5 -108t119.5 -293v-47h-305q0 83 -40 126.5t-116 43.5q-174 0 -174 -254v-74
zM723 1581v-340h-340v340h340z" />
    <glyph glyph-name="Ccaron" unicode="&#x10c;" horiz-adv-x="1331" 
d="M416 758q0 -127 11.5 -214t40.5 -153.5t81 -98.5t131 -32h18q222 0 222 285h331v-19q0 -290 -141 -421.5t-430 -131.5q-313 0 -456.5 186t-143.5 599v82q0 413 143.5 598.5t456.5 185.5q290 0 430.5 -132.5t140.5 -426.5v-74h-331q0 175 -49 260.5t-173 85.5h-18
q-63 0 -109 -21.5t-76 -61t-47.5 -102.5t-24.5 -137t-7 -175v-82zM262 1946h291l127 -93l127 93h291l-254 -226h-328z" />
    <glyph glyph-name="ccaron" unicode="&#x10d;" horiz-adv-x="1079" 
d="M385 506q0 -254 174 -254q76 0 116 41t40 108h305v-45q0 -173 -120.5 -278t-346.5 -105q-126 0 -221 39t-154 110.5t-88 168t-29 215.5v74q0 119 29 215.5t88 167.5t154 110t221 39q228 0 347.5 -108t119.5 -293v-47h-305q0 83 -40 126.5t-116 43.5q-174 0 -174 -254v-74
zM123 1597h283l147 -170l147 170h283l-274 -376h-312z" />
    <glyph glyph-name="Dcaron" unicode="&#x10e;" horiz-adv-x="1357" 
d="M1278 758q0 -277 -70.5 -443t-216.5 -240.5t-387 -74.5h-489v1597h489q241 0 387 -74t216.5 -240t70.5 -443v-82zM446 287h140q103 0 171.5 28t109 88.5t57 145.5t16.5 209v82q0 124 -16.5 209t-57 145.5t-109 88.5t-171.5 28h-140v-1024zM223 1946h291l127 -93l127 93
h291l-254 -226h-328z" />
    <glyph glyph-name="dcaron" unicode="&#x10f;" horiz-adv-x="1191" 
d="M481 1112q178 0 279 -119v645h323v-1331l19 -307h-291l-23 129q-106 -156 -307 -156q-403 0 -403 533v74q0 532 403 532zM760 731q-27 40 -74 71.5t-111 31.5q-176 0 -176 -254v-74q0 -254 176 -254q64 0 111 31.5t74 70.5v377zM1196 1638h197l-54 -417h-143v417z" />
    <glyph glyph-name="Dcroat" unicode="&#x110;" horiz-adv-x="1480" 
d="M25 694v248h213v655h489q241 0 387 -74t216.5 -240t70.5 -443v-82q0 -277 -70.5 -443t-216.5 -240.5t-387 -74.5h-489v694h-213zM569 1311v-369h338v-248h-338v-407h140q103 0 171.5 28t109 88.5t57 145.5t16.5 209v82q0 124 -16.5 209t-57 145.5t-109 88.5t-171.5 28
h-140z" />
    <glyph glyph-name="dcroat" unicode="&#x111;" horiz-adv-x="1191" 
d="M1221 1477v-230h-140v-940l19 -307h-287l-25 131q-101 -158 -307 -158q-403 0 -403 533v74q0 532 403 532q175 0 279 -119v254h-232v230h232v161h321v-161h140zM760 731q-27 41 -74.5 73t-112.5 32q-174 0 -174 -256v-74q0 -256 174 -256q66 0 113 32t74 72v377z" />
    <glyph glyph-name="Emacron" unicode="&#x112;" horiz-adv-x="1173" 
d="M115 1597h977v-286h-646v-353h543v-286h-543v-385h646v-287h-977v1597zM301 1735v196h610v-196h-610z" />
    <glyph glyph-name="emacron" unicode="&#x113;" horiz-adv-x="1138" 
d="M1077 426h-692q9 -110 60 -158.5t145 -48.5q81 0 131.5 38.5t50.5 90.5h305v-8q0 -160 -130.5 -263.5t-358.5 -103.5q-260 0 -393.5 148t-133.5 393v57q0 118 32.5 216.5t95.5 171t161.5 113t224.5 40.5t223 -40t157.5 -113t91 -171t30.5 -217v-145zM268 1268v282h615
v-282h-615zM569 866q-86 0 -130 -50.5t-52 -156.5h365q-8 106 -52.5 156.5t-130.5 50.5z" />
    <glyph glyph-name="Ebreve" unicode="&#x114;" horiz-adv-x="1173" 
d="M606 1690q-109 0 -185 20t-116 56.5t-57 80t-17 99.5h224q0 -82 151 -82q152 0 152 82h223q0 -56 -17 -99.5t-57 -80t-116 -56.5t-185 -20zM115 1597h977v-286h-646v-353h543v-286h-543v-385h646v-287h-977v1597z" />
    <glyph glyph-name="ebreve" unicode="&#x115;" horiz-adv-x="1138" 
d="M1077 426h-692q9 -110 60 -158.5t145 -48.5q81 0 131.5 38.5t50.5 90.5h305v-8q0 -160 -130.5 -263.5t-358.5 -103.5q-260 0 -393.5 148t-133.5 393v57q0 118 32.5 216.5t95.5 171t161.5 113t224.5 40.5t223 -40t157.5 -113t91 -171t30.5 -217v-145zM575 1192
q-105 0 -181 30t-119.5 85.5t-63.5 127t-18 162.5h231q0 -159 151 -159q152 0 152 159h231q2 -90 -18 -162t-64 -127.5t-120 -85.5t-181 -30zM569 866q-86 0 -130 -50.5t-52 -156.5h365q-8 106 -52.5 156.5t-130.5 50.5z" />
    <glyph glyph-name="Edotaccent" unicode="&#x116;" horiz-adv-x="1173" 
d="M115 1597h977v-286h-646v-353h543v-286h-543v-385h646v-287h-977v1597zM743 1935v-204h-274v204h274z" />
    <glyph glyph-name="edotaccent" unicode="&#x117;" horiz-adv-x="1138" 
d="M1077 426h-692q9 -110 60 -158.5t145 -48.5q81 0 131.5 38.5t50.5 90.5h305v-8q0 -160 -130.5 -263.5t-358.5 -103.5q-260 0 -393.5 148t-133.5 393v57q0 118 32.5 216.5t95.5 171t161.5 113t224.5 40.5t223 -40t157.5 -113t91 -171t30.5 -217v-145zM745 1581v-340h-339
v340h339zM569 866q-86 0 -130 -50.5t-52 -156.5h365q-8 106 -52.5 156.5t-130.5 50.5z" />
    <glyph glyph-name="Eogonek" unicode="&#x118;" horiz-adv-x="1173" 
d="M115 1597h977v-286h-646v-353h543v-286h-543v-385h646v-287h-2q-127 -56 -127 -141q0 -33 24.5 -53.5t63.5 -20.5q51 0 86 22l73 -196q-34 -21 -92.5 -36t-118.5 -15q-129 0 -202.5 56t-73.5 165q0 126 90 219h-698v1597z" />
    <glyph glyph-name="eogonek" unicode="&#x119;" horiz-adv-x="1138" 
d="M1077 426h-692q9 -110 60 -158.5t145 -48.5q81 0 131.5 38.5t50.5 90.5h305v-8q0 -119 -75.5 -210.5t-208.5 -129.5q-60 -18 -93.5 -56t-33.5 -85q0 -33 24.5 -53.5t63.5 -20.5q51 0 86 22l73 -196q-34 -21 -92.5 -36t-118.5 -15q-129 0 -202.5 56t-73.5 165
q0 111 72 199q-217 24 -327 167t-110 367v57q0 118 32.5 216.5t95.5 171t161.5 113t224.5 40.5t223 -40t157.5 -113t91 -171t30.5 -217v-145zM569 866q-86 0 -130 -50.5t-52 -156.5h365q-8 106 -52.5 156.5t-130.5 50.5z" />
    <glyph glyph-name="Ecaron" unicode="&#x11a;" horiz-adv-x="1173" 
d="M115 1597h977v-286h-646v-353h543v-286h-543v-385h646v-287h-977v1597zM188 1946h291l127 -93l127 93h291l-254 -226h-328z" />
    <glyph glyph-name="ecaron" unicode="&#x11b;" horiz-adv-x="1138" 
d="M1077 426h-692q9 -110 60 -158.5t145 -48.5q81 0 131.5 38.5t50.5 90.5h305v-8q0 -160 -130.5 -263.5t-358.5 -103.5q-260 0 -393.5 148t-133.5 393v57q0 118 32.5 216.5t95.5 171t161.5 113t224.5 40.5t223 -40t157.5 -113t91 -171t30.5 -217v-145zM145 1597h283
l147 -170l148 170h283l-275 -376h-311zM569 866q-86 0 -130 -50.5t-52 -156.5h365q-8 106 -52.5 156.5t-130.5 50.5z" />
    <glyph glyph-name="Gcircumflex" unicode="&#x11c;" horiz-adv-x="1378" 
d="M713 -27q-328 0 -480.5 186.5t-152.5 598.5v82q0 410 149 597t463 187q292 0 437 -133t145 -426v-74h-332q0 176 -50 261t-181 85h-19q-156 0 -215 -120.5t-59 -376.5v-82q0 -101 7.5 -175t26.5 -137.5t51 -102.5t82.5 -61t119.5 -22h18q130 0 217 62v256h-211v286h543
v-704q-105 -86 -236.5 -136.5t-322.5 -50.5zM565 1720h-291l254 226h328l254 -226h-291l-127 90z" />
    <glyph glyph-name="gcircumflex" unicode="&#x11d;" horiz-adv-x="1175" 
d="M743 23v127q-100 -111 -278 -111q-404 0 -404 508v57q0 112 23 202.5t70 160t126 107.5t185 38q204 0 309 -151l23 124h288l-18 -307v-758q0 -456 -502 -456q-132 0 -227.5 30t-150.5 85t-80 123.5t-25 154.5v43h305q0 -84 38.5 -129t133.5 -45q96 0 140 44.5t44 152.5z
M426 1221h-283l275 376h311l275 -376h-283l-148 168zM743 420v311q-25 39 -72 71t-112 32q-85 0 -129.5 -62t-44.5 -168v-57q0 -230 174 -230q65 0 112 32t72 71z" />
    <glyph glyph-name="Gbreve" unicode="&#x11e;" horiz-adv-x="1378" 
d="M713 -27q-328 0 -480.5 186.5t-152.5 598.5v82q0 410 149 597t463 187q292 0 437 -133t145 -426v-74h-332q0 176 -50 261t-181 85h-19q-156 0 -215 -120.5t-59 -376.5v-82q0 -101 7.5 -175t26.5 -137.5t51 -102.5t82.5 -61t119.5 -22h18q130 0 217 62v256h-211v286h543
v-704q-105 -86 -236.5 -136.5t-322.5 -50.5zM692 1690q-109 0 -185 20t-116 56.5t-57 80t-17 99.5h224q0 -82 151 -82q152 0 152 82h223q0 -56 -17 -99.5t-57 -80t-116 -56.5t-185 -20z" />
    <glyph glyph-name="gbreve" unicode="&#x11f;" horiz-adv-x="1175" 
d="M743 23v127q-100 -111 -278 -111q-404 0 -404 508v57q0 112 23 202.5t70 160t126 107.5t185 38q204 0 309 -151l23 124h288l-18 -307v-758q0 -456 -502 -456q-132 0 -227.5 30t-150.5 85t-80 123.5t-25 154.5v43h305q0 -84 38.5 -129t133.5 -45q96 0 140 44.5t44 152.5z
M573 1192q-105 0 -181 30t-120 85.5t-64 127.5t-18 162h232q0 -159 151 -159q152 0 152 159h231q2 -90 -18 -162t-64 -127.5t-120 -85.5t-181 -30zM743 731q-25 39 -72 71t-112 32q-85 0 -129.5 -62t-44.5 -168v-57q0 -230 174 -230q65 0 112 32t72 71v311z" />
    <glyph glyph-name="Gdotaccent" unicode="&#x120;" horiz-adv-x="1378" 
d="M713 -27q-328 0 -480.5 186.5t-152.5 598.5v82q0 410 149 597t463 187q292 0 437 -133t145 -426v-74h-332q0 176 -50 261t-181 85h-19q-156 0 -215 -120.5t-59 -376.5v-82q0 -101 7.5 -175t26.5 -137.5t51 -102.5t82.5 -61t119.5 -22h18q130 0 217 62v256h-211v286h543
v-704q-105 -86 -236.5 -136.5t-322.5 -50.5zM829 1935v-204h-274v204h274z" />
    <glyph glyph-name="gdotaccent" unicode="&#x121;" horiz-adv-x="1175" 
d="M743 23v127q-100 -111 -278 -111q-404 0 -404 508v57q0 112 23 202.5t70 160t126 107.5t185 38q204 0 309 -151l23 124h288l-18 -307v-758q0 -456 -502 -456q-132 0 -227.5 30t-150.5 85t-80 123.5t-25 154.5v43h305q0 -84 38.5 -129t133.5 -45q96 0 140 44.5t44 152.5z
M743 731q-25 39 -72 71t-112 32q-85 0 -129.5 -62t-44.5 -168v-57q0 -230 174 -230q65 0 112 32t72 71v311zM735 1581v-340h-340v340h340z" />
    <glyph glyph-name="Gcommaaccent" unicode="&#x122;" horiz-adv-x="1378" 
d="M713 -27q-328 0 -480.5 186.5t-152.5 598.5v82q0 410 149 597t463 187q292 0 437 -133t145 -426v-74h-332q0 176 -50 261t-181 85h-19q-156 0 -215 -120.5t-59 -376.5v-82q0 -101 7.5 -175t26.5 -137.5t51 -102.5t82.5 -61t119.5 -22h18q130 0 217 62v256h-211v286h543
v-704q-105 -86 -236.5 -136.5t-322.5 -50.5zM858 -90v-117q0 -135 -73.5 -195.5t-227.5 -60.5v111q136 0 172 73h-162v189h291z" />
    <glyph glyph-name="gcommaaccent" unicode="&#x123;" horiz-adv-x="1175" 
d="M745 23v127q-100 -111 -280 -111q-207 0 -304.5 133.5t-97.5 374.5v57q0 112 23 202.5t70 160t125.5 107.5t183.5 38q209 0 309 -149l23 122h288l-18 -307v-758q0 -456 -502 -456q-131 0 -226.5 30t-150 85t-79.5 123.5t-25 154.5v43h303q0 -84 38.5 -130t133.5 -46
q96 0 141 45.5t45 153.5zM559 315q65 0 112 32t74 73v311q-27 41 -74 73t-112 32q-87 0 -131.5 -62t-44.5 -170v-57q0 -232 176 -232zM422 1221v133q0 142 72.5 206t228.5 64v-111q-73 0 -116.5 -20t-61.5 -68h166v-204h-289z" />
    <glyph glyph-name="Hcircumflex" unicode="&#x124;" horiz-adv-x="1357" 
d="M911 1597h332v-1597h-332v672h-465v-672h-331v1597h331v-639h465v639zM551 1720h-291l254 226h328l254 -226h-291l-127 90z" />
    <glyph glyph-name="hcircumflex" unicode="&#x125;" horiz-adv-x="1185" 
d="M434 1638v-657q118 131 320 131q89 0 155.5 -30.5t105 -84.5t57 -119.5t18.5 -142.5v-735h-322v682q0 67 -33 109.5t-110 42.5q-68 0 -117 -32t-74 -71v-731h-323v1638h323zM143 1720h-290l253 226h328l254 -226h-291l-127 90z" />
    <glyph glyph-name="Hbar" unicode="&#x126;" horiz-adv-x="1357" 
d="M911 1597h332v-1597h-332v672h-465v-672h-331v1597h331v-194h465v194zM446 958h465v197h-465v-197z" />
    <glyph glyph-name="hbar" unicode="&#x127;" horiz-adv-x="1185" 
d="M432 1638v-161h232v-230h-232v-266q118 131 320 131q89 0 155.5 -30.5t104.5 -84.5t56.5 -119.5t18.5 -142.5v-735h-319v682q0 67 -33.5 110.5t-111.5 43.5q-68 0 -116 -32t-75 -73v-731h-321v1247h-140v230h140v161h321z" />
    <glyph glyph-name="Itilde" unicode="&#x128;" horiz-adv-x="579" 
d="M457 1597v-1597h-332v1597h332zM496 1939h174q0 -126 -59.5 -184.5t-151.5 -58.5q-56 0 -115.5 24.5t-109 49t-80.5 24.5q-68 0 -68 -68h-174q0 126 59.5 185t151.5 59q56 0 115.5 -24.5t109 -49t80.5 -24.5q68 0 68 67z" />
    <glyph glyph-name="itilde" unicode="&#x129;" horiz-adv-x="544" 
d="M111 0v1085h321v-1085h-321zM469 1581h215q0 -164 -62.5 -245t-164.5 -81q-44 0 -93 16.5t-84.5 37t-74.5 37t-66 16.5q-63 0 -63 -76h-215q0 164 62.5 245t164.5 81q56 0 118 -27t114.5 -53.5t85.5 -26.5q63 0 63 76z" />
    <glyph glyph-name="Imacron" unicode="&#x12a;" horiz-adv-x="579" 
d="M457 1597v-1597h-332v1597h332zM-14 1735v196h610v-196h-610z" />
    <glyph glyph-name="imacron" unicode="&#x12b;" horiz-adv-x="544" 
d="M111 0v1085h321v-1085h-321zM-35 1268v282h615v-282h-615z" />
    <glyph glyph-name="Ibreve" unicode="&#x12c;" horiz-adv-x="579" 
d="M457 1597v-1597h-332v1597h332zM291 1690q-109 0 -185 20t-116 56.5t-57 80t-17 99.5h223q0 -82 152 -82q151 0 151 82h224q0 -56 -17 -99.5t-57 -80t-116 -56.5t-185 -20z" />
    <glyph glyph-name="ibreve" unicode="&#x12d;" horiz-adv-x="542" 
d="M111 0v1085h321v-1085h-321zM272 1192q-105 0 -181 30t-120 85.5t-64 127.5t-18 162h232q0 -159 151 -159q152 0 152 159h231q2 -90 -18 -162t-64 -127.5t-120 -85.5t-181 -30z" />
    <glyph glyph-name="Iogonek" unicode="&#x12e;" horiz-adv-x="579" 
d="M328 -141q0 -33 24.5 -53.5t63.5 -20.5q51 0 86 22l73 -196q-34 -21 -92 -36t-118 -15q-129 0 -203 56t-74 165q0 83 37 147v1669h332v-1597h-2q-127 -56 -127 -141z" />
    <glyph glyph-name="iogonek" unicode="&#x12f;" horiz-adv-x="544" 
d="M66 -219q0 89 45 162v1142h323v-1085h-2q-127 -56 -127 -141q0 -33 24.5 -53.5t63.5 -20.5q51 0 86 22l74 -196q-34 -21 -92.5 -36t-118.5 -15q-129 0 -202.5 56t-73.5 165zM442 1581v-342h-340v342h340z" />
    <glyph glyph-name="Idotaccent" unicode="&#x130;" horiz-adv-x="579" 
d="M457 1597v-1597h-332v1597h332zM428 1935v-204h-274v204h274z" />
    <glyph glyph-name="dotlessi" unicode="&#x131;" horiz-adv-x="542" 
d="M111 0v1085h321v-1085h-321z" />
    <glyph glyph-name="IJ" unicode="&#x132;" horiz-adv-x="1243" 
d="M809 428v1169h332v-1206q0 -112 -29.5 -194t-84.5 -130.5t-126.5 -71t-161.5 -22.5q-140 0 -194 33v273q13 -6 46.5 -12.5t59.5 -6.5q80 0 119 35.5t39 132.5zM457 1597v-1597h-332v1597h332z" />
    <glyph glyph-name="ij" unicode="&#x133;" horiz-adv-x="985" 
d="M553 2v1083h324v-1118q0 -403 -408 -403q-129 0 -176 26v267q10 -5 42 -10t58 -5q80 0 120 33.5t40 126.5zM111 0v1085h323v-1085h-323zM442 1581v-342h-340v342h340zM885 1581v-342h-340v342h340z" />
    <glyph glyph-name="Jcircumflex" unicode="&#x134;" horiz-adv-x="1099" 
d="M664 1597h331v-1110q0 -252 -114 -383t-361 -131q-255 0 -364 130t-109 389v53h313q0 -147 33.5 -216t118.5 -69t118.5 65.5t33.5 202.5v1069zM702 1720h-290l254 226h327l254 -226h-291l-127 90z" />
    <glyph glyph-name="jcircumflex" unicode="&#x135;" horiz-adv-x="544" 
d="M111 2v1083h321v-1118q0 -214 -106 -308.5t-299 -94.5q-130 0 -177 26v265q45 -15 101 -15q80 0 120 34t40 128zM125 1221h-283l275 376h311l274 -376h-282l-148 168z" />
    <glyph glyph-name="Kcommaaccent" unicode="&#x136;" horiz-adv-x="1280" 
d="M446 1597v-626l394 626h401l-448 -641l448 -956h-369l-290 653l-136 -192v-461h-331v1597h331zM788 -90v-117q0 -135 -73.5 -195.5t-227.5 -60.5v111q136 0 172 73h-161v189h290z" />
    <glyph glyph-name="kcommaaccent" unicode="&#x137;" horiz-adv-x="1150" 
d="M102 0v1638h324v-921l301 368h387l-358 -411l358 -674h-377l-205 418l-106 -123v-295h-324zM717 -90v-117q0 -135 -73.5 -195.5t-227.5 -60.5v111q136 0 172 73h-162v189h291z" />
    <glyph glyph-name="kgreenlandic" unicode="&#x138;" horiz-adv-x="1150" 
d="M102 0v1085h324v-368l301 368h387l-358 -411l358 -674h-377l-205 418l-106 -123v-295h-324z" />
    <glyph glyph-name="Lacute" unicode="&#x139;" horiz-adv-x="1067" 
d="M1036 0h-921v1597h331v-1310h590v-287zM233 1946h338l-131 -226h-319z" />
    <glyph glyph-name="lacute" unicode="&#x13a;" horiz-adv-x="544" 
d="M111 0v1638h323v-1638h-323zM225 1946h338l-131 -226h-319z" />
    <glyph glyph-name="Lcommaaccent" unicode="&#x13b;" horiz-adv-x="1067" 
d="M1036 0h-921v1597h331v-1310h590v-287zM721 -90v-117q0 -135 -73.5 -195.5t-227.5 -60.5v111q136 0 172 73h-162v189h291z" />
    <glyph glyph-name="lcommaaccent" unicode="&#x13c;" horiz-adv-x="544" 
d="M111 0v1638h323v-1638h-323zM418 -90v-117q0 -135 -73.5 -195.5t-227.5 -60.5v111q136 0 172 73h-162v189h291z" />
    <glyph glyph-name="Lcaron" unicode="&#x13d;" horiz-adv-x="1067" 
d="M1036 0h-921v1597h331v-1310h590v-287zM678 1638h196l-53 -417h-143v417z" />
    <glyph glyph-name="lcaron" unicode="&#x13e;" horiz-adv-x="544" 
d="M111 0v1638h323v-1638h-323zM549 1638h196l-53 -417h-143v417z" />
    <glyph glyph-name="Ldot" unicode="&#x13f;" horiz-adv-x="1067" 
d="M1036 0h-921v1597h331v-1310h590v-287zM979 985v-340h-338v340h338z" />
    <glyph glyph-name="ldot" unicode="&#x140;" horiz-adv-x="899" 
d="M111 0v1638h323v-1638h-323zM893 889v-342h-340v342h340z" />
    <glyph glyph-name="Lslash" unicode="&#x141;" horiz-adv-x="1189" 
d="M25 385v277l213 104v831h331v-667l371 182v-274l-371 -185v-366h590v-287h-921v489z" />
    <glyph glyph-name="lslash" unicode="&#x142;" horiz-adv-x="786" 
d="M47 389v273l182 114v862h324v-657l207 131v-270l-207 -131v-711h-324v504z" />
    <glyph glyph-name="Nacute" unicode="&#x143;" horiz-adv-x="1398" 
d="M1284 1597v-1597h-350l-516 991l10 -321v-670h-313v1597h350l514 -991l-10 322v669h315zM651 1946h338l-131 -226h-319z" />
    <glyph glyph-name="nacute" unicode="&#x144;" horiz-adv-x="1187" 
d="M1090 0h-322v682q0 67 -33 109.5t-110 42.5q-68 0 -117 -32t-74 -71v-731h-323v778l-19 307h289l25 -139q118 166 348 166q89 0 155.5 -30.5t105 -84.5t57 -119.5t18.5 -142.5v-735zM627 1597h352l-219 -376h-320z" />
    <glyph glyph-name="Ncommaaccent" unicode="&#x145;" horiz-adv-x="1398" 
d="M1284 1597v-1597h-350l-516 991l10 -321v-670h-313v1597h350l514 -991l-10 322v669h315zM844 -90v-117q0 -135 -73.5 -195.5t-227.5 -60.5v111q136 0 172 73h-162v189h291z" />
    <glyph glyph-name="ncommaaccent" unicode="&#x146;" horiz-adv-x="1187" 
d="M1090 0h-322v682q0 67 -33 109.5t-110 42.5q-68 0 -117 -32t-74 -71v-731h-323v778l-19 307h289l25 -139q118 166 348 166q89 0 155.5 -30.5t105 -84.5t57 -119.5t18.5 -142.5v-735zM745 -90v-117q0 -135 -73.5 -195.5t-227.5 -60.5v111q136 0 172 73h-161v189h290z" />
    <glyph glyph-name="Ncaron" unicode="&#x147;" horiz-adv-x="1398" 
d="M1284 1597v-1597h-350l-516 991l10 -321v-670h-313v1597h350l514 -991l-10 322v669h315zM281 1946h290l127 -93l127 93h291l-254 -226h-327z" />
    <glyph glyph-name="ncaron" unicode="&#x148;" horiz-adv-x="1187" 
d="M1090 0h-322v682q0 67 -33 109.5t-110 42.5q-68 0 -117 -32t-74 -71v-731h-323v778l-19 307h289l25 -139q118 166 348 166q89 0 155.5 -30.5t105 -84.5t57 -119.5t18.5 -142.5v-735zM170 1597h283l147 -170l148 170h282l-274 -376h-312z" />
    <glyph glyph-name="Eng" unicode="&#x14a;" horiz-adv-x="1398" 
d="M1284 1597v-1630q0 -214 -106 -308.5t-301 -94.5q-128 0 -175 26v265q45 -15 101 -15q67 0 105.5 24t49.5 87l-540 1040l10 -321v-670h-313v1597h350l514 -991l-10 322v669h315z" />
    <glyph glyph-name="eng" unicode="&#x14b;" horiz-adv-x="1187" 
d="M766 2v680q0 152 -141 152q-68 0 -117 -32t-74 -71v-731h-323v778l-19 307h289l25 -139q118 166 348 166q89 0 155.5 -30.5t105 -84.5t57 -119.5t18.5 -142.5v-768q0 -403 -408 -403q-129 0 -176 26v267q10 -5 42 -10t58 -5q80 0 120 33.5t40 126.5z" />
    <glyph glyph-name="Omacron" unicode="&#x14c;" horiz-adv-x="1378" 
d="M688 -27q-313 0 -460.5 187t-147.5 598v82q0 411 147.5 597.5t460.5 186.5q315 0 462.5 -186.5t147.5 -597.5v-82q0 -411 -147.5 -598t-462.5 -187zM680 260h18q147 0 205 122.5t58 375.5v82q0 253 -58 375t-205 122h-18q-147 0 -205.5 -122t-58.5 -375v-82
q0 -253 58.5 -375.5t205.5 -122.5zM383 1735v196h610v-196h-610z" />
    <glyph glyph-name="omacron" unicode="&#x14d;" horiz-adv-x="1138" 
d="M569 -27q-252 0 -380 144t-128 389v74q0 245 128 388.5t380 143.5q253 0 380.5 -143.5t127.5 -388.5v-74q0 -245 -127.5 -389t-380.5 -144zM569 252q185 0 185 254v74q0 254 -185 254q-184 0 -184 -254v-74q0 -254 184 -254zM262 1268v282h615v-282h-615z" />
    <glyph glyph-name="Obreve" unicode="&#x14e;" horiz-adv-x="1378" 
d="M688 -27q-313 0 -460.5 187t-147.5 598v82q0 411 147.5 597.5t460.5 186.5q315 0 462.5 -186.5t147.5 -597.5v-82q0 -411 -147.5 -598t-462.5 -187zM680 260h18q147 0 205 122.5t58 375.5v82q0 253 -58 375t-205 122h-18q-147 0 -205.5 -122t-58.5 -375v-82
q0 -253 58.5 -375.5t205.5 -122.5zM688 1690q-109 0 -185 20t-116 56.5t-57 80t-17 99.5h224q0 -82 151 -82q152 0 152 82h223q0 -56 -17 -99.5t-57 -80t-116 -56.5t-185 -20z" />
    <glyph glyph-name="obreve" unicode="&#x14f;" horiz-adv-x="1138" 
d="M569 -27q-252 0 -380 144t-128 389v74q0 245 128 388.5t380 143.5q253 0 380.5 -143.5t127.5 -388.5v-74q0 -245 -127.5 -389t-380.5 -144zM569 1192q-105 0 -181 30t-120 85.5t-64 127.5t-18 162h232q0 -159 151 -159q152 0 152 159h231q2 -90 -18 -162t-64 -127.5
t-120 -85.5t-181 -30zM569 252q185 0 185 254v74q0 254 -185 254q-184 0 -184 -254v-74q0 -254 184 -254z" />
    <glyph glyph-name="Ohungarumlaut" unicode="&#x150;" horiz-adv-x="1378" 
d="M688 -27q-313 0 -460.5 187t-147.5 598v82q0 411 147.5 597.5t460.5 186.5q315 0 462.5 -186.5t147.5 -597.5v-82q0 -411 -147.5 -598t-462.5 -187zM680 260h18q147 0 205 122.5t58 375.5v82q0 253 -58 375t-205 122h-18q-147 0 -205.5 -122t-58.5 -375v-82
q0 -253 58.5 -375.5t205.5 -122.5zM469 1946h305l-115 -226h-284zM827 1946h306l-132 -226h-284z" />
    <glyph glyph-name="ohungarumlaut" unicode="&#x151;" horiz-adv-x="1138" 
d="M569 -27q-252 0 -380 144t-128 389v74q0 245 128 388.5t380 143.5q253 0 380.5 -143.5t127.5 -388.5v-74q0 -245 -127.5 -389t-380.5 -144zM569 252q185 0 185 254v74q0 254 -185 254q-184 0 -184 -254v-74q0 -254 184 -254zM416 1597h286l-172 -376h-251zM793 1597h284
l-219 -376h-252z" />
    <glyph glyph-name="OE" unicode="&#x152;" horiz-adv-x="1925" 
d="M80 840q0 209 37.5 352t120.5 233.5t208 131t306 40.5h1091v-286h-645v-353h543v-286h-543v-385h645v-287h-1091q-241 0 -386.5 74.5t-215.5 240.5t-70 443v82zM866 1311h-96q-199 0 -276.5 -111t-77.5 -360v-82q0 -249 77.5 -360t276.5 -111h96v1024z" />
    <glyph glyph-name="oe" unicode="&#x153;" horiz-adv-x="1830" 
d="M1769 426h-692q9 -110 60 -158.5t145 -48.5q81 0 131.5 38.5t50.5 90.5h305v-8q0 -160 -130.5 -263.5t-358.5 -103.5q-231 0 -360 146q-123 -146 -351 -146q-252 0 -380 144t-128 389v74q0 245 128 388.5t380 143.5q227 0 351 -147q130 147 348 147q248 0 374.5 -147.5
t126.5 -393.5v-145zM385 506q0 -254 184 -254q185 0 185 254v74q0 254 -185 254q-184 0 -184 -254v-74zM1262 866q-86 0 -130.5 -50.5t-52.5 -156.5h365q-8 106 -52 156.5t-130 50.5z" />
    <glyph glyph-name="Racute" unicode="&#x154;" horiz-adv-x="1275" 
d="M446 573v-573h-331v1597h524q87 0 158.5 -10t148 -41.5t129 -83.5t86 -143t33.5 -213v-41q0 -340 -252 -444l252 -621h-358l-220 573h-170zM446 860h207q38 0 70.5 9t65 30.5t51 66.5t18.5 109v21q0 64 -18.5 109t-51 66.5t-65 30.5t-70.5 9h-207v-451zM563 1946h338
l-131 -226h-319z" />
    <glyph glyph-name="racute" unicode="&#x155;" horiz-adv-x="788" 
d="M692 1112q23 0 31 -2v-311h-55q-89 0 -148.5 -28.5t-85.5 -65.5v-705h-323v778l-19 307h289l22 -127q50 71 123.5 112.5t165.5 41.5zM442 1597h353l-220 -376h-319z" />
    <glyph glyph-name="Rcommaaccent" unicode="&#x156;" horiz-adv-x="1275" 
d="M446 573v-573h-331v1597h524q87 0 158.5 -10t148 -41.5t129 -83.5t86 -143t33.5 -213v-41q0 -340 -252 -444l252 -621h-358l-220 573h-170zM446 860h207q38 0 70.5 9t65 30.5t51 66.5t18.5 109v21q0 64 -18.5 109t-51 66.5t-65 30.5t-70.5 9h-207v-451zM776 -90v-117
q0 -135 -73.5 -195.5t-227.5 -60.5v111q136 0 172 73h-162v189h291z" />
    <glyph glyph-name="rcommaaccent" unicode="&#x157;" horiz-adv-x="788" 
d="M692 1112q23 0 31 -2v-311h-55q-89 0 -148.5 -28.5t-85.5 -65.5v-705h-323v778l-19 307h289l22 -127q50 71 123.5 112.5t165.5 41.5zM418 -90v-117q0 -135 -73.5 -195.5t-227.5 -60.5v111q136 0 172 73h-162v189h291z" />
    <glyph glyph-name="Rcaron" unicode="&#x158;" horiz-adv-x="1275" 
d="M446 573v-573h-331v1597h524q87 0 158.5 -10t148 -41.5t129 -83.5t86 -143t33.5 -213v-41q0 -340 -252 -444l252 -621h-358l-220 573h-170zM446 860h207q38 0 70.5 9t65 30.5t51 66.5t18.5 109v21q0 64 -18.5 109t-51 66.5t-65 30.5t-70.5 9h-207v-451zM193 1946h290
l127 -93l127 93h291l-254 -226h-328z" />
    <glyph glyph-name="rcaron" unicode="&#x159;" horiz-adv-x="788" 
d="M692 1112q23 0 31 -2v-311h-55q-89 0 -148.5 -28.5t-85.5 -65.5v-705h-323v778l-19 307h289l22 -127q50 71 123.5 112.5t165.5 41.5zM-14 1597h282l148 -170l147 170h283l-275 -376h-311z" />
    <glyph glyph-name="Sacute" unicode="&#x15a;" horiz-adv-x="1292" 
d="M594 668q-267 36 -389.5 141t-122.5 317v23q0 220 146.5 347.5t416.5 127.5q293 0 429 -133t136 -416v-43h-331q0 159 -54 232t-178 73h-18q-98 0 -154.5 -49t-56.5 -127v-10q0 -63 21 -100.5t83 -65.5t176 -43q135 -18 229.5 -50.5t162.5 -87t100.5 -135t32.5 -190.5
v-20q0 -232 -149.5 -359t-428.5 -127q-287 0 -431 134t-144 419v19h331q0 -148 59 -216.5t177 -68.5h18q111 0 170.5 53t59.5 136v10q0 90 -62 138.5t-229 70.5zM598 1946h338l-131 -226h-320z" />
    <glyph glyph-name="sacute" unicode="&#x15b;" horiz-adv-x="1081" 
d="M541 219q74 0 109.5 29t35.5 78q0 52 -34.5 76.5t-127.5 31.5q-236 19 -338 87t-102 218v19q0 121 61.5 202t161.5 116.5t234 35.5q456 0 456 -373v-10h-317q0 137 -139 137q-66 0 -102 -26.5t-36 -71.5q0 -51 32.5 -74t123.5 -30q88 -7 152.5 -18.5t124 -34t96 -55
t58.5 -83t22 -117.5v-18q0 -172 -120 -268.5t-351 -96.5q-230 0 -349.5 98.5t-119.5 262.5v10h321q0 -125 148 -125zM567 1597h353l-220 -376h-319z" />
    <glyph glyph-name="Scircumflex" unicode="&#x15c;" horiz-adv-x="1292" 
d="M594 668q-267 36 -389.5 141t-122.5 317v23q0 220 146.5 347.5t416.5 127.5q293 0 429 -133t136 -416v-43h-331q0 159 -54 232t-178 73h-18q-98 0 -154.5 -49t-56.5 -127v-10q0 -63 21 -100.5t83 -65.5t176 -43q135 -18 229.5 -50.5t162.5 -87t100.5 -135t32.5 -190.5
v-20q0 -232 -149.5 -359t-428.5 -127q-287 0 -431 134t-144 419v19h331q0 -148 59 -216.5t177 -68.5h18q111 0 170.5 53t59.5 136v10q0 90 -62 138.5t-229 70.5zM518 1720h-291l254 226h328l254 -226h-291l-127 90z" />
    <glyph glyph-name="scircumflex" unicode="&#x15d;" horiz-adv-x="1081" 
d="M541 219q74 0 109.5 29t35.5 78q0 52 -34.5 76.5t-127.5 31.5q-236 19 -338 87t-102 218v19q0 121 61.5 202t161.5 116.5t234 35.5q456 0 456 -373v-10h-317q0 137 -139 137q-66 0 -102 -26.5t-36 -71.5q0 -51 32.5 -74t123.5 -30q88 -7 152.5 -18.5t124 -34t96 -55
t58.5 -83t22 -117.5v-18q0 -172 -120 -268.5t-351 -96.5q-230 0 -349.5 98.5t-119.5 262.5v10h321q0 -125 148 -125zM393 1221h-282l274 376h311l275 -376h-283l-147 168z" />
    <glyph glyph-name="Scedilla" unicode="&#x15e;" horiz-adv-x="1292" 
d="M428 -389l47 135q58 -35 148 -35q96 0 96 47t-98 47q-16 0 -35.5 -2.5t-31.5 -4.5l-11 -3l-31 58l49 124q-245 17 -368 151.5t-123 397.5v19h331q0 -148 59 -216.5t177 -68.5h18q111 0 170.5 53t59.5 136v10q0 90 -62 138.5t-229 70.5q-267 36 -389.5 141t-122.5 317v23
q0 220 146.5 347.5t416.5 127.5q293 0 429 -133t136 -416v-43h-331q0 159 -54 232t-178 73h-18q-98 0 -154.5 -49t-56.5 -127v-10q0 -63 21 -100.5t83 -65.5t176 -43q135 -18 229.5 -50.5t162.5 -87t100.5 -135t32.5 -190.5v-20q0 -218 -132.5 -343.5t-381.5 -140.5l-21 -57
q92 -6 148.5 -51t56.5 -127q0 -88 -62.5 -134t-183.5 -46q-139 0 -219 51z" />
    <glyph glyph-name="scedilla" unicode="&#x15f;" horiz-adv-x="1081" 
d="M324 -389l47 135q58 -35 147 -35q96 0 96 47t-98 47q-16 0 -35.5 -2.5t-30.5 -4.5l-12 -3l-30 58l49 124q-190 17 -287.5 112.5t-97.5 244.5v10h321q0 -125 148 -125q74 0 109.5 29t35.5 78q0 52 -34.5 76.5t-127.5 31.5q-236 19 -338 87t-102 218v19q0 121 61.5 202
t161.5 116.5t234 35.5q456 0 456 -373v-10h-317q0 137 -139 137q-66 0 -102 -26.5t-36 -71.5q0 -51 32.5 -74t123.5 -30q88 -7 152.5 -18.5t124 -34t96 -55t58.5 -83t22 -117.5v-18q0 -159 -104 -254.5t-304 -108.5l-20 -57q92 -6 148 -51t56 -127q0 -88 -62 -134t-183 -46
q-139 0 -219 51z" />
    <glyph glyph-name="Scaron" unicode="&#x160;" horiz-adv-x="1292" 
d="M594 668q-267 36 -389.5 141t-122.5 317v23q0 220 146.5 347.5t416.5 127.5q293 0 429 -133t136 -416v-43h-331q0 159 -54 232t-178 73h-18q-98 0 -154.5 -49t-56.5 -127v-10q0 -63 21 -100.5t83 -65.5t176 -43q135 -18 229.5 -50.5t162.5 -87t100.5 -135t32.5 -190.5
v-20q0 -232 -149.5 -359t-428.5 -127q-287 0 -431 134t-144 419v19h331q0 -148 59 -216.5t177 -68.5h18q111 0 170.5 53t59.5 136v10q0 90 -62 138.5t-229 70.5zM227 1946h291l127 -93l127 93h291l-254 -226h-328z" />
    <glyph glyph-name="scaron" unicode="&#x161;" horiz-adv-x="1081" 
d="M541 219q74 0 109.5 29t35.5 78q0 52 -34.5 76.5t-127.5 31.5q-236 19 -338 87t-102 218v19q0 121 61.5 202t161.5 116.5t234 35.5q456 0 456 -373v-10h-317q0 137 -139 137q-66 0 -102 -26.5t-36 -71.5q0 -51 32.5 -74t123.5 -30q88 -7 152.5 -18.5t124 -34t96 -55
t58.5 -83t22 -117.5v-18q0 -172 -120 -268.5t-351 -96.5q-230 0 -349.5 98.5t-119.5 262.5v10h321q0 -125 148 -125zM111 1597h282l148 -170l147 170h283l-275 -376h-311z" />
    <glyph glyph-name="Tcommaaccent" unicode="&#x162;" horiz-adv-x="1140" 
d="M735 1311v-1311h-332v1311h-368v286h1071v-286h-371zM715 -90v-117q0 -135 -73.5 -195.5t-227.5 -60.5v111q136 0 172 73h-162v189h291z" />
    <glyph glyph-name="tcommaaccent" unicode="&#x163;" horiz-adv-x="882" 
d="M528 1085h279v-282h-279v-391q0 -93 39.5 -126.5t120.5 -33.5q25 0 57 4.5t41 9.5v-266q-49 -27 -174 -27q-194 0 -300.5 95t-106.5 309v426h-166v282h166v308h323v-308zM633 -90v-117q0 -135 -73.5 -195.5t-227.5 -60.5v111q136 0 172 73h-162v189h291z" />
    <glyph glyph-name="Tcaron" unicode="&#x164;" horiz-adv-x="1140" 
d="M735 1311v-1311h-332v1311h-368v286h1071v-286h-371zM152 1946h290l127 -93l127 93h291l-254 -226h-327z" />
    <glyph glyph-name="tcaron" unicode="&#x165;" horiz-adv-x="882" 
d="M528 1085h279v-282h-279v-391q0 -93 39.5 -126.5t120.5 -33.5q25 0 57 4.5t41 9.5v-266q-49 -27 -174 -27q-194 0 -300.5 95t-106.5 309v426h-166v282h166v308h323v-308zM643 1638h197l-54 -417h-143v417z" />
    <glyph glyph-name="Tbar" unicode="&#x166;" horiz-adv-x="1140" 
d="M735 1311v-363h234v-266h-234v-682h-332v682h-231v266h231v363h-368v286h1071v-286h-371z" />
    <glyph glyph-name="tbar" unicode="&#x167;" horiz-adv-x="882" 
d="M528 1085h279v-282h-279v-144h197v-233h-197v-14q0 -93 39.5 -126.5t120.5 -33.5q25 0 57 4.5t41 9.5v-266q-49 -27 -174 -27q-194 0 -300.5 95t-106.5 309v49h-133v233h133v144h-166v282h166v308h323v-308z" />
    <glyph glyph-name="Utilde" unicode="&#x168;" horiz-adv-x="1357" 
d="M883 1939h174q0 -126 -59.5 -184.5t-151.5 -58.5q-56 0 -115.5 24.5t-109 49t-80.5 24.5q-68 0 -68 -68h-174q0 126 59.5 185t151.5 59q56 0 115.5 -24.5t109 -49t80.5 -24.5q68 0 68 67zM678 -27q-161 0 -272.5 33.5t-177.5 103t-95 165.5t-29 231v1091h332v-1081
q0 -133 53 -194.5t189 -61.5t190 61.5t54 194.5v1081h331v-1091q0 -135 -29 -231t-95.5 -165.5t-178 -103t-272.5 -33.5z" />
    <glyph glyph-name="utilde" unicode="&#x169;" horiz-adv-x="1187" 
d="M98 1085h322v-682q0 -67 33 -109t110 -42q120 0 191 102v731h323v-778l19 -307h-289l-25 137q-120 -164 -348 -164q-90 0 -156.5 30.5t-105 84.5t-56.5 119.5t-18 142.5v735zM782 1581h215q0 -164 -62.5 -245t-164.5 -81q-44 0 -93 16.5t-84 37t-74 37t-66 16.5
q-64 0 -64 -76h-215q0 164 62.5 245t164.5 81q56 0 118 -27t114.5 -53.5t85.5 -26.5q63 0 63 76z" />
    <glyph glyph-name="Umacron" unicode="&#x16a;" horiz-adv-x="1357" 
d="M678 -27q-161 0 -272.5 33.5t-177.5 103t-95 165.5t-29 231v1091h332v-1081q0 -133 53 -194.5t189 -61.5t190 61.5t54 194.5v1081h331v-1091q0 -135 -29 -231t-95.5 -165.5t-178 -103t-272.5 -33.5zM373 1735v196h610v-196h-610z" />
    <glyph glyph-name="umacron" unicode="&#x16b;" horiz-adv-x="1187" 
d="M98 1085h322v-682q0 -67 33 -109t110 -42q120 0 191 102v731h323v-778l19 -307h-289l-25 137q-120 -164 -348 -164q-90 0 -156.5 30.5t-105 84.5t-56.5 119.5t-18 142.5v735zM279 1268v282h614v-282h-614z" />
    <glyph glyph-name="Ubreve" unicode="&#x16c;" horiz-adv-x="1357" 
d="M678 1690q-109 0 -185 20t-116 56.5t-57 80t-17 99.5h223q0 -82 152 -82q151 0 151 82h224q0 -56 -17 -99.5t-57 -80t-116 -56.5t-185 -20zM678 -27q-161 0 -272.5 33.5t-177.5 103t-95 165.5t-29 231v1091h332v-1081q0 -133 53 -194.5t189 -61.5t190 61.5t54 194.5v1081
h331v-1091q0 -135 -29 -231t-95.5 -165.5t-178 -103t-272.5 -33.5z" />
    <glyph glyph-name="ubreve" unicode="&#x16d;" horiz-adv-x="1187" 
d="M98 1085h322v-682q0 -67 33 -109t110 -42q120 0 191 102v731h323v-778l19 -307h-289l-25 137q-120 -164 -348 -164q-90 0 -156.5 30.5t-105 84.5t-56.5 119.5t-18 142.5v735zM586 1192q-105 0 -181 30t-120 85.5t-64 127.5t-18 162h231q0 -159 152 -159q151 0 151 159
h232q2 -90 -18 -162t-64 -127.5t-120 -85.5t-181 -30z" />
    <glyph glyph-name="Uring" unicode="&#x16e;" horiz-adv-x="1357" 
d="M678 -27q-161 0 -272.5 33.5t-177.5 103t-95 165.5t-29 231v1091h332v-1081q0 -133 53 -194.5t189 -61.5t190 61.5t54 194.5v1081h331v-1091q0 -135 -29 -231t-95.5 -165.5t-178 -103t-272.5 -33.5zM463 1757q0 89 63 152t152 63t152 -63t63 -152t-63 -153t-152 -64
t-152 64t-63 153zM573 1757q0 -43 31 -73.5t74 -30.5t73.5 30.5t30.5 73.5t-30.5 73t-73.5 30t-74 -30t-31 -73z" />
    <glyph glyph-name="uring" unicode="&#x16f;" horiz-adv-x="1187" 
d="M98 1085h322v-682q0 -67 33 -109t110 -42q120 0 191 102v731h323v-778l19 -307h-289l-25 137q-120 -164 -348 -164q-90 0 -156.5 30.5t-105 84.5t-56.5 119.5t-18 142.5v735zM371 1409q0 89 63 152t152 63t152 -63t63 -152t-63 -153t-152 -64t-152 64t-63 153zM481 1409
q0 -43 31 -73.5t74 -30.5t73.5 30.5t30.5 73.5t-30.5 72.5t-73.5 29.5t-74 -30t-31 -72z" />
    <glyph glyph-name="Uhungarumlaut" unicode="&#x170;" horiz-adv-x="1357" 
d="M678 -27q-161 0 -272.5 33.5t-177.5 103t-95 165.5t-29 231v1091h332v-1081q0 -133 53 -194.5t189 -61.5t190 61.5t54 194.5v1081h331v-1091q0 -135 -29 -231t-95.5 -165.5t-178 -103t-272.5 -33.5zM817 1946h305l-131 -226h-284zM459 1946h305l-115 -226h-284z" />
    <glyph glyph-name="uhungarumlaut" unicode="&#x171;" horiz-adv-x="1187" 
d="M98 1085h322v-682q0 -67 33 -109t110 -42q120 0 191 102v731h323v-778l19 -307h-289l-25 137q-120 -164 -348 -164q-90 0 -156.5 30.5t-105 84.5t-56.5 119.5t-18 142.5v735zM432 1597h287l-172 -376h-252zM809 1597h285l-220 -376h-251z" />
    <glyph glyph-name="Uogonek" unicode="&#x172;" horiz-adv-x="1357" 
d="M799 -141q0 -33 24.5 -53.5t63.5 -20.5q51 0 86 22l74 -196q-34 -21 -92.5 -36t-118.5 -15q-129 0 -203 56t-74 165q0 110 68 194q-146 5 -247.5 41t-162 105t-87 162.5t-26.5 222.5v1091h332v-1081q0 -133 53 -194.5t189 -61.5t190 61.5t54 194.5v1081h331v-1091
q0 -210 -77.5 -336.5t-249.5 -169.5q-61 -14 -94 -53.5t-33 -87.5z" />
    <glyph glyph-name="uogonek" unicode="&#x173;" horiz-adv-x="1187" 
d="M98 1085h322v-682q0 -67 33 -109t110 -42q120 0 191 102v731h323v-778l19 -307q-127 -56 -127 -141q0 -33 24.5 -53.5t63.5 -20.5q51 0 86 22l74 -196q-34 -21 -92.5 -36t-118.5 -15q-129 0 -203 56t-74 165q0 119 80 209l-27 147q-120 -164 -348 -164q-90 0 -156.5 30.5
t-105 84.5t-56.5 119.5t-18 142.5v735z" />
    <glyph glyph-name="Wcircumflex" unicode="&#x174;" horiz-adv-x="1918" 
d="M1190 -4l-232 1223l-231 -1223h-424l-264 1601h346l154 -1148l215 1148h411l215 -1148l154 1148h346l-264 -1601h-426zM831 1720h-290l254 226h327l254 -226h-291l-127 90z" />
    <glyph glyph-name="wcircumflex" unicode="&#x175;" horiz-adv-x="1568" 
d="M784 748l-151 -748h-408l-186 1085h317l82 -735l152 735h387l153 -735l82 735h318l-189 -1085h-405zM637 1221h-283l275 376h311l274 -376h-282l-148 168z" />
    <glyph glyph-name="Ycircumflex" unicode="&#x176;" horiz-adv-x="1280" 
d="M807 489v-489h-332v489l-459 1108h363l262 -698l260 698h363zM514 1720h-291l254 226h328l254 -226h-291l-127 90z" />
    <glyph glyph-name="ycircumflex" unicode="&#x177;" horiz-adv-x="1128" 
d="M567 393l205 692h352l-383 -1028l-139 -467h-385l174 467l-381 1028h352zM420 1221h-283l275 376h311l274 -376h-282l-148 168z" />
    <glyph glyph-name="Ydieresis" unicode="&#x178;" horiz-adv-x="1280" 
d="M807 489v-489h-332v489l-459 1108h363l262 -698l260 698h363zM956 1935v-204h-272v204h272zM598 1935v-204h-272v204h272z" />
    <glyph glyph-name="Zacute" unicode="&#x179;" horiz-adv-x="1226" 
d="M565 1946h338l-131 -226h-319zM82 227l637 1090l-293 -6h-324v286h1022v-227l-637 -1089l293 6h365v-287h-1063v227z" />
    <glyph glyph-name="zacute" unicode="&#x17a;" horiz-adv-x="1021" 
d="M537 1597h352l-219 -376h-320zM49 221l479 588l-225 -6h-233v282h882v-221l-479 -588l225 7h275v-283h-924v221z" />
    <glyph glyph-name="Zdotaccent" unicode="&#x17b;" horiz-adv-x="1226" 
d="M750 1935v-204h-275v204h275zM82 227l637 1090l-293 -6h-324v286h1022v-227l-637 -1089l293 6h365v-287h-1063v227z" />
    <glyph glyph-name="zdotaccent" unicode="&#x17c;" horiz-adv-x="1021" 
d="M49 221l479 588l-225 -6h-233v282h882v-221l-479 -588l225 7h275v-283h-924v221zM680 1581v-340h-340v340h340z" />
    <glyph glyph-name="Zcaron" unicode="&#x17d;" horiz-adv-x="1226" 
d="M195 1946h290l127 -93l127 93h291l-254 -226h-327zM82 227l637 1090l-293 -6h-324v286h1022v-227l-637 -1089l293 6h365v-287h-1063v227z" />
    <glyph glyph-name="zcaron" unicode="&#x17e;" horiz-adv-x="1021" 
d="M80 1597h282l148 -170l147 170h283l-274 -376h-312zM49 221l479 588l-225 -6h-233v282h882v-221l-479 -588l225 7h275v-283h-924v221z" />
    <glyph glyph-name="Scommaaccent" unicode="&#x218;" horiz-adv-x="1292" 
d="M594 668q-267 36 -389.5 141t-122.5 317v23q0 220 146.5 347.5t416.5 127.5q293 0 429 -133t136 -416v-43h-331q0 159 -54 232t-178 73h-18q-98 0 -154.5 -49t-56.5 -127v-10q0 -63 21 -100.5t83 -65.5t176 -43q135 -18 229.5 -50.5t162.5 -87t100.5 -135t32.5 -190.5
v-20q0 -232 -149.5 -359t-428.5 -127q-287 0 -431 134t-144 419v19h331q0 -148 59 -216.5t177 -68.5h18q111 0 170.5 53t59.5 136v10q0 90 -62 138.5t-229 70.5zM791 -90v-117q0 -135 -73.5 -195.5t-228.5 -60.5v111q137 0 173 73h-162v189h291z" />
    <glyph glyph-name="scommaaccent" unicode="&#x219;" horiz-adv-x="1081" 
d="M541 219q74 0 109.5 29t35.5 78q0 52 -34.5 76.5t-127.5 31.5q-236 19 -338 87t-102 218v19q0 121 61.5 202t161.5 116.5t234 35.5q456 0 456 -373v-10h-317q0 137 -139 137q-66 0 -102 -26.5t-36 -71.5q0 -51 32.5 -74t123.5 -30q88 -7 152.5 -18.5t124 -34t96 -55
t58.5 -83t22 -117.5v-18q0 -172 -120 -268.5t-351 -96.5q-230 0 -349.5 98.5t-119.5 262.5v10h321q0 -125 148 -125zM686 -90v-117q0 -135 -73.5 -195.5t-227.5 -60.5v111q136 0 172 73h-162v189h291z" />
    <glyph glyph-name="Ymacron" unicode="&#x232;" horiz-adv-x="1280" 
d="M807 489v-489h-332v489l-459 1108h363l262 -698l260 698h363zM336 1735v196h610v-196h-610z" />
    <glyph glyph-name="ymacron" unicode="&#x233;" horiz-adv-x="1128" 
d="M567 393l205 692h352l-383 -1028l-139 -467h-385l174 467l-381 1028h352zM260 1268v282h614v-282h-614z" />
    <glyph glyph-name="dotlessj" unicode="&#x237;" horiz-adv-x="548" 
d="M111 2v1083h321v-1118q0 -214 -106 -308.5t-299 -94.5q-130 0 -177 26v265q45 -15 101 -15q80 0 120 34t40 128z" />
    <glyph glyph-name="circumflex" unicode="&#x2c6;" horiz-adv-x="1024" 
d="M365 1221h-283l274 376h312l274 -376h-283l-147 168z" />
    <glyph glyph-name="caron" unicode="&#x2c7;" horiz-adv-x="1024" 
d="M82 1597h283l147 -170l147 170h283l-274 -376h-312z" />
    <glyph glyph-name="breve" unicode="&#x2d8;" horiz-adv-x="1024" 
d="M512 1192q-105 0 -181 30t-120 85.5t-64 127.5t-18 162h231q0 -159 152 -159t152 159h231q2 -90 -18 -162t-64 -127.5t-120 -85.5t-181 -30z" />
    <glyph glyph-name="dotaccent" unicode="&#x2d9;" horiz-adv-x="1024" 
d="M682 1581v-340h-340v340h340z" />
    <glyph glyph-name="ring" unicode="&#x2da;" horiz-adv-x="1024" 
d="M297 1409q0 89 63 152t152 63t152 -63t63 -152t-63 -153t-152 -64t-152 64t-63 153zM408 1409q0 -43 30.5 -73.5t73.5 -30.5t73.5 30.5t30.5 73.5t-30.5 72.5t-73.5 29.5t-73.5 -29.5t-30.5 -72.5z" />
    <glyph glyph-name="ogonek" unicode="&#x2db;" horiz-adv-x="1232" 
d="M471 -141q0 -33 24.5 -53.5t63.5 -20.5q51 0 86 22l74 -196q-34 -21 -92.5 -36t-118.5 -15q-129 0 -203 56t-74 165q0 128 92 221t220 133l55 -135q-127 -56 -127 -141z" />
    <glyph glyph-name="tilde" unicode="&#x2dc;" horiz-adv-x="1024" 
d="M709 1581h215q0 -164 -63 -245t-165 -81q-44 0 -93 16.5t-84 37t-74 37t-66 16.5q-64 0 -64 -76h-215q0 164 63 245t165 81q56 0 118 -27t114 -53.5t85 -26.5q64 0 64 76z" />
    <glyph glyph-name="hungarumlaut" unicode="&#x2dd;" horiz-adv-x="1024" 
d="M358 1597h287l-172 -376h-252zM735 1597h285l-219 -376h-252z" />
    <glyph glyph-name="Bdotaccent" unicode="&#x1e02;" horiz-adv-x="1292" 
d="M115 1597h524q83 0 150.5 -9.5t137.5 -38.5t117.5 -76t78 -128.5t30.5 -189.5v-41q0 -199 -156 -289q197 -94 197 -325v-41q0 -112 -32 -196.5t-82.5 -133.5t-124 -79t-144.5 -40t-156 -10h-540v1597zM666 672h-220v-385h220q81 0 136.5 42.5t55.5 141.5v18
q0 99 -55.5 141t-136.5 42zM637 1311h-191v-350h191q180 0 180 161v27q0 89 -51.5 125.5t-128.5 36.5zM748 1935v-204h-275v204h275z" />
    <glyph glyph-name="bdotaccent" unicode="&#x1e03;" horiz-adv-x="1175" 
d="M432 1638v-645q101 119 279 119q403 0 403 -532v-74q0 -533 -403 -533q-205 0 -310 158l-22 -131h-289l19 307v1331h323zM432 354q71 -102 184 -102q175 0 175 254v74q0 254 -175 254q-64 0 -110 -31.5t-74 -71.5v-377zM406 1935v-204h-275v204h275z" />
    <glyph glyph-name="Ddotaccent" unicode="&#x1e0a;" horiz-adv-x="1357" 
d="M1278 758q0 -277 -70.5 -443t-216.5 -240.5t-387 -74.5h-489v1597h489q241 0 387 -74t216.5 -240t70.5 -443v-82zM446 287h140q103 0 171.5 28t109 88.5t57 145.5t16.5 209v82q0 124 -16.5 209t-57 145.5t-109 88.5t-171.5 28h-140v-1024zM778 1935v-204h-274v204h274z
" />
    <glyph glyph-name="ddotaccent" unicode="&#x1e0b;" horiz-adv-x="1191" 
d="M481 1112q178 0 279 -119v645h323v-1331l19 -307h-291l-23 129q-106 -156 -307 -156q-403 0 -403 533v74q0 532 403 532zM760 731q-27 40 -74 71.5t-111 31.5q-176 0 -176 -254v-74q0 -254 176 -254q64 0 111 31.5t74 70.5v377zM1059 1935v-204h-275v204h275z" />
    <glyph glyph-name="Fdotaccent" unicode="&#x1e1e;" horiz-adv-x="1124" 
d="M115 1597h968v-286h-637v-353h535v-286h-535v-672h-331v1597zM743 1935v-204h-274v204h274z" />
    <glyph glyph-name="fdotaccent" unicode="&#x1e1f;" horiz-adv-x="841" 
d="M528 1227v-142h238v-282h-238v-803h-323v803h-166v282h166v177q0 214 106 308.5t301 94.5q125 0 174 -27v-266q-9 5 -41 9.5t-57 4.5q-81 0 -120.5 -33t-39.5 -126zM637 1935v-204h-275v204h275z" />
    <glyph glyph-name="Mdotaccent" unicode="&#x1e40;" horiz-adv-x="1779" 
d="M1343 1022l-284 -1022h-338l-285 1022l10 -320v-702h-331v1597h489l287 -1022l285 1022h491v-1597h-332v702zM1028 1935v-204h-274v204h274z" />
    <glyph glyph-name="mdotaccent" unicode="&#x1e41;" horiz-adv-x="1767" 
d="M1669 0h-321v696q0 138 -129 138q-102 0 -168 -95v-739h-322v696q0 138 -129 138q-105 0 -166 -95v-739h-323v778l-19 307h289l22 -131q113 158 326 158q208 0 285 -168q116 168 334 168q161 0 241 -100.5t80 -263.5v-748zM1061 1581v-340h-340v340h340z" />
    <glyph glyph-name="Pdotaccent" unicode="&#x1e56;" horiz-adv-x="1247" 
d="M446 573v-573h-331v1597h524q87 0 158.5 -10t148 -41.5t129 -83.5t86 -143t33.5 -213v-41q0 -89 -17.5 -161.5t-46.5 -122.5t-73 -88t-90.5 -60.5t-104.5 -36.5t-110 -18.5t-113 -4.5h-193zM446 860h207q38 0 70.5 9t65 30.5t51 66.5t18.5 109v21q0 64 -18.5 109
t-51 66.5t-65 30.5t-70.5 9h-207v-451zM737 1935v-204h-274v204h274z" />
    <glyph glyph-name="pdotaccent" unicode="&#x1e57;" horiz-adv-x="1175" 
d="M711 -27q-178 0 -279 119v-502h-323v1188l-19 307h289l22 -133q106 160 310 160q403 0 403 -532v-74q0 -533 -403 -533zM432 731v-377q71 -102 184 -102q175 0 175 254v74q0 254 -175 254q-64 0 -110 -31.5t-74 -71.5zM780 1581v-340h-340v340h340z" />
    <glyph glyph-name="Tdotaccent" unicode="&#x1e6a;" horiz-adv-x="1140" 
d="M735 1311v-1311h-332v1311h-368v286h1071v-286h-371zM707 1935v-204h-275v204h275z" />
    <glyph glyph-name="tdotaccent" unicode="&#x1e6b;" horiz-adv-x="882" 
d="M528 1085h279v-282h-279v-391q0 -93 39.5 -126.5t120.5 -33.5q25 0 57 4.5t41 9.5v-266q-49 -27 -174 -27q-194 0 -300.5 95t-106.5 309v426h-166v282h166v308h323v-308zM504 1690v-205h-275v205h275z" />
    <glyph glyph-name="Wgrave" unicode="&#x1e80;" horiz-adv-x="1918" 
d="M1190 -4l-232 1223l-231 -1223h-424l-264 1601h346l154 -1148l215 1148h411l215 -1148l154 1148h346l-264 -1601h-426zM668 1946h338l112 -226h-319z" />
    <glyph glyph-name="wgrave" unicode="&#x1e81;" horiz-adv-x="1568" 
d="M784 748l-151 -748h-408l-186 1085h317l82 -735l152 735h387l153 -735l82 735h318l-189 -1085h-405zM406 1597h352l186 -376h-319z" />
    <glyph glyph-name="Wacute" unicode="&#x1e82;" horiz-adv-x="1918" 
d="M1190 -4l-232 1223l-231 -1223h-424l-264 1601h346l154 -1148l215 1148h411l215 -1148l154 1148h346l-264 -1601h-426zM911 1946h338l-131 -226h-319z" />
    <glyph glyph-name="wacute" unicode="&#x1e83;" horiz-adv-x="1568" 
d="M784 748l-151 -748h-408l-186 1085h317l82 -735l152 735h387l153 -735l82 735h318l-189 -1085h-405zM811 1597h352l-219 -376h-319z" />
    <glyph glyph-name="Wdieresis" unicode="&#x1e84;" horiz-adv-x="1918" 
d="M1190 -4l-232 1223l-231 -1223h-424l-264 1601h346l154 -1148l215 1148h411l215 -1148l154 1148h346l-264 -1601h-426zM915 1935v-204h-272v204h272zM1274 1935v-204h-273v204h273z" />
    <glyph glyph-name="wdieresis" unicode="&#x1e85;" horiz-adv-x="1568" 
d="M784 748l-151 -748h-408l-186 1085h317l82 -735l152 735h387l153 -735l82 735h318l-189 -1085h-405zM733 1581v-340h-338v340h338zM1174 1581v-340h-338v340h338z" />
    <glyph glyph-name="Eszett" unicode="&#x1e9e;" horiz-adv-x="1648" 
d="M623 938l249 395q-58 4 -81 4q-355 0 -355 -256v-1081h-332v1092q0 265 168 398.5t519 133.5q261 0 452 -76v-227l-231 -371l63 -8q269 -35 396.5 -141t127.5 -322v-20q0 -232 -134 -359t-384 -127q-134 0 -228.5 28.5t-161.5 92.5t-98.5 171t-31.5 261v19h332
q0 -152 50.5 -218.5t133.5 -66.5h19q76 0 122 49.5t46 139.5v10q0 89 -58.5 140.5t-187.5 64.5l-395 47v227z" />
    <glyph glyph-name="Ygrave" unicode="&#x1ef2;" horiz-adv-x="1280" 
d="M807 489v-489h-332v489l-459 1108h363l262 -698l260 698h363zM350 1946h338l113 -226h-320z" />
    <glyph glyph-name="ygrave" unicode="&#x1ef3;" horiz-adv-x="1128" 
d="M567 393l205 692h352l-383 -1028l-139 -467h-385l174 467l-381 1028h352zM188 1597h353l186 -376h-319z" />
    <glyph glyph-name="enspace" unicode="&#x2002;" horiz-adv-x="1024" 
 />
    <glyph glyph-name="emspace" unicode="&#x2003;" horiz-adv-x="2048" 
 />
    <glyph glyph-name="threeperemspace" unicode="&#x2004;" horiz-adv-x="681" 
 />
    <glyph glyph-name="fourperemspace" unicode="&#x2005;" horiz-adv-x="512" 
 />
    <glyph glyph-name="sixperemspace" unicode="&#x2006;" horiz-adv-x="342" 
 />
    <glyph glyph-name="figurespace" unicode="&#x2007;" horiz-adv-x="1228" 
 />
    <glyph glyph-name="punctuationspace" unicode="&#x2008;" horiz-adv-x="368" 
 />
    <glyph glyph-name="thinspace" unicode="&#x2009;" horiz-adv-x="307" 
 />
    <glyph glyph-name="hairspace" unicode="&#x200a;" horiz-adv-x="102" 
 />
    <glyph glyph-name="zerowidthspace" unicode="&#x200b;" horiz-adv-x="0" 
 />
    <glyph glyph-name="figuredash" unicode="&#x2012;" horiz-adv-x="1228" 
d="M82 575v283h1065v-283h-1065z" />
    <glyph glyph-name="endash" unicode="&#x2013;" horiz-adv-x="1024" 
d="M82 575v283h860v-283h-860z" />
    <glyph glyph-name="emdash" unicode="&#x2014;" horiz-adv-x="2048" 
d="M82 575v283h1884v-283h-1884z" />
    <glyph glyph-name="uni2015" unicode="&#x2015;" horiz-adv-x="2457" 
d="M82 575v283h2294v-283h-2294z" />
    <glyph glyph-name="doublebar" unicode="&#x2016;" horiz-adv-x="940" 
d="M111 -246v1966h315v-1966h-315zM514 -246v1966h315v-1966h-315z" />
    <glyph glyph-name="quoteleft" unicode="&#x2018;" horiz-adv-x="544" 
d="M102 1016v270q0 180 89 272.5t262 92.5v-162q-155 0 -185 -131h174v-342h-340z" />
    <glyph glyph-name="quoteright" unicode="&#x2019;" horiz-adv-x="544" 
d="M442 1597v-270q0 -180 -88.5 -272t-261.5 -92v161q152 0 182 131h-172v342h340z" />
    <glyph glyph-name="quotesinglbase" unicode="&#x201a;" horiz-adv-x="544" 
d="M442 342v-270q0 -180 -88.5 -272.5t-261.5 -92.5v162q152 0 182 131h-172v342h340z" />
    <glyph glyph-name="reversequoteleft" unicode="&#x201b;" horiz-adv-x="544" 
d="M102 1597h340v-342h-174q30 -131 185 -131v-161q-173 0 -262 92t-89 272v270z" />
    <glyph glyph-name="quotedblleft" unicode="&#x201c;" horiz-adv-x="995" 
d="M102 1016v270q0 180 89 272.5t262 92.5v-162q-155 0 -185 -131h174v-342h-340zM553 1016v270q0 180 88.5 272.5t261.5 92.5v-162q-154 0 -184 -131h174v-342h-340z" />
    <glyph glyph-name="quotedblright" unicode="&#x201d;" horiz-adv-x="995" 
d="M442 1597v-270q0 -180 -88.5 -272t-261.5 -92v161q152 0 182 131h-172v342h340zM893 1597v-270q0 -180 -88.5 -272t-261.5 -92v161q152 0 182 131h-172v342h340z" />
    <glyph glyph-name="quotedblbase" unicode="&#x201e;" horiz-adv-x="995" 
d="M442 342v-270q0 -180 -88.5 -272.5t-261.5 -92.5v162q152 0 182 131h-172v342h340zM893 342v-270q0 -180 -88.5 -272.5t-261.5 -92.5v162q152 0 182 131h-172v342h340z" />
    <glyph glyph-name="reversequotedblleft" unicode="&#x201f;" horiz-adv-x="995" 
d="M102 1597h340v-342h-174q30 -131 185 -131v-161q-173 0 -262 92t-89 272v270zM553 1597h340v-342h-174q30 -131 184 -131v-161q-173 0 -261.5 92t-88.5 272v270z" />
    <glyph glyph-name="dagger" unicode="&#x2020;" horiz-adv-x="845" 
d="M332 895l10 264h162l10 -264l-10 -266h-162zM332 1638h182l-10 -274h-162zM49 1171v181l270 -11v-159zM795 1352v-181l-269 11v159z" />
    <glyph glyph-name="daggerdbl" unicode="&#x2021;" horiz-adv-x="845" 
d="M332 414l10 264h162l10 -264l-10 -264h-162zM332 1638h182l-10 -274h-162zM332 1022l10 137h162l10 -137l-10 -137h-162zM49 690v182l270 -10v-162zM795 872v-182l-269 10v162zM49 1171v181l270 -11v-159zM795 1352v-181l-269 11v159z" />
    <glyph glyph-name="bullet" unicode="&#x2022;" horiz-adv-x="911" 
d="M784 1047v-660h-657v660h657z" />
    <glyph glyph-name="ellipsis" unicode="&#x2026;" horiz-adv-x="2048" 
d="M539 342v-342h-340v342h340zM1194 342v-342h-340v342h340zM1849 342v-342h-340v342h340z" />
    <glyph glyph-name="perthousand" unicode="&#x2030;" horiz-adv-x="2869" 
d="M1178 383q0 183 107.5 285t281.5 102q172 0 279.5 -102t107.5 -285v-25q0 -183 -107.5 -284t-279.5 -101q-174 0 -281.5 101t-107.5 284v25zM2038 383q0 183 107.5 285t281.5 102q172 0 279.5 -102t107.5 -285v-25q0 -183 -107.5 -284t-279.5 -101q-174 0 -281.5 101
t-107.5 284v25zM1417 358q0 -65 40 -105t104 -40h12q64 0 102.5 40t38.5 105v27q0 65 -38.5 104t-102.5 39h-12q-65 0 -104.5 -39.5t-39.5 -103.5v-27zM2277 358q0 -65 40 -105t104 -40h12q64 0 102.5 40t38.5 105v27q0 65 -38.5 104t-102.5 39h-12q-65 0 -104.5 -39.5
t-39.5 -103.5v-27zM592 1239q0 65 -38.5 105t-102.5 40h-13q-64 0 -103.5 -40t-39.5 -105v-27q0 -64 39.5 -103.5t103.5 -39.5h13q64 0 102.5 39t38.5 104v27zM606 1595q88 -32 169.5 -44.5t209.5 -12.5q121 0 244.5 22t187.5 44v-154l-604 -1450h-283l541 1296
q-77 -16 -145 -16q-50 0 -97 6q0 -7 1 -23t1 -24v-25q0 -183 -107.5 -285t-279.5 -102q-174 0 -281.5 102t-107.5 285v25q0 183 107.5 284t281.5 101q83 0 162 -29z" />
    <glyph glyph-name="tripleprime" unicode="&#x2034;" horiz-adv-x="1286" 
d="M872 1597h318l-51 -661h-250zM96 1597h318l-19 -661h-248zM502 1597h282l-16 -661h-250z" />
    <glyph glyph-name="guilsinglleft" unicode="&#x2039;" horiz-adv-x="647" 
d="M545 1153v-285l-223 -172l223 -172v-284l-443 301v311z" />
    <glyph glyph-name="guilsinglright" unicode="&#x203a;" horiz-adv-x="647" 
d="M102 868v285l443 -301v-311l-443 -301v284l224 172z" />
    <glyph glyph-name="interrobang" unicode="&#x203d;" horiz-adv-x="1017" 
d="M614 467h-176l-18 852q-45 -26 -64.5 -88.5t-19.5 -173.5h-293v37q0 267 109 398.5t366 131.5q104 0 186 -23.5t133 -62t84.5 -93t46.5 -111.5t13 -122q0 -84 -18.5 -150t-49 -110.5t-67.5 -83t-75.5 -76t-71 -79.5t-56 -105t-29.5 -141zM692 342v-342h-340v342h340z
M672 1178q0 106 -76 145l-6 -358q31 54 42.5 76.5t25.5 62.5t14 74z" />
    <glyph glyph-name="fraction" unicode="&#x2044;" horiz-adv-x="409" 
d="M-248 0h-274l1179 1597h275z" />
    <glyph glyph-name="uni2070" unicode="&#x2070;" 
d="M588 1012q0 -106 -76 -173t-205 -67q-128 0 -204 67t-76 173v372q0 106 76 173t204 67q129 0 205 -67t76 -173v-372zM272 1016q0 -12 9 -21.5t22 -9.5h8q13 0 22 9.5t9 21.5v364q0 12 -9 21.5t-22 9.5h-8q-13 0 -22 -9.5t-9 -21.5v-364z" />
    <glyph glyph-name="uni2074" unicode="&#x2074;" 
d="M526 799h-245v139h-261v188l259 471h247v-446h66v-213h-66v-139zM281 1268l-64 -117h64v117z" />
    <glyph glyph-name="uni2075" unicode="&#x2075;" 
d="M23 1055h245q0 -36 10 -53t23 -17h8q15 0 26 16.5t11 45.5v10q0 61 -49 61h-2q-27 0 -49 -22l-213 71l18 430h524v-213h-321l-4 -79q51 14 94 14q119 0 182.5 -70t63.5 -186v-25q0 -129 -75 -197.5t-208 -68.5q-130 0 -207 72t-77 194v17z" />
    <glyph glyph-name="uni2076" unicode="&#x2076;" 
d="M569 1624v-213q-171 0 -243 -72q-22 -22 -37 -63q46 27 92 27q95 0 152 -67t57 -185v-11q0 -120 -71.5 -194t-213.5 -74q-71 0 -126.5 26t-88.5 70.5t-50 101.5t-17 122v18q0 217 116 363q67 83 172 117t258 34zM303 1092q-19 0 -35 -23v-4q0 -29 6 -48t13.5 -25.5
t15.5 -6.5h8q12 0 23.5 14t11.5 37v11q0 21 -11.5 33t-23.5 12h-8z" />
    <glyph glyph-name="uni2077" unicode="&#x2077;" 
d="M16 1311v286h582v-151l-262 -647h-262l254 585h-99v-73h-213z" />
    <glyph glyph-name="uni2078" unicode="&#x2078;" 
d="M307 772q-129 0 -205.5 65.5t-76.5 170.5v22q0 118 100 176q-92 58 -92 174v21q0 25 7 52.5t26 58.5t48.5 55.5t79.5 40.5t113 16t113 -16t79.5 -40.5t49 -55.5t26.5 -58.5t7 -52.5v-21q0 -115 -93 -174q101 -59 101 -176v-22q0 -105 -77 -170.5t-206 -65.5zM303 1100
q-35 0 -35 -56v-8q0 -55 35 -55h8q35 0 35 55v8q0 56 -35 56h-8zM309 1313q27 0 27 47v8q0 47 -27 47h-4q-26 0 -26 -47v-8q0 -47 26 -47h4z" />
    <glyph glyph-name="uni2079" unicode="&#x2079;" 
d="M45 772v213q172 0 244 72q22 22 37 63q-44 -26 -93 -26q-95 0 -151.5 67t-56.5 185v10q0 120 71 194t213 74q140 0 211.5 -91t71.5 -228v-19q0 -214 -117 -362q-67 -84 -172.5 -118t-257.5 -34zM303 1305h8q19 0 35 22v4q0 29 -6 48t-13.5 25.5t-15.5 6.5h-8
q-12 0 -23.5 -14t-11.5 -37v-10q0 -21 11.5 -33t23.5 -12z" />
    <glyph glyph-name="uni207A" unicode="&#x207a;" 
d="M201 1468h213v-163h164v-213h-164v-164h-213v164h-164v213h164v163z" />
    <glyph glyph-name="uni207B" unicode="&#x207b;" 
d="M37 1092v213h541v-213h-541z" />
    <glyph glyph-name="uni207C" unicode="&#x207c;" 
d="M37 1217v213h541v-213h-541zM37 967v213h541v-213h-541z" />
    <glyph glyph-name="uni207D" unicode="&#x207d;" horiz-adv-x="419" 
d="M31 1188v20q0 258 121 389h251q-129 -187 -129 -389v-20q0 -202 129 -389h-251q-121 127 -121 389z" />
    <glyph glyph-name="uni207E" unicode="&#x207e;" horiz-adv-x="419" 
d="M387 1208v-20q0 -262 -121 -389h-250q127 184 127 389v20q0 205 -127 389h250q121 -131 121 -389z" />
    <glyph glyph-name="uni2080" unicode="&#x2080;" 
d="M588 213q0 -106 -76 -173t-205 -67q-128 0 -204 67t-76 173v373q0 106 75.5 172.5t204.5 66.5t205 -66.5t76 -172.5v-373zM272 217q0 -12 9 -21.5t22 -9.5h8q13 0 22 9.5t9 21.5v365q0 12 -9 21t-22 9h-8q-13 0 -22 -9t-9 -21v-365z" />
    <glyph glyph-name="uni2081" unicode="&#x2081;" 
d="M594 0h-539v211h148v291l-72 -47l-121 174l254 172h185v-590h145v-211z" />
    <glyph glyph-name="uni2082" unicode="&#x2082;" 
d="M582 211v-211h-555v156l282 313q27 30 27 66v22q0 20 -7.5 37.5t-21.5 17.5h-6q-29 0 -29 -80h-245v31q0 46 12.5 88.5t41.5 83.5t86.5 65.5t137.5 24.5q64 0 114 -16.5t80 -42t49.5 -58.5t26.5 -62.5t7 -57.5v-37q0 -61 -20 -102t-68 -97l-127 -141h215z" />
    <glyph glyph-name="uni2083" unicode="&#x2083;" 
d="M268 256q0 -36 12 -53t25 -17h6q12 0 23.5 17t11.5 45v10q0 51 -39 51h-102v197h100q31 0 31 51v4q0 15 -8 33t-21 18h-6q-29 0 -29 -80h-245v19q0 40 7 76t26.5 73t49.5 64t80 44t115 17q64 0 114.5 -16t80 -40.5t49 -55.5t26.5 -58.5t7 -52.5v-20q0 -120 -99 -174
q107 -60 107 -179v-20q0 -105 -77 -170.5t-206 -65.5q-130 0 -207 72.5t-77 194.5v16h245z" />
    <glyph glyph-name="uni2084" unicode="&#x2084;" 
d="M526 0h-245v139h-261v189l259 471h247v-447h66v-213h-66v-139zM281 469l-64 -117h64v117z" />
    <glyph glyph-name="uni2085" unicode="&#x2085;" 
d="M23 256h245q0 -36 10 -53t23 -17h8q15 0 26 16.5t11 45.5v10q0 61 -49 61h-2q-27 0 -49 -22l-213 72l18 430h524v-213h-321l-4 -80q51 14 94 14q119 0 182.5 -70t63.5 -186v-24q0 -129 -75.5 -198t-207.5 -69q-130 0 -207 72.5t-77 194.5v16z" />
    <glyph glyph-name="uni2086" unicode="&#x2086;" 
d="M569 825v-213q-172 0 -243 -71q-21 -21 -37 -64q46 27 92 27q95 0 152 -67t57 -185v-10q0 -120 -71.5 -194.5t-213.5 -74.5q-71 0 -126.5 26t-88.5 70.5t-50 101.5t-17 122v18q0 217 116 363q67 83 172 117t258 34zM303 293q-19 0 -35 -23v-4q0 -29 6 -48t13.5 -25.5
t15.5 -6.5h8q12 0 23.5 14.5t11.5 37.5v10q0 21 -11.5 33t-23.5 12h-8z" />
    <glyph glyph-name="uni2087" unicode="&#x2087;" 
d="M16 512v287h582v-152l-262 -647h-262l254 586h-99v-74h-213z" />
    <glyph glyph-name="uni2088" unicode="&#x2088;" 
d="M307 -27q-129 0 -205.5 65.5t-76.5 170.5v22q0 62 28 106.5t72 70.5q-92 58 -92 174v20q0 25 7 52.5t26 58.5t48.5 55.5t79.5 40.5t113 16t113 -16t79.5 -40.5t49 -55.5t26.5 -58.5t7 -52.5v-20q0 -115 -93 -174q101 -59 101 -177v-22q0 -105 -77 -170.5t-206 -65.5z
M303 301q-35 0 -35 -55v-8q0 -56 35 -56h8q35 0 35 56v8q0 55 -35 55h-8zM309 514q27 0 27 47v8q0 47 -27 47h-4q-26 0 -26 -47v-8q0 -47 26 -47h4z" />
    <glyph glyph-name="uni2089" unicode="&#x2089;" 
d="M45 -27v213q172 0 244 72q21 21 37 64q-46 -27 -93 -27q-95 0 -151.5 67t-56.5 185v10q0 120 71 194t213 74q140 0 211.5 -91t71.5 -228v-19q0 -214 -117 -362q-67 -84 -172.5 -118t-257.5 -34zM303 506h8q19 0 35 22v4q0 29 -6 48t-13.5 25.5t-15.5 6.5h-8
q-12 0 -23.5 -14t-11.5 -37v-10q0 -21 11.5 -33t23.5 -12z" />
    <glyph glyph-name="uni208A" unicode="&#x208a;" 
d="M201 670h213v-164h164v-213h-164v-164h-213v164h-164v213h164v164z" />
    <glyph glyph-name="uni208B" unicode="&#x208b;" 
d="M37 293v213h541v-213h-541z" />
    <glyph glyph-name="uni208C" unicode="&#x208c;" 
d="M37 418v213h541v-213h-541zM37 168v213h541v-213h-541z" />
    <glyph glyph-name="uni208D" unicode="&#x208d;" horiz-adv-x="419" 
d="M31 389v21q0 258 121 389h251q-129 -187 -129 -389v-21q0 -202 129 -389h-251q-121 127 -121 389z" />
    <glyph glyph-name="uni208E" unicode="&#x208e;" horiz-adv-x="419" 
d="M387 410v-21q0 -262 -121 -389h-250q127 184 127 389v21q0 205 -127 389h250q121 -131 121 -389z" />
    <glyph glyph-name="Euro" unicode="&#x20ac;" horiz-adv-x="1228" 
d="M199 633h-136v289h134q12 365 137.5 533.5t372.5 168.5q233 0 338.5 -124.5t105.5 -399.5v-76h-283q0 165 -33 238t-110 73h-18q-84 0 -124 -103.5t-46 -309.5h415l-141 -289h-272q9 -186 49 -278.5t119 -92.5h18q143 0 143 250h283v-18q0 -272 -105.5 -396.5
t-338.5 -124.5q-238 0 -364 159t-144 501z" />
    <glyph glyph-name="ruble" unicode="&#x20bd;" horiz-adv-x="1228" 
d="M510 573v-77h383v-289h-383v-207h-332v207h-143v289h143v77h-143v287h143v737h426q87 0 158.5 -10t148 -41.5t129 -83.5t86 -143t33.5 -213v-41q0 -89 -17.5 -161.5t-46.5 -122.5t-73 -88t-90.5 -60.5t-104.5 -36.5t-110 -18.5t-113 -4.5h-94zM510 860h108q38 0 70.5 9
t65 30.5t51 66.5t18.5 109v21q0 64 -18.5 109t-51 66.5t-65 30.5t-70.5 9h-108v-451z" />
    <glyph glyph-name="numero" unicode="&#x2116;" horiz-adv-x="2306" 
d="M1284 1597v-1597h-350l-516 991l10 -321v-670h-313v1597h350l514 -991l-10 322v669h315zM2243 1167q0 -183 -98.5 -289t-293.5 -106t-292 105.5t-97 289.5v62q0 185 97 291t292 106t293.5 -106t98.5 -291v-62zM1481 371v243h743v-243h-743zM1743 1167q0 -153 108 -153
q111 0 111 153v62q0 155 -111 155q-108 0 -108 -155v-62z" />
    <glyph glyph-name="published" unicode="&#x2117;" horiz-adv-x="1884" 
d="M117 799q0 168 65 321t175.5 263.5t263.5 175.5t321 65t321 -65t263.5 -175.5t175.5 -263.5t65 -321t-65 -321t-175.5 -263.5t-263.5 -176t-321 -65.5t-321 65.5t-263.5 176t-175.5 263.5t-65 321zM231 799q0 -145 56.5 -276.5t151.5 -226.5t226.5 -151.5t276.5 -56.5
t276.5 56.5t226.5 151.5t151.5 226.5t56.5 276.5q0 193 -95 356.5t-259 258.5t-357 95t-357 -95t-259 -258.5t-95 -356.5zM848 629v-312h-287v963h498q51 0 96 -7.5t90.5 -29t77.5 -55.5t52 -90.5t20 -130.5v-25q0 -74 -20 -130.5t-52 -90.5t-77.5 -55.5t-90.5 -29t-96 -7.5
h-211zM848 842h145q111 0 111 106v13q0 106 -111 106h-145v-225z" />
    <glyph glyph-name="servicemark" unicode="&#x2120;" horiz-adv-x="1144" 
d="M211 1307q-95 12 -137.5 49.5t-42.5 118.5v8q0 80 51.5 127t150.5 47q105 0 154 -50.5t49 -154.5v-14h-129q0 54 -17 78t-57 24h-8q-28 0 -44.5 -14.5t-16.5 -36.5v-4q0 -29 20.5 -43.5t71.5 -22.5q96 -12 140 -50t44 -118v-10q0 -83 -53.5 -129.5t-153.5 -46.5
q-206 0 -206 207v4h129q0 -96 77 -96h7q33 0 49 16.5t16 40.5v4q0 30 -20 44.5t-74 21.5zM930 1415l-84 -330h-139l-84 330l4 -123v-207h-131v553h194l86 -325l84 325h197v-553h-131v207z" />
    <glyph glyph-name="trademark" unicode="&#x2122;" horiz-adv-x="1144" 
d="M301 1524v-439h-131v439h-135v114h403v-114h-137zM930 1415l-84 -330h-139l-84 330l4 -123v-207h-131v553h194l86 -325l84 325h197v-553h-131v207z" />
    <glyph glyph-name="uni2153" unicode="&#x2153;" horiz-adv-x="1638" 
d="M367 0h-275l1180 1597h274zM1292 256q0 -36 12 -53t25 -17h6q12 0 23.5 17t11.5 45v10q0 51 -39 51h-102v197h100q31 0 31 51v4q0 15 -8 33t-21 18h-6q-29 0 -29 -80h-245v19q0 40 7 76t26.5 73t49.5 64t80 44t115 17q64 0 114.5 -16t80 -40.5t49 -55.5t26.5 -58.5
t7 -52.5v-20q0 -120 -99 -174q107 -60 107 -179v-20q0 -105 -77 -170.5t-206 -65.5q-130 0 -207 72.5t-77 194.5v16h245zM594 799h-539v211h148v290l-72 -47l-121 174l254 172h185v-589h145v-211z" />
    <glyph glyph-name="uni2154" unicode="&#x2154;" horiz-adv-x="1638" 
d="M367 0h-275l1180 1597h274zM1292 256q0 -36 12 -53t25 -17h6q12 0 23.5 17t11.5 45v10q0 51 -39 51h-102v197h100q31 0 31 51v4q0 15 -8 33t-21 18h-6q-29 0 -29 -80h-245v19q0 40 7 76t26.5 73t49.5 64t80 44t115 17q64 0 114.5 -16t80 -40.5t49 -55.5t26.5 -58.5
t7 -52.5v-20q0 -120 -99 -174q107 -60 107 -179v-20q0 -105 -77 -170.5t-206 -65.5q-130 0 -207 72.5t-77 194.5v16h245zM582 1010v-211h-555v155l282 314q27 30 27 65v23q0 20 -7.5 37.5t-21.5 17.5h-6q-29 0 -29 -80h-245v31q0 46 12.5 88.5t41.5 83.5t86.5 65.5
t137.5 24.5q79 0 136.5 -24.5t86.5 -63t41.5 -76t12.5 -74.5v-36q0 -61 -20 -102t-68 -97l-127 -141h215z" />
    <glyph glyph-name="uni2155" unicode="&#x2155;" horiz-adv-x="1638" 
d="M367 0h-275l1180 1597h274zM1047 256h245q0 -36 10 -53t23 -17h8q15 0 26 16.5t11 45.5v10q0 61 -49 61h-2q-27 0 -49 -22l-213 72l18 430h524v-213h-321l-4 -80q51 14 94 14q119 0 182.5 -70t63.5 -186v-24q0 -129 -75.5 -198t-207.5 -69q-130 0 -207 72.5t-77 194.5v16
zM594 799h-539v211h148v290l-72 -47l-121 174l254 172h185v-589h145v-211z" />
    <glyph glyph-name="uni2156" unicode="&#x2156;" horiz-adv-x="1638" 
d="M367 0h-275l1180 1597h274zM1047 256h245q0 -36 10 -53t23 -17h8q15 0 26 16.5t11 45.5v10q0 61 -49 61h-2q-27 0 -49 -22l-213 72l18 430h524v-213h-321l-4 -80q51 14 94 14q119 0 182.5 -70t63.5 -186v-24q0 -129 -75.5 -198t-207.5 -69q-130 0 -207 72.5t-77 194.5v16
zM582 1010v-211h-555v155l282 314q27 30 27 65v23q0 20 -7.5 37.5t-21.5 17.5h-6q-29 0 -29 -80h-245v31q0 46 12.5 88.5t41.5 83.5t86.5 65.5t137.5 24.5q79 0 136.5 -24.5t86.5 -63t41.5 -76t12.5 -74.5v-36q0 -61 -20 -102t-68 -97l-127 -141h215z" />
    <glyph glyph-name="uni2157" unicode="&#x2157;" horiz-adv-x="1638" 
d="M367 0h-275l1180 1597h274zM1047 256h245q0 -36 10 -53t23 -17h8q15 0 26 16.5t11 45.5v10q0 61 -49 61h-2q-27 0 -49 -22l-213 72l18 430h524v-213h-321l-4 -80q51 14 94 14q119 0 182.5 -70t63.5 -186v-24q0 -129 -75.5 -198t-207.5 -69q-130 0 -207 72.5t-77 194.5v16
zM268 1055q0 -36 12 -53t25 -17h6q12 0 23.5 17t11.5 45v10q0 51 -39 51h-102v197h100q31 0 31 51v4q0 15 -8 33t-21 18h-6q-29 0 -29 -80h-245v19q0 40 7 76t26.5 73t49.5 64t80 44t115 17q64 0 114.5 -16t80 -40.5t49 -55.5t26.5 -58.5t7 -52.5v-21q0 -120 -99 -174
q107 -60 107 -178v-20q0 -105 -77 -170.5t-206 -65.5q-130 0 -207 72t-77 194v17h245z" />
    <glyph glyph-name="uni2158" unicode="&#x2158;" horiz-adv-x="1638" 
d="M367 0h-275l1180 1597h274zM1047 256h245q0 -36 10 -53t23 -17h8q15 0 26 16.5t11 45.5v10q0 61 -49 61h-2q-27 0 -49 -22l-213 72l18 430h524v-213h-321l-4 -80q51 14 94 14q119 0 182.5 -70t63.5 -186v-24q0 -129 -75.5 -198t-207.5 -69q-130 0 -207 72.5t-77 194.5v16
zM526 799h-245v139h-261v188l259 471h247v-446h66v-213h-66v-139zM281 1268l-64 -117h64v117z" />
    <glyph glyph-name="uni2159" unicode="&#x2159;" horiz-adv-x="1638" 
d="M367 0h-275l1180 1597h274zM1593 825v-213q-172 0 -243 -71q-21 -21 -37 -64q46 27 92 27q95 0 152 -67t57 -185v-10q0 -120 -71.5 -194.5t-213.5 -74.5q-71 0 -126.5 26t-88.5 70.5t-50 101.5t-17 122v18q0 217 116 363q67 83 172 117t258 34zM594 799h-539v211h148v290
l-72 -47l-121 174l254 172h185v-589h145v-211zM1327 293q-19 0 -35 -23v-4q0 -29 6 -48t13.5 -25.5t15.5 -6.5h8q12 0 23.5 14.5t11.5 37.5v10q0 21 -11.5 33t-23.5 12h-8z" />
    <glyph glyph-name="uni215A" unicode="&#x215a;" horiz-adv-x="1638" 
d="M367 0h-275l1180 1597h274zM23 1055h245q0 -36 10 -53t23 -17h8q15 0 26 16.5t11 45.5v10q0 61 -49 61h-2q-27 0 -49 -22l-213 71l18 430h524v-213h-321l-4 -79q51 14 94 14q119 0 182.5 -70t63.5 -186v-25q0 -129 -75 -197.5t-208 -68.5q-130 0 -207 72t-77 194v17z
M1593 825v-213q-172 0 -243 -71q-21 -21 -37 -64q46 27 92 27q95 0 152 -67t57 -185v-10q0 -120 -71.5 -194.5t-213.5 -74.5q-71 0 -126.5 26t-88.5 70.5t-50 101.5t-17 122v18q0 217 116 363q67 83 172 117t258 34zM1327 293q-19 0 -35 -23v-4q0 -29 6 -48t13.5 -25.5
t15.5 -6.5h8q12 0 23.5 14.5t11.5 37.5v10q0 21 -11.5 33t-23.5 12h-8z" />
    <glyph glyph-name="uni215B" unicode="&#x215b;" horiz-adv-x="1638" 
d="M367 0h-275l1180 1597h274zM1331 -27q-129 0 -205.5 65.5t-76.5 170.5v22q0 62 28 106.5t72 70.5q-92 58 -92 174v20q0 25 7 52.5t26 58.5t48.5 55.5t79.5 40.5t113 16t113 -16t79.5 -40.5t49 -55.5t26.5 -58.5t7 -52.5v-20q0 -115 -93 -174q101 -59 101 -177v-22
q0 -105 -77 -170.5t-206 -65.5zM594 799h-539v211h148v290l-72 -47l-121 174l254 172h185v-589h145v-211zM1327 301q-35 0 -35 -55v-8q0 -56 35 -56h8q35 0 35 56v8q0 55 -35 55h-8zM1333 514q27 0 27 47v8q0 47 -27 47h-4q-26 0 -26 -47v-8q0 -47 26 -47h4z" />
    <glyph glyph-name="uni215C" unicode="&#x215c;" horiz-adv-x="1638" 
d="M367 0h-275l1180 1597h274zM1331 -27q-129 0 -205.5 65.5t-76.5 170.5v22q0 62 28 106.5t72 70.5q-92 58 -92 174v20q0 25 7 52.5t26 58.5t48.5 55.5t79.5 40.5t113 16t113 -16t79.5 -40.5t49 -55.5t26.5 -58.5t7 -52.5v-20q0 -115 -93 -174q101 -59 101 -177v-22
q0 -105 -77 -170.5t-206 -65.5zM268 1055q0 -36 12 -53t25 -17h6q12 0 23.5 17t11.5 45v10q0 51 -39 51h-102v197h100q31 0 31 51v4q0 15 -8 33t-21 18h-6q-29 0 -29 -80h-245v19q0 40 7 76t26.5 73t49.5 64t80 44t115 17q64 0 114.5 -16t80 -40.5t49 -55.5t26.5 -58.5
t7 -52.5v-21q0 -120 -99 -174q107 -60 107 -178v-20q0 -105 -77 -170.5t-206 -65.5q-130 0 -207 72t-77 194v17h245zM1327 301q-35 0 -35 -55v-8q0 -56 35 -56h8q35 0 35 56v8q0 55 -35 55h-8zM1333 514q27 0 27 47v8q0 47 -27 47h-4q-26 0 -26 -47v-8q0 -47 26 -47h4z" />
    <glyph glyph-name="uni215D" unicode="&#x215d;" horiz-adv-x="1638" 
d="M367 0h-275l1180 1597h274zM1331 -27q-129 0 -205.5 65.5t-76.5 170.5v22q0 62 28 106.5t72 70.5q-92 58 -92 174v20q0 25 7 52.5t26 58.5t48.5 55.5t79.5 40.5t113 16t113 -16t79.5 -40.5t49 -55.5t26.5 -58.5t7 -52.5v-20q0 -115 -93 -174q101 -59 101 -177v-22
q0 -105 -77 -170.5t-206 -65.5zM23 1055h245q0 -36 10 -53t23 -17h8q15 0 26 16.5t11 45.5v10q0 61 -49 61h-2q-27 0 -49 -22l-213 71l18 430h524v-213h-321l-4 -79q51 14 94 14q119 0 182.5 -70t63.5 -186v-25q0 -129 -75 -197.5t-208 -68.5q-130 0 -207 72t-77 194v17z
M1327 301q-35 0 -35 -55v-8q0 -56 35 -56h8q35 0 35 56v8q0 55 -35 55h-8zM1333 514q27 0 27 47v8q0 47 -27 47h-4q-26 0 -26 -47v-8q0 -47 26 -47h4z" />
    <glyph glyph-name="uni215E" unicode="&#x215e;" horiz-adv-x="1638" 
d="M367 0h-275l1180 1597h274zM1331 -27q-129 0 -205.5 65.5t-76.5 170.5v22q0 62 28 106.5t72 70.5q-92 58 -92 174v20q0 25 7 52.5t26 58.5t48.5 55.5t79.5 40.5t113 16t113 -16t79.5 -40.5t49 -55.5t26.5 -58.5t7 -52.5v-20q0 -115 -93 -174q101 -59 101 -177v-22
q0 -105 -77 -170.5t-206 -65.5zM16 1311v286h582v-151l-262 -647h-262l254 585h-99v-73h-213zM1327 301q-35 0 -35 -55v-8q0 -56 35 -56h8q35 0 35 56v8q0 55 -35 55h-8zM1333 514q27 0 27 47v8q0 47 -27 47h-4q-26 0 -26 -47v-8q0 -47 26 -47h4z" />
    <glyph glyph-name="uni215F" unicode="&#x215f;" horiz-adv-x="1024" 
d="M367 0h-275l1180 1597h274zM594 799h-539v211h148v290l-72 -47l-121 174l254 172h185v-589h145v-211z" />
    <glyph glyph-name="arrowleft" unicode="&#x2190;" horiz-adv-x="1884" 
d="M915 1597h406l-655 -655h1075v-287h-1075l655 -655h-406l-798 799z" />
    <glyph glyph-name="arrowup" unicode="&#x2191;" horiz-adv-x="1884" 
d="M143 420v405l799 799l799 -799v-405l-656 655v-1075h-286v1075z" />
    <glyph glyph-name="arrowright" unicode="&#x2192;" horiz-adv-x="1884" 
d="M563 1597h406l798 -798l-798 -799h-406l656 655h-1076v287h1076z" />
    <glyph glyph-name="arrowdown" unicode="&#x2193;" horiz-adv-x="1884" 
d="M143 772v406l656 -656v1075h286v-1075l656 656v-406l-799 -799z" />
    <glyph glyph-name="uni2196" unicode="&#x2196;" horiz-adv-x="1884" 
d="M432 0h-289v1597h1598v-288h-1106l1134 -1133l-204 -205l-1133 1135v-1106z" />
    <glyph glyph-name="uni2197" unicode="&#x2197;" horiz-adv-x="1884" 
d="M143 1309v288h1598v-1597h-289v1106l-1133 -1135l-204 205l1134 1133h-1106z" />
    <glyph glyph-name="uni2198" unicode="&#x2198;" horiz-adv-x="1884" 
d="M143 0v289h1106l-1134 1132l204 205l1133 -1134v1105h289v-1597h-1598z" />
    <glyph glyph-name="uni2199" unicode="&#x2199;" horiz-adv-x="1884" 
d="M1741 289v-289h-1598v1597h289v-1105l1133 1134l204 -205l-1134 -1132h1106z" />
    <glyph glyph-name="minus" unicode="&#x2212;" horiz-adv-x="1228" 
d="M86 655v287h1057v-287h-1057z" />
    <glyph glyph-name="approxequal" unicode="&#x2248;" horiz-adv-x="1228" 
d="M377 766q72 0 141 -21t114.5 -46.5t102 -46.5t105.5 -21q95 0 180 100l151 -151q-55 -86 -136 -140.5t-183 -54.5q-72 0 -141 21t-114.5 45.5t-102 45.5t-105.5 21q-97 0 -180 -98l-152 151q55 86 136.5 140.5t183.5 54.5zM377 1208q72 0 141 -21t114.5 -45.5t102 -45.5
t105.5 -21q96 0 180 99l151 -152q-55 -86 -136 -140.5t-183 -54.5q-72 0 -141 21t-114.5 46t-102 46t-105.5 21q-96 0 -180 -99l-152 152q54 86 136 140t184 54z" />
    <glyph glyph-name="notequal" unicode="&#x2260;" horiz-adv-x="1228" 
d="M86 877v288h625l123 213h225l-123 -213h207v-288h-373l-88 -156h461v-289h-627l-121 -213h-225l121 213h-205v289h371l88 156h-459z" />
    <glyph glyph-name="equivalence" unicode="&#x2261;" horiz-adv-x="1228" 
d="M86 1098v288h1057v-288h-1057zM86 211v289h1057v-289h-1057zM86 655v287h1057v-287h-1057z" />
    <glyph glyph-name="lessequal" unicode="&#x2264;" horiz-adv-x="1228" 
d="M1143 1108l-590 -168l590 -166v-319l-1057 329v314l1057 329v-319zM1143 356v-186l-1057 330v184z" />
    <glyph glyph-name="greaterequal" unicode="&#x2265;" horiz-adv-x="1228" 
d="M86 774l590 166l-590 168v319l1057 -329v-314l-1057 -329v319zM86 170v186l1057 328v-184z" />
    <glyph glyph-name="squaremultiply" unicode="&#x22a0;" horiz-adv-x="1884" 
d="M143 1597h1598v-1597h-1598v1597zM1456 1313h-1028v-1028h1028v1028zM692 344h-205v205l250 250l-250 250v204h205l250 -249l250 249h205v-204l-250 -250l250 -250v-205h-205l-250 250z" />
    <glyph glyph-name="house" unicode="&#x2302;" horiz-adv-x="1740" 
d="M1597 0h-1454v922l727 696l727 -696v-922z" />
    <glyph glyph-name="blacksquare" unicode="&#x25a0;" horiz-adv-x="1884" 
d="M1741 0h-1598v1597h1598v-1597z" />
    <glyph glyph-name="blacksquare" unicode="&#xe740;" horiz-adv-x="1884" 
d="M1741 0h-1598v1597h1598v-1597z" />
    <glyph glyph-name="whitesquare" unicode="&#x25a1;" horiz-adv-x="1884" 
d="M1741 0h-1598v1597h1598v-1597zM1456 1313h-1028v-1028h1028v1028z" />
    <glyph glyph-name="blacksmallsquare" unicode="&#x25aa;" horiz-adv-x="1392" 
d="M1229 0h-1086v1085h1086v-1085z" />
    <glyph glyph-name="whitesmallsquare" unicode="&#x25ab;" horiz-adv-x="1392" 
d="M143 1085h1086v-1085h-1086v1085zM944 801h-516v-516h516v516z" />
    <glyph glyph-name="triagup" unicode="&#x25b2;" horiz-adv-x="1904" 
d="M1110 1624l668 -1624h-320l-506 1264l-506 -1264h-319l668 1624h315z" />
    <glyph glyph-name="triagrt" unicode="&#x25ba;" horiz-adv-x="1904" 
d="M1788 956v-315l-1624 -668v320l1263 506l-1263 506v319z" />
    <glyph glyph-name="triagdn" unicode="&#x25bc;" horiz-adv-x="1904" 
d="M795 -27l-668 1624h319l506 -1265l506 1265h320l-668 -1624h-315z" />
    <glyph glyph-name="triaglf" unicode="&#x25c4;" horiz-adv-x="1904" 
d="M117 956l1624 668v-319l-1266 -506l1266 -506v-320l-1624 668v315z" />
    <glyph glyph-name="whitecircle" unicode="&#x25cb;" horiz-adv-x="1884" 
d="M117 799q0 168 65 321t175.5 263.5t263.5 175.5t321 65t321 -65t263.5 -175.5t175.5 -263.5t65 -321t-65 -321t-175.5 -263.5t-263.5 -176t-321 -65.5t-321 65.5t-263.5 176t-175.5 263.5t-65 321zM401 799q0 -147 72.5 -271.5t197 -197t271.5 -72.5t271.5 72.5t197 197
t72.5 271.5t-72.5 271.5t-197 196.5t-271.5 72t-271.5 -72t-197 -196.5t-72.5 -271.5z" />
    <glyph glyph-name="whitecircle" unicode="&#x25ef;" horiz-adv-x="1884" 
d="M117 799q0 168 65 321t175.5 263.5t263.5 175.5t321 65t321 -65t263.5 -175.5t175.5 -263.5t65 -321t-65 -321t-175.5 -263.5t-263.5 -176t-321 -65.5t-321 65.5t-263.5 176t-175.5 263.5t-65 321zM401 799q0 -147 72.5 -271.5t197 -197t271.5 -72.5t271.5 72.5t197 197
t72.5 271.5t-72.5 271.5t-197 196.5t-271.5 72t-271.5 -72t-197 -196.5t-72.5 -271.5z" />
    <glyph glyph-name="blackcircle" unicode="&#x25cf;" horiz-adv-x="1884" 
d="M117 799q0 168 65 321t175.5 263.5t263.5 175.5t321 65t321 -65t263.5 -175.5t175.5 -263.5t65 -321t-65 -321t-175.5 -263.5t-263.5 -176t-321 -65.5t-321 65.5t-263.5 176t-175.5 263.5t-65 321z" />
    <glyph glyph-name="uni25E2" unicode="&#x25e2;" horiz-adv-x="1904" 
d="M1855 111l-110 -113l-111 -111l-1620 676l224 228l1251 -537l-535 1251l228 226z" />
    <glyph glyph-name="uni25E3" unicode="&#x25e3;" horiz-adv-x="1904" 
d="M160 -2l-111 113l674 1620l227 -226l-536 -1251l1253 537l223 -228l-1620 -676z" />
    <glyph glyph-name="uni25E4" unicode="&#x25e4;" horiz-adv-x="1904" 
d="M49 1491l221 221l1620 -674l-223 -227l-1253 535l536 -1252l-227 -223z" />
    <glyph glyph-name="uni25E5" unicode="&#x25e5;" horiz-adv-x="1904" 
d="M1855 1491l-673 -1620l-228 223l535 1252l-1251 -535l-224 227l1620 674z" />
    <glyph glyph-name="uni2605" unicode="&#x2605;" horiz-adv-x="1802" 
d="M901 369l-532 -389l202 628l-532 387h659l203 627l203 -627h659l-532 -387l203 -628z" />
    <glyph glyph-name="ballotboxwithx" unicode="&#x2612;" horiz-adv-x="1392" 
d="M143 1085h1086v-1085h-1086v1085zM944 801h-516v-516h516v516zM885 344h-398v397h398v-397z" />
    <glyph glyph-name="uni263C" unicode="&#x263c;" horiz-adv-x="1966" 
d="M1067 391l-86 -414l-86 414q0 -80 -59 -135q-17 -16 -61 -45.5t-61.5 -53.5t-17.5 -61q0 -19 6 -37t12 -26l7 -8q-45 13 -69.5 48t-24.5 79q0 61 43 104q41 41 62.5 97t21.5 98l-353 -232l232 352q-53 -53 -135 -53q-19 0 -64.5 8.5t-62.5 8.5q-31 0 -55 -10t-36 -24.5
t-19.5 -29.5t-8.5 -25l-2 -10q-17 31 -17 58q0 59 42.5 100t103.5 41q42 0 89.5 17.5t74.5 35t32 25.5l-413 86l413 86q-80 0 -135 59q-16 18 -37.5 48.5t-34 47t-35.5 30t-52 13.5q-19 0 -37 -6t-26 -12l-9 -6q13 45 48 69.5t79 24.5q61 0 104 -43q41 -41 97 -62.5
t98 -21.5l-232 352l353 -231q-54 54 -54 135q0 19 8.5 64.5t8.5 62.5q0 31 -10 55t-24.5 36t-29 19.5t-24.5 8.5l-10 2q29 16 57 16q59 0 100 -42t41 -103q0 -42 17.5 -89.5t35 -75t25.5 -32.5l86 414l86 -414q0 80 59 135q17 16 61 45.5t61.5 53.5t17.5 61q0 19 -6 37
t-12 26l-7 9q45 -13 69.5 -48t24.5 -79q0 -62 -43 -105q-41 -41 -62.5 -96.5t-21.5 -97.5l353 231l-232 -352q53 53 135 53q19 0 64.5 -8t62.5 -8q31 0 55 10t36 24.5t19.5 29t8.5 24.5l2 10q17 -31 17 -57q0 -59 -42.5 -100t-103.5 -41q-42 0 -89.5 -17.5t-74.5 -35
t-32 -25.5l413 -86l-413 -86q79 0 135 -60q16 -18 37.5 -48.5t34 -47t35.5 -30t52 -13.5q19 0 37 6t26 12l9 7q-13 -45 -48.5 -70t-78.5 -25q-61 0 -104 43q-41 41 -97 62.5t-98 21.5l232 -352l-353 232q54 -54 54 -136q0 -19 -8.5 -64.5t-8.5 -62.5q0 -31 10 -55
t24.5 -35.5t29 -19t24.5 -8.5l10 -2q-31 -17 -57 -17q-59 0 -100 42.5t-41 103.5q0 42 -17.5 89.5t-35 74.5t-25.5 32z" />
    <glyph glyph-name="uni263E" unicode="&#x263e;" horiz-adv-x="1966" 
d="M1278 1491q-181 0 -333.5 -92.5t-241.5 -252t-89 -347.5q0 -141 52.5 -269.5t141.5 -221t212 -147.5t258 -55q99 0 197 31q-218 -157 -492 -157q-167 0 -318.5 65t-261 174.5t-174.5 261t-65 318.5t65 318.5t174.5 261t261 174.5t318.5 65q268 0 492 -158
q-109 31 -197 31z" />
    <glyph glyph-name="spade" unicode="&#x2660;" horiz-adv-x="1843" 
d="M924 1618q66 -99 199 -238t278 -233q60 -39 104 -73t90.5 -79t75.5 -90t47.5 -102t18.5 -119q0 -150 -105 -253t-256 -103q-142 0 -246 93.5t-163 235.5l-6 -2q17 -210 54 -356.5t113 -298.5h-413q76 152 113.5 299t54.5 356l-6 2q-27 -67 -65.5 -124t-89 -104
t-116.5 -74t-139 -27q-151 0 -256 103t-105 253q0 62 18.5 119t47.5 102t75.5 90t90.5 79t104 73q146 95 279 233.5t199 237.5h4z" />
    <glyph glyph-name="club" unicode="&#x2663;" horiz-adv-x="1843" 
d="M715 0q76 152 113.5 299t54.5 356l-6 2q-27 -67 -65.5 -124t-89 -104t-116.5 -74t-139 -27q-151 0 -256 103t-105 253q0 161 99 265t258 104q84 0 172 -47l4 4q-78 118 -78 239q0 154 103.5 261.5t257.5 107.5t257 -107.5t103 -261.5q0 -121 -78 -239l4 -4q88 47 172 47
q159 0 258 -104t99 -265q0 -150 -105 -253t-256 -103q-142 0 -246 93.5t-163 235.5l-6 -2q17 -210 54 -356.5t113 -298.5h-413z" />
    <glyph glyph-name="heart" unicode="&#x2665;" horiz-adv-x="1843" 
d="M924 -20h-4q-59 88 -193.5 259t-284.5 341q-64 73 -114 136.5t-105 148.5t-86 170t-31 161q0 185 107 303.5t285 118.5q92 0 163.5 -25.5t120.5 -73t80.5 -100.5t55.5 -123h8q24 70 55.5 123t80.5 100.5t120.5 73t163.5 25.5q178 0 284.5 -118.5t106.5 -303.5
q0 -76 -31 -161t-86 -170t-105 -148.5t-114 -136.5q-149 -169 -283.5 -340t-193.5 -260z" />
    <glyph glyph-name="diamond" unicode="&#x2666;" horiz-adv-x="1843" 
d="M1673 799q-218 -170 -415 -386t-334 -433h-4q-137 217 -334.5 433t-415.5 386q218 170 415.5 386t334.5 433h4q137 -217 334 -433t415 -386z" />
    <glyph glyph-name="uni267B" unicode="&#x267b;" horiz-adv-x="1966" 
d="M1767 545l2 -4l-196 -342q-41 -60 -60 -77q-44 -38 -120 -38h-117v-100l-232 278l232 277v-101h297q34 0 66.5 11t54.5 27t39.5 31.5t25.5 26.5zM381 250h-4l-197 344q-23 42 -31.5 65.5t-5.5 63t29 82.5l57 100l-86 49l357 64l121 -340l-84 49q-144 -246 -148 -256
q-27 -46 -29 -101.5t10 -87.5zM827 1595v2h396q37 -1 56 -3t46 -11t47 -29t39 -53l57 -100l88 49l-124 -340l-355 64l84 49l-147 256q-27 47 -74 76t-80 35zM410 1225l137 243q21 38 69 64q63 34 131.5 30.5t126.5 -33t80 -69.5l-237 -411zM913 84h-276q-43 0 -90 27
q-45 26 -76 70.5t-42.5 91.5t-9.5 91.5t19 73.5h475v-354zM1651 1079l141 -239q20 -36 20 -90q1 -99 -78 -178.5t-151 -79.5l-237 411z" />
    <glyph glyph-name="uni267C" unicode="&#x267c;" horiz-adv-x="1966" 
d="M598 1321l-106 -188l237 -138l184 320q-17 30 -62 52.5t-98 25.5t-102 -23q-37 -21 -53 -49zM807 1421v-2q4 0 11 -1.5t26.5 -7.5t36.5 -14.5t37.5 -26.5t33.5 -40l115 -199l-66 -38l275 -50l96 265l-67 -39l-45 78q-28 49 -60 62t-86 13h-307zM659 248h215v274h-368
q-13 -22 -15 -57t7.5 -71.5t33.5 -71t58 -54.5q36 -20 69 -20zM467 377h2q-5 10 -10.5 27.5t-5 63t21.5 81.5l115 199l65 -39l-94 264l-276 -49l67 -39l-45 -78q-20 -34 -22.5 -65t4 -48.5t24.5 -50.5zM1563 834l-109 186l-237 -137l184 -320q57 0 118 61.5t60 139.5
q0 42 -16 70zM1546 602l-2 2q-2 -3 -6.5 -8.5t-19.5 -20t-31.5 -25t-42 -19.5t-51.5 -9h-230v78l-180 -215l180 -215v78h90q57 0 85 21.5t55 66.5zM131 799q0 221 108.5 407.5t295 295t407.5 108.5t407.5 -108.5t295 -295t108.5 -407.5t-108.5 -407.5t-295 -295
t-407.5 -108.5t-407.5 108.5t-295 295t-108.5 407.5z" />
    <glyph glyph-name="uni267D" unicode="&#x267d;" horiz-adv-x="1966" 
d="M492 1133l106 188q16 28 53 49q49 26 102 23t98 -25.5t62 -52.5l-184 -320zM807 1419v2h307q54 0 86 -13t60 -62l45 -78l67 39l-96 -265l-275 50l66 38l-115 199q-21 36 -57 58.5t-62 26.5zM874 248h-215q-33 0 -69 20q-34 20 -58 54.5t-33.5 71t-7.5 71.5t15 57h368
v-274zM469 377h-2l-154 266q-18 33 -24.5 50.5t-4 48.5t22.5 65l45 78l-67 39l276 49l94 -264l-65 39l-115 -199q-21 -36 -22.5 -79t7.5 -68zM1454 1020l109 -186q16 -28 16 -70q1 -78 -60 -139.5t-118 -61.5l-184 320zM1544 604l2 -2l-153 -266q-18 -30 -31 -46t-41 -29
t-68 -13h-90v-78l-180 215l180 215v-78h230q42 0 79.5 20.5t54.5 41.5zM123 799q0 167 65 318.5t174.5 261t261 174.5t318.5 65t318.5 -65t261 -174.5t174.5 -261t65 -318.5t-65 -318.5t-174.5 -261t-261 -174.5t-318.5 -65t-318.5 65t-261 174.5t-174.5 261t-65 318.5z
M201 799q0 -202 99 -372.5t269.5 -270t372.5 -99.5t372.5 99.5t269.5 270t99 372.5q0 151 -58.5 288.5t-157.5 236.5t-236.5 157.5t-288.5 58.5t-288.5 -58.5t-236.5 -157.5t-157.5 -236.5t-58.5 -288.5z" />
    <glyph glyph-name="mediumwhitecircle" unicode="&#x26aa;" horiz-adv-x="1372" 
d="M117 543q0 155 76 286t207 207t286 76t286 -76t207 -207t76 -286q0 -116 -45 -221.5t-121 -182t-181.5 -121.5t-221.5 -45t-221.5 45t-181.5 121.5t-121 182t-45 221.5zM401 543q0 -119 83.5 -202t201.5 -83t201.5 83t83.5 202q0 118 -83 201t-202 83t-202 -83t-83 -201z
" />
    <glyph glyph-name="mediumblackcircle" unicode="&#x26ab;" horiz-adv-x="1372" 
d="M117 543q0 155 76 286t207 207t286 76t286 -76t207 -207t76 -286q0 -116 -45 -221.5t-121 -182t-181.5 -121.5t-221.5 -45t-221.5 45t-181.5 121.5t-121 182t-45 221.5z" />
    <glyph glyph-name="anglebracketleft" unicode="&#x3008;" horiz-adv-x="747" 
d="M711 1720l-332 -983l332 -983h-334l-332 983l332 983h334z" />
    <glyph glyph-name="anglebracketright" unicode="&#x3009;" horiz-adv-x="747" 
d="M37 -246l332 983l-332 983h334l331 -983l-331 -983h-334z" />
    <glyph glyph-name="fi" unicode="&#xe38c;" horiz-adv-x="1386" 
d="M528 1227v-142h238v-282h-238v-803h-323v803h-166v282h166v177q0 214 106 308.5t301 94.5q125 0 174 -27v-266q-9 5 -41 9.5t-57 4.5q-81 0 -120.5 -33t-39.5 -126zM952 0v1085h324v-1085h-324zM1284 1581v-342h-340v342h340z" />
    <glyph glyph-name="fi" unicode="&#xfb01;" horiz-adv-x="1386" 
d="M528 1227v-142h238v-282h-238v-803h-323v803h-166v282h166v177q0 214 106 308.5t301 94.5q125 0 174 -27v-266q-9 5 -41 9.5t-57 4.5q-81 0 -120.5 -33t-39.5 -126zM952 0v1085h324v-1085h-324zM1284 1581v-342h-340v342h340z" />
    <glyph glyph-name="fl" unicode="&#xe38d;" horiz-adv-x="1386" 
d="M528 1227v-142h238v-282h-238v-803h-323v803h-166v282h166v177q0 214 106 308.5t301 94.5q125 0 174 -27v-266q-9 5 -41 9.5t-57 4.5q-81 0 -120.5 -33t-39.5 -126zM952 0v1638h324v-1638h-324z" />
    <glyph glyph-name="fl" unicode="&#xfb02;" horiz-adv-x="1386" 
d="M528 1227v-142h238v-282h-238v-803h-323v803h-166v282h166v177q0 214 106 308.5t301 94.5q125 0 174 -27v-266q-9 5 -41 9.5t-57 4.5q-81 0 -120.5 -33t-39.5 -126zM952 0v1638h324v-1638h-324z" />
    <glyph glyph-name="invertedbreve" unicode="&#xe411;" horiz-adv-x="1024" 
d="M512 1624q204 0 295 -108.5t88 -294.5h-231q0 159 -152 159t-152 -159h-231q-3 186 88 294.5t295 108.5z" />
    <glyph glyph-name="doublegrave" unicode="&#xe412;" horiz-adv-x="1024" 
d="M379 1597h287l137 -376h-252zM4 1597h285l186 -376h-252z" />
    <glyph glyph-name="caronSlovak" unicode="&#xe413;" horiz-adv-x="1024" 
d="M627 1638h196l-53 -417h-143v417z" />
    <glyph glyph-name="commaaccent" unicode="&#xe414;" horiz-adv-x="1232" 
d="M657 -90v-117q0 -135 -73.5 -195.5t-227.5 -60.5v111q136 0 172 73h-161v189h290z" />
    <glyph glyph-name="commaaccent" unicode="&#xf6c3;" horiz-adv-x="1232" 
d="M657 -90v-117q0 -135 -73.5 -195.5t-227.5 -60.5v111q136 0 172 73h-161v189h290z" />
    <glyph glyph-name="dotbelow" unicode="&#xe415;" horiz-adv-x="1232" 
d="M657 -104v-291h-290v291h290z" />
    <glyph glyph-name="altcedilla" unicode="&#xe416;" horiz-adv-x="1232" 
d="M586 -242q0 47 -97 47q-72 0 -100 -14v107q58 20 139 20q103 0 167.5 -45t64.5 -133t-62.5 -134t-183.5 -46q-139 0 -219 51l47 135q58 -35 147 -35q97 0 97 47z" />
    <glyph glyph-name="grave.cap" unicode="&#xe421;" horiz-adv-x="1024" 
d="M221 1946h338l113 -226h-320z" />
    <glyph glyph-name="acute.cap" unicode="&#xe422;" horiz-adv-x="1024" 
d="M465 1946h338l-131 -226h-320z" />
    <glyph glyph-name="circumflex.cap" unicode="&#xe423;" horiz-adv-x="1024" 
d="M385 1720h-291l254 226h328l254 -226h-291l-127 90z" />
    <glyph glyph-name="tilde.cap" unicode="&#xe424;" horiz-adv-x="1024" 
d="M717 1939h174q0 -126 -59.5 -184.5t-151.5 -58.5q-56 0 -115.5 24.5t-109 49t-80.5 24.5q-68 0 -68 -68h-174q0 126 59.5 185t151.5 59q56 0 115.5 -24.5t109 -49t80.5 -24.5q68 0 68 67z" />
    <glyph glyph-name="macron.cap" unicode="&#xe425;" horiz-adv-x="1024" 
d="M207 1735v196h610v-196h-610z" />
    <glyph glyph-name="breve.cap" unicode="&#xe426;" horiz-adv-x="1024" 
d="M512 1690q-109 0 -185 20t-116 56.5t-57 80t-17 99.5h223q0 -82 152 -82t152 82h223q0 -56 -17 -99.5t-57 -80t-116 -56.5t-185 -20z" />
    <glyph glyph-name="invertedbreve.cap" unicode="&#xe427;" horiz-adv-x="1024" 
d="M512 1976q109 0 185 -20t116 -56.5t57 -80t17 -99.5h-223q0 82 -152 82t-152 -82h-223q0 56 17 99.5t57 80t116 56.5t185 20z" />
    <glyph glyph-name="dotaccent.cap" unicode="&#xe428;" horiz-adv-x="1024" 
d="M649 1935v-204h-274v204h274z" />
    <glyph glyph-name="dieresis.cap" unicode="&#xe429;" horiz-adv-x="1024" 
d="M469 1935v-204h-272v204h272zM827 1935v-204h-272v204h272z" />
    <glyph glyph-name="ring.cap" unicode="&#xe42a;" horiz-adv-x="1024" 
d="M297 1757q0 89 63 152t152 63t152 -63t63 -152t-63 -153t-152 -64t-152 64t-63 153zM408 1757q0 -43 30.5 -73.5t73.5 -30.5t73.5 30.5t30.5 73.5t-30.5 73t-73.5 30t-73.5 -30t-30.5 -73z" />
    <glyph glyph-name="hungarumlaut.cap" unicode="&#xe42b;" horiz-adv-x="1024" 
d="M293 1946h305l-115 -226h-284zM651 1946h305l-131 -226h-284z" />
    <glyph glyph-name="doublegrave.cap" unicode="&#xe42c;" horiz-adv-x="1024" 
d="M426 1946h305l94 -226h-284zM68 1946h305l110 -226h-284z" />
    <glyph glyph-name="caron.cap" unicode="&#xe42d;" horiz-adv-x="1024" 
d="M94 1946h291l127 -93l127 93h291l-254 -226h-328z" />
    <glyph glyph-name="commaaccent.cap" unicode="&#xe42e;" horiz-adv-x="1024" 
d="M375 1720v52q0 210 278 210v-77q-62 0 -98.5 -13t-54.5 -49h149v-123h-274z" />
    <glyph glyph-name="exclamdown.cap" unicode="&#xe441;" horiz-adv-x="542" 
d="M473 0h-401l86 1130h229zM102 1255v342h340v-342h-340z" />
    <glyph glyph-name="questiondown.cap" unicode="&#xe444;" horiz-adv-x="1017" 
d="M500 258q83 0 116 65t33 218h326v-37q0 -267 -109 -399t-366 -132q-104 0 -186 23.5t-133 62t-84.5 93t-46.5 111.5t-13 122q0 84 18.5 150t49 110.5t67.5 83t75 76t70.5 79.5t56 105t29.5 141h228q6 -79 -5.5 -151.5t-35 -128.5t-53 -107t-60.5 -94.5t-56.5 -82
t-42 -78.5t-16.5 -76q0 -76 32 -115t106 -39zM346 1255v342h340v-342h-340z" />
    <glyph glyph-name="guilsinglleft.cap" unicode="&#xe451;" horiz-adv-x="647" 
d="M545 1255v-284l-223 -172l223 -172v-285l-443 301v311z" />
    <glyph glyph-name="guilsinglright.cap" unicode="&#xe452;" horiz-adv-x="647" 
d="M102 971v284l443 -301v-311l-443 -301v285l224 172z" />
    <glyph glyph-name="guillemotleft.cap" unicode="&#xe453;" horiz-adv-x="1157" 
d="M545 1255v-284l-223 -172l223 -172v-285l-443 301v311zM1055 1255v-284l-224 -172l224 -172v-285l-443 301v311z" />
    <glyph glyph-name="guillemotright.cap" unicode="&#xe454;" horiz-adv-x="1157" 
d="M612 971v284l443 -301v-311l-443 -301v285l224 172zM102 971v284l443 -301v-311l-443 -301v285l224 172z" />
    <glyph glyph-name="slash.cap" unicode="&#xe461;" horiz-adv-x="780" 
d="M352 0h-315l393 1597h315z" />
    <glyph glyph-name="backslash.cap" unicode="&#xe462;" horiz-adv-x="780" 
d="M37 1597h315l393 -1597h-315z" />
    <glyph glyph-name="bar.cap" unicode="&#xe463;" horiz-adv-x="534" 
d="M111 0v1597h315v-1597h-315z" />
    <glyph glyph-name="doublebar.cap" unicode="&#xe464;" horiz-adv-x="940" 
d="M111 0v1597h315v-1597h-315zM514 0v1597h315v-1597h-315z" />
    <glyph glyph-name="brokenbar.cap" unicode="&#xe465;" horiz-adv-x="534" 
d="M111 848v749h315v-749h-315zM111 0v750h315v-750h-315z" />
    <glyph glyph-name="bullet.cap" unicode="&#xe466;" horiz-adv-x="911" 
d="M784 1128v-659h-657v659h657z" />
    <glyph glyph-name="onethirdemdash" unicode="&#xe471;" horiz-adv-x="681" 
d="M600 575h-518v283h518v-283z" />
    <glyph glyph-name="threequarteremdash" unicode="&#xe472;" horiz-adv-x="1536" 
d="M82 575v283h1372v-283h-1372z" />
    <glyph glyph-name="periodcentered.cap" unicode="&#xe481;" horiz-adv-x="544" 
d="M442 971v-342h-340v342h340z" />
    <glyph glyph-name="hyphen.cap" unicode="&#xe482;" horiz-adv-x="655" 
d="M82 657v283h559v-283h-559z" />
    <glyph glyph-name="onethirdemdash.cap" unicode="&#xe483;" horiz-adv-x="681" 
d="M600 657h-514v283h514v-283z" />
    <glyph glyph-name="endash.cap" unicode="&#xe484;" horiz-adv-x="1024" 
d="M82 657v283h860v-283h-860z" />
    <glyph glyph-name="threequarteremdash.cap" unicode="&#xe485;" horiz-adv-x="1536" 
d="M82 657v283h1372v-283h-1372z" />
    <glyph glyph-name="emdash.cap" unicode="&#xe486;" horiz-adv-x="2048" 
d="M82 657v283h1884v-283h-1884z" />
    <glyph glyph-name="figuredash.cap" unicode="&#xe487;" horiz-adv-x="1228" 
d="M82 657v283h1065v-283h-1065z" />
    <glyph glyph-name="uni2015.cap" unicode="&#xe488;" horiz-adv-x="2457" 
d="M82 657v283h2294v-283h-2294z" />
    <glyph glyph-name="parenleft.cap" unicode="&#xe491;" horiz-adv-x="747" 
d="M92 778v41q0 251 67 447t177 331h336q-107 -155 -181.5 -355t-74.5 -423v-41q0 -223 74.5 -423t181.5 -355h-336q-110 135 -177 331t-67 447z" />
    <glyph glyph-name="parenright.cap" unicode="&#xe492;" horiz-adv-x="747" 
d="M655 819v-41q0 -251 -67 -447t-176 -331h-336q107 155 181.5 355t74.5 423v41q0 223 -74.5 423t-181.5 355h336q109 -135 176 -331t67 -447z" />
    <glyph glyph-name="bracketleft.cap" unicode="&#xe493;" horiz-adv-x="747" 
d="M119 1597h561v-282h-240v-1032h240v-283h-561v1597z" />
    <glyph glyph-name="bracketright.cap" unicode="&#xe494;" horiz-adv-x="747" 
d="M629 0h-561v283h239v1032h-239v282h561v-1597z" />
    <glyph glyph-name="braceleft.cap" unicode="&#xe495;" horiz-adv-x="747" 
d="M680 1597v-282q-76 0 -114.5 -37t-41.5 -119v-123q0 -168 -123 -237q123 -69 123 -238v-104q0 -92 38 -133t118 -41v-283h-55q-99 0 -174 19t-132 61t-86.5 113.5t-29.5 171.5v124q0 89 -37.5 128.5t-116.5 39.5v283q79 0 116.5 39.5t37.5 128.5v125q0 100 29.5 171.5
t86.5 113t132 60.5t174 19h55z" />
    <glyph glyph-name="braceright.cap" unicode="&#xe496;" horiz-adv-x="747" 
d="M68 1315v282h55q99 0 174 -19t132 -60.5t86.5 -113t29.5 -171.5v-125q0 -89 37 -128.5t116 -39.5v-283q-79 0 -116 -39.5t-37 -128.5v-124q0 -100 -29.5 -171.5t-86.5 -113.5t-132 -61t-174 -19h-55v283q79 0 117 41t38 133v104q0 168 121 238q-121 70 -121 237v105
q0 92 -38 133t-117 41z" />
    <glyph glyph-name="anglebracketleft.cap" unicode="&#xe497;" horiz-adv-x="747" 
d="M668 1597l-279 -798l279 -799h-334l-279 799l279 798h334z" />
    <glyph glyph-name="anglebracketright.cap" unicode="&#xe498;" horiz-adv-x="747" 
d="M360 799l-280 798h334l280 -798l-280 -799h-334z" />
    <glyph glyph-name="lowline" unicode="&#xe511;" horiz-adv-x="655" 
d="M86 0v281h483v-281h-483z" />
    <glyph glyph-name="underscoremonospace" unicode="&#xe512;" horiz-adv-x="1228" 
d="M86 -379v283h1057v-283h-1057z" />
    <glyph glyph-name="underscoremonospace" unicode="&#xff3f;" horiz-adv-x="1228" 
d="M86 -379v283h1057v-283h-1057z" />
    <glyph glyph-name="at.cap" unicode="&#xe513;" horiz-adv-x="2029" 
d="M1051 -20h12q371 0 676 223l121 -164q-194 -154 -393 -212t-410 -58q-219 0 -402 65.5t-317 188.5t-208.5 311.5t-74.5 423.5v82q0 235 74.5 423.5t207.5 311.5t314 188.5t396 65.5q152 0 287 -28t253.5 -90.5t203.5 -155.5t134 -229.5t49 -305.5v-62q0 -144 -28 -254
t-77 -180.5t-121 -115t-152.5 -62.5t-180.5 -18h-215l-22 121q-95 -148 -285 -148q-184 0 -281.5 129.5t-97.5 343.5v70q0 214 97.5 343.5t281.5 129.5q190 0 285 -148l22 121h252l-18 -280v-473q122 6 189.5 45.5t99.5 128.5t32 247v62q0 138 -40.5 245t-106.5 172.5
t-159.5 107t-189 57.5t-206.5 16h-13q-169 0 -309 -49.5t-243 -144.5t-160.5 -244.5t-57.5 -339.5v-82q0 -192 57 -341t161.5 -244t246.5 -144t316 -49zM1153 971q-24 37 -68.5 66.5t-103.5 29.5q-87 0 -129.5 -58.5t-42.5 -164.5v-70q0 -106 42.5 -164.5t129.5 -58.5
q59 0 103.5 29.5t68.5 66.5v324z" />
    <glyph glyph-name="zero.inf" unicode="&#xe571;" 
d="M588 -197q0 -106 -76 -172.5t-205 -66.5t-204.5 66.5t-75.5 172.5v373q0 106 76 173t204 67q129 0 205 -67t76 -173v-373zM272 -193q0 -12 9 -21t22 -9h8q13 0 22 9t9 21v365q0 12 -9 21.5t-22 9.5h-8q-13 0 -22 -9.5t-9 -21.5v-365z" />
    <glyph glyph-name="one.inf" unicode="&#xe572;" 
d="M594 -410h-539v211h148v291l-72 -47l-121 174l254 172h185v-590h145v-211z" />
    <glyph glyph-name="two.inf" unicode="&#xe573;" 
d="M582 -199v-211h-555v156l282 313q27 30 27 66v22q0 20 -7.5 38t-21.5 18h-6q-29 0 -29 -80h-245v31q0 46 12.5 88.5t41.5 83.5t86.5 65.5t137.5 24.5q79 0 136.5 -24.5t86.5 -63t41.5 -76t12.5 -74.5v-37q0 -61 -20 -101.5t-68 -96.5l-127 -142h215z" />
    <glyph glyph-name="three.inf" unicode="&#xe574;" 
d="M268 -154q0 -36 12 -52.5t25 -16.5h6q12 0 23.5 16.5t11.5 44.5v10q0 52 -39 52h-102v196h100q31 0 31 51v5q0 15 -8 33t-21 18h-6q-29 0 -29 -80h-245v18q0 51 12.5 95.5t41.5 87t86.5 67.5t137.5 25q64 0 114.5 -16t80 -40.5t49 -55.5t26.5 -58.5t7 -52.5v-21
q0 -120 -99 -174q107 -56 107 -178v-21q0 -105 -77 -170t-206 -65q-130 0 -207 72t-77 194v16h245z" />
    <glyph glyph-name="four.inf" unicode="&#xe575;" 
d="M526 -410h-245v140h-261v188l259 471h247v-446h66v-213h-66v-140zM281 59l-64 -116h64v116z" />
    <glyph glyph-name="five.inf" unicode="&#xe576;" 
d="M23 -154h245q0 -36 10 -52.5t23 -16.5h8q15 0 26 16t11 45v10q0 62 -49 62h-2q-26 0 -49 -23l-213 72l18 430h524v-213h-321l-4 -80q54 15 94 15q119 0 182.5 -70t63.5 -186v-25q0 -129 -75 -197.5t-208 -68.5q-130 0 -207 72t-77 194v16z" />
    <glyph glyph-name="six.inf" unicode="&#xe577;" 
d="M569 416v-213q-171 0 -243 -72q-22 -22 -37 -63q44 26 92 26q95 0 152 -67t57 -185v-10q0 -120 -71.5 -194t-213.5 -74q-95 0 -160 45t-93.5 115t-28.5 159v19q0 216 116 362q67 84 172.5 118t257.5 34zM303 -117q-21 0 -35 -22v-4q0 -29 6 -48t13.5 -25.5t15.5 -6.5h8
q12 0 23.5 14t11.5 37v10q0 21 -11.5 33t-23.5 12h-8z" />
    <glyph glyph-name="seven.inf" unicode="&#xe578;" 
d="M16 102v287h582v-151l-262 -648h-262l254 586h-99v-74h-213z" />
    <glyph glyph-name="eight.inf" unicode="&#xe579;" 
d="M307 -436q-129 0 -205.5 65t-76.5 170v23q0 116 100 178q-92 54 -92 172v21q0 25 7 52.5t26 58.5t48.5 55.5t79.5 40.5t113 16t113 -16t79.5 -40.5t49 -55.5t26.5 -58.5t7 -52.5v-21q0 -117 -93 -172q101 -63 101 -178v-23q0 -105 -77 -170t-206 -65zM303 -109
q-35 0 -35 -55v-8q0 -55 35 -55h8q35 0 35 55v8q0 55 -35 55h-8zM309 104q27 0 27 48v8q0 47 -27 47h-4q-26 0 -26 -47v-8q0 -48 26 -48h4z" />
    <glyph glyph-name="nine.inf" unicode="&#xe57a;" 
d="M45 -436v213q173 0 244 71q21 21 37 64q-46 -27 -93 -27q-95 0 -151.5 67t-56.5 185v10q0 120 71 194.5t213 74.5q94 0 160 -45.5t94.5 -115.5t28.5 -159v-18q0 -215 -117 -363q-67 -83 -172 -117t-258 -34zM303 96h8q19 0 35 23v4q0 29 -6 48t-13.5 25.5t-15.5 6.5h-8
q-12 0 -23.5 -14t-11.5 -37v-11q0 -21 11.5 -33t23.5 -12z" />
    <glyph glyph-name="plus.inf" unicode="&#xe57b;" 
d="M201 260h213v-164h164v-213h-164v-164h-213v164h-164v213h164v164z" />
    <glyph glyph-name="minus.inf" unicode="&#xe57c;" 
d="M37 -117v213h541v-213h-541z" />
    <glyph glyph-name="equal.inf" unicode="&#xe57d;" 
d="M37 8v213h541v-213h-541zM37 -242v213h541v-213h-541z" />
    <glyph glyph-name="parenleft.inf" unicode="&#xe57e;" horiz-adv-x="419" 
d="M31 -20v20q0 258 121 389h251q-129 -187 -129 -389v-20q0 -203 129 -390h-251q-121 127 -121 390z" />
    <glyph glyph-name="parenright.inf" unicode="&#xe57f;" horiz-adv-x="419" 
d="M387 0v-20q0 -263 -121 -390h-250q127 184 127 390v20q0 205 -127 389h250q121 -131 121 -389z" />
    <glyph glyph-name="Anocross" unicode="&#xe731;" horiz-adv-x="1312" 
d="M428 1602h457l399 -1602h-354l-275 1219l-270 -1219h-356z" />
    <glyph glyph-name="idotaccent" unicode="&#xe785;" horiz-adv-x="544" 
d="M111 0v1085h323v-1085h-323zM442 1581v-342h-340v342h340z" />
    <glyph glyph-name="interrobangdown" unicode="&#xe935;" horiz-adv-x="1017" 
d="M37 -43q0 80 18.5 144t49 106t67.5 77.5t75.5 68t71 67t56 85t28.5 113.5h193l16 -745q78 50 78 250h283v-35q0 -131 -24.5 -226t-79 -163t-146.5 -101.5t-223 -33.5q-103 0 -184.5 23t-132.5 61t-85 90t-47.5 106t-13.5 113zM336 743v342h340v-342h-340zM362 -10
q0 -95 76 -127l6 327q-28 -40 -41.5 -62t-27 -60.5t-13.5 -77.5z" />
    <glyph glyph-name="interrobangdown.cap" unicode="&#xe99b;" horiz-adv-x="1017" 
d="M43 385q0 84 18.5 150t49 110.5t67.5 83t75.5 76t71 79.5t56 105t29.5 141h176l16 -854q86 49 86 265h293v-37q0 -267 -109 -399t-366 -132q-104 0 -186 23.5t-133 62t-84.5 93t-46.5 111.5t-13 122zM332 1255v342h340v-342h-340zM352 420q0 -111 74 -146l8 357
q-28 -47 -42.5 -74.5t-27 -65.5t-12.5 -71z" />
    <glyph glyph-name="registered.cap" unicode="&#xe99c;" horiz-adv-x="1884" 
d="M117 799q0 168 65 321t175.5 263.5t263.5 175.5t321 65t321 -65t263.5 -175.5t175.5 -263.5t65 -321t-65 -321t-175.5 -263.5t-263.5 -176t-321 -65.5t-321 65.5t-263.5 176t-175.5 263.5t-65 321zM231 799q0 -145 56.5 -276.5t151.5 -226.5t226.5 -151.5t276.5 -56.5
t276.5 56.5t226.5 151.5t151.5 226.5t56.5 276.5q0 193 -95 356.5t-259 258.5t-357 95t-357 -95t-259 -258.5t-95 -356.5zM815 629v-312h-289v963h498q52 0 97 -7.5t90 -29t77 -55.5t52 -90.5t20 -130.5v-25q0 -202 -141 -272l141 -353h-303l-99 312h-143zM815 842h146
q110 0 110 106v13q0 106 -110 106h-146v-225z" />
    <glyph glyph-name="period.T" unicode="&#xf182;" 
d="M477 342v-342h-340v342h340z" />
    <glyph glyph-name="comma.T" unicode="&#xf183;" 
d="M477 342v-270q0 -180 -88.5 -272.5t-261.5 -92.5v162q152 0 182 131h-172v342h340z" />
    <glyph glyph-name="colon.T" unicode="&#xf184;" 
d="M477 342v-342h-340v342h340zM477 971v-342h-340v342h340z" />
    <glyph glyph-name="semicolon.T" unicode="&#xf185;" 
d="M477 342v-270q0 -180 -88.5 -272.5t-261.5 -92.5v162q152 0 182 131h-172v342h340zM477 971v-342h-340v342h340z" />
    <glyph glyph-name="onesixteenth" unicode="&#xf215;" horiz-adv-x="2252" 
d="M367 0h-275l1180 1597h274zM2208 825v-213q-173 0 -244 -71q-21 -21 -37 -64q46 27 92 27q95 0 152 -67t57 -185v-10q0 -120 -71 -194.5t-213 -74.5q-94 0 -160 45.5t-94.5 115.5t-28.5 159v18q0 215 117 363q67 83 172 117t258 34zM1618 0h-539v211h148v291l-72 -47
l-121 174l254 172h185v-590h145v-211zM594 799h-539v211h148v290l-72 -47l-121 174l254 172h185v-589h145v-211zM1942 293q-19 0 -35 -23v-4q0 -29 6 -48t13.5 -25.5t15.5 -6.5h8q12 0 23.5 14.5t11.5 37.5v10q0 21 -11.5 33t-23.5 12h-8z" />
    <glyph glyph-name="threesixteenths" unicode="&#xf216;" horiz-adv-x="2252" 
d="M367 0h-275l1180 1597h274zM2208 825v-213q-173 0 -244 -71q-21 -21 -37 -64q46 27 92 27q95 0 152 -67t57 -185v-10q0 -120 -71 -194.5t-213 -74.5q-94 0 -160 45.5t-94.5 115.5t-28.5 159v18q0 215 117 363q67 83 172 117t258 34zM268 1055q0 -36 12 -53t25 -17h6
q12 0 23.5 17t11.5 45v10q0 51 -39 51h-102v197h100q31 0 31 51v4q0 15 -8 33t-21 18h-6q-29 0 -29 -80h-245v19q0 40 7 76t26.5 73t49.5 64t80 44t115 17q64 0 114.5 -16t80 -40.5t49 -55.5t26.5 -58.5t7 -52.5v-21q0 -120 -99 -174q107 -60 107 -178v-20
q0 -105 -77 -170.5t-206 -65.5q-130 0 -207 72t-77 194v17h245zM1618 0h-539v211h148v291l-72 -47l-121 174l254 172h185v-590h145v-211zM1942 293q-19 0 -35 -23v-4q0 -29 6 -48t13.5 -25.5t15.5 -6.5h8q12 0 23.5 14.5t11.5 37.5v10q0 21 -11.5 33t-23.5 12h-8z" />
    <glyph glyph-name="fivesixteenths" unicode="&#xf217;" horiz-adv-x="2252" 
d="M367 0h-275l1180 1597h274zM23 1055h245q0 -36 10 -53t23 -17h8q15 0 26 16.5t11 45.5v10q0 61 -49 61h-2q-27 0 -49 -22l-213 71l18 430h524v-213h-321l-4 -79q51 14 94 14q119 0 182.5 -70t63.5 -186v-25q0 -129 -75 -197.5t-208 -68.5q-130 0 -207 72t-77 194v17z
M2208 825v-213q-173 0 -244 -71q-21 -21 -37 -64q46 27 92 27q95 0 152 -67t57 -185v-10q0 -120 -71 -194.5t-213 -74.5q-94 0 -160 45.5t-94.5 115.5t-28.5 159v18q0 215 117 363q67 83 172 117t258 34zM1618 0h-539v211h148v291l-72 -47l-121 174l254 172h185v-590h145
v-211zM1942 293q-19 0 -35 -23v-4q0 -29 6 -48t13.5 -25.5t15.5 -6.5h8q12 0 23.5 14.5t11.5 37.5v10q0 21 -11.5 33t-23.5 12h-8z" />
    <glyph glyph-name="sevensixteenths" unicode="&#xf218;" horiz-adv-x="2252" 
d="M367 0h-275l1180 1597h274zM2208 825v-213q-173 0 -244 -71q-21 -21 -37 -64q46 27 92 27q95 0 152 -67t57 -185v-10q0 -120 -71 -194.5t-213 -74.5q-94 0 -160 45.5t-94.5 115.5t-28.5 159v18q0 215 117 363q67 83 172 117t258 34zM1618 0h-539v211h148v291l-72 -47
l-121 174l254 172h185v-590h145v-211zM16 1311v286h582v-151l-262 -647h-262l254 585h-99v-73h-213zM1942 293q-19 0 -35 -23v-4q0 -29 6 -48t13.5 -25.5t15.5 -6.5h8q12 0 23.5 14.5t11.5 37.5v10q0 21 -11.5 33t-23.5 12h-8z" />
    <glyph glyph-name="ninesixteenths" unicode="&#xf219;" horiz-adv-x="2252" 
d="M367 0h-275l1180 1597h274zM2208 825v-213q-173 0 -244 -71q-21 -21 -37 -64q46 27 92 27q95 0 152 -67t57 -185v-10q0 -120 -71 -194.5t-213 -74.5q-94 0 -160 45.5t-94.5 115.5t-28.5 159v18q0 215 117 363q67 83 172 117t258 34zM45 772v213q172 0 244 72q24 24 35 63
q-41 -26 -91 -26q-95 0 -151.5 67t-56.5 185v10q0 120 71 194t213 74q140 0 211.5 -91t71.5 -228v-19q0 -214 -117 -362q-67 -84 -172.5 -118t-257.5 -34zM1618 0h-539v211h148v291l-72 -47l-121 174l254 172h185v-590h145v-211zM1942 293q-19 0 -35 -23v-4q0 -29 6 -48
t13.5 -25.5t15.5 -6.5h8q12 0 23.5 14.5t11.5 37.5v10q0 21 -11.5 33t-23.5 12h-8z" />
    <glyph glyph-name="elevensixteenths" unicode="&#xf220;" horiz-adv-x="2867" 
d="M981 0h-274l1179 1597h275zM2822 825v-213q-173 0 -244 -71q-20 -20 -36 -64q46 27 92 27q95 0 152 -67t57 -185v-10q0 -120 -71.5 -194.5t-213.5 -74.5q-94 0 -160 45.5t-94.5 115.5t-28.5 159v18q0 215 117 363q67 83 172 117t258 34zM594 799h-539v211h148v290
l-72 -47l-121 174l254 172h185v-589h145v-211zM1208 799h-538v211h147v290l-72 -47l-120 174l254 172h184v-589h145v-211zM2232 0h-538v211h147v291l-72 -47l-120 174l254 172h184v-590h145v-211zM2556 293q-19 0 -35 -23v-4q0 -29 6 -48t13.5 -25.5t15.5 -6.5h8
q12 0 23.5 14.5t11.5 37.5v10q0 21 -11.5 33t-23.5 12h-8z" />
    <glyph glyph-name="thirteensixteenths" unicode="&#xf221;" horiz-adv-x="2867" 
d="M981 0h-274l1179 1597h275zM2822 825v-213q-173 0 -244 -71q-20 -20 -36 -64q46 27 92 27q95 0 152 -67t57 -185v-10q0 -120 -71.5 -194.5t-213.5 -74.5q-94 0 -160 45.5t-94.5 115.5t-28.5 159v18q0 215 117 363q67 83 172 117t258 34zM883 1055q0 -36 12 -53t25 -17h6
q12 0 23.5 17t11.5 45v10q0 51 -39 51h-103v197h101q30 0 30 51v4q0 15 -7.5 33t-20.5 18h-7q-28 0 -28 -80h-246v19q0 40 7 76t26.5 73t50 64t80.5 44t115 17q79 0 136.5 -23.5t86 -60.5t41 -71.5t12.5 -67.5v-21q0 -120 -98 -174q106 -60 106 -178v-20
q0 -105 -76.5 -170.5t-205.5 -65.5q-130 0 -207.5 72t-77.5 194v17h246zM594 799h-539v211h148v290l-72 -47l-121 174l254 172h185v-589h145v-211zM2232 0h-538v211h147v291l-72 -47l-120 174l254 172h184v-590h145v-211zM2556 293q-19 0 -35 -23v-4q0 -29 6 -48t13.5 -25.5
t15.5 -6.5h8q12 0 23.5 14.5t11.5 37.5v10q0 21 -11.5 33t-23.5 12h-8z" />
    <glyph glyph-name="fifteensixteenths" unicode="&#xf222;" horiz-adv-x="2867" 
d="M981 0h-274l1179 1597h275zM637 1055h246q0 -36 9.5 -53t22.5 -17h9q15 0 26 16.5t11 45.5v10q0 61 -50 61h-2q-27 0 -49 -22l-213 71l19 430h524v-213h-322l-4 -79q51 14 94 14q119 0 182.5 -70t63.5 -186v-25q0 -129 -75 -197.5t-207 -68.5q-130 0 -207.5 72t-77.5 194
v17zM2822 825v-213q-173 0 -244 -71q-20 -20 -36 -64q46 27 92 27q95 0 152 -67t57 -185v-10q0 -120 -71.5 -194.5t-213.5 -74.5q-94 0 -160 45.5t-94.5 115.5t-28.5 159v18q0 215 117 363q67 83 172 117t258 34zM594 799h-539v211h148v290l-72 -47l-121 174l254 172h185
v-589h145v-211zM2232 0h-538v211h147v291l-72 -47l-120 174l254 172h184v-590h145v-211zM2556 293q-19 0 -35 -23v-4q0 -29 6 -48t13.5 -25.5t15.5 -6.5h8q12 0 23.5 14.5t11.5 37.5v10q0 21 -11.5 33t-23.5 12h-8z" />
    </font>
</defs>
</svg>
