<?xml version="1.0" standalone="no"?>
<!DOCTYPE svg PUBLIC "-//W3C//DTD SVG 1.1//EN" "http://www.w3.org/Graphics/SVG/1.1/DTD/svg11.dtd" >
<svg xmlns="http://www.w3.org/2000/svg" xmlns:xlink="http://www.w3.org/1999/xlink" version="1.1">
<metadata>
Created by FontForge 20170731 at Fri Jul 22 12:59:27 2022
 By Aleksey,,,
Copyright (c) 2014, Cooper Hewitt Smithsonian Design Museum (cooperhewitt.org)
</metadata>
<defs>
<font id="CooperHewitt-MediumItalic" horiz-adv-x="614" >
  <font-face 
    font-family="Cooper Hewitt"
    font-weight="708"
    font-style="italic"
    font-stretch="normal"
    units-per-em="2048"
    panose-1="0 0 0 0 0 0 0 0 0 0"
    ascent="1536"
    descent="-512"
    x-height="1085"
    cap-height="1597"
    bbox="-590 -449 2796 1974"
    underline-thickness="40"
    underline-position="-224"
    unicode-range="U+0020-F222"
  />
<missing-glyph horiz-adv-x="1978" 
d="M190 0v1597h1598v-1597h-1598zM989 707l-571 -572h1143zM418 1462l571 -571l572 571h-1143zM897 799l-563 563v-1126zM1081 799l564 -563v1126z" />
    <glyph glyph-name=".notdef" horiz-adv-x="1978" 
d="M190 0v1597h1598v-1597h-1598zM989 707l-571 -572h1143zM418 1462l571 -571l572 571h-1143zM897 799l-563 563v-1126zM1081 799l564 -563v1126z" />
    <glyph glyph-name=".null" horiz-adv-x="0" 
 />
    <glyph glyph-name="nonmarkingreturn" horiz-adv-x="682" 
 />
    <glyph glyph-name="space" unicode=" " horiz-adv-x="409" 
 />
    <glyph glyph-name="exclam" unicode="!" horiz-adv-x="479" 
d="M221 1597h254l-211 -1181h-143zM287 233l-31 -233h-233l30 233h234z" />
    <glyph glyph-name="quotedbl" unicode="&#x22;" horiz-adv-x="772" 
d="M233 1597h211l-96 -589h-155zM543 1597h213l-117 -589h-154z" />
    <glyph glyph-name="numbersign" unicode="#" horiz-adv-x="1228" 
d="M762 1597l-154 -450h254l154 450h186l-153 -450h168l-25 -186h-207l-111 -324h166l-24 -186h-205l-152 -451h-186l152 451h-254l-152 -451h-186l151 451h-166l25 186h205l110 324h-163l24 186h203l153 450h187zM545 961l-111 -324h254l111 324h-254z" />
    <glyph glyph-name="dollar" unicode="$" horiz-adv-x="1228" 
d="M362 -123h-169l104 281q-121 54 -176 156.5t-35 236.5l2 14h207q-19 -158 70 -225l147 399q-383 66 -340 375l2 16q22 175 156.5 269t355.5 94q52 0 102 -6l86 233h170l-102 -274q124 -55 170 -164.5t25 -253.5l-2 -14h-207q31 174 -54 246l-139 -377q381 -76 342 -385
l-2 -17q-14 -114 -84.5 -200t-180 -130.5t-241.5 -44.5q-63 0 -118 9zM864 498q9 85 -35.5 136.5t-156.5 78.5l-156 -422q14 -2 45 -2h17q119 0 195 46t89 146zM385 1114q-10 -74 30 -126t160 -79l148 400q-10 2 -31 2h-12q-272 0 -293 -181z" />
    <glyph glyph-name="percent" unicode="%" horiz-adv-x="1931" 
d="M1425 -25q-168 0 -264.5 99t-75.5 272l2 16q22 168 124 265.5t255 97.5q168 0 264.5 -99t75.5 -272l-2 -16q-22 -168 -124 -265.5t-255 -97.5zM1473 561h-13q-88 0 -142.5 -52t-66.5 -151l-2 -16q-10 -92 36.5 -147.5t133.5 -55.5h13q88 0 142 52t66 151l2 16
q10 92 -36 147.5t-133 55.5zM512 1622q87 0 184 -39q119 -47 338 -47q118 0 242 22t176 44l-16 -125l-809 -1477h-189l760 1389q-68 -25 -176 -25q-65 0 -174 16q11 -74 4 -129l-2 -16q-22 -168 -124 -265.5t-255 -97.5q-168 0 -264.5 99t-75.5 272l2 17q22 168 124 265
t255 97zM518 1458h-12q-88 0 -142.5 -52t-66.5 -151l-2 -16q-10 -92 36.5 -147.5t133.5 -55.5h12q88 0 142.5 52t66.5 151l2 16q10 92 -36.5 147.5t-133.5 55.5z" />
    <glyph glyph-name="ampersand" unicode="&#x26;" horiz-adv-x="1374" 
d="M461 -25q-236 0 -351 119t-87 328l6 45q10 72 38 133.5t71.5 109.5t89 84t104.5 72q-83 111 -115 191.5t-18 189.5l6 47q20 149 127.5 238.5t294.5 89.5q109 0 190 -29.5t124.5 -79t60.5 -108t8 -121.5l-6 -45q-7 -52 -30 -97.5t-52 -79.5t-76.5 -71t-88 -62.5
t-102.5 -63.5q-10 -6 -15.5 -9t-14 -8.5t-15.5 -9.5l320 -416q45 65 79.5 165t47.5 206l2 16h217q-25 -185 -79.5 -309.5t-147.5 -235.5l202 -264h-258l-96 125q-104 -76 -206 -113t-230 -37zM475 162h17q156 0 296 106l-352 461q-85 -60 -135 -124.5t-61 -153.5l-2 -17
q-16 -129 42 -200.5t195 -71.5zM416 1272l-2 -17q-10 -79 14.5 -144t77.5 -136q135 82 173 111q106 82 116 169l2 17q9 72 -34.5 118t-131.5 46h-17q-86 0 -137.5 -46t-60.5 -118z" />
    <glyph glyph-name="quotesingle" unicode="'" horiz-adv-x="479" 
d="M233 1597h230l-115 -589h-155z" />
    <glyph glyph-name="parenleft" unicode="(" horiz-adv-x="684" 
d="M88 715l6 45q87 628 426 960h238q-181 -202 -297.5 -429.5t-157.5 -530.5l-6 -45q-20 -125 -13 -249t24 -224t50 -195.5t65 -163.5t69 -129h-220q-35 53 -66.5 119.5t-62.5 159.5t-47.5 196t-22 228.5t14.5 257.5z" />
    <glyph glyph-name="parenright" unicode=")" horiz-adv-x="684" 
d="M588 760l-6 -45q-87 -630 -426 -961h-238q86 96 153 190.5t130 212t107 258.5t65 300l6 45q20 125 13 249t-24 223.5t-50 195t-65 163.5t-69 129h219q35 -53 67 -119.5t63 -159.5t47.5 -195.5t22 -228t-14.5 -257.5z" />
    <glyph glyph-name="asterisk" unicode="*" horiz-adv-x="813" 
d="M455 1638h133l-49 -288h-113zM86 1307l61 129l259 -101l-50 -108zM250 897l-98 80l208 227l84 -65zM842 1436l24 -129l-291 -80l-20 108zM715 977l-119 -80l-129 242l100 65z" />
    <glyph glyph-name="plus" unicode="+" horiz-adv-x="1228" 
d="M590 1319h188l-55 -426h426l-25 -188h-426l-55 -426h-188l55 426h-426l25 188h426z" />
    <glyph glyph-name="comma" unicode="," horiz-adv-x="479" 
d="M287 233l-25 -184q-44 -309 -311 -309l14 115q70 0 113 34t63 111h-118l30 233h234z" />
    <glyph glyph-name="hyphen" unicode="-" horiz-adv-x="690" 
d="M63 625l25 184h526l-24 -184h-527z" />
    <glyph glyph-name="period" unicode="." horiz-adv-x="479" 
d="M287 233l-31 -233h-233l30 233h234z" />
    <glyph glyph-name="slash" unicode="/" horiz-adv-x="737" 
d="M831 1720l-729 -1966h-202l727 1966h204z" />
    <glyph glyph-name="zero" unicode="0" horiz-adv-x="1228" 
d="M1163 1141l-90 -684q-32 -238 -157.5 -360t-374.5 -122q-133 0 -230.5 35.5t-153 100t-76.5 151.5t-7 195l90 684q32 237 157.5 359t374.5 122q133 0 230.5 -35t153 -99.5t76.5 -151.5t7 -195zM866 471l86 657q39 308 -250 308h-12q-153 0 -225.5 -75t-93.5 -235
l-86 -657q-19 -151 40.5 -229t209.5 -78h12q153 0 225.5 74.5t93.5 234.5z" />
    <glyph glyph-name="one" unicode="1" horiz-adv-x="1228" 
d="M1032 0h-997l24 188h396l149 1139l-358 -223l-88 160l547 340h145l-186 -1416h393z" />
    <glyph glyph-name="two" unicode="2" horiz-adv-x="1228" 
d="M485 188h562l-25 -188h-1018l19 137l755 709q98 93 135.5 152.5t49.5 148.5l2 16q17 130 -52 201.5t-200 71.5h-17q-145 0 -230.5 -88.5t-111.5 -282.5h-211l9 55q37 252 171.5 377t385.5 125q127 0 224.5 -34t154.5 -93.5t80.5 -139t11.5 -171.5l-6 -45
q-15 -114 -64.5 -193.5t-171.5 -195.5l-602 -564z" />
    <glyph glyph-name="three" unicode="3" horiz-adv-x="1228" 
d="M270 512q-22 -189 44 -269.5t216 -80.5h17q125 0 218 70t109 202l3 17q17 130 -49.5 201t-196.5 71h-228l25 184h219q132 0 217 59.5t99 180.5l2 16q17 130 -52 201.5t-200 71.5h-17q-148 0 -232 -88t-110 -283h-211l9 55q37 252 171.5 377t385.5 125q127 0 224.5 -34
t154.5 -93.5t80.5 -139t11.5 -171.5l-6 -45q-15 -116 -98 -202.5t-204 -117.5q120 -34 180 -132.5t40 -240.5l-7 -45q-17 -120 -84.5 -215t-187.5 -153t-274 -58q-269 0 -392.5 139.5t-89.5 383.5l2 14h211z" />
    <glyph glyph-name="four" unicode="4" horiz-adv-x="1228" 
d="M831 0h-208l51 397h-660l19 144l809 1056h198l-133 -1011h234l-25 -189h-233zM791 1249l-508 -665l153 2h264l64 493z" />
    <glyph glyph-name="five" unicode="5" horiz-adv-x="1228" 
d="M59 512h211q-22 -189 44 -269.5t216 -80.5h17q127 0 222 78.5t114 234.5l2 17q21 162 -47.5 253t-200.5 91h-16q-121 0 -204.5 -43.5t-144.5 -135.5l-172 58l154 882h969l-25 -188h-788l-88 -506q49 56 138.5 87.5t184.5 31.5q235 0 361 -137t94 -373l-6 -45
q-34 -243 -175 -367.5t-378 -124.5q-270 0 -394 139.5t-90 383.5z" />
    <glyph glyph-name="six" unicode="6" horiz-adv-x="1228" 
d="M1176 1622l-27 -190q-170 0 -331.5 -56t-285.5 -184q-121 -124 -190 -334q57 66 144.5 107t189.5 41q77 0 146 -19t127 -59t97.5 -97t56 -138t3.5 -177l-6 -45q-33 -244 -175.5 -370t-375.5 -126q-251 0 -380.5 164t-94.5 428l6 45q30 215 98 383t213 322
q287 305 785 305zM633 817h-12q-101 0 -185.5 -48t-140.5 -140q-23 -94 -23 -164q0 -149 76.5 -225t198.5 -76h12q137 0 224 82.5t106 232.5l2 17q20 150 -52 235.5t-206 85.5z" />
    <glyph glyph-name="seven" unicode="7" horiz-adv-x="1228" 
d="M135 1024l76 573h1036l-16 -124l-791 -1473h-225l768 1411l-217 -2h-391l-51 -385h-189z" />
    <glyph glyph-name="eight" unicode="8" horiz-adv-x="1228" 
d="M537 -25q-249 0 -381 122.5t-107 310.5l6 45q21 153 107.5 243.5t220.5 126.5q-107 25 -175 118t-50 220l6 45q12 88 50 162t102.5 131.5t164.5 90t226 32.5q127 0 224.5 -34t155 -93.5t81.5 -139t12 -171.5l-6 -45q-34 -251 -302 -320q120 -34 180 -132.5t40 -240.5
l-7 -45q-26 -186 -169 -306t-379 -120zM631 723h-43q-128 0 -216.5 -73t-105.5 -206l-2 -16q-16 -130 61.5 -198t211.5 -68h20q124 0 212.5 69.5t104.5 202.5l3 17q17 130 -49.5 201t-196.5 71zM711 1436h-17q-135 0 -221.5 -69.5t-101.5 -192.5l-2 -17q-14 -119 55 -184.5
t188 -65.5h35q132 0 217 59.5t99 180.5l2 16q17 130 -52.5 201.5t-201.5 71.5z" />
    <glyph glyph-name="nine" unicode="9" horiz-adv-x="1228" 
d="M59 -25l27 191q170 0 331 56t285 184q123 126 191 333q-57 -66 -144.5 -106.5t-189.5 -40.5q-96 0 -180 31t-146.5 90t-91 154t-12.5 214l6 45q33 244 175.5 370t375.5 126q251 0 380.5 -164t94.5 -428l-6 -45q-30 -215 -98 -382.5t-213 -321.5q-288 -306 -785 -306z
M602 780h12q101 0 185.5 48t140.5 141q23 94 23 164q0 149 -76.5 225t-198.5 76h-12q-137 0 -224 -83t-106 -233l-2 -16q-20 -150 52 -236t206 -86z" />
    <glyph glyph-name="colon" unicode=":" horiz-adv-x="479" 
d="M287 233l-31 -233h-233l30 233h234zM375 915l-31 -233h-233l30 233h234z" />
    <glyph glyph-name="semicolon" unicode=";" horiz-adv-x="479" 
d="M287 233l-25 -184q-44 -309 -311 -309l14 115q70 0 113 34t63 111h-118l30 233h234zM375 915l-31 -233h-233l30 233h234z" />
    <glyph glyph-name="less" unicode="&#x3c;" horiz-adv-x="1228" 
d="M109 901l1103 461l-28 -217l-865 -354l773 -355l-27 -200l-983 460z" />
    <glyph glyph-name="equal" unicode="=" horiz-adv-x="1228" 
d="M113 918l24 188h1041l-25 -188h-1040zM55 492l25 188h1040l-24 -188h-1041z" />
    <glyph glyph-name="greater" unicode="&#x3e;" horiz-adv-x="1228" 
d="M1124 696l-1104 -460l29 217l864 354l-772 354l27 201l983 -461z" />
    <glyph glyph-name="question" unicode="?" horiz-adv-x="962" 
d="M524 233l-30 -233h-234l31 233h233zM563 1622q221 0 316.5 -91.5t95.5 -270.5q0 -87 -22.5 -159.5t-60 -125t-83.5 -99.5t-94.5 -94t-91 -97t-76.5 -119t-47 -150h-142q7 88 33 166t62 136t78 111t82 100.5t73 94.5t53.5 103.5t20.5 117.5q0 191 -197 191
q-54 0 -96.5 -19.5t-71 -53.5t-49 -85t-32 -107.5t-17.5 -128.5h-211l2 15q16 111 37 193.5t57.5 155.5t86.5 118.5t124 71.5t170 26z" />
    <glyph glyph-name="at" unicode="@" horiz-adv-x="1988" 
d="M913 -287h13q186 0 351.5 52.5t334.5 164.5l71 -114q-342 -250 -763 -250q-227 0 -405.5 66t-295.5 190t-165.5 309.5t-18.5 417.5l12 94q61 464 348 721.5t721 257.5q153 0 286 -31.5t241 -97.5t180 -162t101.5 -232.5t6.5 -301.5l-6 -45q-20 -143 -62.5 -252.5
t-99.5 -180.5t-134 -115.5t-159.5 -62.5t-181.5 -18h-135v141q-39 -67 -127 -116.5t-190 -49.5q-83 0 -147.5 25.5t-105 70t-66 105.5t-29 132.5t5.5 150.5l6 45q13 100 47.5 185.5t89 153t134.5 106t177 38.5q112 0 187 -48t104 -118l39 141h162l-54 -297l-69 -520
q99 3 170 26t130.5 76t97.5 147.5t57 234.5l6 45q20 145 -5 260.5t-83.5 192.5t-148.5 128.5t-194 74t-225 22.5h-12q-374 0 -616.5 -216.5t-294.5 -615.5l-13 -94q-26 -202 17.5 -362.5t144 -263t244.5 -156.5t321 -54zM1202 801q-28 56 -83.5 98.5t-139.5 42.5
q-120 0 -191.5 -85t-91.5 -230l-6 -45q-19 -141 33.5 -228.5t167.5 -87.5q89 0 157.5 44.5t102.5 97.5z" />
    <glyph glyph-name="A" unicode="A" horiz-adv-x="1271" 
d="M598 1610h297l229 -1610h-225l-51 385h-516l-150 -385h-235zM721 1370l-315 -797h417z" />
    <glyph glyph-name="B" unicode="B" horiz-adv-x="1232" 
d="M246 1597h450q82 0 150.5 -12t129 -42t100 -76.5t57 -119.5t4.5 -167l-7 -45q-17 -119 -88.5 -202t-169.5 -112q110 -31 170 -123t41 -231l-6 -45q-13 -97 -49 -171.5t-86 -121.5t-117.5 -76.5t-138 -41t-154.5 -11.5h-495zM635 725h-291l-70 -537h273q61 0 112 12.5
t94.5 40t72 76.5t36.5 117l2 17q17 141 -49.5 207.5t-179.5 66.5zM686 1409h-252l-63 -496h252q111 0 193.5 56t98.5 178l3 16q16 125 -49.5 185.5t-182.5 60.5z" />
    <glyph glyph-name="C" unicode="C" horiz-adv-x="1290" 
d="M330 846l-13 -94q-40 -307 23.5 -447.5t249.5 -140.5h16q155 0 236.5 93t105.5 273h213l-2 -20q-26 -261 -170 -398t-391 -137q-312 0 -432 183.5t-66 593.5l13 94q54 410 209 593t440 183q278 0 395 -139t76 -422l-8 -55h-215q30 224 -23.5 326t-216.5 102h-16
q-183 0 -283.5 -140.5t-140.5 -447.5z" />
    <glyph glyph-name="D" unicode="D" horiz-adv-x="1325" 
d="M1231 846l-12 -94q-27 -206 -85.5 -350.5t-151 -233t-212.5 -128.5t-278 -40h-455l209 1597h430q151 0 263 -42.5t187.5 -131t103 -234.5t1.5 -343zM274 188h218q224 0 347 133.5t162 430.5l13 94q38 294 -51 428.5t-312 134.5h-217z" />
    <glyph glyph-name="E" unicode="E" horiz-adv-x="1140" 
d="M246 1597h921l-24 -188h-709l-65 -500h606l-25 -188h-606l-70 -533h709l-25 -188h-921z" />
    <glyph glyph-name="F" unicode="F" horiz-adv-x="1077" 
d="M246 1597h899l-25 -188h-686l-65 -500h583l-24 -188h-584l-94 -721h-213z" />
    <glyph glyph-name="G" unicode="G" horiz-adv-x="1341" 
d="M618 -25q-314 0 -442.5 185t-75.5 592l13 94q53 409 215.5 592.5t453.5 183.5q278 0 395 -139t76 -422l-8 -55h-215q30 224 -23.5 326t-215.5 102h-17q-187 0 -295.5 -142.5t-148.5 -445.5l-13 -94q-40 -303 32 -445.5t261 -142.5h17q175 0 307 92l49 371h-252l25 188
h465l-86 -653q-53 -43 -98 -72t-108 -58t-140.5 -43t-170.5 -14z" />
    <glyph glyph-name="H" unicode="H" horiz-adv-x="1325" 
d="M1083 1597h213l-209 -1597h-213l95 721h-625l-94 -721h-213l209 1597h213l-90 -688h624z" />
    <glyph glyph-name="I" unicode="I" horiz-adv-x="507" 
d="M469 1597l-209 -1597h-213l209 1597h213z" />
    <glyph glyph-name="J" unicode="J" horiz-adv-x="1044" 
d="M813 1597h213l-145 -1108q-34 -252 -150.5 -383t-337.5 -131q-452 0 -377 500l9 55h202q-24 -136 -10 -217.5t56 -115t120 -33.5q126 0 190 85t89 271z" />
    <glyph glyph-name="K" unicode="K" horiz-adv-x="1198" 
d="M459 1597l-103 -774l631 774h258l-553 -661l344 -936h-233l-271 743l-221 -262l-61 -481h-213l209 1597h213z" />
    <glyph glyph-name="L" unicode="L" horiz-adv-x="1026" 
d="M895 0h-858l209 1597h213l-185 -1409h646z" />
    <glyph glyph-name="M" unicode="M" horiz-adv-x="1693" 
d="M1409 1227l-561 -1227h-203l-242 1227l-36 -342l-115 -885h-215l209 1597h305l237 -1228l560 1228h317l-209 -1597h-215l115 885z" />
    <glyph glyph-name="N" unicode="N" horiz-adv-x="1366" 
d="M1337 1597l-209 -1597h-223l-510 1221l-39 -355l-112 -866h-207l209 1597h223l510 -1220l39 354l112 866h207z" />
    <glyph glyph-name="O" unicode="O" horiz-adv-x="1345" 
d="M758 1622q311 0 429 -182.5t64 -593.5l-12 -94q-54 -411 -207.5 -594t-437.5 -183q-311 0 -429.5 183t-64.5 594l13 94q54 411 207.5 593.5t437.5 182.5zM586 164h16q183 0 281.5 140t138.5 448l12 94q40 307 -22.5 447.5t-245.5 140.5h-16q-183 0 -281.5 -140
t-138.5 -448l-13 -94q-40 -307 23 -447.5t246 -140.5z" />
    <glyph glyph-name="P" unicode="P" horiz-adv-x="1200" 
d="M356 809h271q41 0 79 7t79.5 26.5t73.5 50t56.5 82.5t32.5 119l2 16q38 299 -250 299h-266zM332 623l-82 -623h-213l209 1597h459q77 0 146 -12.5t135.5 -46t111 -85t65.5 -135.5t6 -192l-6 -45q-14 -104 -53 -185.5t-91.5 -131.5t-119.5 -83t-132 -45.5t-136 -12.5h-299
z" />
    <glyph glyph-name="Q" unicode="Q" horiz-adv-x="1345" 
d="M758 1622q311 0 429 -182.5t64 -593.5l-12 -94q-41 -315 -139.5 -493t-265.5 -243l57 -221h-178l-45 185q-62 -5 -74 -5q-311 0 -429.5 183t-64.5 594l13 94q54 411 207.5 593.5t437.5 182.5zM586 164h37l-80 325h170l71 -280q94 58 151 190.5t87 352.5l12 94
q40 307 -22.5 447.5t-245.5 140.5h-16q-183 0 -281.5 -140t-138.5 -448l-13 -94q-40 -307 23 -447.5t246 -140.5z" />
    <glyph glyph-name="R" unicode="R" horiz-adv-x="1224" 
d="M332 623l-82 -623h-213l209 1597h459q77 0 146 -12.5t135.5 -46t111 -85t65.5 -135.5t6 -192l-6 -45q-25 -177 -111.5 -280.5t-213.5 -145.5l184 -655h-231l-160 623h-299zM356 809h271q41 0 79 7t79.5 26.5t73.5 50t56.5 82.5t32.5 119l2 16q38 299 -250 299h-266z" />
    <glyph glyph-name="S" unicode="S" horiz-adv-x="1251" 
d="M580 727q-244 37 -346.5 153t-79.5 287l6 45q26 193 169 301.5t369 108.5q285 0 409.5 -138.5t88.5 -381.5l-8 -55h-213q29 199 -38 293t-228 94h-21q-130 0 -214.5 -63.5t-98.5 -170.5l-2 -16q-14 -115 55.5 -183.5t257.5 -99.5q489 -79 438 -455l-6 -45
q-29 -211 -175.5 -318.5t-391.5 -107.5q-276 0 -409 129t-97 371l8 55h213q-60 -366 275 -366h20q148 0 237.5 64t104.5 186l2 16q15 124 -61 196t-264 101z" />
    <glyph glyph-name="T" unicode="T" horiz-adv-x="1085" 
d="M733 1409l-184 -1409h-213l184 1409h-393l25 188h999l-25 -188h-393z" />
    <glyph glyph-name="U" unicode="U" horiz-adv-x="1325" 
d="M578 -25q-282 0 -401.5 126t-84.5 397l144 1099h213l-142 -1089q-24 -187 40 -265.5t235 -78.5t257.5 79t110.5 265l144 1089h213l-146 -1099q-36 -277 -170.5 -400t-412.5 -123z" />
    <glyph glyph-name="V" unicode="V" horiz-adv-x="1271" 
d="M682 -12h-297l-229 1609h225l180 -1370l539 1370h233z" />
    <glyph glyph-name="W" unicode="W" horiz-adv-x="1863" 
d="M1130 -12l-116 1372l-477 -1372h-285l-76 1609h221l41 -1331l463 1331h281l114 -1331l390 1331h219l-498 -1609h-277z" />
    <glyph glyph-name="X" unicode="X" horiz-adv-x="1282" 
d="M-53 0l567 809l-346 788h240l260 -602l415 602h252l-559 -796l350 -801h-235l-268 614l-424 -614h-252z" />
    <glyph glyph-name="Y" unicode="Y" horiz-adv-x="1216" 
d="M678 485l-64 -485h-213l64 485l-324 1112h228l233 -847l455 847h235z" />
    <glyph glyph-name="Z" unicode="Z" horiz-adv-x="1177" 
d="M-2 143l897 1272l-270 -6h-441l25 188h973l-19 -143l-897 -1272l271 6h481l-25 -188h-1013z" />
    <glyph glyph-name="bracketleft" unicode="[" horiz-adv-x="684" 
d="M256 1720h475l-24 -186h-269l-209 -1593h269l-25 -187h-475z" />
    <glyph glyph-name="backslash" unicode="\" horiz-adv-x="735" 
d="M369 -246l-213 1966h204l213 -1966h-204z" />
    <glyph glyph-name="bracketright" unicode="]" horiz-adv-x="684" 
d="M422 -246h-475l24 187h269l209 1593h-269l25 186h475z" />
    <glyph glyph-name="asciicircum" unicode="^" horiz-adv-x="1228" 
d="M825 1597l324 -1042h-205l-246 829l-462 -829h-213l598 1042h204z" />
    <glyph glyph-name="underscore" unicode="_" horiz-adv-x="655" 
d="M-49 -313l24 184h467l-24 -184h-467z" />
    <glyph glyph-name="grave" unicode="`" horiz-adv-x="1024" 
d="M313 1597h226l139 -354h-209z" />
    <glyph glyph-name="a" unicode="a" horiz-adv-x="1075" 
d="M692 0v137q-63 -73 -159 -117.5t-218 -44.5q-155 0 -235 93t-62 227l2 16q11 84 44.5 144t90.5 97t120.5 58t152.5 35l311 49l4 31q15 121 -25.5 171t-164.5 50q-66 0 -112.5 -17t-72 -49.5t-38.5 -68.5t-19 -84h-194l2 14q54 369 434 369q234 0 326.5 -103t66.5 -296
l-53 -404l-25 -307h-176zM383 147q59 0 111 14.5t89 39.5t61 47t42 47l35 258l-275 -43q-103 -17 -155.5 -60.5t-61.5 -117.5l-2 -17q-8 -67 32.5 -117.5t123.5 -50.5z" />
    <glyph glyph-name="b" unicode="b" horiz-adv-x="1126" 
d="M444 1638l-86 -655q47 51 122.5 89t170.5 38q92 0 162.5 -28t113 -77.5t68 -118.5t27.5 -151t-8 -174l-6 -45q-74 -541 -490 -541q-102 0 -179 46t-112 120l-39 -141h-178l53 297l177 1341h204zM332 784l-62 -477q29 -59 87.5 -105t152.5 -46q116 0 191.5 95.5
t99.5 264.5l6 45q24 172 -24 270.5t-173 98.5q-174 0 -278 -146z" />
    <glyph glyph-name="c" unicode="c" horiz-adv-x="1071" 
d="M266 569l-6 -45q-51 -368 211 -368q118 0 188.5 66.5t81.5 162.5h195l-2 -14q-12 -84 -44 -153t-86.5 -125t-140 -87t-196.5 -31q-122 0 -211 42.5t-137 117.5t-65 173.5t-1 215.5l6 45q16 118 57 215t105.5 171t159.5 114.5t213 40.5t201 -34t125 -94t55.5 -132
t1.5 -156l-2 -14h-193q5 56 -1 98.5t-26 78t-61.5 54.5t-103.5 19q-133 0 -216.5 -95.5t-107.5 -265.5z" />
    <glyph glyph-name="d" unicode="d" horiz-adv-x="1134" 
d="M557 1110q100 0 170 -40.5t102 -102.5l91 671h204l-176 -1331l-24 -307h-179l3 145q-43 -73 -132 -121.5t-192 -48.5q-92 0 -162.5 28t-113 77.5t-68 118.5t-27.5 151t8 174l7 45q74 541 489 541zM743 305l62 473q-13 26 -31 49.5t-46.5 48t-70.5 39.5t-92 15
q-116 0 -191.5 -96t-99.5 -265l-6 -45q-24 -172 24 -270t173 -98q178 0 278 149z" />
    <glyph glyph-name="e" unicode="e" horiz-adv-x="1122" 
d="M997 465h-743q-28 -322 254 -322q129 0 196.5 57.5t79.5 147.5h197l-2 -14q-22 -154 -144 -256.5t-331 -102.5q-108 0 -192 28t-137 78t-86.5 119t-39.5 150.5t4 173.5l6 45q17 119 56.5 215.5t103.5 170.5t158.5 114.5t212.5 40.5q163 0 266.5 -73.5t139.5 -196.5
t14 -285zM586 942q-125 0 -208.5 -86t-103.5 -235h537q39 321 -225 321z" />
    <glyph glyph-name="f" unicode="f" horiz-adv-x="800" 
d="M500 1292l-27 -207h281l-25 -182h-280l-119 -903h-205l119 903h-172l24 182h172l29 224q46 354 399 354q41 0 76.5 -5.5t52 -10.5t23.5 -9l-23 -172q-45 17 -118 17q-92 0 -142.5 -40t-64.5 -151z" />
    <glyph glyph-name="g" unicode="g" horiz-adv-x="1126" 
d="M698 -6l23 190q-47 -51 -122.5 -89t-170.5 -38q-92 0 -162.5 28.5t-112.5 77t-68.5 113.5t-29 138.5t5.5 150.5l7 45q14 107 51 196.5t96 158t145 107t191 38.5q103 0 180.5 -46t112.5 -120l39 141h178l-53 -297l-107 -804q-28 -210 -146 -314t-345 -104q-71 0 -131 12.5
t-103 35t-77 53.5t-53.5 68t-32 78.5t-12.5 85t5 87.5l2 14h193q-17 -129 36 -195.5t173 -66.5q146 0 209 61.5t79 194.5zM748 383l53 393q-18 37 -43.5 68t-78.5 58.5t-118 27.5q-112 0 -190.5 -94t-96.5 -226l-6 -45q-20 -142 29.5 -234.5t171.5 -92.5q176 0 279 145z" />
    <glyph glyph-name="h" unicode="h" horiz-adv-x="1116" 
d="M27 0l215 1638h204l-88 -665q134 137 338 137q112 0 186.5 -51t102 -131.5t14.5 -179.5l-98 -748h-205l95 717q12 99 -33 156t-148 57q-162 0 -276 -150l-103 -780h-204z" />
    <glyph glyph-name="i" unicode="i" horiz-adv-x="479" 
d="M37 0l141 1085h205l-141 -1085h-205zM459 1544l-31 -233h-233l30 233h234z" />
    <glyph glyph-name="j" unicode="j" horiz-adv-x="479" 
d="M27 -63l151 1148h205l-154 -1165q-46 -354 -399 -354q-41 0 -76.5 5t-52 10t-23.5 9l23 172q43 -16 119 -16q92 0 142.5 40t64.5 151zM459 1544l-31 -233h-233l30 233h234z" />
    <glyph glyph-name="k" unicode="k" horiz-adv-x="1069" 
d="M23 0l215 1638h204l-137 -1044l500 491h256l-422 -409l281 -676h-226l-211 524l-217 -211l-39 -313h-204z" />
    <glyph glyph-name="l" unicode="l" horiz-adv-x="479" 
d="M37 0l215 1638h205l-215 -1638h-205z" />
    <glyph glyph-name="m" unicode="m" horiz-adv-x="1689" 
d="M1473 0h-205l96 733q13 98 -29 147.5t-131 49.5q-78 0 -142.5 -46t-107.5 -104l-102 -780h-205l96 733q13 98 -28.5 147.5t-130.5 49.5q-78 0 -142.5 -46t-107.5 -104l-103 -780h-204l102 778l25 307h176v-145q57 75 145.5 122.5t196.5 47.5q114 0 181.5 -47t90.5 -129
q62 79 150.5 127.5t197.5 48.5q153 0 228 -88t55 -242z" />
    <glyph glyph-name="n" unicode="n" horiz-adv-x="1116" 
d="M901 0h-205l95 717q12 99 -33 156t-148 57q-162 0 -276 -150l-103 -780h-204l102 778l25 307h176v-145q136 170 366 170q112 0 186.5 -51t102 -131.5t14.5 -179.5z" />
    <glyph glyph-name="o" unicode="o" horiz-adv-x="1122" 
d="M483 156q132 0 212 94.5t104 265.5l6 45q24 174 -31 271.5t-192 97.5q-132 0 -212 -95t-104 -266l-6 -45q-24 -174 31 -271t192 -97zM586 1110q122 0 212.5 -42.5t141.5 -117.5t69.5 -173.5t2.5 -215.5l-6 -45q-17 -119 -56 -215.5t-102.5 -170.5t-157 -114.5
t-211.5 -40.5q-122 0 -212.5 42.5t-141.5 117.5t-69.5 173.5t-2.5 215.5l6 45q17 119 56 215.5t102.5 170.5t157 114.5t211.5 40.5z" />
    <glyph glyph-name="p" unicode="p" horiz-adv-x="1126" 
d="M518 -25q-100 0 -170 41t-102 103l-72 -529h-205l158 1188l25 307h178l-2 -145q43 73 131.5 121.5t191.5 48.5q92 0 162.5 -28t113 -77.5t68 -118.5t27.5 -151t-8 -174l-6 -45q-74 -541 -490 -541zM332 780l-62 -473q29 -59 87.5 -105t152.5 -46q116 0 191.5 95.5
t99.5 264.5l6 45q24 172 -24 270.5t-173 98.5q-177 0 -278 -150z" />
    <glyph glyph-name="q" unicode="q" horiz-adv-x="1132" 
d="M645 -410l68 512q-47 -51 -122.5 -89t-170.5 -38q-92 0 -162.5 28t-113 77.5t-68 118.5t-27.5 151t8 174l6 45q74 541 490 541q102 0 179 -46t112 -120l39 141h178l-53 -297l-158 -1198h-205zM739 301l62 477q-13 26 -31 49.5t-46.5 48t-70.5 39.5t-92 15
q-116 0 -191.5 -96t-99.5 -265l-6 -45q-24 -172 24 -270t173 -98q175 0 278 145z" />
    <glyph glyph-name="r" unicode="r" horiz-adv-x="716" 
d="M653 1110l31 -2l-27 -205h-39q-90 0 -169 -42.5t-117 -96.5l-101 -764h-204l102 778l25 307h176v-145q49 77 134.5 123.5t188.5 46.5z" />
    <glyph glyph-name="s" unicode="s" horiz-adv-x="1073" 
d="M463 139q107 0 173 44t66 134q0 76 -48 107t-177 49q-204 26 -290.5 104t-69.5 216l2 16q19 141 137.5 221t300.5 80q231 0 327 -95t72 -267l-2 -15h-196q29 213 -201 213q-43 0 -82.5 -9t-75.5 -27.5t-58 -53.5t-22 -82q0 -62 51 -94t177 -47q194 -24 287.5 -103.5
t74.5 -230.5l-2 -16q-18 -139 -138 -223.5t-314 -84.5q-235 0 -334 95t-76 252l2 14h201q-13 -92 37.5 -144.5t177.5 -52.5z" />
    <glyph glyph-name="t" unicode="t" horiz-adv-x="841" 
d="M473 1085h322l-25 -182h-321l-74 -557q-14 -107 24.5 -148.5t122.5 -41.5q86 0 133 14l-22 -170q-56 -25 -141 -25q-187 0 -267.5 85.5t-56.5 267.5l76 575h-172l24 182h172l41 308h205z" />
    <glyph glyph-name="u" unicode="u" horiz-adv-x="1116" 
d="M156 1085h204l-94 -716q-12 -99 32.5 -156t147.5 -57q93 0 162.5 45t114.5 104l102 780h205l-102 -778l-25 -307h-176v145q-136 -170 -367 -170q-112 0 -186.5 51t-102 132t-14.5 180z" />
    <glyph glyph-name="v" unicode="v" horiz-adv-x="1075" 
d="M297 0l-215 1085h211l164 -907l399 907h219l-497 -1085h-281z" />
    <glyph glyph-name="w" unicode="w" horiz-adv-x="1501" 
d="M766 864l-328 -864h-266l-76 1085h199l39 -866l330 866h256l104 -866l266 866h199l-361 -1085h-260z" />
    <glyph glyph-name="x" unicode="x" horiz-adv-x="1044" 
d="M84 1085h244l190 -372l275 372h249l-419 -546l278 -539h-239l-195 373l-279 -373h-245l417 547z" />
    <glyph glyph-name="y" unicode="y" horiz-adv-x="1038" 
d="M465 262l379 823h223l-518 -1038l-211 -457h-236l224 441l-250 1054h219z" />
    <glyph glyph-name="z" unicode="z" horiz-adv-x="972" 
d="M-18 137l653 770l-234 -4h-301l25 182h801l-19 -137l-653 -770l233 4h342l-24 -182h-842z" />
    <glyph glyph-name="braceleft" unicode="{" horiz-adv-x="684" 
d="M731 1720l-24 -186q-96 0 -144.5 -37.5t-62.5 -148.5l-51 -394q-22 -169 -142 -217q53 -28 75 -79.5t11 -139.5l-53 -401q-13 -99 24.5 -137.5t133.5 -38.5l-25 -187h-45q-74 0 -131 16t-102 50.5t-63.5 97.5t-6.5 150l51 378q14 111 -20 154t-121 43l24 188
q89 0 132.5 35.5t56.5 134.5l53 406q11 87 46.5 149.5t89 97.5t114.5 50.5t135 15.5h45z" />
    <glyph glyph-name="bar" unicode="|" horiz-adv-x="456" 
d="M-8 -246l258 1966h205l-258 -1966h-205z" />
    <glyph glyph-name="braceright" unicode="}" horiz-adv-x="684" 
d="M-53 -246l24 187q96 0 144.5 37.5t62.5 148.5l51 393q22 169 142 217q-53 28 -75 79.5t-11 139.5l53 402q13 99 -24.5 137.5t-133.5 38.5l25 186h45q74 0 131 -15.5t102 -50.5t63.5 -97.5t6.5 -149.5l-51 -379q-14 -111 20 -154t121 -43l-25 -188q-89 0 -132 -35.5
t-56 -134.5l-53 -405q-11 -87 -46.5 -150t-89 -97.5t-114.5 -50.5t-135 -16h-45z" />
    <glyph glyph-name="asciitilde" unicode="~" horiz-adv-x="1228" 
d="M373 946q79 0 151.5 -22t118 -48.5t104.5 -48.5t115 -22q99 0 209 110l98 -112l-11 -11q-10 -11 -16 -17t-21 -19.5t-26.5 -22.5t-30 -22t-34.5 -22t-37 -19.5t-41 -16.5t-43.5 -10t-46.5 -4q-79 0 -151.5 22t-118 48.5t-104.5 48.5t-115 22q-99 0 -209 -110l-98 112
l10 11l17 17t21 19.5t26.5 22.5t30 22t34.5 22t37 19.5t41 16.5t43.5 10t46.5 4z" />
    <glyph glyph-name="nbspace" unicode="&#xa0;" horiz-adv-x="409" 
 />
    <glyph glyph-name="exclamdown" unicode="&#xa1;" horiz-adv-x="479" 
d="M211 -410h-254l199 1080h143zM397 1085l-30 -233h-234l31 233h233z" />
    <glyph glyph-name="cent" unicode="&#xa2;" horiz-adv-x="1228" 
d="M352 -123h-170l109 295q-240 143 -182 580l12 94q20 149 63.5 263.5t100 186t130.5 117t147.5 63t158.5 17.5q9 0 28.5 -1t28.5 -1l86 229h170l-98 -264q124 -46 183 -155t34 -277l-8 -55h-215q33 241 -60 307l-364 -983q36 -4 55 -4h17q263 0 303 299h213l-2 -21
q-21 -210 -154.5 -335.5t-372.5 -125.5q-53 0 -125 11zM332 846l-13 -94q-34 -257 50 -373l344 932q-320 0 -381 -465z" />
    <glyph glyph-name="sterling" unicode="&#xa3;" horiz-adv-x="1228" 
d="M737 1436q-142 0 -200 -92t-58 -279q0 -92 13 -199h393l-25 -186h-344q31 -177 31 -492h502l-25 -188h-1020l25 188h329q0 96 -8.5 190.5t-17.5 150.5t-27 151h-213l25 186h157q-10 78 -10 199q0 93 14 172t48 151.5t86.5 123t135.5 80.5t189 30q108 0 190.5 -27
t133.5 -76.5t81.5 -118.5t34 -153.5t-9.5 -181.5l-6 -41h-209q26 200 -23.5 306t-191.5 106z" />
    <glyph glyph-name="yen" unicode="&#xa5;" horiz-adv-x="1228" 
d="M92 799l25 184h215l-197 614h232l243 -823l461 823h240l-361 -614h219l-24 -184h-303l-133 -228h405l-24 -184h-420l-49 -387h-213l49 387h-420l24 184h404l-74 228h-299z" />
    <glyph glyph-name="brokenbar" unicode="&#xa6;" horiz-adv-x="456" 
d="M129 801l121 919h205l-121 -919h-205zM-8 -246l121 920h204l-120 -920h-205z" />
    <glyph glyph-name="section" unicode="&#xa7;" horiz-adv-x="1077" 
d="M516 621h23q122 0 190 55t68 143q0 158 -230 158h-22q-122 0 -190 -55.5t-68 -143.5q0 -157 229 -157zM451 469q-204 11 -297 89t-74 226l2 17q24 200 231 258q-128 61 -106 225l2 16q20 155 135 238.5t309 83.5q230 0 327 -95.5t73 -266.5l-2 -15h-205q14 104 -29 157.5
t-164 53.5q-113 0 -176 -48.5t-63 -137.5q0 -68 47 -101.5t172 -40.5q204 -11 297 -89t74 -226l-3 -16q-24 -200 -231 -258q129 -61 107 -226l-3 -16q-20 -155 -135 -238.5t-309 -83.5q-230 0 -326.5 96t-72.5 267l2 14h205q-14 -105 28.5 -158t163.5 -53q113 0 176.5 49
t63.5 138q0 68 -47 101t-172 40z" />
    <glyph glyph-name="dieresis" unicode="&#xa8;" horiz-adv-x="1024" 
d="M543 1544l-31 -233h-233l30 233h234zM918 1544l-31 -233h-234l31 233h234z" />
    <glyph glyph-name="copyright" unicode="&#xa9;" horiz-adv-x="1884" 
d="M119 799q0 168 65 320t175.5 262.5t262.5 175.5t320 65t320 -65t262.5 -175.5t175.5 -262.5t65 -320t-65 -320.5t-175.5 -262.5t-262.5 -175.5t-320 -65.5t-320 65.5t-262.5 175.5t-175.5 262.5t-65 320.5zM217 799q0 -197 97 -364t264 -264t364 -97t364 97t264 264
t97 364t-97 364t-264 264t-364 97t-364 -97t-264 -264t-97 -364zM946 463q112 0 163.5 55t51.5 131h182v-33q0 -47 -13.5 -91.5t-44.5 -87t-76.5 -74t-114 -51t-152.5 -19.5q-90 0 -164 26.5t-123 71.5t-82 107t-48 130.5t-15 143.5v53q0 75 15 143.5t48 130.5t82 107.5
t123 72t164 26.5q104 0 184 -30t125.5 -80t68.5 -108t23 -120v-37h-182q0 89 -51.5 147t-163.5 58q-64 0 -112.5 -25.5t-76.5 -70t-41.5 -98t-13.5 -116.5v-53q0 -63 13.5 -116.5t41.5 -97.5t76.5 -69.5t112.5 -25.5z" />
    <glyph glyph-name="ordfeminine" unicode="&#xaa;" horiz-adv-x="825" 
d="M600 795v100q-101 -121 -266 -121q-131 0 -188 65t-44 169l2 16q7 51 27.5 91t48 66t67 45t79 29.5t90.5 18.5l219 35l2 14q11 80 -15 119t-106 39q-149 0 -168 -146h-172l2 15q8 56 29 102.5t59.5 86t102 61.5t147.5 22q98 0 163 -21t96.5 -61t42 -96t-0.5 -127
l-39 -295l-18 -227h-160zM707 414h-662l21 157h661zM395 924q69 0 122 27.5t79 62.5l25 184l-183 -29q-138 -22 -149 -122l-2 -17q-5 -46 20.5 -76t87.5 -30z" />
    <glyph glyph-name="guillemotleft" unicode="&#xab;" horiz-adv-x="1093" 
d="M573 1102l-26 -201l-307 -213l252 -213l-25 -184l-387 309l24 193zM1034 1102l-26 -201l-308 -213l252 -213l-24 -184l-387 309l24 193z" />
    <glyph glyph-name="logicalnot" unicode="&#xac;" horiz-adv-x="1228" 
d="M119 967l24 188h1041l-97 -733h-188l72 545h-852z" />
    <glyph glyph-name="uni00AD" unicode="&#xad;" horiz-adv-x="690" 
d="M63 625l25 184h526l-24 -184h-527z" />
    <glyph glyph-name="registered" unicode="&#xae;" horiz-adv-x="675" 
d="M37 1362q0 124 88.5 212.5t212.5 88.5t212.5 -88.5t88.5 -212.5t-88.5 -212.5t-212.5 -88.5t-212.5 88.5t-88.5 212.5zM86 1362q0 -104 74 -178t178 -74t178 74t74 178t-74 178t-178 74t-178 -74t-74 -178zM479 1415q0 -75 -61 -98l61 -131h-90l-51 121h-53v-121h-88v352
h163q52 0 85.5 -26.5t33.5 -81.5v-15zM391 1425q0 43 -49 43h-57v-92h57q49 0 49 43v6z" />
    <glyph glyph-name="macron" unicode="&#xaf;" horiz-adv-x="1024" 
d="M324 1335l24 185h526l-24 -185h-526z" />
    <glyph glyph-name="degree" unicode="&#xb0;" horiz-adv-x="819" 
d="M453 1122h12q78 0 130 44t62 126l2 17q9 73 -33 121.5t-120 48.5h-12q-78 0 -130.5 -44t-62.5 -126l-2 -17q-9 -73 33.5 -121.5t120.5 -48.5zM500 1622q152 0 235.5 -84t65.5 -229l-2 -17q-18 -150 -109 -231.5t-231 -81.5q-152 0 -235.5 84t-65.5 229l2 17
q18 150 109 231.5t231 81.5z" />
    <glyph glyph-name="plusminus" unicode="&#xb1;" horiz-adv-x="1228" 
d="M723 895l-35 -262h-188l35 262h-426l24 188h426l35 263h188l-34 -263h426l-25 -188h-426zM33 313l24 189h1041l-25 -189h-1040z" />
    <glyph glyph-name="twosuperior" unicode="&#xb2;" 
d="M371 942h219l-19 -143h-524l14 102l351 340q36 36 50 58t17 51l2 16q11 100 -78 100h-12q-49 0 -76.5 -31t-33.5 -104h-164l2 17q31 262 278 262q139 0 200.5 -68t49.5 -164l-2 -16q-7 -59 -32 -99.5t-83 -97.5l-233 -225z" />
    <glyph glyph-name="threesuperior" unicode="&#xb3;" 
d="M240 1055q-17 -127 84 -127h12q94 0 104 94l2 16q12 97 -84 97h-108l18 143h107q95 0 106 86l2 16q4 39 -18.5 62.5t-61.5 23.5h-12q-49 0 -76.5 -31t-33.5 -104h-164l2 17q31 262 278 262q138 0 200 -67t52 -157l-2 -16q-9 -67 -42 -109.5t-83 -56.5q46 -14 69.5 -63
t14.5 -119l-2 -16q-5 -41 -22.5 -78.5t-49.5 -70.5t-84 -53t-118 -20q-141 0 -205.5 69t-50.5 185l2 17h164z" />
    <glyph glyph-name="acute" unicode="&#xb4;" horiz-adv-x="1024" 
d="M702 1597h226l-250 -354h-209z" />
    <glyph glyph-name="paragraph" unicode="&#xb6;" horiz-adv-x="1077" 
d="M637 0l184 1409h-94l-184 -1409h-131l82 627q-56 4 -108.5 17t-112 46t-100 81.5t-61.5 132t-6 190.5l7 45q14 104 53 185.5t91.5 131.5t119.5 83t132 45.5t136 12.5h414l-209 -1597h-213zM328 1126l-2 -16q-33 -265 192 -297l78 594q-235 -29 -268 -281z" />
    <glyph glyph-name="periodcentered" unicode="&#xb7;" horiz-adv-x="479" 
d="M365 834l-31 -234h-234l31 234h234z" />
    <glyph glyph-name="cedilla" unicode="&#xb8;" horiz-adv-x="1232" 
d="M369 -436q-133 0 -203 51l51 106q55 -38 152 -38q106 0 106 61q0 53 -110 53l-66 -6l-29 51l82 158h119l-53 -102q82 -2 135 -39.5t53 -114.5q0 -88 -65.5 -134t-171.5 -46z" />
    <glyph glyph-name="onesuperior" unicode="&#xb9;" 
d="M580 799h-514l18 143h174l59 453l-137 -84l-65 119l272 167h121l-86 -655h176z" />
    <glyph glyph-name="ordmasculine" unicode="&#xba;" horiz-adv-x="874" 
d="M858 1219l-6 -45q-26 -189 -129.5 -294.5t-267.5 -105.5q-80 0 -141.5 20t-100 56t-61.5 86t-27 111t4 131l6 45q26 189 129.5 294t267.5 105q132 0 211.5 -53.5t105 -141.5t9.5 -208zM45 414l21 157h690l-21 -157h-690zM670 1174l6 45q33 245 -150 245q-87 0 -140.5 -62
t-68.5 -179l-6 -45q-33 -246 150 -246q87 0 140.5 62t68.5 180z" />
    <glyph glyph-name="guillemotright" unicode="&#xbb;" horiz-adv-x="1093" 
d="M500 291l26 201l308 213l-252 213l24 184l387 -309l-24 -193zM39 291l27 201l307 213l-252 213l24 184l387 -309l-24 -193z" />
    <glyph glyph-name="onequarter" unicode="&#xbc;" horiz-adv-x="1638" 
d="M580 799h-514l18 143h174l59 453l-137 -84l-65 119l272 167h121l-86 -655h176zM233 0h-208l1388 1597h209zM1423 0h-163l24 174h-311l16 119l385 506h156l-64 -482h86l-18 -143h-86zM1331 537l-168 -222l54 2h86l20 160z" />
    <glyph glyph-name="onehalf" unicode="&#xbd;" horiz-adv-x="1638" 
d="M580 799h-514l18 143h174l59 453l-137 -84l-65 119l272 167h121l-86 -655h176zM233 0h-208l1388 1597h209zM1292 143h219l-18 -143h-524l14 102l350 340q37 37 51 59t17 50l2 16q6 51 -15.5 76t-62.5 25h-12q-100 0 -111 -136h-164l2 17q31 262 279 262
q139 0 200.5 -67.5t49.5 -163.5l-2 -17q-7 -59 -31.5 -99t-83.5 -97l-233 -226z" />
    <glyph glyph-name="threequarters" unicode="&#xbe;" horiz-adv-x="1638" 
d="M240 1055q-17 -127 84 -127h12q94 0 104 94l2 16q12 97 -84 97h-108l18 143h107q95 0 106 86l2 16q4 39 -18.5 62.5t-61.5 23.5h-12q-49 0 -76.5 -31t-33.5 -104h-164l2 17q31 262 278 262q138 0 200 -67t52 -157l-2 -16q-9 -67 -42 -109.5t-83 -56.5q46 -14 69.5 -63
t14.5 -119l-2 -16q-5 -41 -22.5 -78.5t-49.5 -70.5t-84 -53t-118 -20q-141 0 -205.5 69t-50.5 185l2 17h164zM233 0h-208l1388 1597h209zM1423 0h-163l24 174h-311l16 119l385 506h156l-64 -482h86l-18 -143h-86zM1331 537l-168 -222l54 2h86l20 160z" />
    <glyph glyph-name="questiondown" unicode="&#xbf;" horiz-adv-x="962" 
d="M338 -248q129 0 193.5 93t82.5 278h211l-2 -14q-19 -132 -51 -227t-87.5 -168.5t-142 -110.5t-204.5 -37q-206 0 -302.5 86t-96.5 231q0 82 22 151t58 120t80.5 96.5t92 90t89 90t74.5 107.5t46 132h144q-6 -74 -31.5 -141.5t-60.5 -119.5t-76 -100.5t-80.5 -93.5
t-72 -89.5t-52.5 -97.5t-20 -108q0 -168 186 -168zM643 1085l-31 -233h-233l31 233h233z" />
    <glyph glyph-name="Agrave" unicode="&#xc0;" horiz-adv-x="1271" 
d="M559 1946h219l88 -226h-209zM598 1610h297l229 -1610h-225l-51 385h-516l-150 -385h-235zM721 1370l-315 -797h417z" />
    <glyph glyph-name="Aacute" unicode="&#xc1;" horiz-adv-x="1271" 
d="M807 1946h219l-160 -226h-209zM598 1610h297l229 -1610h-225l-51 385h-516l-150 -385h-235zM721 1370l-315 -797h417z" />
    <glyph glyph-name="Acircumflex" unicode="&#xc2;" horiz-adv-x="1271" 
d="M1094 1720h-193l-117 121l-153 -121h-201l262 226h201zM598 1610h297l229 -1610h-225l-51 385h-516l-150 -385h-235zM721 1370l-315 -797h417z" />
    <glyph glyph-name="Atilde" unicode="&#xc3;" horiz-adv-x="1271" 
d="M995 1925h127q-13 -105 -70 -157t-137 -52q-41 0 -83 16.5t-71.5 36t-63.5 36t-60 16.5q-29 0 -51.5 -20t-28.5 -60h-127q13 105 70 157t137 52q41 0 83 -16.5t71.5 -36t63.5 -36t60 -16.5q29 0 51.5 20t28.5 60zM598 1610h297l229 -1610h-225l-51 385h-516l-150 -385
h-235zM721 1370l-315 -797h417z" />
    <glyph glyph-name="Adieresis" unicode="&#xc4;" horiz-adv-x="1271" 
d="M723 1917l-23 -168h-202l22 168h203zM1057 1917l-23 -168h-203l23 168h203zM598 1610h297l229 -1610h-225l-51 385h-516l-150 -385h-235zM721 1370l-315 -797h417z" />
    <glyph glyph-name="Aring" unicode="&#xc5;" horiz-adv-x="1271" 
d="M598 1610h29q-62 52 -62 145q0 91 65.5 153t153.5 62q82 0 134.5 -52t52.5 -136q0 -105 -88 -172h12l229 -1610h-225l-51 385h-516l-150 -385h-235zM721 1370l-315 -797h417zM657 1755q0 -44 26 -71t69 -27q52 0 89.5 34t37.5 91q0 44 -26 71t-69 27q-52 0 -89.5 -34
t-37.5 -91z" />
    <glyph glyph-name="AE" unicode="&#xc6;" horiz-adv-x="1748" 
d="M717 1597h1059l-25 -188h-733l6 -500h559l-24 -188h-533l6 -533h559l-24 -188h-758l-4 397h-455l-190 -397h-230zM799 1343l-359 -757h363z" />
    <glyph glyph-name="Ccedilla" unicode="&#xc7;" horiz-adv-x="1290" 
d="M543 -436q-133 0 -203 51l51 106q55 -38 152 -38q106 0 106 61q0 53 -110 53l-66 -6l-29 51l70 138q-263 22 -364 206.5t-50 565.5l13 94q54 410 209 593t440 183q278 0 395 -139t76 -422l-8 -55h-215q30 224 -23.5 326t-216.5 102h-16q-183 0 -283.5 -140.5
t-140.5 -447.5l-13 -94q-40 -307 23.5 -447.5t249.5 -140.5h16q155 0 236.5 93t105.5 273h213l-2 -20q-26 -252 -160.5 -388t-365.5 -147l-41 -77q82 -2 135 -39.5t53 -114.5q0 -88 -65.5 -134t-171.5 -46z" />
    <glyph glyph-name="Egrave" unicode="&#xc8;" horiz-adv-x="1140" 
d="M532 1946h220l88 -226h-209zM246 1597h921l-24 -188h-709l-65 -500h606l-25 -188h-606l-70 -533h709l-25 -188h-921z" />
    <glyph glyph-name="Eacute" unicode="&#xc9;" horiz-adv-x="1140" 
d="M780 1946h219l-159 -226h-209zM246 1597h921l-24 -188h-709l-65 -500h606l-25 -188h-606l-70 -533h709l-25 -188h-921z" />
    <glyph glyph-name="Ecircumflex" unicode="&#xca;" horiz-adv-x="1140" 
d="M1067 1720h-193l-116 121l-154 -121h-201l263 226h200zM246 1597h921l-24 -188h-709l-65 -500h606l-25 -188h-606l-70 -533h709l-25 -188h-921z" />
    <glyph glyph-name="Edieresis" unicode="&#xcb;" horiz-adv-x="1140" 
d="M696 1917l-22 -168h-203l23 168h202zM1030 1917l-22 -168h-203l22 168h203zM246 1597h921l-24 -188h-709l-65 -500h606l-25 -188h-606l-70 -533h709l-25 -188h-921z" />
    <glyph glyph-name="Igrave" unicode="&#xcc;" horiz-adv-x="507" 
d="M176 1946h219l88 -226h-209zM469 1597l-209 -1597h-213l209 1597h213z" />
    <glyph glyph-name="Iacute" unicode="&#xcd;" horiz-adv-x="507" 
d="M424 1946h219l-160 -226h-209zM469 1597l-209 -1597h-213l209 1597h213z" />
    <glyph glyph-name="Icircumflex" unicode="&#xce;" horiz-adv-x="507" 
d="M711 1720h-193l-117 121l-153 -121h-201l262 226h201zM469 1597l-209 -1597h-213l209 1597h213z" />
    <glyph glyph-name="Idieresis" unicode="&#xcf;" horiz-adv-x="507" 
d="M340 1917l-23 -168h-202l22 168h203zM674 1917l-23 -168h-202l22 168h203zM469 1597l-209 -1597h-213l209 1597h213z" />
    <glyph glyph-name="Eth" unicode="&#xd0;" horiz-adv-x="1447" 
d="M55 909h224l90 688h430q151 0 263 -42.5t187.5 -131t103 -234.5t1.5 -343l-13 -94q-27 -206 -85.5 -350.5t-151 -233t-212.5 -128.5t-278 -40h-454l94 721h-223zM397 188h217q224 0 347.5 133.5t162.5 430.5l13 94q38 294 -51 428.5t-312 134.5h-217l-65 -500h397
l-25 -188h-397z" />
    <glyph glyph-name="Ntilde" unicode="&#xd1;" horiz-adv-x="1366" 
d="M1042 1925h127q-13 -105 -69.5 -157t-136.5 -52q-41 0 -83.5 16.5t-71.5 36t-63.5 36t-60.5 16.5q-29 0 -51.5 -20t-28.5 -60h-127q13 105 70 157t137 52q41 0 83.5 -16.5t71.5 -36t63.5 -36t60.5 -16.5q29 0 51 20t28 60zM1337 1597l-209 -1597h-223l-510 1221l-39 -355
l-112 -866h-207l209 1597h223l510 -1220l39 354l112 866h207z" />
    <glyph glyph-name="Ograve" unicode="&#xd2;" horiz-adv-x="1345" 
d="M596 1946h219l88 -226h-209zM758 1622q311 0 429 -182.5t64 -593.5l-12 -94q-54 -411 -207.5 -594t-437.5 -183q-311 0 -429.5 183t-64.5 594l13 94q54 411 207.5 593.5t437.5 182.5zM586 164h16q183 0 281.5 140t138.5 448l12 94q40 307 -22.5 447.5t-245.5 140.5h-16
q-183 0 -281.5 -140t-138.5 -448l-13 -94q-40 -307 23 -447.5t246 -140.5z" />
    <glyph glyph-name="Oacute" unicode="&#xd3;" horiz-adv-x="1345" 
d="M844 1946h219l-160 -226h-209zM758 1622q311 0 429 -182.5t64 -593.5l-12 -94q-54 -411 -207.5 -594t-437.5 -183q-311 0 -429.5 183t-64.5 594l13 94q54 411 207.5 593.5t437.5 182.5zM586 164h16q183 0 281.5 140t138.5 448l12 94q40 307 -22.5 447.5t-245.5 140.5h-16
q-183 0 -281.5 -140t-138.5 -448l-13 -94q-40 -307 23 -447.5t246 -140.5z" />
    <glyph glyph-name="Ocircumflex" unicode="&#xd4;" horiz-adv-x="1345" 
d="M1130 1720h-192l-117 121l-153 -121h-201l262 226h201zM758 1622q311 0 429 -182.5t64 -593.5l-12 -94q-54 -411 -207.5 -594t-437.5 -183q-311 0 -429.5 183t-64.5 594l13 94q54 411 207.5 593.5t437.5 182.5zM586 164h16q183 0 281.5 140t138.5 448l12 94
q40 307 -22.5 447.5t-245.5 140.5h-16q-183 0 -281.5 -140t-138.5 -448l-13 -94q-40 -307 23 -447.5t246 -140.5z" />
    <glyph glyph-name="Otilde" unicode="&#xd5;" horiz-adv-x="1345" 
d="M1032 1925h127q-13 -105 -70 -157t-137 -52q-41 0 -83 16.5t-71.5 36t-63.5 36t-60 16.5q-29 0 -51.5 -20t-28.5 -60h-127q13 105 70 157t137 52q41 0 83 -16.5t71.5 -36t63.5 -36t60 -16.5q29 0 51.5 20t28.5 60zM758 1622q311 0 429 -182.5t64 -593.5l-12 -94
q-54 -411 -207.5 -594t-437.5 -183q-311 0 -429.5 183t-64.5 594l13 94q54 411 207.5 593.5t437.5 182.5zM586 164h16q183 0 281.5 140t138.5 448l12 94q40 307 -22.5 447.5t-245.5 140.5h-16q-183 0 -281.5 -140t-138.5 -448l-13 -94q-40 -307 23 -447.5t246 -140.5z" />
    <glyph glyph-name="Odieresis" unicode="&#xd6;" horiz-adv-x="1345" 
d="M760 1917l-23 -168h-202l22 168h203zM1094 1917l-23 -168h-203l23 168h203zM758 1622q311 0 429 -182.5t64 -593.5l-12 -94q-54 -411 -207.5 -594t-437.5 -183q-311 0 -429.5 183t-64.5 594l13 94q54 411 207.5 593.5t437.5 182.5zM586 164h16q183 0 281.5 140t138.5 448
l12 94q40 307 -22.5 447.5t-245.5 140.5h-16q-183 0 -281.5 -140t-138.5 -448l-13 -94q-40 -307 23 -447.5t246 -140.5z" />
    <glyph glyph-name="multiply" unicode="&#xd7;" horiz-adv-x="1228" 
d="M600 664l-467 -412l-117 135l465 412l-356 411l154 136l356 -412l467 412l117 -136l-465 -411l356 -412l-154 -135z" />
    <glyph glyph-name="Oslash" unicode="&#xd8;" horiz-adv-x="1329" 
d="M1251 846l-12 -94q-54 -411 -207.5 -594t-437.5 -183q-238 0 -363 107l-61 -82h-172l145 197q-89 183 -43 555l13 94q54 411 207.5 593.5t437.5 182.5q238 0 362 -106l62 81h172l-146 -196q89 -183 43 -555zM330 846l-13 -94q-26 -202 -8 -332l678 915q-71 99 -221 99
h-16q-183 0 -281.5 -140t-138.5 -448zM1022 752l12 94q26 202 8 332l-677 -916q70 -98 221 -98h16q183 0 281.5 140t138.5 448z" />
    <glyph glyph-name="Ugrave" unicode="&#xd9;" horiz-adv-x="1325" 
d="M586 1946h219l88 -226h-209zM578 -25q-282 0 -401.5 126t-84.5 397l144 1099h213l-142 -1089q-24 -187 40 -265.5t235 -78.5t257.5 79t110.5 265l144 1089h213l-146 -1099q-36 -277 -170.5 -400t-412.5 -123z" />
    <glyph glyph-name="Uacute" unicode="&#xda;" horiz-adv-x="1325" 
d="M834 1946h219l-160 -226h-209zM578 -25q-282 0 -401.5 126t-84.5 397l144 1099h213l-142 -1089q-24 -187 40 -265.5t235 -78.5t257.5 79t110.5 265l144 1089h213l-146 -1099q-36 -277 -170.5 -400t-412.5 -123z" />
    <glyph glyph-name="Ucircumflex" unicode="&#xdb;" horiz-adv-x="1325" 
d="M1120 1720h-192l-117 121l-154 -121h-200l262 226h201zM578 -25q-282 0 -401.5 126t-84.5 397l144 1099h213l-142 -1089q-24 -187 40 -265.5t235 -78.5t257.5 79t110.5 265l144 1089h213l-146 -1099q-36 -277 -170.5 -400t-412.5 -123z" />
    <glyph glyph-name="Udieresis" unicode="&#xdc;" horiz-adv-x="1325" 
d="M750 1917l-23 -168h-203l23 168h203zM1083 1917l-22 -168h-203l23 168h202zM578 -25q-282 0 -401.5 126t-84.5 397l144 1099h213l-142 -1089q-24 -187 40 -265.5t235 -78.5t257.5 79t110.5 265l144 1089h213l-146 -1099q-36 -277 -170.5 -400t-412.5 -123z" />
    <glyph glyph-name="Yacute" unicode="&#xdd;" horiz-adv-x="1216" 
d="M778 1946h219l-159 -226h-209zM678 485l-64 -485h-213l64 485l-324 1112h228l233 -847l455 847h235z" />
    <glyph glyph-name="Thorn" unicode="&#xde;" horiz-adv-x="1200" 
d="M315 498h271q41 0 79 7t79.5 26.5t73.5 50t56.5 82t32.5 118.5l2 17q38 299 -250 299h-266zM459 1597l-41 -311h246q77 0 146 -12.5t135.5 -46t111 -85t65.5 -135.5t6 -192l-6 -45q-14 -104 -53 -185.5t-91.5 -132t-119.5 -83t-132 -45.5t-136 -13h-299l-41 -311h-213
l209 1597h213z" />
    <glyph glyph-name="germandbls" unicode="&#xdf;" horiz-adv-x="1212" 
d="M549 733l16 131q170 84 244 177.5t74 230.5q0 97 -54 152t-163 55q-125 0 -196 -70t-85 -186l-160 -1223h-205l162 1237q26 195 148 310.5t336 115.5q122 0 210 -33t136 -92t66 -134.5t7 -166.5l-2 -16q-18 -141 -89 -234t-212 -174l74 -55q97 -73 152 -132.5t82 -132.5
t16 -159l-2 -17q-7 -55 -23 -102.5t-47 -92.5t-74 -77t-108 -51t-145 -19q-381 0 -330 347l2 14h188q-15 -99 14.5 -148t131.5 -49q97 0 142.5 57.5t45.5 149.5q0 72 -47.5 134t-153.5 141z" />
    <glyph glyph-name="agrave" unicode="&#xe0;" horiz-adv-x="1075" 
d="M340 1597h225l140 -354h-209zM692 0v137q-63 -73 -159 -117.5t-218 -44.5q-155 0 -235 93t-62 227l2 16q11 84 44.5 144t90.5 97t120.5 58t152.5 35l311 49l4 31q15 121 -25.5 171t-164.5 50q-66 0 -112.5 -17t-72 -49.5t-38.5 -68.5t-19 -84h-194l2 14q54 369 434 369
q234 0 326.5 -103t66.5 -296l-53 -404l-25 -307h-176zM383 147q59 0 111 14.5t89 39.5t61 47t42 47l35 258l-275 -43q-103 -17 -155.5 -60.5t-61.5 -117.5l-2 -17q-8 -67 32.5 -117.5t123.5 -50.5z" />
    <glyph glyph-name="aacute" unicode="&#xe1;" horiz-adv-x="1075" 
d="M729 1597h225l-249 -354h-209zM692 0v137q-63 -73 -159 -117.5t-218 -44.5q-155 0 -235 93t-62 227l2 16q11 84 44.5 144t90.5 97t120.5 58t152.5 35l311 49l4 31q15 121 -25.5 171t-164.5 50q-66 0 -112.5 -17t-72 -49.5t-38.5 -68.5t-19 -84h-194l2 14q54 369 434 369
q234 0 326.5 -103t66.5 -296l-53 -404l-25 -307h-176zM383 147q59 0 111 14.5t89 39.5t61 47t42 47l35 258l-275 -43q-103 -17 -155.5 -60.5t-61.5 -117.5l-2 -17q-8 -67 32.5 -117.5t123.5 -50.5z" />
    <glyph glyph-name="acircumflex" unicode="&#xe2;" horiz-adv-x="1075" 
d="M430 1243h-197l318 354h192l224 -354h-189l-145 207zM692 0v137q-63 -73 -159 -117.5t-218 -44.5q-155 0 -235 93t-62 227l2 16q11 84 44.5 144t90.5 97t120.5 58t152.5 35l311 49l4 31q15 121 -25.5 171t-164.5 50q-66 0 -112.5 -17t-72 -49.5t-38.5 -68.5t-19 -84h-194
l2 14q54 369 434 369q234 0 326.5 -103t66.5 -296l-53 -404l-25 -307h-176zM383 147q59 0 111 14.5t89 39.5t61 47t42 47l35 258l-275 -43q-103 -17 -155.5 -60.5t-61.5 -117.5l-2 -17q-8 -67 32.5 -117.5t123.5 -50.5z" />
    <glyph glyph-name="atilde" unicode="&#xe3;" horiz-adv-x="1075" 
d="M848 1546h145q-6 -121 -67 -186.5t-154 -65.5q-46 0 -89.5 17.5t-72 38t-62.5 38t-61 17.5q-74 0 -84 -84h-145q6 121 67 186.5t154 65.5q46 0 89.5 -17.5t72 -38t62.5 -38t61 -17.5q74 0 84 84zM692 0v137q-63 -73 -159 -117.5t-218 -44.5q-155 0 -235 93t-62 227l2 16
q11 84 44.5 144t90.5 97t120.5 58t152.5 35l311 49l4 31q15 121 -25.5 171t-164.5 50q-66 0 -112.5 -17t-72 -49.5t-38.5 -68.5t-19 -84h-194l2 14q54 369 434 369q234 0 326.5 -103t66.5 -296l-53 -404l-25 -307h-176zM383 147q59 0 111 14.5t89 39.5t61 47t42 47l35 258
l-275 -43q-103 -17 -155.5 -60.5t-61.5 -117.5l-2 -17q-8 -67 32.5 -117.5t123.5 -50.5z" />
    <glyph glyph-name="adieresis" unicode="&#xe4;" horiz-adv-x="1075" 
d="M569 1544l-30 -233h-234l31 233h233zM944 1544l-31 -233h-233l31 233h233zM692 0v137q-63 -73 -159 -117.5t-218 -44.5q-155 0 -235 93t-62 227l2 16q11 84 44.5 144t90.5 97t120.5 58t152.5 35l311 49l4 31q15 121 -25.5 171t-164.5 50q-66 0 -112.5 -17t-72 -49.5
t-38.5 -68.5t-19 -84h-194l2 14q54 369 434 369q234 0 326.5 -103t66.5 -296l-53 -404l-25 -307h-176zM383 147q59 0 111 14.5t89 39.5t61 47t42 47l35 258l-275 -43q-103 -17 -155.5 -60.5t-61.5 -117.5l-2 -17q-8 -67 32.5 -117.5t123.5 -50.5z" />
    <glyph glyph-name="aring" unicode="&#xe5;" horiz-adv-x="1075" 
d="M827 1434q0 -91 -65.5 -153t-153.5 -62q-82 0 -134 52t-52 136q0 91 65.5 153t153.5 62q82 0 134 -52t52 -136zM514 1407q0 -44 25.5 -71t68.5 -27q52 0 89.5 34t37.5 91q0 44 -25.5 71t-68.5 27q-52 0 -89.5 -34t-37.5 -91zM692 0v137q-63 -73 -159 -117.5t-218 -44.5
q-155 0 -235 93t-62 227l2 16q11 84 44.5 144t90.5 97t120.5 58t152.5 35l311 49l4 31q15 121 -25.5 171t-164.5 50q-66 0 -112.5 -17t-72 -49.5t-38.5 -68.5t-19 -84h-194l2 14q54 369 434 369q234 0 326.5 -103t66.5 -296l-53 -404l-25 -307h-176zM383 147q59 0 111 14.5
t89 39.5t61 47t42 47l35 258l-275 -43q-103 -17 -155.5 -60.5t-61.5 -117.5l-2 -17q-8 -67 32.5 -117.5t123.5 -50.5z" />
    <glyph glyph-name="ae" unicode="&#xe6;" horiz-adv-x="1775" 
d="M1657 465h-744q-28 -322 254 -322q129 0 197 57.5t80 147.5h196l-2 -14q-22 -154 -144 -256.5t-331 -102.5q-288 0 -399 191q-182 -191 -449 -191q-155 0 -235 93t-62 227l2 16q11 84 44.5 144t90.5 97t120.5 58t152.5 35l311 49l4 31q15 121 -25.5 171t-164.5 50
q-66 0 -112.5 -17t-72 -49.5t-38.5 -68.5t-19 -84h-194l2 14q54 369 434 369q278 0 340 -164q122 164 356 164q163 0 266.5 -73.5t139.5 -196.5t14 -285zM383 147q201 0 328 179q-13 96 2 198l4 27l-271 -41q-103 -17 -155.5 -60.5t-61.5 -117.5l-2 -17q-8 -67 32.5 -117.5
t123.5 -50.5zM1245 942q-124 0 -207.5 -86t-103.5 -235h536q39 321 -225 321z" />
    <glyph glyph-name="ccedilla" unicode="&#xe7;" horiz-adv-x="1071" 
d="M266 569l-6 -45q-51 -368 211 -368q118 0 188.5 66.5t81.5 162.5h195l-2 -14q-11 -80 -40.5 -146.5t-78.5 -121t-126 -87.5t-175 -39l-41 -79q82 -2 135.5 -39.5t53.5 -114.5q0 -87 -66 -133.5t-172 -46.5q-133 0 -203 51l51 106q55 -38 152 -38q106 0 106 61
q0 53 -110 53l-66 -6l-28 51l71 138q-136 15 -221.5 91.5t-114 191.5t-8.5 261l6 45q16 118 57 215t105.5 171t159.5 114.5t213 40.5t201 -34t125 -94t55.5 -132t1.5 -156l-2 -14h-193q5 56 -1 98.5t-26 78t-61.5 54.5t-103.5 19q-133 0 -216.5 -95.5t-107.5 -265.5z" />
    <glyph glyph-name="egrave" unicode="&#xe8;" horiz-adv-x="1122" 
d="M367 1597h225l139 -354h-209zM997 465h-743q-28 -322 254 -322q129 0 196.5 57.5t79.5 147.5h197l-2 -14q-22 -154 -144 -256.5t-331 -102.5q-108 0 -192 28t-137 78t-86.5 119t-39.5 150.5t4 173.5l6 45q17 119 56.5 215.5t103.5 170.5t158.5 114.5t212.5 40.5
q163 0 266.5 -73.5t139.5 -196.5t14 -285zM586 942q-125 0 -208.5 -86t-103.5 -235h537q39 321 -225 321z" />
    <glyph glyph-name="eacute" unicode="&#xe9;" horiz-adv-x="1122" 
d="M756 1597h225l-250 -354h-209zM997 465h-743q-28 -322 254 -322q129 0 196.5 57.5t79.5 147.5h197l-2 -14q-22 -154 -144 -256.5t-331 -102.5q-108 0 -192 28t-137 78t-86.5 119t-39.5 150.5t4 173.5l6 45q17 119 56.5 215.5t103.5 170.5t158.5 114.5t212.5 40.5
q163 0 266.5 -73.5t139.5 -196.5t14 -285zM586 942q-125 0 -208.5 -86t-103.5 -235h537q39 321 -225 321z" />
    <glyph glyph-name="ecircumflex" unicode="&#xea;" horiz-adv-x="1122" 
d="M457 1243h-197l318 354h192l223 -354h-188l-146 207zM997 465h-743q-28 -322 254 -322q129 0 196.5 57.5t79.5 147.5h197l-2 -14q-22 -154 -144 -256.5t-331 -102.5q-108 0 -192 28t-137 78t-86.5 119t-39.5 150.5t4 173.5l6 45q17 119 56.5 215.5t103.5 170.5
t158.5 114.5t212.5 40.5q163 0 266.5 -73.5t139.5 -196.5t14 -285zM586 942q-125 0 -208.5 -86t-103.5 -235h537q39 321 -225 321z" />
    <glyph glyph-name="edieresis" unicode="&#xeb;" horiz-adv-x="1122" 
d="M596 1544l-31 -233h-233l30 233h234zM971 1544l-31 -233h-233l30 233h234zM997 465h-743q-28 -322 254 -322q129 0 196.5 57.5t79.5 147.5h197l-2 -14q-22 -154 -144 -256.5t-331 -102.5q-108 0 -192 28t-137 78t-86.5 119t-39.5 150.5t4 173.5l6 45q17 119 56.5 215.5
t103.5 170.5t158.5 114.5t212.5 40.5q163 0 266.5 -73.5t139.5 -196.5t14 -285zM586 942q-125 0 -208.5 -86t-103.5 -235h537q39 321 -225 321z" />
    <glyph glyph-name="igrave" unicode="&#xec;" horiz-adv-x="479" 
d="M41 1597h225l140 -354h-209zM37 0l141 1085h205l-141 -1085h-205z" />
    <glyph glyph-name="iacute" unicode="&#xed;" horiz-adv-x="479" 
d="M430 1597h225l-249 -354h-209zM37 0l141 1085h205l-141 -1085h-205z" />
    <glyph glyph-name="icircumflex" unicode="&#xee;" horiz-adv-x="479" 
d="M131 1243h-197l318 354h192l224 -354h-189l-145 207zM37 0l141 1085h205l-141 -1085h-205z" />
    <glyph glyph-name="idieresis" unicode="&#xef;" horiz-adv-x="479" 
d="M270 1544l-30 -233h-234l31 233h233zM645 1544l-31 -233h-233l31 233h233zM37 0l141 1085h205l-141 -1085h-205z" />
    <glyph glyph-name="eth" unicode="&#xf0;" horiz-adv-x="1122" 
d="M178 1477l25 186q308 -24 491 -137l260 137l-16 -137l-143 -76q48 -45 88 -100q55 -75 89.5 -174.5t46 -205.5t9.5 -207t-16 -202l-6 -45q-17 -119 -56 -215.5t-102.5 -170.5t-157 -114.5t-211.5 -40.5q-122 0 -212.5 42.5t-141.5 117.5t-69.5 173.5t-2.5 215.5l6 45
q17 119 56 215.5t102.5 170.5t157 114.5t211.5 40.5q134 0 209 -59q-31 106 -88 180q-48 62 -119 110l-381 -200l16 137l248 131q-113 48 -293 68zM483 156q132 0 212 94.5t104 265.5l6 45q24 173 -32 271t-191 98q-132 0 -212 -95t-104 -266l-6 -45q-24 -174 31 -271
t192 -97z" />
    <glyph glyph-name="ntilde" unicode="&#xf1;" horiz-adv-x="1116" 
d="M874 1546h146q-6 -121 -67 -186.5t-154 -65.5q-46 0 -89.5 17.5t-72 38t-62.5 38t-61 17.5q-74 0 -84 -84h-145q6 121 67 186.5t154 65.5q46 0 89.5 -17.5t72 -38t62.5 -38t61 -17.5q73 0 83 84zM901 0h-205l95 717q12 99 -33 156t-148 57q-162 0 -276 -150l-103 -780
h-204l102 778l25 307h176v-145q136 170 366 170q112 0 186.5 -51t102 -131.5t14.5 -179.5z" />
    <glyph glyph-name="ograve" unicode="&#xf2;" horiz-adv-x="1122" 
d="M362 1597h226l139 -354h-209zM483 156q132 0 212 94.5t104 265.5l6 45q24 174 -31 271.5t-192 97.5q-132 0 -212 -95t-104 -266l-6 -45q-24 -174 31 -271t192 -97zM586 1110q122 0 212.5 -42.5t141.5 -117.5t69.5 -173.5t2.5 -215.5l-6 -45q-17 -119 -56 -215.5
t-102.5 -170.5t-157 -114.5t-211.5 -40.5q-122 0 -212.5 42.5t-141.5 117.5t-69.5 173.5t-2.5 215.5l6 45q17 119 56 215.5t102.5 170.5t157 114.5t211.5 40.5z" />
    <glyph glyph-name="oacute" unicode="&#xf3;" horiz-adv-x="1122" 
d="M752 1597h225l-250 -354h-209zM483 156q132 0 212 94.5t104 265.5l6 45q24 174 -31 271.5t-192 97.5q-132 0 -212 -95t-104 -266l-6 -45q-24 -174 31 -271t192 -97zM586 1110q122 0 212.5 -42.5t141.5 -117.5t69.5 -173.5t2.5 -215.5l-6 -45q-17 -119 -56 -215.5
t-102.5 -170.5t-157 -114.5t-211.5 -40.5q-122 0 -212.5 42.5t-141.5 117.5t-69.5 173.5t-2.5 215.5l6 45q17 119 56 215.5t102.5 170.5t157 114.5t211.5 40.5z" />
    <glyph glyph-name="ocircumflex" unicode="&#xf4;" horiz-adv-x="1122" 
d="M453 1243h-197l317 354h193l223 -354h-188l-146 207zM483 156q132 0 212 94.5t104 265.5l6 45q24 174 -31 271.5t-192 97.5q-132 0 -212 -95t-104 -266l-6 -45q-24 -174 31 -271t192 -97zM586 1110q122 0 212.5 -42.5t141.5 -117.5t69.5 -173.5t2.5 -215.5l-6 -45
q-17 -119 -56 -215.5t-102.5 -170.5t-157 -114.5t-211.5 -40.5q-122 0 -212.5 42.5t-141.5 117.5t-69.5 173.5t-2.5 215.5l6 45q17 119 56 215.5t102.5 170.5t157 114.5t211.5 40.5z" />
    <glyph glyph-name="otilde" unicode="&#xf5;" horiz-adv-x="1122" 
d="M870 1546h146q-6 -121 -67 -186.5t-154 -65.5q-46 0 -89.5 17.5t-72 38t-62.5 38t-61 17.5q-74 0 -84 -84h-145q6 121 67 186.5t154 65.5q46 0 89.5 -17.5t71.5 -38t62 -38t61 -17.5q74 0 84 84zM483 156q132 0 212 94.5t104 265.5l6 45q24 174 -31 271.5t-192 97.5
q-132 0 -212 -95t-104 -266l-6 -45q-24 -174 31 -271t192 -97zM586 1110q122 0 212.5 -42.5t141.5 -117.5t69.5 -173.5t2.5 -215.5l-6 -45q-17 -119 -56 -215.5t-102.5 -170.5t-157 -114.5t-211.5 -40.5q-122 0 -212.5 42.5t-141.5 117.5t-69.5 173.5t-2.5 215.5l6 45
q17 119 56 215.5t102.5 170.5t157 114.5t211.5 40.5z" />
    <glyph glyph-name="odieresis" unicode="&#xf6;" horiz-adv-x="1122" 
d="M592 1544l-31 -233h-233l30 233h234zM967 1544l-31 -233h-234l31 233h234zM483 156q132 0 212 94.5t104 265.5l6 45q24 174 -31 271.5t-192 97.5q-132 0 -212 -95t-104 -266l-6 -45q-24 -174 31 -271t192 -97zM586 1110q122 0 212.5 -42.5t141.5 -117.5t69.5 -173.5
t2.5 -215.5l-6 -45q-17 -119 -56 -215.5t-102.5 -170.5t-157 -114.5t-211.5 -40.5q-122 0 -212.5 42.5t-141.5 117.5t-69.5 173.5t-2.5 215.5l6 45q17 119 56 215.5t102.5 170.5t157 114.5t211.5 40.5z" />
    <glyph glyph-name="divide" unicode="&#xf7;" horiz-adv-x="1228" 
d="M84 705l25 188h1040l-25 -188h-1040zM807 1352l-31 -234h-233l30 234h234zM426 246l31 233h233l-31 -233h-233z" />
    <glyph glyph-name="oslash" unicode="&#xf8;" horiz-adv-x="1122" 
d="M135 0h-149l131 150q-95 152 -64 374l6 45q17 119 56 215.5t102.5 170.5t157 114.5t211.5 40.5q175 0 286 -90l58 65h149l-131 -149q95 -152 64 -375l-6 -45q-17 -119 -56 -215.5t-102.5 -170.5t-157 -114.5t-211.5 -40.5q-174 0 -286 91zM266 569l-6 -45
q-16 -124 4 -202l479 548q-57 60 -161 60q-132 0 -212 -95t-104 -266zM483 156q132 0 212 94.5t104 265.5l6 45q16 125 -4 203l-479 -549q56 -59 161 -59z" />
    <glyph glyph-name="ugrave" unicode="&#xf9;" horiz-adv-x="1116" 
d="M354 1597h226l139 -354h-209zM156 1085h204l-94 -716q-12 -99 32.5 -156t147.5 -57q93 0 162.5 45t114.5 104l102 780h205l-102 -778l-25 -307h-176v145q-136 -170 -367 -170q-112 0 -186.5 51t-102 132t-14.5 180z" />
    <glyph glyph-name="uacute" unicode="&#xfa;" horiz-adv-x="1116" 
d="M743 1597h226l-250 -354h-209zM156 1085h204l-94 -716q-12 -99 32.5 -156t147.5 -57q93 0 162.5 45t114.5 104l102 780h205l-102 -778l-25 -307h-176v145q-136 -170 -367 -170q-112 0 -186.5 51t-102 132t-14.5 180z" />
    <glyph glyph-name="ucircumflex" unicode="&#xfb;" horiz-adv-x="1116" 
d="M444 1243h-196l317 354h193l223 -354h-188l-146 207zM156 1085h204l-94 -716q-12 -99 32.5 -156t147.5 -57q93 0 162.5 45t114.5 104l102 780h205l-102 -778l-25 -307h-176v145q-136 -170 -367 -170q-112 0 -186.5 51t-102 132t-14.5 180z" />
    <glyph glyph-name="udieresis" unicode="&#xfc;" horiz-adv-x="1116" 
d="M584 1544l-31 -233h-234l31 233h234zM958 1544l-30 -233h-234l31 233h233zM156 1085h204l-94 -716q-12 -99 32.5 -156t147.5 -57q93 0 162.5 45t114.5 104l102 780h205l-102 -778l-25 -307h-176v145q-136 -170 -367 -170q-112 0 -186.5 51t-102 132t-14.5 180z" />
    <glyph glyph-name="yacute" unicode="&#xfd;" horiz-adv-x="1038" 
d="M721 1597h225l-250 -354h-209zM465 262l379 823h223l-518 -1038l-211 -457h-236l224 441l-250 1054h219z" />
    <glyph glyph-name="thorn" unicode="&#xfe;" horiz-adv-x="1126" 
d="M240 1638h204l-86 -655q47 51 122.5 89t170.5 38q92 0 162.5 -28t113 -77.5t68 -118.5t27.5 -151t-8 -174l-6 -45q-74 -541 -490 -541q-100 0 -170 41t-102 103l-72 -529h-205zM332 780l-62 -473q29 -59 87.5 -105t152.5 -46q116 0 191.5 95.5t99.5 264.5l6 45
q24 172 -24 270.5t-173 98.5q-177 0 -278 -150z" />
    <glyph glyph-name="ydieresis" unicode="&#xff;" horiz-adv-x="1038" 
d="M561 1544l-31 -233h-233l31 233h233zM936 1544l-31 -233h-233l30 233h234zM465 262l379 823h223l-518 -1038l-211 -457h-236l224 441l-250 1054h219z" />
    <glyph glyph-name="Amacron" unicode="&#x100;" horiz-adv-x="1271" 
d="M510 1761l18 144h521l-19 -144h-520zM598 1610h297l229 -1610h-225l-51 385h-516l-150 -385h-235zM721 1370l-315 -797h417z" />
    <glyph glyph-name="amacron" unicode="&#x101;" horiz-adv-x="1075" 
d="M350 1335l25 185h526l-24 -185h-527zM692 0v137q-63 -73 -159 -117.5t-218 -44.5q-155 0 -235 93t-62 227l2 16q11 84 44.5 144t90.5 97t120.5 58t152.5 35l311 49l4 31q15 121 -25.5 171t-164.5 50q-66 0 -112.5 -17t-72 -49.5t-38.5 -68.5t-19 -84h-194l2 14
q54 369 434 369q234 0 326.5 -103t66.5 -296l-53 -404l-25 -307h-176zM383 147q59 0 111 14.5t89 39.5t61 47t42 47l35 258l-275 -43q-103 -17 -155.5 -60.5t-61.5 -117.5l-2 -17q-8 -67 32.5 -117.5t123.5 -50.5z" />
    <glyph glyph-name="Abreve" unicode="&#x102;" horiz-adv-x="1271" 
d="M766 1694q-174 0 -244.5 69t-54.5 183h149q-8 -59 29 -91t125 -32q93 0 138 29.5t53 93.5h157q-16 -114 -102 -183t-250 -69zM598 1610h297l229 -1610h-225l-51 385h-516l-150 -385h-235zM721 1370l-315 -797h417z" />
    <glyph glyph-name="abreve" unicode="&#x103;" horiz-adv-x="1075" 
d="M610 1219q-182 0 -259.5 103t-51.5 275h154q-14 -103 25.5 -159t131.5 -56q203 0 224 215h161q-21 -183 -112.5 -280.5t-272.5 -97.5zM692 0v137q-63 -73 -159 -117.5t-218 -44.5q-155 0 -235 93t-62 227l2 16q11 84 44.5 144t90.5 97t120.5 58t152.5 35l311 49l4 31
q15 121 -25.5 171t-164.5 50q-66 0 -112.5 -17t-72 -49.5t-38.5 -68.5t-19 -84h-194l2 14q54 369 434 369q234 0 326.5 -103t66.5 -296l-53 -404l-25 -307h-176zM383 147q59 0 111 14.5t89 39.5t61 47t42 47l35 258l-275 -43q-103 -17 -155.5 -60.5t-61.5 -117.5l-2 -17
q-8 -67 32.5 -117.5t123.5 -50.5z" />
    <glyph glyph-name="Aogonek" unicode="&#x104;" horiz-adv-x="1271" 
d="M598 1610h297l229 -1610q-180 -74 -180 -195q0 -35 23 -59.5t61 -24.5q73 0 125 27l33 -139q-75 -45 -189 -45q-109 0 -167 52.5t-58 147.5q0 148 125 244l-49 377h-516l-150 -385h-235zM721 1370l-315 -797h417z" />
    <glyph glyph-name="aogonek" unicode="&#x105;" horiz-adv-x="1075" 
d="M868 0q-180 -74 -180 -195q0 -35 23 -59.5t61 -24.5q73 0 125 27l33 -139q-75 -45 -189 -45q-109 0 -167 52.5t-58 147.5q0 173 176 279v94q-63 -73 -159 -117.5t-218 -44.5q-155 0 -235 93t-62 227l2 16q11 84 44.5 144t90.5 97t120.5 58t152.5 35l311 49l4 31
q15 121 -25.5 171t-164.5 50q-66 0 -112.5 -17t-72 -49.5t-38.5 -68.5t-19 -84h-194l2 14q54 369 434 369q234 0 326.5 -103t66.5 -296l-53 -404zM383 147q59 0 111 14.5t89 39.5t61 47t42 47l35 258l-275 -43q-103 -17 -155.5 -60.5t-61.5 -117.5l-2 -17
q-8 -67 32.5 -117.5t123.5 -50.5z" />
    <glyph glyph-name="Cacute" unicode="&#x106;" horiz-adv-x="1290" 
d="M836 1946h219l-160 -226h-209zM330 846l-13 -94q-40 -307 23.5 -447.5t249.5 -140.5h16q155 0 236.5 93t105.5 273h213l-2 -20q-26 -261 -170 -398t-391 -137q-312 0 -432 183.5t-66 593.5l13 94q54 410 209 593t440 183q278 0 395 -139t76 -422l-8 -55h-215
q30 224 -23.5 326t-216.5 102h-16q-183 0 -283.5 -140.5t-140.5 -447.5z" />
    <glyph glyph-name="cacute" unicode="&#x107;" horiz-adv-x="1071" 
d="M741 1597h226l-250 -354h-209zM266 569l-6 -45q-51 -368 211 -368q118 0 188.5 66.5t81.5 162.5h195l-2 -14q-12 -84 -44 -153t-86.5 -125t-140 -87t-196.5 -31q-122 0 -211 42.5t-137 117.5t-65 173.5t-1 215.5l6 45q16 118 57 215t105.5 171t159.5 114.5t213 40.5
t201 -34t125 -94t55.5 -132t1.5 -156l-2 -14h-193q5 56 -1 98.5t-26 78t-61.5 54.5t-103.5 19q-133 0 -216.5 -95.5t-107.5 -265.5z" />
    <glyph glyph-name="Ccircumflex" unicode="&#x108;" horiz-adv-x="1290" 
d="M1122 1720h-192l-117 121l-154 -121h-200l262 226h201zM330 846l-13 -94q-40 -307 23.5 -447.5t249.5 -140.5h16q155 0 236.5 93t105.5 273h213l-2 -20q-26 -261 -170 -398t-391 -137q-312 0 -432 183.5t-66 593.5l13 94q54 410 209 593t440 183q278 0 395 -139t76 -422
l-8 -55h-215q30 224 -23.5 326t-216.5 102h-16q-183 0 -283.5 -140.5t-140.5 -447.5z" />
    <glyph glyph-name="ccircumflex" unicode="&#x109;" horiz-adv-x="1071" 
d="M442 1243h-196l317 354h193l223 -354h-188l-146 207zM266 569l-6 -45q-51 -368 211 -368q118 0 188.5 66.5t81.5 162.5h195l-2 -14q-12 -84 -44 -153t-86.5 -125t-140 -87t-196.5 -31q-122 0 -211 42.5t-137 117.5t-65 173.5t-1 215.5l6 45q16 118 57 215t105.5 171
t159.5 114.5t213 40.5t201 -34t125 -94t55.5 -132t1.5 -156l-2 -14h-193q5 56 -1 98.5t-26 78t-61.5 54.5t-103.5 19q-133 0 -216.5 -95.5t-107.5 -265.5z" />
    <glyph glyph-name="Cdotaccent" unicode="&#x10a;" horiz-adv-x="1290" 
d="M922 1917l-23 -168h-205l23 168h205zM330 846l-13 -94q-40 -307 23.5 -447.5t249.5 -140.5h16q155 0 236.5 93t105.5 273h213l-2 -20q-26 -261 -170 -398t-391 -137q-312 0 -432 183.5t-66 593.5l13 94q54 410 209 593t440 183q278 0 395 -139t76 -422l-8 -55h-215
q30 224 -23.5 326t-216.5 102h-16q-183 0 -283.5 -140.5t-140.5 -447.5z" />
    <glyph glyph-name="cdotaccent" unicode="&#x10b;" horiz-adv-x="1071" 
d="M770 1544l-31 -233h-233l31 233h233zM266 569l-6 -45q-51 -368 211 -368q118 0 188.5 66.5t81.5 162.5h195l-2 -14q-12 -84 -44 -153t-86.5 -125t-140 -87t-196.5 -31q-122 0 -211 42.5t-137 117.5t-65 173.5t-1 215.5l6 45q16 118 57 215t105.5 171t159.5 114.5
t213 40.5t201 -34t125 -94t55.5 -132t1.5 -156l-2 -14h-193q5 56 -1 98.5t-26 78t-61.5 54.5t-103.5 19q-133 0 -216.5 -95.5t-107.5 -265.5z" />
    <glyph glyph-name="Ccaron" unicode="&#x10c;" horiz-adv-x="1290" 
d="M489 1946h193l117 -121l153 121h201l-262 -226h-201zM330 846l-13 -94q-40 -307 23.5 -447.5t249.5 -140.5h16q155 0 236.5 93t105.5 273h213l-2 -20q-26 -261 -170 -398t-391 -137q-312 0 -432 183.5t-66 593.5l13 94q54 410 209 593t440 183q278 0 395 -139t76 -422
l-8 -55h-215q30 224 -23.5 326t-216.5 102h-16q-183 0 -283.5 -140.5t-140.5 -447.5z" />
    <glyph glyph-name="ccaron" unicode="&#x10d;" horiz-adv-x="1071" 
d="M829 1597h197l-317 -354h-193l-223 354h188l146 -206zM266 569l-6 -45q-51 -368 211 -368q118 0 188.5 66.5t81.5 162.5h195l-2 -14q-12 -84 -44 -153t-86.5 -125t-140 -87t-196.5 -31q-122 0 -211 42.5t-137 117.5t-65 173.5t-1 215.5l6 45q16 118 57 215t105.5 171
t159.5 114.5t213 40.5t201 -34t125 -94t55.5 -132t1.5 -156l-2 -14h-193q5 56 -1 98.5t-26 78t-61.5 54.5t-103.5 19q-133 0 -216.5 -95.5t-107.5 -265.5z" />
    <glyph glyph-name="Dcaron" unicode="&#x10e;" horiz-adv-x="1325" 
d="M438 1946h193l117 -121l153 121h201l-262 -226h-201zM1231 846l-12 -94q-27 -206 -85.5 -350.5t-151 -233t-212.5 -128.5t-278 -40h-455l209 1597h430q151 0 263 -42.5t187.5 -131t103 -234.5t1.5 -343zM274 188h218q224 0 347 133.5t162 430.5l13 94q38 294 -51 428.5
t-312 134.5h-217z" />
    <glyph glyph-name="dcaron" unicode="&#x10f;" horiz-adv-x="1134" 
d="M557 1110q100 0 170 -40.5t102 -102.5l91 671h204l-176 -1331l-24 -307h-179l3 145q-43 -73 -132 -121.5t-192 -48.5q-92 0 -162.5 28t-113 77.5t-68 118.5t-27.5 151t8 174l7 45q74 541 489 541zM743 305l62 473q-13 26 -31 49.5t-46.5 48t-70.5 39.5t-92 15
q-116 0 -191.5 -96t-99.5 -265l-6 -45q-24 -172 24 -270t173 -98q178 0 278 149zM1262 1638h145l-92 -395h-107z" />
    <glyph glyph-name="Dcroat" unicode="&#x110;" horiz-adv-x="1447" 
d="M55 909h224l90 688h430q151 0 263 -42.5t187.5 -131t103 -234.5t1.5 -343l-13 -94q-27 -206 -85.5 -350.5t-151 -233t-212.5 -128.5t-278 -40h-454l94 721h-223zM397 188h217q224 0 347.5 133.5t162.5 430.5l13 94q38 294 -51 428.5t-312 134.5h-217l-65 -500h397
l-25 -188h-397z" />
    <glyph glyph-name="dcroat" unicode="&#x111;" horiz-adv-x="1134" 
d="M612 1284l21 156h260l27 198h204l-26 -198h170l-21 -156h-170l-129 -977l-24 -307h-179l3 145q-43 -73 -132 -121.5t-192 -48.5q-92 0 -162.5 28t-113 77.5t-68 118.5t-27.5 151t8 174l7 45q74 541 489 541q100 0 170 -40.5t102 -102.5l43 317h-260zM743 305l62 473
q-13 26 -31 49.5t-46.5 48t-70.5 39.5t-92 15q-116 0 -191.5 -96t-99.5 -265l-6 -45q-24 -172 24 -270t173 -98q178 0 278 149z" />
    <glyph glyph-name="Emacron" unicode="&#x112;" horiz-adv-x="1140" 
d="M483 1761l19 144h520l-18 -144h-521zM246 1597h921l-24 -188h-709l-65 -500h606l-25 -188h-606l-70 -533h709l-25 -188h-921z" />
    <glyph glyph-name="emacron" unicode="&#x113;" horiz-adv-x="1122" 
d="M377 1335l24 185h527l-25 -185h-526zM997 465h-743q-28 -322 254 -322q129 0 196.5 57.5t79.5 147.5h197l-2 -14q-22 -154 -144 -256.5t-331 -102.5q-108 0 -192 28t-137 78t-86.5 119t-39.5 150.5t4 173.5l6 45q17 119 56.5 215.5t103.5 170.5t158.5 114.5t212.5 40.5
q163 0 266.5 -73.5t139.5 -196.5t14 -285zM586 942q-125 0 -208.5 -86t-103.5 -235h537q39 321 -225 321z" />
    <glyph glyph-name="Ebreve" unicode="&#x114;" horiz-adv-x="1140" 
d="M739 1694q-174 0 -244.5 69t-54.5 183h150q-8 -59 28.5 -91t124.5 -32q93 0 138 29.5t53 93.5h158q-16 -114 -102.5 -183t-250.5 -69zM246 1597h921l-24 -188h-709l-65 -500h606l-25 -188h-606l-70 -533h709l-25 -188h-921z" />
    <glyph glyph-name="ebreve" unicode="&#x115;" horiz-adv-x="1122" 
d="M637 1219q-182 0 -259.5 103t-51.5 275h153q-14 -103 26 -159t132 -56q202 0 223 215h162q-21 -183 -112.5 -280.5t-272.5 -97.5zM997 465h-743q-28 -322 254 -322q129 0 196.5 57.5t79.5 147.5h197l-2 -14q-22 -154 -144 -256.5t-331 -102.5q-108 0 -192 28t-137 78
t-86.5 119t-39.5 150.5t4 173.5l6 45q17 119 56.5 215.5t103.5 170.5t158.5 114.5t212.5 40.5q163 0 266.5 -73.5t139.5 -196.5t14 -285zM586 942q-125 0 -208.5 -86t-103.5 -235h537q39 321 -225 321z" />
    <glyph glyph-name="Edotaccent" unicode="&#x116;" horiz-adv-x="1140" 
d="M866 1917l-22 -168h-205l23 168h204zM246 1597h921l-24 -188h-709l-65 -500h606l-25 -188h-606l-70 -533h709l-25 -188h-921z" />
    <glyph glyph-name="edotaccent" unicode="&#x117;" horiz-adv-x="1122" 
d="M784 1544l-30 -233h-234l31 233h233zM997 465h-743q-28 -322 254 -322q129 0 196.5 57.5t79.5 147.5h197l-2 -14q-22 -154 -144 -256.5t-331 -102.5q-108 0 -192 28t-137 78t-86.5 119t-39.5 150.5t4 173.5l6 45q17 119 56.5 215.5t103.5 170.5t158.5 114.5t212.5 40.5
q163 0 266.5 -73.5t139.5 -196.5t14 -285zM586 942q-125 0 -208.5 -86t-103.5 -235h537q39 321 -225 321z" />
    <glyph glyph-name="Eogonek" unicode="&#x118;" horiz-adv-x="1140" 
d="M246 1597h921l-24 -188h-709l-65 -500h606l-25 -188h-606l-70 -533h709l-25 -188q-180 -74 -180 -195q0 -35 23 -59.5t61 -24.5q73 0 125 27l33 -139q-75 -45 -189 -45q-109 0 -167 52.5t-58 147.5q0 141 117 236h-686z" />
    <glyph glyph-name="eogonek" unicode="&#x119;" horiz-adv-x="1122" 
d="M997 465h-743q-28 -322 254 -322q129 0 196.5 57.5t79.5 147.5h197l-2 -14q-16 -117 -91.5 -206.5t-205.5 -127.5q-72 -21 -125 -72.5t-53 -122.5q0 -35 23 -59.5t61 -24.5q73 0 125 27l32 -139q-75 -45 -188 -45q-109 0 -167 52.5t-58 147.5q0 127 92 216
q-148 16 -239.5 93.5t-121.5 191.5t-10 259l6 45q17 119 56.5 215.5t103.5 170.5t158.5 114.5t212.5 40.5q163 0 266.5 -73.5t139.5 -196.5t14 -285zM586 942q-125 0 -208.5 -86t-103.5 -235h537q39 321 -225 321z" />
    <glyph glyph-name="Ecaron" unicode="&#x11a;" horiz-adv-x="1140" 
d="M434 1946h193l116 -121l154 121h201l-262 -226h-201zM246 1597h921l-24 -188h-709l-65 -500h606l-25 -188h-606l-70 -533h709l-25 -188h-921z" />
    <glyph glyph-name="ecaron" unicode="&#x11b;" horiz-adv-x="1122" 
d="M844 1597h196l-317 -354h-193l-223 354h189l145 -206zM997 465h-743q-28 -322 254 -322q129 0 196.5 57.5t79.5 147.5h197l-2 -14q-22 -154 -144 -256.5t-331 -102.5q-108 0 -192 28t-137 78t-86.5 119t-39.5 150.5t4 173.5l6 45q17 119 56.5 215.5t103.5 170.5
t158.5 114.5t212.5 40.5q163 0 266.5 -73.5t139.5 -196.5t14 -285zM586 942q-125 0 -208.5 -86t-103.5 -235h537q39 321 -225 321z" />
    <glyph glyph-name="Gcircumflex" unicode="&#x11c;" horiz-adv-x="1341" 
d="M1133 1720h-193l-117 121l-153 -121h-201l262 226h201zM618 -25q-314 0 -442.5 185t-75.5 592l13 94q53 409 215.5 592.5t453.5 183.5q278 0 395 -139t76 -422l-8 -55h-215q30 224 -23.5 326t-215.5 102h-17q-187 0 -295.5 -142.5t-148.5 -445.5l-13 -94
q-40 -303 32 -445.5t261 -142.5h17q175 0 307 92l49 371h-252l25 188h465l-86 -653q-53 -43 -98 -72t-108 -58t-140.5 -43t-170.5 -14z" />
    <glyph glyph-name="gcircumflex" unicode="&#x11d;" horiz-adv-x="1126" 
d="M444 1243h-196l317 354h193l223 -354h-188l-146 207zM698 -6l23 190q-47 -51 -122.5 -89t-170.5 -38q-92 0 -162.5 28.5t-112.5 77t-68.5 113.5t-29 138.5t5.5 150.5l7 45q14 107 51 196.5t96 158t145 107t191 38.5q103 0 180.5 -46t112.5 -120l39 141h178l-53 -297
l-107 -804q-28 -210 -146 -314t-345 -104q-71 0 -131 12.5t-103 35t-77 53.5t-53.5 68t-32 78.5t-12.5 85t5 87.5l2 14h193q-17 -129 36 -195.5t173 -66.5q146 0 209 61.5t79 194.5zM748 383l53 393q-18 37 -43.5 68t-78.5 58.5t-118 27.5q-112 0 -190.5 -94t-96.5 -226
l-6 -45q-20 -142 29.5 -234.5t171.5 -92.5q176 0 279 145z" />
    <glyph glyph-name="Gbreve" unicode="&#x11e;" horiz-adv-x="1341" 
d="M805 1694q-174 0 -244.5 69t-54.5 183h149q-8 -59 29 -91t125 -32q93 0 137.5 29.5t52.5 93.5h158q-16 -114 -102 -183t-250 -69zM618 -25q-314 0 -442.5 185t-75.5 592l13 94q53 409 215.5 592.5t453.5 183.5q278 0 395 -139t76 -422l-8 -55h-215q30 224 -23.5 326
t-215.5 102h-17q-187 0 -295.5 -142.5t-148.5 -445.5l-13 -94q-40 -303 32 -445.5t261 -142.5h17q175 0 307 92l49 371h-252l25 188h465l-86 -653q-53 -43 -98 -72t-108 -58t-140.5 -43t-170.5 -14z" />
    <glyph glyph-name="gbreve" unicode="&#x11f;" horiz-adv-x="1126" 
d="M625 1219q-182 0 -260 103t-52 275h154q-14 -103 26 -159t132 -56q202 0 223 215h162q-21 -183 -112.5 -280.5t-272.5 -97.5zM698 -6l23 190q-47 -51 -122.5 -89t-170.5 -38q-92 0 -162.5 28.5t-112.5 77t-68.5 113.5t-29 138.5t5.5 150.5l7 45q14 107 51 196.5t96 158
t145 107t191 38.5q103 0 180.5 -46t112.5 -120l39 141h178l-53 -297l-107 -804q-28 -210 -146 -314t-345 -104q-71 0 -131 12.5t-103 35t-77 53.5t-53.5 68t-32 78.5t-12.5 85t5 87.5l2 14h193q-17 -129 36 -195.5t173 -66.5q146 0 209 61.5t79 194.5zM748 383l53 393
q-18 37 -43.5 68t-78.5 58.5t-118 27.5q-112 0 -190.5 -94t-96.5 -226l-6 -45q-20 -142 29.5 -234.5t171.5 -92.5q176 0 279 145z" />
    <glyph glyph-name="Gdotaccent" unicode="&#x120;" horiz-adv-x="1341" 
d="M932 1917l-23 -168h-204l22 168h205zM618 -25q-314 0 -442.5 185t-75.5 592l13 94q53 409 215.5 592.5t453.5 183.5q278 0 395 -139t76 -422l-8 -55h-215q30 224 -23.5 326t-215.5 102h-17q-187 0 -295.5 -142.5t-148.5 -445.5l-13 -94q-40 -303 32 -445.5t261 -142.5h17
q175 0 307 92l49 371h-252l25 188h465l-86 -653q-53 -43 -98 -72t-108 -58t-140.5 -43t-170.5 -14z" />
    <glyph glyph-name="gdotaccent" unicode="&#x121;" horiz-adv-x="1126" 
d="M772 1544l-31 -233h-233l31 233h233zM698 -6l23 190q-47 -51 -122.5 -89t-170.5 -38q-92 0 -162.5 28.5t-112.5 77t-68.5 113.5t-29 138.5t5.5 150.5l7 45q14 107 51 196.5t96 158t145 107t191 38.5q103 0 180.5 -46t112.5 -120l39 141h178l-53 -297l-107 -804
q-28 -210 -146 -314t-345 -104q-71 0 -131 12.5t-103 35t-77 53.5t-53.5 68t-32 78.5t-12.5 85t5 87.5l2 14h193q-17 -129 36 -195.5t173 -66.5q146 0 209 61.5t79 194.5zM748 383l53 393q-18 37 -43.5 68t-78.5 58.5t-118 27.5q-112 0 -190.5 -94t-96.5 -226l-6 -45
q-20 -142 29.5 -234.5t171.5 -92.5q176 0 279 145z" />
    <glyph glyph-name="Gcommaaccent" unicode="&#x122;" horiz-adv-x="1341" 
d="M696 -104l-14 -111q-30 -234 -276 -234l12 97q135 0 155 88h-108l20 160h211zM618 -25q-314 0 -442.5 185t-75.5 592l13 94q53 409 215.5 592.5t453.5 183.5q278 0 395 -139t76 -422l-8 -55h-215q30 224 -23.5 326t-215.5 102h-17q-187 0 -295.5 -142.5t-148.5 -445.5
l-13 -94q-40 -303 32 -445.5t261 -142.5h17q175 0 307 92l49 371h-252l25 188h465l-86 -653q-53 -43 -98 -72t-108 -58t-140.5 -43t-170.5 -14z" />
    <glyph glyph-name="gcommaaccent" unicode="&#x123;" horiz-adv-x="1126" 
d="M698 -6l23 190q-47 -51 -122.5 -89t-170.5 -38q-92 0 -162.5 28.5t-112.5 77t-68.5 113.5t-29 138.5t5.5 150.5l7 45q14 107 51 196.5t96 158t145 107t191 38.5q103 0 180.5 -46t112.5 -120l39 141h178l-53 -297l-107 -804q-28 -210 -146 -314t-345 -104q-71 0 -131 12.5
t-103 35t-77 53.5t-53.5 68t-32 78.5t-12.5 85t5 87.5l2 14h193q-17 -129 36 -195.5t173 -66.5q146 0 209 61.5t79 194.5zM748 383l53 393q-18 37 -43.5 68t-78.5 58.5t-118 27.5q-112 0 -190.5 -94t-96.5 -226l-6 -45q-20 -142 29.5 -234.5t171.5 -92.5q176 0 279 145z
M504 1243l18 125q15 119 88 186.5t193 67.5l-12 -96q-60 0 -104.5 -31t-55.5 -78h108l-24 -174h-211z" />
    <glyph glyph-name="Hcircumflex" unicode="&#x124;" horiz-adv-x="1325" 
d="M1083 1597h213l-209 -1597h-213l95 721h-625l-94 -721h-213l209 1597h213l-90 -688h624zM1120 1720h-192l-117 121l-154 -121h-200l262 226h201z" />
    <glyph glyph-name="hcircumflex" unicode="&#x125;" horiz-adv-x="1116" 
d="M27 0l215 1638h204l-88 -665q134 137 338 137q112 0 186.5 -51t102 -131.5t14.5 -179.5l-98 -748h-205l95 717q12 99 -33 156t-148 57q-162 0 -276 -150l-103 -780h-204zM686 1720h-192l-117 121l-154 -121h-200l262 226h200z" />
    <glyph glyph-name="Hbar" unicode="&#x126;" horiz-adv-x="1325" 
d="M1083 1597h213l-209 -1597h-213l95 721h-625l-94 -721h-213l209 1597h213l-35 -256h625zM369 909h624l33 260h-625z" />
    <glyph glyph-name="hbar" unicode="&#x127;" horiz-adv-x="1116" 
d="M27 0l168 1284h-170l20 156h170l27 198h204l-26 -198h260l-21 -156h-260l-41 -311q130 137 338 137q112 0 186.5 -51t102 -131.5t14.5 -179.5l-98 -748h-205l95 717q12 99 -33 156t-148 57q-162 0 -276 -150l-103 -780h-204z" />
    <glyph glyph-name="Itilde" unicode="&#x128;" horiz-adv-x="507" 
d="M612 1925h127q-13 -105 -70 -157t-137 -52q-41 0 -83 16.5t-71.5 36t-63.5 36t-60 16.5q-29 0 -51.5 -20t-28.5 -60h-127q13 105 70 157t137 52q41 0 83 -16.5t71.5 -36t63.5 -36t60 -16.5q29 0 51.5 20t28.5 60zM469 1597l-209 -1597h-213l209 1597h213z" />
    <glyph glyph-name="itilde" unicode="&#x129;" horiz-adv-x="479" 
d="M549 1546h145q-6 -121 -67 -186.5t-154 -65.5q-46 0 -89.5 17.5t-72 38t-62.5 38t-61 17.5q-74 0 -84 -84h-145q6 121 67 186.5t154 65.5q46 0 89.5 -17.5t72 -38t62.5 -38t61 -17.5q74 0 84 84zM37 0l141 1085h205l-141 -1085h-205z" />
    <glyph glyph-name="Imacron" unicode="&#x12a;" horiz-adv-x="507" 
d="M127 1761l18 144h521l-19 -144h-520zM469 1597l-209 -1597h-213l209 1597h213z" />
    <glyph glyph-name="imacron" unicode="&#x12b;" horiz-adv-x="479" 
d="M51 1335l25 185h526l-24 -185h-527zM37 0l141 1085h205l-141 -1085h-205z" />
    <glyph glyph-name="Ibreve" unicode="&#x12c;" horiz-adv-x="507" 
d="M383 1694q-174 0 -244.5 69t-54.5 183h149q-8 -59 29 -91t125 -32q93 0 138 29.5t53 93.5h157q-16 -114 -102 -183t-250 -69zM469 1597l-209 -1597h-213l209 1597h213z" />
    <glyph glyph-name="ibreve" unicode="&#x12d;" horiz-adv-x="479" 
d="M311 1219q-182 0 -259.5 103t-51.5 275h154q-14 -103 25.5 -159t131.5 -56q203 0 224 215h161q-21 -183 -112.5 -280.5t-272.5 -97.5zM37 0l141 1085h205l-141 -1085h-205z" />
    <glyph glyph-name="Iogonek" unicode="&#x12e;" horiz-adv-x="507" 
d="M469 1597l-209 -1597q-180 -74 -180 -195q0 -35 23 -59.5t61 -24.5q73 0 125 27l33 -139q-75 -45 -189 -45q-109 0 -167 52.5t-58 147.5q0 154 141 254l207 1579h213z" />
    <glyph glyph-name="iogonek" unicode="&#x12f;" horiz-adv-x="479" 
d="M242 0q-181 -75 -181 -195q0 -35 23 -59.5t61 -24.5q73 0 125 27l33 -139q-75 -45 -188 -45q-109 0 -167.5 52.5t-58.5 147.5q0 158 150 263l139 1058h205zM459 1544l-31 -233h-233l30 233h234z" />
    <glyph glyph-name="Idotaccent" unicode="&#x130;" horiz-adv-x="507" 
d="M510 1917l-23 -168h-204l22 168h205zM469 1597l-209 -1597h-213l209 1597h213z" />
    <glyph glyph-name="dotlessi" unicode="&#x131;" horiz-adv-x="479" 
d="M37 0l141 1085h205l-141 -1085h-205z" />
    <glyph glyph-name="IJ" unicode="&#x132;" horiz-adv-x="1099" 
d="M707 371l161 1226h213l-163 -1251q-13 -105 -46 -178.5t-83.5 -115t-109 -59.5t-132.5 -18q-67 0 -115.5 10t-64.5 19l22 180q15 -7 55.5 -13.5t77.5 -6.5q81 0 126 46.5t59 160.5zM469 1597l-209 -1597h-213l209 1597h213z" />
    <glyph glyph-name="ij" unicode="&#x133;" horiz-adv-x="854" 
d="M37 0l141 1085h205l-141 -1085h-205zM459 1544l-31 -233h-233l30 233h234zM834 1544l-31 -233h-234l31 233h234zM401 -63l152 1148h205l-154 -1165q-46 -354 -399 -354q-41 0 -76.5 5t-52 10t-23.5 9l23 172q43 -16 119 -16q92 0 142 40t64 151z" />
    <glyph glyph-name="Jcircumflex" unicode="&#x134;" horiz-adv-x="1044" 
d="M813 1597h213l-145 -1108q-34 -252 -150.5 -383t-337.5 -131q-452 0 -377 500l9 55h202q-24 -136 -10 -217.5t56 -115t120 -33.5q126 0 190 85t89 271zM1268 1720h-193l-117 121l-153 -121h-201l262 226h201z" />
    <glyph glyph-name="jcircumflex" unicode="&#x135;" horiz-adv-x="479" 
d="M131 1243h-197l318 354h192l224 -354h-189l-145 207zM27 -63l151 1148h205l-154 -1165q-46 -354 -399 -354q-41 0 -76.5 5t-52 10t-23.5 9l23 172q43 -16 119 -16q92 0 142.5 40t64.5 151z" />
    <glyph glyph-name="Kcommaaccent" unicode="&#x136;" horiz-adv-x="1198" 
d="M586 -104l-15 -111q-30 -234 -276 -234l12 97q136 0 156 88h-109l21 160h211zM459 1597l-103 -774l631 774h258l-553 -661l344 -936h-233l-271 743l-221 -262l-61 -481h-213l209 1597h213z" />
    <glyph glyph-name="kcommaaccent" unicode="&#x137;" horiz-adv-x="1069" 
d="M23 0l215 1638h204l-137 -1044l500 491h256l-422 -409l281 -676h-226l-211 524l-217 -211l-39 -313h-204zM539 -104l-15 -111q-30 -234 -276 -234l12 97q136 0 156 88h-109l21 160h211z" />
    <glyph glyph-name="kgreenlandic" unicode="&#x138;" horiz-adv-x="1069" 
d="M166 1085h205l-66 -491l500 491h256l-422 -409l281 -676h-226l-211 524l-217 -211l-39 -313h-204z" />
    <glyph glyph-name="Lacute" unicode="&#x139;" horiz-adv-x="1026" 
d="M414 1946h219l-160 -226h-209zM895 0h-858l209 1597h213l-185 -1409h646z" />
    <glyph glyph-name="lacute" unicode="&#x13a;" horiz-adv-x="479" 
d="M37 0l215 1638h205l-215 -1638h-205zM410 1946h219l-160 -226h-209z" />
    <glyph glyph-name="Lcommaaccent" unicode="&#x13b;" horiz-adv-x="1026" 
d="M895 0h-858l209 1597h213l-185 -1409h646zM559 -104l-14 -111q-30 -234 -277 -234l13 97q135 0 155 88h-108l20 160h211z" />
    <glyph glyph-name="lcommaaccent" unicode="&#x13c;" horiz-adv-x="479" 
d="M37 0l215 1638h205l-215 -1638h-205zM231 -104l-14 -111q-30 -234 -276 -234l12 97q136 0 156 88h-109l20 160h211z" />
    <glyph glyph-name="Lcaron" unicode="&#x13d;" horiz-adv-x="1026" 
d="M741 1638h146l-92 -395h-107zM895 0h-858l209 1597h213l-185 -1409h646z" />
    <glyph glyph-name="lcaron" unicode="&#x13e;" horiz-adv-x="479" 
d="M37 0l215 1638h205l-215 -1638h-205zM594 1638h145l-92 -395h-106z" />
    <glyph glyph-name="Ldot" unicode="&#x13f;" horiz-adv-x="1026" 
d="M895 0h-858l209 1597h213l-185 -1409h646zM887 934l-31 -238h-235l30 238h236z" />
    <glyph glyph-name="ldot" unicode="&#x140;" horiz-adv-x="759" 
d="M37 0l215 1638h205l-215 -1638h-205zM743 834l-30 -234h-234l31 234h233z" />
    <glyph glyph-name="Lslash" unicode="&#x141;" horiz-adv-x="1148" 
d="M-6 487l26 187l242 110l107 813h213l-93 -704l449 217l-25 -186l-448 -217l-68 -519h645l-24 -188h-858l78 600z" />
    <glyph glyph-name="lslash" unicode="&#x142;" horiz-adv-x="712" 
d="M23 487l24 187l207 135l108 829h205l-90 -686l242 158l-25 -186l-241 -158l-101 -766h-205l82 623z" />
    <glyph glyph-name="Nacute" unicode="&#x143;" horiz-adv-x="1366" 
d="M854 1946h219l-160 -226h-208zM1337 1597l-209 -1597h-223l-510 1221l-39 -355l-112 -866h-207l209 1597h223l510 -1220l39 354l112 866h207z" />
    <glyph glyph-name="nacute" unicode="&#x144;" horiz-adv-x="1116" 
d="M756 1597h225l-250 -354h-209zM901 0h-205l95 717q12 99 -33 156t-148 57q-162 0 -276 -150l-103 -780h-204l102 778l25 307h176v-145q136 170 366 170q112 0 186.5 -51t102 -131.5t14.5 -179.5z" />
    <glyph glyph-name="Ncommaaccent" unicode="&#x145;" horiz-adv-x="1366" 
d="M674 -104l-15 -111q-30 -234 -276 -234l12 97q136 0 156 88h-109l21 160h211zM1337 1597l-209 -1597h-223l-510 1221l-39 -355l-112 -866h-207l209 1597h223l510 -1220l39 354l112 866h207z" />
    <glyph glyph-name="ncommaaccent" unicode="&#x146;" horiz-adv-x="1116" 
d="M555 -104l-14 -111q-30 -234 -277 -234l12 97q136 0 156 88h-108l20 160h211zM901 0h-205l95 717q12 99 -33 156t-148 57q-162 0 -276 -150l-103 -780h-204l102 778l25 307h176v-145q136 170 366 170q112 0 186.5 -51t102 -131.5t14.5 -179.5z" />
    <glyph glyph-name="Ncaron" unicode="&#x147;" horiz-adv-x="1366" 
d="M508 1946h192l117 -121l154 121h200l-262 -226h-200zM1337 1597l-209 -1597h-223l-510 1221l-39 -355l-112 -866h-207l209 1597h223l510 -1220l39 354l112 866h207z" />
    <glyph glyph-name="ncaron" unicode="&#x148;" horiz-adv-x="1116" 
d="M844 1597h196l-317 -354h-193l-223 354h189l145 -206zM901 0h-205l95 717q12 99 -33 156t-148 57q-162 0 -276 -150l-103 -780h-204l102 778l25 307h176v-145q136 170 366 170q112 0 186.5 -51t102 -131.5t14.5 -179.5z" />
    <glyph glyph-name="Eng" unicode="&#x14a;" horiz-adv-x="1366" 
d="M913 -61l5 32l-523 1250l-39 -355l-112 -866h-207l209 1597h223l510 -1220l39 354l112 866h207l-219 -1677q-46 -354 -399 -354q-41 0 -77.5 5t-54 10t-24.5 9l23 177q45 -17 119 -17q92 0 143 39t65 150z" />
    <glyph glyph-name="eng" unicode="&#x14b;" horiz-adv-x="1116" 
d="M999 748l-108 -828q-46 -354 -399 -354q-41 0 -76.5 5t-52 10t-23.5 9l22 172q43 -16 119 -16q92 0 142.5 40t64.5 151l103 780q12 99 -33 156t-148 57q-162 0 -276 -150l-103 -780h-204l102 778l25 307h176v-145q136 170 366 170q112 0 186.5 -51t102 -131.5
t14.5 -179.5z" />
    <glyph glyph-name="Omacron" unicode="&#x14c;" horiz-adv-x="1345" 
d="M547 1761l18 144h520l-18 -144h-520zM758 1622q311 0 429 -182.5t64 -593.5l-12 -94q-54 -411 -207.5 -594t-437.5 -183q-311 0 -429.5 183t-64.5 594l13 94q54 411 207.5 593.5t437.5 182.5zM586 164h16q183 0 281.5 140t138.5 448l12 94q40 307 -22.5 447.5
t-245.5 140.5h-16q-183 0 -281.5 -140t-138.5 -448l-13 -94q-40 -307 23 -447.5t246 -140.5z" />
    <glyph glyph-name="omacron" unicode="&#x14d;" horiz-adv-x="1122" 
d="M373 1335l24 185h527l-25 -185h-526zM483 156q132 0 212 94.5t104 265.5l6 45q24 174 -31 271.5t-192 97.5q-132 0 -212 -95t-104 -266l-6 -45q-24 -174 31 -271t192 -97zM586 1110q122 0 212.5 -42.5t141.5 -117.5t69.5 -173.5t2.5 -215.5l-6 -45q-17 -119 -56 -215.5
t-102.5 -170.5t-157 -114.5t-211.5 -40.5q-122 0 -212.5 42.5t-141.5 117.5t-69.5 173.5t-2.5 215.5l6 45q17 119 56 215.5t102.5 170.5t157 114.5t211.5 40.5z" />
    <glyph glyph-name="Obreve" unicode="&#x14e;" horiz-adv-x="1345" 
d="M803 1694q-174 0 -244.5 69t-54.5 183h149q-8 -59 29 -91t125 -32q93 0 137.5 29.5t52.5 93.5h158q-16 -114 -102 -183t-250 -69zM758 1622q311 0 429 -182.5t64 -593.5l-12 -94q-54 -411 -207.5 -594t-437.5 -183q-311 0 -429.5 183t-64.5 594l13 94q54 411 207.5 593.5
t437.5 182.5zM586 164h16q183 0 281.5 140t138.5 448l12 94q40 307 -22.5 447.5t-245.5 140.5h-16q-183 0 -281.5 -140t-138.5 -448l-13 -94q-40 -307 23 -447.5t246 -140.5z" />
    <glyph glyph-name="obreve" unicode="&#x14f;" horiz-adv-x="1122" 
d="M633 1219q-182 0 -259.5 103t-51.5 275h153q-14 -103 26 -159t132 -56q202 0 223 215h162q-21 -183 -112.5 -280.5t-272.5 -97.5zM483 156q132 0 212 94.5t104 265.5l6 45q24 174 -31 271.5t-192 97.5q-132 0 -212 -95t-104 -266l-6 -45q-24 -174 31 -271t192 -97z
M586 1110q122 0 212.5 -42.5t141.5 -117.5t69.5 -173.5t2.5 -215.5l-6 -45q-17 -119 -56 -215.5t-102.5 -170.5t-157 -114.5t-211.5 -40.5q-122 0 -212.5 42.5t-141.5 117.5t-69.5 173.5t-2.5 215.5l6 45q17 119 56 215.5t102.5 170.5t157 114.5t211.5 40.5z" />
    <glyph glyph-name="Ohungarumlaut" unicode="&#x150;" horiz-adv-x="1345" 
d="M700 1946h201l-149 -226h-193zM995 1946h201l-158 -226h-192zM758 1622q311 0 429 -182.5t64 -593.5l-12 -94q-54 -411 -207.5 -594t-437.5 -183q-311 0 -429.5 183t-64.5 594l13 94q54 411 207.5 593.5t437.5 182.5zM586 164h16q183 0 281.5 140t138.5 448l12 94
q40 307 -22.5 447.5t-245.5 140.5h-16q-183 0 -281.5 -140t-138.5 -448l-13 -94q-40 -307 23 -447.5t246 -140.5z" />
    <glyph glyph-name="ohungarumlaut" unicode="&#x151;" horiz-adv-x="1122" 
d="M602 1597h193l-226 -354h-174zM907 1597h191l-250 -354h-174zM483 156q132 0 212 94.5t104 265.5l6 45q24 174 -31 271.5t-192 97.5q-132 0 -212 -95t-104 -266l-6 -45q-24 -174 31 -271t192 -97zM586 1110q122 0 212.5 -42.5t141.5 -117.5t69.5 -173.5t2.5 -215.5
l-6 -45q-17 -119 -56 -215.5t-102.5 -170.5t-157 -114.5t-211.5 -40.5q-122 0 -212.5 42.5t-141.5 117.5t-69.5 173.5t-2.5 215.5l6 45q17 119 56 215.5t102.5 170.5t157 114.5t211.5 40.5z" />
    <glyph glyph-name="OE" unicode="&#x152;" horiz-adv-x="1925" 
d="M1006 1409h-166q-224 0 -347.5 -133t-162.5 -430l-13 -94q-38 -294 51 -429t312 -135h166zM100 752l13 94q27 206 85.5 350.5t151 232.5t212.5 128t278 40h1112l-25 -188h-708l-66 -500h606l-24 -188h-607l-69 -533h708l-24 -188h-1088q-151 0 -263 42.5t-187.5 131.5
t-103 235t-1.5 343z" />
    <glyph glyph-name="oe" unicode="&#x153;" horiz-adv-x="1865" 
d="M1737 465h-744q-28 -322 254 -322q129 0 197 57.5t80 147.5h196l-2 -14q-22 -154 -144 -256.5t-331 -102.5q-293 0 -383 207q-124 -207 -381 -207q-122 0 -212.5 42.5t-141.5 117.5t-69.5 173.5t-2.5 215.5l6 45q17 119 56 215.5t102.5 170.5t157 114.5t211.5 40.5
q272 0 356 -209q126 209 387 209q163 0 266.5 -73.5t139.5 -196.5t14 -285zM483 156q132 0 212 94.5t104 265.5l6 45q24 174 -31 271.5t-192 97.5q-132 0 -212 -95t-104 -266l-6 -45q-24 -174 31 -271t192 -97zM1325 942q-124 0 -207.5 -86t-103.5 -235h536q39 321 -225 321
z" />
    <glyph glyph-name="Racute" unicode="&#x154;" horiz-adv-x="1224" 
d="M332 623l-82 -623h-213l209 1597h459q77 0 146 -12.5t135.5 -46t111 -85t65.5 -135.5t6 -192l-6 -45q-25 -177 -111.5 -280.5t-213.5 -145.5l184 -655h-231l-160 623h-299zM356 809h271q41 0 79 7t79.5 26.5t73.5 50t56.5 82.5t32.5 119l2 16q38 299 -250 299h-266z
M748 1946h219l-160 -226h-209z" />
    <glyph glyph-name="racute" unicode="&#x155;" horiz-adv-x="716" 
d="M573 1597h226l-250 -354h-209zM653 1110l31 -2l-27 -205h-39q-90 0 -169 -42.5t-117 -96.5l-101 -764h-204l102 778l25 307h176v-145q49 77 134.5 123.5t188.5 46.5z" />
    <glyph glyph-name="Rcommaaccent" unicode="&#x156;" horiz-adv-x="1224" 
d="M332 623l-82 -623h-213l209 1597h459q77 0 146 -12.5t135.5 -46t111 -85t65.5 -135.5t6 -192l-6 -45q-25 -177 -111.5 -280.5t-213.5 -145.5l184 -655h-231l-160 623h-299zM356 809h271q41 0 79 7t79.5 26.5t73.5 50t56.5 82.5t32.5 119l2 16q38 299 -250 299h-266z
M608 -104l-14 -111q-30 -234 -277 -234l13 97q135 0 155 88h-108l20 160h211z" />
    <glyph glyph-name="rcommaaccent" unicode="&#x157;" horiz-adv-x="716" 
d="M223 -104l-14 -111q-30 -234 -277 -234l13 97q135 0 155 88h-108l20 160h211zM653 1110l31 -2l-27 -205h-39q-90 0 -169 -42.5t-117 -96.5l-101 -764h-204l102 778l25 307h176v-145q49 77 134.5 123.5t188.5 46.5z" />
    <glyph glyph-name="Rcaron" unicode="&#x158;" horiz-adv-x="1224" 
d="M332 623l-82 -623h-213l209 1597h459q77 0 146 -12.5t135.5 -46t111 -85t65.5 -135.5t6 -192l-6 -45q-25 -177 -111.5 -280.5t-213.5 -145.5l184 -655h-231l-160 623h-299zM356 809h271q41 0 79 7t79.5 26.5t73.5 50t56.5 82.5t32.5 119l2 16q38 299 -250 299h-266z
M401 1946h193l117 -121l153 121h201l-262 -226h-201z" />
    <glyph glyph-name="rcaron" unicode="&#x159;" horiz-adv-x="716" 
d="M662 1597h196l-317 -354h-193l-223 354h188l146 -206zM653 1110l31 -2l-27 -205h-39q-90 0 -169 -42.5t-117 -96.5l-101 -764h-204l102 778l25 307h176v-145q49 77 134.5 123.5t188.5 46.5z" />
    <glyph glyph-name="Sacute" unicode="&#x15a;" horiz-adv-x="1251" 
d="M797 1946h219l-160 -226h-209zM580 727q-244 37 -346.5 153t-79.5 287l6 45q26 193 169 301.5t369 108.5q285 0 409.5 -138.5t88.5 -381.5l-8 -55h-213q29 199 -38 293t-228 94h-21q-130 0 -214.5 -63.5t-98.5 -170.5l-2 -16q-14 -115 55.5 -183.5t257.5 -99.5
q489 -79 438 -455l-6 -45q-29 -211 -175.5 -318.5t-391.5 -107.5q-276 0 -409 129t-97 371l8 55h213q-60 -366 275 -366h20q148 0 237.5 64t104.5 186l2 16q15 124 -61 196t-264 101z" />
    <glyph glyph-name="sacute" unicode="&#x15b;" horiz-adv-x="1073" 
d="M727 1597h225l-250 -354h-208zM463 139q107 0 173 44t66 134q0 76 -48 107t-177 49q-204 26 -290.5 104t-69.5 216l2 16q19 141 137.5 221t300.5 80q231 0 327 -95t72 -267l-2 -15h-196q29 213 -201 213q-43 0 -82.5 -9t-75.5 -27.5t-58 -53.5t-22 -82q0 -62 51 -94
t177 -47q194 -24 287.5 -103.5t74.5 -230.5l-2 -16q-18 -139 -138 -223.5t-314 -84.5q-235 0 -334 95t-76 252l2 14h201q-13 -92 37.5 -144.5t177.5 -52.5z" />
    <glyph glyph-name="Scircumflex" unicode="&#x15c;" horiz-adv-x="1251" 
d="M1083 1720h-192l-117 121l-153 -121h-201l262 226h201zM580 727q-244 37 -346.5 153t-79.5 287l6 45q26 193 169 301.5t369 108.5q285 0 409.5 -138.5t88.5 -381.5l-8 -55h-213q29 199 -38 293t-228 94h-21q-130 0 -214.5 -63.5t-98.5 -170.5l-2 -16
q-14 -115 55.5 -183.5t257.5 -99.5q489 -79 438 -455l-6 -45q-29 -211 -175.5 -318.5t-391.5 -107.5q-276 0 -409 129t-97 371l8 55h213q-60 -366 275 -366h20q148 0 237.5 64t104.5 186l2 16q15 124 -61 196t-264 101z" />
    <glyph glyph-name="scircumflex" unicode="&#x15d;" horiz-adv-x="1073" 
d="M428 1243h-197l318 354h192l224 -354h-189l-145 207zM463 139q107 0 173 44t66 134q0 76 -48 107t-177 49q-204 26 -290.5 104t-69.5 216l2 16q19 141 137.5 221t300.5 80q231 0 327 -95t72 -267l-2 -15h-196q29 213 -201 213q-43 0 -82.5 -9t-75.5 -27.5t-58 -53.5
t-22 -82q0 -62 51 -94t177 -47q194 -24 287.5 -103.5t74.5 -230.5l-2 -16q-18 -139 -138 -223.5t-314 -84.5q-235 0 -334 95t-76 252l2 14h201q-13 -92 37.5 -144.5t177.5 -52.5z" />
    <glyph glyph-name="Scedilla" unicode="&#x15e;" horiz-adv-x="1251" 
d="M580 727q-244 37 -346.5 153t-79.5 287l6 45q26 193 169 301.5t369 108.5q285 0 409.5 -138.5t88.5 -381.5l-8 -55h-213q29 199 -38 293t-228 94h-21q-130 0 -214.5 -63.5t-98.5 -170.5l-2 -16q-14 -115 55.5 -183.5t257.5 -99.5q489 -79 438 -455l-6 -45
q-29 -206 -170 -313.5t-375 -112.5l-41 -77q82 -2 135.5 -39.5t53.5 -114.5q0 -87 -66 -133.5t-172 -46.5q-132 0 -202 51l51 106q55 -38 151 -38q107 0 107 61q0 53 -111 53l-65 -6l-29 51l72 138q-230 22 -337.5 148.5t-74.5 346.5l8 55h213q-60 -366 275 -366h20
q148 0 237.5 64t104.5 186l2 16q15 124 -61 196t-264 101z" />
    <glyph glyph-name="scedilla" unicode="&#x15f;" horiz-adv-x="1073" 
d="M463 139q107 0 173 44t66 134q0 76 -48 107t-177 49q-204 26 -290.5 104t-69.5 216l2 16q19 141 137.5 221t300.5 80q231 0 327 -95t72 -267l-2 -15h-196q29 213 -201 213q-43 0 -82.5 -9t-75.5 -27.5t-58 -53.5t-22 -82q0 -62 51 -94t177 -47q194 -24 287.5 -103.5
t74.5 -230.5l-2 -16q-18 -134 -129.5 -217.5t-294.5 -90.5l-41 -77q82 -2 135.5 -39.5t53.5 -114.5q0 -87 -66 -133.5t-172 -46.5q-133 0 -203 51l52 106q55 -38 151 -38q107 0 107 61q0 53 -111 53l-65 -6l-29 51l70 138q-186 18 -263.5 110t-56.5 232l2 14h201
q-13 -92 37.5 -144.5t177.5 -52.5z" />
    <glyph glyph-name="Scaron" unicode="&#x160;" horiz-adv-x="1251" 
d="M451 1946h192l117 -121l153 121h201l-262 -226h-201zM580 727q-244 37 -346.5 153t-79.5 287l6 45q26 193 169 301.5t369 108.5q285 0 409.5 -138.5t88.5 -381.5l-8 -55h-213q29 199 -38 293t-228 94h-21q-130 0 -214.5 -63.5t-98.5 -170.5l-2 -16q-14 -115 55.5 -183.5
t257.5 -99.5q489 -79 438 -455l-6 -45q-29 -211 -175.5 -318.5t-391.5 -107.5q-276 0 -409 129t-97 371l8 55h213q-60 -366 275 -366h20q148 0 237.5 64t104.5 186l2 16q15 124 -61 196t-264 101z" />
    <glyph glyph-name="scaron" unicode="&#x161;" horiz-adv-x="1073" 
d="M815 1597h197l-318 -354h-192l-223 354h188l145 -206zM463 139q107 0 173 44t66 134q0 76 -48 107t-177 49q-204 26 -290.5 104t-69.5 216l2 16q19 141 137.5 221t300.5 80q231 0 327 -95t72 -267l-2 -15h-196q29 213 -201 213q-43 0 -82.5 -9t-75.5 -27.5t-58 -53.5
t-22 -82q0 -62 51 -94t177 -47q194 -24 287.5 -103.5t74.5 -230.5l-2 -16q-18 -139 -138 -223.5t-314 -84.5q-235 0 -334 95t-76 252l2 14h201q-13 -92 37.5 -144.5t177.5 -52.5z" />
    <glyph glyph-name="Tcommaaccent" unicode="&#x162;" horiz-adv-x="1085" 
d="M532 -104l-14 -111q-30 -234 -276 -234l12 97q136 0 156 88h-109l21 160h210zM733 1409l-184 -1409h-213l184 1409h-393l25 188h999l-25 -188h-393z" />
    <glyph glyph-name="tcommaaccent" unicode="&#x163;" horiz-adv-x="841" 
d="M477 -104l-14 -111q-30 -234 -277 -234l13 97q135 0 155 88h-108l20 160h211zM473 1085h322l-25 -182h-321l-74 -557q-14 -107 24.5 -148.5t122.5 -41.5q86 0 133 14l-22 -170q-56 -25 -141 -25q-187 0 -267.5 85.5t-56.5 267.5l76 575h-172l24 182h172l41 308h205z" />
    <glyph glyph-name="Tcaron" unicode="&#x164;" horiz-adv-x="1085" 
d="M367 1946h194l117 -125l153 125h199l-262 -226h-201zM733 1409l-184 -1409h-213l184 1409h-393l25 188h999l-25 -188h-393z" />
    <glyph glyph-name="tcaron" unicode="&#x165;" horiz-adv-x="841" 
d="M473 1085h322l-25 -182h-321l-74 -557q-14 -107 24.5 -148.5t122.5 -41.5q86 0 133 14l-22 -170q-56 -25 -141 -25q-187 0 -267.5 85.5t-56.5 267.5l76 575h-172l24 182h172l41 308h205zM682 1638h145l-92 -395h-106z" />
    <glyph glyph-name="Tbar" unicode="&#x166;" horiz-adv-x="1085" 
d="M205 909h250l65 500h-393l25 188h999l-25 -188h-393l-65 -500h250l-25 -188h-250l-94 -721h-213l94 721h-250z" />
    <glyph glyph-name="tbar" unicode="&#x167;" horiz-adv-x="841" 
d="M649 621l-20 -156h-240l-14 -119q-14 -107 24.5 -148.5t122.5 -41.5q86 0 133 14l-22 -170q-56 -25 -141 -25q-187 0 -267.5 85.5t-56.5 267.5l18 137h-151l20 156h152l37 282h-172l24 182h172l41 308h205l-41 -308h322l-25 -182h-321l-39 -282h239z" />
    <glyph glyph-name="Utilde" unicode="&#x168;" horiz-adv-x="1325" 
d="M1022 1925h127q-13 -105 -70 -157t-137 -52q-41 0 -83 16.5t-71.5 36t-63.5 36t-60 16.5q-29 0 -51.5 -20t-28.5 -60h-127q13 105 70 157t137 52q41 0 83 -16.5t71.5 -36t63.5 -36t60 -16.5q29 0 51.5 20t28.5 60zM578 -25q-282 0 -401.5 126t-84.5 397l144 1099h213
l-142 -1089q-24 -187 40 -265.5t235 -78.5t257.5 79t110.5 265l144 1089h213l-146 -1099q-36 -277 -170.5 -400t-412.5 -123z" />
    <glyph glyph-name="utilde" unicode="&#x169;" horiz-adv-x="1116" 
d="M862 1546h146q-6 -120 -67.5 -186t-154.5 -66q-58 0 -111 28t-96 55.5t-77 27.5q-74 0 -84 -84h-146q6 120 67.5 186t154.5 66q46 0 89.5 -17.5t71.5 -38t62 -38t61 -17.5q74 0 84 84zM156 1085h204l-94 -716q-12 -99 32.5 -156t147.5 -57q93 0 162.5 45t114.5 104
l102 780h205l-102 -778l-25 -307h-176v145q-136 -170 -367 -170q-112 0 -186.5 51t-102 132t-14.5 180z" />
    <glyph glyph-name="Umacron" unicode="&#x16a;" horiz-adv-x="1325" 
d="M537 1761l18 144h520l-18 -144h-520zM578 -25q-282 0 -401.5 126t-84.5 397l144 1099h213l-142 -1089q-24 -187 40 -265.5t235 -78.5t257.5 79t110.5 265l144 1089h213l-146 -1099q-36 -277 -170.5 -400t-412.5 -123z" />
    <glyph glyph-name="umacron" unicode="&#x16b;" horiz-adv-x="1116" 
d="M365 1335l24 185h526l-24 -185h-526zM156 1085h204l-94 -716q-12 -99 32.5 -156t147.5 -57q93 0 162.5 45t114.5 104l102 780h205l-102 -778l-25 -307h-176v145q-136 -170 -367 -170q-112 0 -186.5 51t-102 132t-14.5 180z" />
    <glyph glyph-name="Ubreve" unicode="&#x16c;" horiz-adv-x="1325" 
d="M793 1694q-174 0 -244.5 69t-54.5 183h149q-8 -59 29 -91t125 -32q93 0 137.5 29.5t52.5 93.5h158q-16 -114 -102 -183t-250 -69zM578 -25q-282 0 -401.5 126t-84.5 397l144 1099h213l-142 -1089q-24 -187 40 -265.5t235 -78.5t257.5 79t110.5 265l144 1089h213
l-146 -1099q-36 -277 -170.5 -400t-412.5 -123z" />
    <glyph glyph-name="ubreve" unicode="&#x16d;" horiz-adv-x="1116" 
d="M625 1219q-182 0 -260 103t-52 275h154q-14 -103 26 -159t132 -56q202 0 223 215h162q-21 -183 -112.5 -280.5t-272.5 -97.5zM156 1085h204l-94 -716q-12 -99 32.5 -156t147.5 -57q93 0 162.5 45t114.5 104l102 780h205l-102 -778l-25 -307h-176v145q-136 -170 -367 -170
q-112 0 -186.5 51t-102 132t-14.5 180z" />
    <glyph glyph-name="Uring" unicode="&#x16e;" horiz-adv-x="1325" 
d="M997 1782q0 -91 -65.5 -153t-153.5 -62q-82 0 -134 52t-52 136q0 91 65.5 153t153.5 62q82 0 134 -52t52 -136zM684 1755q0 -44 25.5 -71t68.5 -27q52 0 89.5 34t37.5 91q0 44 -25.5 71t-68.5 27q-52 0 -89.5 -34t-37.5 -91zM578 -25q-282 0 -401.5 126t-84.5 397
l144 1099h213l-142 -1089q-24 -187 40 -265.5t235 -78.5t257.5 79t110.5 265l144 1089h213l-146 -1099q-36 -277 -170.5 -400t-412.5 -123z" />
    <glyph glyph-name="uring" unicode="&#x16f;" horiz-adv-x="1116" 
d="M842 1434q0 -91 -65.5 -153t-153.5 -62q-82 0 -134.5 52t-52.5 136q0 91 65.5 153t153.5 62q82 0 134.5 -52t52.5 -136zM528 1407q0 -44 26 -71t69 -27q52 0 89.5 34t37.5 91q0 44 -26 71t-69 27q-52 0 -89.5 -34t-37.5 -91zM156 1085h204l-94 -716q-12 -99 32.5 -156
t147.5 -57q93 0 162.5 45t114.5 104l102 780h205l-102 -778l-25 -307h-176v145q-136 -170 -367 -170q-112 0 -186.5 51t-102 132t-14.5 180z" />
    <glyph glyph-name="Uhungarumlaut" unicode="&#x170;" horiz-adv-x="1325" 
d="M690 1946h201l-150 -226h-192zM985 1946h201l-158 -226h-192zM578 -25q-282 0 -401.5 126t-84.5 397l144 1099h213l-142 -1089q-24 -187 40 -265.5t235 -78.5t257.5 79t110.5 265l144 1089h213l-146 -1099q-36 -277 -170.5 -400t-412.5 -123z" />
    <glyph glyph-name="uhungarumlaut" unicode="&#x171;" horiz-adv-x="1116" 
d="M594 1597h192l-225 -354h-174zM899 1597h191l-250 -354h-174zM156 1085h204l-94 -716q-12 -99 32.5 -156t147.5 -57q93 0 162.5 45t114.5 104l102 780h205l-102 -778l-25 -307h-176v145q-136 -170 -367 -170q-112 0 -186.5 51t-102 132t-14.5 180z" />
    <glyph glyph-name="Uogonek" unicode="&#x172;" horiz-adv-x="1325" 
d="M799 0q-70 -17 -125.5 -70t-55.5 -125q0 -35 23 -59.5t61 -24.5q73 0 125 27l33 -139q-75 -45 -188 -45q-109 0 -167.5 52.5t-58.5 147.5q0 122 91 213q-260 8 -369 133.5t-76 387.5l144 1099h213l-142 -1089q-24 -187 40 -265.5t235 -78.5t257.5 79t110.5 265l144 1089
h213l-146 -1099q-28 -216 -113.5 -336t-248.5 -162z" />
    <glyph glyph-name="uogonek" unicode="&#x173;" horiz-adv-x="1116" 
d="M156 1085h204l-94 -716q-12 -99 32.5 -156t147.5 -57q93 0 162.5 45t114.5 104l102 780h205l-102 -778l-25 -307q-180 -74 -180 -195q0 -35 23 -59.5t61 -24.5q73 0 125 27l33 -139q-75 -45 -189 -45q-109 0 -167 52.5t-58 147.5q0 173 176 279v102q-136 -170 -367 -170
q-112 0 -186.5 51t-102 132t-14.5 180z" />
    <glyph glyph-name="Wcircumflex" unicode="&#x174;" horiz-adv-x="1863" 
d="M1389 1720h-193l-117 121l-153 -121h-201l262 226h201zM1130 -12l-116 1372l-477 -1372h-285l-76 1609h221l41 -1331l463 1331h281l114 -1331l390 1331h219l-498 -1609h-277z" />
    <glyph glyph-name="wcircumflex" unicode="&#x175;" horiz-adv-x="1501" 
d="M643 1243h-197l318 354h192l224 -354h-189l-145 207zM766 864l-328 -864h-266l-76 1085h199l39 -866l330 866h256l104 -866l266 866h199l-361 -1085h-260z" />
    <glyph glyph-name="Ycircumflex" unicode="&#x176;" horiz-adv-x="1216" 
d="M1065 1720h-193l-116 121l-154 -121h-201l263 226h200zM678 485l-64 -485h-213l64 485l-324 1112h228l233 -847l455 847h235z" />
    <glyph glyph-name="ycircumflex" unicode="&#x177;" horiz-adv-x="1038" 
d="M422 1243h-197l318 354h192l223 -354h-188l-145 207zM465 262l379 823h223l-518 -1038l-211 -457h-236l224 441l-250 1054h219z" />
    <glyph glyph-name="Ydieresis" unicode="&#x178;" horiz-adv-x="1216" 
d="M694 1917l-22 -168h-203l23 168h202zM1028 1917l-22 -168h-203l22 168h203zM678 485l-64 -485h-213l64 485l-324 1112h228l233 -847l455 847h235z" />
    <glyph glyph-name="Zacute" unicode="&#x179;" horiz-adv-x="1177" 
d="M729 1946h219l-160 -226h-208zM-2 143l897 1272l-270 -6h-441l25 188h973l-19 -143l-897 -1272l271 6h481l-25 -188h-1013z" />
    <glyph glyph-name="zacute" unicode="&#x17a;" horiz-adv-x="972" 
d="M672 1597h225l-250 -354h-209zM-18 137l653 770l-234 -4h-301l25 182h801l-19 -137l-653 -770l233 4h342l-24 -182h-842z" />
    <glyph glyph-name="Zdotaccent" unicode="&#x17b;" horiz-adv-x="1177" 
d="M815 1917l-22 -168h-205l22 168h205zM-2 143l897 1272l-270 -6h-441l25 188h973l-19 -143l-897 -1272l271 6h481l-25 -188h-1013z" />
    <glyph glyph-name="zdotaccent" unicode="&#x17c;" horiz-adv-x="972" 
d="M700 1544l-30 -233h-234l31 233h233zM-18 137l653 770l-234 -4h-301l25 182h801l-19 -137l-653 -770l233 4h342l-24 -182h-842z" />
    <glyph glyph-name="Zcaron" unicode="&#x17d;" horiz-adv-x="1177" 
d="M383 1946h192l117 -121l154 121h201l-263 -226h-200zM-2 143l897 1272l-270 -6h-441l25 188h973l-19 -143l-897 -1272l271 6h481l-25 -188h-1013z" />
    <glyph glyph-name="zcaron" unicode="&#x17e;" horiz-adv-x="972" 
d="M760 1597h196l-317 -354h-193l-223 354h189l145 -206zM-18 137l653 770l-234 -4h-301l25 182h801l-19 -137l-653 -770l233 4h342l-24 -182h-842z" />
    <glyph glyph-name="Scommaaccent" unicode="&#x218;" horiz-adv-x="1251" 
d="M616 -104l-14 -111q-30 -234 -276 -234l12 97q136 0 156 88h-109l21 160h210zM580 727q-244 37 -346.5 153t-79.5 287l6 45q26 193 169 301.5t369 108.5q285 0 409.5 -138.5t88.5 -381.5l-8 -55h-213q29 199 -38 293t-228 94h-21q-130 0 -214.5 -63.5t-98.5 -170.5
l-2 -16q-14 -115 55.5 -183.5t257.5 -99.5q489 -79 438 -455l-6 -45q-29 -211 -175.5 -318.5t-391.5 -107.5q-276 0 -409 129t-97 371l8 55h213q-60 -366 275 -366h20q148 0 237.5 64t104.5 186l2 16q15 124 -61 196t-264 101z" />
    <glyph glyph-name="scommaaccent" unicode="&#x219;" horiz-adv-x="1073" 
d="M526 -104l-14 -111q-30 -234 -276 -234l12 97q135 0 155 88h-108l20 160h211zM463 139q107 0 173 44t66 134q0 76 -48 107t-177 49q-204 26 -290.5 104t-69.5 216l2 16q19 141 137.5 221t300.5 80q231 0 327 -95t72 -267l-2 -15h-196q29 213 -201 213q-43 0 -82.5 -9
t-75.5 -27.5t-58 -53.5t-22 -82q0 -62 51 -94t177 -47q194 -24 287.5 -103.5t74.5 -230.5l-2 -16q-18 -139 -138 -223.5t-314 -84.5q-235 0 -334 95t-76 252l2 14h201q-13 -92 37.5 -144.5t177.5 -52.5z" />
    <glyph glyph-name="Ymacron" unicode="&#x232;" horiz-adv-x="1216" 
d="M481 1761l19 144h520l-19 -144h-520zM678 485l-64 -485h-213l64 485l-324 1112h228l233 -847l455 847h235z" />
    <glyph glyph-name="ymacron" unicode="&#x233;" horiz-adv-x="1038" 
d="M342 1335l25 185h526l-25 -185h-526zM465 262l379 823h223l-518 -1038l-211 -457h-236l224 441l-250 1054h219z" />
    <glyph glyph-name="dotlessj" unicode="&#x237;" horiz-adv-x="479" 
d="M27 -63l151 1148h205l-154 -1165q-46 -354 -399 -354q-41 0 -76.5 5t-52 10t-23.5 9l23 172q43 -16 119 -16q92 0 142.5 40t64.5 151z" />
    <glyph glyph-name="circumflex" unicode="&#x2c6;" horiz-adv-x="1024" 
d="M403 1243h-196l317 354h193l223 -354h-188l-146 207z" />
    <glyph glyph-name="caron" unicode="&#x2c7;" horiz-adv-x="1024" 
d="M791 1597h196l-317 -354h-193l-223 354h188l146 -206z" />
    <glyph glyph-name="breve" unicode="&#x2d8;" horiz-adv-x="1024" 
d="M584 1219q-182 0 -260 103t-52 275h154q-14 -103 26 -159t132 -56q202 0 223 215h162q-21 -183 -112.5 -280.5t-272.5 -97.5z" />
    <glyph glyph-name="dotaccent" unicode="&#x2d9;" horiz-adv-x="1024" 
d="M731 1544l-31 -233h-233l31 233h233z" />
    <glyph glyph-name="ring" unicode="&#x2da;" horiz-adv-x="1024" 
d="M801 1434q0 -91 -65.5 -153t-153.5 -62q-82 0 -134.5 52t-52.5 136q0 91 65.5 153t153.5 62q82 0 134.5 -52t52.5 -136zM487 1407q0 -44 26 -71t69 -27q52 0 89.5 34t37.5 91q0 44 -26 71t-69 27q-52 0 -89.5 -34t-37.5 -91z" />
    <glyph glyph-name="ogonek" unicode="&#x2db;" horiz-adv-x="1232" 
d="M485 0q-180 -74 -180 -195q0 -35 23 -59.5t61 -24.5q73 0 125 27l33 -139q-75 -45 -189 -45q-109 0 -167 52.5t-58 147.5q0 67 27 124t74 98t100 69.5t115 48.5z" />
    <glyph glyph-name="tilde" unicode="&#x2dc;" horiz-adv-x="1024" 
d="M821 1546h146q-6 -120 -67.5 -186t-154.5 -66q-58 0 -111 28t-96 55.5t-77 27.5q-74 0 -84 -84h-146q6 120 67.5 186t154.5 66q46 0 89.5 -17.5t71.5 -38t62 -38t61 -17.5q74 0 84 84z" />
    <glyph glyph-name="hungarumlaut" unicode="&#x2dd;" horiz-adv-x="1024" 
d="M553 1597h192l-225 -354h-174zM858 1597h191l-250 -354h-174z" />
    <glyph glyph-name="Bdotaccent" unicode="&#x1e02;" horiz-adv-x="1232" 
d="M831 1917l-22 -168h-205l23 168h204zM246 1597h450q82 0 150.5 -12t129 -42t100 -76.5t57 -119.5t4.5 -167l-7 -45q-17 -119 -88.5 -202t-169.5 -112q110 -31 170 -123t41 -231l-6 -45q-13 -97 -49 -171.5t-86 -121.5t-117.5 -76.5t-138 -41t-154.5 -11.5h-495zM635 725
h-291l-70 -537h273q61 0 112 12.5t94.5 40t72 76.5t36.5 117l2 17q17 141 -49.5 207.5t-179.5 66.5zM686 1409h-252l-63 -496h252q111 0 193.5 56t98.5 178l3 16q16 125 -49.5 185.5t-182.5 60.5z" />
    <glyph glyph-name="bdotaccent" unicode="&#x1e03;" horiz-adv-x="1126" 
d="M444 1638l-86 -655q47 51 122.5 89t170.5 38q92 0 162.5 -28t113 -77.5t68 -118.5t27.5 -151t-8 -174l-6 -45q-74 -541 -490 -541q-102 0 -179 46t-112 120l-39 -141h-178l53 297l177 1341h204zM332 784l-62 -477q29 -59 87.5 -105t152.5 -46q116 0 191.5 95.5
t99.5 264.5l6 45q24 172 -24 270.5t-173 98.5q-174 0 -278 -146zM483 1917l-22 -168h-205l23 168h204z" />
    <glyph glyph-name="Ddotaccent" unicode="&#x1e0a;" horiz-adv-x="1325" 
d="M870 1917l-22 -168h-205l23 168h204zM1231 846l-12 -94q-27 -206 -85.5 -350.5t-151 -233t-212.5 -128.5t-278 -40h-455l209 1597h430q151 0 263 -42.5t187.5 -131t103 -234.5t1.5 -343zM274 188h218q224 0 347 133.5t162 430.5l13 94q38 294 -51 428.5t-312 134.5h-217z
" />
    <glyph glyph-name="ddotaccent" unicode="&#x1e0b;" horiz-adv-x="1134" 
d="M557 1110q100 0 170 -40.5t102 -102.5l91 671h204l-176 -1331l-24 -307h-179l3 145q-43 -73 -132 -121.5t-192 -48.5q-92 0 -162.5 28t-113 77.5t-68 118.5t-27.5 151t8 174l7 45q74 541 489 541zM743 305l62 473q-13 26 -31 49.5t-46.5 48t-70.5 39.5t-92 15
q-116 0 -191.5 -96t-99.5 -265l-6 -45q-24 -172 24 -270t173 -98q178 0 278 149zM1163 1917l-22 -168h-205l22 168h205z" />
    <glyph glyph-name="Fdotaccent" unicode="&#x1e1e;" horiz-adv-x="1077" 
d="M862 1917l-22 -168h-205l22 168h205zM246 1597h899l-25 -188h-686l-65 -500h583l-24 -188h-584l-94 -721h-213z" />
    <glyph glyph-name="fdotaccent" unicode="&#x1e1f;" horiz-adv-x="800" 
d="M500 1292l-27 -207h281l-25 -182h-280l-119 -903h-205l119 903h-172l24 182h172l29 224q46 354 399 354q41 0 76.5 -5.5t52 -10.5t23.5 -9l-23 -172q-45 17 -118 17q-92 0 -142.5 -40t-64.5 -151zM752 1917l-23 -168h-205l23 168h205z" />
    <glyph glyph-name="Mdotaccent" unicode="&#x1e40;" horiz-adv-x="1693" 
d="M1100 1917l-23 -168h-205l23 168h205zM1409 1227l-561 -1227h-203l-242 1227l-36 -342l-115 -885h-215l209 1597h305l237 -1228l560 1228h317l-209 -1597h-215l115 885z" />
    <glyph glyph-name="mdotaccent" unicode="&#x1e41;" horiz-adv-x="1689" 
d="M1473 0h-205l96 733q13 98 -29 147.5t-131 49.5q-78 0 -142.5 -46t-107.5 -104l-102 -780h-205l96 733q13 98 -28.5 147.5t-130.5 49.5q-78 0 -142.5 -46t-107.5 -104l-103 -780h-204l102 778l25 307h176v-145q57 75 145.5 122.5t196.5 47.5q114 0 181.5 -47t90.5 -129
q62 79 150.5 127.5t197.5 48.5q153 0 228 -88t55 -242zM1069 1544l-31 -233h-233l31 233h233z" />
    <glyph glyph-name="Pdotaccent" unicode="&#x1e56;" horiz-adv-x="1200" 
d="M846 1917l-23 -168h-205l23 168h205zM356 809h271q41 0 79 7t79.5 26.5t73.5 50t56.5 82.5t32.5 119l2 16q38 299 -250 299h-266zM332 623l-82 -623h-213l209 1597h459q77 0 146 -12.5t135.5 -46t111 -85t65.5 -135.5t6 -192l-6 -45q-14 -104 -53 -185.5t-91.5 -131.5
t-119.5 -83t-132 -45.5t-136 -12.5h-299z" />
    <glyph glyph-name="pdotaccent" unicode="&#x1e57;" horiz-adv-x="1126" 
d="M797 1544l-31 -233h-234l31 233h234zM518 -25q-100 0 -170 41t-102 103l-72 -529h-205l158 1188l25 307h178l-2 -145q43 73 131.5 121.5t191.5 48.5q92 0 162.5 -28t113 -77.5t68 -118.5t27.5 -151t-8 -174l-6 -45q-74 -541 -490 -541zM332 780l-62 -473
q29 -59 87.5 -105t152.5 -46q116 0 191.5 95.5t99.5 264.5l6 45q24 172 -24 270.5t-173 98.5q-177 0 -278 -150z" />
    <glyph glyph-name="Tdotaccent" unicode="&#x1e6a;" horiz-adv-x="1085" 
d="M795 1917l-23 -168h-203l23 168h203zM733 1409l-184 -1409h-213l184 1409h-393l25 188h999l-25 -188h-393z" />
    <glyph glyph-name="tdotaccent" unicode="&#x1e6b;" horiz-adv-x="841" 
d="M473 1085h322l-25 -182h-321l-74 -557q-14 -107 24.5 -148.5t122.5 -41.5q86 0 133 14l-22 -170q-56 -25 -141 -25q-187 0 -267.5 85.5t-56.5 267.5l76 575h-172l24 182h172l41 308h205zM553 1671l-23 -168h-204l22 168h205z" />
    <glyph glyph-name="Wgrave" unicode="&#x1e80;" horiz-adv-x="1863" 
d="M854 1946h219l88 -226h-209zM1130 -12l-116 1372l-477 -1372h-285l-76 1609h221l41 -1331l463 1331h281l114 -1331l390 1331h219l-498 -1609h-277z" />
    <glyph glyph-name="wgrave" unicode="&#x1e81;" horiz-adv-x="1501" 
d="M553 1597h225l140 -354h-209zM766 864l-328 -864h-266l-76 1085h199l39 -866l330 866h256l104 -866l266 866h199l-361 -1085h-260z" />
    <glyph glyph-name="Wacute" unicode="&#x1e82;" horiz-adv-x="1863" 
d="M1102 1946h219l-160 -226h-209zM1130 -12l-116 1372l-477 -1372h-285l-76 1609h221l41 -1331l463 1331h281l114 -1331l390 1331h219l-498 -1609h-277z" />
    <glyph glyph-name="wacute" unicode="&#x1e83;" horiz-adv-x="1501" 
d="M942 1597h225l-249 -354h-209zM766 864l-328 -864h-266l-76 1085h199l39 -866l330 866h256l104 -866l266 866h199l-361 -1085h-260z" />
    <glyph glyph-name="Wdieresis" unicode="&#x1e84;" horiz-adv-x="1863" 
d="M1018 1917l-23 -168h-202l22 168h203zM1352 1917l-23 -168h-203l23 168h203zM1130 -12l-116 1372l-477 -1372h-285l-76 1609h221l41 -1331l463 1331h281l114 -1331l390 1331h219l-498 -1609h-277z" />
    <glyph glyph-name="wdieresis" unicode="&#x1e85;" horiz-adv-x="1501" 
d="M782 1544l-30 -233h-234l31 233h233zM1157 1544l-31 -233h-233l31 233h233zM766 864l-328 -864h-266l-76 1085h199l39 -866l330 866h256l104 -866l266 866h199l-361 -1085h-260z" />
    <glyph glyph-name="Eszett" unicode="&#x1e9e;" horiz-adv-x="1585" 
d="M651 909l353 498q-60 27 -191 27q-386 0 -430 -344l-143 -1090h-213l145 1100q36 275 196 398.5t449 123.5q268 0 440 -84l-18 -143l-334 -473l131 -17q217 -28 341.5 -147.5t99.5 -308.5l-7 -48q-28 -206 -160 -316t-349 -110q-267 0 -382.5 127t-78.5 373l8 55h213
q-14 -104 -7.5 -174t40 -112.5t81 -61t115.5 -18.5h21q117 0 194 67.5t90 182.5l2 16q15 120 -59 197.5t-235 97.5l-330 41z" />
    <glyph glyph-name="Ygrave" unicode="&#x1ef2;" horiz-adv-x="1216" 
d="M530 1946h220l88 -226h-209zM678 485l-64 -485h-213l64 485l-324 1112h228l233 -847l455 847h235z" />
    <glyph glyph-name="ygrave" unicode="&#x1ef3;" horiz-adv-x="1038" 
d="M332 1597h225l139 -354h-209zM465 262l379 823h223l-518 -1038l-211 -457h-236l224 441l-250 1054h219z" />
    <glyph glyph-name="enspace" unicode="&#x2002;" horiz-adv-x="1024" 
 />
    <glyph glyph-name="emspace" unicode="&#x2003;" horiz-adv-x="2048" 
 />
    <glyph glyph-name="threeperemspace" unicode="&#x2004;" horiz-adv-x="681" 
 />
    <glyph glyph-name="fourperemspace" unicode="&#x2005;" horiz-adv-x="512" 
 />
    <glyph glyph-name="sixperemspace" unicode="&#x2006;" horiz-adv-x="342" 
 />
    <glyph glyph-name="figurespace" unicode="&#x2007;" horiz-adv-x="1228" 
 />
    <glyph glyph-name="punctuationspace" unicode="&#x2008;" horiz-adv-x="368" 
 />
    <glyph glyph-name="thinspace" unicode="&#x2009;" horiz-adv-x="307" 
 />
    <glyph glyph-name="hairspace" unicode="&#x200a;" horiz-adv-x="102" 
 />
    <glyph glyph-name="zerowidthspace" unicode="&#x200b;" horiz-adv-x="0" 
 />
    <glyph glyph-name="figuredash" unicode="&#x2012;" horiz-adv-x="1228" 
d="M63 625l25 184h1065l-25 -184h-1065z" />
    <glyph glyph-name="endash" unicode="&#x2013;" horiz-adv-x="1024" 
d="M63 625l25 184h860l-24 -184h-861z" />
    <glyph glyph-name="emdash" unicode="&#x2014;" horiz-adv-x="2048" 
d="M63 625l25 184h1884l-24 -184h-1885z" />
    <glyph glyph-name="uni2015" unicode="&#x2015;" horiz-adv-x="2457" 
d="M63 625l25 184h2294l-25 -184h-2294z" />
    <glyph glyph-name="doublebar" unicode="&#x2016;" horiz-adv-x="765" 
d="M-8 -246l258 1966h205l-258 -1966h-205zM299 -246l258 1966h205l-258 -1966h-205z" />
    <glyph glyph-name="quoteleft" unicode="&#x2018;" horiz-adv-x="479" 
d="M172 1143l25 184q44 309 311 309l-14 -114q-70 0 -113.5 -34.5t-63.5 -111.5h119l-30 -233h-234z" />
    <glyph glyph-name="quoteright" unicode="&#x2019;" horiz-adv-x="479" 
d="M465 1597l-25 -184q-44 -309 -311 -309l14 115q70 0 113 34t63 111h-118l30 233h234z" />
    <glyph glyph-name="quotesinglbase" unicode="&#x201a;" horiz-adv-x="479" 
d="M287 233l-25 -184q-44 -309 -311 -309l14 115q70 0 113 34t63 111h-118l30 233h234z" />
    <glyph glyph-name="reversequoteleft" unicode="&#x201b;" horiz-adv-x="479" 
d="M207 1413l24 184h234l-31 -233h-119q0 -80 32.5 -112.5t103.5 -32.5l-15 -115q-270 0 -229 309z" />
    <glyph glyph-name="quotedblleft" unicode="&#x201c;" horiz-adv-x="827" 
d="M520 1143l25 184q44 309 311 309l-14 -114q-70 0 -113 -34.5t-63 -111.5h118l-30 -233h-234zM172 1143l25 184q44 309 311 309l-14 -114q-70 0 -113.5 -34.5t-63.5 -111.5h119l-30 -233h-234z" />
    <glyph glyph-name="quotedblright" unicode="&#x201d;" horiz-adv-x="827" 
d="M465 1597l-25 -184q-44 -309 -311 -309l14 115q70 0 113 34t63 111h-118l30 233h234zM813 1597l-25 -184q-44 -309 -311 -309l15 115q70 0 113 34t63 111h-119l31 233h233z" />
    <glyph glyph-name="quotedblbase" unicode="&#x201e;" horiz-adv-x="827" 
d="M287 233l-25 -184q-44 -309 -311 -309l14 115q70 0 113 34t63 111h-118l30 233h234zM635 233l-25 -184q-44 -309 -311 -309l14 115q70 0 113 34t63 111h-118l30 233h234z" />
    <glyph glyph-name="reversequotedblleft" unicode="&#x201f;" horiz-adv-x="827" 
d="M207 1413l24 184h234l-31 -233h-119q0 -80 32.5 -112.5t103.5 -32.5l-15 -115q-270 0 -229 309zM555 1413l25 184h233l-31 -233h-118q0 -80 32 -112.5t103 -32.5l-15 -115q-270 0 -229 309z" />
    <glyph glyph-name="dagger" unicode="&#x2020;" horiz-adv-x="813" 
d="M360 922l46 260h112l-24 -260l-45 -260h-113zM455 1638h133l-49 -288h-113zM842 1333l-17 -135l-278 10l16 115zM102 1198l17 135l278 -10l-16 -115z" />
    <glyph glyph-name="daggerdbl" unicode="&#x2021;" horiz-adv-x="813" 
d="M381 1036l25 146h112l-14 -146l-25 -143h-112zM455 1638h133l-49 -288h-113zM842 1333l-17 -135l-278 10l16 115zM102 1198l17 135l278 -10l-16 -115zM301 465l45 260h113l-25 -260l-45 -260h-113zM782 877l-16 -136l-279 11l17 114zM43 741l16 136l279 -11l-16 -114z
" />
    <glyph glyph-name="bullet" unicode="&#x2022;" horiz-adv-x="847" 
d="M743 1006l-75 -578h-578l76 578h577z" />
    <glyph glyph-name="ellipsis" unicode="&#x2026;" horiz-adv-x="2048" 
d="M410 233l-31 -233h-234l31 233h234zM1733 233l-31 -233h-234l31 233h234zM1071 233l-31 -233h-233l31 233h233z" />
    <glyph glyph-name="perthousand" unicode="&#x2030;" horiz-adv-x="2748" 
d="M1425 -25q-168 0 -264.5 99t-75.5 272l2 16q22 168 124 265.5t255 97.5q168 0 264.5 -99t75.5 -272l-2 -16q-22 -168 -124 -265.5t-255 -97.5zM1473 561h-13q-88 0 -142.5 -52t-66.5 -151l-2 -16q-10 -92 36.5 -147.5t133.5 -55.5h13q88 0 142 52t66 151l2 16
q10 92 -36 147.5t-133 55.5zM512 1622q87 0 184 -39q119 -47 338 -47q118 0 242 22t176 44l-16 -125l-809 -1477h-189l760 1389q-68 -25 -176 -25q-65 0 -174 16q11 -74 4 -129l-2 -16q-22 -168 -124 -265.5t-255 -97.5q-168 0 -264.5 99t-75.5 272l2 17q22 168 124 265
t255 97zM518 1458h-12q-88 0 -142.5 -52t-66.5 -151l-2 -16q-10 -92 36.5 -147.5t133.5 -55.5h12q88 0 142.5 52t66.5 151l2 16q10 92 -36.5 147.5t-133.5 55.5zM2245 -25q-168 0 -264.5 99t-75.5 272l2 16q22 168 124 265.5t255 97.5q168 0 264.5 -99t75.5 -272l-3 -16
q-22 -168 -123.5 -265.5t-254.5 -97.5zM2292 561h-13q-88 0 -142 -52t-66 -151l-3 -16q-10 -92 36.5 -147.5t133.5 -55.5h13q88 0 142.5 52t66.5 151l2 16q10 92 -36.5 147.5t-133.5 55.5z" />
    <glyph glyph-name="tripleprime" unicode="&#x2034;" horiz-adv-x="1062" 
d="M233 1597h211l-96 -589h-155zM834 1597h213l-117 -589h-154zM543 1597h192l-96 -589h-154z" />
    <glyph glyph-name="guilsinglleft" unicode="&#x2039;" horiz-adv-x="632" 
d="M573 1102l-26 -201l-307 -213l252 -213l-25 -184l-387 309l24 193z" />
    <glyph glyph-name="guilsinglright" unicode="&#x203a;" horiz-adv-x="632" 
d="M39 291l27 201l307 213l-252 213l24 184l387 -309l-24 -193z" />
    <glyph glyph-name="interrobang" unicode="&#x203d;" horiz-adv-x="962" 
d="M524 233l-30 -233h-234l31 233h233zM760 1245q0 134 -90 170l-103 -577q21 38 61.5 97.5t65.5 98.5t45.5 96.5t20.5 114.5zM500 416h-111l86 1005q-77 -36 -118.5 -127t-59.5 -252h-211l2 15q16 111 37 193.5t57.5 155.5t86.5 118.5t124 71.5t170 26q221 0 316.5 -91.5
t95.5 -270.5q0 -87 -22.5 -159.5t-60 -125t-83.5 -99.5t-94.5 -94t-91 -97t-76.5 -119t-47 -150z" />
    <glyph glyph-name="fraction" unicode="&#x2044;" horiz-adv-x="409" 
d="M-381 0h-209l1389 1597h209z" />
    <glyph glyph-name="uni2070" unicode="&#x2070;" 
d="M645 1370l-45 -344q-15 -125 -80 -183.5t-198 -58.5q-131 0 -194.5 65t-49.5 177l45 344q15 125 80 182.5t198 57.5q132 0 195 -64t49 -176zM436 1026l45 344q13 96 -84 96h-4q-51 0 -75 -21.5t-31 -76.5l-45 -342q-13 -98 84 -98h4q50 0 74.5 22t31.5 76z" />
    <glyph glyph-name="uni2074" unicode="&#x2074;" 
d="M502 799h-164l24 174h-311l17 119l385 505h155l-63 -481h86l-19 -143h-86zM410 1335l-168 -221l53 2h86l20 160z" />
    <glyph glyph-name="uni2075" unicode="&#x2075;" 
d="M76 1055h164q-17 -127 84 -127h12q42 0 71.5 28t36.5 86l2 17q7 58 -20 86.5t-70 28.5h-12q-76 0 -115 -62l-135 47l78 438h498l-19 -143h-360l-33 -178q53 41 135 41q113 0 172 -72.5t45 -185.5l-2 -17q-15 -120 -87.5 -189t-190.5 -69q-141 0 -205.5 69t-50.5 185z" />
    <glyph glyph-name="uni2076" unicode="&#x2076;" 
d="M645 1610l-18 -146q-90 0 -153 -19t-114 -65q-51 -45 -75 -125q51 48 139 48q98 0 149.5 -67t38.5 -177l-2 -17q-15 -122 -85 -190t-193 -68q-140 0 -203 84.5t-45 221.5l2 16q11 99 50 201t114 172q77 74 171.5 102.5t223.5 28.5zM246 1098q-8 -28 -8 -58
q0 -55 25 -83.5t63 -28.5h12q94 0 108 110l3 17q6 49 -19 76.5t-65 27.5h-11q-65 0 -108 -61z" />
    <glyph glyph-name="uni2077" unicode="&#x2077;" 
d="M106 1311l37 286h543l-12 -100l-375 -698h-176l360 657l-96 -2h-119l-18 -143h-144z" />
    <glyph glyph-name="uni2078" unicode="&#x2078;" 
d="M324 784q-132 0 -197.5 68t-54.5 164l2 16q16 132 133 172q-41 12 -66 64t-18 112l2 17q5 39 21 74t46 68t82.5 52t122.5 19q138 0 200 -67t52 -157l-2 -16q-7 -63 -41 -107.5t-84 -58.5q46 -14 69.5 -63t14.5 -119l-2 -16q-10 -89 -80.5 -155.5t-199.5 -66.5zM356 1135
h-14q-42 0 -70 -24.5t-34 -72.5l-2 -16q-6 -45 19 -69.5t69 -24.5h12q94 0 104 94l2 16q6 47 -16.5 72t-69.5 25zM401 1466h-12q-90 0 -102 -86l-2 -16q-4 -40 18 -63t59 -23h11q97 0 108 86l2 16q4 39 -19.5 62.5t-62.5 23.5z" />
    <glyph glyph-name="uni2079" unicode="&#x2079;" 
d="M80 784l18 146q90 0 153 19t114 65q51 45 75 125q-50 -47 -139 -47q-98 0 -149.5 66.5t-38.5 176.5l2 17q15 122 85 190t193 68q140 0 203 -84t45 -221l-2 -17q-11 -99 -50 -201t-114 -172q-77 -74 -171.5 -102.5t-223.5 -28.5zM479 1296q8 28 8 58q0 55 -25 83.5
t-63 28.5h-12q-94 0 -108 -110l-3 -17q-6 -49 19 -76.5t65 -27.5h11q65 0 108 61z" />
    <glyph glyph-name="uni207A" unicode="&#x207a;" 
d="M322 1462h151l-24 -188h188l-21 -152h-188l-25 -188h-151l24 188h-188l21 152h188z" />
    <glyph glyph-name="uni207B" unicode="&#x207b;" 
d="M88 1122l21 152h528l-21 -152h-528z" />
    <glyph glyph-name="uni207C" unicode="&#x207c;" 
d="M102 1233l21 151h528l-20 -151h-529zM74 1010l20 151h529l-21 -151h-528z" />
    <glyph glyph-name="uni207D" unicode="&#x207d;" horiz-adv-x="378" 
d="M98 1190l2 16q31 250 172 391h185q-162 -184 -187 -391l-2 -16q-14 -108 12 -217t64 -174h-168q-39 64 -65.5 172t-12.5 219z" />
    <glyph glyph-name="uni207E" unicode="&#x207e;" horiz-adv-x="378" 
d="M391 1206l-2 -16q-31 -250 -172 -391h-184q161 182 186 391l2 16q14 108 -12 217t-64 174h168q39 -64 65.5 -172t12.5 -219z" />
    <glyph glyph-name="uni2080" unicode="&#x2080;" 
d="M543 571l-45 -344q-15 -125 -80.5 -183t-198.5 -58q-131 0 -194.5 64.5t-49.5 176.5l45 344q15 125 80.5 182.5t198.5 57.5q132 0 195 -64t49 -176zM334 227l45 344q13 97 -84 97h-4q-51 0 -75.5 -22t-31.5 -77l-45 -342q-13 -98 84 -98h4q50 0 75 22.5t32 75.5z" />
    <glyph glyph-name="uni2081" unicode="&#x2081;" 
d="M477 0h-514l19 143h174l59 453l-137 -84l-66 119l273 168h121l-87 -656h177z" />
    <glyph glyph-name="uni2082" unicode="&#x2082;" 
d="M268 143h219l-18 -143h-524l14 102l350 340q37 37 51 59t17 50l2 16q6 51 -15.5 76t-62.5 25h-12q-100 0 -111 -136h-164l2 17q31 262 279 262q139 0 200.5 -67.5t49.5 -163.5l-2 -17q-7 -59 -31.5 -99t-83.5 -97l-233 -226z" />
    <glyph glyph-name="uni2083" unicode="&#x2083;" 
d="M137 256q-17 -127 84 -127h12q95 0 105 94l2 17q12 96 -84 96h-109l19 143h106q96 0 107 86l2 17q4 39 -18.5 62.5t-61.5 23.5h-12q-100 0 -111 -136h-164l2 17q31 262 279 262q138 0 200 -66.5t52 -156.5l-2 -17q-9 -66 -42 -108.5t-83 -56.5q46 -14 69.5 -63.5
t14.5 -119.5l-2 -16q-5 -41 -23 -78t-49.5 -70t-84 -53t-118.5 -20q-141 0 -205.5 69t-50.5 185l2 16h164z" />
    <glyph glyph-name="uni2084" unicode="&#x2084;" 
d="M399 0h-163l24 174h-311l16 119l385 506h156l-64 -482h86l-18 -143h-86zM307 537l-168 -222l54 2h86l20 160z" />
    <glyph glyph-name="uni2085" unicode="&#x2085;" 
d="M-27 256h164q-17 -127 84 -127h12q41 0 71.5 28.5t37.5 86.5l2 16q7 58 -20 86.5t-70 28.5h-12q-76 0 -115 -62l-135 47l78 439h497l-18 -144h-361l-32 -178q53 41 135 41q113 0 172 -72.5t45 -185.5l-2 -16q-15 -120 -88 -189t-191 -69q-141 0 -205.5 69t-50.5 185z" />
    <glyph glyph-name="uni2086" unicode="&#x2086;" 
d="M543 811l-19 -145q-90 0 -152.5 -19t-113.5 -65q-53 -46 -76 -125q50 47 140 47q98 0 149.5 -67t38.5 -177l-2 -16q-15 -122 -85.5 -190t-193.5 -68q-140 0 -202.5 83.5t-44.5 221.5l2 16q28 246 163 373q77 74 172 102.5t224 28.5zM143 299q-8 -28 -8 -57q0 -55 25 -84
t63 -29h13q94 0 108 111l2 16q6 49 -19 76.5t-65 27.5h-10q-66 0 -109 -61z" />
    <glyph glyph-name="uni2087" unicode="&#x2087;" 
d="M4 512l37 287h543l-13 -101l-374 -698h-177l361 657l-96 -2h-119l-19 -143h-143z" />
    <glyph glyph-name="uni2088" unicode="&#x2088;" 
d="M221 -14q-132 0 -197.5 67.5t-54.5 163.5l2 16q17 133 133 173q-41 12 -66 64t-18 112l3 16q5 39 21 74t46 68t82.5 52t122.5 19q138 0 200 -66.5t52 -156.5l-2 -17q-7 -63 -41 -107t-84 -58q46 -14 69.5 -63.5t14.5 -119.5l-2 -16q-5 -40 -23 -77.5t-50.5 -70.5
t-86.5 -53t-121 -20zM254 336h-14q-42 0 -70.5 -24.5t-34.5 -71.5l-2 -17q-6 -45 19 -69.5t69 -24.5h12q95 0 105 94l2 17q12 96 -86 96zM299 668h-12q-91 0 -103 -86l-2 -17q-4 -40 18.5 -63t59.5 -23h10q98 0 109 86l2 17q4 39 -19.5 62.5t-62.5 23.5z" />
    <glyph glyph-name="uni2089" unicode="&#x2089;" 
d="M-23 -14l19 145q90 0 152.5 19t113.5 65q53 46 76 125q-50 -47 -139 -47q-98 0 -150 67t-39 177l2 16q15 122 85.5 190t193.5 68q140 0 203 -84t45 -221l-2 -17q-28 -244 -164 -372q-77 -74 -172 -102.5t-224 -28.5zM377 498q8 28 8 57q0 55 -25 84t-63 29h-12
q-95 0 -109 -111l-2 -16q-6 -49 19 -77t65 -28h10q65 0 109 62z" />
    <glyph glyph-name="uni208A" unicode="&#x208a;" 
d="M219 664h152l-25 -189h189l-21 -151h-188l-25 -189h-151l24 189h-188l20 151h189z" />
    <glyph glyph-name="uni208B" unicode="&#x208b;" 
d="M-14 324l20 151h529l-21 -151h-528z" />
    <glyph glyph-name="uni208C" unicode="&#x208c;" 
d="M0 434l20 152h529l-21 -152h-528zM-29 211l21 151h528l-20 -151h-529z" />
    <glyph glyph-name="uni208D" unicode="&#x208d;" horiz-adv-x="378" 
d="M-4 391l2 17q31 250 172 391h184q-161 -182 -186 -391l-2 -17q-14 -108 12 -217t64 -174h-168q-39 64 -65.5 172t-12.5 219z" />
    <glyph glyph-name="uni208E" unicode="&#x208e;" horiz-adv-x="378" 
d="M289 408l-2 -17q-31 -250 -172 -391h-185q162 184 187 391l2 17q14 108 -12 217t-64 174h168q39 -64 65.5 -172t12.5 -219z" />
    <glyph glyph-name="Euro" unicode="&#x20ac;" horiz-adv-x="1228" 
d="M188 526h-151l24 189h142l10 86h-141l24 188h148q73 328 207.5 480.5t345.5 152.5q464 0 383 -543l-9 -55h-186q29 219 -12.5 314.5t-167.5 95.5h-17q-238 0 -329 -445h506l-115 -188h-420l-12 -86h452l-116 -189h-353q0 -180 58 -271t166 -91h16q233 0 277 348h186
l-2 -20q-26 -258 -142 -387.5t-327 -129.5q-228 0 -336.5 132.5t-108.5 418.5z" />
    <glyph glyph-name="ruble" unicode="&#x20bd;" horiz-adv-x="1228" 
d="M406 623l-15 -111h408l-25 -186h-407l-43 -326h-213l43 326h-170l24 186h170l15 111h-168l24 186h168l102 788h406q77 0 146 -12.5t135.5 -46t111.5 -85t66 -135.5t6 -192l-6 -45q-14 -104 -53.5 -185.5t-91.5 -131.5t-119.5 -83t-132.5 -45.5t-136 -12.5h-245zM430 809
h217q52 0 100 12.5t96 42t82 88.5t44 142l2 16q38 299 -250 299h-213z" />
    <glyph glyph-name="numero" unicode="&#x2116;" horiz-adv-x="2240" 
d="M1337 1597l-209 -1597h-223l-510 1221l-39 -355l-112 -866h-207l209 1597h223l510 -1220l39 354l112 866h207zM2224 1219l-6 -45q-26 -189 -129.5 -294.5t-267.5 -105.5q-80 0 -141.5 20t-100 56t-61.5 86t-27 111t4 131l6 45q26 189 129.5 294t267.5 105
q132 0 211.5 -53.5t105 -141.5t9.5 -208zM1411 414l21 157h690l-21 -157h-690zM2036 1174l6 45q33 245 -150 245q-87 0 -140.5 -62t-68.5 -179l-6 -45q-33 -246 150 -246q87 0 140.5 62t68.5 180z" />
    <glyph glyph-name="published" unicode="&#x2117;" horiz-adv-x="1884" 
d="M119 799q0 168 65 320t175.5 262.5t262.5 175.5t320 65t320 -65t262.5 -175.5t175.5 -262.5t65 -320t-65 -320.5t-175.5 -262.5t-262.5 -175.5t-320 -65.5t-320 65.5t-262.5 175.5t-175.5 262.5t-65 320.5zM217 799q0 -197 97 -364t264 -264t364 -97t364 97t264 264
t97 364t-97 364t-264 264t-364 97t-364 -97t-264 -264t-97 -364zM786 676v-359h-190v963h418q61 0 112 -13t98.5 -43.5t75 -90.5t27.5 -144v-22q0 -84 -27.5 -144t-75 -90.5t-98.5 -43.5t-112 -13h-228zM786 821h193q66 0 112 33.5t46 116.5v14q0 83 -46 116.5t-112 33.5
h-193v-314z" />
    <glyph glyph-name="servicemark" unicode="&#x2120;" horiz-adv-x="1097" 
d="M209 1321q-92 12 -131 49t-39 109v8q0 77 48.5 121.5t139.5 44.5q99 0 144 -48t45 -147v-16h-103q0 63 -19 91t-65 28h-6q-38 0 -60 -18t-22 -50v-4q0 -35 23 -53t82 -27q91 -12 132.5 -49.5t41.5 -110.5v-10q0 -80 -50 -126t-143 -46q-194 0 -194 201v6h102
q0 -60 20.5 -87.5t69.5 -27.5h6q84 0 84 76v4q0 36 -23.5 55.5t-82.5 26.5zM899 1473l-102 -388h-111l-104 388l4 -134v-254h-101v553h154l102 -383l103 383h153v-553h-102v254z" />
    <glyph glyph-name="trademark" unicode="&#x2122;" horiz-adv-x="1097" 
d="M281 1548v-463h-103v463h-141v90h383v-90h-139zM899 1473l-102 -388h-111l-104 388l4 -134v-254h-101v553h154l102 -383l103 383h153v-553h-102v254z" />
    <glyph glyph-name="uni2153" unicode="&#x2153;" horiz-adv-x="1638" 
d="M580 799h-514l18 143h174l59 453l-137 -84l-65 119l272 167h121l-86 -655h176zM233 0h-208l1388 1597h209zM1161 256q-17 -127 84 -127h12q95 0 105 94l2 17q12 96 -84 96h-109l19 143h106q96 0 107 86l2 17q4 39 -18.5 62.5t-61.5 23.5h-12q-100 0 -111 -136h-164l2 17
q31 262 279 262q138 0 200 -66.5t52 -156.5l-2 -17q-9 -66 -42 -108.5t-83 -56.5q46 -14 69.5 -63.5t14.5 -119.5l-2 -16q-5 -41 -23 -78t-49.5 -70t-84 -53t-118.5 -20q-141 0 -205.5 69t-50.5 185l2 16h164z" />
    <glyph glyph-name="uni2154" unicode="&#x2154;" horiz-adv-x="1638" 
d="M371 942h219l-19 -143h-524l14 102l351 340q36 36 50 58t17 51l2 16q11 100 -78 100h-12q-49 0 -76.5 -31t-33.5 -104h-164l2 17q31 262 278 262q139 0 200.5 -68t49.5 -164l-2 -16q-7 -59 -32 -99.5t-83 -97.5l-233 -225zM233 0h-208l1388 1597h209zM1161 256
q-17 -127 84 -127h12q95 0 105 94l2 17q12 96 -84 96h-109l19 143h106q96 0 107 86l2 17q4 39 -18.5 62.5t-61.5 23.5h-12q-100 0 -111 -136h-164l2 17q31 262 279 262q138 0 200 -66.5t52 -156.5l-2 -17q-9 -66 -42 -108.5t-83 -56.5q46 -14 69.5 -63.5t14.5 -119.5l-2 -16
q-5 -41 -23 -78t-49.5 -70t-84 -53t-118.5 -20q-141 0 -205.5 69t-50.5 185l2 16h164z" />
    <glyph glyph-name="uni2155" unicode="&#x2155;" horiz-adv-x="1638" 
d="M580 799h-514l18 143h174l59 453l-137 -84l-65 119l272 167h121l-86 -655h176zM233 0h-208l1388 1597h209zM997 256h164q-17 -127 84 -127h12q41 0 71.5 28.5t37.5 86.5l2 16q7 58 -20 86.5t-70 28.5h-12q-76 0 -115 -62l-135 47l78 439h497l-18 -144h-361l-32 -178
q53 41 135 41q113 0 172 -72.5t45 -185.5l-2 -16q-15 -120 -88 -189t-191 -69q-141 0 -205.5 69t-50.5 185z" />
    <glyph glyph-name="uni2156" unicode="&#x2156;" horiz-adv-x="1638" 
d="M371 942h219l-19 -143h-524l14 102l351 340q36 36 50 58t17 51l2 16q11 100 -78 100h-12q-49 0 -76.5 -31t-33.5 -104h-164l2 17q31 262 278 262q139 0 200.5 -68t49.5 -164l-2 -16q-7 -59 -32 -99.5t-83 -97.5l-233 -225zM233 0h-208l1388 1597h209zM997 256h164
q-17 -127 84 -127h12q41 0 71.5 28.5t37.5 86.5l2 16q7 58 -20 86.5t-70 28.5h-12q-76 0 -115 -62l-135 47l78 439h497l-18 -144h-361l-32 -178q53 41 135 41q113 0 172 -72.5t45 -185.5l-2 -16q-15 -120 -88 -189t-191 -69q-141 0 -205.5 69t-50.5 185z" />
    <glyph glyph-name="uni2157" unicode="&#x2157;" horiz-adv-x="1638" 
d="M240 1055q-17 -127 84 -127h12q94 0 104 94l2 16q12 97 -84 97h-108l18 143h107q95 0 106 86l2 16q4 39 -18.5 62.5t-61.5 23.5h-12q-49 0 -76.5 -31t-33.5 -104h-164l2 17q31 262 278 262q138 0 200 -67t52 -157l-2 -16q-9 -67 -42 -109.5t-83 -56.5q46 -14 69.5 -63
t14.5 -119l-2 -16q-5 -41 -22.5 -78.5t-49.5 -70.5t-84 -53t-118 -20q-141 0 -205.5 69t-50.5 185l2 17h164zM233 0h-208l1388 1597h209zM997 256h164q-17 -127 84 -127h12q41 0 71.5 28.5t37.5 86.5l2 16q7 58 -20 86.5t-70 28.5h-12q-76 0 -115 -62l-135 47l78 439h497
l-18 -144h-361l-32 -178q53 41 135 41q113 0 172 -72.5t45 -185.5l-2 -16q-15 -120 -88 -189t-191 -69q-141 0 -205.5 69t-50.5 185z" />
    <glyph glyph-name="uni2158" unicode="&#x2158;" horiz-adv-x="1638" 
d="M502 799h-164l24 174h-311l17 119l385 505h155l-63 -481h86l-19 -143h-86zM410 1335l-168 -221l53 2h86l20 160zM233 0h-208l1388 1597h209zM997 256h164q-17 -127 84 -127h12q41 0 71.5 28.5t37.5 86.5l2 16q7 58 -20 86.5t-70 28.5h-12q-76 0 -115 -62l-135 47l78 439
h497l-18 -144h-361l-32 -178q53 41 135 41q113 0 172 -72.5t45 -185.5l-2 -16q-15 -120 -88 -189t-191 -69q-141 0 -205.5 69t-50.5 185z" />
    <glyph glyph-name="uni2159" unicode="&#x2159;" horiz-adv-x="1638" 
d="M580 799h-514l18 143h174l59 453l-137 -84l-65 119l272 167h121l-86 -655h176zM233 0h-208l1388 1597h209zM1567 811l-19 -145q-90 0 -152.5 -19t-113.5 -65q-53 -46 -76 -125q50 47 140 47q98 0 149.5 -67t38.5 -177l-2 -16q-15 -122 -85.5 -190t-193.5 -68
q-140 0 -202.5 83.5t-44.5 221.5l2 16q28 246 163 373q77 74 172 102.5t224 28.5zM1167 299q-8 -28 -8 -57q0 -55 25 -84t63 -29h13q94 0 108 111l2 16q6 49 -19 76.5t-65 27.5h-10q-66 0 -109 -61z" />
    <glyph glyph-name="uni215A" unicode="&#x215a;" horiz-adv-x="1638" 
d="M76 1055h164q-17 -127 84 -127h12q42 0 71.5 28t36.5 86l2 17q7 58 -20 86.5t-70 28.5h-12q-76 0 -115 -62l-135 47l78 438h498l-19 -143h-360l-33 -178q53 41 135 41q113 0 172 -72.5t45 -185.5l-2 -17q-15 -120 -87.5 -189t-190.5 -69q-141 0 -205.5 69t-50.5 185z
M233 0h-208l1388 1597h209zM1567 811l-19 -145q-90 0 -152.5 -19t-113.5 -65q-53 -46 -76 -125q50 47 140 47q98 0 149.5 -67t38.5 -177l-2 -16q-15 -122 -85.5 -190t-193.5 -68q-140 0 -202.5 83.5t-44.5 221.5l2 16q28 246 163 373q77 74 172 102.5t224 28.5zM1167 299
q-8 -28 -8 -57q0 -55 25 -84t63 -29h13q94 0 108 111l2 16q6 49 -19 76.5t-65 27.5h-10q-66 0 -109 -61z" />
    <glyph glyph-name="uni215B" unicode="&#x215b;" horiz-adv-x="1638" 
d="M580 799h-514l18 143h174l59 453l-137 -84l-65 119l272 167h121l-86 -655h176zM233 0h-208l1388 1597h209zM1245 -14q-132 0 -197.5 67.5t-54.5 163.5l2 16q17 133 133 173q-41 12 -66 64t-18 112l3 16q5 39 21 74t46 68t82.5 52t122.5 19q138 0 200 -66.5t52 -156.5
l-2 -17q-7 -63 -41 -107t-84 -58q46 -14 69.5 -63.5t14.5 -119.5l-2 -16q-5 -40 -23 -77.5t-50.5 -70.5t-86.5 -53t-121 -20zM1278 336h-14q-42 0 -70.5 -24.5t-34.5 -71.5l-2 -17q-6 -45 19 -69.5t69 -24.5h12q95 0 105 94l2 17q12 96 -86 96zM1323 668h-12q-91 0 -103 -86
l-2 -17q-4 -40 18.5 -63t59.5 -23h10q98 0 109 86l2 17q4 39 -19.5 62.5t-62.5 23.5z" />
    <glyph glyph-name="uni215C" unicode="&#x215c;" horiz-adv-x="1638" 
d="M240 1055q-17 -127 84 -127h12q94 0 104 94l2 16q12 97 -84 97h-108l18 143h107q95 0 106 86l2 16q4 39 -18.5 62.5t-61.5 23.5h-12q-49 0 -76.5 -31t-33.5 -104h-164l2 17q31 262 278 262q138 0 200 -67t52 -157l-2 -16q-9 -67 -42 -109.5t-83 -56.5q46 -14 69.5 -63
t14.5 -119l-2 -16q-5 -41 -22.5 -78.5t-49.5 -70.5t-84 -53t-118 -20q-141 0 -205.5 69t-50.5 185l2 17h164zM233 0h-208l1388 1597h209zM1245 -14q-132 0 -197.5 67.5t-54.5 163.5l2 16q17 133 133 173q-41 12 -66 64t-18 112l3 16q5 39 21 74t46 68t82.5 52t122.5 19
q138 0 200 -66.5t52 -156.5l-2 -17q-7 -63 -41 -107t-84 -58q46 -14 69.5 -63.5t14.5 -119.5l-2 -16q-5 -40 -23 -77.5t-50.5 -70.5t-86.5 -53t-121 -20zM1278 336h-14q-42 0 -70.5 -24.5t-34.5 -71.5l-2 -17q-6 -45 19 -69.5t69 -24.5h12q95 0 105 94l2 17q12 96 -86 96z
M1323 668h-12q-91 0 -103 -86l-2 -17q-4 -40 18.5 -63t59.5 -23h10q98 0 109 86l2 17q4 39 -19.5 62.5t-62.5 23.5z" />
    <glyph glyph-name="uni215D" unicode="&#x215d;" horiz-adv-x="1638" 
d="M76 1055h164q-17 -127 84 -127h12q42 0 71.5 28t36.5 86l2 17q7 58 -20 86.5t-70 28.5h-12q-76 0 -115 -62l-135 47l78 438h498l-19 -143h-360l-33 -178q53 41 135 41q113 0 172 -72.5t45 -185.5l-2 -17q-15 -120 -87.5 -189t-190.5 -69q-141 0 -205.5 69t-50.5 185z
M233 0h-208l1388 1597h209zM1245 -14q-132 0 -197.5 67.5t-54.5 163.5l2 16q17 133 133 173q-41 12 -66 64t-18 112l3 16q5 39 21 74t46 68t82.5 52t122.5 19q138 0 200 -66.5t52 -156.5l-2 -17q-7 -63 -41 -107t-84 -58q46 -14 69.5 -63.5t14.5 -119.5l-2 -16
q-5 -40 -23 -77.5t-50.5 -70.5t-86.5 -53t-121 -20zM1278 336h-14q-42 0 -70.5 -24.5t-34.5 -71.5l-2 -17q-6 -45 19 -69.5t69 -24.5h12q95 0 105 94l2 17q12 96 -86 96zM1323 668h-12q-91 0 -103 -86l-2 -17q-4 -40 18.5 -63t59.5 -23h10q98 0 109 86l2 17q4 39 -19.5 62.5
t-62.5 23.5z" />
    <glyph glyph-name="uni215E" unicode="&#x215e;" horiz-adv-x="1638" 
d="M106 1311l37 286h543l-12 -100l-375 -698h-176l360 657l-96 -2h-119l-18 -143h-144zM233 0h-208l1388 1597h209zM1245 -14q-132 0 -197.5 67.5t-54.5 163.5l2 16q17 133 133 173q-41 12 -66 64t-18 112l3 16q5 39 21 74t46 68t82.5 52t122.5 19q138 0 200 -66.5
t52 -156.5l-2 -17q-7 -63 -41 -107t-84 -58q46 -14 69.5 -63.5t14.5 -119.5l-2 -16q-5 -40 -23 -77.5t-50.5 -70.5t-86.5 -53t-121 -20zM1278 336h-14q-42 0 -70.5 -24.5t-34.5 -71.5l-2 -17q-6 -45 19 -69.5t69 -24.5h12q95 0 105 94l2 17q12 96 -86 96zM1323 668h-12
q-91 0 -103 -86l-2 -17q-4 -40 18.5 -63t59.5 -23h10q98 0 109 86l2 17q4 39 -19.5 62.5t-62.5 23.5z" />
    <glyph glyph-name="uni215F" unicode="&#x215f;" horiz-adv-x="1024" 
d="M580 799h-514l18 143h174l59 453l-137 -84l-65 119l272 167h121l-86 -655h176zM233 0h-208l1388 1597h209z" />
    <glyph glyph-name="arrowleft" unicode="&#x2190;" horiz-adv-x="1884" 
d="M918 1597h268l-705 -704h1260v-188h-1260l705 -705h-268l-799 799z" />
    <glyph glyph-name="arrowup" unicode="&#x2191;" horiz-adv-x="1884" 
d="M143 555v268l799 799l799 -799v-268l-705 705v-1260h-188v1260z" />
    <glyph glyph-name="arrowright" unicode="&#x2192;" horiz-adv-x="1884" 
d="M698 1597h269l798 -798l-798 -799h-269l705 705h-1260v188h1260z" />
    <glyph glyph-name="arrowdown" unicode="&#x2193;" horiz-adv-x="1884" 
d="M143 774v268l705 -704v1259h188v-1259l705 704v-268l-799 -799z" />
    <glyph glyph-name="uni2196" unicode="&#x2196;" horiz-adv-x="1884" 
d="M334 0h-191v1597h1598v-190h-1274l1298 -1298l-133 -134l-1298 1299v-1274z" />
    <glyph glyph-name="uni2197" unicode="&#x2197;" horiz-adv-x="1884" 
d="M143 1407v190h1598v-1597h-191v1274l-1298 -1299l-133 134l1298 1298h-1274z" />
    <glyph glyph-name="uni2198" unicode="&#x2198;" horiz-adv-x="1884" 
d="M143 0v190h1274l-1298 1299l133 133l1298 -1298v1273h191v-1597h-1598z" />
    <glyph glyph-name="uni2199" unicode="&#x2199;" horiz-adv-x="1884" 
d="M1741 190v-190h-1598v1597h191v-1273l1298 1298l133 -133l-1298 -1299h1274z" />
    <glyph glyph-name="minus" unicode="&#x2212;" horiz-adv-x="1228" 
d="M84 705l25 188h1040l-25 -188h-1040z" />
    <glyph glyph-name="approxequal" unicode="&#x2248;" horiz-adv-x="1228" 
d="M399 1159q79 0 152 -22t118 -48.5t104.5 -48.5t115.5 -22q99 0 209 110l98 -112l-10 -11l-17 -17t-21 -19.5t-26.5 -22.5t-30 -22t-34.5 -22t-37 -19.5t-41 -16.5t-43.5 -10t-46.5 -4q-79 0 -152 22t-118 48.5t-104.5 48.5t-115.5 22q-99 0 -209 -110l-98 112l10 11
l17 17t21 19.5t26.5 22.5t30 22t34.5 22t37 19.5t41 16.5t43.5 10t46.5 4zM342 731q79 0 151.5 -22t118 -48.5t104.5 -48.5t115 -22q99 0 209 110l99 -112l-6 -6q-154 -158 -302 -158q-79 0 -151.5 22t-118 48.5t-104.5 48.5t-115 22q-99 0 -209 -110l-98 112l11 11
q10 11 16 17t21 19.5t26.5 22.5t30 22t34.5 22t37 19.5t41 16.5t43.5 10t46.5 4z" />
    <glyph glyph-name="notequal" unicode="&#x2260;" horiz-adv-x="1228" 
d="M113 918l24 188h598l166 240h182l-165 -240h260l-25 -188h-365l-163 -238h495l-24 -188h-600l-164 -240h-182l163 240h-258l25 188h362l164 238h-493z" />
    <glyph glyph-name="equivalence" unicode="&#x2261;" horiz-adv-x="1228" 
d="M141 1130l25 189h1040l-24 -189h-1041zM84 705l25 188h1040l-25 -188h-1040zM27 279l24 188h1041l-25 -188h-1040z" />
    <glyph glyph-name="lessequal" unicode="&#x2264;" horiz-adv-x="1228" 
d="M1186 1171l-774 -241l710 -242l-24 -199l-998 347l27 204l1087 346zM1079 350l-18 -139l-998 344l19 139z" />
    <glyph glyph-name="greaterequal" unicode="&#x2265;" horiz-adv-x="1228" 
d="M84 707l774 239l-713 240l29 200l995 -346l-26 -204l-1088 -347zM18 211l19 139l1087 346l-18 -139z" />
    <glyph glyph-name="squaremultiply" unicode="&#x22a0;" horiz-adv-x="1884" 
d="M1741 0h-1598v1597h1598v-1597zM1554 1411h-1224v-1225h1224v1225zM584 305l-135 135l358 359l-358 358l135 135l358 -358l358 358l136 -135l-359 -358l359 -359l-136 -135l-358 359z" />
    <glyph glyph-name="house" unicode="&#x2302;" horiz-adv-x="1740" 
d="M1597 0h-1454v922l727 696l727 -696v-922z" />
    <glyph glyph-name="blacksquare" unicode="&#x25a0;" horiz-adv-x="1884" 
d="M1741 0h-1598v1597h1598v-1597z" />
    <glyph glyph-name="blacksquare" unicode="&#xe740;" horiz-adv-x="1884" 
d="M1741 0h-1598v1597h1598v-1597z" />
    <glyph glyph-name="whitesquare" unicode="&#x25a1;" horiz-adv-x="1884" 
d="M1741 0h-1598v1597h1598v-1597zM1554 1411h-1224v-1225h1224v1225z" />
    <glyph glyph-name="blacksmallsquare" unicode="&#x25aa;" horiz-adv-x="1392" 
d="M1229 0h-1086v1085h1086v-1085z" />
    <glyph glyph-name="whitesmallsquare" unicode="&#x25ab;" horiz-adv-x="1392" 
d="M143 1085h1086v-1085h-1086v1085zM1042 899h-712v-713h712v713z" />
    <glyph glyph-name="triagup" unicode="&#x25b2;" horiz-adv-x="1904" 
d="M1055 1622l721 -1622h-209l-615 1401l-614 -1401h-209l721 1622h205z" />
    <glyph glyph-name="triagrt" unicode="&#x25ba;" horiz-adv-x="1904" 
d="M1786 901v-205l-1622 -721v209l1401 615l-1401 614v209z" />
    <glyph glyph-name="triagdn" unicode="&#x25bc;" horiz-adv-x="1904" 
d="M850 -25l-721 1622h209l614 -1400l615 1400h209l-721 -1622h-205z" />
    <glyph glyph-name="triaglf" unicode="&#x25c4;" horiz-adv-x="1904" 
d="M119 901l1622 721v-209l-1401 -614l1401 -615v-209l-1622 721v205z" />
    <glyph glyph-name="whitecircle" unicode="&#x25cb;" horiz-adv-x="1884" 
d="M119 799q0 168 65 320t175.5 262.5t262.5 175.5t320 65t320 -65t262.5 -175.5t175.5 -262.5t65 -320t-65 -320.5t-175.5 -262.5t-262.5 -175.5t-320 -65.5t-320 65.5t-262.5 175.5t-175.5 262.5t-65 320.5zM305 799q0 -130 50.5 -248t135.5 -203t203 -135.5t248 -50.5
t248 50.5t203 135.5t135.5 203t50.5 248t-50.5 248t-135.5 203t-203 135.5t-248 50.5t-248 -50.5t-203 -135.5t-135.5 -203t-50.5 -248z" />
    <glyph glyph-name="whitecircle" unicode="&#x25ef;" horiz-adv-x="1884" 
d="M119 799q0 168 65 320t175.5 262.5t262.5 175.5t320 65t320 -65t262.5 -175.5t175.5 -262.5t65 -320t-65 -320.5t-175.5 -262.5t-262.5 -175.5t-320 -65.5t-320 65.5t-262.5 175.5t-175.5 262.5t-65 320.5zM305 799q0 -130 50.5 -248t135.5 -203t203 -135.5t248 -50.5
t248 50.5t203 135.5t135.5 203t50.5 248t-50.5 248t-135.5 203t-203 135.5t-248 50.5t-248 -50.5t-203 -135.5t-135.5 -203t-50.5 -248z" />
    <glyph glyph-name="blackcircle" unicode="&#x25cf;" horiz-adv-x="1884" 
d="M119 799q0 168 65 320t175.5 262.5t262.5 175.5t320 65t320 -65t262.5 -175.5t175.5 -262.5t65 -320t-65 -320.5t-175.5 -262.5t-262.5 -175.5t-320 -65.5t-320 65.5t-262.5 175.5t-175.5 262.5t-65 320.5z" />
    <glyph glyph-name="uni25E2" unicode="&#x25e2;" horiz-adv-x="1904" 
d="M1815 72l-144 -144l-1655 635l148 148l1425 -557l-557 1425l148 147z" />
    <glyph glyph-name="uni25E3" unicode="&#x25e3;" horiz-adv-x="1904" 
d="M90 72l635 1654l147 -147l-557 -1425l1426 557l147 -148l-1655 -635z" />
    <glyph glyph-name="uni25E4" unicode="&#x25e4;" horiz-adv-x="1904" 
d="M90 1528l143 143l1655 -635l-147 -147l-1426 557l557 -1426l-147 -147z" />
    <glyph glyph-name="uni25E5" unicode="&#x25e5;" horiz-adv-x="1904" 
d="M1815 1528l-635 -1655l-148 147l557 1426l-1425 -557l-148 147l1655 635z" />
    <glyph glyph-name="uni2605" unicode="&#x2605;" horiz-adv-x="1802" 
d="M901 369l-532 -389l202 628l-532 387h659l203 627l203 -627h659l-532 -387l203 -628z" />
    <glyph glyph-name="ballotboxwithx" unicode="&#x2612;" horiz-adv-x="1392" 
d="M143 1085h1086v-1085h-1086v1085zM1042 899h-712v-713h712v713zM584 305l-135 135l102 103l-102 102l135 135l102 -102l102 102l136 -135l-103 -102l103 -103l-136 -135l-102 103z" />
    <glyph glyph-name="uni263C" unicode="&#x263c;" horiz-adv-x="1966" 
d="M1067 391l-86 -414l-86 414q0 -80 -59 -135q-17 -16 -61 -45.5t-61.5 -53.5t-17.5 -61q0 -19 6 -37t12 -26l7 -8q-45 13 -69.5 48t-24.5 79q0 61 43 104q41 41 62.5 97t21.5 98l-353 -232l232 352q-53 -53 -135 -53q-19 0 -64.5 8.5t-62.5 8.5q-31 0 -55 -10t-36 -24.5
t-19.5 -29.5t-8.5 -25l-2 -10q-17 31 -17 58q0 59 42.5 100t103.5 41q42 0 89.5 17.5t74.5 35t32 25.5l-413 86l413 86q-80 0 -135 59q-16 18 -37.5 48.5t-34 47t-35.5 30t-52 13.5q-19 0 -37 -6t-26 -12l-9 -6q13 45 48 69.5t79 24.5q61 0 104 -43q41 -41 97 -62.5
t98 -21.5l-232 352l353 -231q-54 54 -54 135q0 19 8.5 64.5t8.5 62.5q0 31 -10 55t-24.5 36t-29 19.5t-24.5 8.5l-10 2q29 16 57 16q59 0 100 -42t41 -103q0 -42 17.5 -89.5t35 -75t25.5 -32.5l86 414l86 -414q0 80 59 135q17 16 61 45.5t61.5 53.5t17.5 61q0 19 -6 37
t-12 26l-7 9q45 -13 69.5 -48t24.5 -79q0 -62 -43 -105q-41 -41 -62.5 -96.5t-21.5 -97.5l353 231l-232 -352q53 53 135 53q19 0 64.5 -8t62.5 -8q31 0 55 10t36 24.5t19.5 29t8.5 24.5l2 10q17 -31 17 -57q0 -59 -42.5 -100t-103.5 -41q-42 0 -89.5 -17.5t-74.5 -35
t-32 -25.5l413 -86l-413 -86q79 0 135 -60q16 -18 37.5 -48.5t34 -47t35.5 -30t52 -13.5q19 0 37 6t26 12l9 7q-13 -45 -48.5 -70t-78.5 -25q-61 0 -104 43q-41 41 -97 62.5t-98 21.5l232 -352l-353 232q54 -54 54 -136q0 -19 -8.5 -64.5t-8.5 -62.5q0 -31 10 -55
t24.5 -35.5t29 -19t24.5 -8.5l10 -2q-31 -17 -57 -17q-59 0 -100 42.5t-41 103.5q0 42 -17.5 89.5t-35 74.5t-25.5 32z" />
    <glyph glyph-name="uni263E" unicode="&#x263e;" horiz-adv-x="1966" 
d="M1278 1491q-181 0 -333.5 -92.5t-241.5 -252t-89 -347.5q0 -141 52.5 -269.5t141.5 -221t212 -147.5t258 -55q99 0 197 31q-218 -157 -492 -157q-167 0 -318.5 65t-261 174.5t-174.5 261t-65 318.5t65 318.5t174.5 261t261 174.5t318.5 65q268 0 492 -158
q-109 31 -197 31z" />
    <glyph glyph-name="spade" unicode="&#x2660;" horiz-adv-x="1843" 
d="M924 1618q66 -99 199 -238t278 -233q60 -39 104 -73t90.5 -79t75.5 -90t47.5 -102t18.5 -119q0 -150 -105 -253t-256 -103q-142 0 -246 93.5t-163 235.5l-6 -2q17 -210 54 -356.5t113 -298.5h-413q76 152 113.5 299t54.5 356l-6 2q-27 -67 -65.5 -124t-89 -104
t-116.5 -74t-139 -27q-151 0 -256 103t-105 253q0 62 18.5 119t47.5 102t75.5 90t90.5 79t104 73q146 95 279 233.5t199 237.5h4z" />
    <glyph glyph-name="club" unicode="&#x2663;" horiz-adv-x="1843" 
d="M715 0q76 152 113.5 299t54.5 356l-6 2q-27 -67 -65.5 -124t-89 -104t-116.5 -74t-139 -27q-151 0 -256 103t-105 253q0 161 99 265t258 104q84 0 172 -47l4 4q-78 118 -78 239q0 154 103.5 261.5t257.5 107.5t257 -107.5t103 -261.5q0 -121 -78 -239l4 -4q88 47 172 47
q159 0 258 -104t99 -265q0 -150 -105 -253t-256 -103q-142 0 -246 93.5t-163 235.5l-6 -2q17 -210 54 -356.5t113 -298.5h-413z" />
    <glyph glyph-name="heart" unicode="&#x2665;" horiz-adv-x="1843" 
d="M924 -20h-4q-59 88 -193.5 259t-284.5 341q-64 73 -114 136.5t-105 148.5t-86 170t-31 161q0 185 107 303.5t285 118.5q92 0 163.5 -25.5t120.5 -73t80.5 -100.5t55.5 -123h8q24 70 55.5 123t80.5 100.5t120.5 73t163.5 25.5q178 0 284.5 -118.5t106.5 -303.5
q0 -76 -31 -161t-86 -170t-105 -148.5t-114 -136.5q-149 -169 -283.5 -340t-193.5 -260z" />
    <glyph glyph-name="diamond" unicode="&#x2666;" horiz-adv-x="1843" 
d="M1673 799q-218 -170 -415 -386t-334 -433h-4q-137 217 -334.5 433t-415.5 386q218 170 415.5 386t334.5 433h4q137 -217 334 -433t415 -386z" />
    <glyph glyph-name="uni267B" unicode="&#x267b;" horiz-adv-x="1966" 
d="M1767 545l2 -4l-196 -342q-41 -60 -60 -77q-44 -38 -120 -38h-117v-100l-232 278l232 277v-101h297q34 0 66.5 11t54.5 27t39.5 31.5t25.5 26.5zM381 250h-4l-197 344q-23 42 -31.5 65.5t-5.5 63t29 82.5l57 100l-86 49l357 64l121 -340l-84 49q-144 -246 -148 -256
q-27 -46 -29 -101.5t10 -87.5zM827 1595v2h396q37 -1 56 -3t46 -11t47 -29t39 -53l57 -100l88 49l-124 -340l-355 64l84 49l-147 256q-27 47 -74 76t-80 35zM410 1225l137 243q21 38 69 64q63 34 131.5 30.5t126.5 -33t80 -69.5l-237 -411zM913 84h-276q-43 0 -90 27
q-45 26 -76 70.5t-42.5 91.5t-9.5 91.5t19 73.5h475v-354zM1651 1079l141 -239q20 -36 20 -90q1 -99 -78 -178.5t-151 -79.5l-237 411z" />
    <glyph glyph-name="uni267C" unicode="&#x267c;" horiz-adv-x="1966" 
d="M598 1321l-106 -188l237 -138l184 320q-17 30 -62 52.5t-98 25.5t-102 -23q-37 -21 -53 -49zM807 1421v-2q4 0 11 -1.5t26.5 -7.5t36.5 -14.5t37.5 -26.5t33.5 -40l115 -199l-66 -38l275 -50l96 265l-67 -39l-45 78q-28 49 -60 62t-86 13h-307zM659 248h215v274h-368
q-13 -22 -15 -57t7.5 -71.5t33.5 -71t58 -54.5q36 -20 69 -20zM467 377h2q-5 10 -10.5 27.5t-5 63t21.5 81.5l115 199l65 -39l-94 264l-276 -49l67 -39l-45 -78q-20 -34 -22.5 -65t4 -48.5t24.5 -50.5zM1563 834l-109 186l-237 -137l184 -320q57 0 118 61.5t60 139.5
q0 42 -16 70zM1546 602l-2 2q-2 -3 -6.5 -8.5t-19.5 -20t-31.5 -25t-42 -19.5t-51.5 -9h-230v78l-180 -215l180 -215v78h90q57 0 85 21.5t55 66.5zM131 799q0 221 108.5 407.5t295 295t407.5 108.5t407.5 -108.5t295 -295t108.5 -407.5t-108.5 -407.5t-295 -295
t-407.5 -108.5t-407.5 108.5t-295 295t-108.5 407.5z" />
    <glyph glyph-name="uni267D" unicode="&#x267d;" horiz-adv-x="1966" 
d="M492 1133l106 188q16 28 53 49q49 26 102 23t98 -25.5t62 -52.5l-184 -320zM807 1419v2h307q54 0 86 -13t60 -62l45 -78l67 39l-96 -265l-275 50l66 38l-115 199q-21 36 -57 58.5t-62 26.5zM874 248h-215q-33 0 -69 20q-34 20 -58 54.5t-33.5 71t-7.5 71.5t15 57h368
v-274zM469 377h-2l-154 266q-18 33 -24.5 50.5t-4 48.5t22.5 65l45 78l-67 39l276 49l94 -264l-65 39l-115 -199q-21 -36 -22.5 -79t7.5 -68zM1454 1020l109 -186q16 -28 16 -70q1 -78 -60 -139.5t-118 -61.5l-184 320zM1544 604l2 -2l-153 -266q-18 -30 -31 -46t-41 -29
t-68 -13h-90v-78l-180 215l180 215v-78h230q42 0 79.5 20.5t54.5 41.5zM123 799q0 167 65 318.5t174.5 261t261 174.5t318.5 65t318.5 -65t261 -174.5t174.5 -261t65 -318.5t-65 -318.5t-174.5 -261t-261 -174.5t-318.5 -65t-318.5 65t-261 174.5t-174.5 261t-65 318.5z
M201 799q0 -202 99 -372.5t269.5 -270t372.5 -99.5t372.5 99.5t269.5 270t99 372.5q0 151 -58.5 288.5t-157.5 236.5t-236.5 157.5t-288.5 58.5t-288.5 -58.5t-236.5 -157.5t-157.5 -236.5t-58.5 -288.5z" />
    <glyph glyph-name="mediumwhitecircle" unicode="&#x26aa;" horiz-adv-x="1372" 
d="M119 543q0 154 76 284.5t206.5 206.5t284.5 76t284.5 -76t206.5 -206.5t76 -284.5t-76 -285t-206.5 -207t-284.5 -76t-284.5 76t-206.5 207t-76 285zM305 543q0 -158 111.5 -269.5t269.5 -111.5t269.5 111.5t111.5 269.5t-111.5 269.5t-269.5 111.5t-269.5 -111.5
t-111.5 -269.5z" />
    <glyph glyph-name="mediumblackcircle" unicode="&#x26ab;" horiz-adv-x="1372" 
d="M119 543q0 154 76 284.5t206.5 206.5t284.5 76t284.5 -76t206.5 -206.5t76 -284.5t-76 -285t-206.5 -207t-284.5 -76t-284.5 76t-206.5 207t-76 285z" />
    <glyph glyph-name="anglebracketleft" unicode="&#x3008;" horiz-adv-x="684" 
d="M754 1720l-463 -989l201 -977h-216l-202 983l461 983h219z" />
    <glyph glyph-name="anglebracketright" unicode="&#x3009;" horiz-adv-x="684" 
d="M-78 -246l463 989l-201 977h215l203 -983l-461 -983h-219z" />
    <glyph glyph-name="fi" unicode="&#xe38c;" horiz-adv-x="1280" 
d="M500 1292l-27 -207h281l-25 -182h-280l-119 -903h-205l119 903h-172l24 182h172l29 224q46 354 399 354q41 0 76.5 -5.5t52 -10.5t23.5 -9l-23 -172q-45 17 -118 17q-92 0 -142.5 -40t-64.5 -151zM838 0l141 1085h205l-142 -1085h-204zM1260 1544l-31 -233h-234l31 233
h234z" />
    <glyph glyph-name="fi" unicode="&#xfb01;" horiz-adv-x="1280" 
d="M500 1292l-27 -207h281l-25 -182h-280l-119 -903h-205l119 903h-172l24 182h172l29 224q46 354 399 354q41 0 76.5 -5.5t52 -10.5t23.5 -9l-23 -172q-45 17 -118 17q-92 0 -142.5 -40t-64.5 -151zM838 0l141 1085h205l-142 -1085h-204zM1260 1544l-31 -233h-234l31 233
h234z" />
    <glyph glyph-name="fl" unicode="&#xe38d;" horiz-adv-x="1280" 
d="M500 1292l-27 -207h281l-25 -182h-280l-119 -903h-205l119 903h-172l24 182h172l29 224q46 354 399 354q41 0 76.5 -5.5t52 -10.5t23.5 -9l-23 -172q-45 17 -118 17q-92 0 -142.5 -40t-64.5 -151zM838 0l215 1638h204l-215 -1638h-204z" />
    <glyph glyph-name="fl" unicode="&#xfb02;" horiz-adv-x="1280" 
d="M500 1292l-27 -207h281l-25 -182h-280l-119 -903h-205l119 903h-172l24 182h172l29 224q46 354 399 354q41 0 76.5 -5.5t52 -10.5t23.5 -9l-23 -172q-45 17 -118 17q-92 0 -142.5 -40t-64.5 -151zM838 0l215 1638h204l-215 -1638h-204z" />
    <glyph glyph-name="invertedbreve" unicode="&#xe411;" horiz-adv-x="1024" 
d="M610 1622q182 0 260 -103.5t52 -275.5h-154q14 103 -26 159t-132 56q-202 0 -223 -215h-162q21 183 112.5 281t272.5 98z" />
    <glyph glyph-name="doublegrave" unicode="&#xe412;" horiz-adv-x="1024" 
d="M496 1597h192l113 -354h-174zM193 1597h190l139 -354h-174z" />
    <glyph glyph-name="caronSlovak" unicode="&#xe413;" horiz-adv-x="1024" 
d="M764 1638h145l-92 -395h-106z" />
    <glyph glyph-name="commaaccent" unicode="&#xe414;" horiz-adv-x="1232" 
d="M502 -104l-15 -111q-30 -234 -276 -234l12 97q136 0 156 88h-109l21 160h211z" />
    <glyph glyph-name="commaaccent" unicode="&#xf6c3;" horiz-adv-x="1232" 
d="M502 -104l-15 -111q-30 -234 -276 -234l12 97q136 0 156 88h-109l21 160h211z" />
    <glyph glyph-name="dotbelow" unicode="&#xe415;" horiz-adv-x="1232" 
d="M508 -141l-31 -234h-233l30 234h234z" />
    <glyph glyph-name="altcedilla" unicode="&#xe416;" horiz-adv-x="1232" 
d="M369 -317q106 0 106 61q0 53 -110 53q-61 0 -101 -18v96q67 23 137 23q94 0 149.5 -38t55.5 -116q0 -88 -65.5 -134t-171.5 -46q-133 0 -203 51l51 106q55 -38 152 -38z" />
    <glyph glyph-name="grave.cap" unicode="&#xe421;" horiz-adv-x="1024" 
d="M434 1946h219l88 -226h-209z" />
    <glyph glyph-name="acute.cap" unicode="&#xe422;" horiz-adv-x="1024" 
d="M682 1946h219l-160 -226h-209z" />
    <glyph glyph-name="circumflex.cap" unicode="&#xe423;" horiz-adv-x="1024" 
d="M969 1720h-193l-117 121l-153 -121h-201l262 226h201z" />
    <glyph glyph-name="tilde.cap" unicode="&#xe424;" horiz-adv-x="1024" 
d="M870 1925h127q-13 -105 -69.5 -157t-136.5 -52q-41 0 -83.5 16.5t-71.5 36t-63.5 36t-60.5 16.5q-29 0 -51.5 -20t-28.5 -60h-127q13 105 70 157t137 52q41 0 83.5 -16.5t71.5 -36t63.5 -36t60.5 -16.5q29 0 51 20t28 60z" />
    <glyph glyph-name="macron.cap" unicode="&#xe425;" horiz-adv-x="1024" 
d="M385 1761l18 144h521l-19 -144h-520z" />
    <glyph glyph-name="breve.cap" unicode="&#xe426;" horiz-adv-x="1024" 
d="M641 1694q-174 0 -244.5 69t-54.5 183h150q-8 -59 28.5 -91t124.5 -32q93 0 138 29.5t53 93.5h157q-16 -114 -102 -183t-250 -69z" />
    <glyph glyph-name="invertedbreve.cap" unicode="&#xe427;" horiz-adv-x="1024" 
d="M664 1972q174 0 244.5 -69t54.5 -183h-150q8 59 -29 91t-125 32q-93 0 -137.5 -29.5t-52.5 -93.5h-158q16 114 102.5 183t250.5 69z" />
    <glyph glyph-name="dotaccent.cap" unicode="&#xe428;" horiz-adv-x="1024" 
d="M768 1917l-23 -168h-204l22 168h205z" />
    <glyph glyph-name="dieresis.cap" unicode="&#xe429;" horiz-adv-x="1024" 
d="M598 1917l-23 -168h-202l22 168h203zM932 1917l-23 -168h-202l22 168h203z" />
    <glyph glyph-name="ring.cap" unicode="&#xe42a;" horiz-adv-x="1024" 
d="M846 1782q0 -91 -65.5 -153t-153.5 -62q-82 0 -134.5 52t-52.5 136q0 91 65.5 153t153.5 62q82 0 134.5 -52t52.5 -136zM532 1755q0 -44 26 -71t69 -27q52 0 89.5 34t37.5 91q0 44 -26 71t-69 27q-52 0 -89.5 -34t-37.5 -91z" />
    <glyph glyph-name="hungarumlaut.cap" unicode="&#xe42b;" horiz-adv-x="1024" 
d="M539 1946h200l-149 -226h-193zM834 1946h200l-157 -226h-193z" />
    <glyph glyph-name="doublegrave.cap" unicode="&#xe42c;" horiz-adv-x="1024" 
d="M596 1946h201l80 -226h-193zM301 1946h201l88 -226h-193z" />
    <glyph glyph-name="caron.cap" unicode="&#xe42d;" horiz-adv-x="1024" 
d="M336 1946h192l117 -121l154 121h200l-262 -226h-200z" />
    <glyph glyph-name="commaaccent.cap" unicode="&#xe42e;" horiz-adv-x="1024" 
d="M537 1720l10 78q21 176 246 176l-11 -69q-115 0 -131 -62h105l-17 -123h-202z" />
    <glyph glyph-name="exclamdown.cap" unicode="&#xe441;" horiz-adv-x="479" 
d="M266 0h-254l209 1182h144zM465 1597l-31 -233h-233l30 233h234z" />
    <glyph glyph-name="questiondown.cap" unicode="&#xe444;" horiz-adv-x="962" 
d="M446 1364l31 233h234l-31 -233h-234zM408 -25q-221 0 -316.5 91.5t-95.5 271.5q0 87 22.5 159.5t60 125t83.5 99.5t94.5 94t91 97t76.5 119t47 150h141q-10 -120 -55 -222t-102 -173t-112.5 -136t-93.5 -141t-38 -158q0 -190 197 -190q67 0 116 28.5t79 83.5t46.5 123
t24.5 158h211l-2 -14q-16 -112 -37 -194.5t-57.5 -155.5t-86.5 -118.5t-124 -71.5t-170 -26z" />
    <glyph glyph-name="guilsinglleft.cap" unicode="&#xe451;" horiz-adv-x="632" 
d="M588 1204l-27 -200l-307 -213l252 -213l-25 -185l-387 309l25 193z" />
    <glyph glyph-name="guilsinglright.cap" unicode="&#xe452;" horiz-adv-x="632" 
d="M53 393l27 201l307 213l-252 213l25 184l387 -309l-25 -193z" />
    <glyph glyph-name="guillemotleft.cap" unicode="&#xe453;" horiz-adv-x="1093" 
d="M588 1204l-27 -200l-307 -213l252 -213l-25 -185l-387 309l25 193zM1049 1204l-27 -200l-307 -213l252 -213l-25 -185l-387 309l25 193z" />
    <glyph glyph-name="guillemotright.cap" unicode="&#xe454;" horiz-adv-x="1093" 
d="M514 393l27 201l307 213l-252 213l25 184l387 -309l-25 -193zM53 393l27 201l307 213l-252 213l25 184l387 -309l-25 -193z" />
    <glyph glyph-name="slash.cap" unicode="&#xe461;" horiz-adv-x="702" 
d="M156 0h-205l602 1597h205z" />
    <glyph glyph-name="backslash.cap" unicode="&#xe462;" horiz-adv-x="702" 
d="M160 1597h205l184 -1597h-205z" />
    <glyph glyph-name="bar.cap" unicode="&#xe463;" horiz-adv-x="456" 
d="M25 0l208 1597h205l-209 -1597h-204z" />
    <glyph glyph-name="doublebar.cap" unicode="&#xe464;" horiz-adv-x="765" 
d="M25 0l208 1597h205l-209 -1597h-204zM332 0l209 1597h204l-208 -1597h-205z" />
    <glyph glyph-name="brokenbar.cap" unicode="&#xe465;" horiz-adv-x="456" 
d="M137 862l96 735h205l-96 -735h-205zM25 0l96 735h205l-97 -735h-204z" />
    <glyph glyph-name="bullet.cap" unicode="&#xe466;" horiz-adv-x="847" 
d="M754 1087l-76 -577h-578l76 577h578z" />
    <glyph glyph-name="onethirdemdash" unicode="&#xe471;" horiz-adv-x="681" 
d="M582 625h-519l25 184h518z" />
    <glyph glyph-name="threequarteremdash" unicode="&#xe472;" horiz-adv-x="1536" 
d="M63 625l25 184h1372l-24 -184h-1373z" />
    <glyph glyph-name="periodcentered.cap" unicode="&#xe481;" horiz-adv-x="479" 
d="M375 915l-31 -233h-233l30 233h234z" />
    <glyph glyph-name="hyphen.cap" unicode="&#xe482;" horiz-adv-x="655" 
d="M74 707l24 184h527l-25 -184h-526z" />
    <glyph glyph-name="onethirdemdash.cap" unicode="&#xe483;" horiz-adv-x="681" 
d="M592 707h-508l25 184h507z" />
    <glyph glyph-name="endash.cap" unicode="&#xe484;" horiz-adv-x="1024" 
d="M74 707l24 184h860l-24 -184h-860z" />
    <glyph glyph-name="threequarteremdash.cap" unicode="&#xe485;" horiz-adv-x="1536" 
d="M74 707l24 184h1372l-24 -184h-1372z" />
    <glyph glyph-name="emdash.cap" unicode="&#xe486;" horiz-adv-x="2048" 
d="M74 707l24 184h1884l-24 -184h-1884z" />
    <glyph glyph-name="figuredash.cap" unicode="&#xe487;" horiz-adv-x="1228" 
d="M74 707l24 184h1065l-24 -184h-1065z" />
    <glyph glyph-name="uni2015.cap" unicode="&#xe488;" horiz-adv-x="2457" 
d="M74 707l24 184h2294l-25 -184h-2293z" />
    <glyph glyph-name="parenleft.cap" unicode="&#xe491;" horiz-adv-x="684" 
d="M111 776l6 45q33 244 127.5 441t220.5 335h227q-65 -79 -117 -154t-105 -172.5t-90 -212t-54 -237.5l-7 -45q-51 -375 158 -776h-217q-38 67 -69 144.5t-57.5 182t-31.5 213t9 236.5z" />
    <glyph glyph-name="parenright.cap" unicode="&#xe492;" horiz-adv-x="684" 
d="M580 821l-7 -45q-33 -244 -127.5 -441t-220.5 -335h-227q65 79 117 154t105.5 172.5t90.5 212t54 237.5l6 45q51 375 -158 776h217q38 -67 69 -144.5t58 -182t32 -212.5t-9 -237z" />
    <glyph glyph-name="bracketleft.cap" unicode="&#xe493;" horiz-adv-x="684" 
d="M240 1597h475l-25 -186h-268l-160 -1225h268l-24 -186h-475z" />
    <glyph glyph-name="bracketright.cap" unicode="&#xe494;" horiz-adv-x="684" 
d="M455 0h-475l24 186h268l160 1225h-268l24 186h476z" />
    <glyph glyph-name="braceleft.cap" unicode="&#xe495;" horiz-adv-x="684" 
d="M715 1597l-25 -186q-96 0 -144.5 -37.5t-62.5 -148.5l-26 -209q-22 -169 -142 -217q53 -28 75 -79.5t11 -139.5l-28 -218q-13 -100 24 -138t133 -38l-24 -186h-45q-74 0 -131 15.5t-102 50.5t-63.5 97.5t-6.5 149.5l26 195q14 111 -20 154t-121 43l25 188q89 0 132 35.5
t56 134.5l29 221q11 87 46.5 149.5t89 97.5t114.5 50.5t135 15.5h45z" />
    <glyph glyph-name="braceright.cap" unicode="&#xe496;" horiz-adv-x="684" 
d="M-20 0l24 186q96 0 144.5 38t62.5 149l27 209q22 170 141 217q-53 28 -75 79.5t-11 139.5l29 217q13 99 -24.5 137.5t-133.5 38.5l24 186h45q74 0 131.5 -15.5t102 -50.5t63.5 -97.5t7 -149.5l-27 -194q-14 -111 20 -154t121 -43l-24 -188q-89 0 -132.5 -35.5
t-56.5 -134.5l-28 -222q-11 -87 -46.5 -149.5t-89 -97.5t-114.5 -50.5t-135 -15.5h-45z" />
    <glyph glyph-name="anglebracketleft.cap" unicode="&#xe497;" horiz-adv-x="684" 
d="M461 1597h219l-377 -804l164 -793h-217l-164 799z" />
    <glyph glyph-name="anglebracketright.cap" unicode="&#xe498;" horiz-adv-x="684" 
d="M231 0h-219l377 805l-164 792h217l164 -798z" />
    <glyph glyph-name="lowline" unicode="&#xe511;" horiz-adv-x="655" 
d="M-6 0l24 184h467l-24 -184h-467z" />
    <glyph glyph-name="underscoremonospace" unicode="&#xe512;" horiz-adv-x="1228" 
d="M-49 -313l24 184h1041l-25 -184h-1040z" />
    <glyph glyph-name="underscoremonospace" unicode="&#xff3f;" horiz-adv-x="1228" 
d="M-49 -313l24 184h1041l-25 -184h-1040z" />
    <glyph glyph-name="at.cap" unicode="&#xe513;" horiz-adv-x="1988" 
d="M940 -82h12q186 0 351.5 52.5t334.5 164.5l72 -115q-341 -249 -764 -249q-227 0 -405.5 66t-295.5 190t-165.5 309.5t-18.5 417.5l13 94q61 464 348 721.5t721 257.5q153 0 286 -31.5t241 -97.5t180 -162.5t101.5 -233t6.5 -301.5l-6 -45q-20 -143 -62.5 -252.5
t-99.5 -180t-134 -115t-159.5 -62.5t-181.5 -18h-135v141q-39 -67 -127.5 -116.5t-190.5 -49.5q-83 0 -147.5 25.5t-105 70t-65.5 105.5t-29 132t5 150l6 45q13 100 48 186t89.5 153.5t134.5 106t177 38.5q112 0 187 -48t104 -118l39 141h161l-53 -297l-70 -520
q99 3 169.5 25.5t130.5 75.5t98 147.5t57 234.5l6 45q20 145 -5 260.5t-83.5 192.5t-148 128.5t-193.5 74t-225 22.5h-12q-374 0 -617 -216t-295 -615l-12 -94q-26 -202 17.5 -362.5t144 -263t244.5 -156.5t321 -54zM1229 1006q-28 56 -83.5 98.5t-139.5 42.5
q-120 0 -191.5 -85t-91.5 -231l-6 -45q-19 -141 33 -228t168 -87q89 0 158 44t102 97z" />
    <glyph glyph-name="zero.inf" unicode="&#xe571;" 
d="M489 162l-45 -344q-15 -125 -80 -183.5t-198 -58.5q-131 0 -194.5 65t-49.5 177l45 344q15 125 80.5 182t198.5 57q132 0 194.5 -63.5t48.5 -175.5zM281 -182l45 344q13 96 -84 96h-4q-52 0 -76 -21.5t-31 -76.5l-45 -342q-6 -47 15 -73t69 -26h4q50 0 75 22.5t32 76.5z
" />
    <glyph glyph-name="one.inf" unicode="&#xe572;" 
d="M424 -410h-514l18 144h174l60 452l-137 -84l-66 119l272 168h121l-86 -655h176z" />
    <glyph glyph-name="two.inf" unicode="&#xe573;" 
d="M215 -266h219l-18 -144h-525l15 103l350 340q37 37 51 58.5t17 49.5l2 17q11 100 -78 100h-12q-49 0 -77 -31t-34 -104h-164l2 16q31 262 279 262q139 0 200.5 -67.5t49.5 -163.5l-3 -16q-7 -59 -31.5 -100t-82.5 -97l-234 -225z" />
    <glyph glyph-name="three.inf" unicode="&#xe574;" 
d="M84 -154q-17 -127 84 -127h12q94 0 105 95l2 16q12 96 -84 96h-109l19 144h106q96 0 107 86l2 16q4 39 -18.5 62.5t-61.5 23.5h-12q-49 0 -77 -31t-34 -104h-164l2 16q31 262 279 262q138 0 200 -66.5t52 -156.5l-2 -16q-9 -67 -42 -109.5t-83 -56.5q46 -14 69.5 -63
t14.5 -119l-2 -17q-5 -41 -23 -78t-49.5 -70t-84 -53t-118.5 -20q-141 0 -205.5 69t-50.5 185l2 16h164z" />
    <glyph glyph-name="four.inf" unicode="&#xe575;" 
d="M346 -410h-164l25 174h-311l16 119l385 506h156l-64 -481h86l-18 -144h-86zM254 127l-168 -221l53 2h86l21 160z" />
    <glyph glyph-name="five.inf" unicode="&#xe576;" 
d="M-80 -154h164q-17 -127 84 -127h12q41 0 71.5 28.5t37.5 86.5l2 16q7 58 -20 86.5t-70 28.5h-13q-76 0 -114 -61l-135 47l77 438h498l-18 -143h-361l-33 -178q53 41 136 41q113 0 172 -73t45 -186l-2 -16q-15 -120 -88 -189t-191 -69q-141 0 -205.5 69t-50.5 185z" />
    <glyph glyph-name="six.inf" unicode="&#xe577;" 
d="M489 401l-18 -145q-90 0 -152.5 -19t-113.5 -65q-53 -46 -76 -125q50 47 139 47q98 0 150 -67t39 -177l-2 -16q-15 -122 -85.5 -190t-193.5 -68q-140 0 -203 84t-45 221l2 17q28 244 164 372q77 74 171.5 102.5t223.5 28.5zM90 -111q-8 -28 -8 -57q0 -55 25 -84t63 -29
h12q95 0 109 111l2 16q6 49 -19 77t-65 28h-10q-65 0 -109 -62z" />
    <glyph glyph-name="seven.inf" unicode="&#xe578;" 
d="M-49 102l37 287h542l-12 -100l-375 -699h-176l361 658l-97 -2h-118l-19 -144h-143z" />
    <glyph glyph-name="eight.inf" unicode="&#xe579;" 
d="M168 -424q-132 0 -197.5 67.5t-54.5 163.5l2 17q16 132 133 172q-41 12 -66 64t-18 112l2 16q5 39 21 74t46 68t83 52t123 19q138 0 200 -66.5t52 -156.5l-2 -16q-7 -63 -41 -107.5t-84 -58.5q46 -14 69.5 -63t14.5 -119l-2 -17q-5 -40 -23 -77.5t-50.5 -70.5t-86.5 -53
t-121 -20zM201 -74h-15q-42 0 -70 -24t-34 -72l-2 -16q-6 -45 19.5 -70t68.5 -25h12q94 0 105 95l2 16q12 96 -86 96zM246 258h-13q-90 0 -102 -86l-2 -16q-4 -40 18.5 -63t59.5 -23h10q98 0 109 86l2 16q4 39 -19.5 62.5t-62.5 23.5z" />
    <glyph glyph-name="nine.inf" unicode="&#xe57a;" 
d="M-76 -424l19 145q90 0 152.5 19t113.5 65q53 46 76 125q-50 -47 -140 -47q-98 0 -149.5 67t-38.5 177l2 16q15 122 85.5 190t193.5 68q140 0 202.5 -83.5t44.5 -221.5l-2 -16q-11 -99 -50 -201t-114 -172q-77 -74 -171.5 -102.5t-223.5 -28.5zM324 88q8 28 8 57
q0 55 -25 84t-63 29h-13q-94 0 -108 -111l-2 -16q-6 -49 19 -76.5t65 -27.5h10q66 0 109 61z" />
    <glyph glyph-name="plus.inf" unicode="&#xe57b;" 
d="M166 254h151l-24 -188h188l-20 -152h-189l-24 -188h-152l25 188h-189l21 152h188z" />
    <glyph glyph-name="minus.inf" unicode="&#xe57c;" 
d="M-68 -86l21 152h528l-20 -152h-529z" />
    <glyph glyph-name="equal.inf" unicode="&#xe57d;" 
d="M-53 25l20 151h529l-21 -151h-528zM-82 -199l21 152h528l-21 -152h-528z" />
    <glyph glyph-name="parenleft.inf" unicode="&#xe57e;" horiz-adv-x="378" 
d="M-57 -18l2 16q31 250 172 391h184q-161 -182 -186 -391l-2 -16q-14 -109 11.5 -218.5t63.5 -173.5h-168q-39 63 -65 171.5t-12 220.5z" />
    <glyph glyph-name="parenright.inf" unicode="&#xe57f;" horiz-adv-x="378" 
d="M236 -2l-3 -16q-31 -251 -172 -392h-184q161 182 186 392l3 16q14 108 -12 217t-64 174h168q39 -64 65.5 -172t12.5 -219z" />
    <glyph glyph-name="Anocross" unicode="&#xe731;" horiz-adv-x="1271" 
d="M598 1610h297l229 -1610h-227l-180 1370l-537 -1370h-233z" />
    <glyph glyph-name="idotaccent" unicode="&#xe785;" horiz-adv-x="479" 
d="M37 0l141 1085h205l-141 -1085h-205zM459 1544l-31 -233h-233l30 233h234z" />
    <glyph glyph-name="interrobangdown" unicode="&#xe935;" horiz-adv-x="962" 
d="M616 123h209l-2 -14q-19 -132 -51 -227t-87.5 -168.5t-142 -110.5t-204.5 -37q-206 0 -302.5 86t-96.5 231q0 82 22 151t58 120t80.5 96.5t92 90t89 90t74.5 107.5t46 132h113l-74 -899q75 32 115.5 118.5t60.5 233.5zM379 852l31 233h233l-31 -233h-233zM244 -233
l100 532q-16 -26 -56.5 -81t-66 -93t-47.5 -95.5t-22 -111.5q0 -60 21.5 -96.5t70.5 -54.5z" />
    <glyph glyph-name="interrobangdown.cap" unicode="&#xe99b;" horiz-adv-x="962" 
d="M446 1364l31 233h234l-31 -233h-234zM211 352q0 -134 90 -170l102 578q-19 -35 -78.5 -121t-86.5 -149.5t-27 -137.5zM471 1182h111l-86 -1006q77 36 118.5 127t59.5 252h211l-2 -14q-16 -112 -37 -194.5t-57.5 -155.5t-86.5 -118.5t-124 -71.5t-170 -26
q-221 0 -316.5 91.5t-95.5 271.5q0 87 22.5 159.5t60 125t83.5 99.5t94.5 94t91 97t76.5 119t47 150z" />
    <glyph glyph-name="registered.cap" unicode="&#xe99c;" horiz-adv-x="1884" 
d="M119 799q0 168 65 320t175.5 262.5t262.5 175.5t320 65t320 -65t262.5 -175.5t175.5 -262.5t65 -320t-65 -320.5t-175.5 -262.5t-262.5 -175.5t-320 -65.5t-320 65.5t-262.5 175.5t-175.5 262.5t-65 320.5zM217 799q0 -197 97 -364t264 -264t364 -97t364 97t264 264
t97 364t-97 364t-264 264t-364 97t-364 -97t-264 -264t-97 -364zM770 676v-359h-190v963h415q62 0 113.5 -13t99.5 -43.5t75.5 -90.5t27.5 -144v-22q0 -197 -154 -262l154 -388h-203l-125 359h-213zM770 821h193q66 0 111.5 33.5t45.5 116.5v14q0 83 -45.5 116.5
t-111.5 33.5h-193v-314z" />
    <glyph glyph-name="period.T" unicode="&#xf182;" 
d="M354 233l-30 -233h-234l31 233h233z" />
    <glyph glyph-name="comma.T" unicode="&#xf183;" 
d="M354 233l-24 -184q-44 -309 -312 -309l15 115q70 0 113 34t63 111h-119l31 233h233z" />
    <glyph glyph-name="colon.T" unicode="&#xf184;" 
d="M354 233l-30 -233h-234l31 233h233zM442 915l-30 -233h-234l31 233h233z" />
    <glyph glyph-name="semicolon.T" unicode="&#xf185;" 
d="M354 233l-24 -184q-44 -309 -312 -309l15 115q70 0 113 34t63 111h-119l31 233h233zM442 915l-30 -233h-234l31 233h233z" />
    <glyph glyph-name="onesixteenth" unicode="&#xf215;" horiz-adv-x="2252" 
d="M580 799h-514l18 143h174l59 453l-137 -84l-65 119l272 167h121l-86 -655h176zM233 0h-208l1388 1597h209zM1501 0h-514l19 143h174l59 453l-137 -84l-66 119l273 168h121l-87 -656h177zM2181 811l-18 -145q-90 0 -153 -19t-114 -65q-51 -45 -75 -125q50 47 139 47
q98 0 149.5 -67t38.5 -177l-2 -16q-15 -122 -85 -190t-193 -68q-140 0 -203 84t-45 221l2 16q11 99 50 201t114 172q77 74 171.5 102.5t223.5 28.5zM1782 299q-8 -28 -8 -57q0 -55 25 -84t63 -29h12q94 0 108 111l3 16q6 49 -19 76.5t-65 27.5h-11q-65 0 -108 -61z" />
    <glyph glyph-name="threesixteenths" unicode="&#xf216;" horiz-adv-x="2252" 
d="M240 1055q-17 -127 84 -127h12q94 0 104 94l2 16q12 97 -84 97h-108l18 143h107q95 0 106 86l2 16q4 39 -18.5 62.5t-61.5 23.5h-12q-49 0 -76.5 -31t-33.5 -104h-164l2 17q31 262 278 262q138 0 200 -67t52 -157l-2 -16q-9 -67 -42 -109.5t-83 -56.5q46 -14 69.5 -63
t14.5 -119l-2 -16q-5 -41 -22.5 -78.5t-49.5 -70.5t-84 -53t-118 -20q-141 0 -205.5 69t-50.5 185l2 17h164zM233 0h-208l1388 1597h209zM1501 0h-514l19 143h174l59 453l-137 -84l-66 119l273 168h121l-87 -656h177zM2181 811l-18 -145q-90 0 -153 -19t-114 -65
q-51 -45 -75 -125q50 47 139 47q98 0 149.5 -67t38.5 -177l-2 -16q-15 -122 -85 -190t-193 -68q-140 0 -203 84t-45 221l2 16q11 99 50 201t114 172q77 74 171.5 102.5t223.5 28.5zM1782 299q-8 -28 -8 -57q0 -55 25 -84t63 -29h12q94 0 108 111l3 16q6 49 -19 76.5
t-65 27.5h-11q-65 0 -108 -61z" />
    <glyph glyph-name="fivesixteenths" unicode="&#xf217;" horiz-adv-x="2252" 
d="M76 1055h164q-17 -127 84 -127h12q42 0 71.5 28t36.5 86l2 17q7 58 -20 86.5t-70 28.5h-12q-76 0 -115 -62l-135 47l78 438h498l-19 -143h-360l-33 -178q53 41 135 41q113 0 172 -72.5t45 -185.5l-2 -17q-15 -120 -87.5 -189t-190.5 -69q-141 0 -205.5 69t-50.5 185z
M233 0h-208l1388 1597h209zM1501 0h-514l19 143h174l59 453l-137 -84l-66 119l273 168h121l-87 -656h177zM2181 811l-18 -145q-90 0 -153 -19t-114 -65q-51 -45 -75 -125q50 47 139 47q98 0 149.5 -67t38.5 -177l-2 -16q-15 -122 -85 -190t-193 -68q-140 0 -203 84t-45 221
l2 16q11 99 50 201t114 172q77 74 171.5 102.5t223.5 28.5zM1782 299q-8 -28 -8 -57q0 -55 25 -84t63 -29h12q94 0 108 111l3 16q6 49 -19 76.5t-65 27.5h-11q-65 0 -108 -61z" />
    <glyph glyph-name="sevensixteenths" unicode="&#xf218;" horiz-adv-x="2252" 
d="M106 1311l37 286h543l-12 -100l-375 -698h-176l360 657l-96 -2h-119l-18 -143h-144zM233 0h-208l1388 1597h209zM1501 0h-514l19 143h174l59 453l-137 -84l-66 119l273 168h121l-87 -656h177zM2181 811l-18 -145q-90 0 -153 -19t-114 -65q-51 -45 -75 -125q50 47 139 47
q98 0 149.5 -67t38.5 -177l-2 -16q-15 -122 -85 -190t-193 -68q-140 0 -203 84t-45 221l2 16q11 99 50 201t114 172q77 74 171.5 102.5t223.5 28.5zM1782 299q-8 -28 -8 -57q0 -55 25 -84t63 -29h12q94 0 108 111l3 16q6 49 -19 76.5t-65 27.5h-11q-65 0 -108 -61z" />
    <glyph glyph-name="ninesixteenths" unicode="&#xf219;" horiz-adv-x="2252" 
d="M80 784l18 146q90 0 153 19t114 65q51 45 75 125q-50 -47 -139 -47q-98 0 -149.5 66.5t-38.5 176.5l2 17q15 122 85 190t193 68q140 0 203 -84t45 -221l-2 -17q-11 -99 -50 -201t-114 -172q-77 -74 -171.5 -102.5t-223.5 -28.5zM479 1296q8 28 8 58q0 55 -25 83.5
t-63 28.5h-12q-94 0 -108 -110l-3 -17q-6 -49 19 -76.5t65 -27.5h11q65 0 108 61zM233 0h-208l1388 1597h209zM1501 0h-514l19 143h174l59 453l-137 -84l-66 119l273 168h121l-87 -656h177zM2181 811l-18 -145q-90 0 -153 -19t-114 -65q-51 -45 -75 -125q50 47 139 47
q98 0 149.5 -67t38.5 -177l-2 -16q-15 -122 -85 -190t-193 -68q-140 0 -203 84t-45 221l2 16q11 99 50 201t114 172q77 74 171.5 102.5t223.5 28.5zM1782 299q-8 -28 -8 -57q0 -55 25 -84t63 -29h12q94 0 108 111l3 16q6 49 -19 76.5t-65 27.5h-11q-65 0 -108 -61z" />
    <glyph glyph-name="elevensixteenths" unicode="&#xf220;" horiz-adv-x="2867" 
d="M580 799h-514l18 143h174l59 453l-137 -84l-65 119l272 167h121l-86 -655h176zM1194 799h-514l18 143h174l60 453l-137 -84l-66 119l272 167h121l-86 -655h176zM848 0h-209l1389 1597h208zM2116 0h-514l18 143h174l59 453l-137 -84l-65 119l272 168h121l-86 -656h176z
M2796 811l-19 -145q-90 0 -152.5 -19t-113.5 -65q-53 -46 -76 -125q50 47 139 47q98 0 150 -67t39 -177l-2 -16q-15 -122 -85.5 -190t-193.5 -68q-140 0 -203 84t-45 221l2 16q11 99 50 201t114 172q77 74 172 102.5t224 28.5zM2396 299q-8 -28 -8 -57q0 -55 25 -84t63 -29
h12q95 0 109 111l2 16q6 49 -19 76.5t-65 27.5h-10q-66 0 -109 -61z" />
    <glyph glyph-name="thirteensixteenths" unicode="&#xf221;" horiz-adv-x="2867" 
d="M580 799h-514l18 143h174l59 453l-137 -84l-65 119l272 167h121l-86 -655h176zM854 1055q-17 -127 84 -127h12q95 0 105 94l2 16q12 97 -84 97h-109l19 143h106q96 0 107 86l2 16q4 39 -18.5 62.5t-61.5 23.5h-12q-49 0 -77 -31t-34 -104h-164l2 17q31 262 279 262
q138 0 200 -67t52 -157l-2 -16q-9 -67 -42 -109.5t-83 -56.5q46 -14 69.5 -63t14.5 -119l-2 -16q-5 -41 -23 -78.5t-49.5 -70.5t-84 -53t-118.5 -20q-141 0 -205.5 69t-50.5 185l2 17h164zM848 0h-209l1389 1597h208zM2116 0h-514l18 143h174l59 453l-137 -84l-65 119
l272 168h121l-86 -656h176zM2796 811l-19 -145q-90 0 -152.5 -19t-113.5 -65q-53 -46 -76 -125q50 47 139 47q98 0 150 -67t39 -177l-2 -16q-15 -122 -85.5 -190t-193.5 -68q-140 0 -203 84t-45 221l2 16q11 99 50 201t114 172q77 74 172 102.5t224 28.5zM2396 299
q-8 -28 -8 -57q0 -55 25 -84t63 -29h12q95 0 109 111l2 16q6 49 -19 76.5t-65 27.5h-10q-66 0 -109 -61z" />
    <glyph glyph-name="fifteensixteenths" unicode="&#xf222;" horiz-adv-x="2867" 
d="M580 799h-514l18 143h174l59 453l-137 -84l-65 119l272 167h121l-86 -655h176zM690 1055h164q-17 -127 84 -127h12q42 0 72 28t37 86l2 17q7 58 -20 86.5t-70 28.5h-13q-75 0 -114 -62l-135 47l77 438h498l-18 -143h-361l-33 -178q53 41 136 41q113 0 172 -72.5
t45 -185.5l-2 -17q-15 -120 -88 -189t-191 -69q-141 0 -205.5 69t-50.5 185zM848 0h-209l1389 1597h208zM2116 0h-514l18 143h174l59 453l-137 -84l-65 119l272 168h121l-86 -656h176zM2796 811l-19 -145q-90 0 -152.5 -19t-113.5 -65q-53 -46 -76 -125q50 47 139 47
q98 0 150 -67t39 -177l-2 -16q-15 -122 -85.5 -190t-193.5 -68q-140 0 -203 84t-45 221l2 16q11 99 50 201t114 172q77 74 172 102.5t224 28.5zM2396 299q-8 -28 -8 -57q0 -55 25 -84t63 -29h12q95 0 109 111l2 16q6 49 -19 76.5t-65 27.5h-10q-66 0 -109 -61z" />
    </font>
</defs>
</svg>
