<?xml version="1.0" standalone="no"?>
<!DOCTYPE svg PUBLIC "-//W3C//DTD SVG 1.1//EN" "http://www.w3.org/Graphics/SVG/1.1/DTD/svg11.dtd" >
<svg xmlns="http://www.w3.org/2000/svg" xmlns:xlink="http://www.w3.org/1999/xlink" version="1.1">
<metadata>
Created by FontForge 20170731 at Fri Jul 22 12:59:27 2022
 By Aleksey,,,
Copyright (c) 2014, Cooper Hewitt Smithsonian Design Museum (cooperhewitt.org)
</metadata>
<defs>
<font id="CooperHewitt-LightItalic" horiz-adv-x="614" >
  <font-face 
    font-family="Cooper Hewitt"
    font-weight="704"
    font-style="italic"
    font-stretch="normal"
    units-per-em="2048"
    panose-1="0 0 0 0 0 0 0 0 0 0"
    ascent="1536"
    descent="-512"
    x-height="1085"
    cap-height="1597"
    bbox="-532 -430 2787 1966"
    underline-thickness="40"
    underline-position="-224"
    unicode-range="U+0020-F222"
  />
<missing-glyph horiz-adv-x="1986" 
d="M195 0v1597h1597v-1597h-1597zM993 707l-571 -572h1143zM422 1462l571 -571l572 571h-1143zM901 799l-563 563v-1126zM1085 799l564 -563v1126z" />
    <glyph glyph-name=".notdef" horiz-adv-x="1986" 
d="M195 0v1597h1597v-1597h-1597zM993 707l-571 -572h1143zM422 1462l571 -571l572 571h-1143zM901 799l-563 563v-1126zM1085 799l564 -563v1126z" />
    <glyph glyph-name=".null" horiz-adv-x="0" 
 />
    <glyph glyph-name="nonmarkingreturn" horiz-adv-x="682" 
 />
    <glyph glyph-name="space" unicode=" " horiz-adv-x="409" 
 />
    <glyph glyph-name="exclam" unicode="!" horiz-adv-x="409" 
d="M266 1597h94l-184 -1239h-49zM180 123l-14 -123h-123l14 123h123z" />
    <glyph glyph-name="quotedbl" unicode="&#x22;" 
d="M266 1597h94l-90 -512h-49zM471 1597h94l-90 -512h-49z" />
    <glyph glyph-name="numbersign" unicode="#" horiz-adv-x="1228" 
d="M1079 1597h88l-190 -512h217l-10 -81h-238l-151 -410h206l-10 -82h-227l-189 -512h-88l189 512h-330l-188 -512h-88l188 512h-215l10 82h236l151 410h-204l10 81h225l191 512h88l-191 -512h330zM528 1004l-151 -410h330l151 410h-330z" />
    <glyph glyph-name="dollar" unicode="$" horiz-adv-x="1228" 
d="M991 1720l-98 -266q120 -43 178 -144t37 -259l-4 -31h-82q43 281 -158 360l-196 -530q217 -29 308.5 -119.5t72.5 -243.5l-2 -16q-22 -170 -145.5 -265t-328.5 -95q-104 0 -172 16l-92 -250h-82l101 270q-123 45 -179.5 140.5t-37.5 236.5l4 31h82q-35 -259 157 -334
l209 565q-201 27 -287.5 114t-68.5 228l2 17q21 166 148.5 254t322.5 88q72 0 137 -12l92 245h82zM641 776l-213 -575q67 -13 139 -13h13q165 0 264.5 73.5t116.5 209.5l2 16q17 129 -63.5 197t-258.5 92zM293 1128q-14 -116 57 -180.5t240 -87.5l201 541q-62 8 -101 8h-20
q-159 0 -258.5 -65.5t-116.5 -198.5z" />
    <glyph glyph-name="percent" unicode="%" horiz-adv-x="1843" 
d="M535 0h-91l813 1491q-119 -37 -266 -37q-95 0 -213 27q45 -84 31 -205l-2 -16q-21 -166 -119.5 -252t-236.5 -86q-68 0 -126 21t-101 62t-63 108t-9 151l2 16q21 166 119.5 252t236.5 86q71 0 137 -25q168 -61 354 -61q91 0 210 22t163 43l-10 -75zM729 1262l2 16
q17 125 -45 193.5t-174 68.5h-12q-103 0 -177.5 -67.5t-91.5 -194.5l-2 -16q-17 -124 46 -193.5t174 -69.5h12q103 0 177 68t91 195zM1341 57h13q103 0 177 67.5t91 194.5l2 17q17 125 -45 193.5t-174 68.5h-12q-103 0 -177.5 -67.5t-91.5 -194.5l-2 -17q-17 -124 45.5 -193
t173.5 -69zM1343 -20q-68 0 -126 21t-101 62t-63 108t-9 151l3 16q21 166 119.5 252t236.5 86q68 0 126 -21t101 -62t63 -108t9 -151l-2 -17q-21 -166 -120 -251.5t-237 -85.5z" />
    <glyph glyph-name="ampersand" unicode="&#x26;" horiz-adv-x="1331" 
d="M483 -20q-218 0 -336 115.5t-92 318.5l4 32q7 58 29 110.5t50.5 93t72 80.5t83.5 69t95 63q-103 126 -147 222t-31 198l2 16q18 145 114.5 232.5t266.5 87.5q173 0 263.5 -90t72.5 -230l-2 -16q-7 -53 -35 -103.5t-54.5 -83.5t-91 -82t-93 -67.5t-111.5 -70.5l-33 -21
l432 -528q121 182 158 467l2 16h82q-47 -341 -191 -545l217 -264h-114l-158 193q-193 -213 -455 -213zM475 61h17q230 0 397 191l-455 555q-52 -35 -85 -59.5t-74 -61t-65 -69.5t-43.5 -77.5t-25.5 -93.5l-4 -32q-19 -158 68.5 -255.5t269.5 -97.5zM299 1298l-2 -16
q-12 -95 30.5 -177t137.5 -194q10 7 52 32.5t54.5 33.5t49 32t49.5 34.5t42 33.5t41 37t31.5 37t28.5 41.5t17.5 42t11.5 47.5l2 16q13 101 -51 169.5t-191 68.5h-12q-133 0 -206 -68t-85 -170z" />
    <glyph glyph-name="quotesingle" unicode="'" horiz-adv-x="409" 
d="M266 1597h94l-90 -512h-49z" />
    <glyph glyph-name="parenleft" unicode="(" 
d="M104 717l7 49q70 563 452 954h94q-67 -72 -121.5 -140t-112.5 -159.5t-100.5 -186.5t-77 -216t-50.5 -252l-7 -49q-11 -89 -11.5 -174.5t5.5 -155t23 -145t34 -130.5t46.5 -125.5t51 -116.5t56.5 -116h-92q-32 67 -51 109.5t-47.5 113.5t-45 126t-34.5 132.5t-24.5 148.5
t-6 157.5t11.5 175.5z" />
    <glyph glyph-name="parenright" unicode=")" 
d="M502 758l-6 -49q-70 -563 -453 -955h-94q85 91 152 180t133.5 207t112 262t65.5 306l6 49q11 89 11.5 174.5t-5.5 155t-23 144.5t-34 130t-46.5 125.5t-51 116t-56.5 116.5h92q32 -67 51 -109.5t48 -113.5t45 -126t34 -132t24.5 -148t6 -157.5t-11.5 -175.5z" />
    <glyph glyph-name="asterisk" unicode="*" horiz-adv-x="778" 
d="M463 1638h82l-51 -307h-62zM100 1346l37 77l275 -104l-25 -57zM229 950l-59 47l219 242l45 -35zM813 1423l16 -77l-307 -84l-12 57zM670 997l-72 -47l-139 254l53 35z" />
    <glyph glyph-name="plus" unicode="+" horiz-adv-x="1228" 
d="M643 1311h82l-63 -471h471l-11 -82h-471l-61 -471h-82l61 471h-471l11 82h471z" />
    <glyph glyph-name="comma" unicode="," horiz-adv-x="409" 
d="M180 123l-12 -98q-34 -250 -217 -250l8 61q61 0 94.5 36t50.5 128h-61l14 123h123z" />
    <glyph glyph-name="hyphen" unicode="-" horiz-adv-x="655" 
d="M70 678l10 78h491l-10 -78h-491z" />
    <glyph glyph-name="period" unicode="." horiz-adv-x="409" 
d="M180 123l-14 -123h-123l14 123h123z" />
    <glyph glyph-name="slash" unicode="/" 
d="M709 1720l-729 -1966h-80l727 1966h82z" />
    <glyph glyph-name="zero" unicode="0" horiz-adv-x="1228" 
d="M1139 1137l-90 -676q-16 -122 -48.5 -207.5t-91.5 -149t-151.5 -94t-222.5 -30.5q-131 0 -224 35t-143 100.5t-67 151.5t-3 194l90 676q16 122 48.5 207.5t91.5 149t151.5 94t222.5 30.5q131 0 224 -35t143 -100.5t67 -151.5t3 -194zM971 485l84 631q27 209 -54 316.5
t-292 107.5h-13q-110 0 -186.5 -25.5t-125.5 -81t-76 -131.5t-42 -190l-84 -631q-27 -209 54 -316.5t292 -107.5h13q110 0 186.5 25.5t125.5 81t76 131.5t42 190z" />
    <glyph glyph-name="one" unicode="1" horiz-adv-x="1228" 
d="M1016 0h-963l10 82h441l184 1399l-455 -283l-34 70l546 340h41l-200 -1526h440z" />
    <glyph glyph-name="two" unicode="2" horiz-adv-x="1228" 
d="M334 82h682l-10 -82h-983l6 51l815 754q126 117 171 186t58 174l2 17q20 160 -83.5 259t-284.5 99h-13q-204 0 -310 -111.5t-140 -363.5h-82l6 47q32 247 158.5 376.5t373.5 129.5q229 0 357 -115.5t104 -312.5l-2 -16q-17 -131 -62.5 -208.5t-174.5 -197.5l-744 -688z
" />
    <glyph glyph-name="three" unicode="3" horiz-adv-x="1228" 
d="M160 512q-29 -228 67 -341.5t303 -113.5h13q109 0 201 37.5t157.5 118.5t79.5 195l2 16q21 172 -70 262t-264 90h-239l10 78h229q173 0 288 80t136 240l2 16q20 159 -83 254.5t-285 95.5h-13q-204 0 -310 -111.5t-140 -363.5h-82l6 47q32 247 158.5 376.5t373.5 129.5
q230 0 357.5 -114t103.5 -312l-2 -16q-18 -143 -110 -238.5t-226 -124.5q131 -33 198.5 -133.5t47.5 -253.5l-2 -16q-17 -132 -94.5 -231t-189 -149t-240.5 -50q-266 0 -381.5 137.5t-85.5 378.5l2 16h82z" />
    <glyph glyph-name="four" unicode="4" horiz-adv-x="1228" 
d="M760 0h-82l59 451h-708l8 51l850 1095h82l-140 -1065h297l-12 -81h-295zM870 1450l-712 -920l200 2h390l88 676z" />
    <glyph glyph-name="five" unicode="5" horiz-adv-x="1228" 
d="M78 512h82q-29 -228 67 -341.5t303 -113.5h13q177 0 300 104.5t150 311.5l2 16q13 105 -9.5 189.5t-74 138t-123 81.5t-157.5 28h-21q-140 0 -251.5 -58.5t-176.5 -179.5l-65 19l155 890h932l-10 -81h-854l-117 -668q54 69 162 112.5t236 43.5q108 0 198 -33.5t154 -96.5
t93.5 -161.5t14.5 -220.5l-2 -17q-30 -241 -177.5 -368t-358.5 -127q-266 0 -381.5 137.5t-85.5 378.5z" />
    <glyph glyph-name="six" unicode="6" horiz-adv-x="1228" 
d="M1167 1618l-12 -82q-71 0 -151 -16t-170 -49t-183.5 -94t-171.5 -142q-162 -170 -250 -424q62 82 176.5 137.5t235.5 55.5q110 0 198.5 -32t150.5 -93.5t89 -160t11 -224.5l-3 -17q-31 -248 -175 -372.5t-361 -124.5q-235 0 -364 149t-95 418l2 16q25 208 100.5 388.5
t223.5 336.5q108 114 246 191t262 108t241 31zM647 922h-12q-140 0 -251.5 -69t-188.5 -191q-15 -60 -21 -130q-11 -126 13 -219t76.5 -147t122.5 -79.5t159 -25.5h12q190 0 304.5 107t139.5 307l3 17q25 198 -73.5 314t-283.5 116z" />
    <glyph glyph-name="seven" unicode="7" horiz-adv-x="1228" 
d="M166 1024l76 573h983l-6 -51l-832 -1546h-92l817 1518l-242 -2h-557l-65 -492h-82z" />
    <glyph glyph-name="eight" unicode="8" horiz-adv-x="1228" 
d="M528 -20q-222 0 -353.5 113.5t-106.5 312.5l2 16q39 314 348 395q-114 22 -186 120.5t-54 242.5l2 16q25 201 160 311.5t360 110.5q229 0 357 -114.5t104 -311.5l-2 -16q-18 -143 -110 -238.5t-226 -124.5q134 -35 200 -134.5t46 -252.5l-2 -16q-26 -199 -177.5 -314.5
t-361.5 -115.5zM635 776h-41q-177 0 -297 -92.5t-141 -259.5l-2 -16q-11 -89 13.5 -157.5t77.5 -110t125 -62.5t158 -21h21q167 0 289 92t143 259l2 16q21 171 -76 261.5t-272 90.5zM707 1540h-13q-180 0 -294 -90.5t-134 -251.5l-2 -16q-21 -160 74 -244t262 -84h49
q169 0 286 80.5t138 239.5l2 16q20 159 -83 254.5t-285 95.5z" />
    <glyph glyph-name="nine" unicode="9" horiz-adv-x="1228" 
d="M68 -20l12 81q71 0 151 16t170 49t183.5 94t171.5 142q162 170 250 424q-62 -82 -176.5 -137t-235.5 -55q-110 0 -198.5 32t-150.5 93.5t-89 160t-11 224.5l2 16q31 248 175.5 373t361.5 125q235 0 364 -149t95 -418l-2 -17q-25 -208 -100.5 -388.5t-223.5 -336.5
q-158 -167 -361.5 -248t-387.5 -81zM588 676h12q140 0 251.5 69t188.5 191q15 59 21 129q11 126 -13 219t-76.5 147t-122.5 79.5t-159 25.5h-12q-190 0 -305 -107t-140 -307l-2 -16q-25 -198 73.5 -314t283.5 -116z" />
    <glyph glyph-name="colon" unicode=":" horiz-adv-x="409" 
d="M180 123l-14 -123h-123l14 123h123zM279 860l-17 -123h-123l17 123h123z" />
    <glyph glyph-name="semicolon" unicode=";" horiz-adv-x="409" 
d="M180 123l-12 -98q-34 -250 -217 -250l8 61q61 0 94.5 36t50.5 128h-61l14 123h123zM279 860l-17 -123h-123l17 123h123z" />
    <glyph glyph-name="less" unicode="&#x3c;" horiz-adv-x="1228" 
d="M109 840l1091 503l-12 -90l-1002 -458l881 -459l-10 -82l-959 504z" />
    <glyph glyph-name="equal" unicode="=" horiz-adv-x="1228" 
d="M125 963l12 81h1024l-12 -81h-1024zM72 553l10 82h1024l-10 -82h-1024z" />
    <glyph glyph-name="greater" unicode="&#x3e;" horiz-adv-x="1228" 
d="M1122 758l-1091 -504l12 90l1001 459l-880 459l10 81l959 -503z" />
    <glyph glyph-name="question" unicode="?" horiz-adv-x="901" 
d="M547 1540q-74 0 -132 -24.5t-97.5 -67.5t-68.5 -110t-46.5 -141t-30.5 -173h-82l4 27q17 111 38 192t55.5 155.5t81.5 120t117 72.5t161 27q177 0 263.5 -85.5t86.5 -242.5q0 -102 -22.5 -184.5t-59.5 -140.5t-82.5 -109t-94 -100.5t-91.5 -102.5t-77 -128.5t-48 -166.5
h-49q8 91 37 169t68 134t84.5 108.5t89 104t79.5 106.5t58 129t22 161q0 136 -63 203t-201 67zM426 123l-14 -123h-123l14 123h123z" />
    <glyph glyph-name="at" unicode="@" horiz-adv-x="1945" 
d="M870 -352h13q402 0 698 213l39 -66q-298 -225 -743 -225q-443 0 -667.5 262.5t-166.5 720.5l10 82q39 303 181.5 526t366.5 340t505 117q143 0 268.5 -32.5t227.5 -100.5t170.5 -165t97 -233.5t6.5 -298.5l-8 -61q-16 -121 -46.5 -215.5t-74.5 -160t-96 -111
t-118.5 -70.5t-135.5 -36t-152 -11h-51v156q-131 -177 -346 -177q-86 0 -154 27t-108.5 73t-66 107.5t-28 131t6.5 143.5l6 41q15 96 48 178t88 152t140.5 110.5t192.5 40.5q118 0 194.5 -50t112.5 -128l41 157h61l-49 -307l-78 -579q61 1 109 6.5t99 20t90.5 38.5t77.5 64
t66 94.5t50 131t35 173.5l8 61q20 152 -4.5 278t-85.5 212.5t-151.5 146.5t-199 87.5t-231.5 27.5h-12q-253 0 -460 -108t-342 -314t-169 -483l-10 -82q-27 -215 14 -387t141 -285t250 -173t340 -60zM1257 840q-36 76 -106 132t-174 56q-165 0 -262 -110.5t-125 -292.5
l-6 -41q-18 -116 5 -205.5t93 -144t182 -54.5q104 0 189.5 56.5t142.5 132.5z" />
    <glyph glyph-name="A" unicode="A" horiz-adv-x="1228" 
d="M666 1618h122l271 -1618h-86l-74 432h-653l-183 -432h-94zM719 1536l-440 -1026h608z" />
    <glyph glyph-name="B" unicode="B" horiz-adv-x="1167" 
d="M272 1597h383q210 0 320 -100.5t86 -292.5l-6 -49q-18 -136 -107 -225t-211 -109q132 -19 208 -126.5t56 -262.5l-6 -49q-13 -100 -56.5 -174.5t-112 -119.5t-155 -67t-190.5 -22h-418zM610 782h-362l-92 -704h331q384 0 422 305l6 49q21 167 -67.5 258.5t-237.5 91.5z
M655 1520h-311l-86 -660h315q74 0 137 15t119 48t93 92t47 140l6 49q21 160 -66 238t-254 78z" />
    <glyph glyph-name="C" unicode="C" horiz-adv-x="1243" 
d="M221 823l-6 -49q-23 -194 -15 -330.5t53 -222.5t120 -125t186 -39h12q197 0 303 114t136 341h86l-2 -18q-27 -239 -161.5 -376.5t-367.5 -137.5q-271 0 -380 187.5t-56 606.5l6 49q52 414 202.5 604.5t414.5 190.5q251 0 355 -144.5t62 -410.5l-6 -39h-86q37 276 -38 396
t-281 120h-13q-221 0 -349 -171t-175 -546z" />
    <glyph glyph-name="D" unicode="D" horiz-adv-x="1290" 
d="M1167 823l-6 -49q-26 -203 -89.5 -353.5t-157.5 -241.5t-208.5 -135t-252.5 -44h-390l209 1597h383q138 0 241.5 -44t174.5 -135t96.5 -241.5t-0.5 -353.5zM156 78h297q122 0 222.5 39t183 120t138 217t78.5 320l6 49q87 697 -432 697h-305z" />
    <glyph glyph-name="E" unicode="E" horiz-adv-x="1105" 
d="M272 1597h861l-11 -77h-778l-88 -666h676l-10 -78h-676l-90 -698h778l-10 -78h-861z" />
    <glyph glyph-name="F" unicode="F" horiz-adv-x="1024" 
d="M272 1597h820l-11 -77h-737l-88 -666h635l-10 -78h-635l-101 -776h-82z" />
    <glyph glyph-name="G" unicode="G" horiz-adv-x="1306" 
d="M584 -20q-107 0 -189.5 28t-144 87.5t-95 152.5t-42.5 224t14 302l6 49q52 412 207 603.5t420 191.5q251 0 360.5 -145.5t67.5 -409.5l-6 -39h-86q36 274 -43 395t-287 121h-12q-223 0 -356 -172.5t-179 -544.5l-6 -49q-22 -194 -11.5 -330.5t60 -222.5t127.5 -125
t189 -39h12q134 0 240 42.5t165 103.5l62 479h-297l10 78h379l-78 -598q-182 -182 -487 -182z" />
    <glyph glyph-name="H" unicode="H" horiz-adv-x="1290" 
d="M1153 1597h82l-209 -1597h-82l100 776h-798l-101 -776h-82l209 1597h82l-98 -743h799z" />
    <glyph glyph-name="I" unicode="I" horiz-adv-x="430" 
d="M365 1597l-209 -1597h-82l209 1597h82z" />
    <glyph glyph-name="J" unicode="J" horiz-adv-x="983" 
d="M856 1597h82l-145 -1105q-32 -251 -137 -381.5t-308 -130.5q-208 0 -283 132.5t-38 385.5l2 14h77q-34 -241 24 -348t220 -107q161 0 246.5 108t116.5 347z" />
    <glyph glyph-name="K" unicode="K" horiz-adv-x="1105" 
d="M354 1597l-125 -952l801 952h103l-578 -686l369 -911h-90l-336 844l-287 -340l-66 -504h-82l209 1597h82z" />
    <glyph glyph-name="L" unicode="L" horiz-adv-x="983" 
d="M852 0h-789l209 1597h82l-198 -1519h706z" />
    <glyph glyph-name="M" unicode="M" horiz-adv-x="1597" 
d="M1448 1454l-719 -1454h-61l-338 1454l-43 -369l-142 -1085h-82l209 1597h105l336 -1458l721 1458h108l-209 -1597h-82l142 1085z" />
    <glyph glyph-name="N" unicode="N" horiz-adv-x="1331" 
d="M1276 1597l-209 -1597h-90l-647 1475l-45 -390l-142 -1085h-80l209 1597h90l646 -1474l45 389l143 1085h80z" />
    <glyph glyph-name="O" unicode="O" horiz-adv-x="1310" 
d="M1188 823l-6 -49q-52 -413 -202.5 -603.5t-414.5 -190.5q-271 0 -380 187.5t-56 606.5l6 49q52 414 202.5 604.5t414.5 190.5q180 0 286.5 -79t146 -256.5t3.5 -459.5zM1096 774l6 49q23 194 15 330.5t-53 222.5t-120 125t-186 39h-13q-221 0 -349 -171t-175 -546l-6 -49
q-23 -194 -15 -330.5t53 -222.5t120 -125t186 -39h12q221 0 349.5 171.5t175.5 545.5z" />
    <glyph glyph-name="P" unicode="P" horiz-adv-x="1146" 
d="M233 676l-88 -676h-82l209 1597h404q69 0 131.5 -13t121.5 -45t99.5 -81.5t59 -129t6.5 -179.5l-7 -49q-12 -96 -48 -170.5t-85.5 -121.5t-114 -77.5t-129 -42.5t-135.5 -12h-342zM244 754h342q52 0 98.5 7t102 29.5t97 59t74 101t43.5 149.5l7 49q11 89 -6 157
t-51 107.5t-84 64.5t-97.5 33.5t-99.5 8.5h-326z" />
    <glyph glyph-name="Q" unicode="Q" horiz-adv-x="1310" 
d="M1188 823l-6 -49q-41 -329 -145 -516.5t-275 -247.5l55 -215h-86l-47 195q-45 -10 -119 -10q-271 0 -380 187.5t-56 606.5l6 49q52 414 202.5 604.5t414.5 190.5q180 0 286.5 -79t146 -256.5t3.5 -459.5zM573 436h82l88 -348q141 56 228 223.5t125 462.5l6 49
q23 194 15 330.5t-53 222.5t-120 125t-186 39h-13q-221 0 -349 -171t-175 -546l-6 -49q-23 -194 -15 -330.5t53 -222.5t120 -125t186 -39h12q45 0 95 9z" />
    <glyph glyph-name="R" unicode="R" horiz-adv-x="1167" 
d="M233 676l-88 -676h-82l209 1597h404q69 0 131.5 -13t121.5 -45t99.5 -81.5t59 -129t6.5 -179.5l-7 -49q-22 -172 -112 -269.5t-223 -132.5l192 -698h-90l-182 682q-49 -6 -97 -6h-342zM244 754h342q52 0 98.5 7t102 29.5t97 59t74 101t43.5 149.5l7 49q11 89 -6 157
t-51 107.5t-84 64.5t-97.5 33.5t-99.5 8.5h-326z" />
    <glyph glyph-name="S" unicode="S" horiz-adv-x="1208" 
d="M590 791q-455 88 -412 415l4 33q16 128 88 215t177 125.5t239 38.5q257 0 369.5 -136t74.5 -378l-6 -39h-82q36 246 -53 360.5t-293 114.5h-20q-168 0 -279 -76.5t-129 -218.5l-4 -33q-19 -145 65.5 -226.5t309.5 -125.5q247 -49 345.5 -153.5t76.5 -278.5l-4 -33
q-26 -202 -171 -308.5t-374 -106.5q-245 0 -365.5 131t-83.5 362l7 39h82q-21 -123 -5.5 -209.5t67.5 -141t124 -79.5t164 -25h20q187 0 307.5 84t141.5 248l4 33q20 159 -72 243t-313 126z" />
    <glyph glyph-name="T" unicode="T" horiz-adv-x="1024" 
d="M651 1520l-198 -1520h-82l198 1520h-419l10 77h921l-10 -77h-420z" />
    <glyph glyph-name="U" unicode="U" horiz-adv-x="1290" 
d="M559 -20q-120 0 -206.5 25t-148 82.5t-84 158.5t-3.5 246l145 1105h82l-143 -1095q-16 -103 -5.5 -178.5t35.5 -126.5t74 -82t110 -44.5t144 -13.5q103 0 178.5 21.5t134.5 72.5t95 137.5t53 213.5l143 1095h82l-145 -1105q-19 -144 -62 -244t-113 -158.5t-158.5 -84
t-207.5 -25.5z" />
    <glyph glyph-name="V" unicode="V" horiz-adv-x="1228" 
d="M571 -20h-122l-271 1617h86l254 -1536l656 1536h94z" />
    <glyph glyph-name="W" unicode="W" horiz-adv-x="1802" 
d="M1165 -20l-166 1536l-571 -1536h-123l-96 1617h86l82 -1531l569 1531h123l168 -1531l483 1531h90l-522 -1617h-123z" />
    <glyph glyph-name="X" unicode="X" horiz-adv-x="1228" 
d="M-29 0l600 807l-391 790h92l351 -723l538 723h105l-600 -794l391 -803h-92l-351 727l-538 -727h-105z" />
    <glyph glyph-name="Y" unicode="Y" horiz-adv-x="1146" 
d="M575 481l-61 -481h-82l62 481l-334 1116h84l301 -1013l567 1013h92z" />
    <glyph glyph-name="Z" unicode="Z" horiz-adv-x="1126" 
d="M-12 57l1036 1467l-248 -4h-575l10 77h922l-7 -57l-1036 -1466l248 4h616l-10 -78h-962z" />
    <glyph glyph-name="bracketleft" unicode="[" 
d="M268 1720h379l-10 -82h-297l-238 -1802h297l-10 -82h-379z" />
    <glyph glyph-name="backslash" unicode="\" 
d="M369 -246l-213 1966h82l213 -1966h-82z" />
    <glyph glyph-name="bracketright" unicode="]" 
d="M338 -246h-379l10 82h297l238 1802h-297l10 82h379z" />
    <glyph glyph-name="asciicircum" unicode="^" horiz-adv-x="1228" 
d="M764 1597l369 -1024h-82l-334 940l-584 -940h-90l639 1024h82z" />
    <glyph glyph-name="underscore" unicode="_" horiz-adv-x="655" 
d="M-31 -242l11 78h450l-10 -78h-451z" />
    <glyph glyph-name="grave" unicode="`" horiz-adv-x="1024" 
d="M393 1597h86l142 -327h-86z" />
    <glyph glyph-name="a" unicode="a" horiz-adv-x="1024" 
d="M729 0l2 164q-161 -184 -403 -184q-140 0 -224 80t-67 208l4 33q8 68 35.5 120t62 83t87.5 53.5t96 32.5t104 20l360 58l7 49q21 166 -34.5 238.5t-219.5 72.5q-85 0 -146 -23.5t-95.5 -68t-52.5 -94t-26 -115.5h-82l4 29q8 51 22.5 96.5t44.5 93.5t72 82t109 56t150 22
q110 0 183.5 -28.5t108 -81t45.5 -126t-4 -163.5l-53 -400l-28 -307h-62zM328 57q266 0 405 207l43 328l-360 -57q-133 -21 -204.5 -74t-84.5 -154l-4 -33q-11 -87 43.5 -152t161.5 -65z" />
    <glyph glyph-name="b" unicode="b" horiz-adv-x="1075" 
d="M340 1638l-88 -675q48 63 130 103t179 40q91 0 161.5 -28t115 -78t72 -119t32 -151.5t-5.5 -174.5l-4 -33q-15 -122 -51 -219t-94.5 -170.5t-145 -113t-195.5 -39.5q-115 0 -199.5 58.5t-113.5 127.5l-39 -166h-61l49 307l176 1331h82zM158 258q36 -82 107.5 -141.5
t180.5 -59.5q170 0 271.5 121t128.5 338l4 33q28 224 -45.5 351.5t-243.5 127.5q-193 0 -325 -176z" />
    <glyph glyph-name="c" unicode="c" horiz-adv-x="1064" 
d="M170 569l-4 -32q-28 -221 52.5 -350.5t260.5 -129.5q83 0 146.5 25.5t102 71t60 98.5t29.5 117h82l-4 -29q-8 -51 -23.5 -97t-47.5 -95.5t-76.5 -85.5t-114 -59t-154.5 -23q-116 0 -201 43t-132.5 118t-64 174t-1.5 215l4 33q31 251 151.5 397t333.5 146q79 0 143.5 -18
t105 -47.5t71 -68.5t42 -81.5t17.5 -84.5t-2 -79l-4 -31h-80q13 94 -13 167.5t-97.5 119t-182.5 45.5q-170 0 -271 -121t-128 -338z" />
    <glyph glyph-name="d" unicode="d" horiz-adv-x="1075" 
d="M455 -20q-91 0 -161.5 28t-115 78t-72 119t-32 151t5.5 174l4 33q31 251 151.5 397t333.5 146q112 0 190.5 -52t112.5 -114l93 698h82l-177 -1331l-28 -307h-62l-2 141q-50 -73 -136.5 -117t-186.5 -44zM569 1028q-170 0 -271 -121t-128 -338l-4 -32q-28 -224 45.5 -352
t243.5 -128q105 0 187.5 51.5t137.5 124.5l78 594q-16 37 -40 70t-58.5 64t-84 49t-106.5 18z" />
    <glyph glyph-name="e" unicode="e" horiz-adv-x="1105" 
d="M958 504h-794q-24 -210 56.5 -328.5t279.5 -118.5q89 0 157.5 26t108.5 70.5t61.5 92.5t28.5 102h82l-2 -14q-10 -67 -40.5 -127.5t-81.5 -112.5t-132.5 -83t-181.5 -31q-105 0 -185 28.5t-128.5 79t-78 119.5t-33.5 150.5t5 172.5l4 33q20 162 81.5 282t170.5 190.5
t254 70.5q94 0 166.5 -28t116 -77.5t70.5 -117t30 -147t-6 -167.5zM590 1028q-170 0 -282 -124t-136 -322h713q31 210 -44 328t-251 118z" />
    <glyph glyph-name="f" unicode="f" horiz-adv-x="757" 
d="M406 1366l-37 -281h327l-10 -77h-328l-131 -1008h-82l131 1008h-174l11 77h174l41 306q37 268 323 268q86 0 140 -23l-11 -73q-14 6 -54 12t-75 6q-109 0 -169 -47.5t-76 -167.5z" />
    <glyph glyph-name="g" unicode="g" horiz-adv-x="1075" 
d="M748 -10l26 215q-48 -63 -130 -103.5t-179 -40.5q-93 0 -164.5 26.5t-115.5 74t-72 111.5t-31.5 139.5t4.5 158.5l4 33q29 234 147.5 368t331.5 134q115 0 200 -58.5t114 -127.5l39 165h61l-49 -307l-107 -798q-53 -410 -434 -410q-108 0 -186 30.5t-119.5 85t-56 125.5
t-2.5 158l4 31h76q-48 -352 284 -352q92 0 157 22.5t105 68.5t61 106t32 145zM791 315l67 512q-16 37 -40 70t-58.5 64t-84 49t-106.5 18q-171 0 -269.5 -107t-123.5 -311l-4 -32q-27 -208 46 -323.5t247 -115.5q194 0 326 176z" />
    <glyph glyph-name="h" unicode="h" horiz-adv-x="1044" 
d="M340 1638l-92 -696q50 71 142.5 117.5t203.5 46.5q172 0 254.5 -90t62.5 -248l-100 -768h-82l98 758q35 270 -243 270q-121 0 -209 -56t-142 -132l-108 -840h-82l215 1638h82z" />
    <glyph glyph-name="i" unicode="i" horiz-adv-x="409" 
d="M63 0l142 1085h82l-142 -1085h-82zM362 1505l-16 -123h-123l17 123h122z" />
    <glyph glyph-name="j" unicode="j" horiz-adv-x="409" 
d="M362 1505l-16 -123h-123l17 123h122zM45 -137l160 1222h82l-164 -1247q-37 -268 -322 -268q-88 0 -139 22l10 74q14 -6 54 -12t75 -6q109 0 168.5 47.5t75.5 167.5z" />
    <glyph glyph-name="k" unicode="k" horiz-adv-x="983" 
d="M43 0l215 1638h82l-158 -1192l670 639h111l-433 -409l291 -676h-88l-264 618l-301 -286l-43 -332h-82z" />
    <glyph glyph-name="l" unicode="l" horiz-adv-x="409" 
d="M63 0l216 1638h81l-215 -1638h-82z" />
    <glyph glyph-name="m" unicode="m" horiz-adv-x="1607" 
d="M1374 0h-82l103 788q9 67 -3.5 115t-43.5 74.5t-71 38.5t-93 12q-102 0 -187.5 -57t-138.5 -131l-108 -840h-82l102 788q18 130 -38.5 185t-172.5 55q-102 0 -187.5 -57t-138.5 -131l-108 -840h-82l102 778l29 307h62l-3 -159q53 75 142 127.5t194 52.5
q122 0 191.5 -48.5t89.5 -133.5q61 80 149.5 131t194.5 51q144 0 224.5 -79.5t60.5 -227.5z" />
    <glyph glyph-name="n" unicode="n" horiz-adv-x="1044" 
d="M811 0h-82l98 758q35 270 -243 270q-121 0 -209 -56t-142 -132l-108 -840h-82l102 778l29 307h62l-3 -159q58 81 153 130.5t208 49.5q172 0 254.5 -90t62.5 -248z" />
    <glyph glyph-name="o" unicode="o" horiz-adv-x="1105" 
d="M469 57q171 0 277 122t133 337l4 33q29 223 -47.5 351t-255.5 128q-171 0 -277 -122t-133 -337l-4 -32q-29 -223 47.5 -351.5t255.5 -128.5zM469 -20q-93 0 -166 28t-119 78t-75 119t-34 151t5 174l4 33q15 121 52.5 219t98 171t148.5 113t197 40q93 0 166 -28t119 -78
t75 -119t34 -151.5t-5 -174.5l-4 -33q-15 -121 -52.5 -219t-98 -170.5t-148.5 -112.5t-197 -40z" />
    <glyph glyph-name="p" unicode="p" horiz-adv-x="1075" 
d="M561 1106q91 0 161.5 -28t115 -78t72 -119t32 -151.5t-5.5 -174.5l-4 -33q-15 -122 -51 -219t-94.5 -170.5t-145 -113t-195.5 -39.5q-113 0 -191 52t-112 113l-73 -555h-82l157 1188l29 307h62l2 -141q50 73 136.5 117.5t186.5 44.5zM446 57q170 0 271.5 121t128.5 338
l4 33q28 224 -45.5 351.5t-243.5 127.5q-105 0 -187.5 -51.5t-137.5 -124.5l-78 -594q36 -82 107.5 -141.5t180.5 -59.5z" />
    <glyph glyph-name="q" unicode="q" horiz-adv-x="1075" 
d="M694 -410l70 533q-48 -63 -130 -103t-179 -40q-91 0 -161.5 28t-115 78t-72 119t-32 151t5.5 174l4 33q31 251 151.5 397t333.5 146q115 0 200 -58.5t114 -127.5l39 165h61l-49 -307l-158 -1188h-82zM780 233l78 594q-16 37 -40 70t-58.5 64t-84 49t-106.5 18
q-170 0 -271 -121t-128 -338l-4 -32q-28 -224 45.5 -352t243.5 -128q193 0 325 176z" />
    <glyph glyph-name="r" unicode="r" horiz-adv-x="645" 
d="M567 1106l29 -2l-8 -76h-21q-118 0 -200.5 -55t-133.5 -133l-108 -840h-82l102 778l29 307h62v-149q51 76 136 123t195 47z" />
    <glyph glyph-name="s" unicode="s" horiz-adv-x="1064" 
d="M451 57q296 0 327 219q18 120 -46.5 169.5t-250.5 78.5q-191 29 -268 103.5t-63 187.5l2 16q15 126 120.5 200.5t280.5 74.5q216 0 301.5 -94t63.5 -258l-3 -17h-79q20 142 -43.5 216.5t-239.5 74.5q-289 0 -315 -205q-13 -101 51.5 -154.5t253.5 -78.5
q184 -25 262 -98.5t61 -206.5l-2 -17q-15 -130 -125.5 -209t-287.5 -79q-93 0 -163 18t-112.5 48.5t-67.5 74t-31.5 90t-0.5 100.5l2 17h80q-19 -127 48 -199t245 -72z" />
    <glyph glyph-name="t" unicode="t" horiz-adv-x="798" 
d="M369 1085h368l-10 -77h-369l-94 -721q-17 -127 30 -178.5t140 -51.5q87 0 150 19l-9 -76q-53 -20 -141 -20q-135 0 -204.5 74t-49.5 222l96 732h-174l11 77h174l41 308h82z" />
    <glyph glyph-name="u" unicode="u" horiz-adv-x="1044" 
d="M174 1085h82l-98 -757q-35 -271 243 -271q64 0 121.5 17.5t101 47.5t74 60t54.5 64l108 839h82l-102 -778l-29 -307h-61l2 160q-58 -81 -153 -130.5t-208 -49.5q-172 0 -254.5 89.5t-62.5 247.5z" />
    <glyph glyph-name="v" unicode="v" horiz-adv-x="1024" 
d="M362 0l-260 1085h91l227 -993l489 993h95l-543 -1085h-99z" />
    <glyph glyph-name="w" unicode="w" horiz-adv-x="1433" 
d="M745 985l-409 -985h-115l-108 1085h82l94 -1003l416 1003h102l154 -1003l356 1003h86l-391 -1085h-115z" />
    <glyph glyph-name="x" unicode="x" horiz-adv-x="942" 
d="M92 1085h96l258 -471l381 471h105l-440 -544l299 -541h-101l-256 463l-375 -463h-108l438 545z" />
    <glyph glyph-name="y" unicode="y" horiz-adv-x="946" 
d="M406 133l471 952h88l-529 -1048l-219 -447h-90l227 451l-254 1044h84z" />
    <glyph glyph-name="z" unicode="z" horiz-adv-x="913" 
d="M-16 57l761 953l-247 -2h-369l10 77h717l-6 -57l-762 -952l248 2h409l-10 -78h-758z" />
    <glyph glyph-name="braceleft" unicode="{" 
d="M647 1720l-10 -82q-114 0 -166 -45t-70 -180l-61 -475q-19 -150 -135 -201q100 -55 82 -200l-64 -476q-7 -50 -7.5 -85.5t7.5 -60.5t20.5 -40.5t36.5 -24t51 -11.5t68 -3l-10 -82h-31q-38 0 -71 6.5t-65.5 24.5t-53.5 46t-31 74t-2 105l66 502q7 34 5 60t-5 45.5
t-14.5 33.5t-23.5 22.5t-32 13.5t-41 7t-49 2l12 82q100 0 146.5 36.5t60.5 148.5l68 501q10 75 40.5 128t73 79t85 37.5t89.5 11.5h31z" />
    <glyph glyph-name="bar" unicode="|" horiz-adv-x="368" 
d="M10 -246l258 1966h82l-258 -1966h-82z" />
    <glyph glyph-name="braceright" unicode="}" 
d="M-41 -246l10 82q114 0 166 45t70 180l61 476q18 149 135 200q-100 55 -82 201l64 475q7 50 7.5 85.5t-7.5 60.5t-20.5 40.5t-36.5 24t-51 11.5t-68 3l10 82h31q38 0 71 -6.5t65.5 -24.5t53.5 -46t31 -74t2 -105l-65 -501q-4 -39 -5 -68.5t8.5 -50t21 -33.5t33.5 -20.5
t45 -10t56 -2.5l-12 -82q-100 0 -146.5 -36t-60.5 -148l-67 -502q-8 -60 -30.5 -106.5t-51 -74t-65.5 -45t-71 -24t-71 -6.5h-31z" />
    <glyph glyph-name="asciitilde" unicode="~" horiz-adv-x="1228" 
d="M369 901q74 0 144.5 -23.5t117 -51t111.5 -51t130 -23.5q111 0 226 120l55 -57q-136 -141 -289 -141q-74 0 -144.5 23.5t-117.5 51t-112 51t-130 23.5q-62 0 -120.5 -37t-102.5 -84l-57 58q136 141 289 141z" />
    <glyph glyph-name="nbspace" unicode="&#xa0;" horiz-adv-x="409" 
 />
    <glyph glyph-name="exclamdown" unicode="&#xa1;" horiz-adv-x="409" 
d="M96 -410h-94l172 1137h49zM307 1085l-14 -122h-123l14 122h123z" />
    <glyph glyph-name="cent" unicode="&#xa2;" horiz-adv-x="1228" 
d="M991 1720l-94 -256q136 -43 190 -161t31 -287l-4 -31h-84q44 333 -162 401l-436 -1171q62 -18 141 -18h9q344 0 393 372h84l-4 -28q-28 -190 -148.5 -308t-328.5 -118q-111 0 -175 20l-94 -258h-82l105 287q-122 67 -169 225t-18 391l5 33q40 320 189.5 497t383.5 177
q61 0 98 -6l88 239h82zM236 819l-5 -33q-51 -416 134 -536l428 1151q-36 4 -64 4h-12q-199 0 -321.5 -148t-159.5 -438z" />
    <glyph glyph-name="sterling" unicode="&#xa3;" horiz-adv-x="1228" 
d="M758 1540q-371 0 -371 -510q0 -88 12 -190h428l-10 -82h-407q42 -309 49 -446q5 -125 -4 -230h561l-10 -82h-983l10 82h346q5 86 -0.5 182t-14.5 161t-25.5 173.5t-23.5 159.5h-194l10 82h174q-8 98 -8 190q0 588 461 588q100 0 176.5 -28t124 -78.5t76 -120t31 -152.5
t-10.5 -176l-6 -39h-82q38 240 -39 378t-270 138z" />
    <glyph glyph-name="yen" unicode="&#xa5;" horiz-adv-x="1228" 
d="M109 901l12 82h250l-221 614h88l352 -985l610 985h96l-383 -614h252l-12 -82h-291l-205 -328h453l-10 -81h-482l-63 -492h-82l64 492h-482l11 81h450l-117 328h-290z" />
    <glyph glyph-name="brokenbar" unicode="&#xa6;" horiz-adv-x="368" 
d="M150 819l118 901h82l-119 -901h-81zM10 -246l119 901h82l-119 -901h-82z" />
    <glyph glyph-name="section" unicode="&#xa7;" horiz-adv-x="1024" 
d="M483 571h27q163 0 253.5 73.5t90.5 197.5q0 184 -305 184h-27q-163 0 -253.5 -73t-90.5 -197q0 -185 305 -185zM430 500q-195 14 -272.5 89t-61.5 206l2 16q25 196 250 260q-155 50 -131 246l2 16q16 128 117 206.5t285 78.5q109 0 185 -24.5t117 -72t56 -108.5t8 -141
l-2 -23h-82q18 141 -46.5 216t-235.5 75q-154 0 -237 -67t-83 -193q0 -95 60.5 -132t240.5 -50q195 -14 272.5 -89t61.5 -206l-2 -17q-25 -196 -250 -260q155 -50 131 -245l-2 -17q-16 -128 -116.5 -206t-284.5 -78q-109 0 -185.5 24.5t-117.5 72t-56 108.5t-8 141l2 22h82
q-18 -141 47 -216t236 -75q154 0 236.5 67t82.5 193q0 95 -60.5 132.5t-240.5 50.5z" />
    <glyph glyph-name="dieresis" unicode="&#xa8;" horiz-adv-x="1024" 
d="M516 1505l-16 -123h-123l16 123h123zM823 1505l-16 -123h-123l16 123h123z" />
    <glyph glyph-name="copyright" unicode="&#xa9;" horiz-adv-x="1884" 
d="M942 379q68 0 122 16.5t86 41.5t53 59t28.5 65.5t7.5 63.5h82v-21q0 -34 -10.5 -71.5t-38.5 -80.5t-69 -76.5t-109 -56t-152 -22.5q-89 0 -162 30t-120 78.5t-79 112.5t-45.5 129t-13.5 131v41q0 66 13.5 131t45.5 129t79 112.5t120 78.5t162 30q84 0 152 -23.5
t109 -58.5t69 -79.5t38.5 -83t10.5 -72.5v-31h-82q0 50 -15 94.5t-47 84.5t-92.5 64t-142.5 24q-71 0 -128.5 -23.5t-95 -62.5t-63 -91.5t-36.5 -108t-11 -114.5v-41q0 -75 18.5 -143t56.5 -127t104.5 -94t154.5 -35zM123 799q0 167 65 318.5t174.5 261t261 174.5t318.5 65
t318.5 -65t261 -174.5t174.5 -261t65 -318.5t-65 -318.5t-174.5 -261t-261 -174.5t-318.5 -65t-318.5 65t-261 174.5t-174.5 261t-65 318.5zM205 799q0 -150 58 -287t157 -235.5t235.5 -157t286.5 -58.5t286.5 58.5t235.5 157t157 235.5t58 287t-58 286.5t-157 235.5
t-235.5 157t-286.5 58t-286.5 -58t-235.5 -157t-157 -235.5t-58 -286.5z" />
    <glyph glyph-name="ordfeminine" unicode="&#xaa;" horiz-adv-x="772" 
d="M631 795l-2 116q-116 -133 -291 -133q-115 0 -175 63t-48 163l2 16q7 51 28 90t48 63t66.5 41t73 25t77.5 14l258 39l4 29q16 117 -21.5 172t-158.5 55q-104 0 -159.5 -57t-66.5 -156h-76l3 15q7 53 25.5 97t52 84.5t91.5 63.5t134 23q85 0 141.5 -22.5t81.5 -62
t33.5 -94t-2.5 -118.5l-39 -299l-21 -227h-59zM338 848q58 0 108.5 14.5t86 38.5t57.5 44.5t39 43.5l30 240l-258 -41q-96 -15 -145.5 -54.5t-58.5 -113.5l-2 -16q-8 -63 29 -109.5t114 -46.5zM61 457l9 71h583l-8 -71h-584z" />
    <glyph glyph-name="guillemotleft" unicode="&#xab;" horiz-adv-x="1024" 
d="M549 1044l-12 -98l-369 -256l301 -256l-12 -86l-369 318l8 61zM958 1044l-12 -98l-368 -256l301 -256l-13 -86l-368 318l8 61z" />
    <glyph glyph-name="logicalnot" unicode="&#xac;" horiz-adv-x="1228" 
d="M137 1044l10 82h1024l-90 -675h-82l80 593h-942z" />
    <glyph glyph-name="uni00AD" unicode="&#xad;" horiz-adv-x="655" 
d="M70 678l10 78h491l-10 -78h-491z" />
    <glyph glyph-name="registered" unicode="&#xae;" horiz-adv-x="675" 
d="M41 1362q0 123 87 210t210 87t210 -87t87 -210t-87 -210t-210 -87t-210 87t-87 210zM90 1362q0 -103 72.5 -175.5t175.5 -72.5t175.5 72.5t72.5 175.5t-72.5 175.5t-175.5 72.5t-175.5 -72.5t-72.5 -175.5zM461 1421q0 -71 -64 -94l64 -141h-60l-57 135h-72v-135h-57v352
h135q50 0 80.5 -26.5t30.5 -73.5v-17zM403 1434q0 51 -63 51h-68v-111h68q63 0 63 51v9z" />
    <glyph glyph-name="macron" unicode="&#xaf;" horiz-adv-x="1024" 
d="M379 1393l10 82h430l-10 -82h-430z" />
    <glyph glyph-name="degree" unicode="&#xb0;" horiz-adv-x="819" 
d="M446 1081h13q101 0 169 56t81 166l2 16q12 99 -40.5 160t-156.5 61h-12q-102 0 -169.5 -55.5t-80.5 -165.5l-2 -16q-12 -99 40 -160.5t156 -61.5zM508 1618q144 0 221 -78.5t59 -220.5l-2 -16q-18 -145 -106.5 -222t-226.5 -77q-144 0 -221.5 78.5t-59.5 220.5l2 16
q18 145 107 222t227 77z" />
    <glyph glyph-name="plusminus" unicode="&#xb1;" horiz-adv-x="1228" 
d="M643 1311h82l-41 -307h471l-10 -82h-471l-41 -308h-82l41 308h-471l10 82h471zM45 348l10 82h1024l-10 -82h-1024z" />
    <glyph glyph-name="twosuperior" unicode="&#xb2;" 
d="M569 864l-8 -65h-500l7 45l391 366q51 48 74.5 81.5t29.5 80.5l2 17q9 74 -32.5 113.5t-120.5 39.5h-9q-88 0 -136.5 -50t-63.5 -161h-72l4 31q31 246 273 246q127 0 185 -59.5t46 -159.5l-2 -17q-7 -60 -34.5 -99.5t-86.5 -94.5l-336 -314h389z" />
    <glyph glyph-name="threesuperior" unicode="&#xb3;" 
d="M162 1055q-13 -101 29 -152t128 -51h13q75 0 125.5 34.5t58.5 108.5l2 17q9 75 -31 118.5t-112 43.5h-117l8 65h113q74 0 124.5 33t59.5 100l2 17q9 74 -32.5 113.5t-120.5 39.5h-9q-88 0 -136.5 -50t-63.5 -161h-72l4 31q31 246 273 246q125 0 184 -59.5t47 -159.5
l-2 -17q-17 -133 -150 -166q55 -15 84.5 -68.5t20.5 -125.5l-2 -17q-12 -96 -82.5 -152.5t-181.5 -56.5q-130 0 -192.5 66.5t-47.5 185.5l2 17h74z" />
    <glyph glyph-name="acute" unicode="&#xb4;" horiz-adv-x="1024" 
d="M762 1597h86l-227 -327h-86z" />
    <glyph glyph-name="paragraph" unicode="&#xb6;" horiz-adv-x="1024" 
d="M553 754h18l101 766h-35q-52 0 -99 -7t-102 -29.5t-97 -59t-74.5 -101t-43.5 -149.5l-6 -50q-11 -89 6 -157t51 -107t84 -64t97.5 -33.5t99.5 -8.5zM754 1520l-199 -1520h-82l88 676h-14q-69 0 -131.5 13t-121.5 45t-99.5 81.5t-59 129t-6.5 179.5l6 50q12 96 48 170.5
t85.5 121t114 77t129 42.5t135.5 12h342l-209 -1597h-82l199 1520h-143z" />
    <glyph glyph-name="periodcentered" unicode="&#xb7;" horiz-adv-x="409" 
d="M268 778l-16 -123h-123l16 123h123z" />
    <glyph glyph-name="cedilla" unicode="&#xb8;" horiz-adv-x="1232" 
d="M184 -375l31 58q61 -45 147 -45q138 0 138 88q0 75 -121 75l-57 -4l-29 33l86 170h74l-68 -131h10q72 0 123 -31.5t51 -103.5q0 -84 -57.5 -124t-149.5 -40q-49 0 -99 16t-79 39z" />
    <glyph glyph-name="onesuperior" unicode="&#xb9;" 
d="M565 799h-489l8 65h209l84 637l-205 -127l-29 58l273 170h47l-96 -738h206z" />
    <glyph glyph-name="ordmasculine" unicode="&#xba;" horiz-adv-x="839" 
d="M811 1214l-4 -32q-24 -189 -119.5 -296.5t-253.5 -107.5q-73 0 -128.5 20.5t-89.5 57.5t-54.5 87.5t-23 111t4.5 127.5l4 32q24 189 119.5 296.5t253.5 107.5q73 0 128.5 -20.5t89.5 -57.5t54.5 -87.5t23 -111t-4.5 -127.5zM225 1214l-4 -32q-19 -155 33.5 -243.5
t179.5 -88.5q126 0 200.5 90t94.5 242l4 32q19 155 -33.5 243.5t-179.5 88.5q-126 0 -200.5 -90t-94.5 -242zM61 457l9 71h635l-9 -71h-635z" />
    <glyph glyph-name="guillemotright" unicode="&#xbb;" horiz-adv-x="1024" 
d="M537 958l12 86l366 -317l-8 -61l-450 -318l12 98l367 256zM127 958l12 86l367 -317l-8 -61l-451 -318l12 98l367 256z" />
    <glyph glyph-name="onequarter" unicode="&#xbc;" horiz-adv-x="1638" 
d="M565 799h-489l8 65h209l84 637l-205 -127l-29 58l273 170h47l-96 -738h206zM176 0h-94l1388 1597h95zM1372 0h-74l27 211h-342l8 49l414 539h72l-68 -520h131l-10 -68h-131zM1389 674l-306 -398l88 3h164l37 290z" />
    <glyph glyph-name="onehalf" unicode="&#xbd;" horiz-adv-x="1638" 
d="M565 799h-489l8 65h209l84 637l-205 -127l-29 58l273 170h47l-96 -738h206zM176 0h-94l1388 1597h95zM1489 66l-8 -66h-500l6 45l391 367q52 49 76 81.5t29 79.5l2 17q9 74 -32.5 113.5t-121.5 39.5h-8q-88 0 -137 -50t-64 -161h-71l4 31q31 246 272 246
q127 0 185.5 -59.5t46.5 -159.5l-3 -17q-7 -60 -34.5 -100t-85.5 -94l-336 -313h389z" />
    <glyph glyph-name="threequarters" unicode="&#xbe;" horiz-adv-x="1638" 
d="M162 1055q-13 -101 29 -152t128 -51h13q75 0 125.5 34.5t58.5 108.5l2 17q9 75 -31 118.5t-112 43.5h-117l8 65h113q74 0 124.5 33t59.5 100l2 17q9 74 -32.5 113.5t-120.5 39.5h-9q-88 0 -136.5 -50t-63.5 -161h-72l4 31q31 246 273 246q125 0 184 -59.5t47 -159.5
l-2 -17q-17 -133 -150 -166q55 -15 84.5 -68.5t20.5 -125.5l-2 -17q-12 -96 -82.5 -152.5t-181.5 -56.5q-130 0 -192.5 66.5t-47.5 185.5l2 17h74zM176 0h-94l1388 1597h95zM1372 0h-74l27 211h-342l8 49l414 539h72l-68 -520h131l-10 -68h-131zM1389 674l-306 -398l88 3
h164l37 290z" />
    <glyph glyph-name="questiondown" unicode="&#xbf;" horiz-adv-x="901" 
d="M291 -352q169 0 261 118.5t124 356.5h82l-4 -27q-41 -269 -147.5 -397.5t-315.5 -128.5q-174 0 -257 81.5t-83 225.5q0 97 22 173t59 126.5t81.5 93t92.5 85t90 89.5t76 119.5t48 163.5h49q-8 -91 -36.5 -166.5t-67 -127.5t-83.5 -98.5t-88 -90t-78.5 -90.5t-57 -112.5
t-21.5 -143.5q0 -124 59 -187t195 -63zM553 1085l-14 -122h-123l14 122h123z" />
    <glyph glyph-name="Agrave" unicode="&#xc0;" horiz-adv-x="1228" 
d="M600 1946h86l96 -226h-86zM666 1618h122l271 -1618h-86l-74 432h-653l-183 -432h-94zM719 1536l-440 -1026h608z" />
    <glyph glyph-name="Aacute" unicode="&#xc1;" horiz-adv-x="1228" 
d="M854 1946h86l-158 -226h-86zM666 1618h122l271 -1618h-86l-74 432h-653l-183 -432h-94zM719 1536l-440 -1026h608z" />
    <glyph glyph-name="Acircumflex" unicode="&#xc2;" horiz-adv-x="1228" 
d="M600 1720h-96l235 226h62l174 -226h-88l-123 158zM666 1618h122l271 -1618h-86l-74 432h-653l-183 -432h-94zM719 1536l-440 -1026h608z" />
    <glyph glyph-name="Atilde" unicode="&#xc3;" horiz-adv-x="1228" 
d="M977 1909h74q-10 -85 -55.5 -128.5t-114.5 -43.5q-40 0 -78.5 19.5t-63.5 43t-56 43t-58 19.5q-80 0 -95 -105h-73q12 85 58 128.5t114 43.5q40 0 78 -19.5t63 -43t55.5 -43t57.5 -19.5q82 0 94 105zM666 1618h122l271 -1618h-86l-74 432h-653l-183 -432h-94zM719 1536
l-440 -1026h608z" />
    <glyph glyph-name="Adieresis" unicode="&#xc4;" horiz-adv-x="1228" 
d="M670 1894l-17 -122h-123l17 122h123zM977 1894l-16 -122h-123l16 122h123zM666 1618h122l271 -1618h-86l-74 432h-653l-183 -432h-94zM719 1536l-440 -1026h608z" />
    <glyph glyph-name="Aring" unicode="&#xc5;" horiz-adv-x="1228" 
d="M934 1802q0 -70 -39 -123.5t-104 -72.5l268 -1606h-86l-74 432h-653l-183 -432h-94l693 1610q-46 19 -73.5 59t-27.5 92q0 86 57 145.5t144 59.5q76 0 124 -47t48 -117zM719 1536l-440 -1026h608zM629 1761q0 -41 29.5 -69.5t74.5 -28.5q55 0 94 37t39 102q0 41 -29.5 70
t-74.5 29q-55 0 -94 -37t-39 -103z" />
    <glyph glyph-name="AE" unicode="&#xc6;" horiz-adv-x="1679" 
d="M758 1597h948l-10 -77h-815l12 -666h612l-10 -78h-602l14 -698h600l-10 -78h-672l-8 453h-553l-227 -453h-88zM801 1520l-498 -990h514z" />
    <glyph glyph-name="Ccedilla" unicode="&#xc7;" horiz-adv-x="1243" 
d="M340 -375l31 58q61 -45 147 -45q137 0 137 88q0 75 -120 75l-58 -4l-28 33l75 152q-249 12 -347.5 200.5t-47.5 591.5l6 49q52 414 202.5 604.5t414.5 190.5q251 0 355 -144.5t62 -410.5l-6 -39h-86q37 276 -38 396t-281 120h-13q-221 0 -349 -171t-175 -546l-6 -49
q-23 -194 -15 -330.5t53 -222.5t120 -125t186 -39h12q197 0 303 114t136 341h86l-2 -18q-27 -231 -152.5 -367.5t-343.5 -146.5l-57 -111h10q72 0 123 -31.5t51 -103.5q0 -84 -57.5 -124t-149.5 -40q-49 0 -99 16t-79 39z" />
    <glyph glyph-name="Egrave" unicode="&#xc8;" horiz-adv-x="1105" 
d="M272 1597h861l-11 -77h-778l-88 -666h676l-10 -78h-676l-90 -698h778l-10 -78h-861zM600 1946h86l96 -226h-86z" />
    <glyph glyph-name="Eacute" unicode="&#xc9;" horiz-adv-x="1105" 
d="M272 1597h861l-11 -77h-778l-88 -666h676l-10 -78h-676l-90 -698h778l-10 -78h-861zM854 1946h86l-158 -226h-86z" />
    <glyph glyph-name="Ecircumflex" unicode="&#xca;" horiz-adv-x="1105" 
d="M272 1597h861l-11 -77h-778l-88 -666h676l-10 -78h-676l-90 -698h778l-10 -78h-861zM600 1720h-96l235 226h62l174 -226h-88l-123 158z" />
    <glyph glyph-name="Edieresis" unicode="&#xcb;" horiz-adv-x="1105" 
d="M272 1597h861l-11 -77h-778l-88 -666h676l-10 -78h-676l-90 -698h778l-10 -78h-861zM977 1894l-16 -122h-123l16 122h123zM670 1894l-17 -122h-123l17 122h123z" />
    <glyph glyph-name="Igrave" unicode="&#xcc;" horiz-adv-x="430" 
d="M365 1597l-209 -1597h-82l209 1597h82zM201 1946h86l96 -226h-86z" />
    <glyph glyph-name="Iacute" unicode="&#xcd;" horiz-adv-x="430" 
d="M365 1597l-209 -1597h-82l209 1597h82zM455 1946h86l-158 -226h-86z" />
    <glyph glyph-name="Icircumflex" unicode="&#xce;" horiz-adv-x="430" 
d="M365 1597l-209 -1597h-82l209 1597h82zM201 1720h-97l236 226h61l174 -226h-88l-122 158z" />
    <glyph glyph-name="Idieresis" unicode="&#xcf;" horiz-adv-x="430" 
d="M365 1597l-209 -1597h-82l209 1597h82zM578 1894l-17 -122h-123l17 122h123zM270 1894l-16 -122h-123l16 122h123z" />
    <glyph glyph-name="Eth" unicode="&#xd0;" horiz-adv-x="1413" 
d="M1290 823l-6 -49q-26 -203 -89.5 -353.5t-157.5 -241.5t-209 -135t-253 -44h-389l101 776h-246l10 78h246l98 743h383q138 0 241.5 -44t174.5 -135t96.5 -241.5t-0.5 -353.5zM279 78h296q122 0 223 39t183.5 120t138 217t78.5 320l6 49q87 697 -432 697h-305l-88 -666
h471l-10 -78h-471z" />
    <glyph glyph-name="Ntilde" unicode="&#xd1;" horiz-adv-x="1331" 
d="M1028 1909h74q-10 -85 -55.5 -128.5t-114.5 -43.5q-40 0 -78.5 19.5t-63.5 43t-56 43t-58 19.5q-79 0 -94 -105h-74q12 85 58 128.5t114 43.5q40 0 78 -19.5t63 -43t55.5 -43t57.5 -19.5q82 0 94 105zM1276 1597l-209 -1597h-90l-647 1475l-45 -390l-142 -1085h-80
l209 1597h90l646 -1474l45 389l143 1085h80z" />
    <glyph glyph-name="Ograve" unicode="&#xd2;" horiz-adv-x="1310" 
d="M641 1946h86l96 -226h-86zM1188 823l-6 -49q-52 -413 -202.5 -603.5t-414.5 -190.5q-271 0 -380 187.5t-56 606.5l6 49q52 414 202.5 604.5t414.5 190.5q180 0 286.5 -79t146 -256.5t3.5 -459.5zM1096 774l6 49q23 194 15 330.5t-53 222.5t-120 125t-186 39h-13
q-221 0 -349 -171t-175 -546l-6 -49q-23 -194 -15 -330.5t53 -222.5t120 -125t186 -39h12q221 0 349.5 171.5t175.5 545.5z" />
    <glyph glyph-name="Oacute" unicode="&#xd3;" horiz-adv-x="1310" 
d="M895 1946h86l-158 -226h-86zM1188 823l-6 -49q-52 -413 -202.5 -603.5t-414.5 -190.5q-271 0 -380 187.5t-56 606.5l6 49q52 414 202.5 604.5t414.5 190.5q180 0 286.5 -79t146 -256.5t3.5 -459.5zM1096 774l6 49q23 194 15 330.5t-53 222.5t-120 125t-186 39h-13
q-221 0 -349 -171t-175 -546l-6 -49q-23 -194 -15 -330.5t53 -222.5t120 -125t186 -39h12q221 0 349.5 171.5t175.5 545.5z" />
    <glyph glyph-name="Ocircumflex" unicode="&#xd4;" horiz-adv-x="1310" 
d="M1188 823l-6 -49q-52 -413 -202.5 -603.5t-414.5 -190.5q-271 0 -380 187.5t-56 606.5l6 49q52 414 202.5 604.5t414.5 190.5q180 0 286.5 -79t146 -256.5t3.5 -459.5zM1096 774l6 49q23 194 15 330.5t-53 222.5t-120 125t-186 39h-13q-221 0 -349 -171t-175 -546l-6 -49
q-23 -194 -15 -330.5t53 -222.5t120 -125t186 -39h12q221 0 349.5 171.5t175.5 545.5zM641 1720h-96l235 226h62l174 -226h-88l-123 158z" />
    <glyph glyph-name="Otilde" unicode="&#xd5;" horiz-adv-x="1310" 
d="M1018 1909h74q-10 -85 -55.5 -128.5t-114.5 -43.5q-40 0 -78.5 19.5t-63.5 43t-56 43t-58 19.5q-80 0 -95 -105h-73q12 85 58 128.5t114 43.5q40 0 78 -19.5t63 -43t55.5 -43t57.5 -19.5q82 0 94 105zM1188 823l-6 -49q-52 -413 -202.5 -603.5t-414.5 -190.5
q-271 0 -380 187.5t-56 606.5l6 49q52 414 202.5 604.5t414.5 190.5q180 0 286.5 -79t146 -256.5t3.5 -459.5zM1096 774l6 49q23 194 15 330.5t-53 222.5t-120 125t-186 39h-13q-221 0 -349 -171t-175 -546l-6 -49q-23 -194 -15 -330.5t53 -222.5t120 -125t186 -39h12
q221 0 349.5 171.5t175.5 545.5z" />
    <glyph glyph-name="Odieresis" unicode="&#xd6;" horiz-adv-x="1310" 
d="M711 1894l-17 -122h-123l17 122h123zM1018 1894l-17 -122h-122l16 122h123zM1188 823l-6 -49q-52 -413 -202.5 -603.5t-414.5 -190.5q-271 0 -380 187.5t-56 606.5l6 49q52 414 202.5 604.5t414.5 190.5q180 0 286.5 -79t146 -256.5t3.5 -459.5zM1096 774l6 49
q23 194 15 330.5t-53 222.5t-120 125t-186 39h-13q-221 0 -349 -171t-175 -546l-6 -49q-23 -194 -15 -330.5t53 -222.5t120 -125t186 -39h12q221 0 349.5 171.5t175.5 545.5z" />
    <glyph glyph-name="multiply" unicode="&#xd7;" horiz-adv-x="1228" 
d="M68 262l-52 60l541 477l-414 477l66 59l416 -477l538 477l54 -59l-541 -477l414 -477l-68 -60l-414 477z" />
    <glyph glyph-name="Oslash" unicode="&#xd8;" horiz-adv-x="1282" 
d="M1188 823l-6 -49q-52 -413 -202.5 -603.5t-414.5 -190.5q-242 0 -352 145l-90 -125h-92l141 193q-91 193 -43 581l6 49q52 414 202.5 604.5t414.5 190.5q240 0 350 -145l92 124h92l-141 -194q91 -197 43 -580zM215 774q-43 -326 16 -500l818 1125q-85 141 -291 141h-13
q-221 0 -349 -171t-175 -546zM1096 774l6 49q40 329 -17 498l-819 -1124q86 -140 293 -140h12q221 0 349.5 171.5t175.5 545.5z" />
    <glyph glyph-name="Ugrave" unicode="&#xd9;" horiz-adv-x="1290" 
d="M631 1946h86l96 -226h-86zM559 -20q-120 0 -206.5 25t-148 82.5t-84 158.5t-3.5 246l145 1105h82l-143 -1095q-16 -103 -5.5 -178.5t35.5 -126.5t74 -82t110 -44.5t144 -13.5q103 0 178.5 21.5t134.5 72.5t95 137.5t53 213.5l143 1095h82l-145 -1105q-19 -144 -62 -244
t-113 -158.5t-158.5 -84t-207.5 -25.5z" />
    <glyph glyph-name="Uacute" unicode="&#xda;" horiz-adv-x="1290" 
d="M885 1946h86l-158 -226h-86zM559 -20q-120 0 -206.5 25t-148 82.5t-84 158.5t-3.5 246l145 1105h82l-143 -1095q-16 -103 -5.5 -178.5t35.5 -126.5t74 -82t110 -44.5t144 -13.5q103 0 178.5 21.5t134.5 72.5t95 137.5t53 213.5l143 1095h82l-145 -1105q-19 -144 -62 -244
t-113 -158.5t-158.5 -84t-207.5 -25.5z" />
    <glyph glyph-name="Ucircumflex" unicode="&#xdb;" horiz-adv-x="1290" 
d="M631 1720h-96l235 226h61l175 -226h-88l-123 158zM559 -20q-120 0 -206.5 25t-148 82.5t-84 158.5t-3.5 246l145 1105h82l-143 -1095q-16 -103 -5.5 -178.5t35.5 -126.5t74 -82t110 -44.5t144 -13.5q103 0 178.5 21.5t134.5 72.5t95 137.5t53 213.5l143 1095h82
l-145 -1105q-19 -144 -62 -244t-113 -158.5t-158.5 -84t-207.5 -25.5z" />
    <glyph glyph-name="Udieresis" unicode="&#xdc;" horiz-adv-x="1290" 
d="M1008 1894l-17 -122h-123l17 122h123zM700 1894l-16 -122h-123l17 122h122zM559 -20q-120 0 -206.5 25t-148 82.5t-84 158.5t-3.5 246l145 1105h82l-143 -1095q-16 -103 -5.5 -178.5t35.5 -126.5t74 -82t110 -44.5t144 -13.5q103 0 178.5 21.5t134.5 72.5t95 137.5
t53 213.5l143 1095h82l-145 -1105q-19 -144 -62 -244t-113 -158.5t-158.5 -84t-207.5 -25.5z" />
    <glyph glyph-name="Yacute" unicode="&#xdd;" horiz-adv-x="1146" 
d="M813 1946h86l-158 -226h-86zM575 481l-61 -481h-82l62 481l-334 1116h84l301 -1013l567 1013h92z" />
    <glyph glyph-name="Thorn" unicode="&#xde;" horiz-adv-x="1146" 
d="M188 338l-43 -338h-82l209 1597h82l-45 -337h322q69 0 131.5 -13t121.5 -45.5t99.5 -82t59 -129t6.5 -179.5l-7 -49q-12 -96 -48 -170.5t-85.5 -121.5t-114 -77.5t-129 -42.5t-135.5 -12h-342zM199 416h342q52 0 98.5 7t102 29.5t97 59t74 101t43.5 149.5l7 49
q11 89 -6 157t-51 107.5t-84 64.5t-97.5 33.5t-99.5 8.5h-326z" />
    <glyph glyph-name="germandbls" unicode="&#xdf;" horiz-adv-x="1126" 
d="M524 782l6 58q187 96 269.5 187t101.5 224q20 153 -45 239.5t-223 86.5q-301 0 -344 -328l-164 -1249h-82l164 1257q26 196 135 299t291 103q200 0 290 -106.5t66 -292.5l-2 -17q-18 -132 -99 -236t-249 -202l104 -76q94 -69 151.5 -128t89.5 -133t22 -155l-2 -16
q-7 -61 -31 -114.5t-66.5 -100.5t-114 -74.5t-163.5 -27.5q-73 0 -129.5 14t-91 38.5t-58.5 57t-31.5 69t-11 76t3.5 76.5l2 17h80q-4 -43 -3.5 -82.5t15.5 -74t40.5 -60t72.5 -40t111 -14.5q135 0 204.5 69t84.5 181q13 107 -44 187.5t-217 193.5z" />
    <glyph glyph-name="agrave" unicode="&#xe0;" horiz-adv-x="1024" 
d="M393 1597h86l142 -327h-86zM729 0l2 164q-161 -184 -403 -184q-140 0 -224 80t-67 208l4 33q8 68 35.5 120t62 83t87.5 53.5t96 32.5t104 20l360 58l7 49q21 166 -34.5 238.5t-219.5 72.5q-85 0 -146 -23.5t-95.5 -68t-52.5 -94t-26 -115.5h-82l4 29q8 51 22.5 96.5
t44.5 93.5t72 82t109 56t150 22q110 0 183.5 -28.5t108 -81t45.5 -126t-4 -163.5l-53 -400l-28 -307h-62zM328 57q266 0 405 207l43 328l-360 -57q-133 -21 -204.5 -74t-84.5 -154l-4 -33q-11 -87 43.5 -152t161.5 -65z" />
    <glyph glyph-name="aacute" unicode="&#xe1;" horiz-adv-x="1024" 
d="M762 1597h86l-227 -327h-86zM729 0l2 164q-161 -184 -403 -184q-140 0 -224 80t-67 208l4 33q8 68 35.5 120t62 83t87.5 53.5t96 32.5t104 20l360 58l7 49q21 166 -34.5 238.5t-219.5 72.5q-85 0 -146 -23.5t-95.5 -68t-52.5 -94t-26 -115.5h-82l4 29q8 51 22.5 96.5
t44.5 93.5t72 82t109 56t150 22q110 0 183.5 -28.5t108 -81t45.5 -126t-4 -163.5l-53 -400l-28 -307h-62zM328 57q266 0 405 207l43 328l-360 -57q-133 -21 -204.5 -74t-84.5 -154l-4 -33q-11 -87 43.5 -152t161.5 -65z" />
    <glyph glyph-name="acircumflex" unicode="&#xe2;" horiz-adv-x="1024" 
d="M377 1270h-96l309 327h61l223 -327h-88l-172 254zM729 0l2 164q-161 -184 -403 -184q-140 0 -224 80t-67 208l4 33q8 68 35.5 120t62 83t87.5 53.5t96 32.5t104 20l360 58l7 49q21 166 -34.5 238.5t-219.5 72.5q-85 0 -146 -23.5t-95.5 -68t-52.5 -94t-26 -115.5h-82
l4 29q8 51 22.5 96.5t44.5 93.5t72 82t109 56t150 22q110 0 183.5 -28.5t108 -81t45.5 -126t-4 -163.5l-53 -400l-28 -307h-62zM328 57q266 0 405 207l43 328l-360 -57q-133 -21 -204.5 -74t-84.5 -154l-4 -33q-11 -87 43.5 -152t161.5 -65z" />
    <glyph glyph-name="atilde" unicode="&#xe3;" horiz-adv-x="1024" 
d="M825 1509h72q-12 -86 -56 -129t-112 -43q-40 0 -79.5 19t-66 42.5t-59.5 42.5t-61 19q-75 0 -88 -102h-72q10 85 54 128.5t112 43.5q40 0 79.5 -19t66 -42.5t59.5 -42.5t61 -19q77 0 90 102zM729 0l2 164q-161 -184 -403 -184q-140 0 -224 80t-67 208l4 33q8 68 35.5 120
t62 83t87.5 53.5t96 32.5t104 20l360 58l7 49q21 166 -34.5 238.5t-219.5 72.5q-85 0 -146 -23.5t-95.5 -68t-52.5 -94t-26 -115.5h-82l4 29q8 51 22.5 96.5t44.5 93.5t72 82t109 56t150 22q110 0 183.5 -28.5t108 -81t45.5 -126t-4 -163.5l-53 -400l-28 -307h-62zM328 57
q266 0 405 207l43 328l-360 -57q-133 -21 -204.5 -74t-84.5 -154l-4 -33q-11 -87 43.5 -152t161.5 -65z" />
    <glyph glyph-name="adieresis" unicode="&#xe4;" horiz-adv-x="1024" 
d="M516 1505l-16 -123h-123l16 123h123zM823 1505l-16 -123h-123l16 123h123zM729 0l2 164q-161 -184 -403 -184q-140 0 -224 80t-67 208l4 33q8 68 35.5 120t62 83t87.5 53.5t96 32.5t104 20l360 58l7 49q21 166 -34.5 238.5t-219.5 72.5q-85 0 -146 -23.5t-95.5 -68
t-52.5 -94t-26 -115.5h-82l4 29q8 51 22.5 96.5t44.5 93.5t72 82t109 56t150 22q110 0 183.5 -28.5t108 -81t45.5 -126t-4 -163.5l-53 -400l-28 -307h-62zM328 57q266 0 405 207l43 328l-360 -57q-133 -21 -204.5 -74t-84.5 -154l-4 -33q-11 -87 43.5 -152t161.5 -65z" />
    <glyph glyph-name="aring" unicode="&#xe5;" horiz-adv-x="1024" 
d="M729 0l2 164q-161 -184 -403 -184q-140 0 -224 80t-67 208l4 33q8 68 35.5 120t62 83t87.5 53.5t96 32.5t104 20l360 58l7 49q21 166 -34.5 238.5t-219.5 72.5q-85 0 -146 -23.5t-95.5 -68t-52.5 -94t-26 -115.5h-82l4 29q8 51 22.5 96.5t44.5 93.5t72 82t109 56t150 22
q110 0 183.5 -28.5t108 -81t45.5 -126t-4 -163.5l-53 -400l-28 -307h-62zM328 57q266 0 405 207l43 328l-360 -57q-133 -21 -204.5 -74t-84.5 -154l-4 -33q-11 -87 43.5 -152t161.5 -65zM776 1454q0 -86 -57 -145.5t-144 -59.5q-76 0 -124 47t-48 117q0 86 57 145.5
t144 59.5q76 0 124 -47t48 -117zM471 1413q0 -41 29.5 -69.5t74.5 -28.5q55 0 94.5 37t39.5 102q0 40 -30 69t-75 29q-55 0 -94 -37t-39 -102z" />
    <glyph glyph-name="ae" unicode="&#xe6;" horiz-adv-x="1792" 
d="M1647 504h-795q-24 -210 56.5 -328.5t279.5 -118.5q89 0 157.5 26t108.5 70.5t61.5 92.5t28.5 102h82l-2 -14q-10 -67 -40.5 -127.5t-81.5 -112.5t-132.5 -83t-181.5 -31q-315 0 -400 245q-86 -119 -204.5 -182t-255.5 -63q-140 0 -224 80t-67 208l4 33q8 68 35.5 120
t62 83t87.5 53.5t96 32.5t104 20l360 58l7 49q21 166 -34.5 238.5t-219.5 72.5q-85 0 -146 -23.5t-95.5 -68t-52.5 -94t-26 -115.5h-82l4 29q8 51 22.5 96.5t44.5 93.5t72 82t109 56t150 22q173 0 247.5 -68.5t79.5 -199.5q127 268 412 268q94 0 166.5 -28t116 -77.5
t70.5 -117t30 -147t-6 -167.5zM1278 1028q-170 0 -282 -124t-136 -322h713q31 210 -44 328t-251 118zM328 57q282 0 440 258q-15 100 0 215l8 62l-360 -57q-133 -21 -204.5 -74t-84.5 -154l-4 -33q-11 -87 43.5 -152t161.5 -65z" />
    <glyph glyph-name="ccedilla" unicode="&#xe7;" horiz-adv-x="1064" 
d="M244 -375l30 58q61 -45 148 -45q137 0 137 88q0 75 -121 75l-57 -4l-29 33l76 152q-135 12 -221.5 89t-116 194t-10.5 265l4 33q31 251 151.5 397t333.5 146q79 0 143.5 -18t105 -47.5t71 -68.5t42 -81.5t17.5 -84.5t-2 -79l-4 -31h-80q13 94 -13 167.5t-97.5 119
t-182.5 45.5q-170 0 -271 -121t-128 -338l-4 -32q-28 -221 52.5 -350.5t260.5 -129.5q83 0 146.5 25.5t102 71t60 98.5t29.5 117h82l-4 -29q-8 -49 -23 -94.5t-45.5 -94t-72 -84t-107 -60t-145.5 -27.5l-58 -111h11q72 0 123 -31.5t51 -103.5q0 -84 -57.5 -124t-149.5 -40
q-49 0 -99 16t-79 39z" />
    <glyph glyph-name="egrave" unicode="&#xe8;" horiz-adv-x="1105" 
d="M434 1597h86l142 -327h-87zM958 504h-794q-24 -210 56.5 -328.5t279.5 -118.5q89 0 157.5 26t108.5 70.5t61.5 92.5t28.5 102h82l-2 -14q-10 -67 -40.5 -127.5t-81.5 -112.5t-132.5 -83t-181.5 -31q-105 0 -185 28.5t-128.5 79t-78 119.5t-33.5 150.5t5 172.5l4 33
q20 162 81.5 282t170.5 190.5t254 70.5q94 0 166.5 -28t116 -77.5t70.5 -117t30 -147t-6 -167.5zM590 1028q-170 0 -282 -124t-136 -322h713q31 210 -44 328t-251 118z" />
    <glyph glyph-name="eacute" unicode="&#xe9;" horiz-adv-x="1105" 
d="M803 1597h86l-227 -327h-87zM958 504h-794q-24 -210 56.5 -328.5t279.5 -118.5q89 0 157.5 26t108.5 70.5t61.5 92.5t28.5 102h82l-2 -14q-10 -67 -40.5 -127.5t-81.5 -112.5t-132.5 -83t-181.5 -31q-105 0 -185 28.5t-128.5 79t-78 119.5t-33.5 150.5t5 172.5l4 33
q20 162 81.5 282t170.5 190.5t254 70.5q94 0 166.5 -28t116 -77.5t70.5 -117t30 -147t-6 -167.5zM590 1028q-170 0 -282 -124t-136 -322h713q31 210 -44 328t-251 118z" />
    <glyph glyph-name="ecircumflex" unicode="&#xea;" horiz-adv-x="1105" 
d="M418 1270h-96l309 327h61l223 -327h-88l-172 254zM958 504h-794q-24 -210 56.5 -328.5t279.5 -118.5q89 0 157.5 26t108.5 70.5t61.5 92.5t28.5 102h82l-2 -14q-10 -67 -40.5 -127.5t-81.5 -112.5t-132.5 -83t-181.5 -31q-105 0 -185 28.5t-128.5 79t-78 119.5
t-33.5 150.5t5 172.5l4 33q20 162 81.5 282t170.5 190.5t254 70.5q94 0 166.5 -28t116 -77.5t70.5 -117t30 -147t-6 -167.5zM590 1028q-170 0 -282 -124t-136 -322h713q31 210 -44 328t-251 118z" />
    <glyph glyph-name="edieresis" unicode="&#xeb;" horiz-adv-x="1105" 
d="M557 1505l-16 -123h-123l16 123h123zM864 1505l-16 -123h-123l16 123h123zM958 504h-794q-24 -210 56.5 -328.5t279.5 -118.5q89 0 157.5 26t108.5 70.5t61.5 92.5t28.5 102h82l-2 -14q-10 -67 -40.5 -127.5t-81.5 -112.5t-132.5 -83t-181.5 -31q-105 0 -185 28.5
t-128.5 79t-78 119.5t-33.5 150.5t5 172.5l4 33q20 162 81.5 282t170.5 190.5t254 70.5q94 0 166.5 -28t116 -77.5t70.5 -117t30 -147t-6 -167.5zM590 1028q-170 0 -282 -124t-136 -322h713q31 210 -44 328t-251 118z" />
    <glyph glyph-name="igrave" unicode="&#xec;" horiz-adv-x="409" 
d="M63 0l142 1085h82l-142 -1085h-82zM86 1597h86l141 -327h-86z" />
    <glyph glyph-name="iacute" unicode="&#xed;" horiz-adv-x="409" 
d="M63 0l142 1085h82l-142 -1085h-82zM455 1597h86l-228 -327h-86z" />
    <glyph glyph-name="icircumflex" unicode="&#xee;" horiz-adv-x="409" 
d="M63 0l142 1085h82l-142 -1085h-82zM70 1270h-97l310 327h61l223 -327h-88l-172 254z" />
    <glyph glyph-name="idieresis" unicode="&#xef;" horiz-adv-x="409" 
d="M63 0l142 1085h82l-142 -1085h-82zM516 1505l-16 -123h-123l16 123h123zM209 1505l-16 -123h-123l16 123h123z" />
    <glyph glyph-name="eth" unicode="&#xf0;" horiz-adv-x="1105" 
d="M219 1581l10 78q256 -24 424 -139l256 139l-12 -88l-180 -98q65 -55 110 -113q209 -269 142 -805l-4 -33q-15 -121 -52.5 -219t-98 -170.5t-148.5 -112.5t-197 -40q-93 0 -166 28t-119 78t-75 119t-34 151t5 174l4 33q15 121 52.5 219t98 171t148.5 113t197 40
q113 0 193.5 -40.5t119.5 -113.5q-34 222 -139 355q-48 61 -123 118l-373 -202l12 88l293 159q-150 89 -344 111zM469 57q171 0 277 122t133 337l4 33q29 223 -47.5 351t-255.5 128q-171 0 -277 -122t-133 -337l-4 -32q-29 -223 47.5 -351.5t255.5 -128.5z" />
    <glyph glyph-name="ntilde" unicode="&#xf1;" horiz-adv-x="1044" 
d="M842 1509h71q-12 -86 -56 -129t-112 -43q-40 0 -79.5 19t-66 42.5t-59.5 42.5t-61 19q-75 0 -88 -102h-72q10 85 54 128.5t112 43.5q40 0 79.5 -19t66.5 -42.5t60 -42.5t61 -19q77 0 90 102zM811 0h-82l98 758q35 270 -243 270q-121 0 -209 -56t-142 -132l-108 -840h-82
l102 778l29 307h62l-3 -159q58 81 153 130.5t208 49.5q172 0 254.5 -90t62.5 -248z" />
    <glyph glyph-name="ograve" unicode="&#xf2;" horiz-adv-x="1105" 
d="M434 1597h86l142 -327h-87zM469 57q171 0 277 122t133 337l4 33q29 223 -47.5 351t-255.5 128q-171 0 -277 -122t-133 -337l-4 -32q-29 -223 47.5 -351.5t255.5 -128.5zM469 -20q-93 0 -166 28t-119 78t-75 119t-34 151t5 174l4 33q15 121 52.5 219t98 171t148.5 113
t197 40q93 0 166 -28t119 -78t75 -119t34 -151.5t-5 -174.5l-4 -33q-15 -121 -52.5 -219t-98 -170.5t-148.5 -112.5t-197 -40z" />
    <glyph glyph-name="oacute" unicode="&#xf3;" horiz-adv-x="1105" 
d="M803 1597h86l-227 -327h-87zM469 57q171 0 277 122t133 337l4 33q29 223 -47.5 351t-255.5 128q-171 0 -277 -122t-133 -337l-4 -32q-29 -223 47.5 -351.5t255.5 -128.5zM469 -20q-93 0 -166 28t-119 78t-75 119t-34 151t5 174l4 33q15 121 52.5 219t98 171t148.5 113
t197 40q93 0 166 -28t119 -78t75 -119t34 -151.5t-5 -174.5l-4 -33q-15 -121 -52.5 -219t-98 -170.5t-148.5 -112.5t-197 -40z" />
    <glyph glyph-name="ocircumflex" unicode="&#xf4;" horiz-adv-x="1105" 
d="M418 1270h-96l309 327h61l223 -327h-88l-172 254zM469 57q171 0 277 122t133 337l4 33q29 223 -47.5 351t-255.5 128q-171 0 -277 -122t-133 -337l-4 -32q-29 -223 47.5 -351.5t255.5 -128.5zM469 -20q-93 0 -166 28t-119 78t-75 119t-34 151t5 174l4 33q15 121 52.5 219
t98 171t148.5 113t197 40q93 0 166 -28t119 -78t75 -119t34 -151.5t-5 -174.5l-4 -33q-15 -121 -52.5 -219t-98 -170.5t-148.5 -112.5t-197 -40z" />
    <glyph glyph-name="otilde" unicode="&#xf5;" horiz-adv-x="1105" 
d="M866 1509h72q-12 -86 -56 -129t-112 -43q-40 0 -79.5 19t-66 42.5t-59.5 42.5t-61 19q-75 0 -88 -102h-72q10 85 54 128.5t112 43.5q40 0 79.5 -19t66 -42.5t59.5 -42.5t61 -19q77 0 90 102zM469 57q171 0 277 122t133 337l4 33q29 223 -47.5 351t-255.5 128
q-171 0 -277 -122t-133 -337l-4 -32q-29 -223 47.5 -351.5t255.5 -128.5zM469 -20q-93 0 -166 28t-119 78t-75 119t-34 151t5 174l4 33q15 121 52.5 219t98 171t148.5 113t197 40q93 0 166 -28t119 -78t75 -119t34 -151.5t-5 -174.5l-4 -33q-15 -121 -52.5 -219t-98 -170.5
t-148.5 -112.5t-197 -40z" />
    <glyph glyph-name="odieresis" unicode="&#xf6;" horiz-adv-x="1105" 
d="M557 1505l-16 -123h-123l16 123h123zM864 1505l-16 -123h-123l16 123h123zM469 57q171 0 277 122t133 337l4 33q29 223 -47.5 351t-255.5 128q-171 0 -277 -122t-133 -337l-4 -32q-29 -223 47.5 -351.5t255.5 -128.5zM469 -20q-93 0 -166 28t-119 78t-75 119t-34 151
t5 174l4 33q15 121 52.5 219t98 171t148.5 113t197 40q93 0 166 -28t119 -78t75 -119t34 -151.5t-5 -174.5l-4 -33q-15 -121 -52.5 -219t-98 -170.5t-148.5 -112.5t-197 -40z" />
    <glyph glyph-name="divide" unicode="&#xf7;" horiz-adv-x="1228" 
d="M98 758l11 82h1024l-11 -82h-1024zM627 410l-17 -123h-123l17 123h123zM745 1311l-16 -123h-123l17 123h122z" />
    <glyph glyph-name="oslash" unicode="&#xf8;" horiz-adv-x="1105" 
d="M469 -20q-190 0 -289 110l-78 -90h-94l127 147q-83 146 -55 383l4 33q15 121 52.5 219t98 171t148.5 113t197 40q183 0 288 -111l78 90h94l-129 -149q87 -144 58 -381l-4 -33q-15 -121 -52.5 -219t-98 -170.5t-148.5 -112.5t-197 -40zM166 537q-25 -198 31 -318l614 711
q-79 98 -231 98q-171 0 -277 -122t-133 -337zM469 57q171 0 277 122t133 337l4 33q24 194 -31 317l-616 -712q81 -97 233 -97z" />
    <glyph glyph-name="ugrave" unicode="&#xf9;" horiz-adv-x="1044" 
d="M397 1597h86l142 -327h-86zM174 1085h82l-98 -757q-35 -271 243 -271q64 0 121.5 17.5t101 47.5t74 60t54.5 64l108 839h82l-102 -778l-29 -307h-61l2 160q-58 -81 -153 -130.5t-208 -49.5q-172 0 -254.5 89.5t-62.5 247.5z" />
    <glyph glyph-name="uacute" unicode="&#xfa;" horiz-adv-x="1044" 
d="M766 1597h86l-227 -327h-86zM174 1085h82l-98 -757q-35 -271 243 -271q64 0 121.5 17.5t101 47.5t74 60t54.5 64l108 839h82l-102 -778l-29 -307h-61l2 160q-58 -81 -153 -130.5t-208 -49.5q-172 0 -254.5 89.5t-62.5 247.5z" />
    <glyph glyph-name="ucircumflex" unicode="&#xfb;" horiz-adv-x="1044" 
d="M381 1270h-96l309 327h61l224 -327h-88l-173 254zM174 1085h82l-98 -757q-35 -271 243 -271q64 0 121.5 17.5t101 47.5t74 60t54.5 64l108 839h82l-102 -778l-29 -307h-61l2 160q-58 -81 -153 -130.5t-208 -49.5q-172 0 -254.5 89.5t-62.5 247.5z" />
    <glyph glyph-name="udieresis" unicode="&#xfc;" horiz-adv-x="1044" 
d="M520 1505l-16 -123h-123l16 123h123zM827 1505l-16 -123h-123l17 123h122zM174 1085h82l-98 -757q-35 -271 243 -271q64 0 121.5 17.5t101 47.5t74 60t54.5 64l108 839h82l-102 -778l-29 -307h-61l2 160q-58 -81 -153 -130.5t-208 -49.5q-172 0 -254.5 89.5t-62.5 247.5z
" />
    <glyph glyph-name="yacute" unicode="&#xfd;" horiz-adv-x="946" 
d="M741 1597h86l-227 -327h-86zM406 133l471 952h88l-529 -1048l-219 -447h-90l227 451l-254 1044h84z" />
    <glyph glyph-name="thorn" unicode="&#xfe;" horiz-adv-x="1075" 
d="M258 1638h82l-88 -675q48 63 130 103t179 40q91 0 161.5 -28t115 -78t72 -119t32 -151.5t-5.5 -174.5l-4 -33q-15 -122 -51 -219t-94.5 -170.5t-145 -113t-195.5 -39.5q-113 0 -191 52t-112 113l-73 -555h-82zM846 516l4 33q28 224 -45.5 351.5t-243.5 127.5
q-193 0 -325 -176l-78 -594q36 -82 107.5 -141.5t180.5 -59.5q170 0 271.5 121t128.5 338z" />
    <glyph glyph-name="ydieresis" unicode="&#xff;" horiz-adv-x="946" 
d="M803 1505l-17 -123h-122l16 123h123zM496 1505l-17 -123h-123l17 123h123zM406 133l471 952h88l-529 -1048l-219 -447h-90l227 451l-254 1044h84z" />
    <glyph glyph-name="Amacron" unicode="&#x100;" horiz-adv-x="1228" 
d="M545 1792l10 82h410l-11 -82h-409zM666 1618h122l271 -1618h-86l-74 432h-653l-183 -432h-94zM719 1536l-440 -1026h608z" />
    <glyph glyph-name="amacron" unicode="&#x101;" horiz-adv-x="1024" 
d="M379 1393l10 82h430l-10 -82h-430zM729 0l2 164q-161 -184 -403 -184q-140 0 -224 80t-67 208l4 33q8 68 35.5 120t62 83t87.5 53.5t96 32.5t104 20l360 58l7 49q21 166 -34.5 238.5t-219.5 72.5q-85 0 -146 -23.5t-95.5 -68t-52.5 -94t-26 -115.5h-82l4 29
q8 51 22.5 96.5t44.5 93.5t72 82t109 56t150 22q110 0 183.5 -28.5t108 -81t45.5 -126t-4 -163.5l-53 -400l-28 -307h-62zM328 57q266 0 405 207l43 328l-360 -57q-133 -21 -204.5 -74t-84.5 -154l-4 -33q-11 -87 43.5 -152t161.5 -65z" />
    <glyph glyph-name="Abreve" unicode="&#x102;" horiz-adv-x="1228" 
d="M741 1700q-127 0 -191.5 68.5t-49.5 177.5h73q-11 -80 32.5 -129.5t139.5 -49.5t153.5 49.5t68.5 129.5h73q-15 -110 -94 -178t-205 -68zM666 1618h122l271 -1618h-86l-74 432h-653l-183 -432h-94zM719 1536l-440 -1026h608z" />
    <glyph glyph-name="abreve" unicode="&#x103;" horiz-adv-x="1024" 
d="M580 1249q-156 0 -224 94t-47 254h74q-16 -129 30.5 -204.5t170.5 -75.5t191 75.5t83 204.5h74q-21 -161 -109 -254.5t-243 -93.5zM729 0l2 164q-161 -184 -403 -184q-140 0 -224 80t-67 208l4 33q8 68 35.5 120t62 83t87.5 53.5t96 32.5t104 20l360 58l7 49
q21 166 -34.5 238.5t-219.5 72.5q-85 0 -146 -23.5t-95.5 -68t-52.5 -94t-26 -115.5h-82l4 29q8 51 22.5 96.5t44.5 93.5t72 82t109 56t150 22q110 0 183.5 -28.5t108 -81t45.5 -126t-4 -163.5l-53 -400l-28 -307h-62zM328 57q266 0 405 207l43 328l-360 -57
q-133 -21 -204.5 -74t-84.5 -154l-4 -33q-11 -87 43.5 -152t161.5 -65z" />
    <glyph glyph-name="Aogonek" unicode="&#x104;" horiz-adv-x="1228" 
d="M666 1618h122l271 -1618q-57 -25 -104 -57.5t-84 -87t-37 -115.5q0 -50 35.5 -76t99.5 -26q71 0 129 28l16 -57q-65 -39 -160 -39q-89 0 -139.5 42t-50.5 120q0 184 205 291l-70 409h-653l-183 -432h-94zM719 1536l-440 -1026h608z" />
    <glyph glyph-name="aogonek" unicode="&#x105;" horiz-adv-x="1024" 
d="M791 0q-41 -18 -78 -41t-72 -55t-55.5 -74.5t-20.5 -89.5q0 -50 35.5 -76t99.5 -26q71 0 129 28l17 -57q-65 -39 -160 -39q-89 0 -139.5 42t-50.5 120q0 197 233 305l2 127q-161 -184 -403 -184q-140 0 -224 80t-67 208l4 33q8 68 35.5 120t62 83t87.5 53.5t96 32.5
t104 20l360 58l7 49q21 166 -34.5 238.5t-219.5 72.5q-85 0 -146 -23.5t-95.5 -68t-52.5 -94t-26 -115.5h-82l4 29q8 51 22.5 96.5t44.5 93.5t72 82t109 56t150 22q110 0 183.5 -28.5t108 -81t45.5 -126t-4 -163.5l-53 -400zM328 57q266 0 405 207l43 328l-360 -57
q-133 -21 -204.5 -74t-84.5 -154l-4 -33q-11 -87 43.5 -152t161.5 -65z" />
    <glyph glyph-name="Cacute" unicode="&#x106;" horiz-adv-x="1243" 
d="M891 1946h86l-158 -226h-86zM221 823l-6 -49q-23 -194 -15 -330.5t53 -222.5t120 -125t186 -39h12q197 0 303 114t136 341h86l-2 -18q-27 -239 -161.5 -376.5t-367.5 -137.5q-271 0 -380 187.5t-56 606.5l6 49q52 414 202.5 604.5t414.5 190.5q251 0 355 -144.5
t62 -410.5l-6 -39h-86q37 276 -38 396t-281 120h-13q-221 0 -349 -171t-175 -546z" />
    <glyph glyph-name="cacute" unicode="&#x107;" horiz-adv-x="1064" 
d="M803 1597h86l-227 -327h-87zM170 569l-4 -32q-28 -221 52.5 -350.5t260.5 -129.5q83 0 146.5 25.5t102 71t60 98.5t29.5 117h82l-4 -29q-8 -51 -23.5 -97t-47.5 -95.5t-76.5 -85.5t-114 -59t-154.5 -23q-116 0 -201 43t-132.5 118t-64 174t-1.5 215l4 33
q31 251 151.5 397t333.5 146q79 0 143.5 -18t105 -47.5t71 -68.5t42 -81.5t17.5 -84.5t-2 -79l-4 -31h-80q13 94 -13 167.5t-97.5 119t-182.5 45.5q-170 0 -271 -121t-128 -338z" />
    <glyph glyph-name="Ccircumflex" unicode="&#x108;" horiz-adv-x="1243" 
d="M637 1720h-96l235 226h62l174 -226h-88l-123 158zM221 823l-6 -49q-23 -194 -15 -330.5t53 -222.5t120 -125t186 -39h12q197 0 303 114t136 341h86l-2 -18q-27 -239 -161.5 -376.5t-367.5 -137.5q-271 0 -380 187.5t-56 606.5l6 49q52 414 202.5 604.5t414.5 190.5
q251 0 355 -144.5t62 -410.5l-6 -39h-86q37 276 -38 396t-281 120h-13q-221 0 -349 -171t-175 -546z" />
    <glyph glyph-name="ccircumflex" unicode="&#x109;" horiz-adv-x="1064" 
d="M418 1270h-96l309 327h61l223 -327h-88l-172 254zM170 569l-4 -32q-28 -221 52.5 -350.5t260.5 -129.5q83 0 146.5 25.5t102 71t60 98.5t29.5 117h82l-4 -29q-8 -51 -23.5 -97t-47.5 -95.5t-76.5 -85.5t-114 -59t-154.5 -23q-116 0 -201 43t-132.5 118t-64 174t-1.5 215
l4 33q31 251 151.5 397t333.5 146q79 0 143.5 -18t105 -47.5t71 -68.5t42 -81.5t17.5 -84.5t-2 -79l-4 -31h-80q13 94 -13 167.5t-97.5 119t-182.5 45.5q-170 0 -271 -121t-128 -338z" />
    <glyph glyph-name="Cdotaccent" unicode="&#x10a;" horiz-adv-x="1243" 
d="M860 1894l-16 -122h-123l16 122h123zM221 823l-6 -49q-23 -194 -15 -330.5t53 -222.5t120 -125t186 -39h12q197 0 303 114t136 341h86l-2 -18q-27 -239 -161.5 -376.5t-367.5 -137.5q-271 0 -380 187.5t-56 606.5l6 49q52 414 202.5 604.5t414.5 190.5q251 0 355 -144.5
t62 -410.5l-6 -39h-86q37 276 -38 396t-281 120h-13q-221 0 -349 -171t-175 -546z" />
    <glyph glyph-name="cdotaccent" unicode="&#x10b;" horiz-adv-x="1064" 
d="M711 1505l-17 -123h-123l17 123h123zM170 569l-4 -32q-28 -221 52.5 -350.5t260.5 -129.5q83 0 146.5 25.5t102 71t60 98.5t29.5 117h82l-4 -29q-8 -51 -23.5 -97t-47.5 -95.5t-76.5 -85.5t-114 -59t-154.5 -23q-116 0 -201 43t-132.5 118t-64 174t-1.5 215l4 33
q31 251 151.5 397t333.5 146q79 0 143.5 -18t105 -47.5t71 -68.5t42 -81.5t17.5 -84.5t-2 -79l-4 -31h-80q13 94 -13 167.5t-97.5 119t-182.5 45.5q-170 0 -271 -121t-128 -338z" />
    <glyph glyph-name="Ccaron" unicode="&#x10c;" horiz-adv-x="1243" 
d="M571 1946h88l121 -158l166 158h96l-235 -226h-62zM221 823l-6 -49q-23 -194 -15 -330.5t53 -222.5t120 -125t186 -39h12q197 0 303 114t136 341h86l-2 -18q-27 -239 -161.5 -376.5t-367.5 -137.5q-271 0 -380 187.5t-56 606.5l6 49q52 414 202.5 604.5t414.5 190.5
q251 0 355 -144.5t62 -410.5l-6 -39h-86q37 276 -38 396t-281 120h-13q-221 0 -349 -171t-175 -546z" />
    <glyph glyph-name="ccaron" unicode="&#x10d;" horiz-adv-x="1064" 
d="M365 1597h88l172 -254l237 254h96l-309 -327h-61zM170 569l-4 -32q-28 -221 52.5 -350.5t260.5 -129.5q83 0 146.5 25.5t102 71t60 98.5t29.5 117h82l-4 -29q-8 -51 -23.5 -97t-47.5 -95.5t-76.5 -85.5t-114 -59t-154.5 -23q-116 0 -201 43t-132.5 118t-64 174t-1.5 215
l4 33q31 251 151.5 397t333.5 146q79 0 143.5 -18t105 -47.5t71 -68.5t42 -81.5t17.5 -84.5t-2 -79l-4 -31h-80q13 94 -13 167.5t-97.5 119t-182.5 45.5q-170 0 -271 -121t-128 -338z" />
    <glyph glyph-name="Dcaron" unicode="&#x10e;" horiz-adv-x="1290" 
d="M504 1946h84l121 -158l165 158h101l-236 -226h-61zM1167 823l-6 -49q-26 -203 -89.5 -353.5t-157.5 -241.5t-208.5 -135t-252.5 -44h-390l209 1597h383q138 0 241.5 -44t174.5 -135t96.5 -241.5t-0.5 -353.5zM156 78h297q122 0 222.5 39t183 120t138 217t78.5 320l6 49
q87 697 -432 697h-305z" />
    <glyph glyph-name="dcaron" unicode="&#x10f;" horiz-adv-x="1075" 
d="M1210 1638h93l-80 -368h-62zM455 -20q-91 0 -161.5 28t-115 78t-72 119t-32 151t5.5 174l4 33q31 251 151.5 397t333.5 146q112 0 190.5 -52t112.5 -114l93 698h82l-177 -1331l-28 -307h-62l-2 141q-50 -73 -136.5 -117t-186.5 -44zM569 1028q-170 0 -271 -121t-128 -338
l-4 -32q-28 -224 45.5 -352t243.5 -128q105 0 187.5 51.5t137.5 124.5l78 594q-16 37 -40 70t-58.5 64t-84 49t-106.5 18z" />
    <glyph glyph-name="Dcroat" unicode="&#x110;" horiz-adv-x="1413" 
d="M1290 823l-6 -49q-26 -203 -89.5 -353.5t-157.5 -241.5t-209 -135t-253 -44h-389l101 776h-246l10 78h246l98 743h383q138 0 241.5 -44t174.5 -135t96.5 -241.5t-0.5 -353.5zM279 78h296q122 0 223 39t183.5 120t138 217t78.5 320l6 49q87 697 -432 697h-305l-88 -666
h471l-10 -78h-471z" />
    <glyph glyph-name="dcroat" unicode="&#x111;" horiz-adv-x="1075" 
d="M455 -20q-91 0 -161.5 28t-115 78t-72 119t-32 151t5.5 174l4 33q31 251 151.5 397t333.5 146q112 0 190.5 -52t112.5 -114l50 383h-285l10 78h285l33 237h82l-33 -237h207l-11 -78h-206l-134 -1016l-28 -307h-62l-2 141q-50 -73 -136.5 -117t-186.5 -44zM569 1028
q-170 0 -271 -121t-128 -338l-4 -32q-28 -224 45.5 -352t243.5 -128q105 0 187.5 51.5t137.5 124.5l78 594q-16 37 -40 70t-58.5 64t-84 49t-106.5 18z" />
    <glyph glyph-name="Emacron" unicode="&#x112;" horiz-adv-x="1105" 
d="M272 1597h861l-11 -77h-778l-88 -666h676l-10 -78h-676l-90 -698h778l-10 -78h-861zM545 1792l10 82h410l-11 -82h-409z" />
    <glyph glyph-name="emacron" unicode="&#x113;" horiz-adv-x="1105" 
d="M420 1393l10 82h430l-10 -82h-430zM958 504h-794q-24 -210 56.5 -328.5t279.5 -118.5q89 0 157.5 26t108.5 70.5t61.5 92.5t28.5 102h82l-2 -14q-10 -67 -40.5 -127.5t-81.5 -112.5t-132.5 -83t-181.5 -31q-105 0 -185 28.5t-128.5 79t-78 119.5t-33.5 150.5t5 172.5
l4 33q20 162 81.5 282t170.5 190.5t254 70.5q94 0 166.5 -28t116 -77.5t70.5 -117t30 -147t-6 -167.5zM590 1028q-170 0 -282 -124t-136 -322h713q31 210 -44 328t-251 118z" />
    <glyph glyph-name="Ebreve" unicode="&#x114;" horiz-adv-x="1105" 
d="M272 1597h861l-11 -77h-778l-88 -666h676l-10 -78h-676l-90 -698h778l-10 -78h-861zM741 1700q-127 0 -191.5 68.5t-49.5 177.5h73q-11 -80 32.5 -129.5t139.5 -49.5t153.5 49.5t68.5 129.5h73q-15 -110 -94 -178t-205 -68z" />
    <glyph glyph-name="ebreve" unicode="&#x115;" horiz-adv-x="1105" 
d="M621 1249q-156 0 -224 94t-47 254h74q-16 -129 30.5 -204.5t170.5 -75.5t191 75.5t83 204.5h74q-21 -161 -109 -254.5t-243 -93.5zM958 504h-794q-24 -210 56.5 -328.5t279.5 -118.5q89 0 157.5 26t108.5 70.5t61.5 92.5t28.5 102h82l-2 -14q-10 -67 -40.5 -127.5
t-81.5 -112.5t-132.5 -83t-181.5 -31q-105 0 -185 28.5t-128.5 79t-78 119.5t-33.5 150.5t5 172.5l4 33q20 162 81.5 282t170.5 190.5t254 70.5q94 0 166.5 -28t116 -77.5t70.5 -117t30 -147t-6 -167.5zM590 1028q-170 0 -282 -124t-136 -322h713q31 210 -44 328t-251 118z
" />
    <glyph glyph-name="Edotaccent" unicode="&#x116;" horiz-adv-x="1105" 
d="M272 1597h861l-11 -77h-778l-88 -666h676l-10 -78h-676l-90 -698h778l-10 -78h-861zM823 1894l-16 -122h-123l16 122h123z" />
    <glyph glyph-name="edotaccent" unicode="&#x117;" horiz-adv-x="1105" 
d="M711 1505l-17 -123h-123l17 123h123zM958 504h-794q-24 -210 56.5 -328.5t279.5 -118.5q89 0 157.5 26t108.5 70.5t61.5 92.5t28.5 102h82l-2 -14q-10 -67 -40.5 -127.5t-81.5 -112.5t-132.5 -83t-181.5 -31q-105 0 -185 28.5t-128.5 79t-78 119.5t-33.5 150.5t5 172.5
l4 33q20 162 81.5 282t170.5 190.5t254 70.5q94 0 166.5 -28t116 -77.5t70.5 -117t30 -147t-6 -167.5zM590 1028q-170 0 -282 -124t-136 -322h713q31 210 -44 328t-251 118z" />
    <glyph glyph-name="Eogonek" unicode="&#x118;" horiz-adv-x="1105" 
d="M272 1597h861l-11 -77h-778l-88 -666h676l-10 -78h-676l-90 -698h778l-10 -78q-41 -18 -78 -41t-72 -55t-55.5 -74.5t-20.5 -89.5q0 -50 36 -76t100 -26q71 0 129 28l16 -57q-65 -39 -160 -39q-89 0 -139.5 42t-50.5 120q0 163 166 268h-732z" />
    <glyph glyph-name="eogonek" unicode="&#x119;" horiz-adv-x="1105" 
d="M958 504h-794q-24 -210 56.5 -328.5t279.5 -118.5q89 0 157.5 26t108.5 70.5t61.5 92.5t28.5 102h82l-2 -14q-16 -112 -89.5 -205t-197.5 -129q-57 -25 -104 -57.5t-84 -87t-37 -115.5q0 -50 35.5 -76t99.5 -26q71 0 129 28l17 -57q-65 -39 -160 -39q-89 0 -140 42
t-51 120q0 147 138 248q-103 1 -181.5 30t-126 79.5t-76.5 119.5t-33 150t5 171l4 33q20 162 81.5 282t170.5 190.5t254 70.5q94 0 166.5 -28t116 -77.5t70.5 -117t30 -147t-6 -167.5zM590 1028q-170 0 -282 -124t-136 -322h713q31 210 -44 328t-251 118z" />
    <glyph glyph-name="Ecaron" unicode="&#x11a;" horiz-adv-x="1105" 
d="M272 1597h861l-11 -77h-778l-88 -666h676l-10 -78h-676l-90 -698h778l-10 -78h-861zM535 1946h92l121 -158l165 158h93l-236 -226h-61z" />
    <glyph glyph-name="ecaron" unicode="&#x11b;" horiz-adv-x="1105" 
d="M365 1597h88l172 -254l237 254h96l-309 -327h-61zM958 504h-794q-24 -210 56.5 -328.5t279.5 -118.5q89 0 157.5 26t108.5 70.5t61.5 92.5t28.5 102h82l-2 -14q-10 -67 -40.5 -127.5t-81.5 -112.5t-132.5 -83t-181.5 -31q-105 0 -185 28.5t-128.5 79t-78 119.5
t-33.5 150.5t5 172.5l4 33q20 162 81.5 282t170.5 190.5t254 70.5q94 0 166.5 -28t116 -77.5t70.5 -117t30 -147t-6 -167.5zM590 1028q-170 0 -282 -124t-136 -322h713q31 210 -44 328t-251 118z" />
    <glyph glyph-name="Gcircumflex" unicode="&#x11c;" horiz-adv-x="1306" 
d="M649 1720h-96l235 226h62l174 -226h-88l-123 158zM584 -20q-107 0 -189.5 28t-144 87.5t-95 152.5t-42.5 224t14 302l6 49q52 412 207 603.5t420 191.5q251 0 360.5 -145.5t67.5 -409.5l-6 -39h-86q36 274 -43 395t-287 121h-12q-223 0 -356 -172.5t-179 -544.5l-6 -49
q-22 -194 -11.5 -330.5t60 -222.5t127.5 -125t189 -39h12q134 0 240 42.5t165 103.5l62 479h-297l10 78h379l-78 -598q-182 -182 -487 -182z" />
    <glyph glyph-name="gcircumflex" unicode="&#x11d;" horiz-adv-x="1075" 
d="M397 1270h-96l309 327h62l223 -327h-88l-172 254zM748 -10l26 215q-48 -63 -130 -103.5t-179 -40.5q-93 0 -164.5 26.5t-115.5 74t-72 111.5t-31.5 139.5t4.5 158.5l4 33q29 234 147.5 368t331.5 134q115 0 200 -58.5t114 -127.5l39 165h61l-49 -307l-107 -798
q-53 -410 -434 -410q-108 0 -186 30.5t-119.5 85t-56 125.5t-2.5 158l4 31h76q-48 -352 284 -352q92 0 157 22.5t105 68.5t61 106t32 145zM791 315l67 512q-16 37 -40 70t-58.5 64t-84 49t-106.5 18q-171 0 -269.5 -107t-123.5 -311l-4 -32q-27 -208 46 -323.5t247 -115.5
q194 0 326 176z" />
    <glyph glyph-name="Gbreve" unicode="&#x11e;" horiz-adv-x="1306" 
d="M791 1700q-127 0 -192 68.5t-50 177.5h74q-11 -80 32.5 -129.5t139.5 -49.5t153 49.5t68 129.5h74q-15 -110 -94 -178t-205 -68zM584 -20q-107 0 -189.5 28t-144 87.5t-95 152.5t-42.5 224t14 302l6 49q52 412 207 603.5t420 191.5q251 0 360.5 -145.5t67.5 -409.5
l-6 -39h-86q36 274 -43 395t-287 121h-12q-223 0 -356 -172.5t-179 -544.5l-6 -49q-22 -194 -11.5 -330.5t60 -222.5t127.5 -125t189 -39h12q134 0 240 42.5t165 103.5l62 479h-297l10 78h379l-78 -598q-182 -182 -487 -182z" />
    <glyph glyph-name="gbreve" unicode="&#x11f;" horiz-adv-x="1075" 
d="M600 1249q-156 0 -223.5 94t-46.5 254h73q-16 -129 30.5 -204.5t170.5 -75.5t191.5 76t83.5 204h73q-21 -161 -109 -254.5t-243 -93.5zM748 -10l26 215q-48 -63 -130 -103.5t-179 -40.5q-93 0 -164.5 26.5t-115.5 74t-72 111.5t-31.5 139.5t4.5 158.5l4 33
q29 234 147.5 368t331.5 134q115 0 200 -58.5t114 -127.5l39 165h61l-49 -307l-107 -798q-53 -410 -434 -410q-108 0 -186 30.5t-119.5 85t-56 125.5t-2.5 158l4 31h76q-48 -352 284 -352q92 0 157 22.5t105 68.5t61 106t32 145zM791 315l67 512q-16 37 -40 70t-58.5 64
t-84 49t-106.5 18q-171 0 -269.5 -107t-123.5 -311l-4 -32q-27 -208 46 -323.5t247 -115.5q194 0 326 176z" />
    <glyph glyph-name="Gdotaccent" unicode="&#x120;" horiz-adv-x="1306" 
d="M872 1894l-16 -122h-123l17 122h122zM584 -20q-107 0 -189.5 28t-144 87.5t-95 152.5t-42.5 224t14 302l6 49q52 412 207 603.5t420 191.5q251 0 360.5 -145.5t67.5 -409.5l-6 -39h-86q36 274 -43 395t-287 121h-12q-223 0 -356 -172.5t-179 -544.5l-6 -49
q-22 -194 -11.5 -330.5t60 -222.5t127.5 -125t189 -39h12q134 0 240 42.5t165 103.5l62 479h-297l10 78h379l-78 -598q-182 -182 -487 -182z" />
    <glyph glyph-name="gdotaccent" unicode="&#x121;" horiz-adv-x="1075" 
d="M690 1505l-16 -123h-123l16 123h123zM748 -10l26 215q-48 -63 -130 -103.5t-179 -40.5q-93 0 -164.5 26.5t-115.5 74t-72 111.5t-31.5 139.5t4.5 158.5l4 33q29 234 147.5 368t331.5 134q115 0 200 -58.5t114 -127.5l39 165h61l-49 -307l-107 -798q-53 -410 -434 -410
q-108 0 -186 30.5t-119.5 85t-56 125.5t-2.5 158l4 31h76q-48 -352 284 -352q92 0 157 22.5t105 68.5t61 106t32 145zM791 315l67 512q-16 37 -40 70t-58.5 64t-84 49t-106.5 18q-171 0 -269.5 -107t-123.5 -311l-4 -32q-27 -208 46 -323.5t247 -115.5q194 0 326 176z" />
    <glyph glyph-name="Gcommaaccent" unicode="&#x122;" horiz-adv-x="1306" 
d="M629 -123l-15 -98q-12 -95 -69 -152t-142 -57l9 61q52 0 89 30.5t50 92.5h-62l17 123h123zM584 -20q-107 0 -189.5 28t-144 87.5t-95 152.5t-42.5 224t14 302l6 49q52 412 207 603.5t420 191.5q251 0 360.5 -145.5t67.5 -409.5l-6 -39h-86q36 274 -43 395t-287 121h-12
q-223 0 -356 -172.5t-179 -544.5l-6 -49q-22 -194 -11.5 -330.5t60 -222.5t127.5 -125t189 -39h12q134 0 240 42.5t165 103.5l62 479h-297l10 78h379l-78 -598q-182 -182 -487 -182z" />
    <glyph glyph-name="gcommaaccent" unicode="&#x123;" horiz-adv-x="1075" 
d="M537 1270l12 98q34 250 219 250l-8 -62q-62 0 -97 -36t-49 -127h62l-17 -123h-122zM748 -10l26 215q-48 -63 -130 -103.5t-179 -40.5q-93 0 -164.5 26.5t-115.5 74t-72 111.5t-31.5 139.5t4.5 158.5l4 33q29 234 147.5 368t331.5 134q115 0 200 -58.5t114 -127.5l39 165
h61l-49 -307l-107 -798q-53 -410 -434 -410q-108 0 -186 30.5t-119.5 85t-56 125.5t-2.5 158l4 31h76q-48 -352 284 -352q92 0 157 22.5t105 68.5t61 106t32 145zM791 315l67 512q-16 37 -40 70t-58.5 64t-84 49t-106.5 18q-171 0 -269.5 -107t-123.5 -311l-4 -32
q-27 -208 46 -323.5t247 -115.5q194 0 326 176z" />
    <glyph glyph-name="Hcircumflex" unicode="&#x124;" horiz-adv-x="1290" 
d="M1153 1597h82l-209 -1597h-82l100 776h-798l-101 -776h-82l209 1597h82l-98 -743h799zM631 1720h-96l235 226h61l175 -226h-88l-123 158z" />
    <glyph glyph-name="hcircumflex" unicode="&#x125;" horiz-adv-x="1044" 
d="M170 1720h-96l235 226h62l174 -226h-88l-123 158zM340 1638l-92 -696q50 71 142.5 117.5t203.5 46.5q172 0 254.5 -90t62.5 -248l-100 -768h-82l98 758q35 270 -243 270q-121 0 -209 -56t-142 -132l-108 -840h-82l215 1638h82z" />
    <glyph glyph-name="Hbar" unicode="&#x126;" horiz-adv-x="1290" 
d="M1153 1597h82l-209 -1597h-82l100 776h-798l-101 -776h-82l209 1597h82l-43 -329h799zM256 854h799l45 336h-799z" />
    <glyph glyph-name="hbar" unicode="&#x127;" horiz-adv-x="1044" 
d="M340 1638l-33 -237h289l-10 -78h-289l-49 -381q50 71 142.5 117.5t203.5 46.5q172 0 254.5 -90t62.5 -248l-100 -768h-82l98 758q35 270 -243 270q-121 0 -209 -56t-142 -132l-108 -840h-82l174 1323h-205l11 78h204l31 237h82z" />
    <glyph glyph-name="Itilde" unicode="&#x128;" horiz-adv-x="430" 
d="M365 1597l-209 -1597h-82l209 1597h82zM578 1909h73q-10 -85 -55.5 -128.5t-114.5 -43.5q-40 0 -78.5 19.5t-63.5 43t-56 43t-58 19.5q-79 0 -94 -105h-74q12 85 58 128.5t114 43.5q40 0 78 -19.5t63 -43t55.5 -43t57.5 -19.5q83 0 95 105z" />
    <glyph glyph-name="itilde" unicode="&#x129;" horiz-adv-x="409" 
d="M63 0l142 1085h82l-142 -1085h-82zM518 1509h72q-12 -86 -56 -129t-112 -43q-40 0 -79.5 19t-66 42.5t-59.5 42.5t-61 19q-75 0 -88 -102h-72q10 85 54 128.5t112 43.5q40 0 79.5 -19t66 -42.5t59.5 -42.5t61 -19q77 0 90 102z" />
    <glyph glyph-name="Imacron" unicode="&#x12a;" horiz-adv-x="430" 
d="M365 1597l-209 -1597h-82l209 1597h82zM145 1792l11 82h409l-10 -82h-410z" />
    <glyph glyph-name="imacron" unicode="&#x12b;" horiz-adv-x="409" 
d="M63 0l142 1085h82l-142 -1085h-82zM72 1393l10 82h430l-10 -82h-430z" />
    <glyph glyph-name="Ibreve" unicode="&#x12c;" horiz-adv-x="430" 
d="M365 1597l-209 -1597h-82l209 1597h82zM342 1700q-127 0 -192 68.5t-50 177.5h74q-11 -80 32.5 -129.5t139.5 -49.5t153 49.5t68 129.5h74q-15 -110 -94 -178t-205 -68z" />
    <glyph glyph-name="ibreve" unicode="&#x12d;" horiz-adv-x="409" 
d="M63 0l142 1085h82l-142 -1085h-82zM272 1249q-156 0 -223.5 94t-46.5 254h74q-16 -129 30 -204.5t170 -75.5t191.5 76t83.5 204h74q-21 -161 -109.5 -254.5t-243.5 -93.5z" />
    <glyph glyph-name="Iogonek" unicode="&#x12e;" horiz-adv-x="430" 
d="M365 1597l-209 -1597q-41 -18 -78 -41t-72 -55t-55.5 -74.5t-20.5 -89.5q0 -50 36 -76t100 -26q71 0 129 28l16 -57q-65 -39 -160 -39q-89 0 -139.5 42t-50.5 120q0 188 217 297l205 1568h82z" />
    <glyph glyph-name="iogonek" unicode="&#x12f;" horiz-adv-x="409" 
d="M362 1505l-16 -123h-123l17 123h122zM145 0q-57 -25 -104 -57.5t-84 -87t-37 -115.5q0 -50 35.5 -76t99.5 -26q71 0 129 28l17 -57q-65 -39 -160 -39q-89 0 -140 42t-51 120q0 187 218 297l137 1056h82z" />
    <glyph glyph-name="Idotaccent" unicode="&#x130;" horiz-adv-x="430" 
d="M365 1597l-209 -1597h-82l209 1597h82zM424 1894l-16 -122h-123l16 122h123z" />
    <glyph glyph-name="dotlessi" unicode="&#x131;" horiz-adv-x="409" 
d="M63 0l142 1085h82l-142 -1085h-82z" />
    <glyph glyph-name="IJ" unicode="&#x132;" horiz-adv-x="942" 
d="M641 272l174 1325h82l-174 -1335q-19 -144 -98.5 -213t-200.5 -69q-55 0 -94 8t-51 16l10 76q17 -8 56.5 -15.5t78.5 -7.5q94 0 148.5 50t68.5 165zM365 1597l-209 -1597h-82l209 1597h82z" />
    <glyph glyph-name="ij" unicode="&#x133;" horiz-adv-x="716" 
d="M63 0l142 1085h82l-142 -1085h-82zM362 1505l-16 -123h-123l17 123h122zM670 1505l-17 -123h-123l17 123h123zM352 -137l160 1222h82l-164 -1247q-37 -268 -321 -268q-89 0 -140 22l11 74q14 -6 54 -12t75 -6q109 0 168 47.5t75 167.5z" />
    <glyph glyph-name="Jcircumflex" unicode="&#x134;" horiz-adv-x="983" 
d="M856 1597h82l-145 -1105q-32 -251 -137 -381.5t-308 -130.5q-208 0 -283 132.5t-38 385.5l2 14h77q-34 -241 24 -348t220 -107q161 0 246.5 108t116.5 347zM774 1720h-96l235 226h62l174 -226h-88l-123 158z" />
    <glyph glyph-name="jcircumflex" unicode="&#x135;" horiz-adv-x="409" 
d="M70 1270h-97l310 327h61l223 -327h-88l-172 254zM45 -137l160 1222h82l-164 -1247q-37 -268 -322 -268q-88 0 -139 22l10 74q14 -6 54 -12t75 -6q109 0 168.5 47.5t75.5 167.5z" />
    <glyph glyph-name="Kcommaaccent" unicode="&#x136;" horiz-adv-x="1105" 
d="M487 -123l-14 -98q-12 -95 -69 -152t-142 -57l8 61q52 0 89.5 30.5t50.5 92.5h-62l17 123h122zM354 1597l-125 -952l801 952h103l-578 -686l369 -911h-90l-336 844l-287 -340l-66 -504h-82l209 1597h82z" />
    <glyph glyph-name="kcommaaccent" unicode="&#x137;" horiz-adv-x="983" 
d="M446 -123l-14 -98q-12 -95 -69 -152t-142 -57l8 61q52 0 89.5 30.5t50.5 92.5h-62l17 123h122zM43 0l215 1638h82l-158 -1192l670 639h111l-433 -409l291 -676h-88l-264 618l-301 -286l-43 -332h-82z" />
    <glyph glyph-name="kgreenlandic" unicode="&#x138;" horiz-adv-x="983" 
d="M43 0l141 1085h82l-84 -639l670 639h111l-433 -409l291 -676h-88l-264 618l-301 -286l-43 -332h-82z" />
    <glyph glyph-name="Lacute" unicode="&#x139;" horiz-adv-x="983" 
d="M852 0h-789l209 1597h82l-198 -1519h706zM444 1946h86l-157 -226h-86z" />
    <glyph glyph-name="lacute" unicode="&#x13a;" horiz-adv-x="409" 
d="M63 0l216 1638h81l-215 -1638h-82zM444 1946h86l-157 -226h-86z" />
    <glyph glyph-name="Lcommaaccent" unicode="&#x13b;" horiz-adv-x="983" 
d="M852 0h-789l209 1597h82l-198 -1519h706zM508 -123l-14 -98q-12 -95 -69 -152t-142 -57l8 61q52 0 89 30.5t50 92.5h-61l16 123h123z" />
    <glyph glyph-name="lcommaaccent" unicode="&#x13c;" horiz-adv-x="409" 
d="M63 0l216 1638h81l-215 -1638h-82zM150 -123l-15 -98q-12 -95 -69 -152t-142 -57l8 61q52 0 89.5 30.5t50.5 92.5h-62l17 123h123z" />
    <glyph glyph-name="Lcaron" unicode="&#x13d;" horiz-adv-x="983" 
d="M852 0h-789l209 1597h82l-198 -1519h706zM684 1638h92l-80 -368h-61z" />
    <glyph glyph-name="lcaron" unicode="&#x13e;" horiz-adv-x="409" 
d="M63 0l216 1638h81l-215 -1638h-82zM524 1638h92l-79 -368h-62z" />
    <glyph glyph-name="Ldot" unicode="&#x13f;" horiz-adv-x="983" 
d="M852 0h-789l209 1597h82l-198 -1519h706zM756 877l-17 -123h-123l17 123h123z" />
    <glyph glyph-name="ldot" unicode="&#x140;" 
d="M63 0l216 1638h81l-215 -1638h-82zM575 778l-16 -123h-123l17 123h122z" />
    <glyph glyph-name="Lslash" unicode="&#x141;" horiz-adv-x="1105" 
d="M18 600l13 86l262 129l102 782h82l-96 -739l504 248l-13 -86l-503 -248l-90 -694h706l-10 -78h-789l95 729z" />
    <glyph glyph-name="lslash" unicode="&#x142;" horiz-adv-x="634" 
d="M47 588l14 98l215 160l105 792h82l-96 -725l262 193l-15 -98l-260 -193l-106 -815h-82l98 748z" />
    <glyph glyph-name="Nacute" unicode="&#x143;" horiz-adv-x="1331" 
d="M905 1946h86l-157 -226h-86zM1276 1597l-209 -1597h-90l-647 1475l-45 -390l-142 -1085h-80l209 1597h90l646 -1474l45 389l143 1085h80z" />
    <glyph glyph-name="nacute" unicode="&#x144;" horiz-adv-x="1044" 
d="M778 1597h86l-227 -327h-86zM811 0h-82l98 758q35 270 -243 270q-121 0 -209 -56t-142 -132l-108 -840h-82l102 778l29 307h62l-3 -159q58 81 153 130.5t208 49.5q172 0 254.5 -90t62.5 -248z" />
    <glyph glyph-name="Ncommaaccent" unicode="&#x145;" horiz-adv-x="1331" 
d="M610 -123l-14 -98q-12 -95 -69 -152t-142 -57l8 61q52 0 89 30.5t50 92.5h-61l16 123h123zM1276 1597l-209 -1597h-90l-647 1475l-45 -390l-142 -1085h-80l209 1597h90l646 -1474l45 389l143 1085h80z" />
    <glyph glyph-name="ncommaaccent" unicode="&#x146;" horiz-adv-x="1044" 
d="M473 -123l-14 -98q-12 -95 -69 -152t-142 -57l8 61q52 0 89 30.5t50 92.5h-61l16 123h123zM811 0h-82l98 758q35 270 -243 270q-121 0 -209 -56t-142 -132l-108 -840h-82l102 778l29 307h62l-3 -159q58 81 153 130.5t208 49.5q172 0 254.5 -90t62.5 -248z" />
    <glyph glyph-name="Ncaron" unicode="&#x147;" horiz-adv-x="1331" 
d="M586 1946h92l121 -158l166 158h92l-236 -226h-61zM1276 1597l-209 -1597h-90l-647 1475l-45 -390l-142 -1085h-80l209 1597h90l646 -1474l45 389l143 1085h80z" />
    <glyph glyph-name="ncaron" unicode="&#x148;" horiz-adv-x="1044" 
d="M340 1597h88l172 -254l238 254h96l-309 -327h-62zM811 0h-82l98 758q35 270 -243 270q-121 0 -209 -56t-142 -132l-108 -840h-82l102 778l29 307h62l-3 -159q58 81 153 130.5t208 49.5q172 0 254.5 -90t62.5 -248z" />
    <glyph glyph-name="Eng" unicode="&#x14a;" horiz-adv-x="1331" 
d="M969 -123l14 111l-653 1487l-45 -390l-142 -1085h-80l209 1597h90l646 -1474l45 389l143 1085h80l-227 -1730q-40 -297 -326 -297q-92 0 -139 20l10 76q40 -18 123 -18q109 0 171.5 49.5t80.5 179.5z" />
    <glyph glyph-name="eng" unicode="&#x14b;" horiz-adv-x="1044" 
d="M911 768l-123 -930q-37 -268 -321 -268q-88 0 -139 22l10 74q14 -6 54 -12t75 -6q109 0 168.5 47.5t75.5 167.5l116 895q35 270 -243 270q-121 0 -209 -56t-142 -132l-108 -840h-82l102 778l29 307h62l-3 -159q58 81 153 130.5t208 49.5q172 0 254.5 -90t62.5 -248z" />
    <glyph glyph-name="Omacron" unicode="&#x14c;" horiz-adv-x="1310" 
d="M586 1792l10 82h410l-11 -82h-409zM1188 823l-6 -49q-52 -413 -202.5 -603.5t-414.5 -190.5q-271 0 -380 187.5t-56 606.5l6 49q52 414 202.5 604.5t414.5 190.5q180 0 286.5 -79t146 -256.5t3.5 -459.5zM1096 774l6 49q23 194 15 330.5t-53 222.5t-120 125t-186 39h-13
q-221 0 -349 -171t-175 -546l-6 -49q-23 -194 -15 -330.5t53 -222.5t120 -125t186 -39h12q221 0 349.5 171.5t175.5 545.5z" />
    <glyph glyph-name="omacron" unicode="&#x14d;" horiz-adv-x="1105" 
d="M420 1393l10 82h430l-10 -82h-430zM469 57q171 0 277 122t133 337l4 33q29 223 -47.5 351t-255.5 128q-171 0 -277 -122t-133 -337l-4 -32q-29 -223 47.5 -351.5t255.5 -128.5zM469 -20q-93 0 -166 28t-119 78t-75 119t-34 151t5 174l4 33q15 121 52.5 219t98 171
t148.5 113t197 40q93 0 166 -28t119 -78t75 -119t34 -151.5t-5 -174.5l-4 -33q-15 -121 -52.5 -219t-98 -170.5t-148.5 -112.5t-197 -40z" />
    <glyph glyph-name="Obreve" unicode="&#x14e;" horiz-adv-x="1310" 
d="M782 1700q-127 0 -191.5 68.5t-49.5 177.5h73q-11 -80 32.5 -129.5t139.5 -49.5t153.5 49.5t68.5 129.5h73q-15 -110 -94 -178t-205 -68zM1188 823l-6 -49q-52 -413 -202.5 -603.5t-414.5 -190.5q-271 0 -380 187.5t-56 606.5l6 49q52 414 202.5 604.5t414.5 190.5
q180 0 286.5 -79t146 -256.5t3.5 -459.5zM1096 774l6 49q23 194 15 330.5t-53 222.5t-120 125t-186 39h-13q-221 0 -349 -171t-175 -546l-6 -49q-23 -194 -15 -330.5t53 -222.5t120 -125t186 -39h12q221 0 349.5 171.5t175.5 545.5z" />
    <glyph glyph-name="obreve" unicode="&#x14f;" horiz-adv-x="1105" 
d="M621 1249q-156 0 -224 94t-47 254h74q-16 -129 30.5 -204.5t170.5 -75.5t191 75.5t83 204.5h74q-21 -161 -109 -254.5t-243 -93.5zM469 57q171 0 277 122t133 337l4 33q29 223 -47.5 351t-255.5 128q-171 0 -277 -122t-133 -337l-4 -32q-29 -223 47.5 -351.5
t255.5 -128.5zM469 -20q-93 0 -166 28t-119 78t-75 119t-34 151t5 174l4 33q15 121 52.5 219t98 171t148.5 113t197 40q93 0 166 -28t119 -78t75 -119t34 -151.5t-5 -174.5l-4 -33q-15 -121 -52.5 -219t-98 -170.5t-148.5 -112.5t-197 -40z" />
    <glyph glyph-name="Ohungarumlaut" unicode="&#x150;" horiz-adv-x="1310" 
d="M782 1946h86l-157 -226h-86zM1008 1946h86l-158 -226h-86zM1188 823l-6 -49q-52 -413 -202.5 -603.5t-414.5 -190.5q-271 0 -380 187.5t-56 606.5l6 49q52 414 202.5 604.5t414.5 190.5q180 0 286.5 -79t146 -256.5t3.5 -459.5zM1096 774l6 49q23 194 15 330.5t-53 222.5
t-120 125t-186 39h-13q-221 0 -349 -171t-175 -546l-6 -49q-23 -194 -15 -330.5t53 -222.5t120 -125t186 -39h12q221 0 349.5 171.5t175.5 545.5z" />
    <glyph glyph-name="ohungarumlaut" unicode="&#x151;" horiz-adv-x="1105" 
d="M915 1597h86l-227 -327h-86zM690 1597h86l-227 -327h-86zM469 57q171 0 277 122t133 337l4 33q29 223 -47.5 351t-255.5 128q-171 0 -277 -122t-133 -337l-4 -32q-29 -223 47.5 -351.5t255.5 -128.5zM469 -20q-93 0 -166 28t-119 78t-75 119t-34 151t5 174l4 33
q15 121 52.5 219t98 171t148.5 113t197 40q93 0 166 -28t119 -78t75 -119t34 -151.5t-5 -174.5l-4 -33q-15 -121 -52.5 -219t-98 -170.5t-148.5 -112.5t-197 -40z" />
    <glyph glyph-name="OE" unicode="&#x152;" horiz-adv-x="1925" 
d="M129 774l6 49q26 203 89.5 353.5t157.5 241.5t209 135t253 44h1108l-10 -77h-779l-88 -666h676l-10 -78h-676l-90 -698h778l-10 -78h-1102q-138 0 -241.5 44t-174.5 135t-96.5 241.5t0.5 353.5zM1081 1520h-237q-122 0 -223 -39t-183.5 -120.5t-138 -217.5t-78.5 -320
l-6 -49q-87 -696 432 -696h246z" />
    <glyph glyph-name="oe" unicode="&#x153;" horiz-adv-x="1900" 
d="M1751 504h-790q-24 -210 55 -328.5t278 -118.5q89 0 157.5 26t108 70.5t61 92.5t28.5 102h82l-2 -14q-10 -67 -40 -127.5t-81.5 -112.5t-132.5 -83t-181 -31q-346 0 -403 305q-56 -145 -162 -225t-262 -80q-93 0 -166 28t-118.5 78t-74.5 119t-33.5 151t5.5 174l4 33
q31 249 155.5 396t338.5 147q162 0 254 -82t118 -227q59 147 167.5 228t266.5 81q94 0 166 -28t115.5 -77.5t70 -117t29.5 -147t-6 -167.5zM467 57q171 0 275.5 121.5t131.5 337.5l5 33q29 223 -47 351t-254 128q-171 0 -276 -121.5t-132 -337.5l-4 -32q-29 -223 47 -351.5
t254 -128.5zM1384 1028q-169 0 -280 -124t-135 -322h708q31 211 -43 328.5t-250 117.5z" />
    <glyph glyph-name="Racute" unicode="&#x154;" horiz-adv-x="1167" 
d="M233 676l-88 -676h-82l209 1597h404q69 0 131.5 -13t121.5 -45t99.5 -81.5t59 -129t6.5 -179.5l-7 -49q-22 -172 -112 -269.5t-223 -132.5l192 -698h-90l-182 682q-49 -6 -97 -6h-342zM244 754h342q52 0 98.5 7t102 29.5t97 59t74 101t43.5 149.5l7 49q11 89 -6 157
t-51 107.5t-84 64.5t-97.5 33.5t-99.5 8.5h-326zM782 1946h86l-157 -226h-86z" />
    <glyph glyph-name="racute" unicode="&#x155;" horiz-adv-x="645" 
d="M594 1597h86l-227 -327h-86zM567 1106l29 -2l-8 -76h-21q-118 0 -200.5 -55t-133.5 -133l-108 -840h-82l102 778l29 307h62v-149q51 76 136 123t195 47z" />
    <glyph glyph-name="Rcommaaccent" unicode="&#x156;" horiz-adv-x="1167" 
d="M233 676l-88 -676h-82l209 1597h404q69 0 131.5 -13t121.5 -45t99.5 -81.5t59 -129t6.5 -179.5l-7 -49q-22 -172 -112 -269.5t-223 -132.5l192 -698h-90l-182 682q-49 -6 -97 -6h-342zM244 754h342q52 0 98.5 7t102 29.5t97 59t74 101t43.5 149.5l7 49q11 89 -6 157
t-51 107.5t-84 64.5t-97.5 33.5t-99.5 8.5h-326zM508 -123l-14 -98q-12 -95 -69 -152t-142 -57l8 61q52 0 89 30.5t50 92.5h-61l16 123h123z" />
    <glyph glyph-name="rcommaaccent" unicode="&#x157;" horiz-adv-x="645" 
d="M133 -123l-14 -98q-12 -95 -69 -152t-142 -57l8 61q52 0 89 30.5t50 92.5h-61l16 123h123zM567 1106l29 -2l-8 -76h-21q-118 0 -200.5 -55t-133.5 -133l-108 -840h-82l102 778l29 307h62v-149q51 76 136 123t195 47z" />
    <glyph glyph-name="Rcaron" unicode="&#x158;" horiz-adv-x="1167" 
d="M233 676l-88 -676h-82l209 1597h404q69 0 131.5 -13t121.5 -45t99.5 -81.5t59 -129t6.5 -179.5l-7 -49q-22 -172 -112 -269.5t-223 -132.5l192 -698h-90l-182 682q-49 -6 -97 -6h-342zM244 754h342q52 0 98.5 7t102 29.5t97 59t74 101t43.5 149.5l7 49q11 89 -6 157
t-51 107.5t-84 64.5t-97.5 33.5t-99.5 8.5h-326zM463 1946h88l121 -158l166 158h96l-236 -226h-61z" />
    <glyph glyph-name="rcaron" unicode="&#x159;" horiz-adv-x="645" 
d="M156 1597h88l172 -254l237 254h97l-310 -327h-61zM567 1106l29 -2l-8 -76h-21q-118 0 -200.5 -55t-133.5 -133l-108 -840h-82l102 778l29 307h62v-149q51 76 136 123t195 47z" />
    <glyph glyph-name="Sacute" unicode="&#x15a;" horiz-adv-x="1208" 
d="M844 1946h86l-158 -226h-86zM590 791q-455 88 -412 415l4 33q16 128 88 215t177 125.5t239 38.5q257 0 369.5 -136t74.5 -378l-6 -39h-82q36 246 -53 360.5t-293 114.5h-20q-168 0 -279 -76.5t-129 -218.5l-4 -33q-19 -145 65.5 -226.5t309.5 -125.5
q247 -49 345.5 -153.5t76.5 -278.5l-4 -33q-26 -202 -171 -308.5t-374 -106.5q-245 0 -365.5 131t-83.5 362l7 39h82q-21 -123 -5.5 -209.5t67.5 -141t124 -79.5t164 -25h20q187 0 307.5 84t141.5 248l4 33q20 159 -72 243t-313 126z" />
    <glyph glyph-name="sacute" unicode="&#x15b;" horiz-adv-x="1064" 
d="M782 1597h86l-227 -327h-86zM451 57q296 0 327 219q18 120 -46.5 169.5t-250.5 78.5q-191 29 -268 103.5t-63 187.5l2 16q15 126 120.5 200.5t280.5 74.5q216 0 301.5 -94t63.5 -258l-3 -17h-79q20 142 -43.5 216.5t-239.5 74.5q-289 0 -315 -205q-13 -101 51.5 -154.5
t253.5 -78.5q184 -25 262 -98.5t61 -206.5l-2 -17q-15 -130 -125.5 -209t-287.5 -79q-93 0 -163 18t-112.5 48.5t-67.5 74t-31.5 90t-0.5 100.5l2 17h80q-19 -127 48 -199t245 -72z" />
    <glyph glyph-name="Scircumflex" unicode="&#x15c;" horiz-adv-x="1208" 
d="M590 1720h-96l235 226h62l174 -226h-88l-123 158zM590 791q-455 88 -412 415l4 33q16 128 88 215t177 125.5t239 38.5q257 0 369.5 -136t74.5 -378l-6 -39h-82q36 246 -53 360.5t-293 114.5h-20q-168 0 -279 -76.5t-129 -218.5l-4 -33q-19 -145 65.5 -226.5t309.5 -125.5
q247 -49 345.5 -153.5t76.5 -278.5l-4 -33q-26 -202 -171 -308.5t-374 -106.5q-245 0 -365.5 131t-83.5 362l7 39h82q-21 -123 -5.5 -209.5t67.5 -141t124 -79.5t164 -25h20q187 0 307.5 84t141.5 248l4 33q20 159 -72 243t-313 126z" />
    <glyph glyph-name="scircumflex" unicode="&#x15d;" horiz-adv-x="1064" 
d="M397 1270h-96l309 327h62l223 -327h-88l-172 254zM451 57q296 0 327 219q18 120 -46.5 169.5t-250.5 78.5q-191 29 -268 103.5t-63 187.5l2 16q15 126 120.5 200.5t280.5 74.5q216 0 301.5 -94t63.5 -258l-3 -17h-79q20 142 -43.5 216.5t-239.5 74.5q-289 0 -315 -205
q-13 -101 51.5 -154.5t253.5 -78.5q184 -25 262 -98.5t61 -206.5l-2 -17q-15 -130 -125.5 -209t-287.5 -79q-93 0 -163 18t-112.5 48.5t-67.5 74t-31.5 90t-0.5 100.5l2 17h80q-19 -127 48 -199t245 -72z" />
    <glyph glyph-name="Scedilla" unicode="&#x15e;" horiz-adv-x="1208" 
d="M285 -375l30 58q61 -45 148 -45q137 0 137 88q0 75 -121 75l-57 -4l-29 33l76 152q-225 11 -333 140t-73 351l7 39h82q-21 -123 -5.5 -209.5t67.5 -141t124 -79.5t164 -25h20q187 0 307.5 84t141.5 248l4 33q20 159 -72 243t-313 126q-455 88 -412 415l4 33
q16 128 88 215t177 125.5t239 38.5q257 0 369.5 -136t74.5 -378l-6 -39h-82q36 246 -53 360.5t-293 114.5h-20q-168 0 -279 -76.5t-129 -218.5l-4 -33q-19 -145 65.5 -226.5t309.5 -125.5q247 -49 345.5 -153.5t76.5 -278.5l-4 -33q-26 -196 -161.5 -301.5t-352.5 -113.5
l-58 -111h11q72 0 123 -31.5t51 -103.5q0 -84 -57.5 -124t-149.5 -40q-49 0 -99 16t-79 39z" />
    <glyph glyph-name="scedilla" unicode="&#x15f;" horiz-adv-x="1064" 
d="M451 57q296 0 327 219q18 120 -46.5 169.5t-250.5 78.5q-191 29 -268 103.5t-63 187.5l2 16q15 126 120.5 200.5t280.5 74.5q216 0 301.5 -94t63.5 -258l-3 -17h-79q20 142 -43.5 216.5t-239.5 74.5q-289 0 -315 -205q-13 -101 51.5 -154.5t253.5 -78.5
q184 -25 262 -98.5t61 -206.5l-2 -17q-15 -126 -120 -204t-273 -84l-57 -111h10q72 0 123 -31.5t51 -103.5q0 -84 -57.5 -124t-149.5 -40q-49 0 -99 16t-79 39l31 58q61 -45 147 -45q137 0 137 88q0 75 -120 75l-58 -4l-28 33l75 152q-99 6 -168 35t-103.5 75.5t-46 100.5
t-3.5 118l2 17h80q-19 -127 48 -199t245 -72z" />
    <glyph glyph-name="Scaron" unicode="&#x160;" horiz-adv-x="1208" 
d="M524 1946h88l121 -158l166 158h96l-235 -226h-62zM590 791q-455 88 -412 415l4 33q16 128 88 215t177 125.5t239 38.5q257 0 369.5 -136t74.5 -378l-6 -39h-82q36 246 -53 360.5t-293 114.5h-20q-168 0 -279 -76.5t-129 -218.5l-4 -33q-19 -145 65.5 -226.5t309.5 -125.5
q247 -49 345.5 -153.5t76.5 -278.5l-4 -33q-26 -202 -171 -308.5t-374 -106.5q-245 0 -365.5 131t-83.5 362l7 39h82q-21 -123 -5.5 -209.5t67.5 -141t124 -79.5t164 -25h20q187 0 307.5 84t141.5 248l4 33q20 159 -72 243t-313 126z" />
    <glyph glyph-name="scaron" unicode="&#x161;" horiz-adv-x="1064" 
d="M344 1597h88l172 -254l238 254h96l-309 -327h-62zM451 57q296 0 327 219q18 120 -46.5 169.5t-250.5 78.5q-191 29 -268 103.5t-63 187.5l2 16q15 126 120.5 200.5t280.5 74.5q216 0 301.5 -94t63.5 -258l-3 -17h-79q20 142 -43.5 216.5t-239.5 74.5q-289 0 -315 -205
q-13 -101 51.5 -154.5t253.5 -78.5q184 -25 262 -98.5t61 -206.5l-2 -17q-15 -130 -125.5 -209t-287.5 -79q-93 0 -163 18t-112.5 48.5t-67.5 74t-31.5 90t-0.5 100.5l2 17h80q-19 -127 48 -199t245 -72z" />
    <glyph glyph-name="Tcommaaccent" unicode="&#x162;" horiz-adv-x="1024" 
d="M651 1520l-198 -1520h-82l198 1520h-419l10 77h921l-10 -77h-420zM457 -123l-15 -98q-12 -95 -69 -152t-142 -57l9 61q52 0 89 30.5t50 92.5h-62l17 123h123z" />
    <glyph glyph-name="tcommaaccent" unicode="&#x163;" horiz-adv-x="798" 
d="M416 -123l-15 -98q-12 -95 -69 -152t-142 -57l9 61q52 0 89 30.5t50 92.5h-62l17 123h123zM369 1085h368l-10 -77h-369l-94 -721q-17 -127 30 -178.5t140 -51.5q87 0 150 19l-9 -76q-53 -20 -141 -20q-135 0 -204.5 74t-49.5 222l96 732h-174l11 77h174l41 308h82z" />
    <glyph glyph-name="Tcaron" unicode="&#x164;" horiz-adv-x="1024" 
d="M651 1520l-198 -1520h-82l198 1520h-419l10 77h921l-10 -77h-420zM432 1946h88l121 -158l166 158h96l-235 -226h-62z" />
    <glyph glyph-name="tcaron" unicode="&#x165;" horiz-adv-x="798" 
d="M606 1638h92l-80 -368h-61zM369 1085h368l-10 -77h-369l-94 -721q-17 -127 30 -178.5t140 -51.5q87 0 150 19l-9 -76q-53 -20 -141 -20q-135 0 -204.5 74t-49.5 222l96 732h-174l11 77h174l41 308h82z" />
    <glyph glyph-name="Tbar" unicode="&#x166;" horiz-adv-x="1024" 
d="M651 1520l-88 -666h266l-10 -78h-266l-100 -776h-82l100 776h-266l10 78h266l88 666h-419l10 77h921l-10 -77h-420z" />
    <glyph glyph-name="tbar" unicode="&#x167;" horiz-adv-x="798" 
d="M369 1085h368l-10 -77h-369l-55 -426h287l-10 -78h-287l-29 -217q-17 -127 30 -178.5t140 -51.5q87 0 150 19l-9 -76q-53 -20 -141 -20q-135 0 -204.5 74t-49.5 222l29 228h-172l10 78h172l57 426h-174l11 77h174l41 308h82z" />
    <glyph glyph-name="Utilde" unicode="&#x168;" horiz-adv-x="1290" 
d="M1008 1909h73q-10 -85 -55.5 -128.5t-114.5 -43.5q-40 0 -78.5 19.5t-63.5 43t-56 43t-58 19.5q-79 0 -94 -105h-74q12 85 58 128.5t114 43.5q40 0 78 -19.5t63 -43t55.5 -43t57.5 -19.5q83 0 95 105zM559 -20q-120 0 -206.5 25t-148 82.5t-84 158.5t-3.5 246l145 1105
h82l-143 -1095q-16 -103 -5.5 -178.5t35.5 -126.5t74 -82t110 -44.5t144 -13.5q103 0 178.5 21.5t134.5 72.5t95 137.5t53 213.5l143 1095h82l-145 -1105q-19 -144 -62 -244t-113 -158.5t-158.5 -84t-207.5 -25.5z" />
    <glyph glyph-name="utilde" unicode="&#x169;" horiz-adv-x="1044" 
d="M829 1509h72q-12 -86 -56 -129t-112 -43q-40 0 -79.5 19t-66 42.5t-59.5 42.5t-61 19q-75 0 -88 -102h-72q10 85 54 128.5t112 43.5q40 0 79.5 -19t66 -42.5t59.5 -42.5t61 -19q77 0 90 102zM174 1085h82l-98 -757q-35 -271 243 -271q64 0 121.5 17.5t101 47.5t74 60
t54.5 64l108 839h82l-102 -778l-29 -307h-61l2 160q-58 -81 -153 -130.5t-208 -49.5q-172 0 -254.5 89.5t-62.5 247.5z" />
    <glyph glyph-name="Umacron" unicode="&#x16a;" horiz-adv-x="1290" 
d="M575 1792l11 82h409l-10 -82h-410zM559 -20q-120 0 -206.5 25t-148 82.5t-84 158.5t-3.5 246l145 1105h82l-143 -1095q-16 -103 -5.5 -178.5t35.5 -126.5t74 -82t110 -44.5t144 -13.5q103 0 178.5 21.5t134.5 72.5t95 137.5t53 213.5l143 1095h82l-145 -1105
q-19 -144 -62 -244t-113 -158.5t-158.5 -84t-207.5 -25.5z" />
    <glyph glyph-name="umacron" unicode="&#x16b;" horiz-adv-x="1044" 
d="M383 1393l10 82h430l-10 -82h-430zM174 1085h82l-98 -757q-35 -271 243 -271q64 0 121.5 17.5t101 47.5t74 60t54.5 64l108 839h82l-102 -778l-29 -307h-61l2 160q-58 -81 -153 -130.5t-208 -49.5q-172 0 -254.5 89.5t-62.5 247.5z" />
    <glyph glyph-name="Ubreve" unicode="&#x16c;" horiz-adv-x="1290" 
d="M772 1700q-127 0 -192 68.5t-50 177.5h74q-11 -80 32.5 -129.5t139.5 -49.5t153 49.5t68 129.5h74q-15 -110 -94 -178t-205 -68zM559 -20q-120 0 -206.5 25t-148 82.5t-84 158.5t-3.5 246l145 1105h82l-143 -1095q-16 -103 -5.5 -178.5t35.5 -126.5t74 -82t110 -44.5
t144 -13.5q103 0 178.5 21.5t134.5 72.5t95 137.5t53 213.5l143 1095h82l-145 -1105q-19 -144 -62 -244t-113 -158.5t-158.5 -84t-207.5 -25.5z" />
    <glyph glyph-name="ubreve" unicode="&#x16d;" horiz-adv-x="1044" 
d="M584 1249q-156 0 -224 94t-47 254h74q-16 -129 30.5 -204.5t170.5 -75.5t191 75.5t83 204.5h74q-21 -161 -109 -254.5t-243 -93.5zM174 1085h82l-98 -757q-35 -271 243 -271q64 0 121.5 17.5t101 47.5t74 60t54.5 64l108 839h82l-102 -778l-29 -307h-61l2 160
q-58 -81 -153 -130.5t-208 -49.5q-172 0 -254.5 89.5t-62.5 247.5z" />
    <glyph glyph-name="Uring" unicode="&#x16e;" horiz-adv-x="1290" 
d="M965 1802q0 -86 -57 -145.5t-144 -59.5q-76 0 -124 47t-48 117q0 86 57 145.5t144 59.5q76 0 124 -47t48 -117zM659 1761q0 -40 30 -69t75 -29q55 0 94 37t39 102q0 41 -29.5 70t-74.5 29q-55 0 -94.5 -37.5t-39.5 -102.5zM559 -20q-120 0 -206.5 25t-148 82.5t-84 158.5
t-3.5 246l145 1105h82l-143 -1095q-16 -103 -5.5 -178.5t35.5 -126.5t74 -82t110 -44.5t144 -13.5q103 0 178.5 21.5t134.5 72.5t95 137.5t53 213.5l143 1095h82l-145 -1105q-19 -144 -62 -244t-113 -158.5t-158.5 -84t-207.5 -25.5z" />
    <glyph glyph-name="uring" unicode="&#x16f;" horiz-adv-x="1044" 
d="M174 1085h82l-98 -757q-35 -271 243 -271q64 0 121.5 17.5t101 47.5t74 60t54.5 64l108 839h82l-102 -778l-29 -307h-61l2 160q-58 -81 -153 -130.5t-208 -49.5q-172 0 -254.5 89.5t-62.5 247.5zM791 1454q0 -86 -57 -145.5t-144 -59.5q-76 0 -124 47t-48 117
q0 86 56.5 145.5t143.5 59.5q76 0 124.5 -47t48.5 -117zM485 1413q0 -40 30 -69t75 -29q55 0 94 37t39 102q0 40 -30 69t-75 29q-55 0 -94 -37t-39 -102z" />
    <glyph glyph-name="Uhungarumlaut" unicode="&#x170;" horiz-adv-x="1290" 
d="M997 1946h86l-157 -226h-86zM772 1946h86l-158 -226h-86zM559 -20q-120 0 -206.5 25t-148 82.5t-84 158.5t-3.5 246l145 1105h82l-143 -1095q-16 -103 -5.5 -178.5t35.5 -126.5t74 -82t110 -44.5t144 -13.5q103 0 178.5 21.5t134.5 72.5t95 137.5t53 213.5l143 1095h82
l-145 -1105q-19 -144 -62 -244t-113 -158.5t-158.5 -84t-207.5 -25.5z" />
    <glyph glyph-name="uhungarumlaut" unicode="&#x171;" horiz-adv-x="1044" 
d="M653 1597h86l-227 -327h-86zM879 1597h86l-228 -327h-86zM174 1085h82l-98 -757q-35 -271 243 -271q64 0 121.5 17.5t101 47.5t74 60t54.5 64l108 839h82l-102 -778l-29 -307h-61l2 160q-58 -81 -153 -130.5t-208 -49.5q-172 0 -254.5 89.5t-62.5 247.5z" />
    <glyph glyph-name="Uogonek" unicode="&#x172;" horiz-adv-x="1290" 
d="M559 -20q-120 0 -206.5 25t-148 82.5t-84 158.5t-3.5 246l145 1105h82l-143 -1095q-16 -103 -5.5 -178.5t35.5 -126.5t74 -82t110 -44.5t144 -13.5q103 0 178.5 21.5t134.5 72.5t95 137.5t53 213.5l143 1095h82l-145 -1105q-30 -222 -116 -338t-236 -154
q-87 -22 -156.5 -95t-69.5 -165q0 -50 35.5 -76t99.5 -26q71 0 129 28l17 -57q-65 -39 -160 -39q-89 0 -139.5 42t-50.5 120q0 148 137 248h-31z" />
    <glyph glyph-name="uogonek" unicode="&#x173;" horiz-adv-x="1044" 
d="M174 1085h82l-98 -757q-35 -271 243 -271q64 0 121.5 17.5t101 47.5t74 60t54.5 64l108 839h82l-102 -778l-29 -307q-57 -25 -104 -57.5t-84 -87t-37 -115.5q0 -50 35.5 -76t99.5 -26q71 0 129 28l16 -57q-65 -39 -159 -39q-89 0 -140 42t-51 120q0 197 234 305l2 123
q-58 -81 -153 -130.5t-208 -49.5q-172 0 -254.5 89.5t-62.5 247.5z" />
    <glyph glyph-name="Wcircumflex" unicode="&#x174;" horiz-adv-x="1802" 
d="M887 1720h-96l235 226h61l175 -226h-88l-123 158zM1165 -20l-166 1536l-571 -1536h-123l-96 1617h86l82 -1531l569 1531h123l168 -1531l483 1531h90l-522 -1617h-123z" />
    <glyph glyph-name="wcircumflex" unicode="&#x175;" horiz-adv-x="1433" 
d="M582 1270h-97l310 327h61l223 -327h-88l-172 254zM745 985l-409 -985h-115l-108 1085h82l94 -1003l416 1003h102l154 -1003l356 1003h86l-391 -1085h-115z" />
    <glyph glyph-name="Ycircumflex" unicode="&#x176;" horiz-adv-x="1146" 
d="M559 1720h-96l235 226h62l174 -226h-88l-123 158zM575 481l-61 -481h-82l62 481l-334 1116h84l301 -1013l567 1013h92z" />
    <glyph glyph-name="ycircumflex" unicode="&#x177;" horiz-adv-x="946" 
d="M356 1270h-96l309 327h62l223 -327h-88l-172 254zM406 133l471 952h88l-529 -1048l-219 -447h-90l227 451l-254 1044h84z" />
    <glyph glyph-name="Ydieresis" unicode="&#x178;" horiz-adv-x="1146" 
d="M936 1894l-16 -122h-123l16 122h123zM629 1894l-17 -122h-123l17 122h123zM575 481l-61 -481h-82l62 481l-334 1116h84l301 -1013l567 1013h92z" />
    <glyph glyph-name="Zacute" unicode="&#x179;" horiz-adv-x="1126" 
d="M797 1946h86l-158 -226h-86zM-12 57l1036 1467l-248 -4h-575l10 77h922l-7 -57l-1036 -1466l248 4h616l-10 -78h-962z" />
    <glyph glyph-name="zacute" unicode="&#x17a;" horiz-adv-x="913" 
d="M702 1597h86l-227 -327h-86zM-16 57l761 953l-247 -2h-369l10 77h717l-6 -57l-762 -952l248 2h409l-10 -78h-758z" />
    <glyph glyph-name="Zdotaccent" unicode="&#x17b;" horiz-adv-x="1126" 
d="M766 1894l-16 -122h-123l16 122h123zM-12 57l1036 1467l-248 -4h-575l10 77h922l-7 -57l-1036 -1466l248 4h616l-10 -78h-962z" />
    <glyph glyph-name="zdotaccent" unicode="&#x17c;" horiz-adv-x="913" 
d="M610 1505l-16 -123h-123l16 123h123zM-16 57l761 953l-247 -2h-369l10 77h717l-6 -57l-762 -952l248 2h409l-10 -78h-758z" />
    <glyph glyph-name="Zcaron" unicode="&#x17d;" horiz-adv-x="1126" 
d="M477 1946h88l121 -158l166 158h96l-235 -226h-62zM-12 57l1036 1467l-248 -4h-575l10 77h922l-7 -57l-1036 -1466l248 4h616l-10 -78h-962z" />
    <glyph glyph-name="zcaron" unicode="&#x17e;" horiz-adv-x="913" 
d="M264 1597h88l172 -254l238 254h96l-309 -327h-62zM-16 57l761 953l-247 -2h-369l10 77h717l-6 -57l-762 -952l248 2h409l-10 -78h-758z" />
    <glyph glyph-name="Scommaaccent" unicode="&#x218;" horiz-adv-x="1208" 
d="M549 -123l-14 -98q-12 -95 -69 -152t-142 -57l8 61q52 0 89 30.5t50 92.5h-61l16 123h123zM590 791q-455 88 -412 415l4 33q16 128 88 215t177 125.5t239 38.5q257 0 369.5 -136t74.5 -378l-6 -39h-82q36 246 -53 360.5t-293 114.5h-20q-168 0 -279 -76.5t-129 -218.5
l-4 -33q-19 -145 65.5 -226.5t309.5 -125.5q247 -49 345.5 -153.5t76.5 -278.5l-4 -33q-26 -202 -171 -308.5t-374 -106.5q-245 0 -365.5 131t-83.5 362l7 39h82q-21 -123 -5.5 -209.5t67.5 -141t124 -79.5t164 -25h20q187 0 307.5 84t141.5 248l4 33q20 159 -72 243
t-313 126z" />
    <glyph glyph-name="scommaaccent" unicode="&#x219;" horiz-adv-x="1064" 
d="M477 -123l-14 -98q-12 -95 -69 -152t-142 -57l8 61q52 0 89 30.5t50 92.5h-61l16 123h123zM451 57q296 0 327 219q18 120 -46.5 169.5t-250.5 78.5q-191 29 -268 103.5t-63 187.5l2 16q15 126 120.5 200.5t280.5 74.5q216 0 301.5 -94t63.5 -258l-3 -17h-79
q20 142 -43.5 216.5t-239.5 74.5q-289 0 -315 -205q-13 -101 51.5 -154.5t253.5 -78.5q184 -25 262 -98.5t61 -206.5l-2 -17q-15 -130 -125.5 -209t-287.5 -79q-93 0 -163 18t-112.5 48.5t-67.5 74t-31.5 90t-0.5 100.5l2 17h80q-19 -127 48 -199t245 -72z" />
    <glyph glyph-name="Ymacron" unicode="&#x232;" horiz-adv-x="1146" 
d="M504 1792l10 82h410l-11 -82h-409zM575 481l-61 -481h-82l62 481l-334 1116h84l301 -1013l567 1013h92z" />
    <glyph glyph-name="ymacron" unicode="&#x233;" horiz-adv-x="946" 
d="M358 1393l11 82h430l-11 -82h-430zM406 133l471 952h88l-529 -1048l-219 -447h-90l227 451l-254 1044h84z" />
    <glyph glyph-name="dotlessj" unicode="&#x237;" horiz-adv-x="409" 
d="M45 -137l160 1222h82l-164 -1247q-37 -268 -322 -268q-88 0 -139 22l10 74q14 -6 54 -12t75 -6q109 0 168.5 47.5t75.5 167.5z" />
    <glyph glyph-name="circumflex" unicode="&#x2c6;" horiz-adv-x="1024" 
d="M377 1270h-96l309 327h61l223 -327h-88l-172 254z" />
    <glyph glyph-name="caron" unicode="&#x2c7;" horiz-adv-x="1024" 
d="M324 1597h88l172 -254l237 254h97l-310 -327h-61z" />
    <glyph glyph-name="breve" unicode="&#x2d8;" horiz-adv-x="1024" 
d="M580 1249q-156 0 -224 94t-47 254h74q-16 -129 30.5 -204.5t170.5 -75.5t191 75.5t83 204.5h74q-21 -161 -109 -254.5t-243 -93.5z" />
    <glyph glyph-name="dotaccent" unicode="&#x2d9;" horiz-adv-x="1024" 
d="M670 1505l-17 -123h-123l17 123h123z" />
    <glyph glyph-name="ring" unicode="&#x2da;" horiz-adv-x="1024" 
d="M786 1454q0 -86 -56.5 -145.5t-143.5 -59.5q-76 0 -124 47t-48 117q0 86 56.5 145.5t143.5 59.5q76 0 124 -47t48 -117zM481 1413q0 -40 30 -69t75 -29q55 0 94 37t39 102q0 40 -30 69t-75 29q-55 0 -94 -37t-39 -102z" />
    <glyph glyph-name="ogonek" unicode="&#x2db;" horiz-adv-x="1232" 
d="M473 0q-57 -25 -104 -57.5t-84 -87t-37 -115.5q0 -50 35.5 -76t99.5 -26q71 0 129 28l16 -57q-65 -39 -159 -39q-89 0 -140 42t-51 120q0 208 275 323z" />
    <glyph glyph-name="tilde" unicode="&#x2dc;" horiz-adv-x="1024" 
d="M825 1509h72q-12 -86 -56 -129t-112 -43q-40 0 -79.5 19t-66 42.5t-59.5 42.5t-61 19q-75 0 -88 -102h-72q10 85 54 128.5t112 43.5q40 0 79.5 -19t66 -42.5t59.5 -42.5t61 -19q77 0 90 102z" />
    <glyph glyph-name="hungarumlaut" unicode="&#x2dd;" horiz-adv-x="1024" 
d="M874 1597h87l-228 -327h-86zM649 1597h86l-227 -327h-86z" />
    <glyph glyph-name="Bdotaccent" unicode="&#x1e02;" horiz-adv-x="1167" 
d="M752 1894l-17 -122h-123l17 122h123zM272 1597h383q210 0 320 -100.5t86 -292.5l-6 -49q-18 -136 -107 -225t-211 -109q132 -19 208 -126.5t56 -262.5l-6 -49q-13 -100 -56.5 -174.5t-112 -119.5t-155 -67t-190.5 -22h-418zM610 782h-362l-92 -704h331q384 0 422 305
l6 49q21 167 -67.5 258.5t-237.5 91.5zM655 1520h-311l-86 -660h315q74 0 137 15t119 48t93 92t47 140l6 49q21 160 -66 238t-254 78z" />
    <glyph glyph-name="bdotaccent" unicode="&#x1e03;" horiz-adv-x="1075" 
d="M393 1894l-16 -122h-123l16 122h123zM340 1638l-88 -675q48 63 130 103t179 40q91 0 161.5 -28t115 -78t72 -119t32 -151.5t-5.5 -174.5l-4 -33q-15 -122 -51 -219t-94.5 -170.5t-145 -113t-195.5 -39.5q-115 0 -199.5 58.5t-113.5 127.5l-39 -166h-61l49 307l176 1331
h82zM158 258q36 -82 107.5 -141.5t180.5 -59.5q170 0 271.5 121t128.5 338l4 33q28 224 -45.5 351.5t-243.5 127.5q-193 0 -325 -176z" />
    <glyph glyph-name="Ddotaccent" unicode="&#x1e0a;" horiz-adv-x="1290" 
d="M793 1894l-17 -122h-123l17 122h123zM1167 823l-6 -49q-26 -203 -89.5 -353.5t-157.5 -241.5t-208.5 -135t-252.5 -44h-390l209 1597h383q138 0 241.5 -44t174.5 -135t96.5 -241.5t-0.5 -353.5zM156 78h297q122 0 222.5 39t183 120t138 217t78.5 320l6 49
q87 697 -432 697h-305z" />
    <glyph glyph-name="ddotaccent" unicode="&#x1e0b;" horiz-adv-x="1075" 
d="M1100 1894l-17 -122h-122l16 122h123zM455 -20q-91 0 -161.5 28t-115 78t-72 119t-32 151t5.5 174l4 33q31 251 151.5 397t333.5 146q112 0 190.5 -52t112.5 -114l93 698h82l-177 -1331l-28 -307h-62l-2 141q-50 -73 -136.5 -117t-186.5 -44zM569 1028q-170 0 -271 -121
t-128 -338l-4 -32q-28 -224 45.5 -352t243.5 -128q105 0 187.5 51.5t137.5 124.5l78 594q-16 37 -40 70t-58.5 64t-84 49t-106.5 18z" />
    <glyph glyph-name="Fdotaccent" unicode="&#x1e1e;" horiz-adv-x="1024" 
d="M272 1597h820l-11 -77h-737l-88 -666h635l-10 -78h-635l-101 -776h-82zM823 1894l-16 -122h-123l16 122h123z" />
    <glyph glyph-name="fdotaccent" unicode="&#x1e1f;" horiz-adv-x="757" 
d="M680 1894l-16 -122h-123l16 122h123zM406 1366l-37 -281h327l-10 -77h-328l-131 -1008h-82l131 1008h-174l11 77h174l41 306q37 268 323 268q86 0 140 -23l-11 -73q-14 6 -54 12t-75 6q-109 0 -169 -47.5t-76 -167.5z" />
    <glyph glyph-name="Mdotaccent" unicode="&#x1e40;" horiz-adv-x="1597" 
d="M1008 1894l-17 -122h-123l17 122h123zM1448 1454l-719 -1454h-61l-338 1454l-43 -369l-142 -1085h-82l209 1597h105l336 -1458l721 1458h108l-209 -1597h-82l142 1085z" />
    <glyph glyph-name="mdotaccent" unicode="&#x1e41;" horiz-adv-x="1607" 
d="M967 1505l-17 -123h-123l17 123h123zM1374 0h-82l103 788q9 67 -3.5 115t-43.5 74.5t-71 38.5t-93 12q-102 0 -187.5 -57t-138.5 -131l-108 -840h-82l102 788q18 130 -38.5 185t-172.5 55q-102 0 -187.5 -57t-138.5 -131l-108 -840h-82l102 778l29 307h62l-3 -159
q53 75 142 127.5t194 52.5q122 0 191.5 -48.5t89.5 -133.5q61 80 149.5 131t194.5 51q144 0 224.5 -79.5t60.5 -227.5z" />
    <glyph glyph-name="Pdotaccent" unicode="&#x1e56;" horiz-adv-x="1146" 
d="M793 1894l-17 -122h-123l17 122h123zM233 676l-88 -676h-82l209 1597h404q69 0 131.5 -13t121.5 -45t99.5 -81.5t59 -129t6.5 -179.5l-7 -49q-12 -96 -48 -170.5t-85.5 -121.5t-114 -77.5t-129 -42.5t-135.5 -12h-342zM244 754h342q52 0 98.5 7t102 29.5t97 59t74 101
t43.5 149.5l7 49q11 89 -6 157t-51 107.5t-84 64.5t-97.5 33.5t-99.5 8.5h-326z" />
    <glyph glyph-name="pdotaccent" unicode="&#x1e57;" horiz-adv-x="1075" 
d="M700 1505l-16 -123h-123l17 123h122zM561 1106q91 0 161.5 -28t115 -78t72 -119t32 -151.5t-5.5 -174.5l-4 -33q-15 -122 -51 -219t-94.5 -170.5t-145 -113t-195.5 -39.5q-113 0 -191 52t-112 113l-73 -555h-82l157 1188l29 307h62l2 -141q50 73 136.5 117.5t186.5 44.5z
M446 57q170 0 271.5 121t128.5 338l4 33q28 224 -45.5 351.5t-243.5 127.5q-105 0 -187.5 -51.5t-137.5 -124.5l-78 -594q36 -82 107.5 -141.5t180.5 -59.5z" />
    <glyph glyph-name="Tdotaccent" unicode="&#x1e6a;" horiz-adv-x="1024" 
d="M651 1520l-198 -1520h-82l198 1520h-419l10 77h921l-10 -77h-420zM721 1894l-16 -122h-123l16 122h123z" />
    <glyph glyph-name="tdotaccent" unicode="&#x1e6b;" horiz-adv-x="798" 
d="M463 1649l-14 -123h-123l14 123h123zM369 1085h368l-10 -77h-369l-94 -721q-17 -127 30 -178.5t140 -51.5q87 0 150 19l-9 -76q-53 -20 -141 -20q-135 0 -204.5 74t-49.5 222l96 732h-174l11 77h174l41 308h82z" />
    <glyph glyph-name="Wgrave" unicode="&#x1e80;" horiz-adv-x="1802" 
d="M887 1946h86l96 -226h-86zM1165 -20l-166 1536l-571 -1536h-123l-96 1617h86l82 -1531l569 1531h123l168 -1531l483 1531h90l-522 -1617h-123z" />
    <glyph glyph-name="wgrave" unicode="&#x1e81;" horiz-adv-x="1433" 
d="M598 1597h86l141 -327h-86zM745 985l-409 -985h-115l-108 1085h82l94 -1003l416 1003h102l154 -1003l356 1003h86l-391 -1085h-115z" />
    <glyph glyph-name="Wacute" unicode="&#x1e82;" horiz-adv-x="1802" 
d="M1141 1946h86l-158 -226h-86zM1165 -20l-166 1536l-571 -1536h-123l-96 1617h86l82 -1531l569 1531h123l168 -1531l483 1531h90l-522 -1617h-123z" />
    <glyph glyph-name="wacute" unicode="&#x1e83;" horiz-adv-x="1433" 
d="M967 1597h86l-228 -327h-86zM745 985l-409 -985h-115l-108 1085h82l94 -1003l416 1003h102l154 -1003l356 1003h86l-391 -1085h-115z" />
    <glyph glyph-name="Wdieresis" unicode="&#x1e84;" horiz-adv-x="1802" 
d="M1264 1894l-17 -122h-123l17 122h123zM956 1894l-16 -122h-123l17 122h122zM1165 -20l-166 1536l-571 -1536h-123l-96 1617h86l82 -1531l569 1531h123l168 -1531l483 1531h90l-522 -1617h-123z" />
    <glyph glyph-name="wdieresis" unicode="&#x1e85;" horiz-adv-x="1433" 
d="M1028 1505l-16 -123h-123l16 123h123zM721 1505l-16 -123h-123l16 123h123zM745 985l-409 -985h-115l-108 1085h82l94 -1003l416 1003h102l154 -1003l356 1003h86l-391 -1085h-115z" />
    <glyph glyph-name="Eszett" unicode="&#x1e9e;" horiz-adv-x="1515" 
d="M645 889l424 600q-99 51 -270 51q-106 0 -188 -20t-153 -68t-116.5 -137t-62.5 -219l-144 -1096h-82l146 1106q16 118 54.5 208t93 147t128 92.5t152 50t172.5 14.5q109 0 205.5 -22t156.5 -62l-8 -57l-412 -582l224 -29q240 -31 341 -148t78 -296l-4 -33
q-25 -193 -162 -301t-348 -108q-231 0 -333 124t-64 369l6 39h82q-24 -122 -14 -208.5t55 -141t109.5 -80t148.5 -25.5h21q168 0 280.5 86t132.5 240l4 33q21 163 -70 255.5t-310 121.5l-281 36z" />
    <glyph glyph-name="Ygrave" unicode="&#x1ef2;" horiz-adv-x="1146" 
d="M559 1946h86l96 -226h-86zM575 481l-61 -481h-82l62 481l-334 1116h84l301 -1013l567 1013h92z" />
    <glyph glyph-name="ygrave" unicode="&#x1ef3;" horiz-adv-x="946" 
d="M373 1597h86l141 -327h-86zM406 133l471 952h88l-529 -1048l-219 -447h-90l227 451l-254 1044h84z" />
    <glyph glyph-name="enspace" unicode="&#x2002;" horiz-adv-x="1024" 
 />
    <glyph glyph-name="emspace" unicode="&#x2003;" horiz-adv-x="2048" 
 />
    <glyph glyph-name="threeperemspace" unicode="&#x2004;" horiz-adv-x="681" 
 />
    <glyph glyph-name="fourperemspace" unicode="&#x2005;" horiz-adv-x="512" 
 />
    <glyph glyph-name="sixperemspace" unicode="&#x2006;" horiz-adv-x="342" 
 />
    <glyph glyph-name="figurespace" unicode="&#x2007;" horiz-adv-x="1228" 
 />
    <glyph glyph-name="punctuationspace" unicode="&#x2008;" horiz-adv-x="368" 
 />
    <glyph glyph-name="thinspace" unicode="&#x2009;" horiz-adv-x="307" 
 />
    <glyph glyph-name="hairspace" unicode="&#x200a;" horiz-adv-x="102" 
 />
    <glyph glyph-name="zerowidthspace" unicode="&#x200b;" horiz-adv-x="0" 
 />
    <glyph glyph-name="figuredash" unicode="&#x2012;" horiz-adv-x="1228" 
d="M70 678l10 78h1065l-10 -78h-1065z" />
    <glyph glyph-name="endash" unicode="&#x2013;" horiz-adv-x="1024" 
d="M70 678l10 78h860l-10 -78h-860z" />
    <glyph glyph-name="emdash" unicode="&#x2014;" horiz-adv-x="2048" 
d="M70 678l10 78h1884l-10 -78h-1884z" />
    <glyph glyph-name="uni2015" unicode="&#x2015;" horiz-adv-x="2457" 
d="M70 678l10 78h2294l-11 -78h-2293z" />
    <glyph glyph-name="doublebar" unicode="&#x2016;" horiz-adv-x="573" 
d="M10 -246l258 1966h82l-258 -1966h-82zM215 -246l258 1966h82l-258 -1966h-82z" />
    <glyph glyph-name="quoteleft" unicode="&#x2018;" horiz-adv-x="409" 
d="M147 1270l13 98q34 250 219 250l-8 -62q-62 0 -97 -36t-49 -127h62l-17 -123h-123z" />
    <glyph glyph-name="quoteright" unicode="&#x2019;" horiz-adv-x="409" 
d="M375 1597l-13 -98q-34 -250 -217 -250l9 62q61 0 95 36t48 128h-61l16 122h123z" />
    <glyph glyph-name="quotesinglbase" unicode="&#x201a;" horiz-adv-x="409" 
d="M180 123l-12 -98q-34 -250 -217 -250l8 61q61 0 94.5 36t50.5 128h-61l14 123h123z" />
    <glyph glyph-name="reversequoteleft" unicode="&#x201b;" horiz-adv-x="409" 
d="M190 1597h123l-16 -122h-61q-9 -92 16 -128t86 -36l-8 -62q-186 0 -152 250z" />
    <glyph glyph-name="quotedblleft" unicode="&#x201c;" horiz-adv-x="655" 
d="M147 1270l13 98q34 250 219 250l-8 -62q-62 0 -97 -36t-49 -127h62l-17 -123h-123zM393 1270l13 98q34 250 219 250l-9 -62q-62 0 -96.5 -36t-48.5 -127h61l-16 -123h-123z" />
    <glyph glyph-name="quotedblright" unicode="&#x201d;" horiz-adv-x="655" 
d="M621 1597l-13 -98q-34 -250 -217 -250l8 62q61 0 95.5 36t48.5 128h-62l17 122h123zM375 1597l-13 -98q-34 -250 -217 -250l9 62q61 0 95 36t48 128h-61l16 122h123z" />
    <glyph glyph-name="quotedblbase" unicode="&#x201e;" horiz-adv-x="655" 
d="M426 123l-12 -98q-34 -250 -217 -250l8 61q61 0 94.5 36t50.5 128h-61l14 123h123zM180 123l-12 -98q-34 -250 -217 -250l8 61q61 0 94.5 36t50.5 128h-61l14 123h123z" />
    <glyph glyph-name="reversequotedblleft" unicode="&#x201f;" horiz-adv-x="655" 
d="M436 1597h123l-16 -122h-62q-9 -92 16.5 -128t86.5 -36l-9 -62q-185 0 -151 250zM190 1597h123l-16 -122h-61q-9 -92 16 -128t86 -36l-8 -62q-186 0 -152 250z" />
    <glyph glyph-name="dagger" unicode="&#x2020;" horiz-adv-x="778" 
d="M373 952l43 256h61l-22 -256l-45 -256h-62zM463 1638h82l-51 -307h-62zM809 1311l-12 -82l-285 10l8 61zM100 1229l13 82l284 -11l-8 -61z" />
    <glyph glyph-name="daggerdbl" unicode="&#x2021;" horiz-adv-x="778" 
d="M315 522l45 256h62l-25 -256l-43 -256h-61zM463 1638h82l-51 -307h-62zM467 1055l-31 -154h-61l10 154l31 153h61zM752 881l-11 -82l-284 10l6 61zM100 1229l13 82l284 -11l-8 -61zM45 799l10 82l285 -11l-6 -61zM809 1311l-12 -82l-285 10l8 61z" />
    <glyph glyph-name="bullet" unicode="&#x2022;" horiz-adv-x="778" 
d="M659 963l-63 -492h-492l64 492h491z" />
    <glyph glyph-name="ellipsis" unicode="&#x2026;" horiz-adv-x="2048" 
d="M344 123l-14 -123h-123l14 123h123zM1655 123l-15 -123h-122l14 123h123zM999 123l-14 -123h-123l15 123h122z" />
    <glyph glyph-name="perthousand" unicode="&#x2030;" horiz-adv-x="2621" 
d="M535 0h-91l813 1491q-119 -37 -266 -37q-95 0 -213 27q45 -84 31 -205l-2 -16q-21 -166 -119.5 -252t-236.5 -86q-68 0 -126 21t-101 62t-63 108t-9 151l2 16q21 166 119.5 252t236.5 86q71 0 137 -25q168 -61 354 -61q91 0 210 22t163 43l-10 -75zM729 1262l2 16
q17 125 -45 193.5t-174 68.5h-12q-103 0 -177.5 -67.5t-91.5 -194.5l-2 -16q-17 -124 46 -193.5t174 -69.5h12q103 0 177 68t91 195zM1341 57h13q103 0 177 67.5t91 194.5l2 17q17 125 -45 193.5t-174 68.5h-12q-103 0 -177.5 -67.5t-91.5 -194.5l-2 -17q-17 -124 45.5 -193
t173.5 -69zM1343 -20q-68 0 -126 21t-101 62t-63 108t-9 151l3 16q21 166 119.5 252t236.5 86q68 0 126 -21t101 -62t63 -108t9 -151l-2 -17q-21 -166 -120 -251.5t-237 -85.5zM2120 57h12q103 0 177 67.5t91 194.5l2 17q17 125 -45 193.5t-174 68.5h-12q-103 0 -177 -67.5
t-91 -194.5l-2 -17q-17 -124 45.5 -193t173.5 -69zM2122 -20q-68 0 -126 21t-101 62t-63 108t-9 151l2 16q21 166 119.5 252t236.5 86q68 0 126 -21t101 -62t63 -108t9 -151l-2 -17q-21 -166 -119.5 -251.5t-236.5 -85.5z" />
    <glyph glyph-name="tripleprime" unicode="&#x2034;" horiz-adv-x="819" 
d="M266 1597h94l-90 -512h-49zM676 1597h94l-90 -512h-49zM471 1597h94l-90 -512h-49z" />
    <glyph glyph-name="guilsinglleft" unicode="&#x2039;" 
d="M549 1044l-12 -98l-369 -256l301 -256l-12 -86l-369 318l8 61z" />
    <glyph glyph-name="guilsinglright" unicode="&#x203a;" 
d="M127 958l12 86l367 -317l-8 -61l-451 -318l12 98l367 256z" />
    <glyph glyph-name="interrobang" unicode="&#x203d;" horiz-adv-x="901" 
d="M422 358h-49l131 1180q-64 -7 -114.5 -35t-85.5 -71.5t-61.5 -108.5t-42.5 -135.5t-28 -163.5h-82l4 27q17 111 38 192t55.5 155.5t81.5 120t117 72.5t161 27q177 0 263.5 -85.5t86.5 -242.5q0 -102 -22.5 -184.5t-59.5 -140.5t-82.5 -109t-94 -100.5t-91.5 -102.5
t-77 -128.5t-48 -166.5zM811 1270q0 124 -51.5 190t-163.5 76l-135 -915q32 58 83.5 121t94.5 112.5t84 109.5t64.5 137t23.5 169zM426 123l-14 -123h-123l14 123h123z" />
    <glyph glyph-name="fraction" unicode="&#x2044;" horiz-adv-x="409" 
d="M-438 0h-94l1388 1597h94z" />
    <glyph glyph-name="uni2070" unicode="&#x2070;" 
d="M96 1026l45 342q16 124 77 182t192 58q125 0 179 -65t40 -175l-45 -342q-16 -124 -77 -182t-192 -58q-125 0 -179 65t-40 175zM512 1036l43 324q11 91 -23 136.5t-126 45.5h-5q-95 0 -135 -43t-53 -141l-43 -324q-12 -91 22.5 -136.5t126.5 -45.5h5q95 0 135 43t53 141z
" />
    <glyph glyph-name="uni2074" unicode="&#x2074;" 
d="M453 799h-74l27 211h-343l9 49l413 538h72l-68 -520h132l-11 -67h-131zM469 1473l-305 -398l88 2h164l37 291z" />
    <glyph glyph-name="uni2075" unicode="&#x2075;" 
d="M88 1055h74q-13 -101 29 -152t128 -51h13q74 0 127.5 45t64.5 135l2 17q11 93 -33 141.5t-120 48.5h-13q-58 0 -111 -28.5t-83 -80.5l-60 19l80 448h473l-8 -67h-403l-51 -289q25 25 72 44.5t98 19.5q121 0 183.5 -68t47.5 -190l-2 -17q-15 -116 -87.5 -180t-182.5 -64
q-130 0 -192.5 66.5t-47.5 185.5z" />
    <glyph glyph-name="uni2076" unicode="&#x2076;" 
d="M639 1608l-8 -66q-85 0 -170 -33.5t-150 -103.5q-66 -71 -106 -178q30 31 78 52t102 21q102 0 166.5 -62t50.5 -181l-2 -17q-17 -126 -89 -190t-189 -64q-121 0 -182 81t-44 212l2 17q25 205 158 352q147 160 383 160zM383 1235h-8q-60 0 -114 -31.5t-87 -83.5l-6 -51
q-12 -98 31 -157.5t118 -59.5h9q82 0 137 50.5t65 137.5l2 17q10 88 -28.5 133t-118.5 45z" />
    <glyph glyph-name="uni2077" unicode="&#x2077;" 
d="M131 1311l37 286h504l-6 -45l-406 -753h-78l396 733l-113 -2h-240l-28 -219h-66z" />
    <glyph glyph-name="uni2078" unicode="&#x2078;" 
d="M319 786q-122 0 -184.5 63.5t-50.5 160.5l2 16q9 69 52 117.5t104 62.5q-53 17 -82.5 67.5t-22.5 112.5l2 17q12 98 78 151.5t186 53.5q126 0 187 -58t49 -157l-2 -17q-9 -68 -48.5 -111t-101.5 -59q55 -15 84.5 -66.5t20.5 -123.5l-2 -17q-12 -96 -85.5 -154.5
t-185.5 -58.5zM375 1174h-29q-73 0 -125 -39.5t-61 -108.5l-2 -16q-10 -76 34.5 -117t120.5 -41h13q75 0 128.5 36.5t61.5 110.5l2 17q9 75 -31 116.5t-112 41.5zM408 1542h-9q-79 0 -128 -35t-58 -104l-2 -17q-9 -71 32 -109t115 -38h21q73 0 124 35t60 102l2 17
q9 73 -33.5 111t-123.5 38z" />
    <glyph glyph-name="uni2079" unicode="&#x2079;" 
d="M86 786l8 66q85 0 170 33.5t150 103.5q66 71 106 178q-30 -31 -78 -52t-102 -21q-102 0 -166.5 62t-50.5 181l2 17q17 126 89 190t189 64q121 0 182 -81t44 -212l-2 -17q-25 -205 -158 -352q-147 -160 -383 -160zM342 1159h8q60 0 114 31.5t87 83.5l6 51q12 98 -31 157.5
t-118 59.5h-9q-82 0 -137 -50.5t-65 -137.5l-2 -17q-10 -88 28.5 -133t118.5 -45z" />
    <glyph glyph-name="uni207A" unicode="&#x207a;" 
d="M362 1456h68l-29 -225h226l-11 -68h-225l-29 -223h-67l29 223h-224l11 68h223z" />
    <glyph glyph-name="uni207B" unicode="&#x207b;" 
d="M100 1163l11 68h516l-11 -68h-516z" />
    <glyph glyph-name="uni207C" unicode="&#x207c;" 
d="M115 1268l8 67h516l-8 -67h-516zM88 1059l8 67h516l-8 -67h-516z" />
    <glyph glyph-name="uni207D" unicode="&#x207d;" horiz-adv-x="323" 
d="M115 1198l2 16q27 223 176 383h78q-155 -171 -181 -383l-2 -16q-13 -100 10.5 -209t65.5 -190h-74q-45 77 -66.5 185.5t-8.5 213.5z" />
    <glyph glyph-name="uni207E" unicode="&#x207e;" horiz-adv-x="323" 
d="M319 1198l-2 -16q-27 -223 -176 -383h-78q155 171 181 383l2 16q13 100 -10.5 209t-65.5 190h74q45 -77 66.5 -185.5t8.5 -213.5z" />
    <glyph glyph-name="uni2080" unicode="&#x2080;" 
d="M-8 227l45 342q16 124 76.5 182t191.5 58q125 0 179 -65t40 -175l-45 -342q-16 -124 -76.5 -181.5t-191.5 -57.5q-125 0 -179 65t-40 174zM408 238l43 323q11 91 -23.5 136.5t-126.5 45.5h-4q-95 0 -135 -43t-53 -141l-43 -323q-12 -91 22.5 -137t126.5 -46h4
q95 0 135.5 43.5t53.5 141.5z" />
    <glyph glyph-name="uni2081" unicode="&#x2081;" 
d="M461 0h-490l9 66h208l84 636l-204 -127l-29 58l272 170h47l-96 -737h207z" />
    <glyph glyph-name="uni2082" unicode="&#x2082;" 
d="M465 66l-8 -66h-500l6 45l391 367q52 49 76 81.5t29 79.5l2 17q9 74 -32.5 113.5t-121.5 39.5h-8q-88 0 -137 -50t-64 -161h-71l4 31q31 246 272 246q127 0 185.5 -59.5t46.5 -159.5l-3 -17q-7 -60 -34.5 -100t-85.5 -94l-336 -313h389z" />
    <glyph glyph-name="uni2083" unicode="&#x2083;" 
d="M57 256q-13 -101 29.5 -152t128.5 -51h12q75 0 126 35t59 109l2 16q9 75 -31.5 118.5t-112.5 43.5h-116l8 65h112q74 0 125 33t60 100l2 17q9 74 -32.5 113.5t-121.5 39.5h-8q-88 0 -137 -50t-64 -161h-71l4 31q31 246 272 246q126 0 185 -59.5t47 -159.5l-3 -17
q-17 -132 -149 -165q55 -15 84 -68.5t20 -126.5l-2 -16q-12 -96 -82.5 -152.5t-181.5 -56.5q-130 0 -192 66.5t-47 185.5l2 16h73z" />
    <glyph glyph-name="uni2084" unicode="&#x2084;" 
d="M348 0h-74l27 211h-342l8 49l414 539h72l-68 -520h131l-10 -68h-131zM365 674l-306 -398l88 3h164l37 290z" />
    <glyph glyph-name="uni2085" unicode="&#x2085;" 
d="M-16 256h73q-13 -101 29.5 -152t128.5 -51h12q74 0 128 45t65 135l2 17q11 93 -33.5 141.5t-120.5 48.5h-12q-58 0 -111.5 -28t-83.5 -80l-59 18l80 449h473l-8 -68h-404l-51 -289q25 25 72 44.5t98 19.5q121 0 184 -68t48 -190l-2 -17q-15 -115 -88 -179t-183 -64
q-130 0 -192 66.5t-47 185.5z" />
    <glyph glyph-name="uni2086" unicode="&#x2086;" 
d="M535 809l-9 -66q-85 0 -169.5 -33t-149.5 -104q-67 -73 -107 -178q30 31 78.5 52.5t102.5 21.5q101 0 166 -62t51 -182l-2 -16q-17 -126 -89.5 -190t-189.5 -64q-121 0 -181.5 80.5t-43.5 212.5l2 16q25 205 158 352q147 160 383 160zM279 436h-9q-60 0 -113.5 -31
t-86.5 -83l-7 -52q-12 -98 31.5 -157.5t118.5 -59.5h8q82 0 137.5 51t65.5 138l2 16q10 88 -28.5 133t-118.5 45z" />
    <glyph glyph-name="uni2087" unicode="&#x2087;" 
d="M27 512l36 287h504l-6 -45l-405 -754h-78l395 733l-113 -2h-239l-29 -219h-65z" />
    <glyph glyph-name="uni2088" unicode="&#x2088;" 
d="M215 -12q-122 0 -184.5 63t-50.5 160l2 16q9 70 51.5 118.5t103.5 62.5q-53 17 -82 67t-22 113l2 16q12 98 78 151.5t186 53.5q126 0 187 -58t49 -157l-3 -16q-18 -137 -149 -170q55 -15 84 -67t20 -124l-2 -16q-12 -96 -85 -154.5t-185 -58.5zM270 375h-28
q-73 0 -125.5 -39.5t-61.5 -108.5l-2 -16q-10 -76 35 -117t121 -41h12q75 0 129 37t62 111l2 16q9 75 -31 116.5t-113 41.5zM303 743h-8q-79 0 -128 -35t-58 -104l-3 -16q-9 -71 33 -109.5t115 -38.5h20q73 0 124.5 35.5t60.5 102.5l2 16q9 73 -34 111t-124 38z" />
    <glyph glyph-name="uni2089" unicode="&#x2089;" 
d="M-18 -12l8 65q85 0 169.5 33t149.5 104q67 72 107 179q-30 -32 -78 -53t-102 -21q-102 0 -167 62.5t-51 181.5l2 16q17 126 89.5 190t189.5 64q121 0 181.5 -80.5t43.5 -212.5l-2 -16q-13 -103 -49 -188t-108 -165q-146 -159 -383 -159zM238 360h8q60 0 113.5 31.5
t86.5 83.5l7 51q12 98 -31.5 157.5t-118.5 59.5h-8q-82 0 -137.5 -50.5t-65.5 -137.5l-2 -16q-10 -88 29 -133.5t119 -45.5z" />
    <glyph glyph-name="uni208A" unicode="&#x208a;" 
d="M258 657h68l-29 -225h225l-10 -67h-225l-29 -224h-68l29 224h-223l10 67h223z" />
    <glyph glyph-name="uni208B" unicode="&#x208b;" 
d="M-4 365l10 67h516l-10 -67h-516z" />
    <glyph glyph-name="uni208C" unicode="&#x208c;" 
d="M10 469l8 68h517l-9 -68h-516zM-16 260l8 68h516l-8 -68h-516z" />
    <glyph glyph-name="uni208D" unicode="&#x208d;" horiz-adv-x="323" 
d="M10 399l2 17q27 223 176 383h78q-154 -169 -180 -383l-2 -17q-13 -100 10.5 -209t65.5 -190h-74q-45 77 -67 185.5t-9 213.5z" />
    <glyph glyph-name="uni208E" unicode="&#x208e;" horiz-adv-x="323" 
d="M215 399l-2 -16q-27 -223 -176 -383h-78q154 169 180 383l2 16q13 101 -10 210t-65 190h73q45 -77 67 -186t9 -214z" />
    <glyph glyph-name="Euro" unicode="&#x20ac;" horiz-adv-x="1228" 
d="M88 901l12 82h158q63 330 200 482.5t351 152.5q231 0 315 -142.5t41 -412.5l-6 -39h-82q37 278 -22 397t-236 119h-12q-355 0 -465 -557h588l-51 -82h-553q-8 -41 -15 -92t-9 -82l-3 -31h489l-49 -82h-446q-20 -289 64.5 -423t263.5 -134h12q317 0 377 455h82l-2 -18
q-18 -158 -72 -271t-154 -178t-239 -65q-231 0 -335.5 152t-80.5 482h-158l10 82h154q9 113 27 205h-154z" />
    <glyph glyph-name="ruble" unicode="&#x20bd;" horiz-adv-x="1228" 
d="M315 676l-26 -209h440l-10 -78h-440l-52 -389h-82l52 389h-195l10 78h195l26 209h-194l10 78h195l110 843h404q69 0 131.5 -13t121.5 -45t99.5 -81.5t59 -129t6.5 -179.5l-7 -49q-12 -96 -48 -170.5t-85.5 -121.5t-114 -77.5t-129 -42.5t-135.5 -12h-342zM326 754h342
q52 0 98.5 7t102 29.5t97 59t74 101t43.5 149.5l7 49q11 89 -6 157t-51 107.5t-84 64.5t-97.5 33.5t-99.5 8.5h-326z" />
    <glyph glyph-name="numero" unicode="&#x2116;" horiz-adv-x="2170" 
d="M1276 1597l-209 -1597h-90l-647 1475l-45 -390l-142 -1085h-80l209 1597h90l646 -1474l45 389l143 1085h80zM2142 1214l-4 -32q-24 -189 -119.5 -296.5t-253.5 -107.5q-90 0 -154 32t-95 86.5t-43 128t2 157.5l4 32q24 189 119 296.5t253 107.5q73 0 128.5 -20.5
t89.5 -57.5t54.5 -87.5t23 -111t-4.5 -127.5zM1556 1214l-4 -32q-19 -155 33.5 -243.5t179.5 -88.5q126 0 200.5 90t94.5 242l4 32q19 155 -33.5 243.5t-179.5 88.5q-126 0 -200.5 -90t-94.5 -242zM1393 457l8 71h635l-8 -71h-635z" />
    <glyph glyph-name="published" unicode="&#x2117;" horiz-adv-x="1884" 
d="M719 727v-410h-82v963h328q44 0 83 -7t78 -25t66.5 -47t45 -76t17.5 -109v-25q0 -62 -17.5 -109t-45 -76t-66.5 -47t-78 -25t-83 -7h-246zM719 801h246q209 0 209 194v17q0 194 -209 194h-246v-405zM123 799q0 167 65 318.5t174.5 261t261 174.5t318.5 65t318.5 -65
t261 -174.5t174.5 -261t65 -318.5t-65 -318.5t-174.5 -261t-261 -174.5t-318.5 -65t-318.5 65t-261 174.5t-174.5 261t-65 318.5zM205 799q0 -150 58 -287t157 -235.5t235.5 -157t286.5 -58.5t286.5 58.5t235.5 157t157 235.5t58 287t-58 286.5t-157 235.5t-235.5 157
t-286.5 58t-286.5 -58t-235.5 -157t-157 -235.5t-58 -286.5z" />
    <glyph glyph-name="servicemark" unicode="&#x2120;" horiz-adv-x="1044" 
d="M205 1337q-87 11 -122.5 47.5t-35.5 100.5v8q0 71 46 112.5t128 41.5q94 0 132 -44.5t38 -138.5v-16h-69q0 72 -21.5 102.5t-77.5 30.5h-4q-102 0 -102 -82v-6q0 -42 24.5 -63.5t91.5 -30.5q88 -12 126 -49.5t38 -104.5v-8q0 -77 -45 -122.5t-131 -45.5q-90 0 -135 50
t-45 143v8h70q0 -68 25 -101.5t83 -33.5h4q105 0 105 96v4q0 45 -28 69t-95 33zM866 1536l-123 -451h-81l-123 451l4 -143v-308h-70v553h107l122 -446l123 446h107v-553h-70v308z" />
    <glyph glyph-name="trademark" unicode="&#x2122;" horiz-adv-x="1044" 
d="M256 1573v-488h-70v488h-145v65h360v-65h-145zM866 1536l-123 -451h-81l-123 451l4 -143v-308h-70v553h107l122 -446l123 446h107v-553h-70v308z" />
    <glyph glyph-name="uni2153" unicode="&#x2153;" horiz-adv-x="1638" 
d="M565 799h-489l8 65h209l84 637l-205 -127l-29 58l273 170h47l-96 -738h206zM176 0h-94l1388 1597h95zM1081 256q-13 -101 29.5 -152t128.5 -51h12q75 0 126 35t59 109l2 16q9 75 -31.5 118.5t-112.5 43.5h-116l8 65h112q74 0 125 33t60 100l2 17q9 74 -32.5 113.5
t-121.5 39.5h-8q-88 0 -137 -50t-64 -161h-71l4 31q31 246 272 246q126 0 185 -59.5t47 -159.5l-3 -17q-17 -132 -149 -165q55 -15 84 -68.5t20 -126.5l-2 -16q-12 -96 -82.5 -152.5t-181.5 -56.5q-130 0 -192 66.5t-47 185.5l2 16h73z" />
    <glyph glyph-name="uni2154" unicode="&#x2154;" horiz-adv-x="1638" 
d="M569 864l-8 -65h-500l7 45l391 366q51 48 74.5 81.5t29.5 80.5l2 17q9 74 -32.5 113.5t-120.5 39.5h-9q-88 0 -136.5 -50t-63.5 -161h-72l4 31q31 246 273 246q127 0 185 -59.5t46 -159.5l-2 -17q-7 -60 -34.5 -99.5t-86.5 -94.5l-336 -314h389zM176 0h-94l1388 1597h95z
M1081 256q-13 -101 29.5 -152t128.5 -51h12q75 0 126 35t59 109l2 16q9 75 -31.5 118.5t-112.5 43.5h-116l8 65h112q74 0 125 33t60 100l2 17q9 74 -32.5 113.5t-121.5 39.5h-8q-88 0 -137 -50t-64 -161h-71l4 31q31 246 272 246q126 0 185 -59.5t47 -159.5l-3 -17
q-17 -132 -149 -165q55 -15 84 -68.5t20 -126.5l-2 -16q-12 -96 -82.5 -152.5t-181.5 -56.5q-130 0 -192 66.5t-47 185.5l2 16h73z" />
    <glyph glyph-name="uni2155" unicode="&#x2155;" horiz-adv-x="1638" 
d="M565 799h-489l8 65h209l84 637l-205 -127l-29 58l273 170h47l-96 -738h206zM176 0h-94l1388 1597h95zM1008 256h73q-13 -101 29.5 -152t128.5 -51h12q74 0 128 45t65 135l2 17q11 93 -33.5 141.5t-120.5 48.5h-12q-58 0 -111.5 -28t-83.5 -80l-59 18l80 449h473l-8 -68
h-404l-51 -289q25 25 72 44.5t98 19.5q121 0 184 -68t48 -190l-2 -17q-15 -115 -88 -179t-183 -64q-130 0 -192 66.5t-47 185.5z" />
    <glyph glyph-name="uni2156" unicode="&#x2156;" horiz-adv-x="1638" 
d="M569 864l-8 -65h-500l7 45l391 366q51 48 74.5 81.5t29.5 80.5l2 17q9 74 -32.5 113.5t-120.5 39.5h-9q-88 0 -136.5 -50t-63.5 -161h-72l4 31q31 246 273 246q127 0 185 -59.5t46 -159.5l-2 -17q-7 -60 -34.5 -99.5t-86.5 -94.5l-336 -314h389zM176 0h-94l1388 1597h95z
M1008 256h73q-13 -101 29.5 -152t128.5 -51h12q74 0 128 45t65 135l2 17q11 93 -33.5 141.5t-120.5 48.5h-12q-58 0 -111.5 -28t-83.5 -80l-59 18l80 449h473l-8 -68h-404l-51 -289q25 25 72 44.5t98 19.5q121 0 184 -68t48 -190l-2 -17q-15 -115 -88 -179t-183 -64
q-130 0 -192 66.5t-47 185.5z" />
    <glyph glyph-name="uni2157" unicode="&#x2157;" horiz-adv-x="1638" 
d="M162 1055q-13 -101 29 -152t128 -51h13q75 0 125.5 34.5t58.5 108.5l2 17q9 75 -31 118.5t-112 43.5h-117l8 65h113q74 0 124.5 33t59.5 100l2 17q9 74 -32.5 113.5t-120.5 39.5h-9q-88 0 -136.5 -50t-63.5 -161h-72l4 31q31 246 273 246q125 0 184 -59.5t47 -159.5
l-2 -17q-17 -133 -150 -166q55 -15 84.5 -68.5t20.5 -125.5l-2 -17q-12 -96 -82.5 -152.5t-181.5 -56.5q-130 0 -192.5 66.5t-47.5 185.5l2 17h74zM176 0h-94l1388 1597h95zM1008 256h73q-13 -101 29.5 -152t128.5 -51h12q74 0 128 45t65 135l2 17q11 93 -33.5 141.5
t-120.5 48.5h-12q-58 0 -111.5 -28t-83.5 -80l-59 18l80 449h473l-8 -68h-404l-51 -289q25 25 72 44.5t98 19.5q121 0 184 -68t48 -190l-2 -17q-15 -115 -88 -179t-183 -64q-130 0 -192 66.5t-47 185.5z" />
    <glyph glyph-name="uni2158" unicode="&#x2158;" horiz-adv-x="1638" 
d="M453 799h-74l27 211h-343l9 49l413 538h72l-68 -520h132l-11 -67h-131zM469 1473l-305 -398l88 2h164l37 291zM176 0h-94l1388 1597h95zM1008 256h73q-13 -101 29.5 -152t128.5 -51h12q74 0 128 45t65 135l2 17q11 93 -33.5 141.5t-120.5 48.5h-12q-58 0 -111.5 -28
t-83.5 -80l-59 18l80 449h473l-8 -68h-404l-51 -289q25 25 72 44.5t98 19.5q121 0 184 -68t48 -190l-2 -17q-15 -115 -88 -179t-183 -64q-130 0 -192 66.5t-47 185.5z" />
    <glyph glyph-name="uni2159" unicode="&#x2159;" horiz-adv-x="1638" 
d="M565 799h-489l8 65h209l84 637l-205 -127l-29 58l273 170h47l-96 -738h206zM176 0h-94l1388 1597h95zM1559 809l-9 -66q-85 0 -169.5 -33t-149.5 -104q-67 -73 -107 -178q30 31 78.5 52.5t102.5 21.5q101 0 166 -62t51 -182l-2 -16q-17 -126 -89.5 -190t-189.5 -64
q-121 0 -181.5 80.5t-43.5 212.5l2 16q25 205 158 352q147 160 383 160zM1303 436h-9q-60 0 -113.5 -31t-86.5 -83l-7 -52q-12 -98 31.5 -157.5t118.5 -59.5h8q82 0 137.5 51t65.5 138l2 16q10 88 -28.5 133t-118.5 45z" />
    <glyph glyph-name="uni215A" unicode="&#x215a;" horiz-adv-x="1638" 
d="M88 1055h74q-13 -101 29 -152t128 -51h13q74 0 127.5 45t64.5 135l2 17q11 93 -33 141.5t-120 48.5h-13q-58 0 -111 -28.5t-83 -80.5l-60 19l80 448h473l-8 -67h-403l-51 -289q25 25 72 44.5t98 19.5q121 0 183.5 -68t47.5 -190l-2 -17q-15 -116 -87.5 -180t-182.5 -64
q-130 0 -192.5 66.5t-47.5 185.5zM176 0h-94l1388 1597h95zM1559 809l-9 -66q-85 0 -169.5 -33t-149.5 -104q-67 -73 -107 -178q30 31 78.5 52.5t102.5 21.5q101 0 166 -62t51 -182l-2 -16q-17 -126 -89.5 -190t-189.5 -64q-121 0 -181.5 80.5t-43.5 212.5l2 16
q25 205 158 352q147 160 383 160zM1303 436h-9q-60 0 -113.5 -31t-86.5 -83l-7 -52q-12 -98 31.5 -157.5t118.5 -59.5h8q82 0 137.5 51t65.5 138l2 16q10 88 -28.5 133t-118.5 45z" />
    <glyph glyph-name="uni215B" unicode="&#x215b;" horiz-adv-x="1638" 
d="M565 799h-489l8 65h209l84 637l-205 -127l-29 58l273 170h47l-96 -738h206zM176 0h-94l1388 1597h95zM1239 -12q-122 0 -184.5 63t-50.5 160l2 16q9 70 51.5 118.5t103.5 62.5q-53 17 -82 67t-22 113l2 16q12 98 78 151.5t186 53.5q126 0 187 -58t49 -157l-3 -16
q-18 -137 -149 -170q55 -15 84 -67t20 -124l-2 -16q-12 -96 -85 -154.5t-185 -58.5zM1294 375h-28q-73 0 -125.5 -39.5t-61.5 -108.5l-2 -16q-10 -76 35 -117t121 -41h12q75 0 129 37t62 111l2 16q9 75 -31 116.5t-113 41.5zM1327 743h-8q-79 0 -128 -35t-58 -104l-3 -16
q-9 -71 33 -109.5t115 -38.5h20q73 0 124.5 35.5t60.5 102.5l2 16q9 73 -34 111t-124 38z" />
    <glyph glyph-name="uni215C" unicode="&#x215c;" horiz-adv-x="1638" 
d="M162 1055q-13 -101 29 -152t128 -51h13q75 0 125.5 34.5t58.5 108.5l2 17q9 75 -31 118.5t-112 43.5h-117l8 65h113q74 0 124.5 33t59.5 100l2 17q9 74 -32.5 113.5t-120.5 39.5h-9q-88 0 -136.5 -50t-63.5 -161h-72l4 31q31 246 273 246q125 0 184 -59.5t47 -159.5
l-2 -17q-17 -133 -150 -166q55 -15 84.5 -68.5t20.5 -125.5l-2 -17q-12 -96 -82.5 -152.5t-181.5 -56.5q-130 0 -192.5 66.5t-47.5 185.5l2 17h74zM176 0h-94l1388 1597h95zM1239 -12q-122 0 -184.5 63t-50.5 160l2 16q9 70 51.5 118.5t103.5 62.5q-53 17 -82 67t-22 113
l2 16q12 98 78 151.5t186 53.5q126 0 187 -58t49 -157l-3 -16q-18 -137 -149 -170q55 -15 84 -67t20 -124l-2 -16q-12 -96 -85 -154.5t-185 -58.5zM1294 375h-28q-73 0 -125.5 -39.5t-61.5 -108.5l-2 -16q-10 -76 35 -117t121 -41h12q75 0 129 37t62 111l2 16
q9 75 -31 116.5t-113 41.5zM1327 743h-8q-79 0 -128 -35t-58 -104l-3 -16q-9 -71 33 -109.5t115 -38.5h20q73 0 124.5 35.5t60.5 102.5l2 16q9 73 -34 111t-124 38z" />
    <glyph glyph-name="uni215D" unicode="&#x215d;" horiz-adv-x="1638" 
d="M88 1055h74q-13 -101 29 -152t128 -51h13q74 0 127.5 45t64.5 135l2 17q11 93 -33 141.5t-120 48.5h-13q-58 0 -111 -28.5t-83 -80.5l-60 19l80 448h473l-8 -67h-403l-51 -289q25 25 72 44.5t98 19.5q121 0 183.5 -68t47.5 -190l-2 -17q-15 -116 -87.5 -180t-182.5 -64
q-130 0 -192.5 66.5t-47.5 185.5zM176 0h-94l1388 1597h95zM1239 -12q-122 0 -184.5 63t-50.5 160l2 16q9 70 51.5 118.5t103.5 62.5q-53 17 -82 67t-22 113l2 16q12 98 78 151.5t186 53.5q126 0 187 -58t49 -157l-3 -16q-18 -137 -149 -170q55 -15 84 -67t20 -124l-2 -16
q-12 -96 -85 -154.5t-185 -58.5zM1294 375h-28q-73 0 -125.5 -39.5t-61.5 -108.5l-2 -16q-10 -76 35 -117t121 -41h12q75 0 129 37t62 111l2 16q9 75 -31 116.5t-113 41.5zM1327 743h-8q-79 0 -128 -35t-58 -104l-3 -16q-9 -71 33 -109.5t115 -38.5h20q73 0 124.5 35.5
t60.5 102.5l2 16q9 73 -34 111t-124 38z" />
    <glyph glyph-name="uni215E" unicode="&#x215e;" horiz-adv-x="1638" 
d="M131 1311l37 286h504l-6 -45l-406 -753h-78l396 733l-113 -2h-240l-28 -219h-66zM176 0h-94l1388 1597h95zM1239 -12q-122 0 -184.5 63t-50.5 160l2 16q9 70 51.5 118.5t103.5 62.5q-53 17 -82 67t-22 113l2 16q12 98 78 151.5t186 53.5q126 0 187 -58t49 -157l-3 -16
q-18 -137 -149 -170q55 -15 84 -67t20 -124l-2 -16q-12 -96 -85 -154.5t-185 -58.5zM1294 375h-28q-73 0 -125.5 -39.5t-61.5 -108.5l-2 -16q-10 -76 35 -117t121 -41h12q75 0 129 37t62 111l2 16q9 75 -31 116.5t-113 41.5zM1327 743h-8q-79 0 -128 -35t-58 -104l-3 -16
q-9 -71 33 -109.5t115 -38.5h20q73 0 124.5 35.5t60.5 102.5l2 16q9 73 -34 111t-124 38z" />
    <glyph glyph-name="uni215F" unicode="&#x215f;" horiz-adv-x="1024" 
d="M565 799h-489l8 65h209l84 637l-205 -127l-29 58l273 170h47l-96 -738h206zM176 0h-94l1388 1597h95z" />
    <glyph glyph-name="arrowleft" unicode="&#x2190;" horiz-adv-x="1884" 
d="M922 1597h114l-757 -757h1462v-82h-1462l757 -758h-114l-799 799z" />
    <glyph glyph-name="arrowup" unicode="&#x2191;" horiz-adv-x="1884" 
d="M143 705v114l799 799l799 -799v-114l-758 757v-1462h-82v1462z" />
    <glyph glyph-name="arrowright" unicode="&#x2192;" horiz-adv-x="1884" 
d="M848 1597h115l798 -798l-798 -799h-115l758 758h-1463v82h1463z" />
    <glyph glyph-name="arrowdown" unicode="&#x2193;" horiz-adv-x="1884" 
d="M143 778v115l758 -758v1462h82v-1462l758 758v-115l-799 -798z" />
    <glyph glyph-name="uni2196" unicode="&#x2196;" horiz-adv-x="1884" 
d="M225 0h-82v1597h1598v-81h-1458l1478 -1479l-57 -57l-1479 1478v-1458z" />
    <glyph glyph-name="uni2197" unicode="&#x2197;" horiz-adv-x="1884" 
d="M1741 0h-82v1458l-1479 -1478l-57 57l1479 1479h-1459v81h1598v-1597z" />
    <glyph glyph-name="uni2198" unicode="&#x2198;" horiz-adv-x="1884" 
d="M143 0v82h1459l-1479 1479l57 57l1479 -1479v1458h82v-1597h-1598z" />
    <glyph glyph-name="uni2199" unicode="&#x2199;" horiz-adv-x="1884" 
d="M1741 82v-82h-1598v1597h82v-1458l1479 1479l57 -57l-1478 -1479h1458z" />
    <glyph glyph-name="minus" unicode="&#x2212;" horiz-adv-x="1228" 
d="M98 758l11 82h1024l-11 -82h-1024z" />
    <glyph glyph-name="approxequal" unicode="&#x2248;" horiz-adv-x="1228" 
d="M344 696q74 0 145 -23.5t118 -51t112.5 -51t130.5 -23.5q62 0 120.5 37t102.5 84l51 -58q-136 -141 -293 -141q-74 0 -144.5 23.5t-117.5 51t-112.5 51t-130.5 23.5q-111 0 -226 -120l-49 57q136 141 293 141zM399 1106q74 0 144.5 -23.5t117.5 -51.5t112 -51.5
t130 -23.5q62 0 122 37t103 84l50 -57q-130 -141 -293 -141q-74 0 -144.5 23.5t-117.5 51t-112 51t-130 23.5q-62 0 -122 -37t-103 -84l-50 58q130 141 293 141z" />
    <glyph glyph-name="notequal" unicode="&#x2260;" horiz-adv-x="1228" 
d="M125 963l12 81h608l191 267h88l-188 -267h325l-12 -81h-373l-233 -328h563l-10 -82h-611l-188 -266h-88l188 266h-325l10 82h373l231 328h-561z" />
    <glyph glyph-name="equivalence" unicode="&#x2261;" horiz-adv-x="1228" 
d="M154 1167l10 82h1024l-10 -82h-1024zM45 348l10 82h1024l-10 -82h-1024zM98 758l11 82h1024l-11 -82h-1024z" />
    <glyph glyph-name="lessequal" unicode="&#x2264;" horiz-adv-x="1228" 
d="M1188 1255l-952 -321l868 -322l-12 -84l-975 367l10 82l1073 366zM1067 338l-10 -84l-977 367l12 84z" />
    <glyph glyph-name="greaterequal" unicode="&#x2265;" horiz-adv-x="1228" 
d="M80 616l952 322l-868 322l12 83l975 -366l-10 -82l-1073 -367zM33 254l10 88l1073 367l-12 -88z" />
    <glyph glyph-name="squaremultiply" unicode="&#x22a0;" horiz-adv-x="1884" 
d="M1741 0h-1598v1597h1598v-1597zM1659 1516h-1434v-1434h1434v1434zM465 262l-59 60l477 477l-477 477l59 59l477 -477l477 477l60 -59l-478 -477l478 -477l-60 -60l-477 477z" />
    <glyph glyph-name="house" unicode="&#x2302;" horiz-adv-x="1740" 
d="M1597 0h-1454v922l727 696l727 -696v-922z" />
    <glyph glyph-name="blacksquare" unicode="&#x25a0;" horiz-adv-x="1884" 
d="M1741 0h-1598v1597h1598v-1597z" />
    <glyph glyph-name="blacksquare" unicode="&#xe740;" horiz-adv-x="1884" 
d="M1741 0h-1598v1597h1598v-1597z" />
    <glyph glyph-name="whitesquare" unicode="&#x25a1;" horiz-adv-x="1884" 
d="M1741 0h-1598v1597h1598v-1597zM1659 1516h-1434v-1434h1434v1434z" />
    <glyph glyph-name="blacksmallsquare" unicode="&#x25aa;" horiz-adv-x="1392" 
d="M1229 0h-1086v1085h1086v-1085z" />
    <glyph glyph-name="whitesmallsquare" unicode="&#x25ab;" horiz-adv-x="1392" 
d="M143 1085h1086v-1085h-1086v1085zM1147 1004h-922v-922h922v922z" />
    <glyph glyph-name="triagup" unicode="&#x25b2;" horiz-adv-x="1904" 
d="M993 1618l779 -1618h-86l-734 1528l-733 -1528h-86l778 1618h82z" />
    <glyph glyph-name="triagrt" unicode="&#x25ba;" horiz-adv-x="1904" 
d="M1782 840v-82l-1618 -778v86l1528 733l-1528 733v86z" />
    <glyph glyph-name="triagdn" unicode="&#x25bc;" horiz-adv-x="1904" 
d="M911 -20l-778 1617h86l733 -1527l734 1527h86l-779 -1617h-82z" />
    <glyph glyph-name="triaglf" unicode="&#x25c4;" horiz-adv-x="1904" 
d="M123 840l1618 778v-86l-1528 -733l1528 -733v-86l-1618 778v82z" />
    <glyph glyph-name="whitecircle" unicode="&#x25cb;" horiz-adv-x="1884" 
d="M123 799q0 167 65 318.5t174.5 261t261 174.5t318.5 65t318.5 -65t261 -174.5t174.5 -261t65 -318.5t-65 -318.5t-174.5 -261t-261 -174.5t-318.5 -65t-318.5 65t-261 174.5t-174.5 261t-65 318.5zM205 799q0 -150 58 -287t157 -235.5t235.5 -157t286.5 -58.5t286.5 58.5
t235.5 157t157 235.5t58 287t-58 286.5t-157 235.5t-235.5 157t-286.5 58t-286.5 -58t-235.5 -157t-157 -235.5t-58 -286.5z" />
    <glyph glyph-name="whitecircle" unicode="&#x25ef;" horiz-adv-x="1884" 
d="M123 799q0 167 65 318.5t174.5 261t261 174.5t318.5 65t318.5 -65t261 -174.5t174.5 -261t65 -318.5t-65 -318.5t-174.5 -261t-261 -174.5t-318.5 -65t-318.5 65t-261 174.5t-174.5 261t-65 318.5zM205 799q0 -150 58 -287t157 -235.5t235.5 -157t286.5 -58.5t286.5 58.5
t235.5 157t157 235.5t58 287t-58 286.5t-157 235.5t-235.5 157t-286.5 58t-286.5 -58t-235.5 -157t-157 -235.5t-58 -286.5z" />
    <glyph glyph-name="blackcircle" unicode="&#x25cf;" horiz-adv-x="1884" 
d="M123 799q0 167 65 318.5t174.5 261t261 174.5t318.5 65t318.5 -65t261 -174.5t174.5 -261t65 -318.5t-65 -318.5t-174.5 -261t-261 -174.5t-318.5 -65t-318.5 65t-261 174.5t-174.5 261t-65 318.5z" />
    <glyph glyph-name="uni25E2" unicode="&#x25e2;" horiz-adv-x="1904" 
d="M1769 29l-57 -58l-1694 592l62 62l1597 -564l-561 1600l62 61z" />
    <glyph glyph-name="uni25E3" unicode="&#x25e3;" horiz-adv-x="1904" 
d="M135 29l592 1693l61 -61l-563 -1600l1600 564l61 -62l-1693 -592z" />
    <glyph glyph-name="uni25E4" unicode="&#x25e4;" horiz-adv-x="1904" 
d="M135 1569l58 57l1693 -592l-61 -61l-1600 561l563 -1597l-61 -62z" />
    <glyph glyph-name="uni25E5" unicode="&#x25e5;" horiz-adv-x="1904" 
d="M1769 1569l-591 -1694l-62 62l561 1597l-1597 -561l-62 61l1694 592z" />
    <glyph glyph-name="uni2605" unicode="&#x2605;" horiz-adv-x="1802" 
d="M901 369l-532 -389l202 628l-532 387h659l203 627l203 -627h659l-532 -387l203 -628z" />
    <glyph glyph-name="ballotboxwithx" unicode="&#x2612;" horiz-adv-x="1392" 
d="M414 211l-60 59l273 273l-273 272l60 59l272 -272l272 272l60 -59l-273 -272l273 -273l-60 -59l-272 272zM143 1085h1086v-1085h-1086v1085zM1147 1004h-922v-922h922v922z" />
    <glyph glyph-name="uni263C" unicode="&#x263c;" horiz-adv-x="1966" 
d="M1067 391l-86 -414l-86 414q0 -80 -59 -135q-17 -16 -61 -45.5t-61.5 -53.5t-17.5 -61q0 -19 6 -37t12 -26l7 -8q-45 13 -69.5 48t-24.5 79q0 61 43 104q41 41 62.5 97t21.5 98l-353 -232l232 352q-53 -53 -135 -53q-19 0 -64.5 8.5t-62.5 8.5q-31 0 -55 -10t-36 -24.5
t-19.5 -29.5t-8.5 -25l-2 -10q-17 31 -17 58q0 59 42.5 100t103.5 41q42 0 89.5 17.5t74.5 35t32 25.5l-413 86l413 86q-80 0 -135 59q-16 18 -37.5 48.5t-34 47t-35.5 30t-52 13.5q-19 0 -37 -6t-26 -12l-9 -6q13 45 48 69.5t79 24.5q61 0 104 -43q41 -41 97 -62.5
t98 -21.5l-232 352l353 -231q-54 54 -54 135q0 19 8.5 64.5t8.5 62.5q0 31 -10 55t-24.5 36t-29 19.5t-24.5 8.5l-10 2q29 16 57 16q59 0 100 -42t41 -103q0 -42 17.5 -89.5t35 -75t25.5 -32.5l86 414l86 -414q0 80 59 135q17 16 61 45.5t61.5 53.5t17.5 61q0 19 -6 37
t-12 26l-7 9q45 -13 69.5 -48t24.5 -79q0 -62 -43 -105q-41 -41 -62.5 -96.5t-21.5 -97.5l353 231l-232 -352q53 53 135 53q19 0 64.5 -8t62.5 -8q31 0 55 10t36 24.5t19.5 29t8.5 24.5l2 10q17 -31 17 -57q0 -59 -42.5 -100t-103.5 -41q-42 0 -89.5 -17.5t-74.5 -35
t-32 -25.5l413 -86l-413 -86q79 0 135 -60q16 -18 37.5 -48.5t34 -47t35.5 -30t52 -13.5q19 0 37 6t26 12l9 7q-13 -45 -48.5 -70t-78.5 -25q-61 0 -104 43q-41 41 -97 62.5t-98 21.5l232 -352l-353 232q54 -54 54 -136q0 -19 -8.5 -64.5t-8.5 -62.5q0 -31 10 -55
t24.5 -35.5t29 -19t24.5 -8.5l10 -2q-31 -17 -57 -17q-59 0 -100 42.5t-41 103.5q0 42 -17.5 89.5t-35 74.5t-25.5 32z" />
    <glyph glyph-name="uni263E" unicode="&#x263e;" horiz-adv-x="1966" 
d="M1278 1491q-181 0 -333.5 -92.5t-241.5 -252t-89 -347.5q0 -141 52.5 -269.5t141.5 -221t212 -147.5t258 -55q99 0 197 31q-218 -157 -492 -157q-167 0 -318.5 65t-261 174.5t-174.5 261t-65 318.5t65 318.5t174.5 261t261 174.5t318.5 65q268 0 492 -158
q-109 31 -197 31z" />
    <glyph glyph-name="spade" unicode="&#x2660;" horiz-adv-x="1843" 
d="M924 1618q66 -99 199 -238t278 -233q60 -39 104 -73t90.5 -79t75.5 -90t47.5 -102t18.5 -119q0 -150 -105 -253t-256 -103q-142 0 -246 93.5t-163 235.5l-6 -2q17 -210 54 -356.5t113 -298.5h-413q76 152 113.5 299t54.5 356l-6 2q-27 -67 -65.5 -124t-89 -104
t-116.5 -74t-139 -27q-151 0 -256 103t-105 253q0 62 18.5 119t47.5 102t75.5 90t90.5 79t104 73q146 95 279 233.5t199 237.5h4z" />
    <glyph glyph-name="club" unicode="&#x2663;" horiz-adv-x="1843" 
d="M715 0q76 152 113.5 299t54.5 356l-6 2q-27 -67 -65.5 -124t-89 -104t-116.5 -74t-139 -27q-151 0 -256 103t-105 253q0 161 99 265t258 104q84 0 172 -47l4 4q-78 118 -78 239q0 154 103.5 261.5t257.5 107.5t257 -107.5t103 -261.5q0 -121 -78 -239l4 -4q88 47 172 47
q159 0 258 -104t99 -265q0 -150 -105 -253t-256 -103q-142 0 -246 93.5t-163 235.5l-6 -2q17 -210 54 -356.5t113 -298.5h-413z" />
    <glyph glyph-name="heart" unicode="&#x2665;" horiz-adv-x="1843" 
d="M924 -20h-4q-59 88 -193.5 259t-284.5 341q-64 73 -114 136.5t-105 148.5t-86 170t-31 161q0 185 107 303.5t285 118.5q92 0 163.5 -25.5t120.5 -73t80.5 -100.5t55.5 -123h8q24 70 55.5 123t80.5 100.5t120.5 73t163.5 25.5q178 0 284.5 -118.5t106.5 -303.5
q0 -76 -31 -161t-86 -170t-105 -148.5t-114 -136.5q-149 -169 -283.5 -340t-193.5 -260z" />
    <glyph glyph-name="diamond" unicode="&#x2666;" horiz-adv-x="1843" 
d="M1673 799q-218 -170 -415 -386t-334 -433h-4q-137 217 -334.5 433t-415.5 386q218 170 415.5 386t334.5 433h4q137 -217 334 -433t415 -386z" />
    <glyph glyph-name="uni267B" unicode="&#x267b;" horiz-adv-x="1966" 
d="M1767 545l2 -4l-196 -342q-41 -60 -60 -77q-44 -38 -120 -38h-117v-100l-232 278l232 277v-101h297q34 0 66.5 11t54.5 27t39.5 31.5t25.5 26.5zM381 250h-4l-197 344q-23 42 -31.5 65.5t-5.5 63t29 82.5l57 100l-86 49l357 64l121 -340l-84 49q-144 -246 -148 -256
q-27 -46 -29 -101.5t10 -87.5zM827 1595v2h396q37 -1 56 -3t46 -11t47 -29t39 -53l57 -100l88 49l-124 -340l-355 64l84 49l-147 256q-27 47 -74 76t-80 35zM410 1225l137 243q21 38 69 64q63 34 131.5 30.5t126.5 -33t80 -69.5l-237 -411zM913 84h-276q-43 0 -90 27
q-45 26 -76 70.5t-42.5 91.5t-9.5 91.5t19 73.5h475v-354zM1651 1079l141 -239q20 -36 20 -90q1 -99 -78 -178.5t-151 -79.5l-237 411z" />
    <glyph glyph-name="uni267C" unicode="&#x267c;" horiz-adv-x="1966" 
d="M598 1321l-106 -188l237 -138l184 320q-17 30 -62 52.5t-98 25.5t-102 -23q-37 -21 -53 -49zM807 1421v-2q4 0 11 -1.5t26.5 -7.5t36.5 -14.5t37.5 -26.5t33.5 -40l115 -199l-66 -38l275 -50l96 265l-67 -39l-45 78q-28 49 -60 62t-86 13h-307zM659 248h215v274h-368
q-13 -22 -15 -57t7.5 -71.5t33.5 -71t58 -54.5q36 -20 69 -20zM467 377h2q-5 10 -10.5 27.5t-5 63t21.5 81.5l115 199l65 -39l-94 264l-276 -49l67 -39l-45 -78q-20 -34 -22.5 -65t4 -48.5t24.5 -50.5zM1563 834l-109 186l-237 -137l184 -320q57 0 118 61.5t60 139.5
q0 42 -16 70zM1546 602l-2 2q-2 -3 -6.5 -8.5t-19.5 -20t-31.5 -25t-42 -19.5t-51.5 -9h-230v78l-180 -215l180 -215v78h90q57 0 85 21.5t55 66.5zM131 799q0 221 108.5 407.5t295 295t407.5 108.5t407.5 -108.5t295 -295t108.5 -407.5t-108.5 -407.5t-295 -295
t-407.5 -108.5t-407.5 108.5t-295 295t-108.5 407.5z" />
    <glyph glyph-name="uni267D" unicode="&#x267d;" horiz-adv-x="1966" 
d="M492 1133l106 188q16 28 53 49q49 26 102 23t98 -25.5t62 -52.5l-184 -320zM807 1419v2h307q54 0 86 -13t60 -62l45 -78l67 39l-96 -265l-275 50l66 38l-115 199q-21 36 -57 58.5t-62 26.5zM874 248h-215q-33 0 -69 20q-34 20 -58 54.5t-33.5 71t-7.5 71.5t15 57h368
v-274zM469 377h-2l-154 266q-18 33 -24.5 50.5t-4 48.5t22.5 65l45 78l-67 39l276 49l94 -264l-65 39l-115 -199q-21 -36 -22.5 -79t7.5 -68zM1454 1020l109 -186q16 -28 16 -70q1 -78 -60 -139.5t-118 -61.5l-184 320zM1544 604l2 -2l-153 -266q-18 -30 -31 -46t-41 -29
t-68 -13h-90v-78l-180 215l180 215v-78h230q42 0 79.5 20.5t54.5 41.5zM123 799q0 167 65 318.5t174.5 261t261 174.5t318.5 65t318.5 -65t261 -174.5t174.5 -261t65 -318.5t-65 -318.5t-174.5 -261t-261 -174.5t-318.5 -65t-318.5 65t-261 174.5t-174.5 261t-65 318.5z
M201 799q0 -202 99 -372.5t269.5 -270t372.5 -99.5t372.5 99.5t269.5 270t99 372.5q0 151 -58.5 288.5t-157.5 236.5t-236.5 157.5t-288.5 58.5t-288.5 -58.5t-236.5 -157.5t-157.5 -236.5t-58.5 -288.5z" />
    <glyph glyph-name="mediumwhitecircle" unicode="&#x26aa;" horiz-adv-x="1372" 
d="M123 543q0 153 75.5 282.5t205 205t282.5 75.5t282.5 -75.5t205 -205t75.5 -282.5t-75.5 -282.5t-205 -205t-282.5 -75.5t-282.5 75.5t-205 205t-75.5 282.5zM205 543q0 -131 64.5 -242t175 -175.5t241.5 -64.5t241.5 64.5t175 175.5t64.5 242t-64.5 241.5t-175 175
t-241.5 64.5t-241.5 -64.5t-175 -175t-64.5 -241.5z" />
    <glyph glyph-name="mediumblackcircle" unicode="&#x26ab;" horiz-adv-x="1372" 
d="M123 543q0 153 75.5 282.5t205 205t282.5 75.5t282.5 -75.5t205 -205t75.5 -282.5t-75.5 -282.5t-205 -205t-282.5 -75.5t-282.5 75.5t-205 205t-75.5 282.5z" />
    <glyph glyph-name="anglebracketleft" unicode="&#x3008;" 
d="M657 1720l-464 -991l200 -975h-82l-202 983l460 983h88z" />
    <glyph glyph-name="anglebracketright" unicode="&#x3009;" 
d="M-51 -246l465 991l-201 975h82l203 -983l-461 -983h-88z" />
    <glyph glyph-name="fi" unicode="&#xe38c;" horiz-adv-x="1167" 
d="M406 1366l-37 -281h327l-10 -77h-328l-131 -1008h-82l131 1008h-174l11 77h174l41 306q37 268 323 268q86 0 140 -23l-11 -73q-14 6 -54 12t-75 6q-109 0 -169 -47.5t-76 -167.5zM821 0l142 1085h81l-141 -1085h-82zM1120 1505l-16 -123h-123l16 123h123z" />
    <glyph glyph-name="fi" unicode="&#xfb01;" horiz-adv-x="1167" 
d="M406 1366l-37 -281h327l-10 -77h-328l-131 -1008h-82l131 1008h-174l11 77h174l41 306q37 268 323 268q86 0 140 -23l-11 -73q-14 6 -54 12t-75 6q-109 0 -169 -47.5t-76 -167.5zM821 0l142 1085h81l-141 -1085h-82zM1120 1505l-16 -123h-123l16 123h123z" />
    <glyph glyph-name="fl" unicode="&#xe38d;" horiz-adv-x="1167" 
d="M406 1366l-37 -281h327l-10 -77h-328l-131 -1008h-82l131 1008h-174l11 77h174l41 306q37 268 323 268q86 0 140 -23l-11 -73q-14 6 -54 12t-75 6q-109 0 -169 -47.5t-76 -167.5zM821 0l215 1638h82l-215 -1638h-82z" />
    <glyph glyph-name="fl" unicode="&#xfb02;" horiz-adv-x="1167" 
d="M406 1366l-37 -281h327l-10 -77h-328l-131 -1008h-82l131 1008h-174l11 77h174l41 306q37 268 323 268q86 0 140 -23l-11 -73q-14 6 -54 12t-75 6q-109 0 -169 -47.5t-76 -167.5zM821 0l215 1638h82l-215 -1638h-82z" />
    <glyph glyph-name="invertedbreve" unicode="&#xe411;" horiz-adv-x="1024" 
d="M621 1618q156 0 222.5 -94t45.5 -254h-74q16 129 -30.5 204.5t-170.5 75.5t-191 -75.5t-83 -204.5h-74q21 161 110.5 254.5t244.5 93.5z" />
    <glyph glyph-name="doublegrave" unicode="&#xe412;" horiz-adv-x="1024" 
d="M281 1597h86l141 -327h-86zM506 1597h86l141 -327h-86z" />
    <glyph glyph-name="caronSlovak" unicode="&#xe413;" horiz-adv-x="1024" 
d="M791 1638h92l-80 -368h-62z" />
    <glyph glyph-name="commaaccent" unicode="&#xe414;" horiz-adv-x="1232" 
d="M457 -123l-15 -98q-12 -95 -69 -152t-142 -57l9 61q52 0 89 30.5t50 92.5h-62l17 123h123z" />
    <glyph glyph-name="commaaccent" unicode="&#xf6c3;" horiz-adv-x="1232" 
d="M457 -123l-15 -98q-12 -95 -69 -152t-142 -57l9 61q52 0 89 30.5t50 92.5h-62l17 123h123z" />
    <glyph glyph-name="dotbelow" unicode="&#xe415;" horiz-adv-x="1232" 
d="M444 -205l-16 -123h-123l17 123h122z" />
    <glyph glyph-name="altcedilla" unicode="&#xe416;" horiz-adv-x="1232" 
d="M500 -279q4 42 -29 61t-94 19q-67 0 -125 -20l8 63q65 25 143 25q70 0 121.5 -34.5t42.5 -110.5q-22 -154 -219 -154q-117 0 -174 45l35 61q51 -38 137 -38q74 0 111 18.5t43 64.5z" />
    <glyph glyph-name="grave.cap" unicode="&#xe421;" horiz-adv-x="1024" 
d="M498 1946h86l96 -226h-86z" />
    <glyph glyph-name="acute.cap" unicode="&#xe422;" horiz-adv-x="1024" 
d="M752 1946h86l-158 -226h-86z" />
    <glyph glyph-name="circumflex.cap" unicode="&#xe423;" horiz-adv-x="1024" 
d="M498 1720h-97l236 226h61l174 -226h-88l-122 158z" />
    <glyph glyph-name="tilde.cap" unicode="&#xe424;" horiz-adv-x="1024" 
d="M874 1909h74q-10 -85 -55.5 -128.5t-114.5 -43.5q-40 0 -78.5 19.5t-63.5 43t-56 43t-58 19.5q-79 0 -94 -105h-74q12 85 58 128.5t114 43.5q40 0 78 -19.5t63 -43t55.5 -43t57.5 -19.5q82 0 94 105z" />
    <glyph glyph-name="macron.cap" unicode="&#xe425;" horiz-adv-x="1024" 
d="M442 1792l11 82h409l-10 -82h-410z" />
    <glyph glyph-name="breve.cap" unicode="&#xe426;" horiz-adv-x="1024" 
d="M639 1700q-127 0 -192 68.5t-50 177.5h74q-11 -80 32.5 -129.5t139.5 -49.5t153 49.5t68 129.5h74q-15 -110 -94 -178t-205 -68z" />
    <glyph glyph-name="invertedbreve.cap" unicode="&#xe427;" horiz-adv-x="1024" 
d="M666 1966q127 0 191 -68t50 -178h-73q11 80 -32.5 129t-139.5 49t-153.5 -49t-68.5 -129h-73q14 110 93.5 178t205.5 68z" />
    <glyph glyph-name="dotaccent.cap" unicode="&#xe428;" horiz-adv-x="1024" 
d="M721 1894l-16 -122h-123l16 122h123z" />
    <glyph glyph-name="dieresis.cap" unicode="&#xe429;" horiz-adv-x="1024" 
d="M567 1894l-16 -122h-123l16 122h123zM874 1894l-16 -122h-123l17 122h122z" />
    <glyph glyph-name="ring.cap" unicode="&#xe42a;" horiz-adv-x="1024" 
d="M461 1782q11 77 72 130.5t137 53.5q77 0 123 -54t36 -130q-11 -77 -71.5 -131t-136.5 -54q-77 0 -123.5 54.5t-36.5 130.5zM526 1782q-6 -50 24 -84.5t79 -34.5q50 0 89.5 35t45.5 84q6 50 -23.5 84.5t-78.5 34.5q-50 0 -90 -35t-46 -84z" />
    <glyph glyph-name="hungarumlaut.cap" unicode="&#xe42b;" horiz-adv-x="1024" 
d="M639 1946h86l-158 -226h-86zM864 1946h86l-157 -226h-86z" />
    <glyph glyph-name="doublegrave.cap" unicode="&#xe42c;" horiz-adv-x="1024" 
d="M610 1946h86l97 -226h-86zM385 1946h86l96 -226h-86z" />
    <glyph glyph-name="caron.cap" unicode="&#xe42d;" horiz-adv-x="1024" 
d="M432 1946h88l121 -158l166 158h96l-235 -226h-62z" />
    <glyph glyph-name="commaaccent.cap" unicode="&#xe42e;" horiz-adv-x="1024" 
d="M575 1720l13 99q8 63 51.5 105t122.5 42l-8 -61q-47 0 -69.5 -14t-31.5 -48h62l-17 -123h-123z" />
    <glyph glyph-name="exclamdown.cap" unicode="&#xe441;" horiz-adv-x="409" 
d="M152 0h-95l185 1239h49zM238 1475l14 122h123l-15 -122h-122z" />
    <glyph glyph-name="questiondown.cap" unicode="&#xe444;" horiz-adv-x="901" 
d="M360 57q74 0 132 24.5t97.5 67.5t68.5 110t46.5 141t30.5 173h82l-4 -26q-17 -111 -38 -192t-55.5 -155.5t-81.5 -120t-117 -72.5t-161 -27q-177 0 -263.5 85t-86.5 242q0 102 22.5 184.5t59.5 140.5t82.5 109t94 100.5t91.5 102.5t77 128.5t48 166.5h50q-8 -91 -37 -169
t-68 -134t-84.5 -108.5t-89.5 -103.5t-80 -106t-58 -129t-22 -161q0 -136 63 -203.5t201 -67.5zM618 1597l-14 -122h-123l15 122h122z" />
    <glyph glyph-name="guilsinglleft.cap" unicode="&#xe451;" 
d="M561 1147l-12 -98l-367 -256l299 -256l-12 -86l-367 317l9 61z" />
    <glyph glyph-name="guilsinglright.cap" unicode="&#xe452;" 
d="M139 1061l13 86l368 -318l-8 -61l-453 -317l13 98l368 256z" />
    <glyph glyph-name="guillemotleft.cap" unicode="&#xe453;" horiz-adv-x="1024" 
d="M561 1147l-12 -98l-369 -256l301 -256l-12 -86l-369 317l9 61zM971 1147l-13 -98l-368 -256l301 -256l-12 -86l-369 317l8 61z" />
    <glyph glyph-name="guillemotright.cap" unicode="&#xe454;" horiz-adv-x="1024" 
d="M549 1061l12 86l367 -318l-8 -61l-451 -317l12 98l367 256zM139 1061l13 86l366 -318l-8 -61l-451 -317l13 98l366 256z" />
    <glyph glyph-name="slash.cap" unicode="&#xe461;" 
d="M51 0h-82l602 1597h82z" />
    <glyph glyph-name="backslash.cap" unicode="&#xe462;" 
d="M178 1597h82l184 -1597h-82z" />
    <glyph glyph-name="bar.cap" unicode="&#xe463;" horiz-adv-x="368" 
d="M43 0l209 1597h82l-209 -1597h-82z" />
    <glyph glyph-name="doublebar.cap" unicode="&#xe464;" horiz-adv-x="573" 
d="M43 0l209 1597h82l-209 -1597h-82zM248 0l209 1597h82l-209 -1597h-82z" />
    <glyph glyph-name="brokenbar.cap" unicode="&#xe465;" horiz-adv-x="368" 
d="M158 881l94 716h82l-94 -716h-82zM43 0l94 717h82l-94 -717h-82z" />
    <glyph glyph-name="bullet.cap" unicode="&#xe466;" horiz-adv-x="778" 
d="M672 1044l-66 -491h-491l65 491h492z" />
    <glyph glyph-name="onethirdemdash" unicode="&#xe471;" horiz-adv-x="681" 
d="M588 678h-518l10 78h518z" />
    <glyph glyph-name="threequarteremdash" unicode="&#xe472;" horiz-adv-x="1536" 
d="M70 678l10 78h1372l-10 -78h-1372z" />
    <glyph glyph-name="periodcentered.cap" unicode="&#xe481;" horiz-adv-x="409" 
d="M279 860l-17 -123h-123l17 123h123z" />
    <glyph glyph-name="hyphen.cap" unicode="&#xe482;" horiz-adv-x="655" 
d="M80 760l10 78h492l-11 -78h-491z" />
    <glyph glyph-name="onethirdemdash.cap" unicode="&#xe483;" horiz-adv-x="681" 
d="M598 760h-500l11 78h499z" />
    <glyph glyph-name="endash.cap" unicode="&#xe484;" horiz-adv-x="1024" 
d="M80 760l10 78h860l-10 -78h-860z" />
    <glyph glyph-name="threequarteremdash.cap" unicode="&#xe485;" horiz-adv-x="1536" 
d="M80 760l10 78h1372l-10 -78h-1372z" />
    <glyph glyph-name="emdash.cap" unicode="&#xe486;" horiz-adv-x="2048" 
d="M80 760l10 78h1884l-10 -78h-1884z" />
    <glyph glyph-name="figuredash.cap" unicode="&#xe487;" horiz-adv-x="1228" 
d="M80 760l10 78h1065l-10 -78h-1065z" />
    <glyph glyph-name="uni2015.cap" unicode="&#xe488;" horiz-adv-x="2457" 
d="M80 760l10 78h2294l-10 -78h-2294z" />
    <glyph glyph-name="parenleft.cap" unicode="&#xe491;" 
d="M133 776l6 47q53 410 350 774h95q-311 -382 -361 -774l-6 -49q-27 -209 15.5 -409t136.5 -365h-90q-200 360 -146 776z" />
    <glyph glyph-name="parenright.cap" unicode="&#xe492;" 
d="M485 821l-6 -47q-53 -410 -350 -774h-94q140 172 237 370t123 404l6 49q27 210 -15 409.5t-136 364.5h90q199 -359 145 -776z" />
    <glyph glyph-name="bracketleft.cap" unicode="&#xe493;" 
d="M252 1597h379l-10 -81h-297l-189 -1434h297l-10 -82h-379z" />
    <glyph glyph-name="bracketright.cap" unicode="&#xe494;" 
d="M371 0h-379l10 82h297l188 1434h-297l11 81h379z" />
    <glyph glyph-name="braceleft.cap" unicode="&#xe495;" 
d="M631 1597l-10 -81q-76 0 -120.5 -17t-74 -66.5t-41.5 -142.5l-37 -291q-18 -149 -135 -200q100 -55 82 -201l-39 -291q-7 -50 -7.5 -85.5t7.5 -60.5t20.5 -40.5t36.5 -24t51 -11.5t68 -3l-10 -82h-31q-38 0 -71 6.5t-65.5 24.5t-53.5 46t-31 74t-2 105l41 317
q4 39 5 68.5t-9 50t-21.5 33.5t-33.5 20.5t-45 10t-56 2.5l12 82q100 0 146.5 36t60.5 148l43 317q8 60 30.5 106.5t51 74t65.5 45t71 24t71 6.5h31z" />
    <glyph glyph-name="braceright.cap" unicode="&#xe496;" 
d="M-8 0l10 82q114 0 166 45t70 180l36 291q19 149 136 201q-100 55 -82 200l39 291q7 50 7 85.5t-7.5 60.5t-20.5 40.5t-37 24.5t-51 12t-68 3l11 81h30q48 0 88.5 -12t76.5 -38.5t52.5 -79.5t6.5 -126l-41 -317q-4 -40 -5 -68.5t8.5 -49t21 -33.5t33.5 -20.5t45 -10
t56 -2.5l-12 -82q-100 0 -146.5 -36.5t-60.5 -148.5l-43 -317q-10 -75 -40.5 -128t-73 -79t-85 -37.5t-89.5 -11.5h-31z" />
    <glyph glyph-name="anglebracketleft.cap" unicode="&#xe497;" 
d="M369 0h-82l-170 799l379 798h86l-381 -804z" />
    <glyph glyph-name="anglebracketright.cap" unicode="&#xe498;" 
d="M254 1597h82l170 -798l-379 -799h-86l381 805z" />
    <glyph glyph-name="lowline" unicode="&#xe511;" horiz-adv-x="655" 
d="M2 0l10 78h451l-10 -78h-451z" />
    <glyph glyph-name="underscoremonospace" unicode="&#xe512;" horiz-adv-x="1228" 
d="M-31 -242l11 78h1024l-11 -78h-1024z" />
    <glyph glyph-name="underscoremonospace" unicode="&#xff3f;" horiz-adv-x="1228" 
d="M-31 -242l11 78h1024l-11 -78h-1024z" />
    <glyph glyph-name="at.cap" unicode="&#xe513;" horiz-adv-x="1945" 
d="M897 -147h12q403 0 699 213l39 -66q-297 -225 -744 -225q-443 0 -667 262t-166 721l10 82q39 303 181.5 526t366.5 340t505 117q143 0 268.5 -32.5t227.5 -100.5t170.5 -165t97 -233.5t6.5 -298.5l-9 -61q-19 -144 -60 -251.5t-95.5 -174t-130.5 -107t-155.5 -56
t-180.5 -15.5h-51v155q-130 -176 -347 -176q-86 0 -154 27t-108.5 73t-66 107.5t-28 130.5t6.5 143l6 41q12 76 34.5 143.5t61.5 130.5t90 108.5t124 72.5t159 27q118 0 195 -50t113 -128l41 157h61l-49 -307l-78 -580q61 1 109 6.5t99 20t90 38.5t77.5 64t66 95t49.5 131.5
t35 173.5l9 61q20 152 -4.5 278t-85.5 212.5t-151.5 146.5t-199 87.5t-231.5 27.5h-12q-253 0 -460 -108t-342 -314t-169 -483l-10 -82q-27 -215 14 -387t141 -285t250 -173t340 -60zM1284 1044q-36 76 -106 132.5t-174 56.5q-84 0 -152.5 -31t-115.5 -86.5t-77 -127.5
t-43 -159l-6 -41q-18 -116 5 -205.5t93.5 -143.5t182.5 -54q104 0 190 56t142 132z" />
    <glyph glyph-name="zero.inf" unicode="&#xe571;" 
d="M-63 -182l45 342q16 124 76.5 181.5t191.5 57.5q125 0 179 -65t40 -174l-45 -342q-16 -124 -76.5 -182t-191.5 -58q-125 0 -179 65t-40 175zM352 -172l43 324q11 91 -23 136.5t-126 45.5h-4q-95 0 -135.5 -43t-53.5 -141l-43 -324q-12 -91 22.5 -136.5t127.5 -45.5h4
q95 0 135 43t53 141z" />
    <glyph glyph-name="one.inf" unicode="&#xe572;" 
d="M406 -410h-490l8 66h209l84 637l-205 -127l-28 57l272 170h47l-96 -737h207z" />
    <glyph glyph-name="two.inf" unicode="&#xe573;" 
d="M410 -344l-9 -66h-499l6 45l391 367q51 48 74.5 81.5t29.5 80.5l3 16q9 74 -33 114t-121 40h-8q-88 0 -137 -50t-64 -161h-72l4 31q31 245 273 245q127 0 185 -59.5t46 -159.5l-2 -16q-7 -60 -34.5 -100.5t-86.5 -94.5l-336 -313h390z" />
    <glyph glyph-name="three.inf" unicode="&#xe574;" 
d="M2 -154q-13 -101 29.5 -151.5t128.5 -50.5h12q75 0 125.5 34.5t58.5 108.5l2 16q9 75 -31 118.5t-112 43.5h-117l8 66h113q74 0 124.5 33t59.5 100l3 16q9 74 -33 114t-121 40h-8q-88 0 -137 -50t-64 -161h-72l4 31q31 245 273 245q125 0 184 -59.5t47 -159.5l-2 -16
q-17 -133 -149 -166q55 -15 84 -68.5t20 -126.5l-2 -16q-12 -96 -82.5 -152.5t-181.5 -56.5q-130 0 -192.5 66.5t-47.5 185.5l2 16h74z" />
    <glyph glyph-name="four.inf" unicode="&#xe575;" 
d="M293 -410h-74l27 211h-342l8 49l414 539h71l-67 -520h131l-10 -68h-132zM309 264l-305 -397l88 2h164l37 291z" />
    <glyph glyph-name="five.inf" unicode="&#xe576;" 
d="M-72 -154h74q-13 -101 29.5 -151.5t128.5 -50.5h12q74 0 128 45t65 135l2 16q11 93 -33.5 142t-120.5 49h-12q-58 0 -111.5 -28.5t-83.5 -80.5l-59 19l80 448h473l-8 -67h-404l-51 -289q25 25 72 44t98 19q121 0 183.5 -68t47.5 -190l-2 -16q-15 -116 -87.5 -180
t-182.5 -64q-130 0 -192.5 66.5t-47.5 185.5z" />
    <glyph glyph-name="six.inf" unicode="&#xe577;" 
d="M479 399l-8 -65q-85 0 -169.5 -33t-149.5 -104q-67 -72 -107 -179q30 32 78 53t102 21q101 0 166 -62t51 -182l-2 -16q-17 -126 -89 -190t-189 -64q-121 0 -181.5 80.5t-43.5 212.5l2 16q13 103 49 188t108 165q146 159 383 159zM223 27h-8q-60 0 -114 -31.5t-87 -83.5
l-6 -51q-12 -98 31.5 -157.5t118.5 -59.5h8q82 0 137.5 50.5t65.5 137.5l2 16q10 88 -29 133.5t-119 45.5z" />
    <glyph glyph-name="seven.inf" unicode="&#xe578;" 
d="M-29 102l37 287h504l-6 -45l-406 -754h-77l395 734l-113 -2h-239l-29 -220h-66z" />
    <glyph glyph-name="eight.inf" unicode="&#xe579;" 
d="M160 -422q-123 0 -185.5 63t-50.5 160l2 17q9 69 52 117.5t104 62.5q-53 17 -82.5 67.5t-22.5 112.5l3 17q12 98 78 151t186 53q126 0 186.5 -58t48.5 -157l-2 -16q-18 -137 -149 -170q55 -15 84 -67t20 -124l-2 -16q-12 -96 -85 -154.5t-185 -58.5zM215 -35h-29
q-73 0 -125 -39t-61 -108l-2 -17q-10 -76 35 -116.5t121 -40.5h12q75 0 128.5 36.5t61.5 110.5l2 16q9 75 -31 116.5t-112 41.5zM248 334h-8q-79 0 -128.5 -35t-58.5 -104l-2 -17q-9 -71 32.5 -109t115.5 -38h20q73 0 124 35t60 102l3 16q9 73 -34.5 111.5t-123.5 38.5z" />
    <glyph glyph-name="nine.inf" unicode="&#xe57a;" 
d="M-74 -422l8 66q85 0 170 33.5t150 103.5q66 71 106 178q-30 -32 -78 -53t-102 -21q-101 0 -166 62t-51 182l2 16q17 126 89.5 190t189.5 64q121 0 181.5 -80.5t43.5 -212.5l-2 -16q-25 -205 -158 -352q-147 -160 -383 -160zM182 -49h8q60 0 114 31.5t87 83.5l6 51
q12 98 -31 157.5t-118 59.5h-8q-82 0 -137.5 -51t-65.5 -138l-2 -16q-10 -88 28.5 -133t118.5 -45z" />
    <glyph glyph-name="plus.inf" unicode="&#xe57b;" 
d="M203 248h67l-28 -225h225l-10 -68h-226l-28 -223h-68l29 223h-223l10 68h223z" />
    <glyph glyph-name="minus.inf" unicode="&#xe57c;" 
d="M-59 -45l10 68h516l-10 -68h-516z" />
    <glyph glyph-name="equal.inf" unicode="&#xe57d;" 
d="M-45 59l8 68h516l-8 -68h-516zM-72 -150l9 68h516l-9 -68h-516z" />
    <glyph glyph-name="parenleft.inf" unicode="&#xe57e;" horiz-adv-x="323" 
d="M-45 -10l2 16q27 223 176 383h78q-154 -169 -180 -383l-2 -16q-13 -101 10 -210t65 -190h-73q-45 77 -67 186t-9 214z" />
    <glyph glyph-name="parenright.inf" unicode="&#xe57f;" horiz-adv-x="323" 
d="M160 -10l-2 -17q-27 -223 -176 -383h-78q154 169 180 383l2 17q13 100 -10.5 209t-65.5 190h74q45 -77 67 -185.5t9 -213.5z" />
    <glyph glyph-name="Anocross" unicode="&#xe731;" horiz-adv-x="1228" 
d="M666 1618h122l271 -1618h-86l-254 1536l-656 -1536h-94z" />
    <glyph glyph-name="idotaccent" unicode="&#xe785;" horiz-adv-x="409" 
d="M63 0l142 1085h82l-142 -1085h-82zM362 1505l-16 -123h-123l17 123h122z" />
    <glyph glyph-name="interrobangdown" unicode="&#xe935;" horiz-adv-x="901" 
d="M420 727h49l-121 -1075q142 20 221 137.5t107 333.5h82l-4 -27q-41 -269 -147.5 -397.5t-315.5 -128.5q-174 0 -257 81.5t-83 225.5q0 97 22 173t59 126.5t81.5 93t92.5 85t90 89.5t76 119.5t48 163.5zM37 -102q0 -115 51 -178t168 -70l125 819q-32 -55 -83 -111
t-93 -98.5t-82 -93.5t-63 -118t-23 -150zM553 1085l-14 -122h-123l14 122h123z" />
    <glyph glyph-name="interrobangdown.cap" unicode="&#xe99b;" horiz-adv-x="901" 
d="M487 1239h50l-134 -1180q80 8 138.5 47.5t96.5 109.5t60.5 155t38.5 202h82l-4 -26q-17 -111 -38 -192t-55.5 -155.5t-81.5 -120t-117 -72.5t-161 -27q-177 0 -263.5 85t-86.5 242q0 102 22.5 184.5t59.5 140.5t82.5 109t94 100.5t91.5 102.5t77 128.5t48 166.5zM98 328
q0 -124 50.5 -190.5t162.5 -78.5l138 916q-33 -58 -84.5 -121t-94.5 -112.5t-84 -109t-64.5 -136t-23.5 -168.5zM483 1475l15 122h123l-15 -122h-123z" />
    <glyph glyph-name="registered.cap" unicode="&#xe99c;" horiz-adv-x="1884" 
d="M719 727v-410h-82v963h328q44 0 83 -7t78 -25t66.5 -47t45 -76t17.5 -109v-25q0 -195 -165 -248l165 -426h-88l-159 412q-14 -2 -43 -2h-246zM719 801h246q209 0 209 194v17q0 194 -209 194h-246v-405zM123 799q0 167 65 318.5t174.5 261t261 174.5t318.5 65t318.5 -65
t261 -174.5t174.5 -261t65 -318.5t-65 -318.5t-174.5 -261t-261 -174.5t-318.5 -65t-318.5 65t-261 174.5t-174.5 261t-65 318.5zM205 799q0 -150 58 -287t157 -235.5t235.5 -157t286.5 -58.5t286.5 58.5t235.5 157t157 235.5t58 287t-58 286.5t-157 235.5t-235.5 157
t-286.5 58t-286.5 -58t-235.5 -157t-157 -235.5t-58 -286.5z" />
    <glyph glyph-name="period.T" unicode="&#xf182;" 
d="M283 123l-15 -123h-123l15 123h123z" />
    <glyph glyph-name="comma.T" unicode="&#xf183;" 
d="M283 123l-13 -98q-34 -250 -217 -250l8 61q61 0 95 36t51 128h-62l15 123h123z" />
    <glyph glyph-name="colon.T" unicode="&#xf184;" 
d="M283 123l-15 -123h-123l15 123h123zM381 860l-16 -123h-123l16 123h123z" />
    <glyph glyph-name="semicolon.T" unicode="&#xf185;" 
d="M283 123l-13 -98q-34 -250 -217 -250l8 61q61 0 95 36t51 128h-62l15 123h123zM381 860l-16 -123h-123l16 123h123z" />
    <glyph glyph-name="onesixteenth" unicode="&#xf215;" horiz-adv-x="2252" 
d="M565 799h-489l8 65h209l84 637l-205 -127l-29 58l273 170h47l-96 -738h206zM176 0h-94l1388 1597h95zM1485 0h-490l9 66h208l84 636l-204 -127l-29 58l272 170h47l-96 -737h207zM2173 809l-8 -66q-85 0 -170 -33.5t-150 -103.5q-66 -71 -106 -178q30 32 78 53t102 21
q101 0 166 -62t51 -182l-2 -16q-17 -126 -89.5 -190t-189.5 -64q-121 0 -181.5 80.5t-43.5 212.5l2 16q25 205 158 352q147 160 383 160zM1917 436h-8q-61 0 -114.5 -31t-86.5 -83l-6 -52q-12 -98 31 -157.5t118 -59.5h9q82 0 137 51t65 138l2 16q10 88 -28.5 133t-118.5 45
z" />
    <glyph glyph-name="threesixteenths" unicode="&#xf216;" horiz-adv-x="2252" 
d="M162 1055q-13 -101 29 -152t128 -51h13q75 0 125.5 34.5t58.5 108.5l2 17q9 75 -31 118.5t-112 43.5h-117l8 65h113q74 0 124.5 33t59.5 100l2 17q9 74 -32.5 113.5t-120.5 39.5h-9q-88 0 -136.5 -50t-63.5 -161h-72l4 31q31 246 273 246q125 0 184 -59.5t47 -159.5
l-2 -17q-17 -133 -150 -166q55 -15 84.5 -68.5t20.5 -125.5l-2 -17q-12 -96 -82.5 -152.5t-181.5 -56.5q-130 0 -192.5 66.5t-47.5 185.5l2 17h74zM176 0h-94l1388 1597h95zM1485 0h-490l9 66h208l84 636l-204 -127l-29 58l272 170h47l-96 -737h207zM2173 809l-8 -66
q-85 0 -170 -33.5t-150 -103.5q-66 -71 -106 -178q30 32 78 53t102 21q101 0 166 -62t51 -182l-2 -16q-17 -126 -89.5 -190t-189.5 -64q-121 0 -181.5 80.5t-43.5 212.5l2 16q25 205 158 352q147 160 383 160zM1917 436h-8q-61 0 -114.5 -31t-86.5 -83l-6 -52
q-12 -98 31 -157.5t118 -59.5h9q82 0 137 51t65 138l2 16q10 88 -28.5 133t-118.5 45z" />
    <glyph glyph-name="fivesixteenths" unicode="&#xf217;" horiz-adv-x="2252" 
d="M88 1055h74q-13 -101 29 -152t128 -51h13q74 0 127.5 45t64.5 135l2 17q11 93 -33 141.5t-120 48.5h-13q-58 0 -111 -28.5t-83 -80.5l-60 19l80 448h473l-8 -67h-403l-51 -289q25 25 72 44.5t98 19.5q121 0 183.5 -68t47.5 -190l-2 -17q-15 -116 -87.5 -180t-182.5 -64
q-130 0 -192.5 66.5t-47.5 185.5zM176 0h-94l1388 1597h95zM1485 0h-490l9 66h208l84 636l-204 -127l-29 58l272 170h47l-96 -737h207zM2173 809l-8 -66q-85 0 -170 -33.5t-150 -103.5q-66 -71 -106 -178q30 32 78 53t102 21q101 0 166 -62t51 -182l-2 -16
q-17 -126 -89.5 -190t-189.5 -64q-121 0 -181.5 80.5t-43.5 212.5l2 16q25 205 158 352q147 160 383 160zM1917 436h-8q-61 0 -114.5 -31t-86.5 -83l-6 -52q-12 -98 31 -157.5t118 -59.5h9q82 0 137 51t65 138l2 16q10 88 -28.5 133t-118.5 45z" />
    <glyph glyph-name="sevensixteenths" unicode="&#xf218;" horiz-adv-x="2252" 
d="M131 1311l37 286h504l-6 -45l-406 -753h-78l396 733l-113 -2h-240l-28 -219h-66zM176 0h-94l1388 1597h95zM1485 0h-490l9 66h208l84 636l-204 -127l-29 58l272 170h47l-96 -737h207zM2173 809l-8 -66q-85 0 -170 -33.5t-150 -103.5q-66 -71 -106 -178q30 32 78 53
t102 21q101 0 166 -62t51 -182l-2 -16q-17 -126 -89.5 -190t-189.5 -64q-121 0 -181.5 80.5t-43.5 212.5l2 16q25 205 158 352q147 160 383 160zM1917 436h-8q-61 0 -114.5 -31t-86.5 -83l-6 -52q-12 -98 31 -157.5t118 -59.5h9q82 0 137 51t65 138l2 16q10 88 -28.5 133
t-118.5 45z" />
    <glyph glyph-name="ninesixteenths" unicode="&#xf219;" horiz-adv-x="2252" 
d="M86 786l8 66q85 0 170 33.5t150 103.5q66 71 106 178q-30 -31 -78 -52t-102 -21q-102 0 -166.5 62t-50.5 181l2 17q17 126 89 190t189 64q121 0 182 -81t44 -212l-2 -17q-25 -205 -158 -352q-147 -160 -383 -160zM342 1159h8q60 0 114 31.5t87 83.5l6 51q12 98 -31 157.5
t-118 59.5h-9q-82 0 -137 -50.5t-65 -137.5l-2 -17q-10 -88 28.5 -133t118.5 -45zM176 0h-94l1388 1597h95zM1485 0h-490l9 66h208l84 636l-204 -127l-29 58l272 170h47l-96 -737h207zM2173 809l-8 -66q-85 0 -170 -33.5t-150 -103.5q-66 -71 -106 -178q30 32 78 53t102 21
q101 0 166 -62t51 -182l-2 -16q-17 -126 -89.5 -190t-189.5 -64q-121 0 -181.5 80.5t-43.5 212.5l2 16q25 205 158 352q147 160 383 160zM1917 436h-8q-61 0 -114.5 -31t-86.5 -83l-6 -52q-12 -98 31 -157.5t118 -59.5h9q82 0 137 51t65 138l2 16q10 88 -28.5 133t-118.5 45
z" />
    <glyph glyph-name="elevensixteenths" unicode="&#xf220;" horiz-adv-x="2867" 
d="M565 799h-489l8 65h209l84 637l-205 -127l-29 58l273 170h47l-96 -738h206zM1180 799h-490l8 65h209l84 637l-205 -127l-28 58l272 170h47l-96 -738h207zM791 0h-95l1389 1597h94zM2099 0h-489l8 66h209l84 636l-205 -127l-29 58l273 170h47l-96 -737h206zM2787 809
l-8 -66q-85 0 -169.5 -33t-149.5 -104q-67 -73 -107 -178q30 32 78 53t102 21q101 0 166 -62t51 -182l-2 -16q-17 -126 -89 -190t-189 -64q-121 0 -181.5 80.5t-43.5 212.5l2 16q13 102 49 187t108 165q147 160 383 160zM2531 436h-8q-61 0 -114.5 -31t-86.5 -83l-6 -52
q-12 -98 31.5 -157.5t118.5 -59.5h8q82 0 137.5 51t65.5 138l2 16q10 88 -29 133t-119 45z" />
    <glyph glyph-name="thirteensixteenths" unicode="&#xf221;" horiz-adv-x="2867" 
d="M565 799h-489l8 65h209l84 637l-205 -127l-29 58l273 170h47l-96 -738h206zM776 1055q-13 -101 29.5 -152t128.5 -51h12q75 0 125.5 34.5t58.5 108.5l3 17q9 75 -31.5 118.5t-112.5 43.5h-117l9 65h112q74 0 125 33t60 100l2 17q9 74 -32.5 113.5t-121.5 39.5h-8
q-88 0 -137 -50t-64 -161h-72l5 31q31 246 272 246q125 0 184 -59.5t47 -159.5l-2 -17q-17 -133 -149 -166q55 -15 84 -68t20 -126l-2 -17q-12 -96 -82.5 -152.5t-181.5 -56.5q-130 0 -192.5 66.5t-47.5 185.5l2 17h74zM791 0h-95l1389 1597h94zM2099 0h-489l8 66h209
l84 636l-205 -127l-29 58l273 170h47l-96 -737h206zM2787 809l-8 -66q-85 0 -169.5 -33t-149.5 -104q-67 -73 -107 -178q30 32 78 53t102 21q101 0 166 -62t51 -182l-2 -16q-17 -126 -89 -190t-189 -64q-121 0 -181.5 80.5t-43.5 212.5l2 16q13 102 49 187t108 165
q147 160 383 160zM2531 436h-8q-61 0 -114.5 -31t-86.5 -83l-6 -52q-12 -98 31.5 -157.5t118.5 -59.5h8q82 0 137.5 51t65.5 138l2 16q10 88 -29 133t-119 45z" />
    <glyph glyph-name="fifteensixteenths" unicode="&#xf222;" horiz-adv-x="2867" 
d="M565 799h-489l8 65h209l84 637l-205 -127l-29 58l273 170h47l-96 -738h206zM702 1055h74q-13 -101 29.5 -152t128.5 -51h12q74 0 128 45t65 135l2 17q11 93 -33.5 141.5t-120.5 48.5h-12q-58 0 -111.5 -28.5t-83.5 -80.5l-59 19l80 448h473l-8 -67h-404l-51 -289
q25 25 72 44.5t98 19.5q121 0 183.5 -68t47.5 -190l-2 -17q-15 -116 -87.5 -180t-182.5 -64q-130 0 -192.5 66.5t-47.5 185.5zM791 0h-95l1389 1597h94zM2099 0h-489l8 66h209l84 636l-205 -127l-29 58l273 170h47l-96 -737h206zM2787 809l-8 -66q-85 0 -169.5 -33
t-149.5 -104q-67 -73 -107 -178q30 32 78 53t102 21q101 0 166 -62t51 -182l-2 -16q-17 -126 -89 -190t-189 -64q-121 0 -181.5 80.5t-43.5 212.5l2 16q13 102 49 187t108 165q147 160 383 160zM2531 436h-8q-61 0 -114.5 -31t-86.5 -83l-6 -52q-12 -98 31.5 -157.5
t118.5 -59.5h8q82 0 137.5 51t65.5 138l2 16q10 88 -29 133t-119 45z" />
    </font>
</defs>
</svg>
