<?xml version="1.0" standalone="no"?>
<!DOCTYPE svg PUBLIC "-//W3C//DTD SVG 1.1//EN" "http://www.w3.org/Graphics/SVG/1.1/DTD/svg11.dtd" >
<svg xmlns="http://www.w3.org/2000/svg" xmlns:xlink="http://www.w3.org/1999/xlink" version="1.1">
<metadata>
Created by FontForge 20170731 at Fri Jul 22 12:59:29 2022
 By Aleksey,,,
Copyright (c) 2014, Cooper Hewitt Smithsonian Design Museum (cooperhewitt.org)
</metadata>
<defs>
<font id="CooperHewitt-Semibold" horiz-adv-x="614" >
  <font-face 
    font-family="Cooper Hewitt"
    font-weight="709"
    font-stretch="normal"
    units-per-em="2048"
    panose-1="0 0 0 0 0 0 0 0 0 0"
    ascent="1536"
    descent="-512"
    x-height="1085"
    cap-height="1597"
    bbox="-492 -457 2832 1978"
    underline-thickness="40"
    underline-position="-224"
    unicode-range="U+0020-F222"
  />
<missing-glyph horiz-adv-x="1974" 
d="M188 0v1597h1598v-1597h-1598zM987 707l-571 -572h1143zM416 1462l571 -571l572 571h-1143zM895 799l-563 563v-1126zM1079 799l563 -563v1126z" />
    <glyph glyph-name=".notdef" horiz-adv-x="1974" 
d="M188 0v1597h1598v-1597h-1598zM987 707l-571 -572h1143zM416 1462l571 -571l572 571h-1143zM895 799l-563 563v-1126zM1079 799l563 -563v1126z" />
    <glyph glyph-name=".null" horiz-adv-x="0" 
 />
    <glyph glyph-name="nonmarkingreturn" horiz-adv-x="682" 
 />
    <glyph glyph-name="space" unicode=" " horiz-adv-x="409" 
 />
    <glyph glyph-name="exclam" unicode="!" horiz-adv-x="512" 
d="M90 1597h332l-74 -1155h-184zM401 289v-289h-290v289h290z" />
    <glyph glyph-name="quotedbl" unicode="&#x22;" horiz-adv-x="845" 
d="M111 1597h266l-19 -626h-204zM469 1597h266l-45 -626h-203z" />
    <glyph glyph-name="numbersign" unicode="#" horiz-adv-x="1228" 
d="M154 940v236h192l84 421h236l-82 -421h209l81 421h238l-84 -421h148v-236h-193l-55 -283h147v-235h-194l-82 -422h-236l82 422h-209l-82 -422h-237l82 422h-146v235h193l55 283h-147zM537 940l-56 -283h209l55 283h-208z" />
    <glyph glyph-name="dollar" unicode="$" horiz-adv-x="1228" 
d="M940 1720l-66 -268q242 -99 242 -414v-28h-268q0 106 -37 170l-68 -283q196 -34 290.5 -117t94.5 -245v-19q0 -194 -131 -303t-374 -109q-48 0 -68 2l-55 -229h-209l65 273q-127 51 -191.5 155t-64.5 254v12h271q0 -101 47 -163l74 309q-197 34 -287 118.5t-90 239.5v19
q0 189 135 295t364 106q10 0 31 -1t31 -1l55 227h209zM627 328q102 0 164.5 47t62.5 129v10q0 66 -38.5 107.5t-123.5 62.5l-84 -356h19zM385 1096q0 -65 36 -105t122 -61l82 342h-19q-95 0 -158 -45t-63 -121v-10z" />
    <glyph glyph-name="percent" unicode="%" horiz-adv-x="1972" 
d="M772 0h-237l557 1341q-100 -20 -172 -20q-68 0 -115 8q6 -40 6 -82v-22q0 -178 -104 -276.5t-271 -98.5q-165 0 -269 98.5t-104 276.5v22q0 179 104 278t269 99q95 0 176 -35q139 -51 353 -51q116 0 239.5 22t177.5 44v-138zM1161 373q0 178 104 276.5t269 98.5
q167 0 271 -98.5t104 -276.5v-23q0 -179 -104 -278t-271 -99q-165 0 -269 99t-104 278v23zM1364 346q0 -77 45.5 -122.5t118.5 -45.5h12q73 0 119.5 45.5t46.5 122.5v29q0 77 -46.5 123.5t-119.5 46.5h-12q-73 0 -118.5 -46.5t-45.5 -123.5v-29zM608 1251q0 77 -46.5 122.5
t-119.5 45.5h-12q-73 0 -118.5 -45.5t-45.5 -122.5v-28q0 -77 45.5 -123.5t118.5 -46.5h12q73 0 119.5 46.5t46.5 123.5v28z" />
    <glyph glyph-name="ampersand" unicode="&#x26;" horiz-adv-x="1394" 
d="M522 -27q-219 0 -344 123t-125 330v23q0 144 63 244.5t173 178.5q-81 98 -117.5 179.5t-36.5 193.5v23q0 156 107 256t317 100q209 0 315.5 -100t106.5 -256v-23q0 -63 -19.5 -119t-47 -95.5t-75.5 -80t-86 -65.5t-98 -60l310 -354q67 143 67 332v6h281v-6
q0 -151 -44 -289.5t-128 -247.5l231 -266h-325l-86 96q-188 -123 -439 -123zM561 207h10q133 0 234 69l-359 414q-118 -97 -118 -227v-14q0 -113 58.5 -177.5t174.5 -64.5zM406 1257v-14q0 -116 96 -242q103 61 156 115.5t53 126.5v14q0 61 -39 101.5t-107 40.5h-14
q-68 0 -106.5 -40.5t-38.5 -101.5z" />
    <glyph glyph-name="quotesingle" unicode="'" horiz-adv-x="512" 
d="M111 1597h290l-43 -626h-204z" />
    <glyph glyph-name="parenleft" unicode="(" horiz-adv-x="716" 
d="M86 717v41q0 138 16 259.5t41.5 213.5t67 183.5t81.5 158t97 147.5h279q-73 -108 -124 -203t-97 -214t-69.5 -255.5t-23.5 -289.5v-41q0 -153 23.5 -290t69.5 -256t97.5 -214t123.5 -203h-279q-72 103 -120 188.5t-93 202.5t-67.5 259t-22.5 313z" />
    <glyph glyph-name="parenright" unicode=")" horiz-adv-x="716" 
d="M631 758v-41q0 -171 -22.5 -313t-67.5 -259t-93 -202.5t-120 -188.5h-279q73 107 124.5 203t97 214.5t68.5 255t23 290.5v41q0 154 -23 290.5t-68.5 254.5t-97 214t-124.5 203h279q57 -81 97 -147.5t81.5 -158t67 -183.5t41.5 -213.5t16 -259.5z" />
    <glyph glyph-name="asterisk" unicode="*" horiz-adv-x="829" 
d="M336 1638h158l-11 -280h-137zM12 1288l51 152l265 -97l-43 -131zM246 872l-129 95l174 221l112 -82zM766 1440l51 -152l-272 -76l-43 131zM713 967l-129 -95l-158 234l113 82z" />
    <glyph glyph-name="plus" unicode="+" horiz-adv-x="1228" 
d="M494 1323h241v-403h404v-242h-404v-404h-241v404h-404v242h404v403z" />
    <glyph glyph-name="comma" unicode="," horiz-adv-x="512" 
d="M401 289v-228q0 -337 -313 -337v139q147 0 170 137h-147v289h290z" />
    <glyph glyph-name="hyphen" unicode="-" horiz-adv-x="706" 
d="M82 600v234h543v-234h-543z" />
    <glyph glyph-name="period" unicode="." horiz-adv-x="512" 
d="M401 289v-289h-290v289h290z" />
    <glyph glyph-name="slash" unicode="/" horiz-adv-x="794" 
d="M764 1720l-471 -1966h-262l471 1966h262z" />
    <glyph glyph-name="zero" unicode="0" horiz-adv-x="1228" 
d="M1126 455q0 -217 -130.5 -349.5t-381.5 -132.5t-381.5 132.5t-130.5 349.5v688q0 217 130.5 349t381.5 132t381.5 -132t130.5 -349v-688zM854 1135q0 249 -236 249h-8q-235 0 -235 -249v-672q0 -250 235 -250h8q236 0 236 250v672z" />
    <glyph glyph-name="one" unicode="1" horiz-adv-x="1228" 
d="M1143 0h-1016v240h373v1020l-291 -197l-133 199l497 340h197v-1362h373v-240z" />
    <glyph glyph-name="two" unicode="2" horiz-adv-x="1228" 
d="M633 240h500v-240h-1037v170l641 696q67 72 95 126.5t28 123.5v21q0 118 -65 182.5t-172 64.5h-17q-118 0 -178.5 -75t-60.5 -244h-271v43q0 516 518 516q133 0 236 -37t163 -100t90 -139t30 -162v-35q0 -129 -41 -216t-142 -196l-461 -501z" />
    <glyph glyph-name="three" unicode="3" horiz-adv-x="1228" 
d="M356 512q0 -155 66 -227t182 -72h21q105 0 175 60t70 176v24q0 109 -64 166t-173 57h-223v238h217q108 0 170.5 53.5t62.5 159.5v18q0 99 -65 159t-170 60h-21q-118 0 -177.5 -74.5t-59.5 -244.5h-271v43q0 516 518 516q107 0 195 -24.5t147.5 -65.5t100 -96t58.5 -115.5
t18 -124.5v-37q0 -125 -55 -211.5t-148 -134.5q97 -47 155 -136.5t58 -219.5v-37q0 -67 -20 -131t-63.5 -121.5t-104.5 -101.5t-149 -69.5t-192 -25.5q-262 0 -395 133.5t-133 378.5v27h270z" />
    <glyph glyph-name="four" unicode="4" horiz-adv-x="1228" 
d="M967 0h-271v373h-637v186l652 1038h256v-987h202v-237h-202v-373zM700 1163l-352 -555l127 2h221v408z" />
    <glyph glyph-name="five" unicode="5" horiz-adv-x="1228" 
d="M86 512h270q0 -155 66 -227t182 -72h21q106 0 175.5 67.5t69.5 206.5v29q0 140 -72 207.5t-186 67.5h-14q-83 0 -158 -40t-110 -114l-232 78l39 882h985v-239h-755l-19 -397q125 69 279 69q240 0 378 -136.5t138 -375.5v-33q0 -240 -140 -376t-389 -136
q-262 0 -395 133.5t-133 378.5v27z" />
    <glyph glyph-name="six" unicode="6" horiz-adv-x="1228" 
d="M1067 1624v-244q-366 0 -541 -219q-84 -109 -125 -252q126 97 287 97q207 0 332 -132.5t125 -369.5v-21q0 -244 -137 -377t-390 -133q-246 0 -387 156.5t-141 423.5v27q0 433 225 733q232 311 752 311zM623 768q-81 0 -151.5 -41t-111.5 -115v-80q0 -150 71.5 -234.5
t180.5 -84.5h13q110 0 179.5 69t69.5 191v39q0 126 -65.5 191t-175.5 65h-10z" />
    <glyph glyph-name="seven" unicode="7" horiz-adv-x="1228" 
d="M88 1024v573h1061v-167l-582 -1430h-288l565 1362l-205 -4h-311v-334h-240z" />
    <glyph glyph-name="eight" unicode="8" horiz-adv-x="1228" 
d="M614 -27q-129 0 -232.5 38.5t-166.5 103t-96 143t-33 162.5v37q0 130 58 219.5t155 138.5q-203 106 -203 348v37q0 65 18 124.5t58.5 114.5t99.5 96t147 65t195 24q133 0 236 -36.5t163 -98t90 -135t30 -154.5v-37q0 -240 -203 -348q97 -49 155 -139t58 -219v-37
q0 -67 -20 -130.5t-63.5 -121t-104.5 -101t-149 -69t-192 -25.5zM596 696q-109 0 -173.5 -57.5t-64.5 -167.5v-25q0 -116 70.5 -174.5t175.5 -58.5h21q105 0 175 58.5t70 174.5v25q0 110 -64 167.5t-173 57.5h-37zM625 1384h-21q-105 0 -170 -59t-65 -158v-16
q0 -107 62.5 -162t170.5 -55h25q108 0 170.5 55t62.5 162v16q0 99 -65 158t-170 59z" />
    <glyph glyph-name="nine" unicode="9" horiz-adv-x="1228" 
d="M162 -27v244q365 0 540 219q79 100 123 252q-121 -96 -284 -96q-207 0 -332 132.5t-125 369.5v20q0 244 136.5 377t389.5 133q246 0 387.5 -156.5t141.5 -423.5v-26q0 -431 -226 -733q-233 -312 -751 -312zM606 829q81 0 151 41t109 113q2 20 2 61v21q0 150 -71.5 234.5
t-180.5 84.5h-12q-110 0 -180 -69.5t-70 -190.5v-39q0 -126 66 -191t176 -65h10z" />
    <glyph glyph-name="colon" unicode=":" horiz-adv-x="512" 
d="M401 944v-291h-290v291h290zM401 289v-289h-290v289h290z" />
    <glyph glyph-name="semicolon" unicode=";" horiz-adv-x="512" 
d="M401 289v-228q0 -337 -313 -337v139q147 0 170 137h-147v289h290zM401 944v-291h-290v291h290z" />
    <glyph glyph-name="less" unicode="&#x3c;" horiz-adv-x="1228" 
d="M90 930l1049 440v-266l-762 -305l762 -305v-267l-1049 441v262z" />
    <glyph glyph-name="equal" unicode="=" horiz-adv-x="1228" 
d="M90 895v242h1049v-242h-1049zM90 461v241h1049v-241h-1049z" />
    <glyph glyph-name="greater" unicode="&#x3e;" horiz-adv-x="1228" 
d="M1139 930v-262l-1049 -441v267l762 305l-762 305v266z" />
    <glyph glyph-name="question" unicode="?" horiz-adv-x="991" 
d="M504 1386q-104 0 -146.5 -81t-42.5 -254h-268v30q0 131 23 227.5t75 169t142 109.5t217 37q122 0 211 -33.5t138.5 -93.5t72 -132t22.5 -159q0 -83 -19 -150t-49 -112.5t-67.5 -85.5t-75.5 -80t-70.5 -84t-56 -108.5t-28.5 -143.5h-185q-5 80 7 153.5t36.5 129.5t55 107
t62 95t58 84.5t43.5 85t17 87.5q0 100 -38.5 151t-133.5 51zM635 289v-289h-291v289h291z" />
    <glyph glyph-name="at" unicode="@" horiz-adv-x="2009" 
d="M1044 -254h13q378 0 674 219l104 -141q-128 -101 -271.5 -161.5t-261.5 -79.5t-251 -19q-218 0 -400 66t-313.5 190t-205 312t-73.5 421v82q0 233 73 421t203.5 311.5t310.5 190t394 66.5q150 0 283 -29.5t249 -93.5t200 -158t132 -230.5t48 -303.5v-61
q0 -144 -28 -253.5t-76.5 -179.5t-120 -113.5t-152 -61t-180.5 -17.5h-176l-23 129q-98 -156 -293 -156q-128 0 -217 64.5t-129.5 169.5t-40.5 243v62q0 138 40.5 243t129.5 169.5t217 64.5q196 0 293 -158l23 131h208l-16 -286v-498q76 3 130 17t97.5 44.5t69.5 81
t39.5 125.5t13.5 179v61q0 141 -40.5 252t-107.5 181.5t-160.5 116.5t-193 64.5t-212.5 18.5h-13q-174 0 -318.5 -52.5t-250 -152.5t-163.5 -254t-58 -348v-82q0 -198 58.5 -352t165 -253.5t252.5 -150.5t324 -51zM1176 426v356q-29 46 -82 82.5t-123 36.5
q-104 0 -155.5 -70.5t-51.5 -195.5v-62q0 -125 51.5 -195.5t155.5 -70.5q70 0 123 36.5t82 82.5z" />
    <glyph glyph-name="A" unicode="A" horiz-adv-x="1292" 
d="M457 1606h379l419 -1606h-294l-89 365h-450l-88 -365h-297zM647 1292l-168 -688h334z" />
    <glyph glyph-name="B" unicode="B" horiz-adv-x="1263" 
d="M125 1597h489q504 0 504 -430v-41q0 -212 -178 -303q219 -93 219 -334v-40q0 -105 -30 -185.5t-78.5 -129.5t-118.5 -80t-141.5 -42.5t-155.5 -11.5h-510v1597zM645 698h-246v-458h246q47 0 87.5 11t75 35.5t54 68t19.5 102.5v22q0 115 -67.5 167t-168.5 52zM614 1358
h-215v-420h215q99 0 162.5 45.5t63.5 151.5v26q0 106 -63.5 151.5t-162.5 45.5z" />
    <glyph glyph-name="C" unicode="C" horiz-adv-x="1310" 
d="M371 758q0 -281 67.5 -413t233.5 -132h18q258 0 258 326h277v-21q0 -280 -136.5 -412.5t-414.5 -132.5q-302 0 -443 186.5t-141 598.5v82q0 411 141 597.5t443 186.5q279 0 415 -134.5t136 -422.5v-70h-277q0 198 -58.5 292.5t-199.5 94.5h-18q-165 0 -233 -132t-68 -412
v-82z" />
    <glyph glyph-name="D" unicode="D" horiz-adv-x="1341" 
d="M1251 758q0 -207 -38.5 -351.5t-121 -235t-203.5 -131t-292 -40.5h-471v1597h471q171 0 292 -40.5t203.5 -130.5t121 -234.5t38.5 -351.5v-82zM399 240h181q211 0 301 122.5t90 395.5v82q0 273 -90 395.5t-301 122.5h-181v-1118z" />
    <glyph glyph-name="E" unicode="E" horiz-adv-x="1157" 
d="M125 1597h950v-239h-676v-424h574v-238h-574v-456h676v-240h-950v1597z" />
    <glyph glyph-name="F" unicode="F" horiz-adv-x="1101" 
d="M125 1597h936v-239h-662v-424h559v-238h-559v-696h-274v1597z" />
    <glyph glyph-name="G" unicode="G" horiz-adv-x="1359" 
d="M709 -27q-318 0 -468.5 187t-150.5 598v82q0 409 147 596.5t451 187.5q279 0 418 -134.5t139 -422.5v-70h-274q0 198 -60 292.5t-206 94.5h-19q-172 0 -243.5 -132t-71.5 -412v-82q0 -282 73 -413.5t256 -131.5h19q153 0 252 80v309h-232v238h506v-680
q-212 -187 -536 -187z" />
    <glyph glyph-name="H" unicode="H" horiz-adv-x="1341" 
d="M942 1597h275v-1597h-275v696h-543v-696h-274v1597h274v-663h543v663z" />
    <glyph glyph-name="I" unicode="I" horiz-adv-x="544" 
d="M410 1597v-1597h-275v1597h275z" />
    <glyph glyph-name="J" unicode="J" horiz-adv-x="1073" 
d="M684 1597h274v-1108q0 -252 -108.5 -384t-345.5 -132q-244 0 -348.5 130t-104.5 389v47h260q0 -170 42 -248t145 -78q101 0 143.5 76t42.5 235v1073z" />
    <glyph glyph-name="K" unicode="K" horiz-adv-x="1241" 
d="M399 1597v-706l459 706h332l-455 -649l455 -948h-305l-324 700l-162 -229v-471h-274v1597h274z" />
    <glyph glyph-name="L" unicode="L" horiz-adv-x="1046" 
d="M1016 0h-891v1597h274v-1357h617v-240z" />
    <glyph glyph-name="M" unicode="M" horiz-adv-x="1738" 
d="M1348 1120l-342 -1120h-275l-340 1120l8 -329v-791h-274v1597h403l340 -1122l342 1122h404v-1597h-275v791z" />
    <glyph glyph-name="N" unicode="N" horiz-adv-x="1382" 
d="M1257 1597v-1597h-290l-590 1102l8 -338v-764h-260v1597h291l590 -1101l-9 338v763h260z" />
    <glyph glyph-name="O" unicode="O" horiz-adv-x="1361" 
d="M682 -27q-304 0 -448 187t-144 598v82q0 411 144 597.5t448 186.5q303 0 446.5 -187t143.5 -597v-82q0 -411 -144 -598t-446 -187zM672 213h18q163 0 232 133t69 412v82q0 279 -69 411.5t-232 132.5h-18q-163 0 -232 -132.5t-69 -411.5v-82q0 -279 69 -412t232 -133z" />
    <glyph glyph-name="P" unicode="P" horiz-adv-x="1224" 
d="M399 596v-596h-274v1597h500q83 0 152.5 -10.5t142.5 -41.5t123.5 -82.5t83 -139.5t32.5 -205v-41q0 -118 -32.5 -206.5t-83 -139.5t-123.5 -82.5t-142.5 -42t-152.5 -10.5h-226zM399 836h236q45 0 84 10t78 35t61.5 77t22.5 127v23q0 61 -16 107t-40 72.5t-58 43
t-65.5 22t-66.5 5.5h-236v-522z" />
    <glyph glyph-name="Q" unicode="Q" horiz-adv-x="1361" 
d="M682 -27q-304 0 -448 187t-144 598v82q0 411 144 597.5t448 186.5q303 0 446.5 -187t143.5 -597v-82q0 -300 -75.5 -478.5t-231.5 -252.5l92 -232h-219l-70 182q-58 -4 -86 -4zM774 514l94 -240q123 115 123 484v82q0 279 -69 411.5t-232 132.5h-18q-163 0 -232 -132.5
t-69 -411.5v-82q0 -279 69 -412t232 -133h6l-115 301h211z" />
    <glyph glyph-name="R" unicode="R" horiz-adv-x="1251" 
d="M399 596v-596h-274v1597h500q83 0 152.5 -10.5t142.5 -41.5t123.5 -82.5t83 -139.5t32.5 -205v-41q0 -336 -260 -438l260 -639h-297l-229 596h-234zM399 836h236q45 0 84 10t78 35t61.5 77t22.5 127v23q0 61 -16 107t-40 72.5t-58 43t-65.5 22t-66.5 5.5h-236v-522z" />
    <glyph glyph-name="S" unicode="S" horiz-adv-x="1271" 
d="M594 696q-262 35 -383 141.5t-121 303.5v20q0 214 145 338.5t402 124.5q281 0 413 -133t132 -406v-47h-275q0 181 -63 263.5t-205 82.5h-18q-114 0 -182 -57t-68 -151v-13q0 -69 24.5 -113t93.5 -76.5t193 -49.5q267 -36 390.5 -141t123.5 -312v-22q0 -225 -146.5 -350.5
t-412.5 -125.5q-561 0 -561 545v21h274q0 -166 72 -246t205 -80h18q127 0 198.5 61.5t71.5 163.5v13q0 107 -71 164t-250 81z" />
    <glyph glyph-name="T" unicode="T" horiz-adv-x="1114" 
d="M694 1358v-1358h-274v1358h-381v239h1036v-239h-381z" />
    <glyph glyph-name="U" unicode="U" horiz-adv-x="1341" 
d="M672 -27q-299 0 -428 127.5t-129 401.5v1095h274v-1085q0 -160 64.5 -229.5t218.5 -69.5q152 0 216 69.5t64 229.5v1085h275v-1095q0 -274 -129 -401.5t-426 -127.5z" />
    <glyph glyph-name="V" unicode="V" horiz-adv-x="1292" 
d="M836 -8h-379l-420 1605h295l315 -1292l314 1292h294z" />
    <glyph glyph-name="W" unicode="W" horiz-adv-x="1892" 
d="M1208 -8l-262 1294l-264 -1294h-354l-275 1605h287l182 -1237l250 1237h346l252 -1237l182 1237h287l-274 -1605h-357z" />
    <glyph glyph-name="X" unicode="X" horiz-adv-x="1306" 
d="M45 0l412 829l-412 768h320l288 -575l287 575h320l-412 -766l412 -831h-306l-303 639l-299 -639h-307z" />
    <glyph glyph-name="Y" unicode="Y" horiz-adv-x="1249" 
d="M762 487v-487h-275v487l-462 1110h299l301 -772l301 772h299z" />
    <glyph glyph-name="Z" unicode="Z" horiz-adv-x="1202" 
d="M82 188l682 1176l-281 -6h-381v239h998v-188l-682 -1176l280 7h422v-240h-1038v188z" />
    <glyph glyph-name="bracketleft" unicode="[" horiz-adv-x="716" 
d="M125 1720h520v-235h-254v-1495h254v-236h-520v1966z" />
    <glyph glyph-name="backslash" unicode="\" horiz-adv-x="790" 
d="M502 -246l-471 1966h262l471 -1966h-262z" />
    <glyph glyph-name="bracketright" unicode="]" horiz-adv-x="716" 
d="M594 -246h-520v236h252v1495h-252v235h520v-1966z" />
    <glyph glyph-name="asciicircum" unicode="^" horiz-adv-x="1228" 
d="M745 1597l441 -1050h-266l-306 764l-305 -764h-266l440 1050h262z" />
    <glyph glyph-name="underscore" unicode="_" horiz-adv-x="655" 
d="M90 -346v233h475v-233h-475z" />
    <glyph glyph-name="grave" unicode="`" horiz-adv-x="1024" 
d="M168 1597h291l186 -366h-266z" />
    <glyph glyph-name="a" unicode="a" horiz-adv-x="1101" 
d="M772 0l-20 125q-131 -152 -355 -152q-163 0 -245 90t-82 230v20q0 85 28.5 147.5t83 100t118 58.5t149.5 34l276 43v4q0 107 -40 156t-140 49q-101 0 -140.5 -48.5t-39.5 -129.5h-254v18q0 73 21 135t68.5 116t137 85t213.5 31t211 -28t136.5 -83.5t71 -128.5t21.5 -172
v-393l17 -307h-236zM489 193q84 0 143.5 33.5t92.5 78.5v230l-227 -37q-162 -26 -162 -156v-16q0 -56 38 -94.5t115 -38.5z" />
    <glyph glyph-name="b" unicode="b" horiz-adv-x="1153" 
d="M383 1638v-653q105 127 289 127q109 0 188.5 -39.5t126 -113t68.5 -168.5t22 -216v-65q0 -120 -22 -215t-68.5 -168.5t-126.5 -113.5t-188 -40q-210 0 -314 162l-22 -135h-236l17 307v1331h266zM383 756v-426q80 -123 213 -123q215 0 215 303v65q0 306 -215 306
q-132 0 -213 -125z" />
    <glyph glyph-name="c" unicode="c" horiz-adv-x="1075" 
d="M340 510q0 -303 219 -303q97 0 145 52t48 136h252v-43q0 -79 -28 -147t-82 -120t-141.5 -82t-199.5 -30q-122 0 -215 40t-150 113t-85.5 169.5t-28.5 214.5v65q0 119 28.5 215.5t85.5 169t150 112.5t215 40q220 0 335.5 -110.5t115.5 -284.5v-45h-252q0 98 -48.5 153.5
t-144.5 55.5q-219 0 -219 -306v-65z" />
    <glyph glyph-name="d" unicode="d" horiz-adv-x="1165" 
d="M494 1112q181 0 286 -127v653h267v-1331l16 -307h-236l-22 135q-104 -162 -311 -162q-109 0 -189 40t-127 113.5t-69.5 168.5t-22.5 215v65q0 96 13.5 175.5t44.5 147.5t78 115t116 73t156 26zM780 330v426q-30 49 -83.5 87t-129.5 38q-215 0 -215 -306v-65
q0 -303 215 -303q76 0 129.5 37t83.5 86z" />
    <glyph glyph-name="e" unicode="e" horiz-adv-x="1132" 
d="M1057 444h-717q15 -264 244 -264q103 0 162 50.5t59 117.5h252v-8q0 -155 -126 -261t-349 -106q-128 0 -226.5 41t-159.5 115t-91.5 171.5t-30.5 215.5v53q0 117 31 215t91 172t156 115t219 41q122 0 216 -41t152.5 -115t88 -171.5t29.5 -215.5v-125zM565 905
q-210 0 -225 -264h448q-12 264 -223 264z" />
    <glyph glyph-name="f" unicode="f" horiz-adv-x="821" 
d="M479 1255v-170h260v-233h-260v-852h-266v852h-166v233h166v201q0 379 379 379q114 0 168 -27v-221q-10 5 -44 11t-61 6q-90 0 -133 -38t-43 -141z" />
    <glyph glyph-name="g" unicode="g" horiz-adv-x="1153" 
d="M770 16v152q-103 -125 -289 -125q-107 0 -186 37t-127 105.5t-71 159.5t-23 206v53q0 110 23 200t70.5 160t127.5 109t186 39q211 0 314 -160l22 133h236l-17 -307v-766q0 -448 -477 -448q-126 0 -218.5 30.5t-145 86.5t-77 125t-24.5 155v39h252q0 -107 47 -162t160 -55
q115 0 166 54.5t51 178.5zM770 397v359q-81 125 -215 125q-105 0 -160 -74.5t-55 -202.5v-53q0 -135 54.5 -206t160.5 -71q132 0 215 123z" />
    <glyph glyph-name="h" unicode="h" horiz-adv-x="1153" 
d="M385 1638v-663q116 137 328 137q86 0 152 -29.5t105 -81.5t58 -117t19 -141v-743h-265v700q0 82 -42.5 131.5t-129.5 49.5q-84 0 -139.5 -37.5t-85.5 -87.5v-756h-266v1638h266z" />
    <glyph glyph-name="i" unicode="i" horiz-adv-x="512" 
d="M123 0v1085h266v-1085h-266zM401 1563v-289h-290v289h290z" />
    <glyph glyph-name="j" unicode="j" horiz-adv-x="516" 
d="M123 -27v1112h266v-1142q0 -379 -379 -379q-116 0 -168 26v222q40 -17 105 -17q90 0 133 37.5t43 140.5zM401 1563v-289h-290v289h290z" />
    <glyph glyph-name="k" unicode="k" horiz-adv-x="1112" 
d="M111 0v1638h266v-991l371 438h321l-364 -411l364 -674h-309l-238 467l-145 -166v-301h-266z" />
    <glyph glyph-name="l" unicode="l" horiz-adv-x="512" 
d="M123 0v1638h266v-1638h-266z" />
    <glyph glyph-name="m" unicode="m" horiz-adv-x="1728" 
d="M1624 0h-266v719q0 162 -154 162q-121 0 -200 -117v-764h-265v719q0 162 -155 162q-125 0 -199 -117v-764h-266v778l-19 307h236l22 -135q116 162 330 162q104 0 175 -45.5t106 -126.5q111 172 338 172q157 0 237 -95.5t80 -256.5v-760z" />
    <glyph glyph-name="n" unicode="n" horiz-adv-x="1153" 
d="M1047 0h-265v700q0 82 -42.5 131.5t-129.5 49.5q-84 0 -139.5 -37.5t-85.5 -87.5v-756h-266v778l-19 307h236l24 -143q118 170 353 170q86 0 152 -29.5t105 -81.5t58 -117t19 -141v-743z" />
    <glyph glyph-name="o" unicode="o" horiz-adv-x="1132" 
d="M565 -27q-124 0 -219.5 40t-154 113t-88 169.5t-29.5 214.5v65q0 119 29.5 215.5t88 169t153.5 112.5t220 40t220 -40t154 -112.5t88.5 -169t29.5 -215.5v-65q0 -118 -29.5 -214.5t-88.5 -169.5t-154.5 -113t-219.5 -40zM565 207q114 0 170 79.5t56 223.5v65
q0 145 -56 225.5t-170 80.5t-169.5 -80t-55.5 -226v-65q0 -144 55.5 -223.5t169.5 -79.5z" />
    <glyph glyph-name="p" unicode="p" horiz-adv-x="1153" 
d="M672 -27q-187 0 -289 127v-510h-266v1188l-17 307h236l22 -135q104 162 314 162q109 0 188.5 -39.5t126 -113t68.5 -168.5t22 -216v-65q0 -120 -22 -215t-68.5 -168.5t-126.5 -113.5t-188 -40zM383 756v-426q80 -123 213 -123q215 0 215 303v65q0 306 -215 306
q-132 0 -213 -125z" />
    <glyph glyph-name="q" unicode="q" horiz-adv-x="1163" 
d="M774 -410v512q-104 -129 -289 -129q-108 0 -188 40t-127 113.5t-69.5 168.5t-22.5 215v65q0 120 22.5 215.5t69.5 169t126.5 113t188.5 39.5q211 0 314 -164l22 137h236l-17 -307v-1188h-266zM774 330v426q-81 125 -215 125q-215 0 -215 -306v-65q0 -303 215 -303
q135 0 215 123z" />
    <glyph glyph-name="r" unicode="r" horiz-adv-x="753" 
d="M651 1112q7 0 18 -1t13 -1v-258h-45q-96 0 -158.5 -34.5t-93.5 -80.5v-737h-266v778l-19 307h236l22 -131q49 72 123.5 115t169.5 43z" />
    <glyph glyph-name="s" unicode="s" horiz-adv-x="1077" 
d="M539 180q92 0 139 36.5t47 98.5q0 70 -45.5 100.5t-161.5 39.5q-226 19 -322 87.5t-96 211.5v16q0 168 119.5 255t319.5 87q225 0 332.5 -97.5t107.5 -273.5v-10h-260q0 85 -42.5 129.5t-137.5 44.5q-84 0 -130.5 -34.5t-46.5 -94.5q0 -63 41.5 -92.5t157.5 -38.5
q108 -9 183 -27t133 -52t86 -89.5t28 -136.5v-14q0 -165 -116 -259t-336 -94q-224 0 -338.5 101t-114.5 258v8h264q0 -160 189 -160z" />
    <glyph glyph-name="t" unicode="t" horiz-adv-x="862" 
d="M479 1085h301v-233h-301v-469q0 -103 43 -139.5t133 -36.5q28 0 62 4.5t43 9.5v-221q-54 -27 -168 -27q-379 0 -379 381v498h-166v233h166v308h266v-308z" />
    <glyph glyph-name="u" unicode="u" horiz-adv-x="1153" 
d="M106 1085h265v-700q0 -82 43 -130t131 -48q145 0 225 123v755h266v-778l17 -307h-236l-24 143q-118 -170 -353 -170q-86 0 -152 29.5t-105 81.5t-58 117.5t-19 142.5v741z" />
    <glyph glyph-name="v" unicode="v" horiz-adv-x="1101" 
d="M367 0l-338 1085h278l244 -864l244 864h276l-336 -1085h-368z" />
    <glyph glyph-name="w" unicode="w" horiz-adv-x="1536" 
d="M768 805l-182 -805h-338l-201 1085h260l117 -798l184 798h320l184 -798l117 798h262l-203 -1085h-338z" />
    <glyph glyph-name="x" unicode="x" horiz-adv-x="1095" 
d="M39 1085h309l201 -391l199 391h309l-295 -530l295 -555h-303l-207 418l-205 -418h-303l295 555z" />
    <glyph glyph-name="y" unicode="y" horiz-adv-x="1085" 
d="M549 332l239 753h287l-383 -1032l-143 -463h-316l173 463l-383 1032h288z" />
    <glyph glyph-name="z" unicode="z" horiz-adv-x="1001" 
d="M57 182l518 676l-231 -6h-266v233h846v-182l-518 -676l231 6h307v-233h-887v182z" />
    <glyph glyph-name="braceleft" unicode="{" horiz-adv-x="716" 
d="M645 1720v-235q-86 0 -127 -43t-41 -144v-331q0 -165 -121 -230q121 -68 121 -229v-332q0 -101 41 -143.5t127 -42.5v-236h-51q-385 0 -385 340v369q-3 85 -41 120t-119 35v238q84 0 122 38t38 132v354q0 340 385 340h51z" />
    <glyph glyph-name="bar" unicode="|" horiz-adv-x="497" 
d="M117 -246v1966h262v-1966h-262z" />
    <glyph glyph-name="braceright" unicode="}" horiz-adv-x="716" 
d="M74 -246v236q85 0 125.5 42.5t40.5 143.5v332q0 162 118 229q-118 64 -118 230v331q0 101 -40.5 144t-125.5 43v235h49q385 0 385 -340v-368q3 -87 41 -121.5t119 -34.5v-238q-81 0 -119 -35t-41 -120v-369q0 -340 -385 -340h-49z" />
    <glyph glyph-name="asciitilde" unicode="~" horiz-adv-x="1228" 
d="M373 969q72 0 142 -22t116.5 -48t105.5 -48t111 -22q98 0 188 105l129 -131q-51 -77 -130 -129.5t-179 -52.5q-59 0 -115 14.5t-100 34.5t-85 40.5t-86.5 35t-88.5 14.5q-98 0 -188 -105l-130 131q51 78 130.5 130.5t179.5 52.5z" />
    <glyph glyph-name="nbspace" unicode="&#xa0;" horiz-adv-x="409" 
 />
    <glyph glyph-name="exclamdown" unicode="&#xa1;" horiz-adv-x="512" 
d="M422 -410h-332l74 1053h184zM111 797v288h290v-288h-290z" />
    <glyph glyph-name="cent" unicode="&#xa2;" horiz-adv-x="1228" 
d="M930 1720l-64 -262q269 -99 269 -440v-55h-267q0 164 -63 233l-205 -854h43q225 0 225 254h267v-33q0 -221 -126 -339t-376 -118q-15 0 -88 5l-56 -234h-208l69 293q-256 138 -256 594v70q0 661 539 661h33l55 225h209zM369 764q0 -203 51 -299l190 790
q-127 -9 -184 -114t-57 -307v-70z" />
    <glyph glyph-name="sterling" unicode="&#xa3;" horiz-adv-x="1228" 
d="M664 1386q-96 0 -142.5 -57.5t-46.5 -161.5q0 -110 47 -288h375v-236h-311q57 -228 67 -405h480v-238h-1037v238h322q-7 70 -24.5 146.5t-33.5 127.5t-43 131h-221v236h150q-41 157 -41 311q0 70 15 132t49.5 118t86.5 96.5t131 64t177 23.5q251 0 361 -143t110 -424v-33
h-269q0 362 -202 362z" />
    <glyph glyph-name="yen" unicode="&#xa5;" horiz-adv-x="1228" 
d="M86 748v235h203l-269 614h302l292 -753l293 753h301l-268 -614h203v-235h-305l-76 -175h381v-235h-391v-338h-275v338h-391v235h381l-76 175h-305z" />
    <glyph glyph-name="brokenbar" unicode="&#xa6;" horiz-adv-x="497" 
d="M117 793v927h262v-927h-262zM117 -246v928h262v-928h-262z" />
    <glyph glyph-name="section" unicode="&#xa7;" horiz-adv-x="1101" 
d="M1030 803q0 -182 -153 -260q86 -77 86 -211v-17q0 -168 -119.5 -255t-319.5 -87q-227 0 -333.5 97.5t-106.5 275.5v8h260q0 -174 180 -174q84 0 130 34t46 95q0 65 -42.5 100.5t-155.5 43.5q-108 9 -183.5 28.5t-133.5 56t-86.5 96t-28.5 144.5v17q0 180 153 258
q-86 77 -86 213v16q0 112 57.5 190.5t155 115t228.5 36.5q225 0 332.5 -98t107.5 -275v-8h-262q0 174 -178 174q-84 0 -130.5 -34.5t-46.5 -94.5q0 -65 42.5 -99.5t156.5 -43.5q108 -9 183 -28.5t133 -56t86 -96.5t28 -145v-16zM762 799q0 78 -49.5 113.5t-165.5 41.5h-4
q-101 0 -153 -42t-52 -113q0 -78 50.5 -114t166.5 -42h4q100 0 151.5 42t51.5 114z" />
    <glyph glyph-name="dieresis" unicode="&#xa8;" horiz-adv-x="1024" 
d="M453 1563v-289h-291v289h291zM862 1563v-289h-291v289h291z" />
    <glyph glyph-name="copyright" unicode="&#xa9;" horiz-adv-x="1884" 
d="M117 799q0 168 65.5 320.5t176 263t263 176t320.5 65.5t320.5 -65.5t263 -176t176 -263t65.5 -320.5t-65.5 -320.5t-176 -263.5t-263 -176.5t-320.5 -65.5t-320.5 65.5t-263 176.5t-176 263.5t-65.5 320.5zM223 799q0 -146 57 -279.5t153 -229.5t229.5 -153t279.5 -57
t279.5 57t229.5 153t153 229.5t57 279.5t-57 279.5t-153 229.5t-229.5 153t-279.5 57t-279.5 -57t-229.5 -153t-153 -229.5t-57 -279.5zM948 504q90 0 133 44.5t43 110.5h230v-36q0 -139 -105 -235.5t-307 -96.5q-113 0 -199 38t-137 104.5t-76.5 150.5t-25.5 184v61
q0 100 25.5 184t76.5 151t137 105t199 38q203 0 307.5 -100t104.5 -249v-38h-230q0 78 -43.5 126t-132.5 48q-104 0 -152 -73t-48 -192v-61q0 -118 48 -191t152 -73z" />
    <glyph glyph-name="ordfeminine" unicode="&#xaa;" horiz-adv-x="851" 
d="M584 793l-17 90q-95 -109 -254 -109q-127 0 -188.5 67.5t-61.5 174.5v14q0 64 21 110.5t62.5 75.5t90.5 46t117 28l191 29q-2 67 -27 97t-88 30q-115 0 -115 -111h-221v15q0 56 17 102.5t54.5 86.5t106.5 62.5t164 22.5q188 0 265 -77t77 -232v-293l15 -229h-209z
M788 391h-702v203h702v-203zM395 963q89 0 150 65v154l-146 -23q-50 -9 -76 -35t-26 -65v-10q0 -37 24 -61.5t74 -24.5z" />
    <glyph glyph-name="guillemotleft" unicode="&#xab;" horiz-adv-x="1126" 
d="M539 1128v-239l-250 -193l250 -192v-240l-437 305v254zM1024 1128v-239l-250 -193l250 -192v-240l-434 305v254z" />
    <glyph glyph-name="logicalnot" unicode="&#xac;" horiz-adv-x="1228" 
d="M90 926v241h1049v-757h-240v516h-809z" />
    <glyph glyph-name="uni00AD" unicode="&#xad;" horiz-adv-x="706" 
d="M82 600v234h543v-234h-543z" />
    <glyph glyph-name="registered" unicode="&#xae;" horiz-adv-x="675" 
d="M35 1362q0 124 89.5 213.5t213.5 89.5t213.5 -89.5t89.5 -213.5t-89.5 -213.5t-213.5 -89.5t-213.5 89.5t-89.5 213.5zM84 1362q0 -104 75 -179t179 -75t179 75t75 179t-75 179t-179 75t-179 -75t-75 -179zM487 1413q0 -75 -59 -102l59 -125h-104l-47 114h-47v-114h-101
v352h177q53 0 87.5 -27t34.5 -86v-12zM387 1421q0 41 -45 41h-53v-86h53q45 0 45 41v4z" />
    <glyph glyph-name="macron" unicode="&#xaf;" horiz-adv-x="1024" 
d="M227 1296v236h570v-236h-570z" />
    <glyph glyph-name="degree" unicode="&#xb0;" horiz-adv-x="819" 
d="M567 1288v12q0 69 -43.5 110.5t-109.5 41.5h-8q-66 0 -110 -41.5t-44 -110.5v-12q0 -69 44 -110t110 -41h8q66 0 109.5 41t43.5 110zM735 1298v-8q0 -148 -91.5 -235.5t-233.5 -87.5q-143 0 -234.5 87.5t-91.5 235.5v8q0 148 92 237t234 89t233.5 -89t91.5 -237z" />
    <glyph glyph-name="plusminus" unicode="&#xb1;" horiz-adv-x="1228" 
d="M494 1362h241v-240h404v-241h-404v-240h-241v240h-404v241h404v240zM90 295v240h1049v-240h-1049z" />
    <glyph glyph-name="twosuperior" unicode="&#xb2;" 
d="M575 975v-176h-536v129l291 325q22 24 31.5 40.5t9.5 43.5v11q0 43 -16.5 64.5t-43.5 21.5h-10q-57 0 -57 -103h-205v19q0 132 66 197t202 65q74 0 129 -21.5t84 -57t42 -72t13 -75.5v-22q0 -67 -21 -110.5t-67 -96.5l-165 -182h253z" />
    <glyph glyph-name="threesuperior" unicode="&#xb3;" 
d="M238 1055q0 -94 63 -94h10q28 0 47 20t19 59v11q0 65 -66 65h-106v180h104q62 0 62 66v12q0 26 -17.5 43t-42.5 17h-10q-57 0 -57 -103h-205v19q0 132 66 197t202 65q60 0 108 -14.5t77 -37t48.5 -52t27 -57t7.5 -54.5v-21q0 -112 -83 -170q88 -59 88 -170v-20
q0 -36 -14 -74t-43.5 -75.5t-85.5 -61t-130 -23.5q-135 0 -204.5 66t-69.5 190v17h205z" />
    <glyph glyph-name="acute" unicode="&#xb4;" horiz-adv-x="1024" 
d="M565 1597h291l-211 -366h-266z" />
    <glyph glyph-name="paragraph" unicode="&#xb6;" horiz-adv-x="1101" 
d="M483 0v600q-428 45 -428 477v41q0 479 535 479h393v-1597h-274v1358h-95v-1358h-131zM334 1085q0 -194 149 -237v495q-149 -43 -149 -235v-23z" />
    <glyph glyph-name="periodcentered" unicode="&#xb7;" horiz-adv-x="512" 
d="M401 862v-291h-290v291h290z" />
    <glyph glyph-name="cedilla" unicode="&#xb8;" horiz-adv-x="1232" 
d="M307 -389l41 121q58 -33 146 -33q104 0 104 51t-109 51q-16 0 -33 -2t-26 -4l-10 -2l-35 53l59 154h136l-35 -92q88 -3 146.5 -46.5t58.5 -125.5q0 -174 -234 -174q-138 0 -209 49z" />
    <glyph glyph-name="onesuperior" unicode="&#xb9;" 
d="M588 799h-527v176h162v373l-98 -66l-102 145l249 168h156v-620h160v-176z" />
    <glyph glyph-name="ordmasculine" unicode="&#xba;" horiz-adv-x="890" 
d="M821 1171q0 -182 -94 -289.5t-281 -107.5q-188 0 -282 107t-94 290v56q0 183 94 290t282 107q187 0 281 -107.5t94 -289.5v-56zM88 391v203h717v-203h-717zM303 1171q0 -196 143 -196q142 0 142 196v56q0 194 -142 194q-143 0 -143 -194v-56z" />
    <glyph glyph-name="guillemotright" unicode="&#xbb;" horiz-adv-x="1126" 
d="M102 889v239l437 -305v-254l-437 -305v240l250 192zM590 889v239l434 -305v-254l-434 -305v240l248 192z" />
    <glyph glyph-name="onequarter" unicode="&#xbc;" horiz-adv-x="1638" 
d="M336 0h-213l1180 1597h213zM1546 0h-205v156h-292v145l305 498h192v-463h66v-180h-66v-156zM588 799h-527v176h162v373l-98 -66l-102 145l249 168h156v-620h160v-176zM1343 475l-88 -143l37 4h49v102z" />
    <glyph glyph-name="onehalf" unicode="&#xbd;" horiz-adv-x="1638" 
d="M336 0h-213l1180 1597h213zM1599 176v-176h-536v129l291 326q22 24 31.5 40.5t9.5 43.5v10q0 43 -16.5 64.5t-43.5 21.5h-10q-57 0 -57 -103h-205v19q0 132 66 197t202 65q74 0 129 -21.5t84 -56.5t42 -71.5t13 -75.5v-23q0 -67 -21 -110.5t-67 -96.5l-165 -182h253z
M588 799h-527v176h162v373l-98 -66l-102 145l249 168h156v-620h160v-176z" />
    <glyph glyph-name="threequarters" unicode="&#xbe;" horiz-adv-x="1638" 
d="M336 0h-213l1180 1597h213zM238 1055q0 -94 63 -94h10q28 0 47 20t19 59v11q0 65 -66 65h-106v180h104q62 0 62 66v12q0 26 -17.5 43t-42.5 17h-10q-57 0 -57 -103h-205v19q0 132 66 197t202 65q60 0 108 -14.5t77 -37t48.5 -52t27 -57t7.5 -54.5v-21q0 -112 -83 -170
q88 -59 88 -170v-20q0 -36 -14 -74t-43.5 -75.5t-85.5 -61t-130 -23.5q-135 0 -204.5 66t-69.5 190v17h205zM1546 0h-205v156h-292v145l305 498h192v-463h66v-180h-66v-156zM1343 475l-88 -143l37 4h49v102z" />
    <glyph glyph-name="questiondown" unicode="&#xbf;" horiz-adv-x="991" 
d="M487 -199q104 0 145.5 76.5t41.5 245.5h270v-33q0 -127 -23 -220.5t-75 -164t-142 -106t-217 -35.5q-119 0 -207.5 31t-139 85.5t-74 120.5t-23.5 144q0 81 19 146.5t50 109.5t68.5 82t75.5 73.5t71 73.5t55.5 92.5t27.5 120.5h184q7 -91 -19 -175t-68.5 -147.5t-86 -121
t-74.5 -117.5t-31 -115q0 -166 172 -166zM356 797v288h291v-288h-291z" />
    <glyph glyph-name="Agrave" unicode="&#xc0;" horiz-adv-x="1292" 
d="M457 1606h379l419 -1606h-294l-89 365h-450l-88 -365h-297zM647 1292l-168 -688h334zM385 1946h281l114 -226h-266z" />
    <glyph glyph-name="Aacute" unicode="&#xc1;" horiz-adv-x="1292" 
d="M457 1606h379l419 -1606h-294l-89 365h-450l-88 -365h-297zM647 1292l-168 -688h334zM629 1946h280l-129 -226h-266z" />
    <glyph glyph-name="Acircumflex" unicode="&#xc2;" horiz-adv-x="1292" 
d="M457 1606h379l419 -1606h-294l-89 365h-450l-88 -365h-297zM647 1292l-168 -688h334zM516 1720h-246l244 226h266l244 -226h-246l-131 103z" />
    <glyph glyph-name="Atilde" unicode="&#xc3;" horiz-adv-x="1292" 
d="M457 1606h379l419 -1606h-294l-89 365h-450l-88 -365h-297zM854 1931h150q0 -117 -54 -171t-141 -54q-55 0 -112.5 25.5t-105.5 51t-79 25.5q-72 0 -72 -73h-149q0 117 53.5 171t140.5 54q55 0 112.5 -25.5t105.5 -51t79 -25.5q72 0 72 73zM647 1292l-168 -688h334z" />
    <glyph glyph-name="Adieresis" unicode="&#xc4;" horiz-adv-x="1292" 
d="M457 1606h379l419 -1606h-294l-89 365h-450l-88 -365h-297zM647 1292l-168 -688h334zM594 1927v-188h-240v188h240zM940 1927v-188h-240v188h240z" />
    <glyph glyph-name="Aring" unicode="&#xc5;" horiz-adv-x="1292" 
d="M438 1763q0 86 61.5 147.5t147.5 61.5t147.5 -61.5t61.5 -147.5q0 -96 -74 -157h54l419 -1606h-294l-89 365h-450l-88 -365h-297l420 1606h53q-72 62 -72 157zM647 1292l-168 -688h334zM541 1763q0 -44 31 -76t75 -32t75.5 32t31.5 76q0 43 -31.5 75t-75.5 32t-75 -32
t-31 -75z" />
    <glyph glyph-name="AE" unicode="&#xc6;" horiz-adv-x="1781" 
d="M592 1597h1108v-239h-696l59 -424h534v-238h-501l63 -456h541v-240h-799l-45 373h-414l-125 -373h-294zM748 1286l-226 -676h305z" />
    <glyph glyph-name="Ccedilla" unicode="&#xc7;" horiz-adv-x="1310" 
d="M485 -389l41 121q58 -33 146 -33q104 0 104 51t-108 51q-16 0 -33.5 -2t-26.5 -4l-10 -2l-35 53l49 129q-269 17 -395.5 204.5t-126.5 578.5v82q0 411 141 597.5t443 186.5q279 0 415 -134.5t136 -422.5v-70h-277q0 198 -58.5 292.5t-199.5 94.5h-18q-165 0 -233 -132
t-68 -412v-82q0 -281 67.5 -413t233.5 -132h18q258 0 258 326h277v-21q0 -260 -118.5 -392t-358.5 -149l-25 -69q88 -3 146.5 -46.5t58.5 -125.5q0 -174 -234 -174q-138 0 -209 49z" />
    <glyph glyph-name="Egrave" unicode="&#xc8;" horiz-adv-x="1157" 
d="M125 1597h950v-239h-676v-424h574v-238h-574v-456h676v-240h-950v1597zM346 1946h281l114 -226h-266z" />
    <glyph glyph-name="Eacute" unicode="&#xc9;" horiz-adv-x="1157" 
d="M125 1597h950v-239h-676v-424h574v-238h-574v-456h676v-240h-950v1597zM590 1946h280l-129 -226h-266z" />
    <glyph glyph-name="Ecircumflex" unicode="&#xca;" horiz-adv-x="1157" 
d="M125 1597h950v-239h-676v-424h574v-238h-574v-456h676v-240h-950v1597zM477 1720h-246l244 226h266l244 -226h-246l-131 103z" />
    <glyph glyph-name="Edieresis" unicode="&#xcb;" horiz-adv-x="1157" 
d="M125 1597h950v-239h-676v-424h574v-238h-574v-456h676v-240h-950v1597zM555 1927v-188h-240v188h240zM901 1927v-188h-239v188h239z" />
    <glyph glyph-name="Igrave" unicode="&#xcc;" horiz-adv-x="544" 
d="M410 1597v-1597h-275v1597h275zM10 1946h281l115 -226h-267z" />
    <glyph glyph-name="Iacute" unicode="&#xcd;" horiz-adv-x="544" 
d="M410 1597v-1597h-275v1597h275zM254 1946h281l-129 -226h-267z" />
    <glyph glyph-name="Icircumflex" unicode="&#xce;" horiz-adv-x="544" 
d="M410 1597v-1597h-275v1597h275zM141 1720h-245l243 226h267l243 -226h-246l-131 103z" />
    <glyph glyph-name="Idieresis" unicode="&#xcf;" horiz-adv-x="544" 
d="M410 1597v-1597h-275v1597h275zM565 1927v-188h-239v188h239zM219 1927v-188h-239v188h239z" />
    <glyph glyph-name="Eth" unicode="&#xd0;" horiz-adv-x="1464" 
d="M29 713v209h219v675h471q171 0 292 -40.5t203.5 -130.5t121 -234.5t38.5 -351.5v-82q0 -207 -38.5 -351.5t-121 -235t-203.5 -131t-292 -40.5h-471v713h-219zM522 1358v-436h369v-209h-369v-473h180q211 0 301.5 122.5t90.5 395.5v82q0 273 -90.5 395.5t-301.5 122.5
h-180z" />
    <glyph glyph-name="Ntilde" unicode="&#xd1;" horiz-adv-x="1382" 
d="M1257 1597v-1597h-290l-590 1102l8 -338v-764h-260v1597h291l590 -1101l-9 338v763h260zM899 1931h150q0 -117 -54 -171t-141 -54q-55 0 -112.5 25.5t-105.5 51t-79 25.5q-72 0 -72 -73h-149q0 117 53.5 171t140.5 54q55 0 112.5 -25.5t105.5 -51t79 -25.5q72 0 72 73z
" />
    <glyph glyph-name="Ograve" unicode="&#xd2;" horiz-adv-x="1361" 
d="M682 -27q-304 0 -448 187t-144 598v82q0 411 144 597.5t448 186.5q303 0 446.5 -187t143.5 -597v-82q0 -411 -144 -598t-446 -187zM672 213h18q163 0 232 133t69 412v82q0 279 -69 411.5t-232 132.5h-18q-163 0 -232 -132.5t-69 -411.5v-82q0 -279 69 -412t232 -133z
M420 1946h280l115 -226h-266z" />
    <glyph glyph-name="Oacute" unicode="&#xd3;" horiz-adv-x="1361" 
d="M682 -27q-304 0 -448 187t-144 598v82q0 411 144 597.5t448 186.5q303 0 446.5 -187t143.5 -597v-82q0 -411 -144 -598t-446 -187zM672 213h18q163 0 232 133t69 412v82q0 279 -69 411.5t-232 132.5h-18q-163 0 -232 -132.5t-69 -411.5v-82q0 -279 69 -412t232 -133z
M664 1946h280l-129 -226h-266z" />
    <glyph glyph-name="Ocircumflex" unicode="&#xd4;" horiz-adv-x="1361" 
d="M682 -27q-304 0 -448 187t-144 598v82q0 411 144 597.5t448 186.5q303 0 446.5 -187t143.5 -597v-82q0 -411 -144 -598t-446 -187zM672 213h18q163 0 232 133t69 412v82q0 279 -69 411.5t-232 132.5h-18q-163 0 -232 -132.5t-69 -411.5v-82q0 -279 69 -412t232 -133z
M551 1720h-246l244 226h266l244 -226h-246l-131 103z" />
    <glyph glyph-name="Otilde" unicode="&#xd5;" horiz-adv-x="1361" 
d="M682 -27q-304 0 -448 187t-144 598v82q0 411 144 597.5t448 186.5q303 0 446.5 -187t143.5 -597v-82q0 -411 -144 -598t-446 -187zM672 213h18q163 0 232 133t69 412v82q0 279 -69 411.5t-232 132.5h-18q-163 0 -232 -132.5t-69 -411.5v-82q0 -279 69 -412t232 -133z
M889 1931h149q0 -117 -53.5 -171t-140.5 -54q-55 0 -112.5 25.5t-105.5 51t-79 25.5q-72 0 -72 -73h-149q0 117 53.5 171t140.5 54q55 0 112.5 -25.5t105.5 -51t79 -25.5q72 0 72 73z" />
    <glyph glyph-name="Odieresis" unicode="&#xd6;" horiz-adv-x="1361" 
d="M682 -27q-304 0 -448 187t-144 598v82q0 411 144 597.5t448 186.5q303 0 446.5 -187t143.5 -597v-82q0 -411 -144 -598t-446 -187zM672 213h18q163 0 232 133t69 412v82q0 279 -69 411.5t-232 132.5h-18q-163 0 -232 -132.5t-69 -411.5v-82q0 -279 69 -412t232 -133z
M629 1927v-188h-240v188h240zM975 1927v-188h-240v188h240z" />
    <glyph glyph-name="multiply" unicode="&#xd7;" horiz-adv-x="1228" 
d="M236 248l-173 172l379 379l-379 379l173 172l378 -379l379 379l172 -172l-379 -379l379 -379l-172 -172l-379 379z" />
    <glyph glyph-name="Oslash" unicode="&#xd8;" horiz-adv-x="1351" 
d="M90 840q0 411 144 597.5t448 186.5q228 0 362 -102l48 75h174l-119 -188q125 -189 125 -569v-82q0 -411 -144 -598t-446 -187q-235 0 -371 107l-49 -80h-174l121 195q-119 189 -119 563v82zM991 840q0 165 -24 282l-508 -809q69 -100 213 -100h18q163 0 232 133t69 412
v82zM371 758q0 -164 20 -273l506 803q-72 96 -207 96h-18q-163 0 -232 -132.5t-69 -411.5v-82z" />
    <glyph glyph-name="Ugrave" unicode="&#xd9;" horiz-adv-x="1341" 
d="M672 -27q-299 0 -428 127.5t-129 401.5v1095h274v-1085q0 -160 64.5 -229.5t218.5 -69.5q152 0 216 69.5t64 229.5v1085h275v-1095q0 -274 -129 -401.5t-426 -127.5zM410 1946h280l115 -226h-266z" />
    <glyph glyph-name="Uacute" unicode="&#xda;" horiz-adv-x="1341" 
d="M672 -27q-299 0 -428 127.5t-129 401.5v1095h274v-1085q0 -160 64.5 -229.5t218.5 -69.5q152 0 216 69.5t64 229.5v1085h275v-1095q0 -274 -129 -401.5t-426 -127.5zM653 1946h281l-129 -226h-266z" />
    <glyph glyph-name="Ucircumflex" unicode="&#xdb;" horiz-adv-x="1341" 
d="M672 -27q-299 0 -428 127.5t-129 401.5v1095h274v-1085q0 -160 64.5 -229.5t218.5 -69.5q152 0 216 69.5t64 229.5v1085h275v-1095q0 -274 -129 -401.5t-426 -127.5zM541 1720h-246l244 226h266l244 -226h-246l-131 103z" />
    <glyph glyph-name="Udieresis" unicode="&#xdc;" horiz-adv-x="1341" 
d="M672 -27q-299 0 -428 127.5t-129 401.5v1095h274v-1085q0 -160 64.5 -229.5t218.5 -69.5q152 0 216 69.5t64 229.5v1085h275v-1095q0 -274 -129 -401.5t-426 -127.5zM618 1927v-188h-239v188h239zM965 1927v-188h-240v188h240z" />
    <glyph glyph-name="Yacute" unicode="&#xdd;" horiz-adv-x="1249" 
d="M762 487v-487h-275v487l-462 1110h299l301 -772l301 772h299zM606 1946h281l-129 -226h-266z" />
    <glyph glyph-name="Thorn" unicode="&#xde;" horiz-adv-x="1224" 
d="M399 1597v-299h226q83 0 152.5 -10t143 -41.5t123.5 -82.5t82.5 -139t32.5 -206v-41q0 -118 -32.5 -206t-82.5 -139t-123.5 -82.5t-143 -41.5t-152.5 -10h-226v-299h-274v1597h274zM399 539h236q45 0 84 10t78 35t61.5 77t22.5 127v21q0 61 -16 107t-40 72.5t-58 43
t-65.5 22t-66.5 5.5h-236v-520z" />
    <glyph glyph-name="germandbls" unicode="&#xdf;" horiz-adv-x="1255" 
d="M569 709v168q118 65 178 142.5t60 178.5q0 110 -52 172t-163 62q-109 0 -162 -62.5t-53 -159.5v-1210h-266v1225q0 97 27 175t82.5 138.5t150 93.5t221.5 33q121 0 214.5 -34.5t151 -95.5t86.5 -139t29 -169v-19q0 -129 -55.5 -222t-169.5 -173l65 -43
q149 -99 222 -199.5t73 -222.5v-14q0 -72 -19.5 -133t-62.5 -114t-124 -83.5t-193 -30.5q-100 0 -168.5 26t-105 76t-51.5 110t-15 141v14h233q0 -75 24.5 -117.5t88.5 -42.5q41 0 68 12t39 35.5t16 47t4 57.5q0 128 -194 254z" />
    <glyph glyph-name="agrave" unicode="&#xe0;" horiz-adv-x="1101" 
d="M772 0l-20 125q-131 -152 -355 -152q-163 0 -245 90t-82 230v20q0 85 28.5 147.5t83 100t118 58.5t149.5 34l276 43v4q0 107 -40 156t-140 49q-101 0 -140.5 -48.5t-39.5 -129.5h-254v18q0 73 21 135t68.5 116t137 85t213.5 31t211 -28t136.5 -83.5t71 -128.5t21.5 -172
v-393l17 -307h-236zM489 193q84 0 143.5 33.5t92.5 78.5v230l-227 -37q-162 -26 -162 -156v-16q0 -56 38 -94.5t115 -38.5zM207 1597h291l186 -366h-266z" />
    <glyph glyph-name="aacute" unicode="&#xe1;" horiz-adv-x="1101" 
d="M772 0l-20 125q-131 -152 -355 -152q-163 0 -245 90t-82 230v20q0 85 28.5 147.5t83 100t118 58.5t149.5 34l276 43v4q0 107 -40 156t-140 49q-101 0 -140.5 -48.5t-39.5 -129.5h-254v18q0 73 21 135t68.5 116t137 85t213.5 31t211 -28t136.5 -83.5t71 -128.5t21.5 -172
v-393l17 -307h-236zM489 193q84 0 143.5 33.5t92.5 78.5v230l-227 -37q-162 -26 -162 -156v-16q0 -56 38 -94.5t115 -38.5zM604 1597h291l-211 -366h-266z" />
    <glyph glyph-name="acircumflex" unicode="&#xe2;" horiz-adv-x="1101" 
d="M772 0l-20 125q-131 -152 -355 -152q-163 0 -245 90t-82 230v20q0 85 28.5 147.5t83 100t118 58.5t149.5 34l276 43v4q0 107 -40 156t-140 49q-101 0 -140.5 -48.5t-39.5 -129.5h-254v18q0 73 21 135t68.5 116t137 85t213.5 31t211 -28t136.5 -83.5t71 -128.5t21.5 -172
v-393l17 -307h-236zM391 1231h-239l272 366h254l272 -366h-239l-160 188zM489 193q84 0 143.5 33.5t92.5 78.5v230l-227 -37q-162 -26 -162 -156v-16q0 -56 38 -94.5t115 -38.5z" />
    <glyph glyph-name="atilde" unicode="&#xe3;" horiz-adv-x="1101" 
d="M772 0l-20 125q-131 -152 -355 -152q-163 0 -245 90t-82 230v20q0 85 28.5 147.5t83 100t118 58.5t149.5 34l276 43v4q0 107 -40 156t-140 49q-101 0 -140.5 -48.5t-39.5 -129.5h-254v18q0 73 21 135t68.5 116t137 85t213.5 31t211 -28t136.5 -83.5t71 -128.5t21.5 -172
v-393l17 -307h-236zM752 1565h182q0 -147 -57 -219t-150 -72q-56 0 -116 27t-110 54t-83 27q-68 0 -68 -79h-182q0 147 57 218.5t150 71.5q56 0 116 -27t110 -54t83 -27q68 0 68 80zM489 193q84 0 143.5 33.5t92.5 78.5v230l-227 -37q-162 -26 -162 -156v-16q0 -56 38 -94.5
t115 -38.5z" />
    <glyph glyph-name="adieresis" unicode="&#xe4;" horiz-adv-x="1101" 
d="M772 0l-20 125q-131 -152 -355 -152q-163 0 -245 90t-82 230v20q0 85 28.5 147.5t83 100t118 58.5t149.5 34l276 43v4q0 107 -40 156t-140 49q-101 0 -140.5 -48.5t-39.5 -129.5h-254v18q0 73 21 135t68.5 116t137 85t213.5 31t211 -28t136.5 -83.5t71 -128.5t21.5 -172
v-393l17 -307h-236zM489 193q84 0 143.5 33.5t92.5 78.5v230l-227 -37q-162 -26 -162 -156v-16q0 -56 38 -94.5t115 -38.5zM492 1563v-289h-291v289h291zM901 1563v-289h-291v289h291z" />
    <glyph glyph-name="aring" unicode="&#xe5;" horiz-adv-x="1101" 
d="M772 0l-20 125q-131 -152 -355 -152q-163 0 -245 90t-82 230v20q0 85 28.5 147.5t83 100t118 58.5t149.5 34l276 43v4q0 107 -40 156t-140 49q-101 0 -140.5 -48.5t-39.5 -129.5h-254v18q0 73 21 135t68.5 116t137 85t213.5 31t211 -28t136.5 -83.5t71 -128.5t21.5 -172
v-393l17 -307h-236zM342 1415q0 86 61.5 147.5t147.5 61.5t147.5 -61.5t61.5 -147.5q0 -87 -61 -148t-148 -61t-148 61t-61 148zM489 193q84 0 143.5 33.5t92.5 78.5v230l-227 -37q-162 -26 -162 -156v-16q0 -56 38 -94.5t115 -38.5zM444 1415q0 -44 31.5 -76t75.5 -32
t75 32t31 76q0 43 -31 75t-75 32t-75.5 -32t-31.5 -75z" />
    <glyph glyph-name="ae" unicode="&#xe6;" horiz-adv-x="1767" 
d="M1708 444h-717q15 -264 244 -264q103 0 162 50.5t59 117.5h252v-8q0 -155 -126 -261t-349 -106q-263 0 -395 168q-78 -76 -187.5 -122t-234.5 -46q-172 0 -259 90t-87 230v20q0 85 29 147.5t84.5 100t119.5 58.5t150 34l272 43v4q0 107 -40 156t-140 49
q-101 0 -140.5 -48.5t-39.5 -129.5h-254v18q0 73 21 135t68.5 116t137 85t213.5 31q250 0 338 -141q118 141 332 141q123 0 217.5 -41t152.5 -115t87.5 -171.5t29.5 -215.5v-125zM737 317l11 9q-23 94 -23 190v12l-225 -36q-164 -29 -164 -156v-17q0 -56 38 -94.5t115 -38.5
q94 0 156.5 41.5t91.5 89.5zM1217 905q-211 0 -226 -264h449q-12 264 -223 264z" />
    <glyph glyph-name="ccedilla" unicode="&#xe7;" horiz-adv-x="1075" 
d="M354 -389l41 121q58 -33 146 -33q104 0 104 51t-108 51q-16 0 -33.5 -2t-27.5 -4l-9 -2l-35 53l49 131q-204 22 -305.5 165t-101.5 368v65q0 119 28.5 215.5t85.5 169t150 112.5t215 40q220 0 335.5 -110.5t115.5 -284.5v-45h-252q0 98 -48.5 153.5t-144.5 55.5
q-219 0 -219 -306v-65q0 -303 219 -303q97 0 145 52t48 136h252v-43q0 -152 -99 -255t-289 -120l-24 -69q88 -3 146.5 -46.5t58.5 -125.5q0 -174 -234 -174q-138 0 -209 49z" />
    <glyph glyph-name="egrave" unicode="&#xe8;" horiz-adv-x="1132" 
d="M1057 444h-717q15 -264 244 -264q103 0 162 50.5t59 117.5h252v-8q0 -155 -126 -261t-349 -106q-128 0 -226.5 41t-159.5 115t-91.5 171.5t-30.5 215.5v53q0 117 31 215t91 172t156 115t219 41q122 0 216 -41t152.5 -115t88 -171.5t29.5 -215.5v-125zM227 1597h291
l187 -366h-267zM565 905q-210 0 -225 -264h448q-12 264 -223 264z" />
    <glyph glyph-name="eacute" unicode="&#xe9;" horiz-adv-x="1132" 
d="M1057 444h-717q15 -264 244 -264q103 0 162 50.5t59 117.5h252v-8q0 -155 -126 -261t-349 -106q-128 0 -226.5 41t-159.5 115t-91.5 171.5t-30.5 215.5v53q0 117 31 215t91 172t156 115t219 41q122 0 216 -41t152.5 -115t88 -171.5t29.5 -215.5v-125zM625 1597h290
l-210 -366h-267zM565 905q-210 0 -225 -264h448q-12 264 -223 264z" />
    <glyph glyph-name="ecircumflex" unicode="&#xea;" horiz-adv-x="1132" 
d="M1057 444h-717q15 -264 244 -264q103 0 162 50.5t59 117.5h252v-8q0 -155 -126 -261t-349 -106q-128 0 -226.5 41t-159.5 115t-91.5 171.5t-30.5 215.5v53q0 117 31 215t91 172t156 115t219 41q122 0 216 -41t152.5 -115t88 -171.5t29.5 -215.5v-125zM412 1231h-240
l272 366h254l273 -366h-240l-160 188zM565 905q-210 0 -225 -264h448q-12 264 -223 264z" />
    <glyph glyph-name="edieresis" unicode="&#xeb;" horiz-adv-x="1132" 
d="M1057 444h-717q15 -264 244 -264q103 0 162 50.5t59 117.5h252v-8q0 -155 -126 -261t-349 -106q-128 0 -226.5 41t-159.5 115t-91.5 171.5t-30.5 215.5v53q0 117 31 215t91 172t156 115t219 41q122 0 216 -41t152.5 -115t88 -171.5t29.5 -215.5v-125zM565 905
q-210 0 -225 -264h448q-12 264 -223 264zM922 1563v-289h-291v289h291zM512 1563v-289h-291v289h291z" />
    <glyph glyph-name="igrave" unicode="&#xec;" horiz-adv-x="512" 
d="M123 0v1085h266v-1085h-266zM-88 1597h291l186 -366h-266z" />
    <glyph glyph-name="iacute" unicode="&#xed;" horiz-adv-x="512" 
d="M123 0v1085h266v-1085h-266zM309 1597h291l-211 -366h-266z" />
    <glyph glyph-name="icircumflex" unicode="&#xee;" horiz-adv-x="512" 
d="M123 0v1085h266v-1085h-266zM96 1231h-239l272 366h254l272 -366h-239l-160 188z" />
    <glyph glyph-name="idieresis" unicode="&#xef;" horiz-adv-x="512" 
d="M123 0v1085h266v-1085h-266zM197 1563v-289h-291v289h291zM606 1563v-289h-291v289h291z" />
    <glyph glyph-name="eth" unicode="&#xf0;" horiz-adv-x="1132" 
d="M74 1425v240q334 -24 540 -137l246 137v-162l-117 -65q45 -39 91 -92q223 -271 223 -771v-65q0 -118 -29.5 -214.5t-88.5 -169.5t-154.5 -113t-219.5 -40t-219.5 40t-154 113t-88 169.5t-29.5 214.5v65q0 242 117 389.5t337 147.5q100 0 181 -35q-33 62 -82 117
q-50 55 -129 104l-359 -200v162l199 112q-108 36 -264 53zM565 207q114 0 170 79.5t56 223.5v65q0 145 -56 225.5t-170 80.5t-169.5 -80t-55.5 -226v-65q0 -144 55.5 -223.5t169.5 -79.5z" />
    <glyph glyph-name="ntilde" unicode="&#xf1;" horiz-adv-x="1153" 
d="M1047 0h-265v700q0 82 -42.5 131.5t-129.5 49.5q-84 0 -139.5 -37.5t-85.5 -87.5v-756h-266v778l-19 307h236l24 -143q118 170 353 170q86 0 152 -29.5t105 -81.5t58 -117t19 -141v-743zM784 1565h183q0 -147 -57 -219t-150 -72q-56 0 -116 27t-110 54t-83 27
q-68 0 -68 -79h-182q0 147 57 218.5t150 71.5q56 0 116 -27t110 -54t83 -27q67 0 67 80z" />
    <glyph glyph-name="ograve" unicode="&#xf2;" horiz-adv-x="1132" 
d="M565 -27q-124 0 -219.5 40t-154 113t-88 169.5t-29.5 214.5v65q0 119 29.5 215.5t88 169t153.5 112.5t220 40t220 -40t154 -112.5t88.5 -169t29.5 -215.5v-65q0 -118 -29.5 -214.5t-88.5 -169.5t-154.5 -113t-219.5 -40zM565 207q114 0 170 79.5t56 223.5v65
q0 145 -56 225.5t-170 80.5t-169.5 -80t-55.5 -226v-65q0 -144 55.5 -223.5t169.5 -79.5zM221 1597h291l186 -366h-266z" />
    <glyph glyph-name="oacute" unicode="&#xf3;" horiz-adv-x="1132" 
d="M565 -27q-124 0 -219.5 40t-154 113t-88 169.5t-29.5 214.5v65q0 119 29.5 215.5t88 169t153.5 112.5t220 40t220 -40t154 -112.5t88.5 -169t29.5 -215.5v-65q0 -118 -29.5 -214.5t-88.5 -169.5t-154.5 -113t-219.5 -40zM565 207q114 0 170 79.5t56 223.5v65
q0 145 -56 225.5t-170 80.5t-169.5 -80t-55.5 -226v-65q0 -144 55.5 -223.5t169.5 -79.5zM618 1597h291l-211 -366h-266z" />
    <glyph glyph-name="ocircumflex" unicode="&#xf4;" horiz-adv-x="1132" 
d="M565 -27q-124 0 -219.5 40t-154 113t-88 169.5t-29.5 214.5v65q0 119 29.5 215.5t88 169t153.5 112.5t220 40t220 -40t154 -112.5t88.5 -169t29.5 -215.5v-65q0 -118 -29.5 -214.5t-88.5 -169.5t-154.5 -113t-219.5 -40zM565 207q114 0 170 79.5t56 223.5v65
q0 145 -56 225.5t-170 80.5t-169.5 -80t-55.5 -226v-65q0 -144 55.5 -223.5t169.5 -79.5zM406 1231h-240l272 366h254l273 -366h-240l-160 188z" />
    <glyph glyph-name="otilde" unicode="&#xf5;" horiz-adv-x="1132" 
d="M565 -27q-124 0 -219.5 40t-154 113t-88 169.5t-29.5 214.5v65q0 119 29.5 215.5t88 169t153.5 112.5t220 40t220 -40t154 -112.5t88.5 -169t29.5 -215.5v-65q0 -118 -29.5 -214.5t-88.5 -169.5t-154.5 -113t-219.5 -40zM565 207q114 0 170 79.5t56 223.5v65
q0 145 -56 225.5t-170 80.5t-169.5 -80t-55.5 -226v-65q0 -144 55.5 -223.5t169.5 -79.5zM766 1565h182q0 -147 -57 -219t-150 -72q-56 0 -116 27t-110 54t-83 27q-67 0 -67 -79h-183q0 147 57 218.5t150 71.5q56 0 116 -27t110 -54t83 -27q68 0 68 80z" />
    <glyph glyph-name="odieresis" unicode="&#xf6;" horiz-adv-x="1132" 
d="M565 -27q-124 0 -219.5 40t-154 113t-88 169.5t-29.5 214.5v65q0 119 29.5 215.5t88 169t153.5 112.5t220 40t220 -40t154 -112.5t88.5 -169t29.5 -215.5v-65q0 -118 -29.5 -214.5t-88.5 -169.5t-154.5 -113t-219.5 -40zM565 207q114 0 170 79.5t56 223.5v65
q0 145 -56 225.5t-170 80.5t-169.5 -80t-55.5 -226v-65q0 -144 55.5 -223.5t169.5 -79.5zM506 1563v-289h-291v289h291zM915 1563v-289h-290v289h290z" />
    <glyph glyph-name="divide" unicode="&#xf7;" horiz-adv-x="1228" 
d="M90 678v242h1049v-242h-1049zM760 512v-289h-291v289h291zM760 1374v-289h-291v289h291z" />
    <glyph glyph-name="oslash" unicode="&#xf8;" horiz-adv-x="1132" 
d="M1057 1085l-107 -139q107 -140 107 -371v-65q0 -118 -29.5 -214.5t-88.5 -169.5t-154.5 -113t-219.5 -40q-185 0 -301 84l-43 -57h-147l106 139q-106 138 -106 371v65q0 119 29.5 215.5t88 169t153.5 112.5t220 40q179 0 299 -84l45 57h148zM340 510q0 -75 16 -141
l355 458q-57 54 -146 54q-114 0 -169.5 -80t-55.5 -226v-65zM791 575q0 77 -19 142l-352 -459q54 -51 145 -51q114 0 170 79.5t56 223.5v65z" />
    <glyph glyph-name="ugrave" unicode="&#xf9;" horiz-adv-x="1153" 
d="M106 1085h265v-700q0 -82 43 -130t131 -48q145 0 225 123v755h266v-778l17 -307h-236l-24 143q-118 -170 -353 -170q-86 0 -152 29.5t-105 81.5t-58 117.5t-19 142.5v741zM225 1597h291l186 -366h-266z" />
    <glyph glyph-name="uacute" unicode="&#xfa;" horiz-adv-x="1153" 
d="M106 1085h265v-700q0 -82 43 -130t131 -48q145 0 225 123v755h266v-778l17 -307h-236l-24 143q-118 -170 -353 -170q-86 0 -152 29.5t-105 81.5t-58 117.5t-19 142.5v741zM623 1597h290l-211 -366h-266z" />
    <glyph glyph-name="ucircumflex" unicode="&#xfb;" horiz-adv-x="1153" 
d="M106 1085h265v-700q0 -82 43 -130t131 -48q145 0 225 123v755h266v-778l17 -307h-236l-24 143q-118 -170 -353 -170q-86 0 -152 29.5t-105 81.5t-58 117.5t-19 142.5v741zM410 1231h-240l272 366h254l273 -366h-240l-160 188z" />
    <glyph glyph-name="udieresis" unicode="&#xfc;" horiz-adv-x="1153" 
d="M106 1085h265v-700q0 -82 43 -130t131 -48q145 0 225 123v755h266v-778l17 -307h-236l-24 143q-118 -170 -353 -170q-86 0 -152 29.5t-105 81.5t-58 117.5t-19 142.5v741zM920 1563v-289h-291v289h291zM510 1563v-289h-291v289h291z" />
    <glyph glyph-name="yacute" unicode="&#xfd;" horiz-adv-x="1085" 
d="M549 332l239 753h287l-383 -1032l-143 -463h-316l173 463l-383 1032h288zM602 1597h291l-211 -366h-266z" />
    <glyph glyph-name="thorn" unicode="&#xfe;" horiz-adv-x="1153" 
d="M115 1638h266v-657q102 131 291 131q109 0 188.5 -39.5t126 -113t68.5 -168.5t22 -216v-65q0 -120 -22 -215t-68.5 -168.5t-126.5 -113.5t-188 -40q-187 0 -291 129v-512h-266v2048zM383 330q80 -123 213 -123q215 0 215 303v65q0 306 -215 306q-132 0 -213 -125v-426z
" />
    <glyph glyph-name="ydieresis" unicode="&#xff;" horiz-adv-x="1085" 
d="M549 332l239 753h287l-383 -1032l-143 -463h-316l173 463l-383 1032h288zM899 1563v-289h-291v289h291zM489 1563v-289h-290v289h290z" />
    <glyph glyph-name="Amacron" unicode="&#x100;" horiz-adv-x="1292" 
d="M457 1606h379l419 -1606h-294l-89 365h-450l-88 -365h-297zM647 1292l-168 -688h334zM365 1747v172h565v-172h-565z" />
    <glyph glyph-name="amacron" unicode="&#x101;" horiz-adv-x="1101" 
d="M772 0l-20 125q-131 -152 -355 -152q-163 0 -245 90t-82 230v20q0 85 28.5 147.5t83 100t118 58.5t149.5 34l276 43v4q0 107 -40 156t-140 49q-101 0 -140.5 -48.5t-39.5 -129.5h-254v18q0 73 21 135t68.5 116t137 85t213.5 31t211 -28t136.5 -83.5t71 -128.5t21.5 -172
v-393l17 -307h-236zM266 1296v236h570v-236h-570zM489 193q84 0 143.5 33.5t92.5 78.5v230l-227 -37q-162 -26 -162 -156v-16q0 -56 38 -94.5t115 -38.5z" />
    <glyph glyph-name="Abreve" unicode="&#x102;" horiz-adv-x="1292" 
d="M457 1606h379l419 -1606h-294l-89 365h-450l-88 -365h-297zM647 1692q-350 0 -350 254h188q0 -101 162 -101t162 101h188q0 -254 -350 -254zM647 1292l-168 -688h334z" />
    <glyph glyph-name="abreve" unicode="&#x103;" horiz-adv-x="1101" 
d="M772 0l-20 125q-131 -152 -355 -152q-163 0 -245 90t-82 230v20q0 85 28.5 147.5t83 100t118 58.5t149.5 34l276 43v4q0 107 -40 156t-140 49q-101 0 -140.5 -48.5t-39.5 -129.5h-254v18q0 73 21 135t68.5 116t137 85t213.5 31t211 -28t136.5 -83.5t71 -128.5t21.5 -172
v-393l17 -307h-236zM551 1206q-193 0 -281.5 105t-85.5 286h197q0 -93 44.5 -139.5t125.5 -46.5t125.5 46.5t44.5 139.5h197q3 -181 -85.5 -286t-281.5 -105zM489 193q84 0 143.5 33.5t92.5 78.5v230l-227 -37q-162 -26 -162 -156v-16q0 -56 38 -94.5t115 -38.5z" />
    <glyph glyph-name="Aogonek" unicode="&#x104;" horiz-adv-x="1292" 
d="M1116 -162q0 -38 25.5 -61t70.5 -23q57 0 99 25l63 -168q-34 -21 -89.5 -35t-113.5 -14q-121 0 -190.5 54t-69.5 161q0 99 60 182l-99 406h-450l-88 -365h-297l420 1606h379l419 -1606q-139 -61 -139 -162zM647 1292l-168 -688h334z" />
    <glyph glyph-name="aogonek" unicode="&#x105;" horiz-adv-x="1101" 
d="M489 193q84 0 143.5 33.5t92.5 78.5v230l-227 -37q-162 -26 -162 -156v-16q0 -56 38 -94.5t115 -38.5zM868 -162q0 -37 26 -60.5t71 -23.5q56 0 98 25l63 -168q-34 -21 -89 -35t-113 -14q-121 0 -190.5 54t-69.5 161q0 137 106 233l-18 115q-131 -152 -355 -152
q-163 0 -245 90t-82 230v20q0 85 28.5 147.5t83 100t118 58.5t149.5 34l276 43v4q0 107 -40 156t-140 49q-101 0 -140.5 -48.5t-39.5 -129.5h-254v18q0 73 21 135t68.5 116t137 85t213.5 31t211 -28t136.5 -83.5t71 -128.5t21.5 -172v-393l17 -307q-140 -62 -140 -162z" />
    <glyph glyph-name="Cacute" unicode="&#x106;" horiz-adv-x="1310" 
d="M371 758q0 -281 67.5 -413t233.5 -132h18q258 0 258 326h277v-21q0 -280 -136.5 -412.5t-414.5 -132.5q-302 0 -443 186.5t-141 598.5v82q0 411 141 597.5t443 186.5q279 0 415 -134.5t136 -422.5v-70h-277q0 198 -58.5 292.5t-199.5 94.5h-18q-165 0 -233 -132t-68 -412
v-82zM655 1946h281l-129 -226h-266z" />
    <glyph glyph-name="cacute" unicode="&#x107;" horiz-adv-x="1075" 
d="M340 510q0 -303 219 -303q97 0 145 52t48 136h252v-43q0 -79 -28 -147t-82 -120t-141.5 -82t-199.5 -30q-122 0 -215 40t-150 113t-85.5 169.5t-28.5 214.5v65q0 119 28.5 215.5t85.5 169t150 112.5t215 40q220 0 335.5 -110.5t115.5 -284.5v-45h-252q0 98 -48.5 153.5
t-144.5 55.5q-219 0 -219 -306v-65zM606 1597h291l-211 -366h-266z" />
    <glyph glyph-name="Ccircumflex" unicode="&#x108;" horiz-adv-x="1310" 
d="M371 758q0 -281 67.5 -413t233.5 -132h18q258 0 258 326h277v-21q0 -280 -136.5 -412.5t-414.5 -132.5q-302 0 -443 186.5t-141 598.5v82q0 411 141 597.5t443 186.5q279 0 415 -134.5t136 -422.5v-70h-277q0 198 -58.5 292.5t-199.5 94.5h-18q-165 0 -233 -132t-68 -412
v-82zM543 1720h-246l244 226h266l244 -226h-246l-131 103z" />
    <glyph glyph-name="ccircumflex" unicode="&#x109;" horiz-adv-x="1075" 
d="M340 510q0 -303 219 -303q97 0 145 52t48 136h252v-43q0 -79 -28 -147t-82 -120t-141.5 -82t-199.5 -30q-122 0 -215 40t-150 113t-85.5 169.5t-28.5 214.5v65q0 119 28.5 215.5t85.5 169t150 112.5t215 40q220 0 335.5 -110.5t115.5 -284.5v-45h-252q0 98 -48.5 153.5
t-144.5 55.5q-219 0 -219 -306v-65zM393 1231h-239l272 366h254l272 -366h-239l-160 188z" />
    <glyph glyph-name="Cdotaccent" unicode="&#x10a;" horiz-adv-x="1310" 
d="M371 758q0 -281 67.5 -413t233.5 -132h18q258 0 258 326h277v-21q0 -280 -136.5 -412.5t-414.5 -132.5q-302 0 -443 186.5t-141 598.5v82q0 411 141 597.5t443 186.5q279 0 415 -134.5t136 -422.5v-70h-277q0 198 -58.5 292.5t-199.5 94.5h-18q-165 0 -233 -132t-68 -412
v-82zM793 1927v-188h-238v188h238z" />
    <glyph glyph-name="cdotaccent" unicode="&#x10b;" horiz-adv-x="1075" 
d="M340 510q0 -303 219 -303q97 0 145 52t48 136h252v-43q0 -79 -28 -147t-82 -120t-141.5 -82t-199.5 -30q-122 0 -215 40t-150 113t-85.5 169.5t-28.5 214.5v65q0 119 28.5 215.5t85.5 169t150 112.5t215 40q220 0 335.5 -110.5t115.5 -284.5v-45h-252q0 98 -48.5 153.5
t-144.5 55.5q-219 0 -219 -306v-65zM698 1563v-289h-290v289h290z" />
    <glyph glyph-name="Ccaron" unicode="&#x10c;" horiz-adv-x="1310" 
d="M371 758q0 -281 67.5 -413t233.5 -132h18q258 0 258 326h277v-21q0 -280 -136.5 -412.5t-414.5 -132.5q-302 0 -443 186.5t-141 598.5v82q0 411 141 597.5t443 186.5q279 0 415 -134.5t136 -422.5v-70h-277q0 198 -58.5 292.5t-199.5 94.5h-18q-165 0 -233 -132t-68 -412
v-82zM297 1946h246l131 -105l131 105h246l-244 -226h-266z" />
    <glyph glyph-name="ccaron" unicode="&#x10d;" horiz-adv-x="1075" 
d="M340 510q0 -303 219 -303q97 0 145 52t48 136h252v-43q0 -79 -28 -147t-82 -120t-141.5 -82t-199.5 -30q-122 0 -215 40t-150 113t-85.5 169.5t-28.5 214.5v65q0 119 28.5 215.5t85.5 169t150 112.5t215 40q220 0 335.5 -110.5t115.5 -284.5v-45h-252q0 98 -48.5 153.5
t-144.5 55.5q-219 0 -219 -306v-65zM154 1597h239l160 -188l160 188h239l-272 -366h-254z" />
    <glyph glyph-name="Dcaron" unicode="&#x10e;" horiz-adv-x="1341" 
d="M1251 758q0 -207 -38.5 -351.5t-121 -235t-203.5 -131t-292 -40.5h-471v1597h471q171 0 292 -40.5t203.5 -130.5t121 -234.5t38.5 -351.5v-82zM399 240h181q211 0 301 122.5t90 395.5v82q0 273 -90 395.5t-301 122.5h-181v-1118zM252 1946h246l131 -105l131 105h246
l-244 -226h-266z" />
    <glyph glyph-name="dcaron" unicode="&#x10f;" horiz-adv-x="1165" 
d="M494 1112q181 0 286 -127v653h267v-1331l16 -307h-236l-22 135q-104 -162 -311 -162q-109 0 -189 40t-127 113.5t-69.5 168.5t-22.5 215v65q0 96 13.5 175.5t44.5 147.5t78 115t116 73t156 26zM780 756q-30 49 -83.5 87t-129.5 38q-215 0 -215 -306v-65q0 -303 215 -303
q76 0 129.5 37t83.5 86v426zM1171 1638h175l-48 -407h-127v407z" />
    <glyph glyph-name="Dcroat" unicode="&#x110;" horiz-adv-x="1464" 
d="M29 713v209h219v675h471q171 0 292 -40.5t203.5 -130.5t121 -234.5t38.5 -351.5v-82q0 -207 -38.5 -351.5t-121 -235t-203.5 -131t-292 -40.5h-471v713h-219zM522 1358v-436h369v-209h-369v-473h180q211 0 301.5 122.5t90.5 395.5v82q0 273 -90.5 395.5t-301.5 122.5
h-180z" />
    <glyph glyph-name="dcroat" unicode="&#x111;" horiz-adv-x="1165" 
d="M1200 1460v-196h-153v-957l16 -307h-236l-22 135q-104 -162 -311 -162q-109 0 -189 40t-127 113.5t-69.5 168.5t-22.5 215v65q0 96 13.5 175.5t44.5 147.5t78 115t116 73t156 26q181 0 286 -127v279h-243v196h243v178h267v-178h153zM780 756q-30 49 -83.5 87t-129.5 38
q-215 0 -215 -306v-65q0 -303 215 -303q76 0 129.5 37t83.5 86v426z" />
    <glyph glyph-name="Emacron" unicode="&#x112;" horiz-adv-x="1157" 
d="M125 1597h950v-239h-676v-424h574v-238h-574v-456h676v-240h-950v1597zM326 1747v172h565v-172h-565z" />
    <glyph glyph-name="emacron" unicode="&#x113;" horiz-adv-x="1132" 
d="M1057 444h-717q15 -264 244 -264q103 0 162 50.5t59 117.5h252v-8q0 -155 -126 -261t-349 -106q-128 0 -226.5 41t-159.5 115t-91.5 171.5t-30.5 215.5v53q0 117 31 215t91 172t156 115t219 41q122 0 216 -41t152.5 -115t88 -171.5t29.5 -215.5v-125zM287 1296v236h569
v-236h-569zM565 905q-210 0 -225 -264h448q-12 264 -223 264z" />
    <glyph glyph-name="Ebreve" unicode="&#x114;" horiz-adv-x="1157" 
d="M608 1692q-350 0 -350 254h188q0 -101 162 -101t162 101h188q0 -254 -350 -254zM125 1597h950v-239h-676v-424h574v-238h-574v-456h676v-240h-950v1597z" />
    <glyph glyph-name="ebreve" unicode="&#x115;" horiz-adv-x="1132" 
d="M1057 444h-717q15 -264 244 -264q103 0 162 50.5t59 117.5h252v-8q0 -155 -126 -261t-349 -106q-128 0 -226.5 41t-159.5 115t-91.5 171.5t-30.5 215.5v53q0 117 31 215t91 172t156 115t219 41q122 0 216 -41t152.5 -115t88 -171.5t29.5 -215.5v-125zM571 1206
q-193 0 -281 105t-85 286h196q0 -93 44.5 -139.5t125.5 -46.5t125.5 46.5t44.5 139.5h197q3 -181 -85.5 -286t-281.5 -105zM565 905q-210 0 -225 -264h448q-12 264 -223 264z" />
    <glyph glyph-name="Edotaccent" unicode="&#x116;" horiz-adv-x="1157" 
d="M125 1597h950v-239h-676v-424h574v-238h-574v-456h676v-240h-950v1597zM727 1927v-188h-238v188h238z" />
    <glyph glyph-name="edotaccent" unicode="&#x117;" horiz-adv-x="1132" 
d="M1057 444h-717q15 -264 244 -264q103 0 162 50.5t59 117.5h252v-8q0 -155 -126 -261t-349 -106q-128 0 -226.5 41t-159.5 115t-91.5 171.5t-30.5 215.5v53q0 117 31 215t91 172t156 115t219 41q122 0 216 -41t152.5 -115t88 -171.5t29.5 -215.5v-125zM565 905
q-210 0 -225 -264h448q-12 264 -223 264zM717 1563v-289h-291v289h291z" />
    <glyph glyph-name="Eogonek" unicode="&#x118;" horiz-adv-x="1157" 
d="M125 1597h950v-239h-676v-424h574v-238h-574v-456h676v-240q-139 -61 -139 -162q0 -38 25.5 -61t70.5 -23q56 0 98 25l64 -168q-34 -21 -89.5 -35t-113.5 -14q-121 0 -190.5 54t-69.5 161q0 126 94 223h-700v1597z" />
    <glyph glyph-name="eogonek" unicode="&#x119;" horiz-adv-x="1132" 
d="M1057 444h-717q15 -264 244 -264q103 0 162 50.5t59 117.5h252v-8q0 -116 -73.5 -208t-207.5 -132q-65 -20 -103 -63.5t-38 -98.5q0 -38 25.5 -61t70.5 -23q56 0 98 25l64 -168q-34 -21 -89.5 -35t-113.5 -14q-121 0 -190.5 54t-69.5 161q0 113 74 200q-144 15 -242.5 90
t-143 188.5t-44.5 260.5v53q0 117 31 215t91 172t156 115t219 41q122 0 216 -41t152.5 -115t88 -171.5t29.5 -215.5v-125zM565 905q-210 0 -225 -264h448q-12 264 -223 264z" />
    <glyph glyph-name="Ecaron" unicode="&#x11a;" horiz-adv-x="1157" 
d="M125 1597h950v-239h-676v-424h574v-238h-574v-456h676v-240h-950v1597zM231 1946h246l131 -105l131 105h246l-244 -226h-266z" />
    <glyph glyph-name="ecaron" unicode="&#x11b;" horiz-adv-x="1132" 
d="M1057 444h-717q15 -264 244 -264q103 0 162 50.5t59 117.5h252v-8q0 -155 -126 -261t-349 -106q-128 0 -226.5 41t-159.5 115t-91.5 171.5t-30.5 215.5v53q0 117 31 215t91 172t156 115t219 41q122 0 216 -41t152.5 -115t88 -171.5t29.5 -215.5v-125zM172 1597h240
l159 -188l160 188h240l-273 -366h-254zM565 905q-210 0 -225 -264h448q-12 264 -223 264z" />
    <glyph glyph-name="Gcircumflex" unicode="&#x11c;" horiz-adv-x="1359" 
d="M709 -27q-318 0 -468.5 187t-150.5 598v82q0 409 147 596.5t451 187.5q279 0 418 -134.5t139 -422.5v-70h-274q0 198 -60 292.5t-206 94.5h-19q-172 0 -243.5 -132t-71.5 -412v-82q0 -282 73 -413.5t256 -131.5h19q153 0 252 80v309h-232v238h506v-680
q-212 -187 -536 -187zM557 1720h-246l244 226h266l244 -226h-246l-131 103z" />
    <glyph glyph-name="gcircumflex" unicode="&#x11d;" horiz-adv-x="1153" 
d="M770 16v152q-103 -125 -289 -125q-107 0 -186 37t-127 105.5t-71 159.5t-23 206v53q0 110 23 200t70.5 160t127.5 109t186 39q211 0 314 -160l22 133h236l-17 -307v-766q0 -448 -477 -448q-126 0 -218.5 30.5t-145 86.5t-77 125t-24.5 155v39h252q0 -107 47 -162t160 -55
q115 0 166 54.5t51 178.5zM770 397v359q-81 125 -215 125q-105 0 -160 -74.5t-55 -202.5v-53q0 -135 54.5 -206t160.5 -71q132 0 215 123zM406 1231h-240l272 366h254l273 -366h-240l-160 188z" />
    <glyph glyph-name="Gbreve" unicode="&#x11e;" horiz-adv-x="1359" 
d="M709 -27q-318 0 -468.5 187t-150.5 598v82q0 409 147 596.5t451 187.5q279 0 418 -134.5t139 -422.5v-70h-274q0 198 -60 292.5t-206 94.5h-19q-172 0 -243.5 -132t-71.5 -412v-82q0 -282 73 -413.5t256 -131.5h19q153 0 252 80v309h-232v238h506v-680
q-212 -187 -536 -187zM688 1692q-350 0 -350 254h188q0 -101 162 -101t162 101h188q0 -254 -350 -254z" />
    <glyph glyph-name="gbreve" unicode="&#x11f;" horiz-adv-x="1153" 
d="M770 16v152q-103 -125 -289 -125q-107 0 -186 37t-127 105.5t-71 159.5t-23 206v53q0 110 23 200t70.5 160t127.5 109t186 39q211 0 314 -160l22 133h236l-17 -307v-766q0 -448 -477 -448q-126 0 -218.5 30.5t-145 86.5t-77 125t-24.5 155v39h252q0 -107 47 -162t160 -55
q115 0 166 54.5t51 178.5zM770 756q-81 125 -215 125q-105 0 -160 -74.5t-55 -202.5v-53q0 -135 54.5 -206t160.5 -71q132 0 215 123v359zM565 1206q-193 0 -281 105t-85 286h196q0 -93 44.5 -139.5t125.5 -46.5t125.5 46.5t44.5 139.5h197q3 -181 -85.5 -286t-281.5 -105z
" />
    <glyph glyph-name="Gdotaccent" unicode="&#x120;" horiz-adv-x="1359" 
d="M709 -27q-318 0 -468.5 187t-150.5 598v82q0 409 147 596.5t451 187.5q279 0 418 -134.5t139 -422.5v-70h-274q0 198 -60 292.5t-206 94.5h-19q-172 0 -243.5 -132t-71.5 -412v-82q0 -282 73 -413.5t256 -131.5h19q153 0 252 80v309h-232v238h506v-680
q-212 -187 -536 -187zM807 1927v-188h-238v188h238z" />
    <glyph glyph-name="gdotaccent" unicode="&#x121;" horiz-adv-x="1153" 
d="M770 16v152q-103 -125 -289 -125q-107 0 -186 37t-127 105.5t-71 159.5t-23 206v53q0 110 23 200t70.5 160t127.5 109t186 39q211 0 314 -160l22 133h236l-17 -307v-766q0 -448 -477 -448q-126 0 -218.5 30.5t-145 86.5t-77 125t-24.5 155v39h252q0 -107 47 -162t160 -55
q115 0 166 54.5t51 178.5zM770 756q-81 125 -215 125q-105 0 -160 -74.5t-55 -202.5v-53q0 -135 54.5 -206t160.5 -71q132 0 215 123v359zM705 1563v-289h-291v289h291z" />
    <glyph glyph-name="Gcommaaccent" unicode="&#x122;" horiz-adv-x="1359" 
d="M709 -27q-318 0 -468.5 187t-150.5 598v82q0 409 147 596.5t451 187.5q279 0 418 -134.5t139 -422.5v-70h-274q0 198 -60 292.5t-206 94.5h-19q-172 0 -243.5 -132t-71.5 -412v-82q0 -282 73 -413.5t256 -131.5h19q153 0 252 80v309h-232v238h506v-680
q-212 -187 -536 -187zM834 -96v-115q0 -126 -68 -186t-207 -60v101q135 0 166 84h-141v176h250z" />
    <glyph glyph-name="gcommaaccent" unicode="&#x123;" horiz-adv-x="1153" 
d="M770 16v152q-103 -125 -289 -125q-107 0 -186 37t-127 105.5t-71 159.5t-23 206v53q0 110 23 200t70.5 160t127.5 109t186 39q211 0 314 -160l22 133h236l-17 -307v-766q0 -448 -477 -448q-126 0 -218.5 30.5t-145 86.5t-77 125t-24.5 155v39h252q0 -107 47 -162t160 -55
q115 0 166 54.5t51 178.5zM770 397v359q-81 125 -215 125q-105 0 -160 -74.5t-55 -202.5v-53q0 -135 54.5 -206t160.5 -71q132 0 215 123zM432 1231v127q0 137 67.5 201.5t207.5 64.5v-100q-72 0 -112.5 -24t-55.5 -81h145v-188h-252z" />
    <glyph glyph-name="Hcircumflex" unicode="&#x124;" horiz-adv-x="1341" 
d="M942 1597h275v-1597h-275v696h-543v-696h-274v1597h274v-663h543v663zM541 1720h-246l244 226h266l244 -226h-246l-131 103z" />
    <glyph glyph-name="hcircumflex" unicode="&#x125;" horiz-adv-x="1153" 
d="M385 1638v-663q116 137 328 137q86 0 152 -29.5t105 -81.5t58 -117t19 -141v-743h-265v700q0 82 -42.5 131.5t-129.5 49.5q-84 0 -139.5 -37.5t-85.5 -87.5v-756h-266v1638h266zM119 1720h-246l244 226h266l244 -226h-246l-131 103z" />
    <glyph glyph-name="Hbar" unicode="&#x126;" horiz-adv-x="1341" 
d="M942 1597h275v-1597h-275v696h-543v-696h-274v1597h274v-225h543v225zM399 934h543v229h-543v-229z" />
    <glyph glyph-name="hbar" unicode="&#x127;" horiz-adv-x="1153" 
d="M385 1638v-178h244v-196h-244v-289q116 137 328 137q86 0 152 -29.5t105 -81.5t58 -117t19 -141v-743h-265v700q0 82 -42.5 131.5t-129.5 49.5q-84 0 -139.5 -37.5t-85.5 -87.5v-756h-266v1264h-156v196h156v178h266z" />
    <glyph glyph-name="Itilde" unicode="&#x128;" horiz-adv-x="544" 
d="M410 1597v-1597h-275v1597h275zM479 1931h150q0 -117 -54 -171t-141 -54q-55 0 -112.5 25.5t-105.5 51t-79 25.5q-71 0 -71 -73h-150q0 117 54 171t141 54q55 0 112.5 -25.5t105.5 -51t79 -25.5q71 0 71 73z" />
    <glyph glyph-name="itilde" unicode="&#x129;" horiz-adv-x="512" 
d="M123 0v1085h266v-1085h-266zM457 1565h182q0 -147 -57 -219t-150 -72q-56 0 -116 27t-110 54t-83 27q-68 0 -68 -79h-182q0 147 57 218.5t150 71.5q56 0 116 -27t110 -54t83 -27q68 0 68 80z" />
    <glyph glyph-name="Imacron" unicode="&#x12a;" horiz-adv-x="544" 
d="M410 1597v-1597h-275v1597h275zM-10 1747v172h565v-172h-565z" />
    <glyph glyph-name="imacron" unicode="&#x12b;" horiz-adv-x="512" 
d="M123 0v1085h266v-1085h-266zM-29 1296v236h570v-236h-570z" />
    <glyph glyph-name="Ibreve" unicode="&#x12c;" horiz-adv-x="544" 
d="M410 1597v-1597h-275v1597h275zM272 1692q-350 0 -350 254h189q0 -101 161 -101q162 0 162 101h189q0 -254 -351 -254z" />
    <glyph glyph-name="ibreve" unicode="&#x12d;" horiz-adv-x="512" 
d="M123 0v1085h266v-1085h-266zM256 1206q-193 0 -281.5 105t-85.5 286h197q0 -93 44.5 -139.5t125.5 -46.5t125.5 46.5t44.5 139.5h197q3 -181 -85.5 -286t-281.5 -105z" />
    <glyph glyph-name="Iogonek" unicode="&#x12e;" horiz-adv-x="544" 
d="M270 -162q0 -37 26 -60.5t71 -23.5q56 0 98 25l63 -168q-34 -21 -89 -35t-113 -14q-121 0 -190.5 54t-69.5 161q0 111 69 196v1624h275v-1597q-140 -62 -140 -162z" />
    <glyph glyph-name="iogonek" unicode="&#x12f;" horiz-adv-x="512" 
d="M45 -223q0 116 78 207v1101h266v-1085q-139 -61 -139 -162q0 -38 25.5 -61t70.5 -23q56 0 98 25l64 -168q-34 -21 -89.5 -35t-113.5 -14q-121 0 -190.5 54t-69.5 161zM401 1563v-289h-290v289h290z" />
    <glyph glyph-name="Idotaccent" unicode="&#x130;" horiz-adv-x="544" 
d="M410 1597v-1597h-275v1597h275zM391 1927v-188h-237v188h237z" />
    <glyph glyph-name="dotlessi" unicode="&#x131;" horiz-adv-x="512" 
d="M123 0v1085h266v-1085h-266z" />
    <glyph glyph-name="IJ" unicode="&#x132;" horiz-adv-x="1173" 
d="M784 401v1196h275v-1226q0 -208 -99 -303t-272 -95q-67 0 -114.5 10.5t-65.5 22.5v227q13 -6 47.5 -13t60.5 -7q87 0 127.5 40.5t40.5 147.5zM410 1597v-1597h-275v1597h275z" />
    <glyph glyph-name="ij" unicode="&#x133;" horiz-adv-x="921" 
d="M532 -27v1112h267v-1142q0 -379 -379 -379q-116 0 -168 26v222q40 -17 104 -17q90 0 133 37.5t43 140.5zM123 0v1085h266v-1085h-266zM401 1563v-289h-290v289h290zM811 1563v-289h-291v289h291z" />
    <glyph glyph-name="Jcircumflex" unicode="&#x134;" horiz-adv-x="1073" 
d="M684 1597h274v-1108q0 -252 -108.5 -384t-345.5 -132q-244 0 -348.5 130t-104.5 389v47h260q0 -170 42 -248t145 -78q101 0 143.5 76t42.5 235v1073zM690 1720h-246l244 226h266l244 -226h-246l-131 103z" />
    <glyph glyph-name="jcircumflex" unicode="&#x135;" horiz-adv-x="512" 
d="M123 -27v1112h266v-1140q0 -381 -379 -381q-116 0 -168 26v222q35 -15 105 -15q90 0 133 36.5t43 139.5zM96 1231h-239l272 366h254l272 -366h-239l-160 188z" />
    <glyph glyph-name="Kcommaaccent" unicode="&#x136;" horiz-adv-x="1241" 
d="M399 1597v-706l459 706h332l-455 -649l455 -948h-305l-324 700l-162 -229v-471h-274v1597h274zM745 -96v-115q0 -127 -67.5 -186.5t-206.5 -59.5v101q135 0 166 84h-141v176h249z" />
    <glyph glyph-name="kcommaaccent" unicode="&#x137;" horiz-adv-x="1112" 
d="M111 0v1638h266v-991l371 438h321l-364 -411l364 -674h-309l-238 467l-145 -166v-301h-266zM680 -96v-115q0 -127 -67.5 -186.5t-206.5 -59.5v101q134 0 165 84h-141v176h250z" />
    <glyph glyph-name="kgreenlandic" unicode="&#x138;" horiz-adv-x="1112" 
d="M111 0v1085h266v-438l371 438h321l-364 -411l364 -674h-309l-238 467l-145 -166v-301h-266z" />
    <glyph glyph-name="Lacute" unicode="&#x139;" horiz-adv-x="1046" 
d="M1016 0h-891v1597h274v-1357h617v-240zM244 1946h280l-129 -226h-266z" />
    <glyph glyph-name="lacute" unicode="&#x13a;" horiz-adv-x="512" 
d="M123 0v1638h266v-1638h-266zM238 1946h280l-129 -226h-266z" />
    <glyph glyph-name="Lcommaaccent" unicode="&#x13b;" horiz-adv-x="1046" 
d="M1016 0h-891v1597h274v-1357h617v-240zM696 -96v-115q0 -127 -67.5 -186.5t-206.5 -59.5v101q135 0 166 84h-142v176h250z" />
    <glyph glyph-name="lcommaaccent" unicode="&#x13c;" horiz-adv-x="512" 
d="M123 0v1638h266v-1638h-266zM381 -96v-115q0 -126 -68 -186t-207 -60v101q135 0 166 84h-141v176h250z" />
    <glyph glyph-name="Lcaron" unicode="&#x13d;" horiz-adv-x="1046" 
d="M1016 0h-891v1597h274v-1357h617v-240zM653 1638h174l-47 -407h-127v407z" />
    <glyph glyph-name="lcaron" unicode="&#x13e;" horiz-adv-x="512" 
d="M123 0v1638h266v-1638h-266zM514 1638h174l-47 -407h-127v407z" />
    <glyph glyph-name="Ldot" unicode="&#x13f;" horiz-adv-x="1046" 
d="M1016 0h-891v1597h274v-1357h617v-240zM926 961v-291h-291v291h291z" />
    <glyph glyph-name="ldot" unicode="&#x140;" horiz-adv-x="831" 
d="M123 0v1638h266v-1638h-266zM817 862v-291h-291v291h291z" />
    <glyph glyph-name="Lslash" unicode="&#x141;" horiz-adv-x="1169" 
d="M29 434v234l219 108v821h274v-684l396 199v-233l-396 -199v-440h617v-240h-891v543z" />
    <glyph glyph-name="lslash" unicode="&#x142;" horiz-adv-x="749" 
d="M53 436v232l185 123v847h266v-669l215 143v-231l-215 -144v-737h-266v559z" />
    <glyph glyph-name="Nacute" unicode="&#x143;" horiz-adv-x="1382" 
d="M1257 1597v-1597h-290l-590 1102l8 -338v-764h-260v1597h291l590 -1101l-9 338v763h260zM674 1946h280l-129 -226h-266z" />
    <glyph glyph-name="nacute" unicode="&#x144;" horiz-adv-x="1153" 
d="M1047 0h-265v700q0 82 -42.5 131.5t-129.5 49.5q-84 0 -139.5 -37.5t-85.5 -87.5v-756h-266v778l-19 307h236l24 -143q118 170 353 170q86 0 152 -29.5t105 -81.5t58 -117t19 -141v-743zM637 1597h291l-211 -366h-266z" />
    <glyph glyph-name="Ncommaaccent" unicode="&#x145;" horiz-adv-x="1382" 
d="M1257 1597v-1597h-290l-590 1102l8 -338v-764h-260v1597h291l590 -1101l-9 338v763h260zM817 -96v-115q0 -127 -67.5 -186.5t-206.5 -59.5v101q135 0 166 84h-142v176h250z" />
    <glyph glyph-name="ncommaaccent" unicode="&#x146;" horiz-adv-x="1153" 
d="M1047 0h-265v700q0 82 -42.5 131.5t-129.5 49.5q-84 0 -139.5 -37.5t-85.5 -87.5v-756h-266v778l-19 307h236l24 -143q118 170 353 170q86 0 152 -29.5t105 -81.5t58 -117t19 -141v-743zM709 -96v-115q0 -126 -68 -186t-207 -60v101q135 0 166 84h-141v176h250z" />
    <glyph glyph-name="Ncaron" unicode="&#x147;" horiz-adv-x="1382" 
d="M1257 1597v-1597h-290l-590 1102l8 -338v-764h-260v1597h291l590 -1101l-9 338v763h260zM315 1946h246l131 -105l131 105h246l-244 -226h-266z" />
    <glyph glyph-name="ncaron" unicode="&#x148;" horiz-adv-x="1153" 
d="M1047 0h-265v700q0 82 -42.5 131.5t-129.5 49.5q-84 0 -139.5 -37.5t-85.5 -87.5v-756h-266v778l-19 307h236l24 -143q118 170 353 170q86 0 152 -29.5t105 -81.5t58 -117t19 -141v-743zM184 1597h240l160 -188l159 188h240l-272 -366h-254z" />
    <glyph glyph-name="Eng" unicode="&#x14a;" horiz-adv-x="1382" 
d="M1257 1597v-1652q0 -381 -378 -381q-116 0 -168 26v222q10 -5 43 -10t61 -5q85 0 128.5 33t47.5 123l-614 1149l8 -338v-764h-260v1597h291l590 -1101l-9 338v763h260z" />
    <glyph glyph-name="eng" unicode="&#x14b;" horiz-adv-x="1153" 
d="M780 -27v727q0 83 -41.5 132t-128.5 49q-84 0 -139.5 -37.5t-85.5 -87.5v-756h-266v778l-19 307h236l24 -143q118 170 353 170q86 0 152 -29.5t105 -81.5t58 -117t19 -141v-800q0 -379 -379 -379q-110 0 -168 26v222q12 -5 45.5 -11t60.5 -6q89 0 131.5 37.5t42.5 140.5z
" />
    <glyph glyph-name="Omacron" unicode="&#x14c;" horiz-adv-x="1361" 
d="M682 -27q-304 0 -448 187t-144 598v82q0 411 144 597.5t448 186.5q303 0 446.5 -187t143.5 -597v-82q0 -411 -144 -598t-446 -187zM672 213h18q163 0 232 133t69 412v82q0 279 -69 411.5t-232 132.5h-18q-163 0 -232 -132.5t-69 -411.5v-82q0 -279 69 -412t232 -133z
M399 1747v172h566v-172h-566z" />
    <glyph glyph-name="omacron" unicode="&#x14d;" horiz-adv-x="1132" 
d="M565 -27q-124 0 -219.5 40t-154 113t-88 169.5t-29.5 214.5v65q0 119 29.5 215.5t88 169t153.5 112.5t220 40t220 -40t154 -112.5t88.5 -169t29.5 -215.5v-65q0 -118 -29.5 -214.5t-88.5 -169.5t-154.5 -113t-219.5 -40zM565 207q114 0 170 79.5t56 223.5v65
q0 145 -56 225.5t-170 80.5t-169.5 -80t-55.5 -226v-65q0 -144 55.5 -223.5t169.5 -79.5zM281 1296v236h569v-236h-569z" />
    <glyph glyph-name="Obreve" unicode="&#x14e;" horiz-adv-x="1361" 
d="M682 -27q-304 0 -448 187t-144 598v82q0 411 144 597.5t448 186.5q303 0 446.5 -187t143.5 -597v-82q0 -411 -144 -598t-446 -187zM672 213h18q163 0 232 133t69 412v82q0 279 -69 411.5t-232 132.5h-18q-163 0 -232 -132.5t-69 -411.5v-82q0 -279 69 -412t232 -133z
M682 1692q-350 0 -350 254h188q0 -101 162 -101t162 101h188q0 -254 -350 -254z" />
    <glyph glyph-name="obreve" unicode="&#x14f;" horiz-adv-x="1132" 
d="M565 -27q-124 0 -219.5 40t-154 113t-88 169.5t-29.5 214.5v65q0 119 29.5 215.5t88 169t153.5 112.5t220 40t220 -40t154 -112.5t88.5 -169t29.5 -215.5v-65q0 -118 -29.5 -214.5t-88.5 -169.5t-154.5 -113t-219.5 -40zM565 207q114 0 170 79.5t56 223.5v65
q0 145 -56 225.5t-170 80.5t-169.5 -80t-55.5 -226v-65q0 -144 55.5 -223.5t169.5 -79.5zM565 1206q-193 0 -281 105t-85 286h196q0 -93 44.5 -139.5t125.5 -46.5t125.5 46.5t44.5 139.5h197q3 -181 -85.5 -286t-281.5 -105z" />
    <glyph glyph-name="Ohungarumlaut" unicode="&#x150;" horiz-adv-x="1361" 
d="M682 -27q-304 0 -448 187t-144 598v82q0 411 144 597.5t448 186.5q303 0 446.5 -187t143.5 -597v-82q0 -411 -144 -598t-446 -187zM672 213h18q163 0 232 133t69 412v82q0 279 -69 411.5t-232 132.5h-18q-163 0 -232 -132.5t-69 -411.5v-82q0 -279 69 -412t232 -133z
M508 1946h254l-117 -226h-242zM836 1946h254l-129 -226h-242z" />
    <glyph glyph-name="ohungarumlaut" unicode="&#x151;" horiz-adv-x="1132" 
d="M565 -27q-124 0 -219.5 40t-154 113t-88 169.5t-29.5 214.5v65q0 119 29.5 215.5t88 169t153.5 112.5t220 40t220 -40t154 -112.5t88.5 -169t29.5 -215.5v-65q0 -118 -29.5 -214.5t-88.5 -169.5t-154.5 -113t-219.5 -40zM565 207q114 0 170 79.5t56 223.5v65
q0 145 -56 225.5t-170 80.5t-169.5 -80t-55.5 -226v-65q0 -144 55.5 -223.5t169.5 -79.5zM795 1597h239l-211 -366h-215zM455 1597h239l-174 -366h-215z" />
    <glyph glyph-name="OE" unicode="&#x152;" horiz-adv-x="1925" 
d="M90 840q0 275 72 442.5t213.5 241t369.5 73.5h1098v-239h-676v-424h574v-238h-574v-456h676v-240h-1098q-228 0 -369.5 74t-213.5 241.5t-72 442.5v82zM893 1358h-129q-213 0 -303 -122t-90 -396v-82q0 -274 90 -396t303 -122h129v1118z" />
    <glyph glyph-name="oe" unicode="&#x153;" horiz-adv-x="1847" 
d="M1774 444h-717q15 -264 243 -264q103 0 162.5 50.5t59.5 117.5h252v-8q0 -155 -126.5 -261t-349.5 -106q-243 0 -370 170q-123 -170 -363 -170q-124 0 -219.5 40t-154 113t-88 169.5t-29.5 214.5v65q0 119 29.5 215.5t88 169t153.5 112.5t220 40q240 0 363 -170
q123 170 360 170q122 0 216 -41t152.5 -115t88 -171.5t29.5 -215.5v-125zM340 510q0 -144 55.5 -223.5t169.5 -79.5t170 79.5t56 223.5v65q0 145 -56 225.5t-170 80.5t-169.5 -80t-55.5 -226v-65zM1282 905q-210 0 -225 -264h448q-12 264 -223 264z" />
    <glyph glyph-name="Racute" unicode="&#x154;" horiz-adv-x="1251" 
d="M399 596v-596h-274v1597h500q83 0 152.5 -10.5t142.5 -41.5t123.5 -82.5t83 -139.5t32.5 -205v-41q0 -336 -260 -438l260 -639h-297l-229 596h-234zM399 836h236q45 0 84 10t78 35t61.5 77t22.5 127v23q0 61 -16 107t-40 72.5t-58 43t-65.5 22t-66.5 5.5h-236v-522z
M575 1946h281l-129 -226h-266z" />
    <glyph glyph-name="racute" unicode="&#x155;" horiz-adv-x="753" 
d="M651 1112q7 0 18 -1t13 -1v-258h-45q-96 0 -158.5 -34.5t-93.5 -80.5v-737h-266v778l-19 307h236l22 -131q49 72 123.5 115t169.5 43zM453 1597h290l-211 -366h-266z" />
    <glyph glyph-name="Rcommaaccent" unicode="&#x156;" horiz-adv-x="1251" 
d="M399 596v-596h-274v1597h500q83 0 152.5 -10.5t142.5 -41.5t123.5 -82.5t83 -139.5t32.5 -205v-41q0 -336 -260 -438l260 -639h-297l-229 596h-234zM399 836h236q45 0 84 10t78 35t61.5 77t22.5 127v23q0 61 -16 107t-40 72.5t-58 43t-65.5 22t-66.5 5.5h-236v-522z
M739 -96v-115q0 -127 -67.5 -186.5t-206.5 -59.5v101q135 0 166 84h-142v176h250z" />
    <glyph glyph-name="rcommaaccent" unicode="&#x157;" horiz-adv-x="753" 
d="M651 1112q7 0 18 -1t13 -1v-258h-45q-96 0 -158.5 -34.5t-93.5 -80.5v-737h-266v778l-19 307h236l22 -131q49 72 123.5 115t169.5 43zM375 -96v-115q0 -126 -68 -186t-207 -60v101q135 0 166 84h-141v176h250z" />
    <glyph glyph-name="Rcaron" unicode="&#x158;" horiz-adv-x="1251" 
d="M399 596v-596h-274v1597h500q83 0 152.5 -10.5t142.5 -41.5t123.5 -82.5t83 -139.5t32.5 -205v-41q0 -336 -260 -438l260 -639h-297l-229 596h-234zM399 836h236q45 0 84 10t78 35t61.5 77t22.5 127v23q0 61 -16 107t-40 72.5t-58 43t-65.5 22t-66.5 5.5h-236v-522z
M217 1946h246l131 -105l131 105h246l-244 -226h-266z" />
    <glyph glyph-name="rcaron" unicode="&#x159;" horiz-adv-x="753" 
d="M651 1112q7 0 18 -1t13 -1v-258h-45q-96 0 -158.5 -34.5t-93.5 -80.5v-737h-266v778l-19 307h236l22 -131q49 72 123.5 115t169.5 43zM0 1597h240l159 -188l160 188h240l-273 -366h-254z" />
    <glyph glyph-name="Sacute" unicode="&#x15a;" horiz-adv-x="1271" 
d="M594 696q-262 35 -383 141.5t-121 303.5v20q0 214 145 338.5t402 124.5q281 0 413 -133t132 -406v-47h-275q0 181 -63 263.5t-205 82.5h-18q-114 0 -182 -57t-68 -151v-13q0 -69 24.5 -113t93.5 -76.5t193 -49.5q267 -36 390.5 -141t123.5 -312v-22q0 -225 -146.5 -350.5
t-412.5 -125.5q-561 0 -561 545v21h274q0 -166 72 -246t205 -80h18q127 0 198.5 61.5t71.5 163.5v13q0 107 -71 164t-250 81zM618 1946h281l-129 -226h-266z" />
    <glyph glyph-name="sacute" unicode="&#x15b;" horiz-adv-x="1077" 
d="M539 180q92 0 139 36.5t47 98.5q0 70 -45.5 100.5t-161.5 39.5q-226 19 -322 87.5t-96 211.5v16q0 168 119.5 255t319.5 87q225 0 332.5 -97.5t107.5 -273.5v-10h-260q0 85 -42.5 129.5t-137.5 44.5q-84 0 -130.5 -34.5t-46.5 -94.5q0 -63 41.5 -92.5t157.5 -38.5
q108 -9 183 -27t133 -52t86 -89.5t28 -136.5v-14q0 -165 -116 -259t-336 -94q-224 0 -338.5 101t-114.5 258v8h264q0 -160 189 -160zM592 1597h291l-211 -366h-266z" />
    <glyph glyph-name="Scircumflex" unicode="&#x15c;" horiz-adv-x="1271" 
d="M594 696q-262 35 -383 141.5t-121 303.5v20q0 214 145 338.5t402 124.5q281 0 413 -133t132 -406v-47h-275q0 181 -63 263.5t-205 82.5h-18q-114 0 -182 -57t-68 -151v-13q0 -69 24.5 -113t93.5 -76.5t193 -49.5q267 -36 390.5 -141t123.5 -312v-22q0 -225 -146.5 -350.5
t-412.5 -125.5q-561 0 -561 545v21h274q0 -166 72 -246t205 -80h18q127 0 198.5 61.5t71.5 163.5v13q0 107 -71 164t-250 81zM506 1720h-246l244 226h266l244 -226h-246l-131 103z" />
    <glyph glyph-name="scircumflex" unicode="&#x15d;" horiz-adv-x="1077" 
d="M539 180q92 0 139 36.5t47 98.5q0 70 -45.5 100.5t-161.5 39.5q-226 19 -322 87.5t-96 211.5v16q0 168 119.5 255t319.5 87q225 0 332.5 -97.5t107.5 -273.5v-10h-260q0 85 -42.5 129.5t-137.5 44.5q-84 0 -130.5 -34.5t-46.5 -94.5q0 -63 41.5 -92.5t157.5 -38.5
q108 -9 183 -27t133 -52t86 -89.5t28 -136.5v-14q0 -165 -116 -259t-336 -94q-224 0 -338.5 101t-114.5 258v8h264q0 -160 189 -160zM379 1231h-240l273 366h254l272 -366h-240l-159 188z" />
    <glyph glyph-name="Scedilla" unicode="&#x15e;" horiz-adv-x="1271" 
d="M432 -389l41 121q58 -33 145 -33q105 0 105 51t-109 51q-16 0 -33 -2t-27 -4l-9 -2l-35 53l49 131q-483 35 -483 541v21h274q0 -166 72 -246t205 -80h18q127 0 198.5 61.5t71.5 163.5v13q0 107 -71 164t-250 81q-262 35 -383 141.5t-121 303.5v20q0 214 145 338.5
t402 124.5q281 0 413 -133t132 -406v-47h-275q0 181 -63 263.5t-205 82.5h-18q-114 0 -182 -57t-68 -151v-13q0 -69 24.5 -113t93.5 -76.5t193 -49.5q267 -36 390.5 -141t123.5 -312v-22q0 -213 -130.5 -337t-371.5 -137l-24 -67q88 -3 146 -46.5t58 -125.5
q0 -174 -233 -174q-138 0 -209 49z" />
    <glyph glyph-name="scedilla" unicode="&#x15f;" horiz-adv-x="1077" 
d="M334 -389l41 121q58 -33 145 -33q105 0 105 51t-109 51q-16 0 -33.5 -2t-26.5 -4l-10 -2l-34 53l49 131q-185 18 -280 115.5t-95 239.5v8h264q0 -160 189 -160q92 0 139 36.5t47 98.5q0 70 -45.5 100.5t-161.5 39.5q-226 19 -322 87.5t-96 211.5v16q0 168 119.5 255
t319.5 87q225 0 332.5 -97.5t107.5 -273.5v-10h-260q0 85 -42.5 129.5t-137.5 44.5q-84 0 -130.5 -34.5t-46.5 -94.5q0 -63 41.5 -92.5t157.5 -38.5q108 -9 183 -27t133 -52t86 -89.5t28 -136.5v-14q0 -153 -101.5 -245.5t-293.5 -105.5l-25 -67q88 -3 146.5 -46.5
t58.5 -125.5q0 -174 -233 -174q-138 0 -209 49z" />
    <glyph glyph-name="Scaron" unicode="&#x160;" horiz-adv-x="1271" 
d="M594 696q-262 35 -383 141.5t-121 303.5v20q0 214 145 338.5t402 124.5q281 0 413 -133t132 -406v-47h-275q0 181 -63 263.5t-205 82.5h-18q-114 0 -182 -57t-68 -151v-13q0 -69 24.5 -113t93.5 -76.5t193 -49.5q267 -36 390.5 -141t123.5 -312v-22q0 -225 -146.5 -350.5
t-412.5 -125.5q-561 0 -561 545v21h274q0 -166 72 -246t205 -80h18q127 0 198.5 61.5t71.5 163.5v13q0 107 -71 164t-250 81zM260 1946h246l131 -105l131 105h246l-244 -226h-266z" />
    <glyph glyph-name="scaron" unicode="&#x161;" horiz-adv-x="1077" 
d="M539 180q92 0 139 36.5t47 98.5q0 70 -45.5 100.5t-161.5 39.5q-226 19 -322 87.5t-96 211.5v16q0 168 119.5 255t319.5 87q225 0 332.5 -97.5t107.5 -273.5v-10h-260q0 85 -42.5 129.5t-137.5 44.5q-84 0 -130.5 -34.5t-46.5 -94.5q0 -63 41.5 -92.5t157.5 -38.5
q108 -9 183 -27t133 -52t86 -89.5t28 -136.5v-14q0 -165 -116 -259t-336 -94q-224 0 -338.5 101t-114.5 258v8h264q0 -160 189 -160zM139 1597h240l160 -188l159 188h240l-272 -366h-254z" />
    <glyph glyph-name="Tcommaaccent" unicode="&#x162;" horiz-adv-x="1114" 
d="M694 1358v-1358h-274v1358h-381v239h1036v-239h-381zM682 -96v-115q0 -127 -67.5 -186.5t-206.5 -59.5v101q134 0 165 84h-141v176h250z" />
    <glyph glyph-name="tcommaaccent" unicode="&#x163;" horiz-adv-x="862" 
d="M479 1085h301v-233h-301v-469q0 -103 43 -139.5t133 -36.5q28 0 62 4.5t43 9.5v-221q-54 -27 -168 -27q-379 0 -379 381v498h-166v233h166v308h266v-308zM608 -96v-115q0 -127 -67.5 -186.5t-206.5 -59.5v101q135 0 166 84h-142v176h250z" />
    <glyph glyph-name="Tcaron" unicode="&#x164;" horiz-adv-x="1114" 
d="M694 1358v-1358h-274v1358h-381v239h1036v-239h-381zM180 1946h246l131 -105l131 105h246l-244 -226h-266z" />
    <glyph glyph-name="tcaron" unicode="&#x165;" horiz-adv-x="862" 
d="M479 1085h301v-233h-301v-469q0 -103 43 -139.5t133 -36.5q28 0 62 4.5t43 9.5v-221q-54 -27 -168 -27q-379 0 -379 381v498h-166v233h166v308h266v-308zM604 1638h174l-47 -407h-127v407z" />
    <glyph glyph-name="Tbar" unicode="&#x166;" horiz-adv-x="1114" 
d="M694 1358v-436h242v-209h-242v-713h-274v713h-242v209h242v436h-381v239h1036v-239h-381z" />
    <glyph glyph-name="tbar" unicode="&#x167;" horiz-adv-x="862" 
d="M479 1085h301v-233h-301v-211h219v-197h-219v-61q0 -103 43 -139.5t133 -36.5q28 0 62 4.5t43 9.5v-221q-54 -27 -168 -27q-379 0 -379 381v90h-141v197h141v211h-166v233h166v308h266v-308z" />
    <glyph glyph-name="Utilde" unicode="&#x168;" horiz-adv-x="1341" 
d="M879 1931h149q0 -117 -53.5 -171t-140.5 -54q-55 0 -112.5 25.5t-105.5 51t-79 25.5q-72 0 -72 -73h-150q0 117 54 171t141 54q55 0 112.5 -25.5t105.5 -51t79 -25.5q72 0 72 73zM672 -27q-299 0 -428 127.5t-129 401.5v1095h274v-1085q0 -160 64.5 -229.5t218.5 -69.5
q152 0 216 69.5t64 229.5v1085h275v-1095q0 -274 -129 -401.5t-426 -127.5z" />
    <glyph glyph-name="utilde" unicode="&#x169;" horiz-adv-x="1153" 
d="M106 1085h265v-700q0 -82 43 -130t131 -48q145 0 225 123v755h266v-778l17 -307h-236l-24 143q-118 -170 -353 -170q-86 0 -152 29.5t-105 81.5t-58 117.5t-19 142.5v741zM770 1565h182q0 -147 -57 -219t-150 -72q-56 0 -116 27t-110 54t-83 27q-67 0 -67 -79h-183
q0 147 57 218.5t150 71.5q56 0 116 -27t110 -54t83 -27q68 0 68 80z" />
    <glyph glyph-name="Umacron" unicode="&#x16a;" horiz-adv-x="1341" 
d="M672 -27q-299 0 -428 127.5t-129 401.5v1095h274v-1085q0 -160 64.5 -229.5t218.5 -69.5q152 0 216 69.5t64 229.5v1085h275v-1095q0 -274 -129 -401.5t-426 -127.5zM389 1747v172h565v-172h-565z" />
    <glyph glyph-name="umacron" unicode="&#x16b;" horiz-adv-x="1153" 
d="M106 1085h265v-700q0 -82 43 -130t131 -48q145 0 225 123v755h266v-778l17 -307h-236l-24 143q-118 -170 -353 -170q-86 0 -152 29.5t-105 81.5t-58 117.5t-19 142.5v741zM285 1296v236h569v-236h-569z" />
    <glyph glyph-name="Ubreve" unicode="&#x16c;" horiz-adv-x="1341" 
d="M672 1692q-350 0 -350 254h188q0 -101 162 -101t162 101h188q0 -254 -350 -254zM672 -27q-299 0 -428 127.5t-129 401.5v1095h274v-1085q0 -160 64.5 -229.5t218.5 -69.5q152 0 216 69.5t64 229.5v1085h275v-1095q0 -274 -129 -401.5t-426 -127.5z" />
    <glyph glyph-name="ubreve" unicode="&#x16d;" horiz-adv-x="1153" 
d="M106 1085h265v-700q0 -82 43 -130t131 -48q145 0 225 123v755h266v-778l17 -307h-236l-24 143q-118 -170 -353 -170q-86 0 -152 29.5t-105 81.5t-58 117.5t-19 142.5v741zM569 1206q-193 0 -281 105t-85 286h196q0 -93 44.5 -139.5t125.5 -46.5t125.5 46.5t44.5 139.5
h197q3 -181 -85.5 -286t-281.5 -105z" />
    <glyph glyph-name="Uring" unicode="&#x16e;" horiz-adv-x="1341" 
d="M672 -27q-299 0 -428 127.5t-129 401.5v1095h274v-1085q0 -160 64.5 -229.5t218.5 -69.5q152 0 216 69.5t64 229.5v1085h275v-1095q0 -274 -129 -401.5t-426 -127.5zM463 1763q0 86 61.5 147.5t147.5 61.5t147.5 -61.5t61.5 -147.5q0 -87 -61 -148t-148 -61t-148 61
t-61 148zM565 1763q0 -44 31.5 -76t75.5 -32t75 32t31 76q0 43 -31 75t-75 32t-75.5 -32t-31.5 -75z" />
    <glyph glyph-name="uring" unicode="&#x16f;" horiz-adv-x="1153" 
d="M106 1085h265v-700q0 -82 43 -130t131 -48q145 0 225 123v755h266v-778l17 -307h-236l-24 143q-118 -170 -353 -170q-86 0 -152 29.5t-105 81.5t-58 117.5t-19 142.5v741zM360 1415q0 86 61.5 147.5t147.5 61.5t147.5 -61.5t61.5 -147.5q0 -87 -61 -148t-148 -61t-148 61
t-61 148zM463 1415q0 -44 31 -76t75 -32t75.5 32t31.5 76q0 43 -31.5 75t-75.5 32t-75 -32t-31 -75z" />
    <glyph glyph-name="Uhungarumlaut" unicode="&#x170;" horiz-adv-x="1341" 
d="M672 -27q-299 0 -428 127.5t-129 401.5v1095h274v-1085q0 -160 64.5 -229.5t218.5 -69.5q152 0 216 69.5t64 229.5v1085h275v-1095q0 -274 -129 -401.5t-426 -127.5zM825 1946h254l-129 -226h-241zM498 1946h254l-117 -226h-242z" />
    <glyph glyph-name="uhungarumlaut" unicode="&#x171;" horiz-adv-x="1153" 
d="M106 1085h265v-700q0 -82 43 -130t131 -48q145 0 225 123v755h266v-778l17 -307h-236l-24 143q-118 -170 -353 -170q-86 0 -152 29.5t-105 81.5t-58 117.5t-19 142.5v741zM459 1597h239l-174 -366h-215zM799 1597h239l-211 -366h-215z" />
    <glyph glyph-name="Uogonek" unicode="&#x172;" horiz-adv-x="1341" 
d="M766 -162q0 -38 25.5 -61t70.5 -23q57 0 99 25l63 -168q-34 -21 -89.5 -35t-113.5 -14q-121 0 -190.5 54t-69.5 161t72 196q-278 9 -398 136t-120 393v1095h274v-1085q0 -160 64.5 -229.5t218.5 -69.5q152 0 216 69.5t64 229.5v1085h275v-1095q0 -214 -76.5 -336
t-243.5 -166q-63 -17 -102 -62.5t-39 -99.5z" />
    <glyph glyph-name="uogonek" unicode="&#x173;" horiz-adv-x="1153" 
d="M106 1085h265v-700q0 -82 43 -130t131 -48q145 0 225 123v755h266v-778l17 -307h-2q-140 -62 -140 -162q0 -37 26 -60.5t71 -23.5q56 0 98 25l63 -168q-34 -21 -89 -35t-113 -14q-121 0 -190.5 54t-69.5 161q0 142 108 235l-22 131q-118 -170 -353 -170q-86 0 -152 29.5
t-105 81.5t-58 117.5t-19 142.5v741z" />
    <glyph glyph-name="Wcircumflex" unicode="&#x174;" horiz-adv-x="1892" 
d="M1208 -8l-262 1294l-264 -1294h-354l-275 1605h287l182 -1237l250 1237h346l252 -1237l182 1237h287l-274 -1605h-357zM815 1720h-246l244 226h266l244 -226h-246l-131 103z" />
    <glyph glyph-name="wcircumflex" unicode="&#x175;" horiz-adv-x="1536" 
d="M768 805l-182 -805h-338l-201 1085h260l117 -798l184 798h320l184 -798l117 798h262l-203 -1085h-338zM608 1231h-239l272 366h254l272 -366h-239l-160 188z" />
    <glyph glyph-name="Ycircumflex" unicode="&#x176;" horiz-adv-x="1249" 
d="M762 487v-487h-275v487l-462 1110h299l301 -772l301 772h299zM494 1720h-246l244 226h266l243 -226h-245l-131 103z" />
    <glyph glyph-name="ycircumflex" unicode="&#x177;" horiz-adv-x="1085" 
d="M549 332l239 753h287l-383 -1032l-143 -463h-316l173 463l-383 1032h288zM389 1231h-239l272 366h254l272 -366h-239l-160 188z" />
    <glyph glyph-name="Ydieresis" unicode="&#x178;" horiz-adv-x="1249" 
d="M762 487v-487h-275v487l-462 1110h299l301 -772l301 772h299zM918 1927v-188h-240v188h240zM571 1927v-188h-239v188h239z" />
    <glyph glyph-name="Zacute" unicode="&#x179;" horiz-adv-x="1202" 
d="M580 1946h280l-129 -226h-266zM82 188l682 1176l-281 -6h-381v239h998v-188l-682 -1176l280 7h422v-240h-1038v188z" />
    <glyph glyph-name="zacute" unicode="&#x17a;" horiz-adv-x="1001" 
d="M553 1597h291l-211 -366h-266zM57 182l518 676l-231 -6h-266v233h846v-182l-518 -676l231 6h307v-233h-887v182z" />
    <glyph glyph-name="Zdotaccent" unicode="&#x17b;" horiz-adv-x="1202" 
d="M717 1927v-188h-238v188h238zM82 188l682 1176l-281 -6h-381v239h998v-188l-682 -1176l280 7h422v-240h-1038v188z" />
    <glyph glyph-name="zdotaccent" unicode="&#x17c;" horiz-adv-x="1001" 
d="M645 1563v-289h-291v289h291zM57 182l518 676l-231 -6h-266v233h846v-182l-518 -676l231 6h307v-233h-887v182z" />
    <glyph glyph-name="Zcaron" unicode="&#x17d;" horiz-adv-x="1202" 
d="M221 1946h246l131 -105l131 105h246l-244 -226h-266zM82 188l682 1176l-281 -6h-381v239h998v-188l-682 -1176l280 7h422v-240h-1038v188z" />
    <glyph glyph-name="zcaron" unicode="&#x17e;" horiz-adv-x="1001" 
d="M100 1597h240l160 -188l159 188h240l-272 -366h-254zM57 182l518 676l-231 -6h-266v233h846v-182l-518 -676l231 6h307v-233h-887v182z" />
    <glyph glyph-name="Scommaaccent" unicode="&#x218;" horiz-adv-x="1271" 
d="M594 696q-262 35 -383 141.5t-121 303.5v20q0 214 145 338.5t402 124.5q281 0 413 -133t132 -406v-47h-275q0 181 -63 263.5t-205 82.5h-18q-114 0 -182 -57t-68 -151v-13q0 -69 24.5 -113t93.5 -76.5t193 -49.5q267 -36 390.5 -141t123.5 -312v-22q0 -225 -146.5 -350.5
t-412.5 -125.5q-561 0 -561 545v21h274q0 -166 72 -246t205 -80h18q127 0 198.5 61.5t71.5 163.5v13q0 107 -71 164t-250 81zM762 -96v-115q0 -126 -68 -186t-207 -60v101q135 0 166 84h-141v176h250z" />
    <glyph glyph-name="scommaaccent" unicode="&#x219;" horiz-adv-x="1077" 
d="M539 180q92 0 139 36.5t47 98.5q0 70 -45.5 100.5t-161.5 39.5q-226 19 -322 87.5t-96 211.5v16q0 168 119.5 255t319.5 87q225 0 332.5 -97.5t107.5 -273.5v-10h-260q0 85 -42.5 129.5t-137.5 44.5q-84 0 -130.5 -34.5t-46.5 -94.5q0 -63 41.5 -92.5t157.5 -38.5
q108 -9 183 -27t133 -52t86 -89.5t28 -136.5v-14q0 -165 -116 -259t-336 -94q-224 0 -338.5 101t-114.5 258v8h264q0 -160 189 -160zM664 -96v-115q0 -126 -68 -186t-207 -60v101q135 0 166 84h-141v176h250z" />
    <glyph glyph-name="Ymacron" unicode="&#x232;" horiz-adv-x="1249" 
d="M762 487v-487h-275v487l-462 1110h299l301 -772l301 772h299zM342 1747v172h565v-172h-565z" />
    <glyph glyph-name="ymacron" unicode="&#x233;" horiz-adv-x="1085" 
d="M549 332l239 753h287l-383 -1032l-143 -463h-316l173 463l-383 1032h288zM264 1296v236h570v-236h-570z" />
    <glyph glyph-name="dotlessj" unicode="&#x237;" horiz-adv-x="516" 
d="M123 -27v1112h266v-1140q0 -381 -379 -381q-116 0 -168 26v222q35 -15 105 -15q90 0 133 36.5t43 139.5z" />
    <glyph glyph-name="circumflex" unicode="&#x2c6;" horiz-adv-x="1024" 
d="M352 1231h-239l272 366h254l272 -366h-239l-160 188z" />
    <glyph glyph-name="caron" unicode="&#x2c7;" horiz-adv-x="1024" 
d="M113 1597h239l160 -188l160 188h239l-272 -366h-254z" />
    <glyph glyph-name="breve" unicode="&#x2d8;" horiz-adv-x="1024" 
d="M512 1206q-193 0 -281.5 105t-85.5 286h197q0 -93 44.5 -139.5t125.5 -46.5t125.5 46.5t44.5 139.5h197q3 -181 -85.5 -286t-281.5 -105z" />
    <glyph glyph-name="dotaccent" unicode="&#x2d9;" horiz-adv-x="1024" 
d="M657 1563v-289h-290v289h290z" />
    <glyph glyph-name="ring" unicode="&#x2da;" horiz-adv-x="1024" 
d="M303 1415q0 86 61.5 147.5t147.5 61.5t147.5 -61.5t61.5 -147.5q0 -87 -61 -148t-148 -61t-148 61t-61 148zM406 1415q0 -44 31 -76t75 -32t75 32t31 76q0 43 -31 75t-75 32t-75 -32t-31 -75z" />
    <glyph glyph-name="ogonek" unicode="&#x2db;" horiz-adv-x="1232" 
d="M453 -162q0 -38 25.5 -61t70.5 -23q56 0 98 25l64 -168q-34 -21 -89.5 -35t-113.5 -14q-121 0 -190.5 54t-69.5 161q0 124 86.5 214.5t208.5 129.5l49 -121q-139 -61 -139 -162z" />
    <glyph glyph-name="tilde" unicode="&#x2dc;" horiz-adv-x="1024" 
d="M713 1565h182q0 -147 -57 -219t-150 -72q-56 0 -116 27t-110 54t-83 27q-68 0 -68 -79h-182q0 147 57 218.5t150 71.5q56 0 116 -27t110 -54t83 -27q68 0 68 80z" />
    <glyph glyph-name="hungarumlaut" unicode="&#x2dd;" horiz-adv-x="1024" 
d="M741 1597h240l-211 -366h-215zM401 1597h240l-174 -366h-215z" />
    <glyph glyph-name="Bdotaccent" unicode="&#x1e02;" horiz-adv-x="1263" 
d="M125 1597h489q504 0 504 -430v-41q0 -212 -178 -303q219 -93 219 -334v-40q0 -105 -30 -185.5t-78.5 -129.5t-118.5 -80t-141.5 -42.5t-155.5 -11.5h-510v1597zM645 698h-246v-458h246q47 0 87.5 11t75 35.5t54 68t19.5 102.5v22q0 115 -67.5 167t-168.5 52zM614 1358
h-215v-420h215q99 0 162.5 45.5t63.5 151.5v26q0 106 -63.5 151.5t-162.5 45.5zM713 1927v-188h-238v188h238z" />
    <glyph glyph-name="bdotaccent" unicode="&#x1e03;" horiz-adv-x="1153" 
d="M383 1638v-653q105 127 289 127q109 0 188.5 -39.5t126 -113t68.5 -168.5t22 -216v-65q0 -120 -22 -215t-68.5 -168.5t-126.5 -113.5t-188 -40q-210 0 -314 162l-22 -135h-236l17 307v1331h266zM383 756v-426q80 -123 213 -123q215 0 215 303v65q0 306 -215 306
q-132 0 -213 -125zM369 1927v-188h-238v188h238z" />
    <glyph glyph-name="Ddotaccent" unicode="&#x1e0a;" horiz-adv-x="1341" 
d="M1251 758q0 -207 -38.5 -351.5t-121 -235t-203.5 -131t-292 -40.5h-471v1597h471q171 0 292 -40.5t203.5 -130.5t121 -234.5t38.5 -351.5v-82zM399 240h181q211 0 301 122.5t90 395.5v82q0 273 -90 395.5t-301 122.5h-181v-1118zM748 1927v-188h-238v188h238z" />
    <glyph glyph-name="ddotaccent" unicode="&#x1e0b;" horiz-adv-x="1165" 
d="M494 1112q181 0 286 -127v653h267v-1331l16 -307h-236l-22 135q-104 -162 -311 -162q-109 0 -189 40t-127 113.5t-69.5 168.5t-22.5 215v65q0 96 13.5 175.5t44.5 147.5t78 115t116 73t156 26zM780 756q-30 49 -83.5 87t-129.5 38q-215 0 -215 -306v-65q0 -303 215 -303
q76 0 129.5 37t83.5 86v426zM1032 1927v-188h-237v188h237z" />
    <glyph glyph-name="Fdotaccent" unicode="&#x1e1e;" horiz-adv-x="1101" 
d="M125 1597h936v-239h-662v-424h559v-238h-559v-696h-274v1597zM727 1927v-188h-238v188h238z" />
    <glyph glyph-name="fdotaccent" unicode="&#x1e1f;" horiz-adv-x="821" 
d="M479 1255v-170h260v-233h-260v-852h-266v852h-166v233h166v201q0 379 379 379q114 0 168 -27v-221q-10 5 -44 11t-61 6q-90 0 -133 -38t-43 -141zM616 1927v-188h-237v188h237z" />
    <glyph glyph-name="Mdotaccent" unicode="&#x1e40;" horiz-adv-x="1738" 
d="M1348 1120l-342 -1120h-275l-340 1120l8 -329v-791h-274v1597h403l340 -1122l342 1122h404v-1597h-275v791zM987 1927v-188h-237v188h237z" />
    <glyph glyph-name="mdotaccent" unicode="&#x1e41;" horiz-adv-x="1728" 
d="M1624 0h-266v719q0 162 -154 162q-121 0 -200 -117v-764h-265v719q0 162 -155 162q-125 0 -199 -117v-764h-266v778l-19 307h236l22 -135q116 162 330 162q104 0 175 -45.5t106 -126.5q111 172 338 172q157 0 237 -95.5t80 -256.5v-760zM1018 1563v-289h-291v289h291z
" />
    <glyph glyph-name="Pdotaccent" unicode="&#x1e56;" horiz-adv-x="1224" 
d="M399 596v-596h-274v1597h500q83 0 152.5 -10.5t142.5 -41.5t123.5 -82.5t83 -139.5t32.5 -205v-41q0 -118 -32.5 -206.5t-83 -139.5t-123.5 -82.5t-142.5 -42t-152.5 -10.5h-226zM399 836h236q45 0 84 10t78 35t61.5 77t22.5 127v23q0 61 -16 107t-40 72.5t-58 43
t-65.5 22t-66.5 5.5h-236v-522zM715 1927v-188h-238v188h238z" />
    <glyph glyph-name="pdotaccent" unicode="&#x1e57;" horiz-adv-x="1153" 
d="M672 -27q-187 0 -289 127v-510h-266v1188l-17 307h236l22 -135q104 162 314 162q109 0 188.5 -39.5t126 -113t68.5 -168.5t22 -216v-65q0 -120 -22 -215t-68.5 -168.5t-126.5 -113.5t-188 -40zM383 756v-426q80 -123 213 -123q215 0 215 303v65q0 306 -215 306
q-132 0 -213 -125zM739 1563v-289h-290v289h290z" />
    <glyph glyph-name="Tdotaccent" unicode="&#x1e6a;" horiz-adv-x="1114" 
d="M694 1358v-1358h-274v1358h-381v239h1036v-239h-381zM676 1927v-188h-238v188h238z" />
    <glyph glyph-name="tdotaccent" unicode="&#x1e6b;" horiz-adv-x="862" 
d="M479 1085h301v-233h-301v-469q0 -103 43 -139.5t133 -36.5q28 0 62 4.5t43 9.5v-221q-54 -27 -168 -27q-379 0 -379 381v498h-166v233h166v308h266v-308zM465 1681v-188h-238v188h238z" />
    <glyph glyph-name="Wgrave" unicode="&#x1e80;" horiz-adv-x="1892" 
d="M1208 -8l-262 1294l-264 -1294h-354l-275 1605h287l182 -1237l250 1237h346l252 -1237l182 1237h287l-274 -1605h-357zM684 1946h281l114 -226h-266z" />
    <glyph glyph-name="wgrave" unicode="&#x1e81;" horiz-adv-x="1536" 
d="M768 805l-182 -805h-338l-201 1085h260l117 -798l184 798h320l184 -798l117 798h262l-203 -1085h-338zM424 1597h291l186 -366h-266z" />
    <glyph glyph-name="Wacute" unicode="&#x1e82;" horiz-adv-x="1892" 
d="M1208 -8l-262 1294l-264 -1294h-354l-275 1605h287l182 -1237l250 1237h346l252 -1237l182 1237h287l-274 -1605h-357zM928 1946h280l-129 -226h-266z" />
    <glyph glyph-name="wacute" unicode="&#x1e83;" horiz-adv-x="1536" 
d="M768 805l-182 -805h-338l-201 1085h260l117 -798l184 798h320l184 -798l117 798h262l-203 -1085h-338zM821 1597h291l-211 -366h-266z" />
    <glyph glyph-name="Wdieresis" unicode="&#x1e84;" horiz-adv-x="1892" 
d="M1208 -8l-262 1294l-264 -1294h-354l-275 1605h287l182 -1237l250 1237h346l252 -1237l182 1237h287l-274 -1605h-357zM893 1927v-188h-240v188h240zM1239 1927v-188h-240v188h240z" />
    <glyph glyph-name="wdieresis" unicode="&#x1e85;" horiz-adv-x="1536" 
d="M768 805l-182 -805h-338l-201 1085h260l117 -798l184 798h320l184 -798l117 798h262l-203 -1085h-338zM709 1563v-289h-291v289h291zM1118 1563v-289h-291v289h291z" />
    <glyph glyph-name="Eszett" unicode="&#x1e9e;" horiz-adv-x="1617" 
d="M623 928l276 446q-72 10 -129 10q-381 0 -381 -299v-1085h-274v1096q0 267 164 397.5t491 130.5q255 0 432 -80v-188l-258 -418l105 -12q260 -31 387 -139.5t127 -315.5v-22q0 -225 -132 -350.5t-374 -125.5q-260 0 -383 127t-123 418v21h274q0 -172 61.5 -249t164.5 -77
h18q97 0 155 59t58 166v13q0 105 -69.5 164.5t-217.5 78.5l-372 45v189z" />
    <glyph glyph-name="Ygrave" unicode="&#x1ef2;" horiz-adv-x="1249" 
d="M762 487v-487h-275v487l-462 1110h299l301 -772l301 772h299zM362 1946h281l115 -226h-266z" />
    <glyph glyph-name="ygrave" unicode="&#x1ef3;" horiz-adv-x="1085" 
d="M549 332l239 753h287l-383 -1032l-143 -463h-316l173 463l-383 1032h288zM205 1597h291l186 -366h-266z" />
    <glyph glyph-name="enspace" unicode="&#x2002;" horiz-adv-x="1024" 
 />
    <glyph glyph-name="emspace" unicode="&#x2003;" horiz-adv-x="2048" 
 />
    <glyph glyph-name="threeperemspace" unicode="&#x2004;" horiz-adv-x="681" 
 />
    <glyph glyph-name="fourperemspace" unicode="&#x2005;" horiz-adv-x="512" 
 />
    <glyph glyph-name="sixperemspace" unicode="&#x2006;" horiz-adv-x="342" 
 />
    <glyph glyph-name="figurespace" unicode="&#x2007;" horiz-adv-x="1228" 
 />
    <glyph glyph-name="punctuationspace" unicode="&#x2008;" horiz-adv-x="368" 
 />
    <glyph glyph-name="thinspace" unicode="&#x2009;" horiz-adv-x="307" 
 />
    <glyph glyph-name="hairspace" unicode="&#x200a;" horiz-adv-x="102" 
 />
    <glyph glyph-name="zerowidthspace" unicode="&#x200b;" horiz-adv-x="0" 
 />
    <glyph glyph-name="figuredash" unicode="&#x2012;" horiz-adv-x="1228" 
d="M82 600v234h1065v-234h-1065z" />
    <glyph glyph-name="endash" unicode="&#x2013;" horiz-adv-x="1024" 
d="M82 600v234h860v-234h-860z" />
    <glyph glyph-name="emdash" unicode="&#x2014;" horiz-adv-x="2048" 
d="M82 600v234h1884v-234h-1884z" />
    <glyph glyph-name="uni2015" unicode="&#x2015;" horiz-adv-x="2457" 
d="M82 600v234h2294v-234h-2294z" />
    <glyph glyph-name="doublebar" unicode="&#x2016;" horiz-adv-x="856" 
d="M117 -246v1966h262v-1966h-262zM477 -246v1966h260v-1966h-260z" />
    <glyph glyph-name="quoteleft" unicode="&#x2018;" horiz-adv-x="512" 
d="M88 1077v230q0 167 79 252.5t234 85.5v-140q-150 0 -170 -139h148v-289h-291z" />
    <glyph glyph-name="quoteright" unicode="&#x2019;" horiz-adv-x="512" 
d="M401 1597v-229q0 -167 -79 -252.5t-234 -85.5v139q147 0 170 140h-147v288h290z" />
    <glyph glyph-name="quotesinglbase" unicode="&#x201a;" horiz-adv-x="512" 
d="M401 289v-228q0 -337 -313 -337v139q147 0 170 137h-147v289h290z" />
    <glyph glyph-name="reversequoteleft" unicode="&#x201b;" horiz-adv-x="512" 
d="M88 1597h291v-288h-148q20 -140 170 -140v-139q-155 0 -234 85.5t-79 252.5v229z" />
    <glyph glyph-name="quotedblleft" unicode="&#x201c;" horiz-adv-x="911" 
d="M88 1077v230q0 167 79 252.5t234 85.5v-140q-150 0 -170 -139h148v-289h-291zM487 1077v230q0 167 79.5 252.5t234.5 85.5v-140q-150 0 -170 -139h147v-289h-291z" />
    <glyph glyph-name="quotedblright" unicode="&#x201d;" horiz-adv-x="911" 
d="M401 1597v-229q0 -167 -79 -252.5t-234 -85.5v139q147 0 170 140h-147v288h290zM801 1597v-229q0 -167 -79.5 -252.5t-234.5 -85.5v139q147 0 170 140h-145v288h289z" />
    <glyph glyph-name="quotedblbase" unicode="&#x201e;" horiz-adv-x="911" 
d="M401 289v-228q0 -337 -313 -337v139q147 0 170 137h-147v289h290zM801 289v-228q0 -167 -79.5 -252t-234.5 -85v139q147 0 170 137h-145v289h289z" />
    <glyph glyph-name="reversequotedblleft" unicode="&#x201f;" horiz-adv-x="911" 
d="M487 1597h291v-288h-147q20 -140 170 -140v-139q-155 0 -234.5 85.5t-79.5 252.5v229zM88 1597h291v-288h-148q20 -140 170 -140v-139q-155 0 -234 85.5t-79 252.5v229z" />
    <glyph glyph-name="dagger" unicode="&#x2020;" horiz-adv-x="829" 
d="M336 907l10 262h137l11 -262l-11 -262h-137zM336 1638h158l-11 -280h-137zM782 1343v-159l-274 10v139zM47 1184v159l275 -10v-139z" />
    <glyph glyph-name="daggerdbl" unicode="&#x2021;" horiz-adv-x="829" 
d="M336 438l10 262h137l11 -262l-11 -262h-137zM336 1638h158l-11 -280h-137zM336 1028l10 141h137l11 -141l-11 -139h-137zM782 874v-159l-274 10v139zM47 1184v159l275 -10v-139zM47 715v159l275 -10v-139zM782 1343v-159l-274 10v139z" />
    <glyph glyph-name="bullet" unicode="&#x2022;" horiz-adv-x="880" 
d="M750 1026v-618h-619v618h619z" />
    <glyph glyph-name="ellipsis" unicode="&#x2026;" horiz-adv-x="2048" 
d="M514 289v-289h-291v289h291zM1825 289v-289h-291v289h291zM1169 289v-289h-290v289h290z" />
    <glyph glyph-name="perthousand" unicode="&#x2030;" horiz-adv-x="2791" 
d="M772 0h-237l557 1341q-100 -20 -172 -20q-68 0 -115 8q6 -40 6 -82v-22q0 -178 -104 -276.5t-271 -98.5q-165 0 -269 98.5t-104 276.5v22q0 179 104 278t269 99q95 0 176 -35q139 -51 353 -51q116 0 239.5 22t177.5 44v-138zM1161 373q0 178 104 276.5t269 98.5
q167 0 271 -98.5t104 -276.5v-23q0 -179 -104 -278t-271 -99q-165 0 -269 99t-104 278v23zM1980 373q0 178 104 276.5t269 98.5q167 0 271 -98.5t104 -276.5v-23q0 -179 -104 -278t-271 -99q-165 0 -269 99t-104 278v23zM1364 346q0 -77 45.5 -122.5t118.5 -45.5h12
q73 0 119.5 45.5t46.5 122.5v29q0 77 -46.5 123.5t-119.5 46.5h-12q-73 0 -118.5 -46.5t-45.5 -123.5v-29zM2183 346q0 -77 45.5 -122.5t118.5 -45.5h12q73 0 119.5 45.5t46.5 122.5v29q0 77 -46.5 123.5t-119.5 46.5h-12q-73 0 -118.5 -46.5t-45.5 -123.5v-29zM608 1251
q0 77 -46.5 122.5t-119.5 45.5h-12q-73 0 -118.5 -45.5t-45.5 -122.5v-28q0 -77 45.5 -123.5t118.5 -46.5h12q73 0 119.5 46.5t46.5 123.5v28z" />
    <glyph glyph-name="tripleprime" unicode="&#x2034;" horiz-adv-x="1177" 
d="M111 1597h266l-19 -626h-204zM803 1597h266l-45 -626h-203zM469 1597h240l-19 -626h-203z" />
    <glyph glyph-name="guilsinglleft" unicode="&#x2039;" horiz-adv-x="641" 
d="M539 1128v-239l-250 -193l250 -192v-240l-437 305v254z" />
    <glyph glyph-name="guilsinglright" unicode="&#x203a;" horiz-adv-x="641" 
d="M102 889v239l437 -305v-254l-437 -305v240l250 192z" />
    <glyph glyph-name="interrobang" unicode="&#x203d;" horiz-adv-x="991" 
d="M582 442h-150l-18 930q-67 -27 -95 -105.5t-28 -215.5h-244v30q0 131 23 227.5t75 169t142 109.5t217 37q122 0 211 -33.5t138.5 -93.5t72 -132t22.5 -159q0 -83 -19 -150t-49 -112.5t-67.5 -85.5t-75.5 -80t-70.5 -84t-56 -108.5t-28.5 -143.5zM655 289v-289h-290v289
h290zM690 1178q0 159 -112 196l-11 -497q10 18 34.5 59.5t35.5 62.5t26 54.5t21 63.5t6 61z" />
    <glyph glyph-name="fraction" unicode="&#x2044;" horiz-adv-x="409" 
d="M-279 0h-213l1180 1597h213z" />
    <glyph glyph-name="uni2070" unicode="&#x2070;" 
d="M575 1022q0 -106 -70.5 -173t-197.5 -67t-197.5 67t-70.5 173v350q0 107 70.5 173.5t197.5 66.5t197.5 -66.5t70.5 -173.5v-350zM371 1372q0 28 -17 45t-45 17h-4q-29 0 -46 -17t-17 -45v-350q0 -27 17 -44t46 -17h4q27 0 44.5 17.5t17.5 43.5v350z" />
    <glyph glyph-name="uni2074" unicode="&#x2074;" 
d="M522 799h-205v155h-292v146l305 497h192v-462h66v-181h-66v-155zM319 1274l-88 -144l37 5h49v102z" />
    <glyph glyph-name="uni2075" unicode="&#x2075;" 
d="M33 1055h205q0 -94 63 -94h10q66 0 66 88v10q0 86 -76 86h-6q-22 0 -44.5 -11t-35.5 -30l-176 59l18 434h512v-178h-340l-6 -110q51 14 94 14q128 0 195.5 -70.5t67.5 -189.5v-21q0 -120 -69 -190t-204 -70t-204.5 66t-69.5 190v17z" />
    <glyph glyph-name="uni2076" unicode="&#x2076;" 
d="M537 1612v-180q-90 0 -145.5 -18.5t-90.5 -59.5q-29 -36 -39 -76q48 25 100 25q100 0 159 -68.5t59 -183.5v-11q0 -120 -69 -189t-206 -69q-132 0 -202 82.5t-70 216.5v17q0 221 112 368q62 84 155 115t237 31zM307 1126q-45 0 -69 -36v-25q0 -52 18 -78t47 -26h6
q27 0 46.5 19.5t19.5 53.5v23q0 69 -62 69h-6z" />
    <glyph glyph-name="uni2077" unicode="&#x2077;" 
d="M27 1311v286h559v-127l-273 -671h-219l264 622l-90 -2h-63v-108h-178z" />
    <glyph glyph-name="uni2078" unicode="&#x2078;" 
d="M307 782q-75 0 -131 23.5t-85.5 61t-43.5 75.5t-14 74v22q0 111 88 170q-82 58 -82 168v21q0 27 7.5 54.5t27 57t48.5 52t77 37t108 14.5t108 -14.5t77 -37t48.5 -52t27 -57t7.5 -54.5v-21q0 -111 -81 -170q86 -60 86 -168v-22q0 -36 -14 -74t-43.5 -75.5t-85.5 -61
t-130 -23.5zM301 1116q-63 0 -63 -65v-11q0 -39 18 -59t45 -20h10q28 0 47 20t19 59v11q0 65 -66 65h-10zM311 1434h-10q-24 0 -41.5 -17.5t-17.5 -44.5v-10q0 -66 63 -66h4q62 0 62 66v10q0 27 -17.5 44.5t-42.5 17.5z" />
    <glyph glyph-name="uni2079" unicode="&#x2079;" 
d="M76 782v181q92 1 146 19.5t89 59.5q24 30 39 76q-43 -24 -100 -24q-98 0 -156.5 68.5t-58.5 183.5v10q0 118 68.5 187t203.5 69q134 0 204.5 -82t70.5 -217v-15q0 -215 -113 -370q-62 -83 -156 -114.5t-237 -31.5zM305 1268q45 0 72 37v26q0 51 -18.5 78t-47.5 27h-6
q-26 0 -45.5 -20.5t-19.5 -55.5v-21q0 -71 61 -71h4z" />
    <glyph glyph-name="uni207A" unicode="&#x207a;" 
d="M217 1464h180v-176h176v-180h-176v-176h-180v176h-176v180h176v176z" />
    <glyph glyph-name="uni207B" unicode="&#x207b;" 
d="M41 1108v180h532v-180h-532z" />
    <glyph glyph-name="uni207C" unicode="&#x207c;" 
d="M41 1223v178h532v-178h-532zM41 995v179h532v-179h-532z" />
    <glyph glyph-name="uni207D" unicode="&#x207d;" horiz-adv-x="397" 
d="M37 1188v20q0 247 123 389h209q-129 -195 -129 -389v-20q0 -194 129 -389h-209q-123 138 -123 389z" />
    <glyph glyph-name="uni207E" unicode="&#x207e;" horiz-adv-x="397" 
d="M356 1208v-20q0 -254 -120 -389h-209q127 185 127 389v20q0 204 -127 389h209q120 -138 120 -389z" />
    <glyph glyph-name="uni2080" unicode="&#x2080;" 
d="M575 223q0 -106 -70.5 -172.5t-197.5 -66.5t-197.5 66.5t-70.5 172.5v350q0 107 70.5 173.5t197.5 66.5t197.5 -66.5t70.5 -173.5v-350zM371 573q0 28 -17 45t-45 17h-4q-29 0 -46 -17t-17 -45v-350q0 -27 17 -44t46 -17h4q27 0 44.5 17t17.5 44v350z" />
    <glyph glyph-name="uni2081" unicode="&#x2081;" 
d="M588 0h-527v176h162v373l-98 -66l-102 146l249 168h156v-621h160v-176z" />
    <glyph glyph-name="uni2082" unicode="&#x2082;" 
d="M575 176v-176h-536v129l291 326q22 24 31.5 40.5t9.5 43.5v10q0 43 -16.5 64.5t-43.5 21.5h-10q-57 0 -57 -103h-205v19q0 132 66 197t202 65q74 0 129 -21.5t84 -56.5t42 -71.5t13 -75.5v-23q0 -67 -21 -110.5t-67 -96.5l-165 -182h253z" />
    <glyph glyph-name="uni2083" unicode="&#x2083;" 
d="M238 256q0 -94 63 -94h10q28 0 47 20.5t19 59.5v10q0 65 -66 65h-106v181h104q62 0 62 65v12q0 26 -17.5 43t-42.5 17h-10q-57 0 -57 -103h-205v19q0 132 66 197t202 65q60 0 108 -14.5t77 -37t48.5 -52t27 -57t7.5 -54.5v-20q0 -112 -83 -170q88 -59 88 -170v-21
q0 -36 -14 -74t-43.5 -75t-85.5 -60.5t-130 -23.5q-135 0 -204.5 66t-69.5 190v16h205z" />
    <glyph glyph-name="uni2084" unicode="&#x2084;" 
d="M522 0h-205v156h-292v145l305 498h192v-463h66v-180h-66v-156zM319 475l-88 -143l37 4h49v102z" />
    <glyph glyph-name="uni2085" unicode="&#x2085;" 
d="M33 256h205q0 -94 63 -94h10q66 0 66 88v10q0 86 -76 86h-6q-22 0 -44.5 -11t-35.5 -30l-176 60l18 434h512v-178h-340l-6 -111q51 14 94 14q128 0 195.5 -70.5t67.5 -189.5v-20q0 -120 -69 -190t-204 -70t-204.5 66t-69.5 190v16z" />
    <glyph glyph-name="uni2086" unicode="&#x2086;" 
d="M537 813v-180q-90 0 -145.5 -18.5t-90.5 -59.5q-29 -36 -39 -76q48 25 100 25q100 0 159 -68.5t59 -183.5v-10q0 -120 -69 -189t-206 -69q-132 0 -202 82.5t-70 216.5v16q0 222 112 369q62 84 155 114.5t237 30.5zM307 328q-44 0 -69 -37v-25q0 -52 18 -78t47 -26h6
q26 0 46 20t20 54v22q0 70 -62 70h-6z" />
    <glyph glyph-name="uni2087" unicode="&#x2087;" 
d="M27 512v287h559v-127l-273 -672h-219l264 623l-90 -2h-63v-109h-178z" />
    <glyph glyph-name="uni2088" unicode="&#x2088;" 
d="M307 -16q-75 0 -131 23.5t-85.5 60.5t-43.5 75t-14 74v23q0 111 88 170q-82 58 -82 168v20q0 27 7.5 54.5t27 57t48.5 52t77 37t108 14.5t108 -14.5t77 -37t48.5 -52t27 -57t7.5 -54.5v-20q0 -111 -81 -170q86 -60 86 -168v-23q0 -36 -14 -74t-43.5 -75t-85.5 -60.5
t-130 -23.5zM301 317q-63 0 -63 -65v-10q0 -39 18 -59.5t45 -20.5h10q28 0 47 20.5t19 59.5v10q0 65 -66 65h-10zM311 635h-10q-24 0 -41.5 -17.5t-17.5 -44.5v-10q0 -65 63 -65h4q62 0 62 65v10q0 27 -17.5 44.5t-42.5 17.5z" />
    <glyph glyph-name="uni2089" unicode="&#x2089;" 
d="M76 -16v180q92 1 146 20t89 60q25 31 39 75q-44 -24 -100 -24q-98 0 -156.5 68.5t-58.5 183.5v10q0 118 68.5 187t203.5 69q134 0 204.5 -82t70.5 -217v-14q0 -216 -113 -371q-62 -83 -156 -114t-237 -31zM305 469q45 0 72 37v26q0 51 -18.5 78t-47.5 27h-6
q-26 0 -45.5 -20.5t-19.5 -55.5v-20q0 -72 61 -72h4z" />
    <glyph glyph-name="uni208A" unicode="&#x208a;" 
d="M217 666h180v-177h176v-180h-176v-176h-180v176h-176v180h176v177z" />
    <glyph glyph-name="uni208B" unicode="&#x208b;" 
d="M41 309v180h532v-180h-532z" />
    <glyph glyph-name="uni208C" unicode="&#x208c;" 
d="M41 424v178h532v-178h-532zM41 197v178h532v-178h-532z" />
    <glyph glyph-name="uni208D" unicode="&#x208d;" horiz-adv-x="397" 
d="M37 389v21q0 247 123 389h209q-129 -195 -129 -389v-21q0 -194 129 -389h-209q-123 138 -123 389z" />
    <glyph glyph-name="uni208E" unicode="&#x208e;" horiz-adv-x="397" 
d="M356 410v-21q0 -254 -120 -389h-209q127 185 127 389v21q0 204 -127 389h209q120 -138 120 -389z" />
    <glyph glyph-name="Euro" unicode="&#x20ac;" horiz-adv-x="1228" 
d="M205 655h-139v242h137q7 378 132 552.5t372 174.5q231 0 334.5 -128t103.5 -402v-70h-236q0 191 -43 274.5t-143 83.5h-16q-212 0 -224 -485h369l-119 -242h-248q18 -440 222 -440h16q186 0 186 297h236v-18q0 -267 -105 -394t-333 -127q-239 0 -363 164t-139 518z" />
    <glyph glyph-name="ruble" unicode="&#x20bd;" horiz-adv-x="1228" 
d="M469 596v-92h395v-240h-395v-264h-274v264h-156v240h156v92h-156v240h156v761h421q84 0 153.5 -10.5t143.5 -41.5t124.5 -82.5t83 -139.5t32.5 -205v-41q0 -118 -32.5 -206.5t-83 -139.5t-124.5 -82.5t-143.5 -42t-153.5 -10.5h-147zM469 836h158q35 0 66.5 5.5t66 22
t58.5 42.5t40 72t16 107v23q0 75 -23 127.5t-62 77.5t-78 35t-84 10h-158v-522z" />
    <glyph glyph-name="numero" unicode="&#x2116;" horiz-adv-x="2273" 
d="M1257 1597v-1597h-290l-590 1102l8 -338v-764h-260v1597h291l590 -1101l-9 338v763h260zM2204 1171q0 -182 -94 -289.5t-281 -107.5q-188 0 -282.5 107t-94.5 290v56q0 183 94.5 290t282.5 107q187 0 281 -107.5t94 -289.5v-56zM1470 391v203h717v-203h-717zM1686 1171
q0 -196 143 -196q141 0 141 196v56q0 194 -141 194q-143 0 -143 -194v-56z" />
    <glyph glyph-name="published" unicode="&#x2117;" horiz-adv-x="1884" 
d="M117 799q0 168 65.5 320.5t176 263t263 176t320.5 65.5t320.5 -65.5t263 -176t176 -263t65.5 -320.5t-65.5 -320.5t-176 -263.5t-263 -176.5t-320.5 -65.5t-320.5 65.5t-263 176.5t-176 263.5t-65.5 320.5zM223 799q0 -146 57 -279.5t153 -229.5t229.5 -153t279.5 -57
t279.5 57t229.5 153t153 229.5t57 279.5t-57 279.5t-153 229.5t-229.5 153t-279.5 57t-279.5 -57t-229.5 -153t-153 -229.5t-57 -279.5zM819 651v-334h-241v963h458q63 0 116.5 -13.5t103 -45t78 -94t28.5 -150.5v-23q0 -88 -28.5 -150.5t-78 -94t-103 -45t-116.5 -13.5
h-217zM819 831h168q25 0 46.5 5.5t42 18.5t32.5 39.5t12 63.5v15q0 37 -12 63.5t-32.5 39.5t-42 18.5t-46.5 5.5h-168v-269z" />
    <glyph glyph-name="servicemark" unicode="&#x2120;" horiz-adv-x="1122" 
d="M211 1315q-95 12 -135.5 48.5t-40.5 113.5v8q0 78 50.5 124t143.5 46q103 0 150 -49.5t47 -149.5v-16h-117q0 58 -17.5 84t-60.5 26h-6q-33 0 -52 -16t-19 -43v-4q0 -31 21.5 -48t74.5 -24q94 -12 137 -50t43 -114v-10q0 -81 -51.5 -127.5t-149.5 -46.5q-200 0 -200 203
v6h116q0 -55 20 -81t64 -26h7q38 0 56.5 18.5t18.5 49.5v4q0 31 -22 48t-78 26zM915 1442l-94 -357h-125l-94 357l4 -127v-230h-117v553h177l94 -354l92 354h176v-553h-117v230z" />
    <glyph glyph-name="trademark" unicode="&#x2122;" horiz-adv-x="1122" 
d="M291 1536v-451h-117v451h-139v102h395v-102h-139zM915 1442l-94 -357h-125l-94 357l4 -127v-230h-117v553h177l94 -354l92 354h176v-553h-117v230z" />
    <glyph glyph-name="uni2153" unicode="&#x2153;" horiz-adv-x="1638" 
d="M336 0h-213l1180 1597h213zM1262 256q0 -94 63 -94h10q28 0 47 20.5t19 59.5v10q0 65 -66 65h-106v181h104q62 0 62 65v12q0 26 -17.5 43t-42.5 17h-10q-57 0 -57 -103h-205v19q0 132 66 197t202 65q60 0 108 -14.5t77 -37t48.5 -52t27 -57t7.5 -54.5v-20
q0 -112 -83 -170q88 -59 88 -170v-21q0 -36 -14 -74t-43.5 -75t-85.5 -60.5t-130 -23.5q-135 0 -204.5 66t-69.5 190v16h205zM588 799h-527v176h162v373l-98 -66l-102 145l249 168h156v-620h160v-176z" />
    <glyph glyph-name="uni2154" unicode="&#x2154;" horiz-adv-x="1638" 
d="M336 0h-213l1180 1597h213zM1262 256q0 -94 63 -94h10q28 0 47 20.5t19 59.5v10q0 65 -66 65h-106v181h104q62 0 62 65v12q0 26 -17.5 43t-42.5 17h-10q-57 0 -57 -103h-205v19q0 132 66 197t202 65q60 0 108 -14.5t77 -37t48.5 -52t27 -57t7.5 -54.5v-20
q0 -112 -83 -170q88 -59 88 -170v-21q0 -36 -14 -74t-43.5 -75t-85.5 -60.5t-130 -23.5q-135 0 -204.5 66t-69.5 190v16h205zM575 975v-176h-536v129l291 325q22 24 31.5 40.5t9.5 43.5v11q0 43 -16.5 64.5t-43.5 21.5h-10q-57 0 -57 -103h-205v19q0 132 66 197t202 65
q74 0 129 -21.5t84 -57t42 -72t13 -75.5v-22q0 -67 -21 -110.5t-67 -96.5l-165 -182h253z" />
    <glyph glyph-name="uni2155" unicode="&#x2155;" horiz-adv-x="1638" 
d="M336 0h-213l1180 1597h213zM1057 256h205q0 -94 63 -94h10q66 0 66 88v10q0 86 -76 86h-6q-22 0 -44.5 -11t-35.5 -30l-176 60l18 434h512v-178h-340l-6 -111q51 14 94 14q128 0 195.5 -70.5t67.5 -189.5v-20q0 -120 -69 -190t-204 -70t-204.5 66t-69.5 190v16zM588 799
h-527v176h162v373l-98 -66l-102 145l249 168h156v-620h160v-176z" />
    <glyph glyph-name="uni2156" unicode="&#x2156;" horiz-adv-x="1638" 
d="M336 0h-213l1180 1597h213zM1057 256h205q0 -94 63 -94h10q66 0 66 88v10q0 86 -76 86h-6q-22 0 -44.5 -11t-35.5 -30l-176 60l18 434h512v-178h-340l-6 -111q51 14 94 14q128 0 195.5 -70.5t67.5 -189.5v-20q0 -120 -69 -190t-204 -70t-204.5 66t-69.5 190v16zM575 975
v-176h-536v129l291 325q22 24 31.5 40.5t9.5 43.5v11q0 43 -16.5 64.5t-43.5 21.5h-10q-57 0 -57 -103h-205v19q0 132 66 197t202 65q74 0 129 -21.5t84 -57t42 -72t13 -75.5v-22q0 -67 -21 -110.5t-67 -96.5l-165 -182h253z" />
    <glyph glyph-name="uni2157" unicode="&#x2157;" horiz-adv-x="1638" 
d="M336 0h-213l1180 1597h213zM1057 256h205q0 -94 63 -94h10q66 0 66 88v10q0 86 -76 86h-6q-22 0 -44.5 -11t-35.5 -30l-176 60l18 434h512v-178h-340l-6 -111q51 14 94 14q128 0 195.5 -70.5t67.5 -189.5v-20q0 -120 -69 -190t-204 -70t-204.5 66t-69.5 190v16zM238 1055
q0 -94 63 -94h10q28 0 47 20t19 59v11q0 65 -66 65h-106v180h104q62 0 62 66v12q0 26 -17.5 43t-42.5 17h-10q-57 0 -57 -103h-205v19q0 132 66 197t202 65q60 0 108 -14.5t77 -37t48.5 -52t27 -57t7.5 -54.5v-21q0 -112 -83 -170q88 -59 88 -170v-20q0 -36 -14 -74
t-43.5 -75.5t-85.5 -61t-130 -23.5q-135 0 -204.5 66t-69.5 190v17h205z" />
    <glyph glyph-name="uni2158" unicode="&#x2158;" horiz-adv-x="1638" 
d="M336 0h-213l1180 1597h213zM1057 256h205q0 -94 63 -94h10q66 0 66 88v10q0 86 -76 86h-6q-22 0 -44.5 -11t-35.5 -30l-176 60l18 434h512v-178h-340l-6 -111q51 14 94 14q128 0 195.5 -70.5t67.5 -189.5v-20q0 -120 -69 -190t-204 -70t-204.5 66t-69.5 190v16zM522 799
h-205v155h-292v146l305 497h192v-462h66v-181h-66v-155zM319 1274l-88 -144l37 5h49v102z" />
    <glyph glyph-name="uni2159" unicode="&#x2159;" horiz-adv-x="1638" 
d="M336 0h-213l1180 1597h213zM1561 813v-180q-90 0 -145.5 -18.5t-90.5 -59.5q-29 -36 -39 -76q48 25 100 25q100 0 159 -68.5t59 -183.5v-10q0 -120 -69 -189t-206 -69q-132 0 -202 82.5t-70 216.5v16q0 222 112 369q62 84 155 114.5t237 30.5zM588 799h-527v176h162v373
l-98 -66l-102 145l249 168h156v-620h160v-176zM1331 328q-44 0 -69 -37v-25q0 -52 18 -78t47 -26h6q26 0 46 20t20 54v22q0 70 -62 70h-6z" />
    <glyph glyph-name="uni215A" unicode="&#x215a;" horiz-adv-x="1638" 
d="M336 0h-213l1180 1597h213zM1561 813v-180q-90 0 -145.5 -18.5t-90.5 -59.5q-29 -36 -39 -76q48 25 100 25q100 0 159 -68.5t59 -183.5v-10q0 -120 -69 -189t-206 -69q-132 0 -202 82.5t-70 216.5v16q0 222 112 369q62 84 155 114.5t237 30.5zM33 1055h205q0 -94 63 -94
h10q66 0 66 88v10q0 86 -76 86h-6q-22 0 -44.5 -11t-35.5 -30l-176 59l18 434h512v-178h-340l-6 -110q51 14 94 14q128 0 195.5 -70.5t67.5 -189.5v-21q0 -120 -69 -190t-204 -70t-204.5 66t-69.5 190v17zM1331 328q-44 0 -69 -37v-25q0 -52 18 -78t47 -26h6q26 0 46 20
t20 54v22q0 70 -62 70h-6z" />
    <glyph glyph-name="uni215B" unicode="&#x215b;" horiz-adv-x="1638" 
d="M1331 -16q-75 0 -131 23.5t-85.5 60.5t-43.5 75t-14 74v23q0 111 88 170q-82 58 -82 168v20q0 27 7.5 54.5t27 57t48.5 52t77 37t108 14.5t108 -14.5t77 -37t48.5 -52t27 -57t7.5 -54.5v-20q0 -111 -81 -170q86 -60 86 -168v-23q0 -36 -14 -74t-43.5 -75t-85.5 -60.5
t-130 -23.5zM336 0h-213l1180 1597h213zM588 799h-527v176h162v373l-98 -66l-102 145l249 168h156v-620h160v-176zM1325 317q-63 0 -63 -65v-10q0 -39 18 -59.5t45 -20.5h10q28 0 47 20.5t19 59.5v10q0 65 -66 65h-10zM1335 635h-10q-24 0 -41.5 -17.5t-17.5 -44.5v-10
q0 -65 63 -65h4q62 0 62 65v10q0 27 -17.5 44.5t-42.5 17.5z" />
    <glyph glyph-name="uni215C" unicode="&#x215c;" horiz-adv-x="1638" 
d="M1331 -16q-75 0 -131 23.5t-85.5 60.5t-43.5 75t-14 74v23q0 111 88 170q-82 58 -82 168v20q0 27 7.5 54.5t27 57t48.5 52t77 37t108 14.5t108 -14.5t77 -37t48.5 -52t27 -57t7.5 -54.5v-20q0 -111 -81 -170q86 -60 86 -168v-23q0 -36 -14 -74t-43.5 -75t-85.5 -60.5
t-130 -23.5zM336 0h-213l1180 1597h213zM238 1055q0 -94 63 -94h10q28 0 47 20t19 59v11q0 65 -66 65h-106v180h104q62 0 62 66v12q0 26 -17.5 43t-42.5 17h-10q-57 0 -57 -103h-205v19q0 132 66 197t202 65q60 0 108 -14.5t77 -37t48.5 -52t27 -57t7.5 -54.5v-21
q0 -112 -83 -170q88 -59 88 -170v-20q0 -36 -14 -74t-43.5 -75.5t-85.5 -61t-130 -23.5q-135 0 -204.5 66t-69.5 190v17h205zM1325 317q-63 0 -63 -65v-10q0 -39 18 -59.5t45 -20.5h10q28 0 47 20.5t19 59.5v10q0 65 -66 65h-10zM1335 635h-10q-24 0 -41.5 -17.5
t-17.5 -44.5v-10q0 -65 63 -65h4q62 0 62 65v10q0 27 -17.5 44.5t-42.5 17.5z" />
    <glyph glyph-name="uni215D" unicode="&#x215d;" horiz-adv-x="1638" 
d="M1331 -16q-75 0 -131 23.5t-85.5 60.5t-43.5 75t-14 74v23q0 111 88 170q-82 58 -82 168v20q0 27 7.5 54.5t27 57t48.5 52t77 37t108 14.5t108 -14.5t77 -37t48.5 -52t27 -57t7.5 -54.5v-20q0 -111 -81 -170q86 -60 86 -168v-23q0 -36 -14 -74t-43.5 -75t-85.5 -60.5
t-130 -23.5zM336 0h-213l1180 1597h213zM33 1055h205q0 -94 63 -94h10q66 0 66 88v10q0 86 -76 86h-6q-22 0 -44.5 -11t-35.5 -30l-176 59l18 434h512v-178h-340l-6 -110q51 14 94 14q128 0 195.5 -70.5t67.5 -189.5v-21q0 -120 -69 -190t-204 -70t-204.5 66t-69.5 190v17z
M1325 317q-63 0 -63 -65v-10q0 -39 18 -59.5t45 -20.5h10q28 0 47 20.5t19 59.5v10q0 65 -66 65h-10zM1335 635h-10q-24 0 -41.5 -17.5t-17.5 -44.5v-10q0 -65 63 -65h4q62 0 62 65v10q0 27 -17.5 44.5t-42.5 17.5z" />
    <glyph glyph-name="uni215E" unicode="&#x215e;" horiz-adv-x="1638" 
d="M1331 -16q-75 0 -131 23.5t-85.5 60.5t-43.5 75t-14 74v23q0 111 88 170q-82 58 -82 168v20q0 27 7.5 54.5t27 57t48.5 52t77 37t108 14.5t108 -14.5t77 -37t48.5 -52t27 -57t7.5 -54.5v-20q0 -111 -81 -170q86 -60 86 -168v-23q0 -36 -14 -74t-43.5 -75t-85.5 -60.5
t-130 -23.5zM336 0h-213l1180 1597h213zM27 1311v286h559v-127l-273 -671h-219l264 622l-90 -2h-63v-108h-178zM1325 317q-63 0 -63 -65v-10q0 -39 18 -59.5t45 -20.5h10q28 0 47 20.5t19 59.5v10q0 65 -66 65h-10zM1335 635h-10q-24 0 -41.5 -17.5t-17.5 -44.5v-10
q0 -65 63 -65h4q62 0 62 65v10q0 27 -17.5 44.5t-42.5 17.5z" />
    <glyph glyph-name="uni215F" unicode="&#x215f;" horiz-adv-x="1024" 
d="M336 0h-213l1180 1597h213zM588 799h-527v176h162v373l-98 -66l-102 145l249 168h156v-620h160v-176z" />
    <glyph glyph-name="arrowleft" unicode="&#x2190;" horiz-adv-x="1884" 
d="M915 1597h340l-677 -677h1163v-242h-1163l677 -678h-340l-798 799z" />
    <glyph glyph-name="arrowup" unicode="&#x2191;" horiz-adv-x="1884" 
d="M143 485v340l799 799l799 -799v-340l-678 678v-1163h-242v1163z" />
    <glyph glyph-name="arrowright" unicode="&#x2192;" horiz-adv-x="1884" 
d="M629 1597h340l798 -798l-798 -799h-340l678 678h-1164v242h1164z" />
    <glyph glyph-name="arrowdown" unicode="&#x2193;" horiz-adv-x="1884" 
d="M143 772v340l678 -678v1163h242v-1163l678 678v-340l-799 -799z" />
    <glyph glyph-name="uni2196" unicode="&#x2196;" horiz-adv-x="1884" 
d="M385 0h-242v1597h1598v-241h-1188l1214 -1213l-170 -170l-1212 1215v-1188z" />
    <glyph glyph-name="uni2197" unicode="&#x2197;" horiz-adv-x="1884" 
d="M143 1356v241h1598v-1597h-242v1188l-1212 -1215l-170 170l1214 1213h-1188z" />
    <glyph glyph-name="uni2198" unicode="&#x2198;" horiz-adv-x="1884" 
d="M143 0v242h1188l-1214 1212l170 170l1212 -1214v1187h242v-1597h-1598z" />
    <glyph glyph-name="uni2199" unicode="&#x2199;" horiz-adv-x="1884" 
d="M1741 242v-242h-1598v1597h242v-1187l1212 1214l170 -170l-1214 -1212h1188z" />
    <glyph glyph-name="minus" unicode="&#x2212;" horiz-adv-x="1228" 
d="M90 678v242h1049v-242h-1049z" />
    <glyph glyph-name="approxequal" unicode="&#x2248;" horiz-adv-x="1228" 
d="M373 750q72 0 142 -21.5t116.5 -47.5t105.5 -47.5t111 -21.5q98 0 188 105l129 -131q-50 -78 -129 -130.5t-180 -52.5q-72 0 -142 21.5t-116.5 47.5t-105.5 47.5t-111 21.5q-100 0 -188 -103l-130 129q50 78 129.5 130.5t180.5 52.5zM373 1186q59 0 115 -14.5t100 -35
t85 -40.5t86.5 -34.5t88.5 -14.5q99 0 188 104l129 -129q-50 -78 -129 -130t-180 -52q-72 0 -142 21.5t-116.5 47t-105.5 47t-111 21.5q-98 0 -188 -105l-130 132q50 78 129.5 130t180.5 52z" />
    <glyph glyph-name="notequal" unicode="&#x2260;" horiz-adv-x="1228" 
d="M90 895v242h621l129 225h194l-129 -225h234v-242h-373l-111 -193h484v-241h-621l-129 -225h-194l129 225h-234v241h371l110 193h-481z" />
    <glyph glyph-name="equivalence" unicode="&#x2261;" horiz-adv-x="1228" 
d="M90 678v242h1049v-242h-1049zM90 244v239h1049v-239h-1049zM90 1114v240h1049v-240h-1049z" />
    <glyph glyph-name="lessequal" unicode="&#x2264;" horiz-adv-x="1228" 
d="M1139 1143l-678 -205l678 -201v-266l-1049 338v262l1049 336v-264zM1139 352v-162l-1049 336v164z" />
    <glyph glyph-name="greaterequal" unicode="&#x2265;" horiz-adv-x="1228" 
d="M90 737l678 201l-678 205v264l1049 -336v-262l-1049 -338v266zM90 190v162l1049 338v-164z" />
    <glyph glyph-name="squaremultiply" unicode="&#x22a0;" horiz-adv-x="1884" 
d="M1741 0h-1598v1597h1598v-1597zM1503 1360h-1122v-1122h1122v1122zM639 326l-170 170l303 303l-303 303l170 170l303 -303l303 303l170 -170l-303 -303l303 -303l-170 -170l-303 303z" />
    <glyph glyph-name="house" unicode="&#x2302;" horiz-adv-x="1740" 
d="M1597 0h-1454v922l727 696l727 -696v-922z" />
    <glyph glyph-name="blacksquare" unicode="&#x25a0;" horiz-adv-x="1884" 
d="M1741 0h-1598v1597h1598v-1597z" />
    <glyph glyph-name="blacksquare" unicode="&#xe740;" horiz-adv-x="1884" 
d="M1741 0h-1598v1597h1598v-1597z" />
    <glyph glyph-name="whitesquare" unicode="&#x25a1;" horiz-adv-x="1884" 
d="M1741 0h-1598v1597h1598v-1597zM1503 1360h-1122v-1122h1122v1122z" />
    <glyph glyph-name="blacksmallsquare" unicode="&#x25aa;" horiz-adv-x="1392" 
d="M1229 0h-1086v1085h1086v-1085z" />
    <glyph glyph-name="whitesmallsquare" unicode="&#x25ab;" horiz-adv-x="1392" 
d="M143 1085h1086v-1085h-1086v1085zM991 848h-610v-610h610v610z" />
    <glyph glyph-name="triagup" unicode="&#x25b2;" horiz-adv-x="1904" 
d="M1083 1624l695 -1624h-267l-559 1331l-559 -1331h-266l694 1624h262z" />
    <glyph glyph-name="triagrt" unicode="&#x25ba;" horiz-adv-x="1904" 
d="M1788 930v-262l-1624 -695v267l1331 559l-1331 559v266z" />
    <glyph glyph-name="triagdn" unicode="&#x25bc;" horiz-adv-x="1904" 
d="M821 -27l-694 1624h266l559 -1333l559 1333h267l-695 -1624h-262z" />
    <glyph glyph-name="triaglf" unicode="&#x25c4;" horiz-adv-x="1904" 
d="M117 930l1624 694v-266l-1333 -559l1333 -559v-267l-1624 695v262z" />
    <glyph glyph-name="whitecircle" unicode="&#x25cb;" horiz-adv-x="1884" 
d="M117 799q0 168 65.5 320.5t176 263t263 176t320.5 65.5t320.5 -65.5t263 -176t176 -263t65.5 -320.5t-65.5 -320.5t-176 -263.5t-263 -176.5t-320.5 -65.5t-320.5 65.5t-263 176.5t-176 263.5t-65.5 320.5zM354 799q0 -160 78.5 -295.5t214 -214t295.5 -78.5t295.5 78.5
t214 214t78.5 295.5t-78.5 295.5t-214 213.5t-295.5 78t-295.5 -78t-214 -213.5t-78.5 -295.5z" />
    <glyph glyph-name="whitecircle" unicode="&#x25ef;" horiz-adv-x="1884" 
d="M117 799q0 168 65.5 320.5t176 263t263 176t320.5 65.5t320.5 -65.5t263 -176t176 -263t65.5 -320.5t-65.5 -320.5t-176 -263.5t-263 -176.5t-320.5 -65.5t-320.5 65.5t-263 176.5t-176 263.5t-65.5 320.5zM354 799q0 -160 78.5 -295.5t214 -214t295.5 -78.5t295.5 78.5
t214 214t78.5 295.5t-78.5 295.5t-214 213.5t-295.5 78t-295.5 -78t-214 -213.5t-78.5 -295.5z" />
    <glyph glyph-name="blackcircle" unicode="&#x25cf;" horiz-adv-x="1884" 
d="M117 799q0 168 65.5 320.5t176 263t263 176t320.5 65.5t320.5 -65.5t263 -176t176 -263t65.5 -320.5t-65.5 -320.5t-176 -263.5t-263 -176.5t-320.5 -65.5t-320.5 65.5t-263 176.5t-176 263.5t-65.5 320.5z" />
    <glyph glyph-name="uni25E2" unicode="&#x25e2;" horiz-adv-x="1904" 
d="M1837 92l-92 -94l-92 -90l-1639 655l189 189l1337 -551l-549 1341l189 187z" />
    <glyph glyph-name="uni25E3" unicode="&#x25e3;" horiz-adv-x="1904" 
d="M160 -2l-92 94l657 1637l188 -187l-551 -1341l1340 551l188 -189l-1638 -655z" />
    <glyph glyph-name="uni25E4" unicode="&#x25e4;" horiz-adv-x="1904" 
d="M68 1509l184 185l1638 -658l-188 -188l-1340 549l551 -1338l-188 -188z" />
    <glyph glyph-name="uni25E5" unicode="&#x25e5;" horiz-adv-x="1904" 
d="M1837 1509l-657 -1638l-189 188l549 1338l-1337 -549l-189 188l1639 658z" />
    <glyph glyph-name="uni2605" unicode="&#x2605;" horiz-adv-x="1802" 
d="M901 369l-532 -389l202 628l-532 387h659l203 627l203 -627h659l-532 -387l203 -628z" />
    <glyph glyph-name="ballotboxwithx" unicode="&#x2612;" horiz-adv-x="1392" 
d="M143 1085h1086v-1085h-1086v1085zM991 848h-610v-610h610v610zM639 760l47 -47l47 47h170v-170l-47 -47l47 -47v-170h-170l-47 47l-47 -47h-170v170l47 47l-47 47v170h170z" />
    <glyph glyph-name="uni263C" unicode="&#x263c;" horiz-adv-x="1966" 
d="M1067 391l-86 -414l-86 414q0 -80 -59 -135q-17 -16 -61 -45.5t-61.5 -53.5t-17.5 -61q0 -19 6 -37t12 -26l7 -8q-45 13 -69.5 48t-24.5 79q0 61 43 104q41 41 62.5 97t21.5 98l-353 -232l232 352q-53 -53 -135 -53q-19 0 -64.5 8.5t-62.5 8.5q-31 0 -55 -10t-36 -24.5
t-19.5 -29.5t-8.5 -25l-2 -10q-17 31 -17 58q0 59 42.5 100t103.5 41q42 0 89.5 17.5t74.5 35t32 25.5l-413 86l413 86q-80 0 -135 59q-16 18 -37.5 48.5t-34 47t-35.5 30t-52 13.5q-19 0 -37 -6t-26 -12l-9 -6q13 45 48 69.5t79 24.5q61 0 104 -43q41 -41 97 -62.5
t98 -21.5l-232 352l353 -231q-54 54 -54 135q0 19 8.5 64.5t8.5 62.5q0 31 -10 55t-24.5 36t-29 19.5t-24.5 8.5l-10 2q29 16 57 16q59 0 100 -42t41 -103q0 -42 17.5 -89.5t35 -75t25.5 -32.5l86 414l86 -414q0 80 59 135q17 16 61 45.5t61.5 53.5t17.5 61q0 19 -6 37
t-12 26l-7 9q45 -13 69.5 -48t24.5 -79q0 -62 -43 -105q-41 -41 -62.5 -96.5t-21.5 -97.5l353 231l-232 -352q53 53 135 53q19 0 64.5 -8t62.5 -8q31 0 55 10t36 24.5t19.5 29t8.5 24.5l2 10q17 -31 17 -57q0 -59 -42.5 -100t-103.5 -41q-42 0 -89.5 -17.5t-74.5 -35
t-32 -25.5l413 -86l-413 -86q79 0 135 -60q16 -18 37.5 -48.5t34 -47t35.5 -30t52 -13.5q19 0 37 6t26 12l9 7q-13 -45 -48.5 -70t-78.5 -25q-61 0 -104 43q-41 41 -97 62.5t-98 21.5l232 -352l-353 232q54 -54 54 -136q0 -19 -8.5 -64.5t-8.5 -62.5q0 -31 10 -55
t24.5 -35.5t29 -19t24.5 -8.5l10 -2q-31 -17 -57 -17q-59 0 -100 42.5t-41 103.5q0 42 -17.5 89.5t-35 74.5t-25.5 32z" />
    <glyph glyph-name="uni263E" unicode="&#x263e;" horiz-adv-x="1966" 
d="M1278 1491q-181 0 -333.5 -92.5t-241.5 -252t-89 -347.5q0 -141 52.5 -269.5t141.5 -221t212 -147.5t258 -55q99 0 197 31q-218 -157 -492 -157q-167 0 -318.5 65t-261 174.5t-174.5 261t-65 318.5t65 318.5t174.5 261t261 174.5t318.5 65q268 0 492 -158
q-109 31 -197 31z" />
    <glyph glyph-name="spade" unicode="&#x2660;" horiz-adv-x="1843" 
d="M924 1618q66 -99 199 -238t278 -233q60 -39 104 -73t90.5 -79t75.5 -90t47.5 -102t18.5 -119q0 -150 -105 -253t-256 -103q-142 0 -246 93.5t-163 235.5l-6 -2q17 -210 54 -356.5t113 -298.5h-413q76 152 113.5 299t54.5 356l-6 2q-27 -67 -65.5 -124t-89 -104
t-116.5 -74t-139 -27q-151 0 -256 103t-105 253q0 62 18.5 119t47.5 102t75.5 90t90.5 79t104 73q146 95 279 233.5t199 237.5h4z" />
    <glyph glyph-name="club" unicode="&#x2663;" horiz-adv-x="1843" 
d="M715 0q76 152 113.5 299t54.5 356l-6 2q-27 -67 -65.5 -124t-89 -104t-116.5 -74t-139 -27q-151 0 -256 103t-105 253q0 161 99 265t258 104q84 0 172 -47l4 4q-78 118 -78 239q0 154 103.5 261.5t257.5 107.5t257 -107.5t103 -261.5q0 -121 -78 -239l4 -4q88 47 172 47
q159 0 258 -104t99 -265q0 -150 -105 -253t-256 -103q-142 0 -246 93.5t-163 235.5l-6 -2q17 -210 54 -356.5t113 -298.5h-413z" />
    <glyph glyph-name="heart" unicode="&#x2665;" horiz-adv-x="1843" 
d="M924 -20h-4q-59 88 -193.5 259t-284.5 341q-64 73 -114 136.5t-105 148.5t-86 170t-31 161q0 185 107 303.5t285 118.5q92 0 163.5 -25.5t120.5 -73t80.5 -100.5t55.5 -123h8q24 70 55.5 123t80.5 100.5t120.5 73t163.5 25.5q178 0 284.5 -118.5t106.5 -303.5
q0 -76 -31 -161t-86 -170t-105 -148.5t-114 -136.5q-149 -169 -283.5 -340t-193.5 -260z" />
    <glyph glyph-name="diamond" unicode="&#x2666;" horiz-adv-x="1843" 
d="M1673 799q-218 -170 -415 -386t-334 -433h-4q-137 217 -334.5 433t-415.5 386q218 170 415.5 386t334.5 433h4q137 -217 334 -433t415 -386z" />
    <glyph glyph-name="uni267B" unicode="&#x267b;" horiz-adv-x="1966" 
d="M1767 545l2 -4l-196 -342q-41 -60 -60 -77q-44 -38 -120 -38h-117v-100l-232 278l232 277v-101h297q34 0 66.5 11t54.5 27t39.5 31.5t25.5 26.5zM381 250h-4l-197 344q-23 42 -31.5 65.5t-5.5 63t29 82.5l57 100l-86 49l357 64l121 -340l-84 49q-144 -246 -148 -256
q-27 -46 -29 -101.5t10 -87.5zM827 1595v2h396q37 -1 56 -3t46 -11t47 -29t39 -53l57 -100l88 49l-124 -340l-355 64l84 49l-147 256q-27 47 -74 76t-80 35zM410 1225l137 243q21 38 69 64q63 34 131.5 30.5t126.5 -33t80 -69.5l-237 -411zM913 84h-276q-43 0 -90 27
q-45 26 -76 70.5t-42.5 91.5t-9.5 91.5t19 73.5h475v-354zM1651 1079l141 -239q20 -36 20 -90q1 -99 -78 -178.5t-151 -79.5l-237 411z" />
    <glyph glyph-name="uni267C" unicode="&#x267c;" horiz-adv-x="1966" 
d="M598 1321l-106 -188l237 -138l184 320q-17 30 -62 52.5t-98 25.5t-102 -23q-37 -21 -53 -49zM807 1421v-2q4 0 11 -1.5t26.5 -7.5t36.5 -14.5t37.5 -26.5t33.5 -40l115 -199l-66 -38l275 -50l96 265l-67 -39l-45 78q-28 49 -60 62t-86 13h-307zM659 248h215v274h-368
q-13 -22 -15 -57t7.5 -71.5t33.5 -71t58 -54.5q36 -20 69 -20zM467 377h2q-5 10 -10.5 27.5t-5 63t21.5 81.5l115 199l65 -39l-94 264l-276 -49l67 -39l-45 -78q-20 -34 -22.5 -65t4 -48.5t24.5 -50.5zM1563 834l-109 186l-237 -137l184 -320q57 0 118 61.5t60 139.5
q0 42 -16 70zM1546 602l-2 2q-2 -3 -6.5 -8.5t-19.5 -20t-31.5 -25t-42 -19.5t-51.5 -9h-230v78l-180 -215l180 -215v78h90q57 0 85 21.5t55 66.5zM131 799q0 221 108.5 407.5t295 295t407.5 108.5t407.5 -108.5t295 -295t108.5 -407.5t-108.5 -407.5t-295 -295
t-407.5 -108.5t-407.5 108.5t-295 295t-108.5 407.5z" />
    <glyph glyph-name="uni267D" unicode="&#x267d;" horiz-adv-x="1966" 
d="M492 1133l106 188q16 28 53 49q49 26 102 23t98 -25.5t62 -52.5l-184 -320zM807 1419v2h307q54 0 86 -13t60 -62l45 -78l67 39l-96 -265l-275 50l66 38l-115 199q-21 36 -57 58.5t-62 26.5zM874 248h-215q-33 0 -69 20q-34 20 -58 54.5t-33.5 71t-7.5 71.5t15 57h368
v-274zM469 377h-2l-154 266q-18 33 -24.5 50.5t-4 48.5t22.5 65l45 78l-67 39l276 49l94 -264l-65 39l-115 -199q-21 -36 -22.5 -79t7.5 -68zM1454 1020l109 -186q16 -28 16 -70q1 -78 -60 -139.5t-118 -61.5l-184 320zM1544 604l2 -2l-153 -266q-18 -30 -31 -46t-41 -29
t-68 -13h-90v-78l-180 215l180 215v-78h230q42 0 79.5 20.5t54.5 41.5zM123 799q0 167 65 318.5t174.5 261t261 174.5t318.5 65t318.5 -65t261 -174.5t174.5 -261t65 -318.5t-65 -318.5t-174.5 -261t-261 -174.5t-318.5 -65t-318.5 65t-261 174.5t-174.5 261t-65 318.5z
M201 799q0 -202 99 -372.5t269.5 -270t372.5 -99.5t372.5 99.5t269.5 270t99 372.5q0 151 -58.5 288.5t-157.5 236.5t-236.5 157.5t-288.5 58.5t-288.5 -58.5t-236.5 -157.5t-157.5 -236.5t-58.5 -288.5z" />
    <glyph glyph-name="mediumwhitecircle" unicode="&#x26aa;" horiz-adv-x="1372" 
d="M117 543q0 154 76.5 285t207.5 207.5t285 76.5t285 -76.5t207.5 -207.5t76.5 -285t-76.5 -285.5t-207.5 -208t-285 -76.5t-285 76.5t-207.5 208t-76.5 285.5zM354 543q0 -138 97 -235t235 -97t235 97t97 235t-97 234.5t-235 96.5t-235 -96.5t-97 -234.5z" />
    <glyph glyph-name="mediumblackcircle" unicode="&#x26ab;" horiz-adv-x="1372" 
d="M117 543q0 154 76.5 285t207.5 207.5t285 76.5t285 -76.5t207.5 -207.5t76.5 -285t-76.5 -285.5t-207.5 -208t-285 -76.5t-285 76.5t-207.5 208t-76.5 285.5z" />
    <glyph glyph-name="anglebracketleft" unicode="&#x3008;" horiz-adv-x="716" 
d="M670 1720l-332 -983l332 -983h-277l-332 983l332 983h277z" />
    <glyph glyph-name="anglebracketright" unicode="&#x3009;" horiz-adv-x="716" 
d="M47 -246l332 983l-332 983h277l331 -983l-331 -983h-277z" />
    <glyph glyph-name="fi" unicode="&#xe38c;" horiz-adv-x="1333" 
d="M479 1255v-170h260v-233h-260v-852h-266v852h-166v233h166v201q0 379 379 379q114 0 168 -27v-221q-10 5 -44 11t-61 6q-90 0 -133 -38t-43 -141zM944 0v1085h266v-1085h-266zM1223 1563v-289h-291v289h291z" />
    <glyph glyph-name="fi" unicode="&#xfb01;" horiz-adv-x="1333" 
d="M479 1255v-170h260v-233h-260v-852h-266v852h-166v233h166v201q0 379 379 379q114 0 168 -27v-221q-10 5 -44 11t-61 6q-90 0 -133 -38t-43 -141zM944 0v1085h266v-1085h-266zM1223 1563v-289h-291v289h291z" />
    <glyph glyph-name="fl" unicode="&#xe38d;" horiz-adv-x="1333" 
d="M479 1255v-170h260v-233h-260v-852h-266v852h-166v233h166v201q0 379 379 379q114 0 168 -27v-221q-10 5 -44 11t-61 6q-90 0 -133 -38t-43 -141zM944 0v1638h266v-1638h-266z" />
    <glyph glyph-name="fl" unicode="&#xfb02;" horiz-adv-x="1333" 
d="M479 1255v-170h260v-233h-260v-852h-266v852h-166v233h166v201q0 379 379 379q114 0 168 -27v-221q-10 5 -44 11t-61 6q-90 0 -133 -38t-43 -141zM944 0v1638h266v-1638h-266z" />
    <glyph glyph-name="invertedbreve" unicode="&#xe411;" horiz-adv-x="1024" 
d="M512 1624q193 0 281.5 -106t85.5 -287h-197q0 186 -170 186t-170 -186h-197q-3 181 85.5 287t281.5 106z" />
    <glyph glyph-name="doublegrave" unicode="&#xe412;" horiz-adv-x="1024" 
d="M43 1597h240l186 -366h-215zM383 1597h240l149 -366h-215z" />
    <glyph glyph-name="caronSlovak" unicode="&#xe413;" horiz-adv-x="1024" 
d="M637 1638h174l-47 -407h-127v407z" />
    <glyph glyph-name="commaaccent" unicode="&#xe414;" horiz-adv-x="1232" 
d="M637 -96v-115q0 -126 -68 -186t-207 -60v101q135 0 166 84h-141v176h250z" />
    <glyph glyph-name="commaaccent" unicode="&#xf6c3;" horiz-adv-x="1232" 
d="M637 -96v-115q0 -126 -68 -186t-207 -60v101q135 0 166 84h-141v176h250z" />
    <glyph glyph-name="dotbelow" unicode="&#xe415;" horiz-adv-x="1232" 
d="M637 -127v-252h-250v252h250z" />
    <glyph glyph-name="altcedilla" unicode="&#xe416;" horiz-adv-x="1232" 
d="M598 -250q0 53 -104 53q-72 0 -105 -14v100q81 21 139 21q99 0 160.5 -43.5t61.5 -130.5q0 -174 -234 -174q-138 0 -209 49l41 121q58 -33 146 -33q104 0 104 51z" />
    <glyph glyph-name="grave.cap" unicode="&#xe421;" horiz-adv-x="1024" 
d="M250 1946h280l115 -226h-266z" />
    <glyph glyph-name="acute.cap" unicode="&#xe422;" horiz-adv-x="1024" 
d="M494 1946h280l-129 -226h-266z" />
    <glyph glyph-name="circumflex.cap" unicode="&#xe423;" horiz-adv-x="1024" 
d="M381 1720h-246l244 226h266l244 -226h-246l-131 103z" />
    <glyph glyph-name="tilde.cap" unicode="&#xe424;" horiz-adv-x="1024" 
d="M719 1931h149q0 -117 -53.5 -171t-140.5 -54q-55 0 -112.5 25.5t-105.5 51t-79 25.5q-72 0 -72 -73h-149q0 117 53.5 171t140.5 54q55 0 112.5 -25.5t105.5 -51t79 -25.5q72 0 72 73z" />
    <glyph glyph-name="macron.cap" unicode="&#xe425;" horiz-adv-x="1024" 
d="M229 1747v172h566v-172h-566z" />
    <glyph glyph-name="breve.cap" unicode="&#xe426;" horiz-adv-x="1024" 
d="M512 1692q-350 0 -350 254h188q0 -101 162 -101t162 101h188q0 -254 -350 -254z" />
    <glyph glyph-name="invertedbreve.cap" unicode="&#xe427;" horiz-adv-x="1024" 
d="M512 1974q350 0 350 -254h-188q0 101 -162 101t-162 -101h-188q0 254 350 254z" />
    <glyph glyph-name="dotaccent.cap" unicode="&#xe428;" horiz-adv-x="1024" 
d="M631 1927v-188h-238v188h238z" />
    <glyph glyph-name="dieresis.cap" unicode="&#xe429;" horiz-adv-x="1024" 
d="M459 1927v-188h-240v188h240zM805 1927v-188h-240v188h240z" />
    <glyph glyph-name="ring.cap" unicode="&#xe42a;" horiz-adv-x="1024" 
d="M303 1763q0 86 61.5 147.5t147.5 61.5t147.5 -61.5t61.5 -147.5q0 -87 -61 -148t-148 -61t-148 61t-61 148zM406 1763q0 -44 31 -76t75 -32t75 32t31 76q0 43 -31 75t-75 32t-75 -32t-31 -75z" />
    <glyph glyph-name="hungarumlaut.cap" unicode="&#xe42b;" horiz-adv-x="1024" 
d="M338 1946h254l-117 -226h-242zM666 1946h254l-129 -226h-242z" />
    <glyph glyph-name="doublegrave.cap" unicode="&#xe42c;" horiz-adv-x="1024" 
d="M432 1946h254l105 -226h-242zM104 1946h254l117 -226h-242z" />
    <glyph glyph-name="caron.cap" unicode="&#xe42d;" horiz-adv-x="1024" 
d="M135 1946h246l131 -105l131 105h246l-244 -226h-266z" />
    <glyph glyph-name="commaaccent.cap" unicode="&#xe42e;" horiz-adv-x="1024" 
d="M393 1720v62q0 196 250 196v-73q-59 0 -93 -13.5t-48 -48.5h129v-123h-238z" />
    <glyph glyph-name="exclamdown.cap" unicode="&#xe441;" horiz-adv-x="512" 
d="M422 0h-332l74 1155h184zM111 1309v288h290v-288h-290z" />
    <glyph glyph-name="questiondown.cap" unicode="&#xe444;" horiz-adv-x="991" 
d="M487 211q104 0 145.5 81t41.5 255h270v-31q0 -131 -23 -227.5t-75 -169t-142 -109.5t-217 -37q-122 0 -211 33.5t-138.5 93.5t-72 132t-22.5 159q0 83 19 150t49.5 112.5t67.5 85.5t75.5 80t71 84t56 108.5t28.5 143.5h184q5 -80 -7 -153.5t-36.5 -129t-55 -106.5
t-62 -95t-58 -84.5t-43.5 -85t-17 -87.5q0 -100 38.5 -151.5t133.5 -51.5zM356 1309v288h291v-288h-291z" />
    <glyph glyph-name="guilsinglleft.cap" unicode="&#xe451;" horiz-adv-x="641" 
d="M539 1231v-240l-250 -192l250 -193v-239l-437 305v254z" />
    <glyph glyph-name="guilsinglright.cap" unicode="&#xe452;" horiz-adv-x="641" 
d="M102 991v240l437 -305v-254l-437 -305v239l250 193z" />
    <glyph glyph-name="guillemotleft.cap" unicode="&#xe453;" horiz-adv-x="1126" 
d="M539 1231v-240l-250 -192l250 -193v-239l-437 305v254zM1024 1231v-240l-250 -192l250 -193v-239l-434 305v254z" />
    <glyph glyph-name="guillemotright.cap" unicode="&#xe454;" horiz-adv-x="1126" 
d="M102 991v240l437 -305v-254l-437 -305v239l250 193zM590 991v240l434 -305v-254l-434 -305v239l248 193z" />
    <glyph glyph-name="slash.cap" unicode="&#xe461;" horiz-adv-x="743" 
d="M305 0h-262l393 1597h262z" />
    <glyph glyph-name="backslash.cap" unicode="&#xe462;" horiz-adv-x="743" 
d="M43 1597h262l393 -1597h-262z" />
    <glyph glyph-name="bar.cap" unicode="&#xe463;" horiz-adv-x="497" 
d="M117 0v1597h262v-1597h-262z" />
    <glyph glyph-name="doublebar.cap" unicode="&#xe464;" horiz-adv-x="856" 
d="M117 0v1597h262v-1597h-262zM477 0v1597h260v-1597h-260z" />
    <glyph glyph-name="brokenbar.cap" unicode="&#xe465;" horiz-adv-x="497" 
d="M117 854v743h262v-743h-262zM117 0v743h262v-743h-262z" />
    <glyph glyph-name="bullet.cap" unicode="&#xe466;" horiz-adv-x="880" 
d="M750 1108v-619h-619v619h619z" />
    <glyph glyph-name="onethirdemdash" unicode="&#xe471;" horiz-adv-x="681" 
d="M600 600h-518v234h518v-234z" />
    <glyph glyph-name="threequarteremdash" unicode="&#xe472;" horiz-adv-x="1536" 
d="M82 600v234h1372v-234h-1372z" />
    <glyph glyph-name="periodcentered.cap" unicode="&#xe481;" horiz-adv-x="512" 
d="M401 944v-291h-290v291h290z" />
    <glyph glyph-name="hyphen.cap" unicode="&#xe482;" horiz-adv-x="655" 
d="M82 682v233h543v-233h-543z" />
    <glyph glyph-name="onethirdemdash.cap" unicode="&#xe483;" horiz-adv-x="681" 
d="M600 682h-512v233h512v-233z" />
    <glyph glyph-name="endash.cap" unicode="&#xe484;" horiz-adv-x="1024" 
d="M82 682v233h860v-233h-860z" />
    <glyph glyph-name="threequarteremdash.cap" unicode="&#xe485;" horiz-adv-x="1536" 
d="M82 682v233h1372v-233h-1372z" />
    <glyph glyph-name="emdash.cap" unicode="&#xe486;" horiz-adv-x="2048" 
d="M82 682v233h1884v-233h-1884z" />
    <glyph glyph-name="figuredash.cap" unicode="&#xe487;" horiz-adv-x="1228" 
d="M82 682v233h1065v-233h-1065z" />
    <glyph glyph-name="uni2015.cap" unicode="&#xe488;" horiz-adv-x="2457" 
d="M82 682v233h2294v-233h-2294z" />
    <glyph glyph-name="parenleft.cap" unicode="&#xe491;" horiz-adv-x="716" 
d="M100 778v41q0 242 68.5 438t179.5 340h279q-110 -158 -184 -358.5t-74 -419.5v-41q0 -219 74 -419.5t184 -358.5h-279q-111 144 -179.5 340t-68.5 438z" />
    <glyph glyph-name="parenright.cap" unicode="&#xe492;" horiz-adv-x="716" 
d="M616 819v-41q0 -243 -67.5 -439.5t-179.5 -338.5h-279q110 158 184 358.5t74 419.5v41q0 219 -74 419.5t-184 358.5h279q112 -142 179.5 -338.5t67.5 -439.5z" />
    <glyph glyph-name="bracketleft.cap" unicode="&#xe493;" horiz-adv-x="716" 
d="M125 1597h520v-235h-254v-1126h254v-236h-520v1597z" />
    <glyph glyph-name="bracketright.cap" unicode="&#xe494;" horiz-adv-x="716" 
d="M594 0h-520v236h252v1126h-252v235h520v-1597z" />
    <glyph glyph-name="braceleft.cap" unicode="&#xe495;" horiz-adv-x="716" 
d="M645 1597v-235q-82 0 -123.5 -38t-44.5 -128v-168q0 -164 -121 -229q121 -68 121 -230v-147q0 -101 41 -143.5t127 -42.5v-236h-51q-385 0 -385 340v170q0 94 -38 132t-122 38v238q84 0 122 37.5t38 131.5v170q0 340 385 340h51z" />
    <glyph glyph-name="braceright.cap" unicode="&#xe496;" horiz-adv-x="716" 
d="M74 1362v235h49q385 0 385 -340v-170q0 -94 38 -131.5t122 -37.5v-238q-84 0 -122 -38t-38 -132v-170q0 -340 -385 -340h-49v236q85 0 125.5 42.5t40.5 143.5v147q0 163 118 230q-118 64 -118 229v148q0 101 -40.5 143.5t-125.5 42.5z" />
    <glyph glyph-name="anglebracketleft.cap" unicode="&#xe497;" horiz-adv-x="716" 
d="M623 1597l-279 -798l279 -799h-277l-278 799l278 798h277z" />
    <glyph glyph-name="anglebracketright.cap" unicode="&#xe498;" horiz-adv-x="716" 
d="M373 799l-279 798h277l278 -798l-278 -799h-277z" />
    <glyph glyph-name="lowline" unicode="&#xe511;" horiz-adv-x="655" 
d="M90 0v233h475v-233h-475z" />
    <glyph glyph-name="underscoremonospace" unicode="&#xe512;" horiz-adv-x="1228" 
d="M90 -346v233h1049v-233h-1049z" />
    <glyph glyph-name="underscoremonospace" unicode="&#xff3f;" horiz-adv-x="1228" 
d="M90 -346v233h1049v-233h-1049z" />
    <glyph glyph-name="at.cap" unicode="&#xe513;" horiz-adv-x="2009" 
d="M1044 -49h13q378 0 674 219l104 -141q-128 -101 -271.5 -161.5t-261.5 -79.5t-251 -19q-218 0 -400 66t-313.5 190t-205 312t-73.5 421v82q0 233 73 421t203.5 311.5t310.5 190t394 66.5q150 0 283 -29.5t249 -93.5t200 -158t132 -230.5t48 -303.5v-62q0 -144 -28 -253.5
t-76 -179t-120.5 -113t-152.5 -61t-180 -17.5h-176l-23 129q-98 -156 -293 -156q-128 0 -217 64.5t-129.5 169.5t-40.5 243v62q0 138 40.5 243t129.5 169.5t217 64.5q196 0 293 -158l23 131h208l-16 -286v-498q95 4 157.5 25t107.5 71t65 135t20 215v62q0 141 -40.5 252
t-107.5 181.5t-160.5 116.5t-193 64.5t-212.5 18.5h-13q-174 0 -318.5 -52.5t-250 -152.5t-163.5 -254t-58 -348v-82q0 -198 58.5 -352t165 -253.5t252.5 -150.5t324 -51zM1176 631v356q-29 46 -82 82.5t-123 36.5q-104 0 -155.5 -70.5t-51.5 -195.5v-62q0 -125 51.5 -195.5
t155.5 -70.5q70 0 123 36.5t82 82.5z" />
    <glyph glyph-name="zero.inf" unicode="&#xe571;" 
d="M575 -186q0 -106 -70.5 -173t-197.5 -67t-197.5 67t-70.5 173v350q0 107 70.5 173t197.5 66t197.5 -66t70.5 -173v-350zM371 164q0 28 -17 44.5t-45 16.5h-4q-29 0 -46 -16.5t-17 -44.5v-350q0 -27 17 -44.5t46 -17.5h4q27 0 44.5 17.5t17.5 44.5v350z" />
    <glyph glyph-name="one.inf" unicode="&#xe572;" 
d="M588 -410h-527v177h162v372l-98 -65l-102 145l249 168h156v-620h160v-177z" />
    <glyph glyph-name="two.inf" unicode="&#xe573;" 
d="M575 -233v-177h-536v129l291 326q22 24 31.5 40.5t9.5 43.5v10q0 43 -16.5 64.5t-43.5 21.5h-10q-57 0 -57 -102h-205v18q0 132 66 197t202 65q74 0 129 -21.5t84 -56.5t42 -71.5t13 -75.5v-22q0 -67 -21 -110.5t-67 -96.5l-165 -182h253z" />
    <glyph glyph-name="three.inf" unicode="&#xe574;" 
d="M238 -154q0 -94 63 -94h10q28 0 47 20.5t19 59.5v10q0 66 -66 66h-106v180h104q62 0 62 66v12q0 26 -17.5 42.5t-42.5 16.5h-10q-57 0 -57 -102h-205v18q0 132 66 197t202 65q60 0 108 -14.5t77 -37t48.5 -52t27 -57t7.5 -54.5v-20q0 -113 -83 -168q88 -59 88 -172v-21
q0 -36 -14 -74t-43.5 -75t-85.5 -60.5t-130 -23.5q-135 0 -204.5 66t-69.5 190v16h205z" />
    <glyph glyph-name="four.inf" unicode="&#xe575;" 
d="M522 -410h-205v156h-292v145l305 498h192v-463h66v-180h-66v-156zM319 66l-88 -144l37 4h49v103z" />
    <glyph glyph-name="five.inf" unicode="&#xe576;" 
d="M33 -154h205q0 -94 63 -94h10q66 0 66 88v10q0 87 -76 87h-6q-22 0 -44.5 -11t-35.5 -30l-176 59l18 434h512v-178h-340l-6 -111q54 15 94 15q128 0 195.5 -70.5t67.5 -189.5v-21q0 -120 -69 -190t-204 -70t-204.5 66t-69.5 190v16z" />
    <glyph glyph-name="six.inf" unicode="&#xe577;" 
d="M537 403v-180q-90 0 -145.5 -18.5t-90.5 -59.5q-29 -36 -39 -75q46 24 100 24q100 0 159 -68.5t59 -183.5v-10q0 -120 -69 -189t-206 -69q-132 0 -202 82.5t-70 216.5v16q0 222 112 369q62 84 155 114.5t237 30.5zM307 -82q-46 0 -69 -37v-24q0 -52 18 -78.5t47 -26.5h6
q26 0 46 20t20 54v22q0 70 -62 70h-6z" />
    <glyph glyph-name="seven.inf" unicode="&#xe578;" 
d="M27 102v287h559v-127l-273 -672h-219l264 623l-90 -2h-63v-109h-178z" />
    <glyph glyph-name="eight.inf" unicode="&#xe579;" 
d="M307 -426q-75 0 -131 23.5t-85.5 60.5t-43.5 75t-14 74v23q0 111 88 170q-82 58 -82 168v20q0 27 7.5 54.5t27 57t48.5 52t77 37t108 14.5t108 -14.5t77 -37t48.5 -52t27 -57t7.5 -54.5v-20q0 -112 -81 -168q86 -60 86 -170v-23q0 -36 -14 -74t-43.5 -75t-85.5 -60.5
t-130 -23.5zM301 -92q-63 0 -63 -66v-10q0 -39 18 -59.5t45 -20.5h10q28 0 47 20.5t19 59.5v10q0 66 -66 66h-10zM311 225h-10q-24 0 -41.5 -17t-17.5 -44v-10q0 -66 63 -66h4q62 0 62 66v10q0 27 -17.5 44t-42.5 17z" />
    <glyph glyph-name="nine.inf" unicode="&#xe57a;" 
d="M76 -426v180q92 1 146 20t89 60q22 28 39 76q-52 -25 -100 -25q-98 0 -156.5 68.5t-58.5 183.5v10q0 118 68.5 187t203.5 69q134 0 204.5 -82t70.5 -217v-14q0 -216 -113 -371q-62 -83 -156 -114t-237 -31zM305 59q45 0 72 37v27q0 50 -18.5 77t-47.5 27h-6
q-27 0 -46 -20t-19 -55v-21q0 -72 61 -72h4z" />
    <glyph glyph-name="plus.inf" unicode="&#xe57b;" 
d="M217 256h180v-176h176v-180h-176v-176h-180v176h-176v180h176v176z" />
    <glyph glyph-name="minus.inf" unicode="&#xe57c;" 
d="M41 -100v180h532v-180h-532z" />
    <glyph glyph-name="equal.inf" unicode="&#xe57d;" 
d="M41 14v179h532v-179h-532zM41 -213v178h532v-178h-532z" />
    <glyph glyph-name="parenleft.inf" unicode="&#xe57e;" horiz-adv-x="397" 
d="M37 -20v20q0 247 123 389h209q-129 -195 -129 -389v-20q0 -195 129 -390h-209q-123 138 -123 390z" />
    <glyph glyph-name="parenright.inf" unicode="&#xe57f;" horiz-adv-x="397" 
d="M356 0v-20q0 -255 -120 -390h-209q127 185 127 390v20q0 204 -127 389h209q120 -138 120 -389z" />
    <glyph glyph-name="Anocross" unicode="&#xe731;" horiz-adv-x="1292" 
d="M457 1606h379l419 -1606h-294l-314 1292l-313 -1292h-297z" />
    <glyph glyph-name="idotaccent" unicode="&#xe785;" horiz-adv-x="512" 
d="M123 0v1085h266v-1085h-266zM401 1563v-289h-290v289h290z" />
    <glyph glyph-name="interrobangdown" unicode="&#xe935;" horiz-adv-x="991" 
d="M410 643h149l16 -827q130 52 130 307h239v-33q0 -127 -23 -220.5t-75 -164t-142 -106t-217 -35.5q-119 0 -207.5 31t-139 85.5t-74 120.5t-23.5 144q0 81 19 146.5t50 109.5t68.5 82t75.5 73.5t71 73.5t55.5 92.5t27.5 120.5zM346 797v288h291v-288h-291zM315 -33
q0 -117 99 -153l10 419q-38 -59 -55 -88.5t-35.5 -80.5t-18.5 -97z" />
    <glyph glyph-name="interrobangdown.cap" unicode="&#xe99b;" horiz-adv-x="991" 
d="M410 1155h149l19 -930q67 27 94.5 105t27.5 217h244v-31q0 -131 -23 -227.5t-75 -169t-142 -109.5t-217 -37q-122 0 -211 33.5t-138.5 93.5t-72 132t-22.5 159q0 83 19 150t49.5 112.5t67.5 85.5t75.5 80t71 84t56 108.5t28.5 143.5zM336 1309v288h291v-288h-291z
M301 420q0 -163 113 -199l10 500q-9 -16 -42 -74.5t-44 -81t-24 -65.5t-13 -80z" />
    <glyph glyph-name="registered.cap" unicode="&#xe99c;" horiz-adv-x="1884" 
d="M117 799q0 168 65.5 320.5t176 263t263 176t320.5 65.5t320.5 -65.5t263 -176t176 -263t65.5 -320.5t-65.5 -320.5t-176 -263.5t-263 -176.5t-320.5 -65.5t-320.5 65.5t-263 176.5t-176 263.5t-65.5 320.5zM223 799q0 -146 57 -279.5t153 -229.5t229.5 -153t279.5 -57
t279.5 57t229.5 153t153 229.5t57 279.5t-57 279.5t-153 229.5t-229.5 153t-279.5 57t-279.5 -57t-229.5 -153t-153 -229.5t-57 -279.5zM793 651v-334h-240v963h459q63 0 116 -13.5t102 -45t77 -94t28 -150.5v-23q0 -200 -147 -268l147 -369h-254l-108 334h-180zM793 831
h168q133 0 133 127v15q0 127 -133 127h-168v-269z" />
    <glyph glyph-name="period.T" unicode="&#xf182;" 
d="M453 289v-289h-291v289h291z" />
    <glyph glyph-name="comma.T" unicode="&#xf183;" 
d="M453 289v-228q0 -167 -79.5 -252t-234.5 -85v139q147 0 170 137h-147v289h291z" />
    <glyph glyph-name="colon.T" unicode="&#xf184;" 
d="M453 944v-291h-291v291h291zM453 289v-289h-291v289h291z" />
    <glyph glyph-name="semicolon.T" unicode="&#xf185;" 
d="M453 289v-228q0 -167 -79.5 -252t-234.5 -85v139q147 0 170 137h-147v289h291zM453 944v-291h-291v291h291z" />
    <glyph glyph-name="onesixteenth" unicode="&#xf215;" horiz-adv-x="2252" 
d="M336 0h-213l1180 1597h213zM2175 813v-180q-90 0 -145.5 -18.5t-90.5 -59.5q-27 -34 -38 -76q48 25 100 25q100 0 158.5 -68t58.5 -184v-10q0 -120 -68.5 -189t-205.5 -69q-132 0 -202.5 82.5t-70.5 216.5v16q0 221 113 369q62 84 154.5 114.5t236.5 30.5zM588 799h-527
v176h162v373l-98 -66l-102 145l249 168h156v-620h160v-176zM1612 0h-527v176h162v373l-98 -66l-102 146l249 168h156v-621h160v-176zM1946 328q-45 0 -70 -37v-25q0 -52 18.5 -78t47.5 -26h6q26 0 45.5 20t19.5 54v22q0 70 -61 70h-6z" />
    <glyph glyph-name="threesixteenths" unicode="&#xf216;" horiz-adv-x="2252" 
d="M336 0h-213l1180 1597h213zM2175 813v-180q-90 0 -145.5 -18.5t-90.5 -59.5q-27 -34 -38 -76q48 25 100 25q100 0 158.5 -68t58.5 -184v-10q0 -120 -68.5 -189t-205.5 -69q-132 0 -202.5 82.5t-70.5 216.5v16q0 221 113 369q62 84 154.5 114.5t236.5 30.5zM238 1055
q0 -94 63 -94h10q28 0 47 20t19 59v11q0 65 -66 65h-106v180h104q62 0 62 66v12q0 26 -17.5 43t-42.5 17h-10q-57 0 -57 -103h-205v19q0 132 66 197t202 65q60 0 108 -14.5t77 -37t48.5 -52t27 -57t7.5 -54.5v-21q0 -112 -83 -170q88 -59 88 -170v-20q0 -36 -14 -74
t-43.5 -75.5t-85.5 -61t-130 -23.5q-135 0 -204.5 66t-69.5 190v17h205zM1612 0h-527v176h162v373l-98 -66l-102 146l249 168h156v-621h160v-176zM1946 328q-45 0 -70 -37v-25q0 -52 18.5 -78t47.5 -26h6q26 0 45.5 20t19.5 54v22q0 70 -61 70h-6z" />
    <glyph glyph-name="fivesixteenths" unicode="&#xf217;" horiz-adv-x="2252" 
d="M336 0h-213l1180 1597h213zM2175 813v-180q-90 0 -145.5 -18.5t-90.5 -59.5q-27 -34 -38 -76q48 25 100 25q100 0 158.5 -68t58.5 -184v-10q0 -120 -68.5 -189t-205.5 -69q-132 0 -202.5 82.5t-70.5 216.5v16q0 221 113 369q62 84 154.5 114.5t236.5 30.5zM33 1055h205
q0 -94 63 -94h10q66 0 66 88v10q0 86 -76 86h-6q-22 0 -44.5 -11t-35.5 -30l-176 59l18 434h512v-178h-340l-6 -110q51 14 94 14q128 0 195.5 -70.5t67.5 -189.5v-21q0 -120 -69 -190t-204 -70t-204.5 66t-69.5 190v17zM1612 0h-527v176h162v373l-98 -66l-102 146l249 168
h156v-621h160v-176zM1946 328q-45 0 -70 -37v-25q0 -52 18.5 -78t47.5 -26h6q26 0 45.5 20t19.5 54v22q0 70 -61 70h-6z" />
    <glyph glyph-name="sevensixteenths" unicode="&#xf218;" horiz-adv-x="2252" 
d="M336 0h-213l1180 1597h213zM2175 813v-180q-90 0 -145.5 -18.5t-90.5 -59.5q-27 -34 -38 -76q48 25 100 25q100 0 158.5 -68t58.5 -184v-10q0 -120 -68.5 -189t-205.5 -69q-132 0 -202.5 82.5t-70.5 216.5v16q0 221 113 369q62 84 154.5 114.5t236.5 30.5zM1612 0h-527
v176h162v373l-98 -66l-102 146l249 168h156v-621h160v-176zM27 1311v286h559v-127l-273 -671h-219l264 622l-90 -2h-63v-108h-178zM1946 328q-45 0 -70 -37v-25q0 -52 18.5 -78t47.5 -26h6q26 0 45.5 20t19.5 54v22q0 70 -61 70h-6z" />
    <glyph glyph-name="ninesixteenths" unicode="&#xf219;" horiz-adv-x="2252" 
d="M336 0h-213l1180 1597h213zM76 782v181q92 1 146 19.5t89 59.5q24 30 39 76q-43 -24 -100 -24q-98 0 -156.5 68.5t-58.5 183.5v10q0 118 68.5 187t203.5 69q134 0 204.5 -82t70.5 -217v-15q0 -215 -113 -370q-62 -83 -156 -114.5t-237 -31.5zM2175 813v-180
q-90 0 -145.5 -18.5t-90.5 -59.5q-27 -34 -38 -76q48 25 100 25q100 0 158.5 -68t58.5 -184v-10q0 -120 -68.5 -189t-205.5 -69q-132 0 -202.5 82.5t-70.5 216.5v16q0 221 113 369q62 84 154.5 114.5t236.5 30.5zM1612 0h-527v176h162v373l-98 -66l-102 146l249 168h156
v-621h160v-176zM305 1268q45 0 72 37v26q0 51 -18.5 78t-47.5 27h-6q-26 0 -45.5 -20.5t-19.5 -55.5v-21q0 -71 61 -71h4zM1946 328q-45 0 -70 -37v-25q0 -52 18.5 -78t47.5 -26h6q26 0 45.5 20t19.5 54v22q0 70 -61 70h-6z" />
    <glyph glyph-name="elevensixteenths" unicode="&#xf220;" horiz-adv-x="2867" 
d="M950 0h-213l1180 1597h213zM2789 813v-180q-90 0 -145 -18.5t-90 -59.5q-29 -36 -39 -76q48 25 100 25q100 0 158.5 -68t58.5 -184v-10q0 -120 -68.5 -189t-205.5 -69q-132 0 -202 82.5t-70 216.5v16q0 222 112 369q62 84 154.5 114.5t236.5 30.5zM2226 0h-526v176h162
v373l-99 -66l-102 146l250 168h155v-621h160v-176zM1202 799h-526v176h162v373l-99 -66l-102 145l250 168h155v-620h160v-176zM588 799h-527v176h162v373l-98 -66l-102 145l249 168h156v-620h160v-176zM2560 328q-45 0 -70 -37v-25q0 -52 18.5 -78t47.5 -26h6q26 0 46 20
t20 54v22q0 70 -62 70h-6z" />
    <glyph glyph-name="thirteensixteenths" unicode="&#xf221;" horiz-adv-x="2867" 
d="M950 0h-213l1180 1597h213zM2789 813v-180q-90 0 -145 -18.5t-90 -59.5q-29 -36 -39 -76q48 25 100 25q100 0 158.5 -68t58.5 -184v-10q0 -120 -68.5 -189t-205.5 -69q-132 0 -202 82.5t-70 216.5v16q0 222 112 369q62 84 154.5 114.5t236.5 30.5zM852 1055q0 -94 63 -94
h11q28 0 46.5 20t18.5 59v11q0 65 -65 65h-107v180h105q61 0 61 66v12q0 26 -17 43t-42 17h-11q-57 0 -57 -103h-205v19q0 132 66.5 197t202.5 65q60 0 108 -14.5t77 -37t48.5 -52t27 -57t7.5 -54.5v-21q0 -111 -84 -170q88 -59 88 -170v-20q0 -36 -14 -74t-43 -75.5
t-85 -61t-130 -23.5q-135 0 -205 66t-70 190v17h205zM588 799h-527v176h162v373l-98 -66l-102 145l249 168h156v-620h160v-176zM2226 0h-526v176h162v373l-99 -66l-102 146l250 168h155v-621h160v-176zM2560 328q-45 0 -70 -37v-25q0 -52 18.5 -78t47.5 -26h6q26 0 46 20
t20 54v22q0 70 -62 70h-6z" />
    <glyph glyph-name="fifteensixteenths" unicode="&#xf222;" horiz-adv-x="2867" 
d="M950 0h-213l1180 1597h213zM2789 813v-180q-90 0 -145 -18.5t-90 -59.5q-29 -36 -39 -76q48 25 100 25q100 0 158.5 -68t58.5 -184v-10q0 -120 -68.5 -189t-205.5 -69q-132 0 -202 82.5t-70 216.5v16q0 222 112 369q62 84 154.5 114.5t236.5 30.5zM647 1055h205
q0 -94 63 -94h11q65 0 65 88v10q0 86 -76 86h-6q-22 0 -44.5 -11t-35.5 -30l-176 59l19 434h512v-178h-340l-6 -110q51 14 94 14q128 0 195 -70.5t67 -189.5v-21q0 -120 -68.5 -190t-203.5 -70t-205 66t-70 190v17zM588 799h-527v176h162v373l-98 -66l-102 145l249 168h156
v-620h160v-176zM2226 0h-526v176h162v373l-99 -66l-102 146l250 168h155v-621h160v-176zM2560 328q-45 0 -70 -37v-25q0 -52 18.5 -78t47.5 -26h6q26 0 46 20t20 54v22q0 70 -62 70h-6z" />
    </font>
</defs>
</svg>
