<svg xmlns="http://www.w3.org/2000/svg" width="25.912" height="24.25" viewBox="0 0 25.912 24.25">
  <g id="Design" transform="translate(-0.091 -0.091)">
    <g id="Desktop_Menu-Hover" transform="translate(1 1)">
      <g id="Nav_white" transform="translate(0)">
        <g id="Login-_-Cart" data-name="Login-/-Cart" transform="translate(0 0)">
          <g id="cart" transform="translate(0 0)">
            <path id="Stroke-1" d="M7.273,17.19a.9.9,0,1,1-.909.9A.907.907,0,0,1,7.273,17.19Z" transform="translate(1.433 3.432)" fill="none" stroke="#f57d2d" stroke-linecap="round" stroke-linejoin="round" stroke-width="1.818" fill-rule="evenodd"/>
            <path id="Stroke-3" d="M17.273,17.19a.9.9,0,1,1-.909.9A.906.906,0,0,1,17.273,17.19Z" transform="translate(4.094 3.432)" fill="none" stroke="#f57d2d" stroke-linecap="round" stroke-linejoin="round" stroke-width="1.818" fill-rule="evenodd"/>
            <path id="Stroke-5" d="M0,0H4.381L7.316,15.178A2.209,2.209,0,0,0,9.506,17H20.151a2.21,2.21,0,0,0,2.19-1.825l1.752-9.511H5.476" fill="none" stroke="#f57d2d" stroke-linecap="round" stroke-linejoin="round" stroke-width="1.818" fill-rule="evenodd"/>
          </g>
        </g>
      </g>
    </g>
  </g>
</svg>
