<svg id="XMLID_834_" xmlns="http://www.w3.org/2000/svg" width="7.756" height="15.354" viewBox="0 0 7.756 15.354">
  <path id="XMLID_835_" d="M76.951,8.177h1.683v6.929a.248.248,0,0,0,.248.248h2.854a.248.248,0,0,0,.248-.248V8.21h1.935a.248.248,0,0,0,.246-.219l.294-2.551a.248.248,0,0,0-.246-.276H81.983v-1.6c0-.482.26-.726.771-.726h1.457a.248.248,0,0,0,.248-.248V.249A.248.248,0,0,0,84.211,0H82.2l-.092,0a3.848,3.848,0,0,0-2.516.949,2.639,2.639,0,0,0-.877,2.346v1.87H76.951a.248.248,0,0,0-.248.248V7.93A.248.248,0,0,0,76.951,8.177Z" transform="translate(-76.703)" fill="#f57d2d"/>
</svg>
