<svg xmlns="http://www.w3.org/2000/svg" width="14.672" height="14.672" viewBox="0 0 14.672 14.672">
  <path id="Forma_1" data-name="Forma 1" d="M1.879,0H12.784a1.839,1.839,0,0,1,1.883,1.883V12.784a1.839,1.839,0,0,1-1.883,1.883H1.879A1.838,1.838,0,0,1,0,12.784V1.878A1.839,1.839,0,0,1,1.879,0Zm8.8,1.63a.662.662,0,0,0-.66.661V3.867a.662.662,0,0,0,.66.661h1.658A.662.662,0,0,0,13,3.867V2.286a.662.662,0,0,0-.66-.661ZM13.009,6.2H11.718a4.294,4.294,0,0,1,.188,1.259,4.491,4.491,0,0,1-4.561,4.419,4.491,4.491,0,0,1-4.56-4.419A4.285,4.285,0,0,1,2.973,6.2H1.626v6.2a.585.585,0,0,0,.583.583H12.426a.585.585,0,0,0,.583-.583V6.2ZM7.345,4.444A2.9,2.9,0,0,0,4.4,7.3a2.9,2.9,0,0,0,2.947,2.855A2.9,2.9,0,0,0,10.292,7.3,2.9,2.9,0,0,0,7.345,4.444Z" transform="translate(0.005 0.005)" fill="#f57d2d"/>
</svg>
