<svg id="linkedin" xmlns="http://www.w3.org/2000/svg" width="16.137" height="16.137" viewBox="0 0 16.137 16.137">
  <path id="Path_762" data-name="Path 762" d="M18.914,18.618h0V12.7c0-2.9-.623-5.125-4.008-5.125a3.514,3.514,0,0,0-3.165,1.739H11.7V7.844H8.489V18.618h3.342V13.283c0-1.4.266-2.763,2.006-2.763,1.714,0,1.739,1.6,1.739,2.853v5.245Z" transform="translate(-2.781 -2.482)" fill="#f57d2d"/>
  <path id="Path_763" data-name="Path 763" d="M.4,7.977H3.742V18.75H.4Z" transform="translate(-0.13 -2.614)" fill="#f57d2d"/>
  <path id="Path_764" data-name="Path 764" d="M1.938,0A1.947,1.947,0,1,0,3.875,1.938,1.938,1.938,0,0,0,1.938,0Z" fill="#f57d2d"/>
</svg>
