<svg xmlns="http://www.w3.org/2000/svg" width="34.655" height="57.695" viewBox="0 0 34.655 57.695">
  <g id="_10018552211535699799" data-name="10018552211535699799" transform="translate(-23.642 -4.88)">
    <path id="Path_16" data-name="Path 16" d="M45.98,46.931l9.683-15.57a.882.882,0,0,0,.079-.158,17.3,17.3,0,1,0-29.492,0,1,1,0,0,0,.069.139L35.654,46.97c-7.247,1.024-12.012,4-12.012,7.619,0,4.479,7.611,7.986,17.327,7.986S58.3,59.067,58.3,54.589C58.3,50.957,53.309,47.911,45.98,46.931Zm-17.991-16.6a15.364,15.364,0,1,1,26.011,0,.933.933,0,0,0-.08.161L43.691,46.943c-.154.236-.184.289-.372.6l-2.583,4.154L28.076,30.509A.974.974,0,0,0,27.989,30.335Zm12.981,30.3c-9.069,0-15.389-3.188-15.389-6.049,0-2.6,4.76-5.043,11.162-5.8l3.145,5.264a.968.968,0,0,0,.823.471h.008a.97.97,0,0,0,.823-.457l3.307-5.316c6.5.7,11.511,3.213,11.511,5.838C56.359,57.45,50.039,60.638,40.97,60.638Z" transform="translate(0)" fill="#f57d2d"/>
    <path id="Path_17" data-name="Path 17" d="M53.313,28.22a6.291,6.291,0,1,0-6.291,6.291A6.3,6.3,0,0,0,53.313,28.22Zm-10.645,0a4.354,4.354,0,1,1,4.354,4.354A4.358,4.358,0,0,1,42.668,28.22Z" transform="translate(-6.052 -6.038)" fill="#f57d2d"/>
  </g>
</svg>
