<svg xmlns="http://www.w3.org/2000/svg" width="60" height="55" viewBox="0 0 60 55">
  <g id="_3327245011586787349" data-name="3327245011586787349" transform="translate(-2 -2)">
    <path id="Path_6" data-name="Path 6" d="M57,9.333H52V5.667a4.015,4.015,0,0,0-8,0V9.333H20V5.667A3.848,3.848,0,0,0,16,2a3.848,3.848,0,0,0-4,3.667V9.333H7a4.811,4.811,0,0,0-5,4.583v38.5A4.811,4.811,0,0,0,7,57H57a4.811,4.811,0,0,0,5-4.583v-38.5A4.811,4.811,0,0,0,57,9.333ZM46,5.667a2.008,2.008,0,0,1,4,0V13a2.008,2.008,0,0,1-4,0Zm-32,0a2.008,2.008,0,0,1,4,0V13a2.008,2.008,0,0,1-4,0Zm-7,5.5h5V13a3.848,3.848,0,0,0,4,3.667A3.848,3.848,0,0,0,20,13V11.167H44V13a4.015,4.015,0,0,0,8,0V11.167h5a2.887,2.887,0,0,1,3,2.75v6.417H4V13.917A2.887,2.887,0,0,1,7,11.167Zm50,44H7a2.887,2.887,0,0,1-3-2.75V22.167H60v30.25A2.887,2.887,0,0,1,57,55.167Z" fill="#fff"/>
    <rect id="Rectangle_5" data-name="Rectangle 5" width="2" height="2" transform="translate(31 16.621)" fill="#fff"/>
    <rect id="Rectangle_6" data-name="Rectangle 6" width="2" height="2" transform="translate(35 16.621)" fill="#fff"/>
    <rect id="Rectangle_7" data-name="Rectangle 7" width="2" height="2" transform="translate(27 16.621)" fill="#fff"/>
    <path id="Path_7" data-name="Path 7" d="M44,35H24V33a1,1,0,0,0-1.588-.808l-11,8a1,1,0,0,0,0,1.617l11,8A1,1,0,0,0,24,49V47H44a1,1,0,0,0,1-1V36A1,1,0,0,0,44,35ZM43,45H23a1,1,0,0,0-1,1v1.036L13.7,41,22,34.964V36a1,1,0,0,0,1,1H43Z" transform="translate(0 -3.571)" fill="#fff"/>
    <rect id="Rectangle_8" data-name="Rectangle 8" width="2" height="12" transform="translate(51 31.563)" fill="#fff"/>
    <rect id="Rectangle_9" data-name="Rectangle 9" width="2" height="12" transform="translate(47 31.563)" fill="#fff"/>
  </g>
</svg>
