<svg xmlns="http://www.w3.org/2000/svg" width="88" height="55" viewBox="0 0 88 55">
  <g id="_13394683641536669221" data-name="13394683641536669221" transform="translate(-7 -25)">
    <path id="Path_2" data-name="Path 2" d="M93.5,52.1H86V40a1.476,1.476,0,0,0-1.5-1.452H61v-12.1A1.476,1.476,0,0,0,59.5,25H8.5A1.476,1.476,0,0,0,7,26.452V71.937a1.476,1.476,0,0,0,1.5,1.452H19.92a7.681,7.681,0,0,0,15.21,0H68.68a7.691,7.691,0,0,0,15.23,0H93.5A1.476,1.476,0,0,0,95,71.937V53.55A1.476,1.476,0,0,0,93.5,52.1Zm-66,25.007a4.665,4.665,0,0,1-4.32-2.773,4.4,4.4,0,0,1,1-4.923,4.774,4.774,0,0,1,5.084-.98,4.511,4.511,0,0,1,2.874,4.175,4.585,4.585,0,0,1-4.6,4.5Zm0-11.913a7.641,7.641,0,0,0-7.3,5.294H10V27.9H58V70.486H34.86a7.632,7.632,0,0,0-7.32-5.294ZM76.29,77.105a4.512,4.512,0,1,1,4.66-4.5A4.587,4.587,0,0,1,76.29,77.105ZM92,70.486H83.63a7.727,7.727,0,0,0-14.63,0H61V41.452H83v12.1A1.476,1.476,0,0,0,84.5,55H92Z" fill="#fff"/>
    <path id="Path_3" data-name="Path 3" d="M16.5,43H47l-5,5a1.5,1.5,0,1,0,2.12,2.12l6.73-6.73a1.5,1.5,0,0,0,0-2.12l-6.73-6.73A1.513,1.513,0,1,0,42,36.7L45.3,40H16.5a1.5,1.5,0,0,0,0,3Z" transform="translate(0 -0.413)" fill="#fff"/>
    <path id="Path_4" data-name="Path 4" d="M49,57.5A1.5,1.5,0,0,0,47.5,56H17.1L22,51.11A1.5,1.5,0,1,0,19.86,49l-6.73,6.73a1.5,1.5,0,0,0,0,2.12l6.73,6.73A1.51,1.51,0,0,0,22,62.45L18.54,59h29A1.5,1.5,0,0,0,49,57.5Z" transform="translate(0 -1.068)" fill="#fff"/>
  </g>
</svg>
