<svg xmlns="http://www.w3.org/2000/svg" width="42.427" height="56.393" viewBox="0 0 42.427 56.393">
  <g id="_2840799461637732464" data-name="2840799461637732464" transform="translate(-75.1 -15.1)">
    <path id="Path_8" data-name="Path 8" d="M117.277,35.684l-3.636-4.011,1.138-5.29a.942.942,0,0,0-.633-1.091L109,23.627l-1.654-5.149a.953.953,0,0,0-1.091-.633l-5.29,1.138-4.011-3.636a.922.922,0,0,0-1.255,0l-4.011,3.636L86.4,17.845a.942.942,0,0,0-1.091.633l-1.666,5.149-5.161,1.665a.953.953,0,0,0-.633,1.091l1.138,5.29-3.636,4.011a.922.922,0,0,0,0,1.255l3.636,4.011-1.138,5.29a.942.942,0,0,0,.633,1.091L83.627,49l.211.669L77.716,66.637a.914.914,0,0,0,.293,1.044.936.936,0,0,0,1.079.07l6.252-3.824L87.7,70.859a.934.934,0,0,0,.88.633h.012a.923.923,0,0,0,.88-.622l5.243-14.5.985.891a.916.916,0,0,0,.633.246.937.937,0,0,0,.633-.246l.985-.891,5.243,14.5a.935.935,0,0,0,.88.622h.012a.934.934,0,0,0,.88-.633l2.358-6.932,6.252,3.824a.936.936,0,0,0,1.079-.07.951.951,0,0,0,.293-1.044l-6.134-16.96.211-.669,5.149-1.666a.953.953,0,0,0,.633-1.091l-1.138-5.29,3.636-4.011A.964.964,0,0,0,117.277,35.684ZM88.6,67.728l-1.877-5.513a.979.979,0,0,0-.575-.586.9.9,0,0,0-.809.082l-4.973,3.038,4.4-12.163.5,1.56a.953.953,0,0,0,1.091.633l5.29-1.138,1.525,1.384Zm23.645-2.967-4.973-3.038a.938.938,0,0,0-.809-.082.923.923,0,0,0-.575.586l-1.877,5.513-4.6-12.7,1.525-1.384,5.29,1.138a.942.942,0,0,0,1.091-.633l.5-1.56Zm-.3-24.7a.952.952,0,0,0-.223.821l1.056,4.938-4.8,1.548a.957.957,0,0,0-.61.61l-.457,1.407-1.091,3.39-4.938-1.056a.952.952,0,0,0-.821.223l-3.742,3.378-3.742-3.39a.973.973,0,0,0-.633-.246,1.156,1.156,0,0,0-.2.023l-4.938,1.056-1.091-3.39-.457-1.407a.957.957,0,0,0-.61-.61l-4.785-1.536,1.056-4.938a.952.952,0,0,0-.223-.821l-3.378-3.742,3.39-3.742a.952.952,0,0,0,.223-.821l-1.056-4.938,4.8-1.548a.957.957,0,0,0,.61-.61l1.536-4.8,4.938,1.056a.952.952,0,0,0,.821-.223l3.742-3.378,3.742,3.39a.952.952,0,0,0,.821.223l4.938-1.056,1.548,4.8a.957.957,0,0,0,.61.61l4.8,1.548-1.056,4.938a.952.952,0,0,0,.223.821l3.378,3.73Z" transform="translate(0 0)" fill="#fff"/>
    <path id="Path_9" data-name="Path 9" d="M150.075,80a14.075,14.075,0,1,0,14.075,14.075A14.086,14.086,0,0,0,150.075,80Zm0,26.273a12.2,12.2,0,1,1,12.2-12.2A12.219,12.219,0,0,1,150.075,106.273Z" transform="translate(-53.757 -57.288)" fill="#fff"/>
    <path id="Path_10" data-name="Path 10" d="M186.477,136.573l-8.058,7.976-2.428-2.4a1.905,1.905,0,0,0-2.651,0l-1.49,1.466a1.869,1.869,0,0,0,0,2.651l5.243,5.184a1.9,1.9,0,0,0,2.651,0L190.618,140.7a1.869,1.869,0,0,0,0-2.651l-1.49-1.466A1.894,1.894,0,0,0,186.477,136.573Zm-5.9,11.412-2.158,2.123-5.231-5.172,1.49-1.454,3.085,3.05a.927.927,0,0,0,1.314,0l8.726-8.621-.657-.669,2.146,2.123Z" transform="translate(-84.917 -106.753)" fill="#fff"/>
  </g>
</svg>
