<svg xmlns="http://www.w3.org/2000/svg" width="17.055" height="13.857" viewBox="0 0 17.055 13.857">
  <g id="twitter-1" transform="translate(0 0)">
    <g id="Group_152" data-name="Group 152" transform="translate(0 0)">
      <path id="Path_761" data-name="Path 761" d="M17.055,49.64a7.29,7.29,0,0,1-2.015.552,3.477,3.477,0,0,0,1.538-1.933,6.987,6.987,0,0,1-2.217.846A3.5,3.5,0,0,0,8.313,51.5a3.6,3.6,0,0,0,.081.8,9.9,9.9,0,0,1-7.207-3.657A3.5,3.5,0,0,0,2.262,53.31a3.453,3.453,0,0,1-1.58-.431v.038a3.512,3.512,0,0,0,2.8,3.435,3.49,3.49,0,0,1-.917.115,3.092,3.092,0,0,1-.662-.06,3.53,3.53,0,0,0,3.267,2.436A7.025,7.025,0,0,1,.837,60.336,6.548,6.548,0,0,1,0,60.288a9.843,9.843,0,0,0,5.364,1.569,9.883,9.883,0,0,0,9.951-9.949c0-.155-.005-.3-.013-.452A6.975,6.975,0,0,0,17.055,49.64Z" transform="translate(0 -48)" fill="#f57d2d"/>
    </g>
  </g>
</svg>
